<?xml version="1.0" encoding="utf-8"?>
<!-- Generator: Adobe Illustrator 21.1.0, SVG Export Plug-In . SVG Version: 6.00 Build 0)  -->
<svg version="1.1" id="レイヤー_1" xmlns="http://www.w3.org/2000/svg" xmlns:xlink="http://www.w3.org/1999/xlink" x="0px"
	 y="0px" viewBox="0 0 178.9 37" style="enable-background:new 0 0 178.9 37;" xml:space="preserve">
<style type="text/css">
	.st0{fill:#B07DB3;}
	.st1{fill:#FF9366;}
	.st2{fill:#F0C046;}
	.st3{fill:#4FAC63;}
</style>
<g>
	<path class="st0" d="M0,36.4V0.9h7.2v29.5h18v6H0z"/>
	<path class="st1" d="M41.4,18.7c0-3.6,0.5-6.7,1.6-9.2c0.8-1.8,1.9-3.5,3.3-4.9c1.4-1.4,3-2.5,4.6-3.2C53.2,0.5,55.8,0,58.7,0
		c5.3,0,9.5,1.6,12.7,4.9c3.2,3.3,4.7,7.8,4.7,13.6c0,5.8-1.6,10.3-4.7,13.6C68.2,35.4,64,37,58.8,37c-5.3,0-9.6-1.6-12.7-4.9
		C43,28.9,41.4,24.4,41.4,18.7z M48.8,18.5c0,4.1,0.9,7.1,2.8,9.2c1.9,2.1,4.2,3.1,7.1,3.1s5.2-1,7.1-3.1c1.8-2.1,2.8-5.2,2.8-9.3
		c0-4.1-0.9-7.2-2.7-9.2c-1.8-2-4.2-3-7.2-3s-5.4,1-7.2,3.1C49.7,11.3,48.8,14.4,48.8,18.5z"/>
	<path class="st2" d="M110.9,23.2v-6h15.6v14.3c-1.5,1.5-3.7,2.8-6.6,3.9c-2.9,1.1-5.8,1.7-8.7,1.7c-3.7,0-7-0.8-9.8-2.4
		c-2.8-1.6-4.9-3.8-6.3-6.7C93.7,25,93,21.8,93,18.4c0-3.7,0.8-7,2.3-9.9c1.6-2.9,3.8-5.1,6.9-6.7c2.3-1.2,5.2-1.8,8.6-1.8
		c4.4,0,7.9,0.9,10.4,2.8c2.5,1.9,4.1,4.4,4.8,7.7l-7.2,1.3c-0.5-1.8-1.5-3.1-2.8-4.2c-1.4-1-3.1-1.5-5.2-1.5c-3.2,0-5.7,1-7.5,3
		c-1.9,2-2.8,5-2.8,8.9c0,4.2,0.9,7.4,2.8,9.6c1.9,2.1,4.4,3.2,7.4,3.2c1.5,0,3-0.3,4.6-0.9c1.5-0.6,2.8-1.3,3.9-2.2v-4.5H110.9z"/>
	<path class="st3" d="M144.2,18.7c0-3.6,0.5-6.7,1.6-9.2c0.8-1.8,1.9-3.5,3.3-4.9c1.4-1.4,3-2.5,4.6-3.2c2.2-0.9,4.8-1.4,7.7-1.4
		c5.3,0,9.5,1.6,12.7,4.9c3.2,3.3,4.7,7.8,4.7,13.6c0,5.8-1.6,10.3-4.7,13.6c-3.1,3.3-7.3,4.9-12.6,4.9c-5.3,0-9.6-1.6-12.7-4.9
		C145.7,28.9,144.2,24.4,144.2,18.7z M151.6,18.5c0,4.1,0.9,7.1,2.8,9.2c1.9,2.1,4.2,3.1,7.1,3.1s5.2-1,7.1-3.1
		c1.8-2.1,2.8-5.2,2.8-9.3c0-4.1-0.9-7.2-2.7-9.2c-1.8-2-4.2-3-7.2-3s-5.4,1-7.2,3.1C152.5,11.3,151.6,14.4,151.6,18.5z"/>
</g>
</svg>
