<?xml version="1.0" encoding="utf-8"?>
<!-- Generator: Adobe Illustrator 21.1.0, SVG Export Plug-In . SVG Version: 6.00 Build 0)  -->
<svg version="1.1" id="レイヤー_1" xmlns="http://www.w3.org/2000/svg" xmlns:xlink="http://www.w3.org/1999/xlink" x="0px"
	 y="0px" viewBox="0 0 205.1 37" style="enable-background:new 0 0 205.1 37;" xml:space="preserve">
<style type="text/css">
	.st0{fill:#B07DB3;}
	.st1{fill:#FF9366;}
	.st2{fill:#FFCC33;}
	.st3{fill:#14A154;}
	.st4{fill:#62BD9D;}
</style>
<g>
	<path class="st0" d="M0,36.4V0.6h10.8L17.3,25l6.4-24.4h10.8v35.8h-6.7V8.2l-7.1,28.2h-7L6.7,8.2v28.2H0z"/>
	<path class="st1" d="M52.8,18.7c0-3.6,0.5-6.7,1.6-9.2c0.8-1.8,1.9-3.5,3.3-4.9c1.4-1.4,2.9-2.5,4.6-3.2C64.6,0.5,67.2,0,70.1,0
		c5.3,0,9.5,1.6,12.7,4.9c3.2,3.3,4.7,7.8,4.7,13.6c0,5.8-1.6,10.3-4.7,13.6c-3.1,3.3-7.3,4.9-12.6,4.9c-5.3,0-9.6-1.6-12.7-4.9
		C54.4,28.9,52.8,24.4,52.8,18.7z M60.2,18.5c0,4.1,0.9,7.1,2.8,9.2c1.9,2.1,4.2,3.1,7.1,3.1s5.2-1,7.1-3.1c1.8-2.1,2.8-5.2,2.8-9.3
		c0-4.1-0.9-7.2-2.7-9.2c-1.8-2-4.2-3-7.2-3s-5.4,1-7.2,3.1C61.1,11.3,60.2,14.4,60.2,18.5z"/>
	<path class="st2" d="M114.8,36.4L102,0.6h7.8l9.1,26.5l8.8-26.5h7.7l-12.8,35.8H114.8z"/>
	<path class="st3" d="M151.3,36.4V0.6h7.2v35.8H151.3z"/>
	<path class="st4" d="M177.9,36.4V0.6h26.5v6.1h-19.3v7.9h18v6h-18v9.7h20v6H177.9z"/>
</g>
</svg>
