<?xml version="1.0" encoding="utf-8"?>
<!-- Generator: Adobe Illustrator 21.1.0, SVG Export Plug-In . SVG Version: 6.00 Build 0)  -->
<svg version="1.1" id="レイヤー_1" xmlns="http://www.w3.org/2000/svg" xmlns:xlink="http://www.w3.org/1999/xlink" x="0px"
	 y="0px" viewBox="0 0 68.1 29.4" style="enable-background:new 0 0 68.1 29.4;" xml:space="preserve">
<style type="text/css">
	.st0{fill:#FF6B3D;}
</style>
<g>
	<path class="st0" d="M2.9,22c0.8,0,1,0,1.1,0c0.1,0,0.1,0,0.1,0.1v0.7c0,0.1,0,0.1-0.1,0.1c-0.1,0-0.3,0-1.1,0H1.2
		c-0.8,0-1,0-1.1,0c-0.1,0-0.1,0-0.1-0.1v-0.7C0,22,0,22,0.1,22c0.1,0,0.3,0,1.1,0H2.9z M3.7,27.7c0,1.2,0,1.4,0,1.4
		c0,0.1,0,0.1-0.1,0.1H2.8c-0.1,0-0.1,0-0.1-0.1v-0.3H1.5v0.5c0,0.1,0,0.1-0.1,0.1H0.6c-0.1,0-0.1,0-0.1-0.1c0-0.1,0-0.3,0-1.5v-0.7
		c0-0.6,0-0.9,0-0.9c0-0.1,0-0.1,0.1-0.1c0.1,0,0.3,0,0.9,0h1.2c0.6,0,0.8,0,0.9,0c0.1,0,0.1,0,0.1,0.1c0,0.1,0,0.3,0,0.8V27.7z
		 M2.7,20.6c0.6,0,0.8,0,0.9,0c0.1,0,0.1,0,0.1,0.1v0.7c0,0.1,0,0.1-0.1,0.1c-0.1,0-0.3,0-0.9,0H1.5c-0.6,0-0.8,0-0.9,0
		c-0.1,0-0.1,0-0.1-0.1v-0.7c0-0.1,0-0.1,0.1-0.1c0.1,0,0.3,0,0.9,0H2.7z M2.7,23.4c0.6,0,0.8,0,0.8,0c0.1,0,0.1,0,0.1,0.1v0.6
		c0,0.1,0,0.1-0.1,0.1c-0.1,0-0.2,0-0.8,0H1.6c-0.6,0-0.8,0-0.8,0c-0.1,0-0.1,0-0.1-0.1v-0.6c0-0.1,0-0.1,0.1-0.1c0.1,0,0.2,0,0.8,0
		H2.7z M2.7,24.7c0.6,0,0.8,0,0.8,0c0.1,0,0.1,0,0.1,0.1v0.6c0,0.1,0,0.1-0.1,0.1c-0.1,0-0.2,0-0.8,0H1.6c-0.6,0-0.8,0-0.8,0
		c-0.1,0-0.1,0-0.1-0.1v-0.6c0-0.1,0-0.1,0.1-0.1c0.1,0,0.2,0,0.8,0H2.7z M1.5,26.9v1h1.2v-1H1.5z M5.6,21.7c-0.8,0-1.1,0-1.1,0
		c-0.1,0-0.1,0-0.1-0.1v-0.8c0-0.1,0-0.1,0.1-0.1c0.1,0,0.3,0,1.1,0h1.6c0.8,0,1.1,0,1.1,0c0.1,0,0.1,0,0.1,0.1c0,0.1,0,0.4,0,1.1
		v2.2c0,0.7,0,1,0,1.1c0,0.1,0,0.1-0.1,0.1H7.5c-0.1,0-0.1,0-0.1-0.1v-0.4H5.5v2.8c0,0.2,0,0.4,0.1,0.4c0.1,0.1,0.4,0.1,0.9,0.1
		c0.8,0,1-0.1,1.2-0.2c0.1-0.2,0.2-0.5,0.2-1.3c0.2,0.1,0.4,0.2,0.7,0.3C9,27,9,27,9,27.3c-0.1,0.9-0.2,1.2-0.5,1.4
		c-0.3,0.3-0.8,0.4-2.1,0.4c-0.9,0-1.4-0.1-1.7-0.3c-0.2-0.2-0.3-0.4-0.3-1v-2.9c0-0.7,0-1,0-1.1c0-0.1,0-0.1,0.1-0.1
		c0.1,0,0.4,0,1,0h1.8v-2.2H5.6z"/>
	<path class="st0" d="M16.3,23.3c-0.7,0-0.9,0-1,0c-0.1,0-0.1,0-0.1-0.1v-0.5c-0.6,0.4-1.3,0.8-2.1,1.1c-0.1,0-0.2,0.1-0.2,0.1
		c-0.1,0-0.1-0.1-0.2-0.3c-0.1-0.3-0.3-0.5-0.4-0.6c1.8-0.6,2.9-1.3,3.8-2.3c0.2-0.2,0.3-0.3,0.4-0.5c0.4,0,0.8,0.1,1.1,0.2
		c0.1,0,0.1,0.1,0.1,0.1c0,0,0,0.1-0.1,0.1l-0.1,0c0.9,0.9,2.3,1.7,4.1,2.2c-0.2,0.2-0.3,0.5-0.4,0.7c-0.1,0.2-0.1,0.3-0.2,0.3
		c0,0-0.1,0-0.2-0.1c-0.8-0.3-1.6-0.7-2.3-1.1v0.6c0,0.1,0,0.1-0.1,0.1c-0.1,0-0.3,0-1,0H16.3z M12.5,28.4c-0.1-0.1-0.1-0.1-0.1-0.2
		c0.5-0.6,0.7-1.1,0.9-1.9c0-0.1,0.1-0.1,0.2-0.1l0.7,0.2c0.1,0,0.1,0.1,0.1,0.2c-0.2,0.8-0.5,1.4-0.9,2c-0.1,0.1-0.1,0.1-0.2,0
		L12.5,28.4z M18.8,23.8c0.1,0,0.2,0,0.2,0c0.1,0,0.1-0.1,0.2-0.1c0.1,0,0.2,0.1,0.4,0.3c0.2,0.2,0.3,0.3,0.3,0.4
		c0,0.1,0,0.1-0.1,0.2c-0.1,0.1-0.2,0.1-0.4,0.4c-0.4,0.5-0.6,0.8-1,1.3c-0.1,0.1-0.1,0.1-0.1,0.1c-0.1,0-0.2-0.1-0.4-0.2
		c-0.3-0.2-0.4-0.3-0.4-0.4c0,0,0-0.1,0-0.1c0.3-0.3,0.6-0.6,0.8-1h-3.1c-1,0-1.3,0-1.4,0c-0.1,0-0.1,0-0.1-0.1v-0.7
		c0-0.1,0-0.1,0.1-0.1c0.1,0,0.4,0,1.4,0H18.8z M15.9,27.8c0,0.2,0,0.3,0.2,0.4c0.2,0.1,0.4,0.1,0.9,0.1c0.7,0,1,0,1.2-0.2
		c0.2-0.1,0.3-0.4,0.3-0.8c0.2,0.1,0.5,0.2,0.8,0.2c0.3,0.1,0.3,0.1,0.2,0.3c-0.1,0.7-0.3,1-0.6,1.1c-0.4,0.2-0.9,0.2-1.9,0.2
		c-0.8,0-1.4,0-1.6-0.2c-0.2-0.1-0.4-0.3-0.4-0.9V27c0-0.3,0-0.5,0-0.8c0.3,0,0.7,0,1,0.1c0.1,0,0.2,0.1,0.2,0.1c0,0.1,0,0.1,0,0.2
		c0,0.1-0.1,0.2-0.1,0.4V27.8z M17.5,22.4c0.5,0,0.7,0,0.9,0c-0.5-0.4-1-0.8-1.4-1.2c-0.4,0.5-0.9,0.9-1.4,1.2c0.1,0,0.4,0,0.8,0
		H17.5z M16.7,25.7C16.7,25.6,16.8,25.6,16.7,25.7c0.1-0.1,0.1-0.1,0.2,0c0.4,0.3,0.8,0.7,1.2,1.1c0,0,0.1,0.1,0.1,0.1
		c0,0,0,0.1-0.1,0.1l-0.5,0.4c0,0-0.1,0.1-0.1,0.1s-0.1,0-0.1-0.1c-0.4-0.4-0.7-0.8-1.1-1.1c0,0-0.1-0.1-0.1-0.1s0-0.1,0.1-0.1
		L16.7,25.7z M20,26.3c0.1,0,0.1-0.1,0.2,0c0.5,0.6,0.8,1.2,1.2,1.8c0,0.1,0,0.1-0.1,0.2l-0.7,0.4c-0.1,0-0.1,0-0.1,0
		c0,0,0,0-0.1-0.1c-0.3-0.7-0.6-1.3-1.1-1.9c-0.1-0.1-0.1-0.1,0.1-0.2L20,26.3z"/>
	<path class="st0" d="M29.6,21.3c0.1,0,0.1,0.1,0.1,0.2c0,0,0,0.1-0.1,0.2c-0.2,0.2-0.3,0.5-0.4,0.8c-0.6,1.5-1.1,3-1.7,4.5
		c1.5-0.1,2.4-0.2,3.5-0.4c-0.3-0.5-0.7-1.1-1.1-1.6c0.3-0.2,0.6-0.3,0.9-0.5c0.1-0.1,0.2,0,0.2,0.1c0.8,0.9,1.5,2.2,2,3.3
		c0,0,0,0.1,0,0.1c0,0.1,0,0.1-0.1,0.2c-0.2,0.2-0.5,0.3-0.8,0.4c0,0-0.1,0-0.1,0c-0.1,0-0.1,0-0.1-0.1c-0.1-0.3-0.2-0.5-0.3-0.8
		c-1.6,0.2-3.1,0.4-4.7,0.6c-0.7,0.1-0.9,0.1-1.2,0.2c-0.1,0.1-0.2,0-0.3-0.1c-0.1-0.2-0.2-0.7-0.3-1.3c0.4,0,0.8,0,1.2,0
		c0.7-1.8,1.2-3.3,1.7-4.9c0.2-0.5,0.3-0.9,0.3-1.4C28.9,20.9,29.3,21.1,29.6,21.3z"/>
	<path class="st0" d="M38.7,25.5c-1,0-1.4,0.1-1.5,0.1c-0.1,0-0.2-0.1-0.2-0.2c0-0.2-0.1-0.7-0.1-1.2c0.6,0.1,1.1,0.1,2.2,0.1h3.2
		c0.8,0,1.5,0,2.3,0c0.1,0,0.2,0,0.2,0.1c0,0.3,0,0.6,0,0.9c0,0.1,0,0.2-0.2,0.1c-0.8,0-1.5,0-2.2,0H38.7z"/>
	<path class="st0" d="M50.5,24c0.9-0.3,1.6-0.6,2.4-1c0.5-0.3,0.8-0.4,1.1-0.7c0.4,0.3,0.7,0.7,0.8,0.9c0,0.1,0.1,0.1,0.1,0.2
		c0,0.1,0,0.2-0.2,0.2c-0.3,0.1-0.6,0.2-0.8,0.3c-1,0.5-2.1,0.8-3.4,1.2v1.3c0,0.5,0.1,0.6,0.3,0.7c0.3,0.1,0.6,0.1,1.3,0.1
		c0.9,0,1.8-0.1,2.8-0.2c0.2,0,0.2,0,0.2,0.1c0,0.3,0.1,0.7,0.1,0.9c0,0.1-0.1,0.2-0.2,0.2c-1.1,0.1-1.7,0.2-3,0.2
		c-0.9,0-1.5-0.1-1.9-0.3c-0.5-0.2-0.7-0.7-0.7-1.5V23c0-0.9,0-1.3-0.1-1.8c0.5,0.1,0.9,0.1,1.3,0.2c0.1,0,0.2,0.1,0.2,0.2
		c0,0.1,0,0.1-0.1,0.2c-0.1,0.2-0.1,0.4-0.1,0.9V24z M54.6,21.2c0,0,0.1,0,0.2,0c0.3,0.2,0.7,0.6,0.9,1.1c0,0.1,0,0.1,0,0.2
		l-0.4,0.3c-0.1,0-0.1,0-0.2,0c-0.3-0.5-0.6-0.8-1-1.2L54.6,21.2z M55.5,20.5c0.1,0,0.1,0,0.2,0c0.4,0.3,0.7,0.7,0.9,1
		c0,0.1,0,0.1,0,0.2L56.2,22c-0.1,0.1-0.1,0-0.2,0c-0.3-0.4-0.6-0.8-1-1.1L55.5,20.5z"/>
	<path class="st0" d="M61.4,25.5c-1,0-1.4,0.1-1.5,0.1c-0.1,0-0.2-0.1-0.2-0.2c0-0.2-0.1-0.7-0.2-1.2c0.7,0.1,1.1,0.1,2.2,0.1H65
		c0.8,0,1.5,0,2.3,0c0.2,0,0.2,0,0.2,0.1c0,0.3,0,0.6,0,0.9c0,0.1,0,0.2-0.2,0.1c-0.7,0-1.5,0-2.2,0H61.4z"/>
</g>
<g>
	<path class="st0" d="M12.7,12.6h-2.1V6.4c0-1.6,0-2.9,0-4.4h-0.2c-0.3,1.4-0.6,2.7-1,4.2l-1.7,6.4H5.2L3.6,6.3
		C3.2,4.8,2.9,3.5,2.5,2H2.3c0,1.4,0,2.9,0,4.4v6.2H0.5V0.2H4l1.6,6.3c0.3,1.3,0.6,2.7,0.9,4.1h0.2C7,9.3,7.2,8,7.6,6.6l1.6-6.4h3.5
		V12.6z"/>
	<path class="st0" d="M29.6,6.4c0,4.1-2.1,6.5-5.3,6.5c-3.2,0-5.3-2.3-5.3-6.4C19,2.3,21.2,0,24.3,0C27.5,0,29.6,2.3,29.6,6.4z
		 M21.3,6.4c0,3.2,1.2,4.8,3,4.8c1.8,0,3-1.6,3-4.8c0-3.2-1.2-4.8-3-4.8C22.5,1.7,21.3,3.2,21.3,6.4z"/>
	<path class="st0" d="M40.9,12.6h-2.7L34.5,0.2h2.3L38.4,6c0.5,1.6,0.8,3.1,1.2,4.6h0.2c0.4-1.5,0.7-2.9,1.2-4.5l1.6-5.9h2.1
		L40.9,12.6z"/>
	<path class="st0" d="M52.8,12.6h-2.2V0.2h2.2V12.6z"/>
	<path class="st0" d="M67.9,1.9h-6v3.3h4.6v1.7h-4.6v4h6.2v1.7h-8.3V0.2h8.2V1.9z"/>
</g>
</svg>
