<?xml version="1.0" encoding="utf-8"?>
<!-- Generator: Adobe Illustrator 21.1.0, SVG Export Plug-In . SVG Version: 6.00 Build 0)  -->
<svg version="1.1" id="レイヤー_1" xmlns="http://www.w3.org/2000/svg" xmlns:xlink="http://www.w3.org/1999/xlink" x="0px"
	 y="0px" viewBox="0 0 96.4 29.4" style="enable-background:new 0 0 96.4 29.4;" xml:space="preserve">
<style type="text/css">
	.st0{fill:#FF6B3D;}
</style>
<g>
	<path class="st0" d="M0.1,22.5c0.3-1.1,1.1-1.6,2.3-1.6c1.4,0,2.3,0.8,2.3,1.9c0,0.9-0.5,1.6-1.5,1.7v0.1c1,0.2,1.6,0.9,1.6,1.9
		c0,1.3-1,2.3-2.4,2.3c-1.3,0-2.1-0.5-2.4-1.7l1.2-0.4c0.2,0.8,0.5,1.1,1.2,1.1c0.7,0,1.2-0.5,1.2-1.3c0-0.9-0.4-1.4-1.5-1.4H1.5v-1
		h0.5c1,0,1.4-0.4,1.4-1.2c0-0.7-0.4-1.1-1-1.1c-0.5,0-1,0.3-1.1,1L0.1,22.5z"/>
	<path class="st0" d="M13.1,24.8c0,2.8-0.9,4-2.4,4c-1.6,0-2.4-1.1-2.4-4s0.9-3.9,2.4-3.9C12.3,20.9,13.1,22,13.1,24.8z M9.6,24.8
		c0,2.2,0.3,3,1.1,3c0.8,0,1.1-0.7,1.1-3c0-2.2-0.3-2.9-1.1-2.9C9.9,21.9,9.6,22.5,9.6,24.8z"/>
	<path class="st0" d="M19.4,28.5c-0.1,0-0.1,0-0.1-0.1c0-0.1,0-0.3,0-1.4v-0.5c0-0.6,0-0.8,0-0.9c0-0.1,0-0.1,0.1-0.1
		c0.1,0,0.3,0,1.1,0h1.3c0.8,0,1,0,1.1,0c0.1,0,0.1,0,0.1,0.1c0,0.1,0,0.3,0,0.7v0.6c0,1,0,1.3,0,1.3c0.2,0,0.5,0,0.7,0
		c0.2,0,0.3-0.1,0.3-0.3v-6.3h-5.5V24c0,2.8-0.3,4-1,5.2c-0.1,0.1-0.1,0.2-0.2,0.2c0,0-0.1-0.1-0.2-0.2c-0.2-0.3-0.5-0.5-0.7-0.6
		c0.7-1.1,0.9-2.1,0.9-4.6v-1.6c0-1,0-1.6,0-1.6c0-0.1,0-0.1,0.1-0.1c0.1,0,0.4,0,1.4,0h4.7c1,0,1.3,0,1.4,0c0.1,0,0.1,0,0.1,0.1
		c0,0.1,0,0.6,0,1.6v4.5c0,0.5,0,1,0,1.4c0,0.4-0.1,0.6-0.3,0.8c-0.2,0.2-0.5,0.3-1.3,0.3c-0.3,0-0.3,0-0.4-0.3
		c-0.1-0.2-0.1-0.5-0.2-0.6h-0.7c-0.1,0-0.1,0-0.1-0.1V28h-1.8v0.4c0,0.1,0,0.1-0.1,0.1H19.4z M21.6,23.4v0.7h0.6c0.9,0,1.2,0,1.2,0
		c0.1,0,0.1,0,0.1,0.1v0.6c0,0.1,0,0.1-0.1,0.1c-0.1,0-0.3,0-1.2,0h-2.1c-0.9,0-1.2,0-1.2,0c-0.1,0-0.1,0-0.1-0.1v-0.6
		c0-0.1,0-0.1,0.1-0.1c0.1,0,0.3,0,1.2,0h0.5v-0.7h-0.3c-0.8,0-1.1,0-1.1,0c-0.1,0-0.1,0-0.1-0.1v-0.6c0-0.1,0-0.1,0.1-0.1
		c0.1,0,0.3,0,1.1,0h0.3c0-0.3,0-0.5-0.1-0.8c0.4,0,0.7,0,1,0.1c0.1,0,0.2,0.1,0.2,0.1c0,0.1,0,0.1,0,0.2c0,0.1-0.1,0.2-0.1,0.4H22
		c0.8,0,1.1,0,1.1,0c0.1,0,0.1,0,0.1,0.1v0.6c0,0.1,0,0.1-0.1,0.1c-0.1,0-0.3,0-1.1,0H21.6z M20.2,27.2H22v-0.9h-1.8V27.2z"/>
	<path class="st0" d="M30.5,27.2c-0.9,0-1.2,0-1.2,0c-0.1,0-0.1,0-0.1-0.1v-0.8c0-0.1,0-0.1,0.1-0.1c0.1,0,0.4,0,1.2,0h0.2v-1.4
		c0-0.6,0-0.8,0-0.9c0-0.1,0-0.1,0.1-0.1c0.1,0,0.4,0,1.4,0h1.3v-1.3h-2c-0.3,0.5-0.7,1-1.2,1.4c-0.1,0.1-0.2,0.2-0.2,0.2
		s-0.1-0.1-0.2-0.2c-0.2-0.3-0.4-0.4-0.6-0.5c0.8-0.7,1.4-1.5,1.8-2.4c0.1-0.2,0.2-0.5,0.3-0.7c0.4,0.1,0.7,0.1,1,0.2
		c0.1,0,0.2,0.1,0.2,0.2s-0.1,0.1-0.1,0.2c-0.1,0.1-0.2,0.2-0.2,0.4l-0.2,0.4h4.1c1,0,1.3,0,1.4,0c0.1,0,0.1,0,0.1,0.1v0.7
		c0,0.1,0,0.1-0.1,0.1c-0.1,0-0.4,0-1.4,0h-1.5v1.3h1.1c1,0,1.3,0,1.4,0c0.1,0,0.1,0,0.1,0.1v0.7c0,0.1,0,0.1-0.1,0.1
		c-0.1,0-0.4,0-1.4,0h-1.1v1.5h2.1c0.9,0,1.2,0,1.2,0c0.1,0,0.1,0,0.1,0.1v0.8c0,0.1,0,0.1-0.1,0.1c-0.1,0-0.4,0-1.2,0h-2.1v0.5
		c0,1,0,1.6,0,1.6c0,0.1,0,0.1-0.1,0.1h-0.9c-0.1,0-0.1,0-0.1-0.1c0-0.1,0-0.6,0-1.6v-0.5H30.5z M33.4,26.2v-1.5h-1.7v1.5H33.4z"/>
	<path class="st0" d="M43.6,27.4V28c0,0.2,0,0.2-0.2,0.2c-0.2,0-0.5,0-0.8,0c-0.2,0-0.2,0-0.2-0.1c0-0.5,0-1.2,0-2v-2.4
		c0-0.5,0-1.1,0-1.7c0-0.1,0-0.1,0.1-0.1c0.5,0,1.1,0,1.8,0h2.4c0.7,0,1.4,0,1.9,0c0.1,0,0.1,0,0.1,0.2c0,0.5,0,1,0,1.6V26
		c0,0.9,0,1.4,0,1.9c0,0.1,0,0.2-0.2,0.2c-0.3,0-0.6,0-0.9,0c-0.1,0-0.1,0-0.1-0.2v-0.5H43.6z M47.5,22.9h-3.9v3.4h3.9V22.9z"/>
	<path class="st0" d="M58.9,23.4h-3.5c-0.7,0-1.1,0-1.5,0.1c-0.1,0-0.1-0.1-0.1-0.2c0-0.3,0-0.7,0-1.1c0.6,0.1,0.9,0.1,1.7,0.1h3
		c0.5,0,1,0,1.6,0c0.2,0,0.2,0,0.2,0.2c0,0.5,0,1,0,1.6v2.4c0,0.7,0,1.5,0,1.8c0,0.1,0,0.1-0.2,0.1c-0.3,0-0.6,0-0.9,0
		c-0.2,0-0.2,0-0.2-0.2v-0.4h-3.4c-0.6,0-1.2,0-1.6,0c-0.1,0-0.1,0-0.1-0.2c0-0.3,0-0.6,0-1c0.5,0,1,0,1.8,0h3.4V23.4z M60,20.8
		c0,0,0.1,0,0.1,0c0.3,0.2,0.7,0.6,1,1.1c0,0.1,0,0.1,0,0.2l-0.4,0.3c-0.1,0-0.1,0-0.2,0c-0.3-0.5-0.6-0.8-1-1.2L60,20.8z
		 M60.9,20.1c0.1,0,0.1,0,0.1,0c0.4,0.3,0.7,0.7,1,1c0,0.1,0,0.1,0,0.2l-0.4,0.3c-0.1,0.1-0.1,0-0.2,0c-0.3-0.4-0.6-0.8-1-1.1
		L60.9,20.1z"/>
	<path class="st0" d="M71.8,22.3c0.6,0,0.7,0,0.8-0.1c0,0,0.1-0.1,0.1-0.1c0.1,0,0.1,0,0.2,0.1c0.3,0.2,0.5,0.5,0.7,0.8
		c0,0.1,0.1,0.1,0.1,0.2c0,0.1,0,0.2-0.1,0.2c-0.2,0.2-0.3,0.2-0.5,0.4c-0.9,0.9-1.8,1.9-2.7,2.7c0.3,0.3,0.6,0.6,0.9,1
		c0.1,0.1,0.1,0.1,0.1,0.2s0,0.1-0.1,0.2c-0.2,0.2-0.4,0.4-0.6,0.6c0,0-0.1,0-0.1,0s-0.1,0-0.1-0.1c-1-1.2-2-2.2-3.2-3.1
		c0.2-0.2,0.5-0.5,0.7-0.7c0,0,0.1,0,0.1,0c0,0,0.1,0,0.1,0.1c0.5,0.4,1,0.7,1.4,1.1c0.8-0.7,1.6-1.5,2.3-2.4l-4.2,0
		c-0.6,0-1.3,0-1.9,0.1c-0.1,0-0.2-0.1-0.2-0.2c-0.1-0.3-0.1-0.7-0.1-1.1c0.7,0.1,1.5,0.1,2.2,0.1H71.8z"/>
	<path class="st0" d="M79.6,25.5c-1,0-1.4,0.1-1.5,0.1c-0.1,0-0.2-0.1-0.2-0.2c0-0.2-0.1-0.7-0.1-1.2c0.6,0.1,1.1,0.1,2.2,0.1h3.2
		c0.8,0,1.5,0,2.3,0c0.1,0,0.2,0,0.2,0.1c0,0.3,0,0.6,0,0.9c0,0.1,0,0.2-0.2,0.1c-0.8,0-1.5,0-2.2,0H79.6z"/>
	<path class="st0" d="M94.8,22.2c0.3,0,0.4,0,0.5-0.1c0,0,0.1,0,0.1,0c0.1,0,0.1,0,0.2,0.1c0.2,0.2,0.5,0.3,0.7,0.5
		c0.1,0.1,0.1,0.2,0.1,0.2c0,0.1,0,0.2-0.1,0.2c-0.1,0.1-0.2,0.2-0.3,0.4c-0.7,1.4-1.3,2.3-2,3.1c-0.9,1-2,1.9-3,2.5
		c-0.1,0-0.1,0-0.2,0c-0.1,0-0.1,0-0.2-0.1c-0.2-0.2-0.6-0.3-1-0.5c1.6-0.9,2.3-1.5,3.3-2.5c0.8-0.9,1.2-1.6,1.8-2.8l-2.4,0.1
		c-0.8,1-1.3,1.6-1.9,2c-0.1,0.1-0.1,0.1-0.2,0.1c0,0-0.1,0-0.2-0.1c-0.2-0.2-0.6-0.4-1-0.4c1.3-1.1,2.1-2,2.7-3
		c0.3-0.6,0.5-0.9,0.6-1.3c0.6,0.2,0.9,0.4,1.2,0.5c0.1,0,0.1,0.1,0.1,0.2c0,0.1,0,0.1-0.1,0.2c-0.1,0.1-0.2,0.2-0.2,0.3
		c-0.1,0.2-0.2,0.3-0.3,0.5L94.8,22.2z"/>
</g>
<g>
	<path class="st0" d="M22.9,10.9h5.8v1.7h-8V0.2h2.2V10.9z"/>
	<path class="st0" d="M44.5,6.4c0,4.1-2.1,6.5-5.3,6.5c-3.2,0-5.3-2.3-5.3-6.4C33.9,2.3,36,0,39.2,0C42.4,0,44.5,2.3,44.5,6.4z
		 M36.2,6.4c0,3.2,1.2,4.8,3,4.8c1.8,0,3-1.6,3-4.8c0-3.2-1.2-4.8-3-4.8C37.4,1.7,36.2,3.2,36.2,6.4z"/>
	<path class="st0" d="M58.1,4.1c-0.3-1.6-1.2-2.5-2.6-2.5c-1.9,0-3.2,1.6-3.2,4.8c0,3.2,1.2,4.8,3.1,4.8c1.7,0,2.6-1.4,2.8-3.4h-2.9
		V6.2h4.9v6.5h-1.4l-0.2-1.8c-0.6,1.3-1.8,2-3.3,2c-3.1,0-5.2-2.3-5.2-6.4c0-4.1,2.2-6.5,5.4-6.5c2.6,0,4.2,1.4,4.7,3.6L58.1,4.1z"
		/>
	<path class="st0" d="M77,6.4c0,4.1-2.1,6.5-5.3,6.5c-3.2,0-5.3-2.3-5.3-6.4c0-4.1,2.2-6.5,5.3-6.5C74.8,0,77,2.3,77,6.4z M68.6,6.4
		c0,3.2,1.2,4.8,3,4.8c1.8,0,3-1.6,3-4.8c0-3.2-1.2-4.8-3-4.8C69.8,1.7,68.6,3.2,68.6,6.4z"/>
</g>
</svg>
