<?xml version="1.0" encoding="utf-8"?>
<!-- Generator: Adobe Illustrator 21.1.0, SVG Export Plug-In . SVG Version: 6.00 Build 0)  -->
<svg version="1.1" id="レイヤー_1" xmlns="http://www.w3.org/2000/svg" xmlns:xlink="http://www.w3.org/1999/xlink" x="0px"
	 y="0px" viewBox="0 0 102 28.4" style="enable-background:new 0 0 102 28.4;" xml:space="preserve">
<style type="text/css">
	.st0{fill:#FF6B3D;}
</style>
<g>
	<path class="st0" d="M15.3,24.7c-0.3,0.3-0.6,0.6-0.9,0.8c-0.1,0.1-0.2,0.1-0.2,0.1c-0.1,0-0.1-0.1-0.2-0.2
		c-0.1-0.3-0.2-0.5-0.3-0.7c1.2-0.7,2.1-1.8,2.6-3h-1.1c-0.8,0-1,0-1.1,0c-0.1,0-0.1,0-0.1-0.1V21c0-0.1,0-0.1,0.1-0.1
		c0.1,0,0.3,0,1.1,0h0.2v-0.4c0-0.5,0-0.8-0.1-1.2c0.4,0,0.7,0,1,0.1c0.1,0,0.2,0.1,0.2,0.1c0,0.1,0,0.1-0.1,0.2
		c-0.1,0.1-0.1,0.3-0.1,0.8v0.5h0.4c0.1,0,0.1,0,0.2,0c0,0,0.1,0,0.1,0c0.1,0,0.2,0.1,0.4,0.3c0.2,0.2,0.3,0.3,0.3,0.4
		c0,0,0,0.1-0.1,0.2c-0.1,0.1-0.2,0.1-0.2,0.3c-0.2,0.5-0.5,1-0.8,1.5c0.4,0.5,0.9,0.8,1.5,1.2c-0.1,0.2-0.3,0.4-0.4,0.6
		c-0.1,0.2-0.1,0.2-0.2,0.2c0,0-0.1,0-0.2-0.1c-0.3-0.3-0.6-0.6-0.9-0.9v2.8c0,0.7,0,1.1,0,1.2c0,0.1,0,0.1-0.1,0.1h-0.8
		c-0.1,0-0.1,0-0.1-0.1c0-0.1,0-0.4,0-1.2V24.7z M18.7,28c-0.9,0-1.3,0-1.3,0c-0.1,0-0.1,0-0.1-0.1v-0.8c0-0.1,0-0.1,0.1-0.1
		c0.1,0,0.4,0,1.3,0h0.8v-3.7h-0.5c-0.9,0-1.2,0-1.3,0c-0.1,0-0.1,0-0.1-0.1v-0.8c0-0.1,0-0.1,0.1-0.1c0.1,0,0.4,0,1.3,0h0.5v-1.6
		c0-0.7,0-1-0.1-1.5c0.4,0,0.8,0,1.1,0.1c0.1,0,0.2,0,0.2,0.1c0,0.1,0,0.1,0,0.2c-0.1,0.1-0.1,0.4-0.1,1.1v1.6h0.6
		c0.9,0,1.2,0,1.3,0c0.1,0,0.1,0,0.1,0.1v0.8c0,0.1,0,0.1-0.1,0.1c-0.1,0-0.4,0-1.3,0h-0.6V27h0.9c0.9,0,1.3,0,1.3,0
		c0.1,0,0.1,0,0.1,0.1v0.8c0,0.1,0,0.1-0.1,0.1c-0.1,0-0.4,0-1.3,0H18.7z"/>
	<path class="st0" d="M29.2,26.6c0.3,0.1,0.6,0.3,0.8,0.4c0.1,0.1,0.1,0.1,0.1,0.2c0,0.1-0.1,0.1-0.2,0.1c-0.1,0-0.2,0.1-0.4,0.2
		c-0.5,0.3-1.4,0.7-2.2,0.9c-0.1,0-0.2,0-0.2,0c-0.1,0-0.1-0.1-0.2-0.3c-0.1-0.2-0.3-0.5-0.5-0.6c0.9-0.1,1.7-0.3,2.2-0.6
		C28.8,26.8,29,26.7,29.2,26.6h-0.3c-1,0-1.3,0-1.4,0c-0.1,0-0.1,0-0.1-0.1c0-0.1,0-0.4,0-1v-2.1c0-0.7,0-1,0-1.1
		c0-0.1,0-0.1,0.1-0.1c0.1,0,0.4,0,1.4,0h3.9c1,0,1.3,0,1.4,0c0.1,0,0.1,0,0.1,0.1c0,0.1,0,0.4,0,1.1v2.1c0,0.7,0,1,0,1
		c0,0.1,0,0.1-0.1,0.1c-0.1,0-0.4,0-1.4,0H29.2z M32.3,19.6c0.9,0,1.3,0,1.3,0c0.1,0,0.1,0,0.1,0.1c0,0.1,0,0.2,0,0.7V21
		c0,0.4,0,0.6,0,0.7c0,0.1,0,0.1-0.1,0.1c-0.1,0-0.4,0-1.3,0h-2.8c-0.9,0-1.3,0-1.3,0c-0.1,0-0.1,0-0.1-0.1c0-0.1,0-0.2,0-0.7v-0.7
		c0-0.4,0-0.6,0-0.7c0-0.1,0-0.1,0.1-0.1c0.1,0,0.4,0,1.3,0H32.3z M28.5,23.5h4.8V23h-4.8V23.5z M33.2,24.6v-0.5h-4.8v0.5H33.2z
		 M33.2,25.3h-4.8v0.5h4.8V25.3z M32.7,20.3h-3.6V21h3.6V20.3z M32.3,26.7c0,0,0.1-0.1,0.1-0.1c0,0,0,0,0.1,0
		c0.8,0.4,1.7,0.7,2.7,0.9c-0.2,0.2-0.4,0.4-0.5,0.6c-0.1,0.2-0.2,0.3-0.3,0.3c0,0-0.1,0-0.2,0c-1-0.2-1.9-0.6-2.6-1.1
		c0,0-0.1,0-0.1-0.1s0-0.1,0.1-0.1L32.3,26.7z"/>
	<path class="st0" d="M44.2,21.1c0.2-0.5,0.3-0.8,0.4-1.2c0.5,0.2,1,0.4,1.3,0.6c0.1,0,0.1,0.1,0.1,0.2c0,0.1,0,0.2-0.1,0.2
		c-0.1,0.1-0.2,0.2-0.5,0.7c-0.4,0.7-0.7,1.4-1.1,2c0.6,0.4,0.8,0.7,1.5,1.4c0,0,0.1,0.1,0.1,0.1c0,0,0,0.1,0,0.1
		c-0.2,0.3-0.4,0.5-0.6,0.7c0,0-0.1,0.1-0.1,0.1c0,0-0.1,0-0.1-0.1c-0.5-0.6-0.9-1-1.3-1.3c-1.1,1.4-2.3,2.4-3.4,3.1
		c-0.1,0-0.2,0.1-0.2,0.1c-0.1,0-0.1,0-0.2-0.1c-0.3-0.2-0.6-0.5-0.9-0.5c1.6-0.9,2.6-1.8,3.8-3.3c-0.6-0.5-1.1-0.8-1.9-1.2
		c0.3-0.4,0.5-0.7,0.7-0.8c0,0,0.1,0,0.1,0s0.1,0,0.1,0c0.5,0.3,1.1,0.6,1.7,1C43.7,22.2,43.9,21.8,44.2,21.1z"/>
	<path class="st0" d="M50.8,22.5c0.1,0,0.2,0,0.3,0.1c0.3,0.4,0.7,0.9,0.9,1.5c0,0.1,0,0.1,0,0.1c0,0.1,0,0.1-0.1,0.1
		c-0.2,0.1-0.4,0.2-0.6,0.3c-0.1,0-0.2,0-0.2-0.1c-0.2-0.6-0.5-1.1-0.9-1.6C50.4,22.7,50.6,22.6,50.8,22.5z M56.3,22.6
		c0.1,0.1,0.1,0.1,0.1,0.2c0,0.1,0,0.1-0.1,0.2c-0.2,0.1-0.2,0.3-0.3,0.5c-0.4,1-1,1.9-1.5,2.7c-0.7,0.8-1.2,1.4-2.1,1.9
		c-0.1,0.1-0.2,0.1-0.2,0.1c0,0-0.1,0-0.2-0.1c-0.2-0.2-0.5-0.3-0.8-0.4c1.2-0.8,1.8-1.3,2.4-2.1c0.5-0.6,1.1-1.6,1.3-2.4
		c0.1-0.4,0.2-0.6,0.2-1.1C55.6,22.3,56.1,22.4,56.3,22.6z M52.8,22c0.1,0,0.2,0,0.3,0.1c0.3,0.3,0.6,1,0.8,1.5c0,0.2,0,0.2-0.1,0.3
		c-0.2,0.1-0.4,0.2-0.7,0.3c-0.1,0-0.2,0-0.2-0.2c-0.2-0.6-0.5-1.1-0.8-1.6C52.4,22.2,52.7,22.1,52.8,22z"/>
	<path class="st0" d="M63,21.7c0-0.8,0-1.2-0.1-1.8c0.5,0,1,0.1,1.3,0.2c0.1,0,0.2,0.1,0.2,0.2c0,0,0,0.1-0.1,0.2
		c-0.1,0.2-0.1,0.4-0.1,0.9v1l2.6-0.6c0.4-0.1,0.5-0.1,0.7-0.3c0.1,0,0.1-0.1,0.1-0.1c0,0,0.1,0,0.1,0.1c0.2,0.1,0.5,0.4,0.7,0.6
		c0.1,0.1,0.1,0.1,0.1,0.2c0,0.1,0,0.1-0.1,0.2c-0.1,0.1-0.2,0.2-0.3,0.4c-0.5,0.9-1,1.6-1.6,2.2c-0.1,0.1-0.2,0.2-0.3,0.2
		c-0.1,0-0.1,0-0.2-0.1c-0.3-0.2-0.5-0.3-0.8-0.4c0.7-0.6,1.2-1.3,1.6-2l-2.7,0.7v2.3c0,0.5,0.2,0.7,1.3,0.7c0.8,0,1.7-0.1,2.4-0.2
		c0.1,0,0.1,0.1,0.2,0.2c0,0.3,0.1,0.6,0.1,0.8c0,0.1-0.1,0.1-0.2,0.1c-0.6,0.1-1.3,0.1-2.4,0.1c-1.9,0-2.5-0.4-2.5-1.8v-2l-0.6,0.2
		c-0.5,0.1-1.1,0.3-1.4,0.4c0,0-0.1,0-0.1,0c-0.1,0-0.1,0-0.2-0.2c-0.1-0.3-0.3-0.7-0.4-1c0.6-0.1,1.2-0.2,1.9-0.3l0.8-0.2V21.7z"/>
	<path class="st0" d="M74.4,24.5c-1,0-1.4,0.1-1.5,0.1c-0.1,0-0.2-0.1-0.2-0.2c0-0.2-0.1-0.7-0.1-1.2c0.6,0.1,1.1,0.1,2.2,0.1H78
		c0.8,0,1.5,0,2.3,0c0.1,0,0.2,0,0.2,0.1c0,0.3,0,0.6,0,0.9c0,0.1,0,0.2-0.2,0.1c-0.8,0-1.5,0-2.2,0H74.4z"/>
	<path class="st0" d="M84.8,22.5c0-0.1,0.1-0.1,0.2-0.1c0.8,0.2,1.3,0.6,1.9,1c0.1,0,0.1,0.1,0.1,0.2c0,0,0,0.1,0,0.1
		c-0.1,0.3-0.3,0.5-0.4,0.8c-0.1,0.1-0.1,0.1-0.1,0.1s-0.1,0-0.1-0.1c-0.6-0.5-1.3-0.8-2-1.1C84.5,22.9,84.7,22.7,84.8,22.5z
		 M86.4,26.2c0.9-0.5,1.8-1,2.7-1.7c0.8-0.6,1.9-1.6,2.9-2.8c0.1,0.4,0.1,0.7,0.3,1.1c0,0.1,0.1,0.1,0.1,0.2c0,0.1,0,0.2-0.1,0.2
		c-0.9,1-1.6,1.5-2.5,2.3c-0.9,0.7-1.8,1.2-3,1.9c-0.2,0.1-0.5,0.2-0.6,0.3c-0.1,0.1-0.1,0.1-0.2,0.1c-0.1,0-0.1,0-0.2-0.1
		c-0.2-0.2-0.5-0.6-0.7-1C85.5,26.6,85.8,26.5,86.4,26.2z M86,20.2c0.1-0.1,0.1-0.1,0.2-0.1c0.6,0.3,1.3,0.6,1.9,1.1
		c0.1,0,0.1,0.1,0.1,0.1s0,0.1,0,0.1c-0.1,0.2-0.3,0.6-0.5,0.7c0,0.1-0.1,0.1-0.1,0.1c0,0-0.1,0-0.2-0.1c-0.5-0.4-1.3-0.9-1.9-1.2
		C85.7,20.7,85.9,20.5,86,20.2z M90.6,19.9c0,0,0.1,0,0.1,0c0.3,0.2,0.7,0.6,0.9,1.1c0,0.1,0,0.1,0,0.2l-0.4,0.3c-0.1,0-0.1,0-0.2,0
		c-0.3-0.5-0.6-0.8-1-1.2L90.6,19.9z M91.5,19.2c0.1,0,0.1,0,0.2,0c0.4,0.3,0.7,0.7,0.9,1c0,0.1,0,0.1,0,0.2l-0.4,0.3
		c-0.1,0.1-0.1,0-0.2,0c-0.3-0.4-0.6-0.8-1-1.1L91.5,19.2z"/>
</g>
<g>
	<path class="st0" d="M12.3,12.6h-2.1V6.4c0-1.6,0-2.9,0-4.4H10C9.7,3.4,9.4,4.7,9,6.2l-1.7,6.4H4.8L3.1,6.3C2.8,4.8,2.4,3.5,2.1,2
		H1.9c0,1.4,0,2.9,0,4.4v6.2H0V0.2h3.5l1.6,6.3C5.4,7.8,5.7,9.3,6,10.6h0.2c0.3-1.4,0.6-2.6,1-4.1l1.6-6.4h3.5V12.6z"/>
	<path class="st0" d="M27.4,1.9h-6v3.3H26v1.7h-4.6v4h6.2v1.7h-8.3V0.2h8.2V1.9z"/>
	<path class="st0" d="M39.6,3.7c-0.3-1.3-1.1-2-2.2-2c-1.3,0-2.1,0.6-2.1,1.6c0,1.1,0.5,1.6,2.3,2.1l0.7,0.2
		c2.8,0.8,3.6,1.8,3.6,3.7c0,2.2-1.5,3.7-4.5,3.7c-2.4,0-4.1-1.1-4.7-3.2L34.8,9c0.3,1.4,1.3,2.2,2.6,2.2c1.6,0,2.4-0.7,2.4-1.8
		c0-1.1-0.4-1.6-2.4-2.1l-0.6-0.2c-2.6-0.8-3.5-1.8-3.5-3.7c0-1.9,1.5-3.4,4.1-3.4c2.2,0,3.7,1,4.4,3.1L39.6,3.7z"/>
	<path class="st0" d="M54.1,3.7c-0.3-1.3-1.1-2-2.2-2c-1.3,0-2.1,0.6-2.1,1.6c0,1.1,0.5,1.6,2.3,2.1l0.7,0.2
		c2.8,0.8,3.6,1.8,3.6,3.7c0,2.2-1.5,3.7-4.5,3.7c-2.4,0-4.1-1.1-4.7-3.2L49.3,9c0.3,1.4,1.3,2.2,2.6,2.2c1.6,0,2.4-0.7,2.4-1.8
		c0-1.1-0.4-1.6-2.4-2.1l-0.6-0.2c-2.6-0.8-3.5-1.8-3.5-3.7c0-1.9,1.5-3.4,4.1-3.4c2.2,0,3.7,1,4.4,3.1L54.1,3.7z"/>
	<path class="st0" d="M71.8,12.6h-2.3L68.5,9h-3.8l-1.1,3.6h-2l3.8-12.4H68L71.8,12.6z M67.4,4.9c-0.3-1-0.5-1.9-0.7-3.1h-0.1
		c-0.3,1.2-0.5,2.1-0.8,3l-0.7,2.5h3L67.4,4.9z"/>
	<path class="st0" d="M84.8,4.1c-0.3-1.6-1.2-2.5-2.6-2.5c-1.9,0-3.2,1.6-3.2,4.8c0,3.2,1.2,4.8,3.1,4.8c1.7,0,2.6-1.4,2.8-3.4H82
		V6.2h4.9v6.5h-1.4l-0.2-1.8c-0.6,1.3-1.8,2-3.3,2c-3.1,0-5.2-2.3-5.2-6.4C76.7,2.4,79,0,82.1,0c2.6,0,4.2,1.4,4.7,3.6L84.8,4.1z"/>
	<path class="st0" d="M101.8,1.9h-6v3.3h4.6v1.7h-4.6v4h6.2v1.7h-8.3V0.2h8.2V1.9z"/>
</g>
</svg>
