<?xml version="1.0" encoding="utf-8"?>
<!-- Generator: Adobe Illustrator 21.1.0, SVG Export Plug-In . SVG Version: 6.00 Build 0)  -->
<svg version="1.1" id="レイヤー_1" xmlns="http://www.w3.org/2000/svg" xmlns:xlink="http://www.w3.org/1999/xlink" x="0px"
	 y="0px" viewBox="0 0 57.6 28.5" style="enable-background:new 0 0 57.6 28.5;" xml:space="preserve">
<style type="text/css">
	.st0{fill:#FF6B3D;}
</style>
<g>
	<path class="st0" d="M9.4,27.6c-0.6,0-1.3,0-1.8,0c-0.1,0-0.1-0.1-0.2-0.2c0-0.2-0.1-0.6-0.1-1.1c0.7,0,1.4,0.1,2.1,0.1h3.6
		c1.1,0,1.8,0,2.2,0c0.1,0,0.2,0,0.2,0.2c0,0.3,0,0.6,0,0.9c0,0.2,0,0.2-0.2,0.2c-0.5,0-1.5,0-2.2,0H9.4z M10.4,23.3
		c-0.6,0-1.1,0-1.5,0c-0.1,0-0.1-0.1-0.1-0.2c-0.1-0.3-0.1-0.6-0.1-1.1c0.6,0,1.1,0.1,1.7,0.1h2c0.8,0,1.4,0,1.8-0.1
		c0.1,0,0.1,0.1,0.1,0.2c0,0.3,0,0.6,0,0.9c0,0.1,0,0.2-0.1,0.2c-0.5,0-1.1,0-1.7,0H10.4z"/>
	<path class="st0" d="M24.5,27.3c0.4,0,0.8,0,1.2,0c0.2,0,0.2,0,0.2,0.2c0,0.2,0,0.4,0,0.6c0,0.2,0,0.2-0.2,0.2c-0.5,0-0.9,0-1.4,0
		h-3.7c-0.4,0-0.8,0-1.3,0c-0.1,0-0.2,0-0.2-0.2c0-0.2-0.1-0.5-0.1-0.8c0.6,0,0.9,0,1.4,0H23l0.3-2.4h-1.6c-0.4,0-0.8,0-1.1,0
		c-0.1,0-0.2,0-0.2-0.2c0-0.2,0-0.5-0.1-0.9c0.7,0,1,0,1.4,0h1.4c0.4,0,0.5,0,0.6-0.1c0,0,0.1,0,0.1,0c0.1,0,0.1,0,0.2,0.1
		c0.2,0.1,0.5,0.3,0.6,0.5c0.1,0.1,0.1,0.1,0.1,0.2c0,0.1,0,0.1-0.1,0.2c-0.1,0.1-0.2,0.2-0.2,0.5l-0.3,2H24.5z"/>
	<path class="st0" d="M31.6,25.5c-1,0-1.4,0.1-1.5,0.1c-0.1,0-0.2-0.1-0.2-0.2c0-0.2-0.1-0.7-0.1-1.2c0.6,0.1,1.1,0.1,2.2,0.1h3.2
		c0.8,0,1.5,0,2.3,0c0.1,0,0.2,0,0.2,0.1c0,0.3,0,0.6,0,0.9c0,0.1,0,0.2-0.2,0.1c-0.8,0-1.5,0-2.2,0H31.6z"/>
	<path class="st0" d="M46.6,21.7c0.4,0,0.5,0,0.7-0.1c0,0,0.1,0,0.1,0c0.1,0,0.1,0,0.2,0.1c0.2,0.2,0.5,0.4,0.6,0.7
		c0,0.1,0,0.1,0,0.1c0,0.1,0,0.1-0.1,0.2c-0.1,0.1-0.3,0.3-0.4,0.4c-0.4,0.7-0.8,1.3-1.3,1.9c1,0.7,1.8,1.5,2.8,2.4
		c0,0,0.1,0.1,0.1,0.1s0,0.1-0.1,0.2c-0.2,0.2-0.4,0.5-0.7,0.7c0,0-0.1,0.1-0.1,0.1c0,0-0.1,0-0.1-0.1c-0.8-1-1.7-1.8-2.6-2.5
		c-1.1,1.2-2.3,2-3.4,2.6c-0.1,0-0.2,0.1-0.2,0.1c-0.1,0-0.1,0-0.2-0.1c-0.2-0.3-0.5-0.5-0.8-0.7c1.6-0.8,2.5-1.5,3.5-2.5
		c0.7-0.8,1.3-1.5,1.9-2.5l-2.6,0c-0.5,0-1,0-1.6,0.1c-0.1,0-0.1-0.1-0.1-0.2c0-0.2-0.1-0.7-0.1-1c0.5,0,1,0,1.7,0H46.6z"/>
</g>
<g>
	<path class="st0" d="M9.5,12.6H6.9l-3-6.4C3.2,4.7,2.7,3.5,2.1,2.1H1.9C2,3.6,2,5.1,2,6.6v6H0V0.2h3.2l2.6,5.5
		C6.5,7.3,7,8.5,7.5,10h0.2C7.6,8.5,7.5,7.1,7.5,5.4V0.2h2V12.6z"/>
	<path class="st0" d="M24.7,1.9h-6v3.3h4.6v1.7h-4.6v4h6.2v1.7h-8.3V0.2h8.2V1.9z"/>
	<path class="st0" d="M41.2,12.6h-2.7l-1.1-5.8c-0.3-1.7-0.5-3-0.7-4.7h-0.2c-0.2,1.6-0.4,3-0.7,4.6l-1,5.8h-2.7L29.7,0.2h2.2
		l0.9,5.7c0.2,1.5,0.4,3,0.6,4.6h0.2c0.2-1.6,0.4-3.1,0.7-4.6l1-5.7h2.8l1,5.9c0.2,1.4,0.4,2.7,0.6,4.4H40c0.2-1.7,0.4-2.9,0.6-4.5
		l1-5.8h2.1L41.2,12.6z"/>
	<path class="st0" d="M55.3,3.7c-0.3-1.3-1.1-2-2.2-2c-1.3,0-2.1,0.6-2.1,1.6c0,1.1,0.5,1.6,2.3,2.1L54,5.5c2.8,0.8,3.6,1.8,3.6,3.7
		c0,2.2-1.5,3.7-4.5,3.7c-2.4,0-4.1-1.1-4.7-3.2L50.5,9c0.3,1.4,1.3,2.2,2.6,2.2c1.6,0,2.4-0.7,2.4-1.8c0-1.1-0.4-1.6-2.4-2.1
		l-0.6-0.2c-2.6-0.8-3.5-1.8-3.5-3.7C48.9,1.5,50.4,0,53,0c2.2,0,3.7,1,4.4,3.1L55.3,3.7z"/>
</g>
</svg>
