<?xml version="1.0" encoding="utf-8"?>
<!-- Generator: Adobe Illustrator 21.1.0, SVG Export Plug-In . SVG Version: 6.00 Build 0)  -->
<svg version="1.1" id="レイヤー_1" xmlns="http://www.w3.org/2000/svg" xmlns:xlink="http://www.w3.org/1999/xlink" x="0px"
	 y="0px" viewBox="0 0 346.9 125.7" style="enable-background:new 0 0 346.9 125.7;" xml:space="preserve">
<style type="text/css">
	.st0{fill:#FF6B3D;}
	.st1{fill:#333333;}
</style>
<g>
	<path class="st0" d="M197.3,24.5c-3-1.7-6.9-0.6-8.5,2.5l-16.7,30.4c-1.5,2.2-3.2,3.5-4.7,3.5c-1.5,0-3.3-1.3-4.7-3.5l-16.7-30.4
		c-1.7-3-5.5-4.1-8.5-2.5c-3,1.7-4.1,5.5-2.5,8.5l16.8,30.6c0.1,0.1,0.1,0.2,0.2,0.4c3.8,6,9.4,9.4,15.4,9.4
		c5.9,0,11.5-3.4,15.4-9.4c0.1-0.1,0.2-0.2,0.2-0.4L199.8,33C201.5,29.9,200.3,26.1,197.3,24.5"/>
	<path class="st0" d="M277.9,23.7h-34c-3.5,0-6.3,2.8-6.3,6.3c0,3.5,2.8,6.3,6.3,6.3h10.7v30.9c0,3.5,2.8,6.3,6.3,6.3
		c3.5,0,6.3-2.8,6.3-6.3V36.2h10.7c3.5,0,6.3-2.8,6.3-6.3C284.1,26.5,281.3,23.7,277.9,23.7"/>
	<path class="st0" d="M115.3,23.7c-3.5,0-6.3,2.8-6.3,6.3v37.2c0,3.5,2.8,6.3,6.3,6.3c3.5,0,6.3-2.8,6.3-6.3V30
		C121.6,26.5,118.8,23.7,115.3,23.7"/>
	<path class="st0" d="M123.5,0c-4.5,0-8.2,3.7-8.2,8.2c0,4.5,3.7,8.2,8.2,8.2c4.5,0,8.2-3.7,8.2-8.2C131.8,3.7,128.1,0,123.5,0"/>
	<path class="st0" d="M219.4,23.7c-3.5,0-6.3,2.8-6.3,6.3v37.2c0,3.5,2.8,6.3,6.3,6.3c3.5,0,6.3-2.8,6.3-6.3V30
		C225.7,26.5,222.9,23.7,219.4,23.7"/>
	<path class="st0" d="M219.4,8.2c0-4.5-3.7-8.2-8.2-8.2c-4.5,0-8.2,3.7-8.2,8.2c0,4.5,3.7,8.2,8.2,8.2
		C215.7,16.4,219.4,12.8,219.4,8.2"/>
	<path class="st0" d="M91.5,60.9H83c-4.2,0-7.7-3.4-7.7-7.7V30c0-3.5-2.8-6.3-6.3-6.3c-3.5,0-6.3,2.8-6.3,6.3v23.2
		c0,11.1,9.1,20.2,20.2,20.2h8.5c3.5,0,6.3-2.8,6.3-6.3C97.7,63.7,94.9,60.9,91.5,60.9"/>
</g>
<g>
	<path class="st1" d="M164.5,125.4l15.5,0l0-9.2l-15.5,0L164.5,125.4z M166.3,117.9l11.8,0l0,5.9l-11.8,0L166.3,117.9z"/>
	<path class="st1" d="M173.3,105.8l-2.1,0c-0.9,1.2-3.6,4.3-8.8,6.8l0,1.8c1.4-0.6,2.7-1.3,3.8-2l0,1.4l12.2,0l0-1.3
		c1.1,0.7,2.3,1.3,3.6,1.9l0-1.8C176.8,110.1,174.2,106.9,173.3,105.8z M166.5,112.1c3-1.9,4.8-3.9,5.7-5c0.9,1.1,2.7,3.1,5.7,5
		L166.5,112.1z"/>
	<path class="st1" d="M12.1,120.1c0,1.2-0.3,2-1,2.5c-0.6,0.5-1.4,0.5-1.7,0.5l-4.7,0c-1,0-2.7-0.4-2.7-3l0-1.4l-2.1,0l0,1.4
		c0,2.3,1,3.5,1.8,4.1c1.1,0.8,2.3,0.9,3,1l4.7,0c2.2,0,4.8-1.3,4.8-5.1l0-12.8l-2.1,0L12.1,120.1z"/>
	<polygon class="st1" points="341.6,123.9 341.6,114 346.4,114 346.4,112.2 341.6,112.2 341.6,105.9 339.8,105.9 339.8,112.2 
		335.3,112.2 335.3,114 339.8,114 339.8,123.9 334.3,123.9 334.3,125.6 346.9,125.7 346.9,123.9 	"/>
	<path class="st1" d="M334.8,117.3c-0.8-0.7-1.5-1.4-2.4-2.4c1.6-2,2.1-3.3,2.4-3.8l0-1.6l-2.8,0l0-3.5l-1.8,0l0,3.5l-3.4,0l0,1.6
		l6.1,0c-0.7,1.7-2.7,4.6-6.1,6.8l0,2.2c1.2-0.8,2.4-1.8,3.4-2.8l0,8.4l1.8,0l0-8.9c1,1.2,1.8,2,2.8,2.8L334.8,117.3z"/>
	<path class="st1" d="M316,106l-2.1,0c-0.9,1.2-3.6,4.3-8.8,6.8l0,1.8c1.4-0.6,2.7-1.3,3.8-2l0,1.4l12.2,0l0-1.4
		c1.1,0.7,2.3,1.3,3.7,1.9l0-1.8C319.6,110.3,316.9,107.2,316,106z M309.3,112.3c3-1.9,4.8-3.9,5.7-5c0.9,1.1,2.7,3.1,5.7,5
		L309.3,112.3z"/>
	<path class="st1" d="M305.1,118.1l4.8,0L307,124l-1.9,0l0,1.6l6.2,0c6.7,0,8-0.5,10.6-1.5c0.3,0.5,0.6,1,0.9,1.5l2,0
		c-1.4-2.1-2.7-4.6-3.3-5.9l-1.8,0c0.2,0.6,0.8,1.7,1.5,3c-2.3,0.9-3.6,1.3-9.8,1.3l-2.5,0l2.9-5.9l13,0l0-1.6l-19.7,0L305.1,118.1z
		"/>
	<path class="st1" d="M291,116l4.2,0l0-1.7l-10.3,0l0,1.7l4.3,0l0,6.8c-1.9,0.3-3.4,0.6-4.3,0.7l0,1.6c1.7-0.2,5.8-0.8,11.1-2.1
		l0-1.7c-1.8,0.4-3.5,0.8-5,1.1L291,116z"/>
	
		<rect x="300" y="105.1" transform="matrix(1.503493e-03 -1 1 1.503493e-03 193.676 407.4929)" class="st1" width="1.7" height="3.4"/>
	<path class="st1" d="M297.8,105.9l-1.6,0c0,1.3,0,2.5,0.1,3.6l-11.3,0l0,1.7l11.3,0c0.5,8.5,2.2,12.4,6.3,14.4l0-1.8
		c-2.6-1.6-4.2-4.6-4.6-12.5l4.7,0l0-1.7l-4.7,0C297.8,108.4,297.8,107.2,297.8,105.9z"/>
	<path class="st1" d="M226.6,106.6l-2,0l0,13.6c0,3.4,1.8,4.6,5.2,4.6l10.9,0l0-1.8l-10.6,0c-2.4,0-3.5-0.8-3.5-3l0-7.2l14.1,0
		l0-1.8l-14.1,0L226.6,106.6z"/>
	
		<rect x="238.1" y="106.6" transform="matrix(1.503493e-03 -1 1 1.503493e-03 131.9811 347.1474)" class="st1" width="3.4" height="1.7"/>
	
		<rect x="234.8" y="106.6" transform="matrix(1.503493e-03 -1 1 1.503493e-03 128.6155 343.7665)" class="st1" width="3.4" height="1.7"/>
	<path class="st1" d="M28.2,107.3l-10.6,0l0,17.8l2.1,0l0-7.4l6.3,0c0.6,1.6,2.3,5.1,6.4,7.4l0-2.5c-2.3-1.6-3.5-3.6-4.1-5
		c1.9,0,4.1-1.2,4.1-4.4l0-1.6C32.4,108.5,30.2,107.3,28.2,107.3z M30.3,113.3c0,1.9-1.1,2.3-2.1,2.3l-8.6,0l0-6.2l8.6,0
		c0.9,0,2.1,0.4,2.1,2.3L30.3,113.3z"/>
	<path class="st1" d="M56.7,125.2l15.7,0l0-17.8l-15.7,0L56.7,125.2z M58.6,109.1l12,0l0,5.8l-12,0L58.6,109.1z M58.6,116.6l12,0
		l0,6.9l-12,0L58.6,116.6z"/>
	<path class="st1" d="M125,111l-6.3,0l0,1.8l6.3,0l0,8c-0.8,0.6-3.5,2.3-6.3,2.9l0,1.6c2.5-0.4,4.9-1.7,6.3-2.6l0,2.6l1.8,0l0-19.7
		l-1.8,0L125,111z"/>
	<path class="st1" d="M131.7,105.6l-1.8,0l0,18.1c0,1.6,1.4,1.6,1.8,1.6l6.3,0l0-1.8l-5.5,0c-0.6,0-0.8-0.2-0.8-0.7l0-10.1l6.3,0
		l0-1.8l-6.3,0L131.7,105.6z"/>
	<path class="st1" d="M267.4,111.5l1.8,0l0-1.7l-1.8,0l0-4l-1.7,0l0,4l-3.2,0l0,1.7l3.1,0c-0.3,2.3-1.3,4.5-3.1,6.8l0,2.5
		c1.3-1.5,2.4-3,3.2-4.4l0,9.1l1.7,0l0-8.9c0.5,0.8,1.1,1.6,1.9,2.4l0-2.5c-0.8-1.1-1.3-2.2-1.9-3.6L267.4,111.5z"/>
	<path class="st1" d="M277.1,110.9l4.8,0l0-1.6l-4.8,0l0-3.4l-1.7,0l0,3.4l-2,0c0.4-1,0.7-2.2,0.7-3.4l-1.6,0
		c-0.1,2.4-1.2,4.6-2.7,5.7l0,1.9c1.1-0.6,2-1.5,2.8-2.6l2.8,0l0,3.4l-5.6,0l0,1.7l5.6,0l0,0c-1,3.2-3.6,5.4-5.6,6.5l0,1.8
		c1.7-0.7,3.9-2.3,5.6-4.6l0,6l1.7,0l0-6c1.5,2.2,3.6,3.7,5.2,4.5l0-1.8c-1.9-1.1-4.3-3.3-5.2-6.3l0,0l5.3,0l0-1.7l-5.3,0
		L277.1,110.9z"/>
	<path class="st1" d="M86.8,111.2l7.5,0l0-1.7l-8.3,0l0-3.9l-1.8,0l0,3.9l-8.3,0l0,1.7l7.4,0c-0.5,1.2-2.8,6-8.2,9.8l0,2
		c5.2-3.3,7.9-7.5,9.1-9.8l0,7l-4.5,0l0,1.6l4.5,0l0,3.5l1.8,0l0-3.5l4.6,0l0-1.6l-4.6,0l0-7c1.2,2.3,3.9,6.6,9.2,9.9l0-2
		C89.6,117.2,87.3,112.4,86.8,111.2z"/>
	<path class="st1" d="M200.8,106.4l-2,0l0,4.4l-9.1,0l0-4.4l-2,0l0,4.4l-3.7,0l0,1.8l3.7,0l0,6.1l2,0l0-6.1l9.1,0l0,1
		c0,5.5-2.2,9.1-9.2,9.9l0,1.9c8.2-0.9,11.2-5,11.2-12l0-0.8l3.7,0l0-1.8l-3.7,0L200.8,106.4z"/>
	
		<rect x="213" y="107.2" transform="matrix(1.503493e-03 -1 1 1.503493e-03 98.564 328.9338)" class="st1" width="1.9" height="15.8"/>
	<path class="st1" d="M47.3,118.5l5.7,0l0-8.1l-7.6,0l0-1.5l8.5,0l0-1.6l-8.5,0l0-1.9l-1.7,0l0,1.9l-8.4,0l0,1.6l8.4,0l0,1.5l-7.6,0
		l0,8.1l5.7,0c-0.9,1.3-3,3.8-6.5,5l0,1.7c5.4-1.6,7.9-5.7,8.4-6.6l0,6.6l1.7,0l0-6.7l0,0c0.5,0.9,3,5.1,8.4,6.7l0-1.7
		C50.3,122.3,48.2,119.8,47.3,118.5z M45.4,112l6,0l0,1.8l-6,0L45.4,112z M45.4,115.2l6,0l0,1.9l-6,0L45.4,115.2z M37.7,111.9l5.9,0
		l0,1.8l-5.9,0L37.7,111.9z M37.7,115.2l5.9,0l0,1.9l-5.9,0L37.7,115.2z"/>
	<path class="st1" d="M109.5,118.6l5.7,0l0-8.1l-7.6,0l0-1.5l8.5,0l0-1.6l-8.5,0l0-1.9l-1.7,0l0,1.9l-8.4,0l0,1.6l8.4,0l0,1.5
		l-7.6,0l0,8.1l5.7,0c-0.9,1.3-3,3.8-6.5,5l0,1.7c5.4-1.6,7.9-5.7,8.4-6.6l0,6.6l1.7,0l0-6.7l0,0c0.5,0.9,3,5.1,8.4,6.7l0-1.7
		C112.5,122.4,110.4,119.9,109.5,118.6z M107.6,112l6,0l0,1.8l-6,0L107.6,112z M107.6,115.3l6,0l0,1.9l-6,0L107.6,115.3z M99.9,112
		l5.9,0l0,1.8l-5.9,0L99.9,112z M99.9,115.3l5.9,0l0,1.9l-5.9,0L99.9,115.3z"/>
	<path class="st1" d="M255.1,116c1.6-2.4,2.8-5.1,3.4-8.4l-14.5,0l0,1.9l11.9,0c-1.9,6.7-6.9,11.3-12,13.3l0,2
		c3.5-1.3,7-3.6,9.8-6.9c1.7,3.1,4.6,5.9,7.7,7.6l0-2.2C259.2,121.5,256.8,119.4,255.1,116z"/>
	<path class="st1" d="M153.5,105.7l-1.7,0c-0.4,1.1-1.4,3.4-3.2,5.5l2,0C152.4,108.8,153.2,106.5,153.5,105.7z"/>
	<path class="st1" d="M160.2,111.2c-1.8-2.1-2.7-4.4-3.1-5.5l-1.7,0c0.3,0.9,1.1,3.1,2.8,5.5L160.2,111.2z"/>
	<path class="st1" d="M157.7,115.4c0.1,0.2,0.2,0.3,0.3,0.4l2.2,0c0,0,0,0-0.1-0.1c-0.1-0.1-0.1-0.1-0.2-0.2c-0.9-0.9-1.6-2-2.3-3.5
		l-1.8,0c0.3,0.7,0.6,1.3,1,1.8c-0.6,0.1-1.3,0.2-1.8,0.2l-2.5,0l2.8-4.5l-1.9,0l-2.7,4.5l-1.5,0l0,1.6l5.9,0
		C155.7,115.9,156.9,115.7,157.7,115.4z"/>
	
		<rect x="153.5" y="119.3" transform="matrix(1.503493e-03 -1 1 1.503493e-03 35.4775 275.7662)" class="st1" width="4.7" height="1.6"/>
	<path class="st1" d="M154.2,123.3l0-6.9l-1.6,0l0,7.7c0,1,0.6,1.3,1.5,1.3l3.8,0l0-1.6l-3.1,0C154.3,123.8,154.2,123.7,154.2,123.3
		z"/>
	<path class="st1" d="M150.2,120.7c0,1-0.6,2-1.1,2.2l0,1.6c1.6-0.1,2.8-2.1,2.8-3.8l0-2.9l-1.6,0L150.2,120.7z"/>
	<path class="st1" d="M145.6,112.3c0.1,0.5,0.3,1.1,0.5,1.7c-0.6,0.2-1.4,0.4-2,0.4l-0.3,0l3.6-6.2l-1.9,0l-1.5,2.7l-0.9-0.9
		l2.5-4.3l-1.9,0l-1.8,3.1l-0.5-0.5l-0.8,1.5l2.6,2.6l-1.2,2.1l-1.4,0l0,1.6l3.4,0l0,9.3l1.6,0l0-9.5c0.4-0.1,0.8-0.2,1.1-0.3
		c0.1,0.2,0.2,0.4,0.2,0.5l1.8,0c-0.6-1-1.1-2.4-1.4-3.7L145.6,112.3z"/>
	<path class="st1" d="M147.9,117.8l-1.6,0l0,3.2c0,1.5,0.8,3.1,2,3.6l0-2.2c-0.2-0.4-0.4-1-0.4-1.5L147.9,117.8z"/>
	<path class="st1" d="M159,120.7l0-2.9l-1.6,0l0,2.9c0,1.8,1.2,3.7,2.8,3.8l0-1.6C159.7,122.7,159,121.6,159,120.7z"/>
	<path class="st1" d="M141.4,121c0,0.9-0.5,1.8-1,2.1l0,1.7c1.5-0.2,2.6-2.1,2.6-3.8l0-3.2l-1.6,0L141.4,121z"/>
</g>
</svg>
