<?xml version="1.0" encoding="UTF-8"?><svg id="_レイヤー_2" xmlns="http://www.w3.org/2000/svg" viewBox="0 0 480 80"><defs><style>.cls-1{fill:#f3a470;}.cls-2{fill:#b093c3;}.cls-3{fill:#c1d47f;}.cls-4{fill:#ebd45f;}.cls-5{fill:#83b9e4;}.cls-6{fill:#97c2a5;}</style></defs><g id="_レイヤー_1-2"><g id="bg_x5F_square.svg"><rect class="cls-6" x="0" y="0" width="40" height="40"/><rect class="cls-4" x="40" y="0" width="40" height="40"/><rect class="cls-5" x="80" y="0" width="40" height="40"/><rect class="cls-1" y="40" width="40" height="40"/><rect class="cls-2" x="40" y="40" width="40" height="40"/><rect class="cls-3" x="80" y="40" width="40" height="40"/><rect class="cls-6" x="120" y="40" width="40" height="40"/><rect class="cls-4" x="160" y="40" width="40" height="40"/><rect class="cls-5" x="200" y="40" width="40" height="40"/><rect class="cls-1" x="120" y="0" width="40" height="40"/><rect class="cls-2" x="160" y="0" width="40" height="40"/><rect class="cls-3" x="200" y="0" width="40" height="40"/><rect class="cls-6" x="240" y="0" width="40" height="40"/><rect class="cls-4" x="280" y="0" width="40" height="40"/><rect class="cls-5" x="320" y="0" width="40" height="40"/><rect class="cls-1" x="240" y="40" width="40" height="40"/><rect class="cls-2" x="280" y="40" width="40" height="40"/><rect class="cls-3" x="320" y="40" width="40" height="40"/><rect class="cls-6" x="360" y="40" width="40" height="40"/><rect class="cls-4" x="400" y="40" width="40" height="40"/><rect class="cls-5" x="440" y="40" width="40" height="40"/><rect class="cls-1" x="360" y="0" width="40" height="40"/><rect class="cls-2" x="400" y="0" width="40" height="40"/><rect class="cls-3" x="440" y="0" width="40" height="40"/></g></g></svg>