<?xml version="1.0" encoding="UTF-8"?><svg id="_レイヤー_2" xmlns="http://www.w3.org/2000/svg" xmlns:xlink="http://www.w3.org/1999/xlink" viewBox="0 0 372.6 377.29"><defs><style>.cls-1{fill:url(#_名称未設定グラデーション_18);}.cls-2{fill:#f3a470;}.cls-3{fill:#b093c3;}.cls-4{fill:#c1d47f;}.cls-5{fill:#fff;}.cls-6{fill:#ebd45f;}.cls-7{fill:none;}.cls-8{clip-path:url(#clippath-1);}.cls-9{fill:url(#_名称未設定グラデーション_18-2);}.cls-10{fill:#83b9e4;}.cls-11{clip-path:url(#clippath);}.cls-12{fill:#97c2a5;}.cls-13{fill:#717071;}</style><clipPath id="clippath"><path class="cls-7" d="M266.88,138.75c-1.24,3.47.12,6.74.76,8,.13.43.26,1.47.28,2.21.01.77.18,1.5.47,2.18.31,1.15.38,2.42.25,3.01l-.24.04-.23.04c-2.4.42-4.35,2.2-4.96,4.53-.72,2.77.4,5.38,3.32,7.77.4.32.83.59,1.3.8.03.01.17.1.33.2-.51,3.02.04,5.89.63,7.84l-.12.18c-1.99,3-2.9,4.69-3.34,5.76-.95,1.63-2.59,5.14-1.61,8.78l-.13.09c-.29.2-.56.42-.81.67-1.24,1.24-4.16,4.52-4.51,8.14-.14,1.53.36,3.05,1.36,4.22,1,1.17,2.45,1.88,3.98,1.96h.16c.09.16.18.3.28.44-1.52,1.81-2.79,4.54-2.75,7.95-.05,1.11.08,2.31.41,3.47-1.02,1.37-1.9,3.08-2.34,5.19-.03.13-.05.27-.07.4h-.34c-3.44-.01-6.24,2.79-6.24,6.23v11.76c0,.48.06.96.18,1.43.76,2.91,3.55,6.04,7.87,6.04,2.41,0,4.86-.96,7.49-2.95,2.22-1.67,3.94-2.62,5.1-3.15.24.32.48.6.73.89,2.06-1.88,4.08-3.94,6.02-6.23,10.85-12.79,16.28-28.52,16.28-47.18,0-1.37-.08-2.69-.14-4.03-.96-21.04-9.49-38.11-25.61-51.19-1.79,1.07-3.11,2.62-3.79,4.51"/></clipPath><linearGradient id="_名称未設定グラデーション_18" x1="-649.26" y1="5208.03" x2="-647.93" y2="5208.03" gradientTransform="translate(786096.76 -97711.06) rotate(-90) scale(150.89 -150.89)" gradientUnits="userSpaceOnUse"><stop offset="0" stop-color="#c1d47f"/><stop offset=".1" stop-color="#c1d47f"/><stop offset=".55" stop-color="#b093c3"/><stop offset="1" stop-color="#b093c3"/></linearGradient><clipPath id="clippath-1"><polygon class="cls-7" points="303.54 172.86 317.53 148.63 317.53 148.63 303.54 172.86"/></clipPath><linearGradient id="_名称未設定グラデーション_18-2" x1="-654.26" y1="5208.64" x2="-652.93" y2="5208.64" gradientTransform="translate(945514.21 -118471.72) rotate(-90) scale(181.47 -181.47)" xlink:href="#_名称未設定グラデーション_18"/></defs><g id="_レイヤー_1-2"><path class="cls-13" d="M26.83,304.85l11.14,54.31h-13.25l-1.54-9.84h-8.29l-1.63,9.84H0l11.22-54.31h15.61ZM18.95,318.67l-3.01,21.63h6.1l-2.93-21.63h-.16Z"/><path class="cls-13" d="M73.83,334.36v24.8h-11.71v-23.01c0-2.85-.98-4.23-2.85-4.23-1.54,0-3.01,1.14-3.98,4.23v23.01h-11.71v-36.59h11.71v4.88h.16c2.28-3.66,4.96-5.53,8.62-5.53,5.77,0,9.76,4.39,9.76,12.44"/><path class="cls-13" d="M113.11,334.36v24.8h-11.71v-23.01c0-2.85-.98-4.23-2.85-4.23-1.54,0-3.01,1.14-3.98,4.23v23.01h-11.71v-36.59h11.71v4.88h.16c2.28-3.66,4.96-5.53,8.62-5.53,5.77,0,9.76,4.39,9.76,12.44"/><path class="cls-13" d="M134.42,309.73c0,3.41-2.76,6.42-6.34,6.42s-6.5-2.93-6.5-6.42,3.01-6.42,6.5-6.42,6.34,2.84,6.34,6.42M133.85,359.16h-11.71v-36.59h11.71v36.59Z"/><polygon class="cls-13" points="152.4 322.57 156.22 340.71 156.38 340.71 160.45 322.57 172.73 322.57 161.51 359.16 150.61 359.16 139.39 322.57 152.4 322.57"/><path class="cls-13" d="M206.15,341.68v1.7h-17.32c.41,5.37,2.52,8.46,6.99,8.46,3.9,0,6.59-.9,9.51-3.09v7.64c-3.98,2.44-7.89,3.58-12.36,3.58-12.36,0-16.26-9.43-16.26-18.62,0-11.38,6.18-19.51,15.29-19.51s14.15,7.81,14.15,19.84M194.93,337.7c0-5.85-.9-8.21-3.09-8.21-2.04,0-3.01,2.52-3.01,7.97v.24h6.1Z"/><path class="cls-13" d="M236.4,334.61c-1.38-1.14-2.52-1.63-3.66-1.63-5.2,0-6.75,6.91-7.24,15.77v10.41h-11.71v-36.59h11.06v10.57h.16c2.11-7.72,4.39-10.97,8.21-10.97,1.71,0,3.33.65,5.12,1.87l-1.95,10.57Z"/><path class="cls-13" d="M264.94,324.85v8.54c-2.76-2.03-5.78-3.33-8.78-3.33-1.87,0-2.52.9-2.52,1.95,0,4.15,12.77,5.77,12.77,16.59,0,6.75-5.04,11.38-12.36,11.38-3.41,0-6.99-.73-11.06-3.09v-9.11c3.42,2.68,6.02,3.82,9.11,3.82,1.3,0,2.84-.65,2.84-2.11,0-4.47-12.36-5.78-12.36-17,0-6.34,5.12-10.65,12.03-10.65,3.42,0,6.91.81,10.33,3.01"/><path class="cls-13" d="M300.89,332.98v14.64c0,1.95.41,2.52,1.63,2.52.49,0,1.46-.32,2.6-.9v7.97c-2.6,1.87-5.28,2.68-8.37,2.68-3.9,0-6.1-1.47-6.67-4.39-3.42,3.58-5.53,4.47-9.11,4.47-5.2,0-8.86-4.15-8.86-9.27,0-3.58,1.46-7.16,8.13-10.9,2.85-1.55,5.04-2.2,8.94-3.9v-1.79c0-2.52-1.3-3.66-4.07-3.66s-7.23,1.47-10.9,5.12v-9.43c3.82-3.01,9.76-4.31,14.31-4.31,8.05,0,12.36,3.49,12.36,11.14M285.93,352.01c1.22,0,2.6-.98,3.25-2.28v-8.13c-3.9,2.03-5.61,4.31-5.61,7.32,0,1.87.73,3.09,2.36,3.09"/><path class="cls-13" d="M333.98,334.61c-1.38-1.14-2.52-1.63-3.66-1.63-5.2,0-6.75,6.91-7.24,15.77v10.41h-11.71v-36.59h11.06v10.57h.16c2.11-7.72,4.39-10.97,8.21-10.97,1.71,0,3.33.65,5.12,1.87l-1.95,10.57Z"/><polygon class="cls-13" points="350.82 322.57 355.21 338.84 355.37 338.84 360.01 322.57 371.88 322.57 351.96 377.29 340.74 377.29 349.44 354.04 338.38 322.57 350.82 322.57"/><path class="cls-10" d="M75.06,254.89c-7.94,0-17.62-3.62-29.03-10.87-11.41-7.25-20.58-10.87-27.51-10.87-4.67,0-8.04,1.51-10.12,4.54-2.08,3.03-3.12,6.18-3.12,9.45,0,5.29,3.12,10.24,9.36,14.84,6.24,4.6,17.11,6.9,32.62,6.9,12.69,0,24.28-1.25,34.85-3.68l-5.98-10.36c-.36,0-.7.05-1.07.05"/><path class="cls-12" d="M81.68,3.97c-18.03,0-33.91,5.74-47.65,17.21-13.74,11.47-23.13,26.79-28.17,45.95l5.86,1.32c6.68-11.59,12.92-20.17,18.72-25.72,10.59-10.21,22.82-15.32,36.68-15.32.68,0,1.34.05,2.01.08l13.56-23.49c-.34,0-.66-.04-1.01-.04"/><path class="cls-2" d="M300.94,40.28c2.65,0,5.11-.16,7.38-.47,2.27-.31,3.66-1.04,4.16-2.17l14.57-34.98-3.03-2.65c-3.53,3.78-6.39,6.37-8.6,7.75-2.2,1.39-5.32,2.08-9.36,2.08h-53.05l17.58,30.44h30.35Z"/><path class="cls-6" d="M155.99,178.12c0-20.29-6.87-37.06-20.61-50.3-7.31-6.93-17.02-12.98-29.12-18.15,10.34-7.18,17.96-13.67,22.88-19.48,8.7-10.21,13.05-21.43,13.05-33.66,0-13.86-5.26-26.09-15.79-36.68-10.34-10.4-24.93-15.66-43.71-15.85l-13.56,23.49c10.9.39,20.68,3.93,29.29,10.7,9.14,7.18,13.71,17.65,13.71,31.39,0,15.5-5.8,27.98-17.4,37.44-11.6,9.45-27.48,17.84-47.65,25.15l.38,4.92c2.02-.25,3.78-.41,5.29-.47,1.51-.06,3.09-.09,4.73-.09,27.86,0,47.65,8.65,59.37,25.95,6.93,10.23,10.4,22.1,10.4,35.61s-4.29,26.99-12.86,38.92c-8.39,11.68-21.17,17.61-38.26,17.85l5.98,10.36c18.41-4.23,33.63-12.13,45.61-23.74,18.84-18.28,28.27-39.39,28.27-63.34"/><g class="cls-11"><rect class="cls-1" x="252.73" y="134.24" width="43.68" height="113.84"/></g><g class="cls-8"><rect class="cls-9" x="303.54" y="148.63" width="13.99" height="24.23"/></g><path class="cls-3" d="M317.21,136.99c-1.65-3.93-3.58-7.71-5.77-11.37-2.15-3.59-4.58-7.04-7.26-10.37-2.34-2.9-4.86-5.72-7.6-8.42-10.6-10.34-23.79-18.15-39.56-23.45-9.59-3.15-24.74-6.49-45.43-10.02l16.1-33.09h42.92l-17.58-30.44h-28.02l-41.24,90.39c-.26.63-.47,1.29-.66,1.99-.19.69-.41,1.54-.66,2.55,1.01,1.13,1.86,1.79,2.55,1.98.69.19,2.43.28,5.21.28,16.66,0,34.65,3.97,53.96,11.91,10.39,4.29,19.23,9.39,26.52,15.31,16.12,13.09,24.65,30.16,25.61,51.19h0s7.26-12.58,7.26-12.58l13.99-24.23,2.38-4.13c-.8-2.53-1.68-5.04-2.71-7.5"/><path class="cls-4" d="M319.91,144.5l-2.38,4.13-13.99,24.23-7.26,12.58c.06,1.34.14,2.66.14,4.03,0,18.66-5.43,34.38-16.28,47.18-1.95,2.29-3.96,4.36-6.02,6.23-5.29,4.81-10.95,8.29-17.01,10.42-4.77,1.67-9.78,2.54-15.03,2.54-6.32,0-15.31-4.07-26.99-12.2-11.68-8.13-21.12-12.2-28.31-12.2-5.68,0-9.88,1.42-12.59,4.26-2.72,2.84-4.07,6.15-4.07,9.93,0,10.09,6.31,17.08,18.93,20.99,7.57,2.39,17.54,3.59,29.91,3.59,10.83,0,20.97-1.24,30.47-3.61,13.44-3.35,25.56-9.05,36.33-17.13,2.98-2.24,5.87-4.65,8.64-7.25,2.28-2.14,4.42-4.35,6.44-6.62,15.58-17.45,23.38-38.5,23.38-63.16,0-9.72-1.46-19.03-4.3-27.95"/><path class="cls-4" d="M296.28,185.44l7.26-12.58-7.26,12.58Z"/><path class="cls-13" d="M327.8,214.12h1.81v11.48h7.35v6.85h-7.35v25.47c0,3.82.4,6.04,3.12,6.04,1.21,0,2.22-.3,4.23-1.21v6.95c-3.12,1.31-4.83,1.71-6.95,1.71-5.34,0-8.25-2.92-8.25-9.97v-29h-5.64v-1.82l11.68-16.51Z"/><path class="cls-13" d="M372.6,238.19v32.02h-7.85v-31.82c0-3.83-.9-6.55-4.23-6.55-2.31,0-4.33,1.71-6.14,5.34v33.03h-7.86v-67.26h7.86v27.49h.2c2.42-3.93,4.74-5.54,8.26-5.54,5.64,0,9.77,4.53,9.77,13.29"/><path class="cls-5" d="M315.29,176.51c3.4-1.98,1.28-7.49,1.28-7.49-1.73-.83-1.19-1.85-1.19-1.85,2.22-2.55.65-3.52.65-3.52,0,0-2.59-.69-1.3-2.73,1.3-2.04-.74-4.31-.74-4.31-1.2-1.99-2.55-1.67-2.04-4.49.42-2.31-.22-3.04-.45-3.23l-1.98-2.22c-6.61-4.26-4.51-11.92-4.76-15.5-.25-3.58,3.52-11.18-.62-10.19-4.14.99-4.88-.06-4.88-.06,0,0-3.21-3.09-5.74-2.47-2.53.62-3.03,9.08-3.03,9.08.74,2.66,8.21-1.48,8.21-1.48,2.47-.49,4.08-2.22,2.41,4.57-1.67,6.79-4.08,3.77-6.3,2.9-2.22-.86-2.78,1.85-2.78,1.85-1.36,4.14-5.68.87-5.06-3.83.62-4.69-1.67-5.37-1.67-5.37-2.53.86-1.36-.37-3.27-1.48-1.91-1.11-2.53.49-2.53.49l.34,10.9c-.49,3.18-2.99,3.33-4.08,2.81-1.08-.52-1.42-.15-1.42-.15-4.01,1.48-1.6,5.59-1.6,5.59.78,1.61.83,4.57.85,4.55l.1.27c.31,1,2.82,9.69-4.54,10.68,0,0-1.57.28.96,2.35,0,0,4.69,2.07,3.77,5.65-.93,3.58.93,7.53.93,7.53,0,0,.37,1.36-1.42,3.34,0,0-2.78,4.2-2.9,5.06,0,0-2.07,2.99-1.2,5.18,0,0,1.11,3.46-2.5,5.93,0,0-2.69,2.69-2.87,4.66,0,0,3.21.15,3.89,1.2s1.05,3.09,3.21,3.09c0,0,1.17-.19,1.33.99,0,0,.71,2.1-3.27,3.8,0,0-2.22,1.57-2.1,5.06,0,0-.25,3.15,2.1,4.23l.04.02c-.95.54-3.51,2.25-4.19,5.47,0,0,.39,5.89-5.86,4.9-.35-.06-.67.22-.67.58v11.76s1.06,4.08,6.48,0c5.42-4.08,8.99-4.96,10.14-4.91s2.08,1.81,2.08,1.81c0,0,5.05,7.04,7.74,6.39,0,0,.8-.08,1.59-.99.39-.45,1.1-.44,1.46.04.63.86,1.54,1.63,2.1.16,0,0-.09-2.32,2.22-2.78,2.32-.46,2.96-2.27,2.96-4.12v-18.71s-.33-1.29-.94-1.55c-.53-1.9.04-6.55.04-6.55.18-1.47.54-2.97,1.3-4.26.4-.68.92-1.39,1.68-1.73.9-.4,2.06-.33,3.01-.26,1.39.11,2.76.57,3.87,1.43.66.51,1.31,1.18,1.67,1.94,1.71-4.03.23-8.96.23-8.96-1.3-1.36-.4-2.35-.4-2.35,1.64-.71,1.48-1.73,1.48-1.73-.28-1.54.4-2.38.4-2.38,1.8-.87,1.52-2.5,1.47-2.7l1.48-1.05c1.98-.99,2.9-3.03,2.9-3.03,0,0-1.05-.99.93-2.72,1.99-1.73.98-2.53.98-2.53-.8-2.1,0-2.59,0-2.59"/><path class="cls-13" d="M236.94,66.8l.55-2.47c-2.08,1.07-4.89,1.66-5.32,1.57-.41-.09-.65-.45-.58-.77.05-.22.23-.41.59-.44,1.89-.24,3.36-.61,5-1.45-.43-.08-.83-.15-1.18-.22-1.49-.32-1.56-1.13-1.49-1.62.05-.35.12-.75.2-1.14.1-.46.21-.93.32-1.3.15-.57.65-1.1,1.73-.9.51.09,1.21.23,1.96.39l.17-.81-4.14-.88c-.4-.09-.53-.38-.48-.65.06-.29.33-.53.71-.45l4.13.88.19-.87c.08-.4.44-.51.76-.44.33.07.63.33.55.72l-.19.87,4.17.89c.38.08.5.39.44.67-.06.27-.29.51-.68.43l-4.18-.89-.17.81c.77.16,1.5.33,2.13.48.82.19,1.26.87,1.18,1.42-.04.33-.11.73-.2,1.16-.1.48-.22.97-.33,1.36-.17.66-.85,1.12-1.76.95l-.29-.06c-.41-.09-.86-.2-1.31-.31,1.24,1.42,2.59,2.31,4.1,3.22.29.18.38.41.34.64-.07.32-.43.69-.97.58-.34-.07-2.35-1.38-4.15-3.6-.14.74-.24,1.29-.51,2.52-.08.37-.44.48-.79.41-.32-.07-.61-.32-.53-.67h0ZM238.13,61.36l-2.28-.48c-.14.66-.17.99.48,1.16.48.12,1.02.23,1.6.35l.2-1.03ZM238.54,59.41c-.6-.13-1.18-.24-1.61-.31-.69-.12-.78.32-.89.84l2.28.49.22-1.01ZM239.37,61.63l-.22,1.02c.59.13,1.16.25,1.7.35.68.15.78-.31.9-.87l-2.38-.5ZM241.95,61.19c.03-.15.05-.3.08-.44.09-.58-.21-.64-2.23-1.07l-.21,1.01,2.36.5Z"/><path class="cls-13" d="M252.8,68.11c-2.16.41-3.19.46-3.42.4-.39-.11-.52-.48-.43-.8.07-.26.29-.47.63-.49,1.33-.05,2.42-.15,3.58-.4l.85-3.04-2.73-.76c-.43-.12-.56-.49-.48-.79.09-.31.39-.56.82-.44l2.73.76.79-2.83c.11-.4.49-.52.83-.42.32.09.6.39.49.79l-2.91,10.45c-.11.39-.48.49-.82.4-.32-.09-.61-.37-.5-.76l.57-2.06ZM259.69,69.58c.12-.44.49-.55.81-.46.34.09.69.4.54.92-.75,2.68-2.18,2.31-3.64,1.9-1.33-.37-2.43-.88-2-2.39.16-.56,2.42-8.67,2.56-9.08.13-.37.5-.46.81-.37.32.09.59.37.5.76-.07.27-.54,1.87-1.05,3.64.99-.2,2.2-.53,3.04-.86.14-.05.26-.06.38-.02.36.1.59.56.48.93-.06.22-.21.4-.53.5-1.03.32-2.7.63-3.74.73-.54,1.89-1.05,3.65-1.12,3.91-.12.52.15.75,1.04,1,1.2.33,1.53.25,1.88-1.03l.02-.08h0Z"/><path class="cls-13" d="M270.92,70.7c-.43-.53-.37-1-.07-1.72.09-.21.2-.44.32-.69.27-.58.48-1.04.64-1.43.24-.57.36-.95.42-1.28l.06-.17c.15-.38.52-.45.83-.32.79.33.52,1.09.16,1.96-.15.36-.36.8-.68,1.43-.19.39-.36.7-.47.95-.33.8.17,1.1.55,1.26.19.08.26-.01.44,0l.22.05c.34.14.53.55.39.89-.09.22-.33.41-.76.48-.55.09-1.77.1-2.49.18-1.21.14-1.87.51-2.07.99-.21.52.13,1.31,1.45,1.86.21.09,1.23.5,1.97.33.26-.06.51-.03.69.05.43.18.61.61.46.96-.33.8-2.03.63-3.36.08-2.34-.97-2.93-2.51-2.47-3.62.38-.93,1.53-1.7,3.46-1.93.03,0,.41-.04.54-.06l-.23-.22Z"/><path class="cls-13" d="M283.46,76.66c-.37-.57-.26-1.04.12-1.72.11-.2.24-.41.39-.65.33-.55.59-.98.79-1.35.3-.54.47-.91.56-1.22l.07-.17c.2-.35.56-.39.86-.23.75.41.39,1.14-.06,1.96-.19.34-.45.76-.83,1.34-.23.37-.44.65-.57.9-.42.76.05,1.11.41,1.31.18.1.26.02.44.05l.22.07c.32.17.46.61.29.92-.11.21-.38.37-.8.39-.56.03-1.76-.09-2.5-.1-1.21,0-1.92.3-2.17.75-.27.49-.02,1.31,1.24,2,.2.11,1.17.63,1.92.54.27-.03.51.03.68.12.4.22.54.68.36,1.01-.42.76-2.09.4-3.35-.29-2.22-1.22-2.63-2.82-2.05-3.87.48-.88,1.71-1.52,3.65-1.53.03,0,.41,0,.54,0l-.2-.24Z"/><path class="cls-13" d="M295.13,87.41c-.59.8-.56,1.55-.02,1.95.07.05,1.32.78,2.07-.23.42-.57.59-1.63.15-3.31-.08-.34-.04-.58.07-.73.2-.27.59-.28.88-.06.15.11.27.29.34.53.52,2.1.29,3.57-.36,4.44-.98,1.33-2.91,1.19-3.98.4-1.02-.76-1.32-2.14-.18-3.68l.02-.02c.21-.28.42-.57.64-.85-.71-.91-1.31-1.71-.7-2.54.24-.33.64-.59,1.2-.77.16-.05.27-.13.35-.23.2-.27.04-.91-.44-1.64-.2-.3-.19-.57-.06-.74.17-.24.55-.3.88-.06.36.26,1.45,2.15.75,3.11-.23.31-.6.46-1.07.58-.3.07-.45.17-.54.28-.12.17-.04.36.1.53.12.14.25.29.38.45,1.87-2.3,2.18-2.72,2.4-3.01.34-.46.56-.78.87-1.2.27-.37.66-.35.93-.15.59.43.21.97,0,1.25-.3.4-.64.75-1.04,1.25-.8.99-1.61,1.92-2.39,2.88.47.73.61,1.15.36,1.49-.22.3-.67.41-.96.19-.14-.1-.24-.26-.31-.52l-.32.43Z"/><path class="cls-13" d="M302.79,96.3c.42-.79.99-1.5,1.64-2.14,1.74-1.73,3.95-2.92,4.68-3.55.37-.3.72-.22.95,0,.25.25.32.66.06.93l-.09.07c-.86.58-3.2,1.9-4.18,2.87-.37.36-.34.47-.31.5h.14c.89-.27,1.08-.32,1.29-.11.21.21.21.6-.01.82l-.23.13c-1.3.34-2.3.81-2.6,1.11l-.26.28c-.49.48-.9.13-1.01.02-.2-.2-.27-.53-.07-.92M308.33,101.75c-1.7-1.71-1.98-4.04-1.5-4.52.26-.26.7-.22.98.05.15.15.24.37.22.66-.05.88.45,1.78,1.25,2.58.28.28.57.54.9.78l.13.11c.33.34.26.72.02.97-.52.51-1.12.24-1.99-.64M311.57,96.3c-.43-.44-.86-.94-1.18-1.49-.23-.37-.16-.67.03-.86.24-.24.65-.27.92,0l.09.11c.26.4.55.75.86,1.06.42.43.88.78,1.31,1.12l.1.08c.3.31.24.7,0,.94-.4.39-.87.31-2.13-.96"/><path class="cls-13" d="M320.19,118.12c-1.55-2.44-1.26-4.47-.59-4.9.34-.22.82-.12,1.03.21.11.18.14.42.05.72-.32,1,0,1.97.53,2.81.47.73,1.08,1.36,1.57,1.81l.21.25c.26.41.12.82-.2,1.02-.3.2-.76.19-1.16-.19-.53-.49-1.02-1.09-1.44-1.73M326.86,115.07c-1.02-1.6-1.24-3.27-1.28-3.67-.04-.35.13-.63.35-.77.28-.18.66-.16.88.18.07.11.11.23.15.39.18,1.06.47,1.92,1.2,3.23.23.42.08.81-.21,1-.3.2-.76.16-1.08-.35"/><path class="cls-13" d="M327.21,126.22s.14.05.34.08c.27.05.5.07.78.11.6.08,1.2.21,1.81.38.37.04.71.06,1.02.06l.38-.12c-.25-.26-.6-.62-1.06-.9-.21-.12-.32-.26-.38-.38-.13-.31.07-.61.35-.73.42-.18.61-.14,2.45,1.59,1.1-.35,2.05-.67,2.62-.92.41-.18.73.02.85.32.13.31.06.74-.31.9-.38.17-1.73.57-2.42.77,0,.23-.14.41-.39.52,1.3.57,2.48,1.23,2.9,2.19.36.85-.04,1.65-.93,2.03l-.26.1c-.87.27-2.39.49-3.63.86-.18.05-.32.09-.45.15-.4.17-.5.39-.3.85.1.23.25.48,1.03,1.25l.23.31c.16.36-.05.69-.36.83-.27.12-.61.1-.9-.17-.43-.42-.87-.92-1.19-1.66-.43-.99-.48-1.99.82-2.55.18-.08.38-.15.6-.2,1.24-.32,2.74-.56,3.6-.87l.14-.06c.42-.18.51-.4.41-.63-.29-.68-2.35-1.56-4.08-2.04-.7.24-1.41.5-2.07.79-.66.28-1.26.59-1.76.91l-.13.07c-.41.18-.81-.05-.96-.39-.29-.68.46-1.02,1.38-1.42.45-.19.94-.39,1.48-.58-.58-.08-1.24-.12-1.79-.16-.58-.04-.93-.32-1.06-.61-.12-.28-.04-.59.25-.72.23-.1.52-.04.91.06h.09Z"/><path class="cls-13" d="M337.88,144.53c-.29-.55-.54-1.13-.62-1.47-.1-.43.15-.71.46-.78.34-.08.73.07.84.52.05.2.19.8.85,2.17.82.18,1.24.26,2.24.17.35-.03.57.21.63.5.09.35-.06.79-.45.88-.16.04-.72.1-1.76-.1l.03.11c.37,1.55-1.29,1.99-1.92,2.13-1.21.29-4.62,1.04-5.22-1.47-.18-.77-.07-1.86.58-2.02.37-.09.79.16.87.54v.3c-.07.32-.07.59-.02.81.21.88,1.26,1.06,3.64.5.56-.13.95-.31.84-.75l-.09-.24-.11-.2c-2.16-.56-4.73-1.46-6.41-1.98-.31-.1-.5-.34-.56-.61-.09-.35.05-.74.42-.83.14-.03.31-.03.51.05,1.05.38,3.37,1.32,5.3,1.88l-.05-.1ZM337.8,152.5c.7-.48,1.5-1.73,1.6-2.85.02-.26.19-.43.38-.48.28-.07.66.12.75.51.17.69-.89,3.76-2.14,4.05-.44.1-.81-.2-.89-.55-.05-.23.03-.5.3-.69"/><path class="cls-13" d="M334.52,163.38c-.04-.53.25-.79.57-.81.31-.02.64.19.7.59.38,2.45,1.98,4.35,3.09,4.27.59-.04.85-.62.81-1.14-.08-1.07-1.98-2.92-2.25-3.11-.38-.27-.53-.51-.54-.73-.02-.31.22-1.18,2.2-1.33.61-.05.66-.05,1.83.12.35.04.76.08,1.18.05h.11s.13-.02.13-.02c.91-.07,1.4.32,2,1.24.21.32.4.71.57.7.11,0,.21-.17.31-.56.08-.37.31-.54.53-.56.32-.02.65.26.68.71.04.5-.65,2.3-1.62,2.38-.65.05-.79-.46-.95-1.15-.06-.22-.22-.46-.33-.65-.47-.85-.84-.97-1.28-.94l-.23.03h-.15c-.17.02-.35.02-.56.01-1.58-.12-1.66-.11-1.86-.1-.04,0-.6.05-.59.21l.05.12c.19.27.59.77.98,1.36.54.81.87,1.49.92,2.19.09,1.21-.6,2.47-1.85,2.56-.89.07-2.01-.47-3.08-1.87-1.02-1.34-1.37-3.51-1.37-3.57"/><path class="cls-13" d="M337.92,179.33c-.99-.05-1.6.39-1.64,1.06,0,.08.07,1.53,1.32,1.6.71.04,1.69-.4,2.85-1.69.24-.25.47-.35.65-.34.34.02.56.34.54.7-.01.18-.09.39-.26.57-1.47,1.58-2.82,2.19-3.91,2.13-1.65-.09-2.59-1.78-2.52-3.11.07-1.27,1.06-2.28,2.98-2.17h.03c.35.02.71.04,1.06.07.37-1.09.71-2.03,1.73-1.98.4.02.84.21,1.3.58.13.11.26.15.38.16.34.02.78-.46,1.13-1.27.15-.33.38-.47.59-.46.29.01.56.3.54.7-.03.45-1,2.39-2.19,2.33-.39-.02-.71-.25-1.07-.58-.23-.21-.39-.29-.53-.3-.21-.01-.32.17-.38.37-.05.18-.1.37-.17.56,2.95.3,3.47.33,3.83.35.57.03.96.04,1.48.07.46.03.65.36.63.69-.04.73-.7.7-1.04.68-.5-.03-.97-.12-1.61-.19-1.27-.13-2.49-.29-3.71-.42-.35.79-.62,1.14-1.04,1.12-.38-.02-.71-.33-.69-.7,0-.17.09-.35.27-.55l-.53-.03Z"/></g></svg>