<?xml version="1.0" encoding="UTF-8"?><svg id="_レイヤー_2" xmlns="http://www.w3.org/2000/svg" xmlns:xlink="http://www.w3.org/1999/xlink" viewBox="0 0 1000 183.89"><defs><style>.cls-1{fill:url(#_名称未設定グラデーション_18);}.cls-2{fill:#f3a470;}.cls-3{fill:#b093c3;}.cls-4{fill:#c1d47f;}.cls-5{fill:#fff;}.cls-6{fill:#ebd45f;}.cls-7{fill:none;}.cls-8{clip-path:url(#clippath-1);}.cls-9{fill:url(#_名称未設定グラデーション_18-2);}.cls-10{fill:#83b9e4;}.cls-11{clip-path:url(#clippath);}.cls-12{fill:#97c2a5;}.cls-13{fill:#717071;}</style><clipPath id="clippath"><path class="cls-7" d="M130.08,67.63c-.6,1.69.06,3.29.37,3.9.06.21.13.71.14,1.08,0,.37.08.73.23,1.06.15.56.18,1.18.12,1.47l-.12.02-.11.02c-1.17.21-2.12,1.07-2.42,2.21-.35,1.35.19,2.62,1.62,3.79l.63.39.16.1c-.25,1.47.02,2.87.31,3.82l-.06.09c-.97,1.46-1.41,2.29-1.63,2.81-.46.79-1.27,2.5-.79,4.28l-.06.05-.39.33c-.61.6-2.03,2.2-2.2,3.96-.07.74.17,1.49.66,2.05.49.57,1.19.91,1.94.96h.08s.14.21.14.21c-.74.89-1.36,2.22-1.34,3.87-.03.54.04,1.13.2,1.69-.5.66-.93,1.5-1.14,2.53l-.04.19h-.17c-1.67,0-3.04,1.36-3.04,3.04v5.73l.09.7c.37,1.42,1.73,2.95,3.84,2.95,1.17,0,2.37-.47,3.65-1.44,1.08-.81,1.92-1.27,2.49-1.53l.35.44c1.01-.92,1.99-1.92,2.94-3.04,5.29-6.23,7.93-13.9,7.93-22.99,0-.67-.04-1.31-.06-1.97-.47-10.25-4.63-18.57-12.48-24.95-.87.52-1.52,1.27-1.85,2.19"/></clipPath><linearGradient id="_名称未設定グラデーション_18" x1="1416.45" y1="7868.75" x2="1419.69" y2="7868.75" gradientTransform="translate(237591.62 42868.35) rotate(-90) scale(30.18 -30.18)" gradientUnits="userSpaceOnUse"><stop offset="0" stop-color="#c1d47f"/><stop offset=".1" stop-color="#c1d47f"/><stop offset=".55" stop-color="#b093c3"/><stop offset="1" stop-color="#b093c3"/></linearGradient><clipPath id="clippath-1"><path class="cls-7" d="M147.95,84.25l6.82-11.81-6.82,11.81Z"/></clipPath><linearGradient id="_名称未設定グラデーション_18-2" x1="1375.77" y1="7861.62" x2="1379.01" y2="7861.62" gradientTransform="translate(285478.45 50056.7) rotate(-90) scale(36.29 -36.29)" xlink:href="#_名称未設定グラデーション_18"/></defs><g id="_レイヤー_1-2"><path class="cls-13" d="M260.38,116.27l.13-12.33c-8.85,7.21-21.65,12.87-23.77,12.87s-3.54-1.5-3.54-3.07c0-1.09.68-2.18,2.38-2.72,8.78-3.07,15.39-6.33,22.34-11.99-2.11.07-4.09.13-5.86.13-7.42,0-8.58-3.81-8.72-6.2-.13-1.7-.2-3.68-.2-5.65,0-2.32.07-4.63.2-6.54.14-2.86,1.98-5.93,7.35-6.06,2.52-.07,5.99-.14,9.74-.14v-4.02h-20.64c-1.98,0-2.93-1.29-2.93-2.59,0-1.43,1.02-2.86,2.93-2.86h20.57v-4.36c0-1.97,1.56-2.86,3.2-2.86s3.34.95,3.34,2.86v4.36h20.77c1.91,0,2.79,1.36,2.79,2.72s-.89,2.72-2.79,2.72h-20.84v4.02c3.81,0,7.49.07,10.62.14,4.09.07,6.88,2.86,7.08,5.59.14,1.63.2,3.61.2,5.72,0,2.39-.06,4.84-.2,6.81-.14,3.33-2.93,6.2-7.42,6.33h-1.43c-2.04,0-4.29-.06-6.54-.13,7.35,5.51,14.71,8.38,22.82,11.17,1.56.54,2.24,1.57,2.24,2.72,0,1.57-1.36,3.75-4.02,3.75-1.7,0-12.6-4.22-23.43-12.94.07,3.68.14,6.4.14,12.53,0,1.84-1.63,2.72-3.34,2.72-1.57,0-3.2-.89-3.2-2.66v-.06ZM260.52,79.43c-3,0-5.85.07-7.97.13-3.4.14-3.4,2.32-3.4,4.9h11.37v-5.04ZM260.52,89.17h-11.37c0,3.27.2,4.9,3.47,5.04,2.38.06,5.11.06,7.97.06l-.07-5.11ZM266.71,89.17v5.11c2.93,0,5.79,0,8.44-.06,3.41,0,3.41-2.24,3.41-5.04h-11.85ZM278.56,84.47c0-.75-.07-1.5-.07-2.18-.13-2.86-1.63-2.86-11.72-2.86v5.04h11.78Z"/><path class="cls-13" d="M332.58,104.97c-9.6,4.77-14.37,6.34-15.53,6.34-1.97,0-3.06-1.57-3.06-3.2,0-1.29.75-2.59,2.32-3.13,6.2-1.98,11.17-3.88,16.27-6.54v-15.39h-13.82c-2.18,0-3.27-1.57-3.27-3.07s1.09-3.13,3.27-3.13h13.82v-14.3c0-2.05,1.63-3.07,3.34-3.07s3.34,1.02,3.34,3.07v52.85c0,1.98-1.63,2.93-3.34,2.93s-3.34-.95-3.34-2.93v-10.42ZM366.84,102.86c0-2.25,1.57-3.2,3.2-3.2s3.75.95,3.75,3.61c0,13.56-7.22,13.69-14.58,13.69-6.74,0-12.53-.95-12.53-8.58,0-2.86,0-43.86.14-45.97.14-1.91,1.77-2.79,3.34-2.79s3.27.95,3.34,2.93c0,1.36-.07,9.47-.14,18.46,4.36-2.25,9.6-5.38,13.15-8.04.61-.41,1.15-.61,1.76-.61,1.84,0,3.48,1.84,3.48,3.74,0,1.09-.48,2.18-1.84,3.07-4.42,2.86-11.85,6.47-16.62,8.31-.06,9.6-.13,18.52-.13,19.82.13,2.59,1.7,3.34,6.2,3.34,6.07,0,7.49-.82,7.49-7.29v-.47Z"/><path class="cls-13" d="M411.54,88.96c-2.93-1.57-3.54-3.81-3.54-7.63,0-1.09.07-2.32.14-3.68.14-3.13.21-5.58.21-7.63,0-3-.14-4.97-.48-6.54-.06-.34-.06-.61-.06-.88,0-1.97,1.5-3,3.13-3,4.16,0,4.36,3.95,4.36,8.51,0,1.91-.13,4.29-.41,7.7-.14,2.11-.34,3.81-.34,5.18,0,4.22,2.79,4.63,4.83,4.63,1.02,0,1.16-.54,1.98-.82.34-.14.75-.2,1.09-.2,1.77,0,3.41,1.5,3.41,3.27,0,1.16-.75,2.45-2.52,3.54-2.32,1.43-7.77,3.74-10.9,5.45-5.17,2.85-7.49,5.79-7.49,8.3,0,2.72,3,5.65,10.01,5.65,1.09,0,6.47-.06,9.47-2.18,1.09-.75,2.24-1.09,3.2-1.09,2.25,0,3.88,1.63,3.88,3.48,0,4.22-7.97,6.6-14.98,6.6-12.33,0-17.85-5.86-17.85-11.71,0-4.9,3.75-10.49,11.99-15.12.14-.07,1.77-.95,2.32-1.29-.41-.07-.96-.27-1.43-.55"/><path class="cls-13" d="M470.12,88.96c-2.93-1.57-3.54-3.81-3.54-7.63,0-1.09.07-2.32.14-3.68.14-3.13.2-5.58.2-7.63,0-3-.13-4.97-.48-6.54-.07-.34-.07-.61-.07-.88,0-1.97,1.5-3,3.14-3,4.15,0,4.36,3.95,4.36,8.51,0,1.91-.14,4.29-.41,7.7-.13,2.11-.34,3.81-.34,5.18,0,4.22,2.79,4.63,4.84,4.63,1.02,0,1.15-.54,1.97-.82.34-.14.75-.2,1.09-.2,1.77,0,3.41,1.5,3.41,3.27,0,1.16-.75,2.45-2.52,3.54-2.31,1.43-7.76,3.74-10.9,5.45-5.17,2.85-7.49,5.79-7.49,8.3,0,2.72,3,5.65,10.01,5.65,1.09,0,6.47-.06,9.47-2.18,1.09-.75,2.25-1.09,3.2-1.09,2.24,0,3.88,1.63,3.88,3.48,0,4.22-7.97,6.6-14.98,6.6-12.33,0-17.84-5.86-17.84-11.71,0-4.9,3.75-10.49,11.99-15.12.13-.07,1.76-.95,2.31-1.29-.41-.07-.95-.27-1.43-.55"/><path class="cls-13" d="M536.47,102.79c0,4.83,2.32,7.7,5.59,7.7.41,0,7.42-.75,7.42-6.88,0-3.47-2.39-8.1-8.99-13.42-1.29-1.09-1.84-2.18-1.84-3.06,0-1.63,1.5-2.79,3.27-2.79.88,0,1.91.34,2.86,1.09,8.1,6.74,11.44,13.14,11.44,18.46,0,8.03-7.97,13.08-14.44,13.08s-11.37-4.56-11.37-13.89v-.14c0-1.7,0-3.47.06-5.18-5.38-1.5-10.08-2.93-10.08-7.9,0-1.98.82-4.16,2.45-6.47.48-.68.68-1.29.68-1.91,0-1.63-2.45-3.68-6.47-5.18-1.63-.61-2.39-1.7-2.39-2.72,0-1.43,1.3-2.79,3.27-2.79,2.18,0,11.92,4.22,11.92,10.01,0,1.91-1.03,3.54-2.52,5.38-.95,1.16-1.29,1.98-1.29,2.65,0,1.03.89,1.5,1.91,1.77.88.2,1.84.41,2.79.68.68-14.44.68-16.95.68-18.73,0-2.8-.07-4.7-.07-7.22,0-2.24,1.57-3.27,3.2-3.27,3.54,0,3.61,3.2,3.61,4.9,0,2.45-.34,4.77-.47,7.9-.27,6.2-.75,12.19-1.02,18.18,3.95,1.5,5.72,2.72,5.72,4.76,0,1.84-1.43,3.54-3.2,3.54-.82,0-1.7-.34-2.72-1.16v2.59Z"/><path class="cls-13" d="M583.88,112.87c-1.29-4.16-1.77-8.58-1.77-13.01,0-11.99,3.48-23.7,3.81-28.4.21-2.32,1.7-3.27,3.27-3.27,1.7,0,3.41,1.16,3.41,3l-.07.54c-.95,4.97-4.42,17.57-4.42,24.31,0,2.52.48,2.79.68,2.79.14,0,.34-.14.47-.48,2.11-4.02,2.59-4.83,4.02-4.83s2.79,1.36,2.79,2.86c0,.41-.06.82-.34,1.23-3.27,5.65-5.11,10.76-5.11,12.8,0,.61.07,1.23.07,1.84,0,3.34-2.66,3.54-3.41,3.54-1.36,0-2.79-.88-3.41-2.93M621.74,112.46c-11.78,0-20.77-7.02-20.77-10.35,0-1.77,1.63-3.2,3.54-3.2,1.02,0,2.11.41,3.07,1.5,2.86,3.2,7.7,4.56,13.21,4.56,1.91,0,3.81-.14,5.79-.41l.82-.06c2.32,0,3.41,1.56,3.41,3.27,0,3.54-3,4.7-9.06,4.7M614.04,82.56c-3,0-6.2-.27-9.19-1.02-2.04-.48-2.86-1.77-2.86-3.07,0-1.63,1.3-3.2,3.13-3.2l.68.07c2.24.48,4.5.68,6.6.68,2.93,0,5.72-.34,8.38-.68l.61-.07c2.11,0,3.27,1.56,3.27,3.2,0,2.72-1.9,4.09-10.62,4.09"/><path class="cls-13" d="M701.24,115.18c-14.1,0-21.66-6.54-21.66-10.42,0-1.98,1.63-3.68,3.54-3.68,1.02,0,2.11.54,3.06,1.71,3.27,3.95,8.11,5.17,12.94,5.17,4.22,0,8.45-.89,11.58-1.7.54-.13,1.09-.2,1.57-.2,2.39,0,3.68,1.63,3.68,3.47s-1.23,3.61-3.81,4.29c-3.41.89-7.15,1.36-10.9,1.36M706.21,79.77c-9.26,0-16.69-3.47-18.46-4.36-1.57-.75-2.25-2.18-2.25-3.47,0-1.63,1.09-3.13,3.07-3.13.61,0,1.22.13,1.97.41,4.84,2.05,9.13,3.14,16.41,3.54,2.32.14,3.54,1.77,3.54,3.47s-1.36,3.54-4.29,3.54"/><path class="cls-13" d="M742.93,104.97c.07-.14.48-.54,1.02-1.36.75-1.09,1.29-2.11,1.98-3.27,1.5-2.52,3.27-4.97,5.18-7.35.88-1.57,1.63-3.07,2.24-4.43l.2-1.9c-1.63.61-3.95,1.5-6.06,2.99-.96.68-1.77.96-2.45.96-1.63,0-2.59-1.5-2.59-3,0-2.25.54-2.99,11.85-7.9.54-5.59.95-10.49.95-13.49,0-2.18,1.5-3.2,3.07-3.2s3.41,1.16,3.41,3.13-.82,8.86-1.23,12.33c1.02.48,1.56,1.43,1.56,2.72,5.04-4.7,10.29-8.72,15.4-8.72,4.49,0,7.29,3.34,7.29,8.11,0,.41,0,.89-.07,1.36-.47,4.43-2.45,11.65-3.2,17.91-.14.88-.2,1.63-.2,2.31,0,2.11.75,2.99,3.2,2.99,1.23,0,2.65-.2,7.56-2.18.68-.27,1.29-.41,1.84-.41,1.91,0,3,1.56,3,3.2,0,1.43-.75,2.93-2.52,3.68-2.72,1.09-5.79,2.11-9.74,2.11-5.25,0-9.81-1.7-9.81-8.58,0-.95.07-1.98.27-3.07.95-6.2,2.79-13.35,3.06-17.77v-.75c0-2.24-.81-3.06-2.04-3.06-3.61,0-11.51,7.49-17.03,14.3-.27,3.61-.48,7.29-.48,10.77s.2,6.74.68,9.6l.07.75c0,2.18-1.77,3.54-3.61,3.54-3.61,0-3.68-4.02-3.68-8.92,0-2.39.07-4.97.27-7.77-1.5,2.45-2.93,5.31-4.16,7.7-1.29,2.52-3.2,3.54-4.77,3.54s-2.72-.96-2.72-2.52c0-1.23.82-2.38,2.04-3.95l.2-.41Z"/><path class="cls-13" d="M831.75,86.58c-2.93.75-5.99,1.29-7.7,1.29-2.18,0-3.2-1.5-3.2-3.07,0-1.71,1.16-3.41,3.41-3.41,1.02,0,4.02,0,11.23-1.57,1.77-3.67,2.66-5.58,3.34-10.42.27-1.7,1.63-2.45,3.07-2.45,1.77,0,3.68,1.15,3.68,3.13,0,.82-.34,3.54-2.45,8.25h.54c7.77,0,7.97,8.38,7.97,11.51,0,6.06-.27,23.09-12.87,23.09-3.88,0-8.92-1.77-8.92-5.04,0-1.84,1.63-3.54,3.54-3.54.48,0,.95.14,1.43.34,1.43.68,2.72,1.02,3.81,1.02,4.43,0,6.47-4.76,6.47-16.69,0-2.79-.41-4.84-2.59-4.84-.34,0-.75,0-1.23.14-.27.07-.68.2-1.09.27-5.11,9.6-12.26,20.77-16.62,28.19-.82,1.36-2.18,1.98-3.54,1.98-1.77,0-3.47-1.09-3.47-2.93,0-.68.2-1.5.81-2.39,3-4.56,10.08-14.5,14.91-23.02l-.54.14ZM869.48,95.98c-1.5-3.88-6.54-9.06-11.71-10.83-1.23-.41-1.84-1.36-1.84-2.32,0-1.43,1.3-3,3.27-3,3.47,0,16.83,8.45,16.83,14.71,0,2.18-1.84,3.61-3.61,3.61-1.16,0-2.32-.68-2.93-2.18"/><path class="cls-13" d="M909.82,118.45c-2.59,0-3.74-1.5-3.74-3.06s1.15-3.07,3.13-3.2c12.05-.95,21.86-8.03,21.86-13.48,0-2.86-2.72-4.36-5.25-4.36-5.25,0-14.91,8.58-15.94,9.81-1.43,1.77-2.66,2.38-3.75,2.38-1.5,0-5.65-1.5-5.65-11.17,0-3,0-3.2,1.23-8.85.34-1.7.68-3.68.68-5.72v-1.16c0-4.43,2.05-6.67,6.74-9.26,1.63-.89,3.61-1.71,3.61-2.52,0-.54-.75-1.09-2.59-1.7-1.77-.54-2.52-1.7-2.52-2.79,0-1.57,1.5-3.07,3.68-3.07,2.45,0,10.96,4.02,10.96,8.72,0,3.2-2.52,3.68-5.92,4.22-1.09.2-2.32.88-3.27,1.36-4.29,1.97-5.04,3.75-5.04,5.85,0,.34.07.75.07,1.16v.75c0,.82-.07,1.7-.2,2.72-1.16,7.63-1.16,8.03-1.16,8.99,0,.2,0,2.93.82,2.93l.61-.2c1.36-.82,3.95-2.59,6.95-4.29,4.15-2.32,7.56-3.68,10.96-3.68,5.93,0,11.78,3.81,11.78,9.95,0,4.36-2.99,9.6-10.21,14.3-6.88,4.5-17.57,5.38-17.84,5.38"/><path class="cls-13" d="M980.25,102.79c0,4.83,2.32,7.7,5.59,7.7.41,0,7.42-.75,7.42-6.88,0-3.47-2.39-8.1-8.99-13.42-1.29-1.09-1.84-2.18-1.84-3.06,0-1.63,1.5-2.79,3.27-2.79.88,0,1.91.34,2.86,1.09,8.1,6.74,11.44,13.14,11.44,18.46,0,8.03-7.97,13.08-14.44,13.08s-11.37-4.56-11.37-13.89v-.14c0-1.7,0-3.47.06-5.18-5.38-1.5-10.08-2.93-10.08-7.9,0-1.98.82-4.16,2.45-6.47.48-.68.68-1.29.68-1.91,0-1.63-2.45-3.68-6.47-5.18-1.63-.61-2.39-1.7-2.39-2.72,0-1.43,1.3-2.79,3.27-2.79,2.18,0,11.92,4.22,11.92,10.01,0,1.91-1.03,3.54-2.52,5.38-.95,1.16-1.29,1.98-1.29,2.65,0,1.03.89,1.5,1.91,1.77.88.2,1.84.41,2.79.68.68-14.44.68-16.95.68-18.73,0-2.8-.07-4.7-.07-7.22,0-2.24,1.57-3.27,3.2-3.27,3.54,0,3.61,3.2,3.61,4.9,0,2.45-.34,4.77-.47,7.9-.27,6.2-.75,12.19-1.02,18.18,3.95,1.5,5.72,2.72,5.72,4.76,0,1.84-1.43,3.54-3.2,3.54-.82,0-1.7-.34-2.72-1.16v2.59Z"/><path class="cls-13" d="M13.08,148.58l5.43,26.47h-6.46l-.75-4.79h-4.04l-.79,4.79H0l5.47-26.47h7.61ZM9.23,155.32l-1.47,10.54h2.97l-1.43-10.54h-.08Z"/><path class="cls-13" d="M35.99,162.97v12.09h-5.71v-11.22c0-1.39-.48-2.06-1.39-2.06-.75,0-1.47.55-1.94,2.06v11.22h-5.71v-17.83h5.71v2.38h.08c1.11-1.78,2.42-2.7,4.2-2.7,2.81,0,4.76,2.14,4.76,6.06"/><path class="cls-13" d="M55.13,162.97v12.09h-5.71v-11.22c0-1.39-.48-2.06-1.39-2.06-.75,0-1.47.55-1.94,2.06v11.22h-5.71v-17.83h5.71v2.38h.08c1.11-1.78,2.42-2.7,4.2-2.7,2.81,0,4.76,2.14,4.76,6.06"/><path class="cls-13" d="M65.52,150.96c0,1.66-1.35,3.13-3.09,3.13s-3.17-1.43-3.17-3.13,1.47-3.13,3.17-3.13,3.09,1.39,3.09,3.13M65.24,175.06h-5.71v-17.83h5.71v17.83Z"/><polygon class="cls-13" points="74.28 157.22 76.14 166.06 76.22 166.06 78.2 157.22 84.19 157.22 78.72 175.06 73.41 175.06 67.94 157.22 74.28 157.22"/><path class="cls-13" d="M100.48,166.54v.83h-8.44c.2,2.62,1.23,4.12,3.41,4.12,1.9,0,3.21-.44,4.64-1.51v3.72c-1.94,1.19-3.85,1.75-6.02,1.75-6.02,0-7.93-4.6-7.93-9.08,0-5.55,3.01-9.51,7.45-9.51s6.9,3.8,6.9,9.67M95.01,164.6c0-2.85-.44-4-1.51-4-.99,0-1.47,1.23-1.47,3.89v.12h2.97Z"/><path class="cls-13" d="M115.22,163.09c-.67-.55-1.23-.79-1.78-.79-2.54,0-3.29,3.37-3.53,7.69v5.07h-5.71v-17.83h5.39v5.15h.08c1.03-3.76,2.14-5.35,4-5.35.83,0,1.62.32,2.49.91l-.95,5.15Z"/><path class="cls-13" d="M129.14,158.33v4.16c-1.35-.99-2.82-1.63-4.28-1.63-.91,0-1.23.44-1.23.95,0,2.02,6.22,2.82,6.22,8.09,0,3.29-2.46,5.55-6.02,5.55-1.66,0-3.41-.36-5.39-1.51v-4.44c1.66,1.31,2.93,1.86,4.44,1.86.63,0,1.39-.31,1.39-1.03,0-2.18-6.02-2.81-6.02-8.28,0-3.09,2.5-5.19,5.86-5.19,1.66,0,3.37.4,5.03,1.47"/><path class="cls-13" d="M146.65,162.3v7.13c0,.95.2,1.23.79,1.23.24,0,.71-.16,1.27-.43v3.88c-1.27.91-2.58,1.31-4.08,1.31-1.9,0-2.97-.71-3.25-2.14-1.66,1.75-2.69,2.18-4.44,2.18-2.54,0-4.32-2.02-4.32-4.52,0-1.75.71-3.49,3.96-5.31,1.39-.75,2.46-1.07,4.36-1.9v-.87c0-1.23-.64-1.78-1.98-1.78s-3.53.72-5.31,2.5v-4.6c1.86-1.47,4.76-2.1,6.97-2.1,3.92,0,6.02,1.7,6.02,5.43M139.36,171.57c.6,0,1.27-.48,1.59-1.11v-3.96c-1.9.99-2.73,2.1-2.73,3.57,0,.91.36,1.51,1.15,1.51"/><path class="cls-13" d="M162.79,163.09c-.67-.55-1.23-.79-1.78-.79-2.53,0-3.29,3.37-3.53,7.69v5.07h-5.71v-17.83h5.39v5.15h.08c1.03-3.76,2.14-5.35,4-5.35.83,0,1.62.32,2.49.91l-.95,5.15Z"/><polygon class="cls-13" points="170.99 157.22 173.13 165.15 173.21 165.15 175.47 157.22 181.26 157.22 171.55 183.89 166.08 183.89 170.32 172.56 164.93 157.22 170.99 157.22"/><path class="cls-10" d="M36.59,124.24c-3.87,0-8.59-1.76-14.15-5.3-5.56-3.53-10.03-5.3-13.41-5.3-2.28,0-3.92.74-4.93,2.21-1.01,1.48-1.52,3.01-1.52,4.61,0,2.58,1.52,4.99,4.56,7.23,3.04,2.24,8.34,3.37,15.9,3.37,6.18,0,11.84-.61,16.99-1.79l-2.92-5.05-.52.02Z"/><path class="cls-12" d="M39.81,1.94c-8.79,0-16.53,2.8-23.22,8.39-6.7,5.59-11.28,13.06-13.73,22.39l2.86.65c3.26-5.65,6.3-9.83,9.12-12.53,5.16-4.98,11.12-7.47,17.88-7.47.33,0,.65.03.98.04l6.61-11.45-.49-.02Z"/><path class="cls-2" d="M146.68,19.63c1.29,0,2.49-.07,3.6-.23,1.11-.15,1.78-.51,2.03-1.06l7.1-17.05-1.48-1.29c-1.72,1.84-3.12,3.1-4.19,3.78-1.07.68-2.59,1.02-4.56,1.02h-25.86l8.57,14.84h14.79Z"/><path class="cls-6" d="M76.03,86.82c0-9.89-3.35-18.06-10.05-24.52-3.56-3.38-8.29-6.33-14.19-8.85,5.04-3.5,8.76-6.66,11.15-9.49,4.24-4.98,6.36-10.44,6.36-16.41,0-6.76-2.57-12.72-7.7-17.88-5.04-5.07-12.15-7.63-21.3-7.72l-6.61,11.45c5.32.19,10.08,1.91,14.28,5.21,4.45,3.5,6.68,8.6,6.68,15.3,0,7.56-2.83,13.64-8.48,18.25-5.65,4.61-13.39,8.69-23.22,12.26l.18,2.39c.98-.12,1.84-.2,2.58-.23.74-.03,1.51-.05,2.31-.05,13.58,0,23.22,4.22,28.94,12.65,3.38,4.99,5.07,10.77,5.07,17.35s-2.09,13.16-6.27,18.97c-4.09,5.69-10.32,8.58-18.65,8.7l2.92,5.05c8.97-2.06,16.39-5.91,22.23-11.57,9.19-8.91,13.78-19.2,13.78-30.87"/><g class="cls-11"><rect class="cls-1" x="123.18" y="65.43" width="21.29" height="55.48"/></g><g class="cls-8"><rect class="cls-9" x="147.95" y="72.44" width="6.82" height="11.81"/></g><path class="cls-3" d="M154.61,66.77c-.8-1.91-1.75-3.76-2.81-5.54-1.05-1.75-2.23-3.44-3.54-5.06-1.14-1.41-2.37-2.79-3.7-4.1-5.17-5.04-11.59-8.85-19.28-11.43-4.67-1.53-12.06-3.16-22.14-4.88l7.85-16.13h20.92l-8.57-14.84h-13.66l-20.1,44.06c-.13.31-.23.63-.32.97-.09.34-.2.75-.32,1.24.49.55.91.88,1.24.97.34.09,1.19.14,2.54.14,8.12,0,16.89,1.93,26.3,5.81,5.07,2.09,9.37,4.57,12.93,7.46,7.86,6.38,12.01,14.7,12.48,24.95l3.54-6.13,6.82-11.81,1.16-2.01c-.39-1.23-.82-2.46-1.32-3.66"/><path class="cls-4" d="M155.93,70.43l-1.16,2.01-6.82,11.81-3.54,6.13c.03.65.07,1.3.07,1.97,0,9.1-2.65,16.76-7.94,22.99-.95,1.12-1.93,2.12-2.94,3.04-2.58,2.35-5.34,4.04-8.29,5.08-2.33.82-4.76,1.24-7.33,1.24-3.08,0-7.46-1.98-13.15-5.95-5.69-3.96-10.29-5.94-13.8-5.94-2.77,0-4.82.69-6.14,2.07-1.32,1.38-1.99,3-1.99,4.84,0,4.91,3.08,8.33,9.23,10.23,3.69,1.16,8.55,1.75,14.58,1.75,5.28,0,10.22-.61,14.85-1.76,6.55-1.63,12.46-4.41,17.71-8.35,1.45-1.09,2.86-2.26,4.21-3.54,1.11-1.04,2.15-2.12,3.14-3.22,7.59-8.5,11.4-18.76,11.4-30.78,0-4.74-.71-9.28-2.1-13.62"/><path class="cls-4" d="M144.41,90.38l3.54-6.13-3.54,6.13Z"/><path class="cls-13" d="M159.77,104.36h.88v5.6h3.58v3.34h-3.58v12.42c0,1.86.19,2.94,1.52,2.94.59,0,1.08-.15,2.06-.59v3.39c-1.52.64-2.35.83-3.39.83-2.6,0-4.02-1.42-4.02-4.86v-14.13h-2.75v-.89l5.69-8.05Z"/><path class="cls-13" d="M181.61,116.09v15.61h-3.83v-15.5c0-1.87-.44-3.19-2.06-3.19-1.13,0-2.11.83-2.99,2.6v16.1h-3.83v-32.78h3.83v13.4h.1c1.18-1.91,2.31-2.7,4.02-2.7,2.75,0,4.76,2.21,4.76,6.48"/><path class="cls-5" d="M153.67,86.03c1.65-.96.63-3.65.63-3.65-.84-.41-.58-.9-.58-.9,1.08-1.24.31-1.72.31-1.72,0,0-1.26-.34-.63-1.33.63-.99-.36-2.1-.36-2.1-.59-.97-1.24-.81-.99-2.19.2-1.13-.11-1.48-.22-1.58l-.96-1.08c-3.22-2.08-2.2-5.81-2.32-7.55-.12-1.75,1.72-5.45-.3-4.97-2.01.48-2.38-.03-2.38-.03,0,0-1.56-1.51-2.8-1.21-1.23.3-1.47,4.42-1.47,4.42.36,1.29,4-.72,4-.72,1.2-.24,1.99-1.08,1.17,2.23-.81,3.31-1.99,1.84-3.07,1.42-1.08-.42-1.35.9-1.35.9-.66,2.02-2.77.42-2.47-1.87.3-2.29-.81-2.62-.81-2.62-1.23.42-.66-.18-1.6-.72-.93-.54-1.23.24-1.23.24l.17,5.31c-.24,1.55-1.46,1.63-1.99,1.37-.53-.26-.69-.07-.69-.07-1.96.72-.78,2.72-.78,2.72.38.78.4,2.23.42,2.22l.05.13c.15.49,1.38,4.72-2.21,5.21,0,0-.77.14.47,1.15,0,0,2.29,1.01,1.84,2.75-.45,1.75.45,3.67.45,3.67,0,0,.18.66-.69,1.63,0,0-1.36,2.05-1.41,2.47,0,0-1.01,1.46-.59,2.53,0,0,.54,1.68-1.22,2.89,0,0-1.31,1.31-1.4,2.27,0,0,1.56.07,1.89.59.33.51.51,1.51,1.57,1.51,0,0,.57-.09.65.48,0,0,.35,1.02-1.6,1.85,0,0-1.08.77-1.02,2.47,0,0-.12,1.54,1.02,2.06h.02c-.46.27-1.71,1.11-2.04,2.68,0,0,.19,2.87-2.86,2.39l-.33.28v5.73s.52,1.99,3.16,0c2.64-1.99,4.38-2.42,4.94-2.39s1.02.88,1.02.88c0,0,2.46,3.43,3.77,3.11,0,0,.39-.04.77-.48l.71.02c.31.42.75.79,1.02.08,0,0-.05-1.13,1.08-1.36,1.13-.22,1.45-1.11,1.45-2.01v-9.12s-.16-.63-.46-.75c-.26-.93.02-3.19.02-3.19.08-.72.26-1.45.63-2.07.2-.33.45-.68.82-.84.44-.2,1-.16,1.47-.13.68.05,1.35.28,1.89.7.32.25.64.57.81.95.84-1.97.11-4.37.11-4.37-.63-.66-.2-1.15-.2-1.15.8-.34.72-.84.72-.84-.14-.75.2-1.16.2-1.16.88-.42.74-1.22.72-1.31l.72-.51c.96-.48,1.41-1.47,1.41-1.47,0,0-.51-.48.46-1.33.97-.84.48-1.23.48-1.23-.39-1.03,0-1.27,0-1.27"/></g></svg>