<?xml version="1.0" encoding="UTF-8"?><svg xmlns="http://www.w3.org/2000/svg" viewBox="0 0 388.39 37.87"><defs><style>.cls-1{fill:#f37523;}.cls-2{fill:#4aa0e4;}.cls-3{fill:#5cb278;}.cls-4{fill:#a577c3;}.cls-5{isolation:isolate;}.cls-6{fill:#ebc60c;}.cls-7{mix-blend-mode:multiply;opacity:.2;}.cls-8{fill:#99c306;}</style></defs><g class="cls-5"><g id="_レイヤー_2"><g id="_レイヤー_1-2"><g class="cls-7"><path class="cls-3" d="M8.24,11.32v-1.52c-1.08,1-2.24,1.96-3.56,2.92h16v12.44H7.76c-.08.52-.16,1.08-.28,1.6h13.8v10.76h-4.12v-1.12h-6.76v1.24h-4v-6.6c-.72,2.12-1.72,4.16-3.08,5.84-.6-.8-2.28-2.36-3.12-2.84,3.52-4.6,3.96-11,3.96-15.52v-5.44c-.44.28-.88.6-1.32.88-.56-1.04-1.92-2.64-2.84-3.36C4.76,7.84,8.16,4.12,10.04.84h4.24c2.8,2.16,6.44,5.12,8.36,7.2l-3.04,3.52c-.56-.64-1.28-1.44-2.12-2.32v2.08h-9.24ZM16.4,21.84v-1.52h-8.24c0,.48-.04,1-.08,1.52h8.32ZM8.2,16.04v1.44h8.2v-1.44h-8.2ZM16.36,8.12c-1.16-1.12-2.4-2.28-3.56-3.2-.84,1.04-1.76,2.12-2.8,3.2h6.36ZM10.4,30.15v2.84h6.76v-2.84h-6.76ZM27.52,27.72h-4.48V5.2h4.48v22.52ZM36.39,1.16v30.87c0,2.64-.52,3.96-2.12,4.68-1.52.8-4,.96-7.44.96-.2-1.32-.88-3.48-1.56-4.84,2.4.08,4.72.08,5.48.08.72,0,1-.24,1-.92V1.16h4.64Z"/><path class="cls-4" d="M85.27,31.39v4.76h-36.19v-4.76h19.92c1.8-4.84,3.72-12.28,4.56-18.04l5.48,1c-1.4,5.88-3.28,12.36-5,17.04h11.24ZM84.11,12.04h-33.75v-4.68h14.2V.4h4.96v6.96h14.6v4.68ZM58.92,30.15c-.28-4.16-1.68-10.56-3.44-15.44l4.56-1.2c1.88,4.92,3.36,11.12,3.76,15.32l-4.88,1.32Z"/><path class="cls-2" d="M96.16,30.67l2.76-3.72c1.76,1.72,3.92,3.04,6.6,3.04,3,0,5.04-1.48,5.04-4.12,0-2.92-1.72-4.72-8.16-4.72v-4.24c5.44,0,7.2-1.88,7.2-4.52,0-2.32-1.44-3.68-3.96-3.72-2.12.04-3.84,1.04-5.6,2.64l-3-3.6c2.56-2.24,5.4-3.64,8.88-3.64,5.72,0,9.6,2.8,9.6,7.88,0,3.2-1.8,5.52-4.96,6.76v.2c3.36.92,5.92,3.4,5.92,7.28,0,5.44-4.76,8.6-10.4,8.6-4.68,0-7.84-1.76-9.92-4.12Z"/><path class="cls-1" d="M127.72,30.75l2.72-3.76c1.68,1.64,3.76,3,6.52,3,3.08,0,5.24-1.96,5.24-5.44s-2-5.36-5-5.36c-1.76,0-2.72.44-4.44,1.56l-2.68-1.76.8-14.36h15.84v4.92h-10.76l-.56,6.28c1.16-.56,2.2-.84,3.56-.84,4.96,0,9.12,2.96,9.12,9.4s-4.88,10.4-10.36,10.4c-4.68,0-7.8-1.84-10-4.04Z"/><path class="cls-8" d="M194.23,32.43c0,2.48-.52,3.64-2.08,4.44-1.52.72-3.84.8-7.28.8-.16-1.28-.8-3.24-1.44-4.44,2.04.12,4.4.08,5.08.08s.96-.24.96-.92V6.68h-21.36v9.44c0,6.56-.64,15.96-5,21.76-.8-.88-2.8-2.48-3.84-3,3.8-5.24,4.12-12.92,4.12-18.76V2.28h30.83v30.15ZM176.2,16.08v-2.56h-5.96v-3.6h5.96v-2.64h4.52v2.64h6.28v3.6h-6.28v2.56h7.08v3.72h-18.36v-3.72h6.76ZM175.2,32.91v2.16h-4.32v-13h15.4v10.84h-11.08ZM175.2,25.68v3.68h6.68v-3.68h-6.68Z"/><path class="cls-4" d="M244.55,29.2h-13.68v8.56h-4.92v-8.56h-18v-4.56h6.32v-10.48h11.68v-4.8h-8.56c-1.64,2.84-3.56,5.4-5.44,7.28-.92-.8-2.96-2.4-4.12-3.08,3.6-3.04,6.68-8.16,8.4-13.32l4.84,1.24c-.36,1.12-.8,2.2-1.32,3.28h22.6v4.6h-11.48v4.8h10.56v4.4h-10.56v6.08h13.68v4.56ZM225.96,24.64v-6.08h-6.92v6.08h6.92Z"/><path class="cls-6" d="M273.04,31.19c1.52-.2,2.64-.4,3.68-.64,5.08-1.2,9-4.84,9-10.6s-2.96-9.56-8.28-10.48c-.56,3.36-1.24,7.04-2.36,10.76-2.36,8-5.8,12.88-10.12,12.88s-8.08-4.84-8.08-11.52c0-9.12,7.96-16.96,18.24-16.96s16,6.84,16,15.48-5.12,14.24-15.12,15.76l-2.96-4.68ZM269.96,19.2c.92-2.92,1.64-6.32,2.12-9.6-6.56,1.36-10.04,7.12-10.04,11.48,0,4,1.6,5.96,3.08,5.96,1.64,0,3.24-2.48,4.84-7.84Z"/><path class="cls-1" d="M310.64,10.16c0,4.92-.76,11.88-4.56,16.4-.68-.84-2.52-2.4-3.44-2.88,3.28-3.96,3.64-9.56,3.64-13.6v-6h17c-.12-1.24-.2-2.48-.24-3.72h4.48c.04,1.24.12,2.52.24,3.72h4.24c-1.04-.56-2.2-1.08-3.24-1.48l2.36-2.6c1.88.56,4.32,1.64,5.56,2.64l-1.2,1.44h3.68v3.76h-10.88c.4,2.28,1,4.4,1.64,6.24,1-1.6,1.84-3.36,2.44-5.24l4.4,1.04c-1.12,3.24-2.72,6.16-4.64,8.72,1.08,1.64,2.2,2.56,3.32,2.56.88-.04,1.2-1.36,1.4-4.8,1,.88,2.48,1.72,3.6,2.08-.68,5.68-2.04,7-5.24,7-2.28,0-4.32-1.28-6.04-3.44-1.2,1.16-2.44,2.2-3.76,3.08-.48-.68-1.48-1.72-2.36-2.52v.72h-2.56c2.12,1.16,4.48,2.96,5.68,4.36l-3.28,2.8c-1.16-1.52-3.76-3.56-5.96-4.88l2.72-2.28h-7.92v-8.64h11.32v6.56c1.36-.88,2.6-1.92,3.76-3.08-1.32-2.88-2.36-6.4-3-10.28h-13.16v2.32ZM303,34.23c2.36-1.84,4.08-4.68,4.88-7.64l4.24,1.52c-.92,3.32-2.48,6.64-5.2,8.76l-3.92-2.64ZM323.32,12.72h-11.76v-3.04h11.76v3.04ZM325.55,32.95c1.56,0,1.8-.4,2-3.56.88.72,2.92,1.4,4.16,1.68-.52,4.92-1.84,6.12-5.72,6.12h-6.4c-5.16,0-6.36-1.28-6.36-5.4v-5.16h4.72v5.12c0,1.08.32,1.2,2.16,1.2h5.44ZM319.16,17.68h-3.64v2.52h3.64v-2.52ZM333.99,26c2.6,2.36,5.36,5.72,6.4,8.32l-4.32,2.16c-.88-2.44-3.48-5.96-6.08-8.48l4-2Z"/><path class="cls-3" d="M363.2,10.72h-12.2v-3.76h12.2v3.76ZM378.39,27c-.04-1.92-.4-4.52-.96-7-.64,1.16-1.32,2.32-2.08,3.44v9.8c0,1.88-.4,3.04-1.6,3.72-1.2.64-2.84.8-5.36.8-.16-1.12-.76-2.88-1.32-3.92,1.6.08,3.24.08,3.76.08.52-.04.68-.24.68-.76v-4.84c-2.2,2.4-4.6,4.52-7.08,6.12-.4-.68-1.32-1.88-2.12-2.8v3.92h-6.32v1.6h-3.6v-13.64h9.92v7.04c2.36-1.48,4.68-3.36,6.64-5.56-1.88.44-3.68.84-5.32,1.2l-1-3.72c.56-.08,1.2-.2,1.88-.32V4.16h3.12c.32-1.28.64-2.76.8-3.84l4.6.68c-.4,1.08-.84,2.16-1.24,3.16h3.56v14.36l1.88.64c-.2-.8-.4-1.56-.64-2.28l3.32-.76c1.12,3.2,1.88,7.32,2.04,10.04l-3.56.84ZM362.24,16.16h-9.72v-3.64h9.72v3.64ZM352.52,18h9.72v3.56h-9.72v-3.56ZM362.24,5.2h-9.52V1.6h9.52v3.6ZM358.64,27.24h-2.64v4.6h2.64v-4.6ZM368.2,7.6v2.08h3.32v-2.08h-3.32ZM368.2,13.12v2.12h3.32v-2.12h-3.32ZM368.2,21.48l3.32-.64v-2.16h-3.32v2.8ZM388.39,13.76h-1.88v19c0,2.28-.4,3.48-1.68,4.2-1.28.76-3.2.88-5.96.88-.12-1.16-.72-3.08-1.28-4.36,1.72.08,3.36.04,3.92.04.52-.04.72-.2.72-.76V13.76h-6.24v-4.4h6.24V.6h4.28v8.76h1.88v4.4Z"/></g></g></g></g></svg>