<?xml version="1.0" encoding="utf-8"?>
<!-- Generator: Adobe Illustrator 21.1.0, SVG Export Plug-In . SVG Version: 6.00 Build 0)  -->
<svg version="1.1" id="レイヤー_1" xmlns="http://www.w3.org/2000/svg" xmlns:xlink="http://www.w3.org/1999/xlink" x="0px"
	 y="0px" viewBox="0 0 502.5 136.9" style="enable-background:new 0 0 502.5 136.9;" xml:space="preserve">
<style type="text/css">
	.st0{fill:#FFFFFF;}
</style>
<path class="st0" d="M3.1,29.2c0.9-0.5,1.8-0.6,2.7-1.1c0.5-0.2,1-0.5,1.3-0.9c0.2-0.2,0.4-0.7,0.6-0.9c-0.3,0.2-0.6,0.4-0.9,0.5
	c0.1,0,0.2,0,0.3,0c-0.4,0-0.7,0-1.1,0c0.9,0.1,1.9,0.4,2.7-0.1c0.6-0.3,1-1.3,1.3-1.4c-0.3,0.2-0.6,0.4-0.9,0.5
	c0.5-0.2,0.9-0.4,1.4-0.4c-0.4,0-0.7,0-1.1,0c1,0.2,2,0.4,2.9-0.2c0.3-0.2,0.6-0.5,0.8-0.9c0.1-0.2,0.6-0.9,0.2-0.6
	c-0.3,0.2-0.6,0.4-0.9,0.5c0.4-0.1,0.8-0.4,1.1-0.5c0.3-0.1,0.7,0,1,0c0.4-0.1,0.7-0.2,1.1-0.4c0.2-0.1,0.4-0.3,0.5-0.4
	c0.3-0.3,0.1-0.2-0.6,0.1c0,0,0.9,0.1,1.1,0.1c0.5,0,0.9-0.2,1.4-0.4c0.7-0.3,1.2-0.8,1.8-1.1c-0.3,0.1-0.7,0.2-1,0.3
	c0.5,0,1.2,0.3,1.9,0.1c0.7-0.2,1-0.8,1.5-1c-0.3,0.1-0.7,0.2-1,0.3c0.4,0,0.9,0.1,1.3,0.1c0.4,0,0.9-0.1,1.4-0.2
	c0.9-0.2,1.3-0.7,2-1.1c-0.3,0.1-0.7,0.2-1,0.3c0.5,0,1,0.2,1.6,0.2c0.6-0.1,1.3-0.2,1.9-0.4c0.5-0.1,1-0.3,1.5-0.5
	c0.3-0.2,0.8-0.8,0.9-0.8c-0.3,0.1-0.7,0.2-1,0.3c0.9,0,1.8,0.5,2.6-0.1c0.5-0.4-0.3-0.2,0.7-0.2c0.4,0,1.2,0,1.6-0.2
	c0.3-0.1,0.3-0.1-0.2-0.1c0.3,0.1,0.5,0.2,0.8,0.3c0.4,0.1,0.9,0.1,1.3,0c0.4-0.1,0.8-0.3,1.1-0.6c0.2-0.2,0.4-0.4,0.5-0.6
	c0.2-0.3,0.2-0.3,0,0c-0.3,0.1-0.7,0.2-1,0.3c0.3,0,0.5-0.1,0.8-0.1c-0.2-0.2-0.1-0.2,0.2,0c0.6,0.2,0.9,0.4,1.6,0.5
	c0.6,0,1.2,0.1,1.8-0.1c0.4-0.1,0.8-0.4,1.2-0.5c-0.4,0-0.7,0-1.1,0c0.3,0,0.8,0.4,1.1,0.5c0.7,0.2,1.4,0.1,2-0.3
	c0.2-0.1,0.3-0.3,0.5-0.3c-0.3,0.1,0.1,0.1,0.3,0.1c0.8,0,1.5-0.2,2.2-0.4c-0.4,0-0.7,0-1.1,0c0.8,0.2,1.6,0.6,2.5,0.8
	c1.1,0.2,2.2-0.3,2.5-1.4c0.3-1-0.3-2.3-1.4-2.5c-1.3-0.2-2.4-1-3.8-0.7c-0.7,0.2-1.3,0.1-2,0.2c-0.6,0.1-1,0.5-1.5,0.7
	c0.4,0,0.7,0,1.1,0c-0.8-0.1-1.4-0.7-2.4-0.5c-0.4,0.1-0.8,0.4-1.1,0.5c-0.4-0.1-0.5-0.1-0.3,0.1c-0.1-0.1-0.3-0.2-0.4-0.2
	c-1-0.4-1.9-0.4-2.9-0.2c-0.5,0.1-1,0.3-1.4,0.7c-0.2,0.2-0.4,0.4-0.5,0.6c-0.2,0.3-0.2,0.3,0,0c0.3-0.1,0.7-0.2,1-0.3
	c0.8,0.1-1-0.4-1-0.4c-0.4,0-0.8,0-1.2,0.1c-0.9,0.2-2-0.1-2.8,0.5c-0.6,0.4,0.5,0.3-0.3,0.1c-0.4-0.1-1-0.1-1.4,0
	c-0.5,0.1-0.9,0.4-1.3,0.8c-0.1,0.1-0.6,0.4-0.2,0.2c-0.8,0.4-1.4,0.4-2.2,0.3c-1-0.1-1.8,0.2-2.5,0.9c-0.3,0.3-0.3,0.3,0,0
	c-0.5,0-0.7,0-0.5,0.1c-0.3,0-0.8-0.1-1.2-0.1c-1,0.1-1.3,0.7-2.1,1.1c0.3-0.1,0.7-0.2,1-0.3c-0.9,0-1.5-0.4-2.4,0.1
	c-0.8,0.4-1.3,0.9-2.2,1.3c0.3-0.1,0.7-0.2,1-0.3c-0.6,0.1-1.4-0.2-2.1,0.1c-0.5,0.2-0.8,0.7-1.2,0.8c0.7-0.3-0.4-0.1-0.6-0.1
	c-0.8,0.2-1.8,0.5-2.4,1.1c-0.2,0.2-0.4,0.4-0.6,0.7c-0.1,0.2-0.6,0.9-0.2,0.6c0.3-0.2,0.6-0.4,0.9-0.5c-0.1,0-0.2,0-0.3,0
	c0.4,0,0.7,0,1.1,0c-1.2-0.2-2-0.2-3.2,0.2c-0.6,0.2-1,0.5-1.4,0.9c-0.1,0.2-0.3,0.3-0.4,0.5c-0.1,0.1-0.3,0.4-0.2,0.3
	c0.3-0.2,0.6-0.4,0.9-0.5c-0.1,0-0.2,0-0.3,0c0.4,0,0.7,0,1.1,0c-0.7-0.1-1.4-0.3-2.1-0.1C5,23,4.7,23.6,4.2,24.2
	c-0.3,0.4,0.1,0-0.3,0.2c-0.2,0.1-0.4,0.2-0.7,0.2c-0.8,0.2-1.5,0.5-2.2,0.9C-1.3,26.8,0.8,30.4,3.1,29.2L3.1,29.2z"/>
<path class="st0" d="M34.2,4.9c0.1,0.5,0.4,0.9,0.5,1.3c-0.2-0.6,0,0.7,0,0.7c0-0.7-0.3,0.5-0.4,0.7c-0.1,0.5,0,1.1-0.1,1.6
	c-0.1,0.7-0.5,1.4-0.7,2.1c-0.1,0.5-0.2,0.9-0.1,1.4c0.1,0.4,0.4,0.8,0.5,1.2c0,0.1,0.1,0.3,0.1,0.6c0,0.3-0.4,0.8-0.5,1.1
	c-0.1,0.3-0.1,0.7-0.1,1c0,0.7,0.1,0.7,0.2,0.2c-0.3,0.4-0.5,0.7-0.7,1.2c-0.3,0.9-0.2,2-0.2,3c0,0.4,0,0.9,0.1,1.3
	c0.1,0.4,0.4,0.8,0.5,1.1c0-0.4,0-0.7,0-1.1c-0.1,0.2-0.2,0.5-0.2,0.7c0,0-0.3,0.7-0.1,0.5c-0.1,0.2-0.6,0.8-0.7,1.3
	c-0.2,0.7,0,1.2,0.2,1.9c0.1,0.4,0.3,1.2,0.3,1.3c-0.1,1-1,1.7-1,2.8c0,0.5,0.1,1.2,0.2,1.7c0.1,0.5,0.4,1,0.5,1.4
	c0-0.4,0-0.7,0-1.1c0.1-0.4-0.2,0.2-0.3,0.3c-0.2,0.2-0.3,0.5-0.4,0.7c-0.2,0.6-0.3,1.2-0.4,1.8c0,0.6,0.1,1.2,0.4,1.7
	c0,0.1,0.3,0.5,0.2,0.3c-0.1-0.2,0.1,0.8,0.1,0.8c0-0.3,0.1-0.4-0.1-0.1c-0.2,0.2-0.3,0.5-0.4,0.8c-0.2,0.5-0.3,1.1-0.4,1.6
	c-0.2,0.5-0.4,0.9-0.5,1.4c-0.1,0.3-0.1,0.6-0.1,0.9c0,0.2,0,0.9,0.1,0.6c0.2-0.3,0.4-0.6,0.5-0.9c0.5-0.5-0.7,0.2-0.8,0.3
	c-0.4,0.2-0.7,0.5-0.9,0.9c-0.2,0.3-0.3,0.7-0.5,1c0.3-0.4-0.6,0.3-0.4,0.3c0.4,0,0.7,0,1.1,0c-0.6-0.1-1.2-0.5-1.9-0.4
	c-0.8,0-1.5,0.5-2.2,0.8c0.3-0.1,0.7-0.2,1-0.3c-0.1,0-0.2,0-0.3,0c0.3,0.1,0.7,0.2,1,0.3c0.2,0.1,0.3,0.5,0.2,0
	c-0.1-0.1-0.2-0.3-0.2-0.4c-0.3-0.5-0.7-0.7-1.2-1.1c-0.4-0.3-0.7-0.6-1.1-0.8c-0.2-0.1-0.4-0.2-0.6-0.2c-0.4-0.1-0.5-0.3-0.1,0.1
	c0.2,0.3,0.4,0.6,0.5,0.9c-0.2-0.5-0.2-1.4-0.3-2c-0.1-0.8,0.1-1.5,0-2.3c-0.1-0.7-0.4-1.4-0.5-2.1c-0.2-0.9,0-1.6,0-2.4
	c0-0.4,0-0.9-0.1-1.3c0-0.3,0-0.6,0-0.9c0,0.1-0.1,0.2-0.1,0.4c0.2-0.4,0.6-0.7,0.7-1.1c0.2-0.5,0.1-1,0.2-1.5
	c-0.1,0.1-0.1,0.2-0.2,0.3c0.2-0.1,0.3-0.3,0.5-0.5c0.4-0.5,0.3-0.3,0.6-0.6c0.3-0.3,0.5-0.5,0.7-0.9c0.1-0.2,0.3-0.9,0.4-1
	c-0.4,0.3-0.8,0.6-1.2,0.9c0.4-0.2,1.3,0,1.9-0.4c0.6-0.4,1-1,1.4-1.6c-0.2,0.2-0.5,0.5-0.7,0.7c0.1-0.1,1-0.1,1.3-0.2
	c0.1,0,0.8-0.2,0.8-0.4c-0.1,0.4-0.4-0.6-0.3-0.1c0.2,0.5,0.8,0.9,1.3,1.1c0.2,0.1,0.4,0.2,0.6,0.2c0.1,0,0.3,0,0.4,0.1
	c0.4,0.1,0.4,0,0,0c-0.2-0.2-0.5-0.5-0.7-0.7c-0.3-0.6,0,0.5,0,0.6c0.1,0.4,0.3,0.8,0.6,1.1c0.2,0.2,0.5,0.4,0.8,0.6
	c0.2,0.1,0.3,0.1,0.5,0.2c0.4,0.1,0.3,0.1-0.1-0.1c-0.2-0.3-0.4-0.6-0.5-0.9c0.2,0.9-0.2,1.8,0.1,2.7c0.1,0.4,0.4,0.7,0.5,1.1
	c0.1,0.3,0.2,0.6,0.4,0.8c0,0,0.5,0.7,0.3,0.3c0-0.4,0-0.7,0-1.1c0,0.1-0.4,0.6-0.5,0.9c-0.3,0.7-0.2,1.3-0.1,2
	c0.1,0.5,0.2,1.1,0.3,1.6c0.1,0.6,0.3,1.2,0.4,1.9c0-0.4,0-0.7,0-1.1c-0.2,0.7-0.8,1.4-1,2c-0.5,1.2,0,2.1,0.5,3.2
	c-0.1-0.3-0.2-0.7-0.3-1c0,0.3,0,0.9,0.1,1.2c0.2,0.3-0.1-0.2,0.1-0.3c-0.4,0.1-0.8,1.3-1,1.6c-0.4,0.6-0.5,1.3-0.5,2
	c0,0.2,0,0.4,0,0.6c0,0.1-0.3,1.2,0,0.6c-0.3,0.7-0.8,1-1,1.8c0,0.1-0.2,0.8-0.1,0.6c0.2-0.3-0.3,0.2-0.4,0.3c-1,1-0.9,2.5-1.4,3.7
	c0.2-0.3,0.4-0.6,0.5-0.9c0.5-0.5,0.2-0.2-0.2-0.1c-0.4,0.1-0.8,0.3-1.1,0.6c-0.6,0.5-0.8,1.2-1,1.9c-0.4,0.9-0.3,0.8-1,1.5
	c-0.3,0.3-0.5,0.6-0.7,1c-0.1,0.2-0.1,0.7-0.2,0.9c0.2-0.2,0.5-0.5,0.7-0.7c-0.1,0.1-1.1,0.3-1.4,0.5c-2.2,1.5-0.1,5,2.1,3.6
	c0,0,0.6-0.1,0.7-0.2c0.6-0.2,1.1-0.6,1.4-1.1c0.3-0.4,0.3-0.9,0.5-1.3c-0.2,0.4,0.5-0.4,0.6-0.5c0.1-0.1,1.4-2.7,1.3-2.8
	c-0.7,0.5-0.8,0.6-0.4,0.5c0.3-0.1,0.5-0.2,0.7-0.3c0.4-0.2,0.7-0.4,0.9-0.8c0.5-0.7,0.7-1.8,0.9-2.7c0.1-0.4,0.1-0.4,0-0.1
	c0.2-0.1,0.3-0.2,0.4-0.4c0.4-0.4,0.6-0.9,0.8-1.4c0.1-0.5,0-0.5,0.3-0.9c0.3-0.5,0.6-0.9,0.8-1.5c0.2-1,0.1-1.9,0.2-2.9
	c-0.1,0.3-0.2,0.7-0.3,1c0.5-1.1,1.4-2,1.6-3.1c0.1-0.6,0-1.2-0.1-1.8c-0.1-0.7-0.5-1.2-0.6-1.8c0,0.4,0,0.7,0,1.1
	c0.2-0.7,0.8-1.4,1-2c0.5-1.2-0.1-2.2-0.2-3.4c0-0.2-0.2-1.7-0.4-1c0.1-0.4,0.5-0.8,0.6-1.2c0.4-1.4-0.4-2.2-1.2-3.2
	c0.2,0.3,0.4,0.6,0.5,0.9c-0.1-0.3-0.7-1.8-0.6-0.9c-0.1-0.6,0.1-1.4,0.1-2c0-0.7-0.2-1.4-0.7-2c-0.2-0.2-0.4-0.4-0.7-0.5
	c-0.2-0.1-1-0.6-0.5-0.1c0.2,0.3,0.4,0.6,0.5,0.9c-0.3-0.7-0.1-1.5-0.8-2.2c-0.6-0.6-1.4-0.6-2.2-0.9c0.3,0.2,0.6,0.4,0.9,0.5
	c-0.5-0.5-0.8-1.1-1.6-1.4c-0.8-0.3-2.1-0.4-2.9-0.2c-0.1,0-0.7,0.4-0.8,0.4c-0.4,0.1-0.9,0-1.4,0.2c-0.9,0.3-1.1,1-1.7,1.5
	c0.3-0.2,0.6-0.4,0.9-0.5c-0.3,0.1-0.8,0-1.2,0c-0.4,0.1-0.8,0.3-1.1,0.6c-0.3,0.3-0.5,0.7-0.7,1.1c-0.1,0.2-0.1,0.4-0.2,0.5
	c0.2-0.2,0.1-0.3,0-0.1c-0.5,0.6-1.1,1-1.6,1.6c-0.6,0.9-0.4,1.6-0.5,2.6c0.1-0.3,0.2-0.7,0.3-1c-0.2,0.5-0.7,0.9-0.9,1.5
	c-0.2,0.7-0.1,1.6-0.1,2.4c0.1,1.5-0.2,3,0.2,4.5c0.1,0.5,0.4,1.1,0.4,1.6c0,0.6-0.1,1.3,0,2c0.2,1.2,0.2,2.9,1.1,3.8
	c0.5,0.4,1.1,0.6,1.7,0.8c0.6,0.1-0.2-0.3,0.2,0.2c0,0,1,0.9,0.5,0.3c0.9,1.2,1.6,2.3,3.3,1.8c0.2-0.1,0.8-0.2,0.9-0.4
	c0.3-0.2,0.2-0.2-0.4,0c0.1,0,0.2,0.1,0.3,0.1c0.6,0.3,1.5,0.3,2.1,0c0.7-0.3,1.3-0.8,1.8-1.4c0.5-0.5,0.7-1.1,1-1.7
	c-0.2,0.2-0.5,0.5-0.7,0.7c0.8-0.6,2-0.7,2.4-2c0.1-0.3,0.1-0.7,0.1-1c0-0.1-0.1-0.9-0.1-0.6c0.1-0.5,0.4-1,0.6-1.5
	c0.2-0.5,0.3-1,0.5-1.4c0.3-0.6,0.5-1.1,0.5-1.8c0-0.6-0.1-1.2-0.3-1.8c-0.1-0.5-0.5-0.9-0.6-1.4c0,0.4,0,0.7,0,1.1
	c0.1-0.4,0.1-0.7,0.2-1.1c0.2-0.7-0.5,0.7,0.3-0.5c0.4-0.6,0.6-1.1,0.5-1.8c0-0.6-0.4-1-0.5-1.6c0.1,0.5,0.1-0.4,0-0.5
	c0-0.3-0.1-0.2-0.1,0.2c0.1-0.1,0.1-0.2,0.2-0.2c0.4-0.4,0.4-1,0.6-1.5c0.2-0.7,0.4-1.2,0.3-2c-0.1-0.5-0.2-1.1-0.4-1.6
	c-0.2-0.7-0.6,0.5-0.1,0c0.3-0.3,0.4-0.6,0.5-0.9c0.4-1.1,0.8-2.2,0.3-3.4C37,20.8,37,20.8,37,20c0-0.3,0-0.6,0-0.9
	c-0.1,0.6,0.1,0,0.3-0.3c0.5-0.7,0.4-1.3,0.4-2.1c0-0.4,0.2-0.8,0.4-1.3c0.2-0.7,0.1-1.7-0.1-2.4c-0.1-0.5-0.5-0.9-0.5-1.4
	c0,0.4,0,0.7,0,1.1c0.1-0.7,0.4-1.3,0.7-2c0.3-0.8,0.1-1.6,0.4-2.3c0.3-0.9,0.4-1.6,0.2-2.6c-0.1-0.7-0.5-1.4-0.5-2
	c-0.2-1.1-1.6-1.7-2.5-1.4C34.5,2.7,34.1,3.8,34.2,4.9L34.2,4.9z"/>
<path class="st0" d="M56.5,43.4c0-0.7-0.1-1.5,0.1-2.1c0.1-0.7,0.4-1.2,0.3-2c0-0.4-0.1-0.4,0-0.6c0.1-0.2,0.2-0.5,0.2-0.7
	c0.2-0.7,0.3-0.9,0.6-1.5c0.3-0.5,0.5-1,0.8-1.5c0.3-0.7,0.3-1,0.7-1.5c0.1-0.2,0.3-0.3,0.5-0.6c0.4-0.3,0.2-0.3-0.4,0
	c0.3,0,0.3,0,0.2,0c0,0-0.1-0.1-0.1-0.1c0.3,0.2,0.5,0.7,0.8,1c0.1,0.1,0.2,0.2,0.4,0.3c-0.2-0.4-0.2-0.5-0.1-0.2
	c0.1,0.3,0.2,0.6,0.4,0.9c0.2,0.3,0.4,0.6,0.7,0.9c0.2,0.2,0.4,0.3,0.6,0.4c-0.1,0-0.1-0.1-0.2-0.2c-0.1-0.4,0.3,0.8,0.2,0.6
	c0.1,0.3,0.3,0.6,0.5,0.9c0.4,0.6,0.9,1.1,1.3,1.7c0.3,0.4,0.7,1.1,1.1,1.6c0.3,0.4,0.7,0.8,1.1,1.3c0.4,0.4,0.7,0.9,1.1,1.3
	c0.1,0.1,0.4,0.5,0.4,0.5c0.1,0.1,0.3,0.7,0.4,0.9c1.4,2.3,4.9,0.2,3.6-2.1c-0.3-0.5-0.5-1.1-0.9-1.6c-0.4-0.5-0.7-0.8-1.1-1.3
	c-0.6-0.8-1.4-1.5-1.9-2.3c-0.5-0.9-1.5-1.9-1.9-2.7c0.1,0.2,0-0.1-0.1-0.1c-0.1-0.2-0.2-0.4-0.3-0.6c-0.2-0.3-0.4-0.6-0.6-0.8
	c-0.1-0.1-0.8-0.5-0.7-0.6c0-0.1,0.3,0.4,0.2,0.3c0.3,0.4,0-0.1,0-0.2c-0.2-0.6-0.6-1.2-1.1-1.6c-0.4-0.4-0.7-0.9-1.2-1.3
	c-1.1-1.1-3.1-1.4-4.4-0.6c-1.1,0.6-2,1.8-2.5,2.9c-0.3,0.6-0.3,0.9-0.6,1.4c-0.3,0.5-0.6,1-0.8,1.5c-0.3,0.6-0.4,1.3-0.7,2
	c-0.2,0.7-0.4,1.3-0.4,2.1c0,0.4,0.1,0.3,0,0.5c-0.2,0.4-0.2,0.8-0.3,1.2c-0.1,0.8-0.1,1.6-0.1,2.4c0,1.1,0.9,2.1,2.1,2.1
	C55.5,45.5,56.5,44.5,56.5,43.4L56.5,43.4z"/>
<path class="st0" d="M70.4,21.8c-0.2,0.3-0.3,0.6-0.4,1c0,0.1-0.3,0.7-0.1,0.3c-0.3,0.5-0.5,1-0.7,1.6c-0.1,0.4-0.3,0.8-0.4,1.2
	c-0.1,0.4-0.1,0.7-0.1,1.1c0,0.1,0,0.2,0,0.4c0-0.2,0-0.2,0,0c-0.3,1.1-0.3,2.3-0.1,3.4c0.1,1.1,0.3,2.3,0.5,3.4
	c0.3,1,1.5,1.8,2.5,1.4c1.1-0.3,1.7-1.4,1.4-2.5c-0.1-0.4-0.1-0.8-0.2-1.2c0-0.3-0.1-0.5-0.1-0.8c0.1,0.4,0-0.2,0-0.3
	c-0.1-0.5-0.1-1-0.1-1.4c0-0.1,0-0.3,0-0.4c0-0.2,0-0.3,0-0.1c0,0.1,0,0.1,0-0.1c0-0.1,0.1-0.3,0.1-0.4c0.1-0.6,0.1-1.1,0.2-1.6
	c0,0.5,0-0.1,0.1-0.1c0.1-0.2,0.2-0.4,0.2-0.7c0.2-0.5-0.2,0.3,0.1-0.2c0.1-0.2,0.2-0.4,0.3-0.6c0.1-0.3,0.2-0.5,0.3-0.8
	c0-0.1,0.1-0.2,0.1-0.3c-0.1,0.2-0.1,0.2,0,0c0.5-1,0.3-2.3-0.7-2.8C72.3,20.6,70.9,20.8,70.4,21.8L70.4,21.8z"/>
<path class="st0" d="M76.5,22.9c0,0.4,0,0.9,0,1.3c0,0.4,0,0.9,0,1.3c0,0.9,0,1.8,0,2.7c0,1.1,0.9,2.1,2.1,2.1
	c1.1,0,2.1-0.9,2.1-2.1c0-0.9,0-1.8,0-2.7c0-0.4,0-0.9,0-1.3c0-0.4,0-0.9,0-1.3c0-1.1-1-2.1-2.1-2.1C77.4,20.9,76.5,21.8,76.5,22.9
	L76.5,22.9z"/>
<path class="st0" d="M90,32.2c0.5,0,1,0,1.5-0.1c0.4-0.1,0.8-0.3,1.2-0.3c0.3,0,0.6,0.1,0.9,0c0.5,0,0.9-0.2,1.3-0.4
	c0.1,0,0.8-0.5,0.7-0.5c0.4-0.2,0.9-0.3,1.4-0.5c0.5-0.3,1.2-0.8,1.6-0.9c0.4-0.1,0.8-0.1,1.2-0.2c0.4-0.1,0.8-0.4,1.2-0.6
	c0.8-0.4,1.7-0.8,2.5-1.3c0.7-0.3,1.5-0.6,2.2-1c0.3-0.2,0.6-0.5,0.9-0.7c-0.4,0.1-0.4,0.2,0,0.1c0.3,0,0.6-0.1,0.9-0.1
	c-0.5-1.3-1.1-2.5-1.6-3.8c-0.8,0.5-1.5,1-2.3,1.5c-0.6,0.5-1.2,1.1-1.8,1.6c0.4-0.3-0.9,0.4-0.7,0.3c-0.4,0.2-0.7,0.5-1,0.8
	c-0.6,0.5-1,1.2-1.6,1.7c-0.5,0.5-1.2,1.1-1.3,1.8c-0.1,0.6,0.1,0-0.2,0.5c-0.2,0.3-0.5,0.6-0.7,0.9c-0.5,0.7-1.1,1.4-1.1,2.3
	c0,0.5,0.1,0-0.1,0.5c-0.2,0.3-0.4,0.7-0.5,1c-0.2,0.8-0.3,1.8-0.1,2.6c0.1,0.7,0,1.4,0.1,2.1c0.3,1.7,1.2,3.3,2.1,4.8
	c0.9,1.4,1.6,2.5,3.2,3.1c0.6,0.2,1.1,0.5,1.7,0.8c0.9,0.4,1.8,0.6,2.8,0.6c2.6,0.1,2.6-4,0-4.1c-0.5,0-0.8-0.1-1.3-0.4
	c-0.5-0.3-1.2-0.9-1.8-0.9c-0.1,0-0.2,0-0.3-0.1c0.3,0.3,0.4,0.4,0.2,0.1c-0.1-0.3-0.4-0.6-0.6-0.8c-0.3-0.5-0.6-1-0.9-1.6
	c-0.3-0.5-0.6-1.1-0.8-1.6c-0.3-0.7-0.1-1.1-0.2-1.8c0-0.5-0.3-1.1-0.2-1.6c0.1-0.5,0.5-0.9,0.6-1.4c0.1-0.3,0.1-0.6,0.1-0.9
	c0-0.7-0.4,0.2,0.1-0.2c0.3-0.4,0.6-0.8,1-1.2c0.2-0.2,0.3-0.4,0.5-0.7c-0.1,0.2,0.5-1.1,0.2-0.7c0.2-0.4,0.8-0.7,1.1-1.1
	c0.3-0.4,0.8-0.9,1.1-1.1c0.6-0.4,1.1-0.5,1.7-1.1c1-0.9,2-1.6,3.1-2.4c2-1.3,0.7-4.2-1.6-3.8c-0.6,0.1-1.2,0.1-1.7,0.4
	c-0.6,0.3-1,0.7-1.6,1c-1.3,0.6-2.6,1.2-3.8,1.8c-0.2,0.1-0.6,0.4-0.7,0.4c-0.1,0-0.6,0.1-0.8,0.1c-0.6,0.1-1.3,0.5-1.9,0.8
	c-0.5,0.3-0.9,0.6-1.5,0.8c-0.7,0.2-1.1,0.6-1.7,0.9c0.3-0.1,0.7-0.2,1-0.3c-0.6,0.1-1.2-0.1-1.8,0c-0.7,0.1-1.1,0.3-1.8,0.3
	C87.3,28.1,87.3,32.2,90,32.2L90,32.2z"/>
<path class="st0" d="M126.5,28.2c-0.6,1.1-1.1,2.4-1.8,3.5c-0.6,1-1.6,1.7-2.2,2.7c-0.3,0.6-0.5,1.1-0.9,1.7c-0.1,0.1-1.2,1.8-1,1.9
	c0,0,0.7-0.4,0.1-0.3c-0.2,0-0.5,0.1-0.7,0.2c-0.5-0.1-0.5,0,0,0.2c-0.1-0.1-0.1-0.2-0.2-0.3c-0.1-0.3-0.3-0.5-0.3-0.9
	c0-0.1,0-0.8-0.1-0.6c0,0,0.4-0.5,0.5-0.6c0.4-0.6,0.5-1,1-1.5c0.5-0.5,1-0.9,1.4-1.4c0.2-0.2,0.5-0.5,0.6-0.9
	c0.1-0.3-0.5,0.1,0.1-0.1c0.8-0.4,1.1-0.8,1.6-1.4c0.3-0.4,0.6-0.3,1-0.5c0.7-0.2,1.2-0.7,1.9-0.9c0.7-0.2,1.1-0.7,1.7-1
	c-0.3,0.1-0.6,0.2-0.9,0.2c0.6-0.1,1.2,0,1.9,0c0.7,0,1.3-0.2,2-0.3c-0.3,0-0.6,0-1,0c0.7,0.2,1.2,0.5,1.9,0.5
	c0.8,0,1.1,0.4,1.8,0.8c0.3,0.2,0.7,0.2,1,0.4c-0.4-0.3-0.2,0,0,0.2c0.3,0.5,1,0.8,1.2,1.2c0.3,0.5,0.5,1.2,0.7,1.8
	c0.2,0.6,0.3,1.3,0.5,1.9c0.2,0.6,0.1,0.4-0.2,1.2c-0.2,0.7,0,1.1,0.1,1.8c0.1-0.3,0.2-0.6,0.2-0.9c-0.3,0.6-0.6,1.1-0.8,1.7
	c-0.1,0.6-0.3,1.1-0.7,1.6c-0.7,1-1.1,2.2-1.7,3.3c-0.5,0.9-1.3,1.8-1.9,2.7c-0.4,0.5-0.9,1-1.3,1.6c-0.3,0.6-0.6,1.1-0.9,1.7
	c-1.2,2,1.9,3.8,3.1,1.8c0.3-0.6,0.6-1.2,0.9-1.8c0.3-0.5,0.8-0.9,1.2-1.4c0.8-1.1,1.7-2.2,2.3-3.4c0.6-1.1,1.2-2.1,1.8-3.2
	c0.3-0.6,0.5-1.2,0.7-1.9c0.2-0.7,0.7-1.2,0.6-2c0-0.1-0.1-1.4-0.2-0.4c0-0.3,0.3-0.5,0.3-0.8c0.2-0.6,0.2-1.5,0.1-2.1
	c-0.1-0.6-0.4-0.8-0.5-1.2c-0.2-0.8-0.4-1.5-0.7-2.3c-0.2-0.6-0.5-1.3-0.8-1.8c-0.4-0.5-0.8-0.8-1.3-1.1c0.6,0.5,0.1,0,0-0.3
	c-0.2-0.3-0.5-0.6-0.8-0.9c-0.2-0.1-0.5-0.2-0.7-0.3c-0.5-0.2-0.6-0.3-1-0.5c-0.5-0.3-1.2-0.6-1.8-0.8c-0.4-0.1-0.8,0-1.2-0.1
	c0.1,0-0.8-0.3-0.7-0.3c-0.7-0.2-1.3,0.1-2,0.1c-0.7,0.1-1.4,0-2.1,0c-0.8,0.1-1.1,0.5-1.8,0.9c-0.2,0.1-0.5,0.1-0.7,0.2
	c-0.4,0.2-0.7,0.5-1.1,0.7c-0.4,0.2-0.9,0.2-1.3,0.5c-0.8,0.4-1.3,1-1.9,1.7c0,0,0.6-0.3,0,0c-0.4,0.2-0.7,0.3-1,0.6
	c-0.4,0.4-0.6,0.8-0.9,1.2c-0.5,0.6-1.1,1.1-1.6,1.5c-0.6,0.6-0.8,1.2-1.3,1.9c-0.3,0.5-0.7,0.8-0.9,1.3c-0.2,0.7-0.2,1.7-0.1,2.4
	c0.2,1.3,0.9,2.9,2.1,3.6c1.4,0.8,3.4,0.5,4.8-0.3c0.8-0.5,0.9-1,1.3-1.8c0.2-0.5,0.7-1,1.1-1.5c0.4-0.6,0.5-1.4,1.1-1.9
	c0.4-0.4,0.9-0.9,1.2-1.4c0.9-1.2,1.5-2.7,2.2-4C130.6,27.9,127.5,26.1,126.5,28.2L126.5,28.2z"/>
<path class="st0" d="M156.2,23.3c0.9-0.2,1.9-0.7,2.6-0.7c1,0,1.8-0.2,2.7-0.5c0.8-0.3,1.7-0.2,2.5-0.4c1-0.2,1.7-0.2,2.7-0.1
	c0.5,0,1-0.1,1.5-0.2c0.5-0.1,0.9-0.1,1.4-0.1c0.9-0.1,1.8-0.3,2.7-0.5c2-0.4,4.1-0.4,6.2-0.2c2.5,0.2,2.5-3.7,0-3.9
	c-1-0.1-1.9-0.2-3-0.1c-1.1,0.1-2.3,0.2-3.4,0.3c-1,0.1-1.9,0.5-2.9,0.5c-0.6,0-1.1,0-1.7,0.1c-0.5,0.1-0.5,0.2-0.9,0.1
	c-1.1-0.1-2.2,0-3.2,0.3c-1,0.2-1.9,0.2-2.8,0.5c-0.4,0.1-0.8,0.3-1.2,0.4c-0.4,0-0.7-0.1-1.1-0.1c-1,0.1-2,0.6-3,0.8
	C152.7,20.2,153.8,23.9,156.2,23.3L156.2,23.3z"/>
<path class="st0" d="M164.8,8.9c0,0.6,0.1,0.7,0,1.1c-0.1,0.5-0.4,0.9-0.4,1.5c0,0.5,0.2,0.8,0.3,1.3c0.1,0.4,0.1,0.8,0.1,1.2
	c0.1,0.8,0.4,1.9,0.3,2.5c-0.2,0.7-0.4,1.1-0.3,1.8c0.1,0.5,0.4,0.8,0.4,1.3c0-0.3,0-0.7,0-1c-0.1,0.2-0.8,1.1-0.8,1.8
	c0,0.7,0.5,1.2,0.6,1.8c0-0.3,0-0.7,0-1c-0.1,0.5-0.6,0.9-0.6,1.5c-0.1,0.8,0.3,1.3,0.4,2.1c0-0.3,0-0.7,0-1
	c-0.2,0.8-0.7,1.4-0.5,2.3c0.1,0.3,0.2,0.6,0.4,0.9c0.1,0.2,0.5,0.9,0.4,0.4c0-0.3,0-0.7,0-1c-0.3,1.6-1.2,3.2-0.9,4.9
	c0.1,0.8,0,1.5,0,2.4c0,0.9,0.3,1.7,0.5,2.7c0-0.3,0-0.7,0-1c0.1-0.4-0.6,0.9-0.6,1c-0.1,0.4-0.1,0.8-0.2,1.2c0,0.5,0,0.9,0,1.4
	c0.1,0.5,0.3,0.9,0.4,1.3c0-0.3,0-0.7,0-1c0.1-0.3-0.6,0.8-0.7,1c-0.1,0.4-0.2,0.8-0.1,1.3c0.2,0.9,0.5,1.1,0.5,1.9
	c0.1-0.3,0.2-0.7,0.3-1c-0.2,0.3-0.7,0.9-1,1.3c-0.2,0.3-0.4,0.6-0.6,0.9c-0.1,0.2-0.1,0.3-0.2,0.5c-0.1,0.4-0.1,0.4,0.1,0
	c0.3-0.2,0.6-0.3,0.9-0.5c-0.4,0.1-0.8,0.1-1.2,0.2c-0.4-0.1-0.5,0,0,0.1c-0.1-0.1-0.3-0.3-0.4-0.4c-0.4-0.4-0.8-0.6-1.3-0.7
	c-0.3-0.1-0.8,0-1.1-0.1c0.3,0.2,0.6,0.3,0.9,0.5c-0.3-0.3-0.4-0.8-0.7-1.1c-0.4-0.4-1-0.5-1.4-0.8c-0.4-0.2-0.6-0.5-0.7-1
	c0.1,0.5-0.1,0.5,0.3-0.1c0.1-0.2,0.2-0.3,0.3-0.5c0.2-0.3,0.6-1,0.8-1.2c0.3-0.3,0.9-0.5,1.3-0.7c0.5-0.3,1-0.5,1.3-1
	c0.2-0.2,0.2-0.5,0.4-0.7c-0.3,0.4,0,0.1,0.3,0c0.5-0.2,0.9-0.2,1.4-0.4c0.6-0.2,1-0.7,1.4-1.1c0.8-0.7,1.9-1.5,2.8-1.9
	c1-0.4,2.2-0.5,3.2-1.1c1-0.6,2.1-1.2,3.2-1.7c-0.3,0.1-0.7,0.2-1,0.3c0.5,0,0.9,0.1,1.4,0.1c0.6,0,1.2-0.2,1.8-0.3
	c0.9-0.2,1.9,0,2.8-0.3c1.6-0.5,3.6-0.9,5.3-0.2c-0.3-0.2-0.6-0.3-0.9-0.5c0.9,0.8,1.3,1.1,1.2,2.4c-0.1,1.4,0.2,2.7-0.2,4.1
	c-0.3,0.7-0.4,1.3-0.5,2c0,0.3-0.1,0.9-0.2,1.1c-0.2,0.5-0.8,0.8-1,1.4c-0.2,0.5-0.4,1.2-0.8,1.6c0.3-0.2,0.6-0.3,0.9-0.5
	c-0.7,0.3-1.4,0.3-2,0.9c-0.5,0.5-1.3,1.5-1.5,2.2c-0.2,0.4-0.1,0.4,0.1,0.2c0.3-0.3,0.2-0.2-0.3,0c-0.3,0.2-0.6,0.3-0.9,0.6
	c-0.3,0.3-0.5,0.7-0.6,1.1c-0.1,0.2-0.1,0.4-0.2,0.5c0.1-0.2,0.1-0.2-0.1,0.1c-0.8,1.3-2.2,2.1-3.2,3.3c-0.2,0.3-0.4,0.7-0.7,0.9
	c0.4-0.4,0-0.1-0.3,0c-1,0.3-1.2,1-1.8,1.7c-0.7,0.8-0.8,1.9,0,2.7c0.7,0.7,2.1,0.8,2.7,0c0.2-0.3,0.4-0.6,0.7-1
	c-0.3,0.1-0.4,0.2-0.1,0.1c0.1,0,0.3-0.1,0.4-0.1c0.7-0.2,1.2-0.7,1.6-1.3c0.9-1.1,1.9-1.9,2.9-2.9c0.5-0.5,0.9-1.1,1.2-1.6
	c0.2-0.3,0.4-0.6,0.4-0.9c0-0.1,0-0.2,0.1-0.3c-0.5,0.5-0.6,0.6-0.2,0.4c1.6-0.4,1.4-2.3,2.5-3.1c-0.3,0.2-0.6,0.3-0.9,0.5
	c0.9-0.3,1.7-0.5,2.4-1.4c0.5-0.7,0.8-1.7,1.3-2.4c0.3-0.5,0.7-0.8,0.9-1.4c0.1-0.4,0.2-0.9,0.3-1.3c0.1-0.4,0.1-0.9,0.2-1.3
	c0.1-0.6,0.4-1,0.6-1.6c0.3-1.2,0.2-2.3,0.2-3.5c0-1.1,0.2-2.1-0.2-3.2c-0.7-1.9-2.3-3.2-4.2-3.6c-1.1-0.2-2.1-0.2-3.2,0
	c-0.5,0.1-0.9,0.1-1.4,0.1c-0.6,0.1-1,0.4-1.6,0.5c-0.4,0.1-1,0-1.4,0.1c-0.6,0.1-1.1,0.2-1.7,0.3c-1,0.2-1.9-0.2-3,0.4
	c-0.8,0.5-1.7,0.9-2.6,1.3c-0.8,0.5-1.7,0.5-2.6,0.9c-1.9,0.7-3.5,2.2-5.1,3.5c0.3-0.2,0.6-0.3,0.9-0.5c-0.7,0.3-1.5,0.4-2.2,0.7
	c-1,0.4-1.2,1-1.9,1.8c0.3-0.3-0.4,0.2-0.5,0.2c-0.3,0.2-0.7,0.4-1,0.6c-0.8,0.5-1.2,1.1-1.6,1.8c-1,1.6-2,2.4-1.5,4.4
	c0.2,0.9,0.7,1.6,1.4,2.2c0.3,0.3,0.7,0.6,1.1,0.9c0.2,0.1,0.4,0.2,0.6,0.3c0.4,0.2,0.4,0.2,0-0.1c0.4,0.8,0.9,1.4,1.8,1.7
	c0.4,0.1,0.7,0.1,1.1,0.1c-0.5-0.3-0.6-0.2-0.2,0.1c0.1,0.1,0.1,0.1,0.2,0.2c1.2,1.1,3.8,1.1,5.2,0.3c0.7-0.4,0.9-1,1.2-1.7
	c0.1-0.3,0.1-0.3,0-0.1c0.2-0.2,0.3-0.4,0.5-0.7c0.7-0.9-0.2,0.2,0.4-0.5c0.7-0.9,0.9-1.5,0.8-2.7c0-0.3,0-0.7-0.1-1
	c-0.1-0.3-0.4-0.7-0.4-1.1c0,0.3,0,0.7,0,1c-0.1,0.4,0.4-0.4,0.5-0.5c0.3-0.5,0.4-1,0.3-1.5c0-0.6-0.5-1.5-0.4-1.8
	c-0.1,0.3,0.6-0.9,0.6-1c0.1-0.4,0.2-0.8,0.1-1.3c-0.1-0.7-0.4-1.3-0.3-2c0-0.4,0.2-0.8,0.2-1.3c0-0.4-0.2-0.8-0.2-1.2
	c0-0.5,0.2-1.2,0.4-1.8c0.2-0.7,0.5-1.4,0.5-2.1c0-0.5-0.2-0.9-0.4-1.3c-0.1-0.2-0.6-1-0.5-0.5c0,0.3,0,0.7,0,1
	c0.2-0.6,0.6-1.1,0.6-1.8c0-0.6-0.3-1.2-0.4-1.8c0,0.3,0,0.7,0,1c0.2-0.6,0.7-1.1,0.7-1.8c0-0.7-0.5-1.2-0.6-1.8c0,0.3,0,0.7,0,1
	c-0.1,0.2,0.4-0.5,0.5-0.5c0.2-0.3,0.3-0.6,0.3-1c0.1-0.8-0.3-1.3-0.5-2.1c0,0.3,0,0.7,0,1c0.1-0.5,0.4-1,0.4-1.5
	c0.1-0.7-0.1-1.5-0.2-2.2c-0.1-0.6-0.1-1.2-0.1-1.9c-0.1-0.6-0.4-1.2-0.5-1.8c0,0.3,0,0.7,0,1c0.1-0.4,0.4-0.8,0.5-1.2
	c0.2-0.6,0-1.3,0-1.9C168.5,6.5,164.6,6.4,164.8,8.9L164.8,8.9z"/>
<path class="st0" d="M182.4,3.5c0,0.5,0.1,1,0.2,1.5c0,0.1,0.1,0.7,0,0.1c0,0.3,0.1,0.5,0.1,0.8c0.1,0.8,0.6,1.5,1,2.3
	c0.2,0.3,0.3,0.7,0.5,1c0.1,0.2,0.2,0.4,0.3,0.5c-0.2-0.5,0,0.1,0,0.1c0.1,0.5,0-0.3,0,0.1c0,0.3,0.1,0.6,0.1,0.9
	c0,0.2,0.1,0.3,0.1,0.5c0,0.1,0,0.2,0.1,0.3c0-0.3,0-0.3,0-0.1c0,1,0.9,2,1.9,1.9c1,0,2-0.9,1.9-1.9c0-0.5-0.1-1-0.3-1.5
	c0-0.1,0-0.2-0.1-0.3c0,0.3,0,0.3,0,0.1c0-0.3-0.1-0.5-0.1-0.8c-0.1-0.9-0.6-1.6-1-2.4c-0.1-0.3-0.3-0.7-0.5-1
	c-0.1-0.2-0.2-0.3-0.3-0.5c-0.2-0.3,0.1,0.4,0-0.1c0-0.1-0.1-0.6,0-0.1c0-0.3-0.1-0.6-0.1-0.9c0-0.2-0.1-0.3-0.1-0.5
	c0-0.1,0-0.2,0-0.3c0,0.3,0,0.3,0,0.1c0-1-0.9-2-1.9-1.9C183.3,1.6,182.4,2.4,182.4,3.5L182.4,3.5z"/>
<path class="st0" d="M219.7,1.5C219.7,1.7,219.7,1.7,219.7,1.5c0,0,0,0.1,0,0.2c0,0.2-0.1,0.5-0.1,0.7c0,0.3-0.1,0.5-0.1,0.8
	c-0.1,0.5-0.1,1-0.1,1.6c0,0.2-0.1,0.5-0.1,0.7c0,0,0,0.4,0,0.4c0-0.2,0-0.3,0-0.1c0,0.1,0,0.1,0,0.2c-0.1,0.6-0.1,1.3-0.2,1.9
	c-0.1,0.8,0.8,1.6,1.5,1.5c0.9,0,1.4-0.7,1.5-1.5c0-0.3,0-0.6,0-0.9c0,0,0-0.5,0-0.2c0,0.2,0-0.2,0-0.2c0.1-0.6,0.2-1.2,0.2-1.9
	c0-0.5,0-1,0.1-1.6c0-0.1,0-0.2,0-0.3c0-0.1,0-0.2,0-0.2c0-0.2,0-0.1,0,0.1c0,0,0.1-0.4,0.1-0.4c0-0.2,0.1-0.5,0.1-0.7
	c0-0.4-0.2-0.8-0.4-1.1C222,0.2,221.6,0,221.2,0C220.3,0,219.8,0.7,219.7,1.5L219.7,1.5z"/>
<path class="st0" d="M199.9,17.9c-0.1,0.4-0.3,0.7-0.4,1.1c-0.1,0.5-0.1,1.1-0.2,1.6c-0.1,0.8,0,1.6,0,2.4c0.1,1.1,0.3,2.1,0.7,3
	c0.2,0.3,0.4,0.7,0.6,1c0.2,0.3,0.3,0.7,0.5,1c0.5,0.9,1.8,1.3,2.7,0.7c0.9-0.6,1.3-1.7,0.7-2.7c-0.3-0.6-0.6-1.2-0.9-1.8
	c-0.1-0.2-0.1-0.2,0,0.1c0-0.1-0.1-0.2-0.1-0.3c0-0.2-0.1-0.3-0.1-0.5c0-0.1-0.1-0.2-0.1-0.3c0,0.2,0,0.3,0,0.1c0-0.2,0-0.4,0-0.6
	c-0.1-0.8-0.1-1.5,0-2.2c0-0.2,0-0.3,0-0.5c0-0.2,0-0.2,0,0c0-0.1,0-0.2,0.1-0.3c0.1-0.3,0.2-0.6,0.3-0.9c0.3-1-0.4-2.2-1.4-2.4
	C201.2,16.3,200.3,16.8,199.9,17.9L199.9,17.9z"/>
<path class="st0" d="M207.5,17.6c0.1,0.1,0.3,0.2,0.4,0.3c0.1,0.5,0.3,1,0.4,1.6c0.1-0.3,1-1.3,0.9-1.9c-1,0.5-1.2,0.8-0.6,0.8
	c0.1,0,0.2,0,0.3,0c0.5,0,0.9-0.2,1.4-0.5c0.4-0.2,1-0.5,1.2-0.9c0.3-0.2,0.3-0.3,0-0.2c-0.3,0-0.3,0.1,0.1,0.1c1,0.2,2-0.4,2.8-1
	c0.3-0.2,0.4-0.4,0.7-0.5c0.5-0.2,1.1-0.2,1.6-0.3c0.7-0.2,1.6-0.8,2.3-1c0.5-0.1,1,0.1,1.5,0c0.5-0.1,1-0.3,1.5-0.5
	c0.9-0.3,1.8-0.3,2.7-0.6c0.5-0.2,1-0.2,1.5-0.3c0.3-0.1,0.6-0.4,0.9-0.4c-0.2-0.1-0.1-0.1,0.2,0c0.2,0.1,0.5,0.1,0.7,0
	c0.5,0,0.9-0.3,1.4-0.5c0.3-0.1,0.5-0.3,0.8-0.4c0.3-0.1,0.4-0.2,0.2-0.2c0.2,0.1,0.5,0.1,0.7,0.1c0.6,0,0.9-0.2,1.4-0.3
	c0.5-0.1-0.1-0.1,0.5,0c1.1,0.2,2,0.1,3-0.2c0.8-0.2,1.6,0,2.4,0c0.5,0,0.8-0.3,1.3-0.4c0.3-0.1,0.7,0.1,1.1,0.1
	c0.9,0.1,1.8,0.3,2.8,0.5c-0.4-0.7-0.8-1.3-1.1-2c-0.5,1.3-0.9,2.7-1.4,4.1c-0.2,0.7-0.4,1.1-0.7,1.7c-0.4,0.7-0.3,1.6-0.6,2.3
	c-0.3,0.7-0.8,0.9-0.8,1.7c-0.1,0.7-0.1,1.3-0.5,1.9c-0.3,0.5-0.8,0.9-1.3,1.4c-0.6,0.6-0.7,1.1-1.2,1.8c-1.1,1.8,1.7,3.4,2.8,1.6
	c0.4-0.7,0.5-1.1,1.1-1.6c0.7-0.6,1.1-0.9,1.4-1.8c0.3-0.7,0.6-1.4,0.7-2.1c0,0.2,0.1-1.1-0.1-0.7c0.1-0.3,0.5-0.6,0.7-1
	c0.3-0.7,0.2-1.6,0.6-2.3c0.3-0.7,0.6-1.1,0.8-1.9c0.4-1.5,1-3,1.5-4.4c0.3-0.8-0.3-1.8-1.1-2c-1-0.2-1.9-0.5-2.9-0.6
	c-0.5,0-1-0.2-1.6-0.2c-0.6-0.1-0.9,0.1-1.5,0.2c-0.9,0.2-1.9-0.1-2.8,0.1C235.4,7.8,235,8,234.7,8c-0.5,0.1-0.9-0.1-1.3-0.2
	c-0.9-0.2-1.7,0.3-2.4,0.3c-0.5,0-0.9-0.1-1.4,0.1c-0.4,0.1-0.7,0.4-1.1,0.5C228,9,228,9,227.6,9.1c-0.5,0-0.9-0.1-1.4,0.1
	c-0.4,0.2-0.7,0.4-1.2,0.5c-0.5,0.1-1,0.3-1.5,0.4c-1,0.3-2,0.3-3,0.7c-0.9,0.4-1.8,0.1-2.7,0.5c-1,0.4-1.9,0.8-3,0.9
	c-1,0.1-1.8,0.6-2.5,1.3c-0.4,0.2-0.4,0.3-0.1,0.2c-0.3,0-0.5-0.1-0.8-0.1c-0.5,0-1,0.2-1.4,0.4c-0.4,0.2-0.7,0.5-1.1,0.8
	c-0.5,0.3-0.3,0.2-0.9,0.2c-1.1,0-1.6,0.7-2,1.6c-0.3,0.6-0.6,1.2-0.9,1.9c-0.2,0.5,0,1.2,0.4,1.6c0.3,0.3,0.6,0.4,1,0.5
	C208.6,21.2,209.5,18.1,207.5,17.6L207.5,17.6z"/>
<path class="st0" d="M218.3,24.2c0.5-0.5,1-1,1.5-1.5c0.7-0.7,0.8-2,0-2.7c-0.8-0.8-1.9-0.7-2.7,0c0.3-0.2,0,0-0.1,0.1
	c-0.2,0.1-0.4,0.3-0.6,0.5c-0.2,0.2-0.4,0.4-0.6,0.6c-0.4,0.4-0.7,0.8-1.1,1.1c-0.4,0.4-0.7,0.8-1.1,1.2c-0.5,0.5-0.9,1-1.3,1.5
	c-0.1,0.1-0.1,0.1,0,0c-0.1,0.1-0.2,0.2-0.3,0.3c-0.2,0.2-0.4,0.4-0.6,0.6c-0.4,0.5-0.8,1-1.1,1.6c-0.2,0.2-0.3,0.4-0.5,0.7
	c-0.2,0.3,0.1-0.1-0.1,0.1c-0.1,0.1-0.2,0.2-0.3,0.3c-0.4,0.5-0.8,1.1-1.2,1.6c-0.6,0.9-0.2,2.2,0.7,2.7c1,0.5,2.1,0.2,2.7-0.7
	c0.2-0.2,0.3-0.5,0.5-0.7c0.1-0.1,0.1-0.2,0.2-0.3c-0.2,0.3,0,0,0.1-0.1c0.4-0.5,0.8-1,1.2-1.5c0.2-0.2,0.3-0.4,0.5-0.6
	c0.1-0.1,0.2-0.2,0.2-0.3c0.2-0.3-0.1,0.1,0.1-0.1c0.5-0.4,0.9-1,1.3-1.5c-0.1,0.1-0.1,0.1,0,0c0.1-0.1,0.2-0.2,0.3-0.3
	c0.2-0.2,0.4-0.4,0.5-0.5c0.4-0.4,0.7-0.8,1.1-1.2c0.4-0.4,0.8-0.7,1.1-1.1c0.1-0.1,0.2-0.2,0.3-0.3c0.1-0.1,0.4-0.3,0.1-0.1
	c0.3-0.2,0.6-0.5,0.9-0.7c-0.9-0.9-1.8-1.8-2.7-2.7c-0.5,0.5-1,1-1.5,1.5c-0.7,0.7-0.8,2,0,2.7C216.3,24.9,217.5,25,218.3,24.2
	L218.3,24.2z"/>
<path class="st0" d="M218.8,26.4c0.5-0.4,1.2-0.4,1.7-0.9c0.2-0.2,0.5-1,0.2-0.4c-0.4,0.2-0.4,0.3,0.1,0.2c0.1,0,0.2,0,0.3,0
	c1.5-0.1,2.7-1.1,4.2-1.1c0.7,0,1.1-0.4,1.8-0.6c0.7-0.2,1.4-0.1,2-0.2c0.3,0,0.7-0.2,1-0.2c0.3,0,0.7,0.2,1,0.2
	c0.3,0,0.8-0.2,1-0.2c0.3,0,0.7,0.2,1,0.2c-0.4-1-0.8-1.9-1.2-2.9c-0.3,0.7-0.9,1.1-1.1,1.9c-0.1,0.3-0.1,0.6,0,0.9
	c0-0.2,0-0.2-0.1,0c-0.2,0.3-0.6,0.9-0.9,1.2c-0.5,0.5-1.3,0.8-1.8,1.4c-0.5,0.5-0.9,1-1.4,1.5c-0.2,0.2-0.6,0.6-0.7,0.7
	c-0.3,0.2-0.7,0.3-1,0.5c-0.4,0.3-0.7,0.7-1,1.1c-0.5,1,0.6-0.1-0.1,0c-0.8,0.2-1.3,0.9-1.9,1.3c-0.4,0.3-0.7,0.4-1.1,0.7
	c-0.3,0.3-0.5,0.6-0.8,0.9c0.3-0.2,0.6-0.3,0.9-0.5c-0.4,0.1-0.8,0.1-1.2,0.3c-0.6,0.2-0.8,0.6-1.3,0.9c-0.6,0.5-1.5,0.7-2.2,1.1
	c-1,0.5-1.7,1.4-2.6,1.9c-0.7,0.4-1.4,0.6-2.1,1.1c-0.6,0.5-1.4,1-2.1,1.4c-0.3,0.2-0.8,0.3-1.2,0.5c-0.4,0.2-0.7,0.5-1.1,0.7
	c-0.5,0.2-0.9,0.3-1.4,0.6c-0.5,0.3-0.8,0.6-1.3,0.9c-0.8,0.4-1.7,0.6-2.5,1.1c-2.2,1.2-0.2,4.5,2,3.4c0.7-0.4,1.4-0.6,2.2-0.9
	c0.8-0.4,1.5-1,2.3-1.3c1.7-0.7,3.1-1.8,4.7-2.7c0.4-0.2,0.7-0.6,1-0.8c-0.2,0.1,0.5-0.1,0.6-0.2c0.9-0.3,1.6-1,2.4-1.6
	c0.7-0.5,1.5-0.9,2.3-1.2c1-0.4,1.4-0.9,2.2-1.6c-0.3,0.2-0.6,0.3-0.9,0.5c0.4-0.1,0.8-0.1,1.2-0.3c0.7-0.2,0.9-0.6,1.4-1.1
	c0.3-0.3,0.5-0.4,0.9-0.6c0.4-0.3,0.7-0.7,1-0.9c-0.2,0.1,0.8-0.1,1-0.2c0.4-0.3,0.7-0.7,1-1.1c0.3-0.6,0.2-0.6-0.2,0
	c0.3-0.1,0.5-0.2,0.7-0.3c0.4-0.2,0.7-0.5,1.1-0.8c0.3-0.3,0.7-0.6,1.1-0.9c0.4-0.3,0.6-0.7,1-1.1c0.6-0.6,1.4-0.9,1.9-1.5
	c0.4-0.4,0.6-0.9,0.9-1.3c0.4-0.5,0.8-0.8,1-1.5c0.1-0.2,0.3-1.7-0.1-0.9c0.2-0.4,0.6-0.7,0.8-1.1c0.5-1.1,0.1-2.5-1.2-2.9
	c-1.3-0.4-2.3-0.3-3.5-0.1c0.3,0,0.7,0,1,0c-0.8-0.1-1.5-0.3-2.4-0.2c-0.7,0.1-1.4,0.2-2.1,0.3c-0.7,0.1-1.3,0.4-2,0.6
	c-0.4,0.1-1.2,0.2-1.7,0.3c-0.6,0.1-1.2,0.4-1.8,0.6c-0.2,0.1-0.7,0.3-0.9,0.4c-0.4,0.1-0.8-0.1-1.2,0c-0.6,0.1-1.1,0.4-1.5,0.9
	c-0.1,0.2-0.3,0.3-0.4,0.5c-0.1,0.2-0.1,0.1,0.2-0.2c-0.3-0.1-0.8,0.3-1,0.4C214.7,24.4,216.7,27.8,218.8,26.4L218.8,26.4z"/>
<path class="st0" d="M215.7,30.6c0.8,0.5,0.4,0.5,1.1,1.2c0.4,0.4,1,0.9,1.5,1.2c0.6,0.4,1.3,0.2,2,0.6c0,0,0-0.1,0-0.1
	c0.1,0.1,0.1,0.2,0.2,0.3c0.2,0.2,0.3,0.5,0.6,0.6c0.6,0.6,1.4,0.9,2.2,1.3c0.6,0.3,1.1,0.7,1.8,0.9c0.3,0.1,0.8,0,1.1,0.1
	c-0.8-0.4,0.3,0.5,0.3,0.5c0.6,0.4,1.3,0.6,2,0.8c1.4,0.5,2.6,1.2,4,1.6c1.3,0.3,2.8,0.5,4.1,1.2c0.6,0.3,1,0.7,1.7,0.9
	c0.7,0.2,1.5,0.2,2.2,0.4c0.7,0.1,0.9,0.4,1.5,0.8c0.3,0.2,0.6,0.3,1,0.4c0.3,0.1,0.7-0.1,0.9,0c1,0.1,2.1-0.2,2.4-1.4
	c0.2-0.9-0.3-2.2-1.4-2.4c-0.4-0.1-0.7-0.1-1.1-0.1c0.1,0.1,0.2,0.1,0.3,0.2c-0.1-0.1-0.3-0.2-0.4-0.3c-0.6-0.4-1.3-0.7-2-0.9
	c-0.7-0.2-1.4,0-2.1-0.3c-0.5-0.2-1-0.6-1.6-0.9c-1.3-0.6-2.8-0.9-4.1-1.2c-1.4-0.3-2.6-1-4-1.5c-0.3-0.1-0.6-0.2-0.9-0.3
	c-1.4-0.7,0.5,0.4-0.6-0.4c-0.7-0.5-1.1-0.7-1.9-0.8c-0.6-0.1-1-0.4-1.6-0.6c-0.6-0.2-1.1-0.5-1.3-0.7c-0.5-0.5-0.8-0.9-1.4-1.3
	c-0.4-0.2-0.7-0.5-1.1-0.6c-0.4-0.1-0.8,0-1.2-0.2c0.4,0.1-0.4-0.5-0.2-0.3c0.1,0.1-0.2-0.4-0.2-0.4c-0.4-0.7-1.2-1.1-1.8-1.5
	C215.7,25.8,213.7,29.2,215.7,30.6L215.7,30.6z"/>
<path class="st0" d="M214.7,44.2c0,0.6,0,1.3-0.1,1.9c0,0.3-0.1,0.6-0.1,0.9c0.1-0.4,0,0.1,0,0.2c0,0.1,0,0.2-0.1,0.3
	c-0.2,1-0.4,2-0.7,3c-0.4,1.5-1.1,2.9-1.1,4.5c0,1,0.9,2,1.9,1.9c1.1,0,1.9-0.9,1.9-1.9c0-0.1,0-0.3,0-0.4c0,0.6,0,0.3,0,0
	c0.1-0.3,0.2-0.6,0.2-0.9c0.2-0.8,0.5-1.6,0.7-2.4c0.7-2.3,1.1-4.6,1-7c0-1-0.9-2-1.9-1.9C215.6,42.3,214.7,43.1,214.7,44.2
	L214.7,44.2z"/>
<path class="st0" d="M219.5,47.4c-0.2,0.3,0.3-0.3,0.3-0.3c0.2-0.2,0.3-0.4,0.5-0.6c0.3-0.3,0.7-0.5,1.2-0.8
	c0.2-0.1,0.4-0.3,0.7-0.4c-0.2,0.1,0.4-0.1,0.4-0.1c0.5-0.2,1.1-0.2,1.6-0.4c1.1-0.3,2.1-0.6,3.2-0.9c1-0.3,2.1-0.3,3-0.8
	c-1-0.6-1.9-1.1-2.9-1.7c0.1,0.6,0,1.1,0.1,1.7c0.1,0.5,0.2,0.9,0.3,1.4c0.2,1,0.4,2,0.5,2.9c0.1,0.6,0.1,1.7-0.1,2.3
	c-0.2,0.8-0.5,1.2-1,1.8c-0.7,0.8-0.8,2,0,2.7c0.7,0.7,2,0.8,2.7,0c0.8-0.8,1.4-1.7,1.8-2.8c0.4-1.1,0.5-2.4,0.4-3.6
	c-0.1-1.2-0.4-2.4-0.6-3.6c-0.1-0.5-0.2-1.1-0.3-1.6c0-0.1-0.1-0.7-0.1-0.4c0-0.3,0-0.6,0-0.8c-0.1-0.7-0.3-1.3-1-1.7
	c-0.6-0.3-1.4-0.4-2,0c-0.3,0.2,0.2,0-0.1,0.1c-0.3,0.1-0.5,0.1-0.8,0.2c-0.6,0.1-1.1,0.2-1.6,0.3c-0.6,0.2-1.2,0.3-1.7,0.4
	c-0.6,0.2-1.2,0.3-1.8,0.5c-1.2,0.2-2.3,0.9-3.4,1.5c-1.1,0.6-2.1,1.7-2.9,2.8c-0.6,0.9-0.2,2.2,0.7,2.7
	C217.8,48.7,218.9,48.3,219.5,47.4L219.5,47.4z"/>
<path class="st0" d="M214.8,56.1c2.7-0.7,5.3-1.7,8-2.5c1.6-0.5,3.2-0.9,4.8-1.2c0.2,0,0.3-0.1,0.5-0.1c0.4-0.1-0.1,0,0.3,0
	c0.4,0,0.7-0.1,1.1-0.1c0.3,0,0.6,0,1,0c0.1,0,0.5,0,0.2,0c-0.3,0,0.2,0.1,0.3,0.1c2.3,0.5,3.2-3,1-3.5c-3.1-0.7-6.6,0.3-9.6,1.2
	c-2.8,0.8-5.6,1.9-8.4,2.7C211.6,53.2,212.6,56.7,214.8,56.1L214.8,56.1z"/>
<path class="st0" d="M257.9,30.3c1.1-0.3,2.2-0.4,3.3-0.7c1.1-0.3,2.1-0.8,3.1-1.2c0.9-0.3,1.8-0.8,2.8-1.2c0.3-0.1,0.6-0.4,1-0.4
	c-0.1,0,0.3,0.1,0.3,0.1c0.6,0,1.1-0.2,1.7-0.5c0.9-0.5,1.8-0.9,2.8-1.1c1-0.2,1.8-0.8,2.7-1.2c0.9-0.4,1.8-0.8,2.8-0.9
	c0.6,0,1.1-0.2,1.6-0.4c0.6-0.3,0.8-0.3,1.5-0.4c1-0.2,1.6-1.5,1.4-2.4c-0.3-1.1-1.4-1.5-2.4-1.4c-0.6,0.1-1.2,0.2-1.8,0.4
	c-0.2,0.1-0.3,0.2-0.5,0.3c-0.5,0.1,0.3-0.1-0.2,0c-1.2,0.1-2.1,0.5-3.2,1c-0.9,0.4-1.8,1-2.7,1.2c-1.1,0.3-2.4,0.6-3.4,1.2
	c-0.2,0.1-0.3,0.3-0.5,0.3c-0.5,0.2,0.3-0.1-0.2,0c-0.7,0.1-1.2,0.2-1.8,0.5c-0.9,0.4-1.8,0.8-2.7,1.2c-1,0.4-2,0.9-3,1.2
	c-1.1,0.3-2.3,0.4-3.5,0.7C254.4,27.2,255.4,30.9,257.9,30.3L257.9,30.3z"/>
<path class="st0" d="M266.6,16.7c0.5,0.8,0.9,1.6,1.5,2.3c0.5,0.7,0.2,0,0.3,0.6c0.1,0.5,0.1,0.9,0.4,1.4c0.1,0.1,0.7,0.8,0.6,0.6
	c0.1,0.3,0.1,0.6,0.2,0.9c0.3,0.9,1,1,1.5,1.7c-0.2-0.3-0.3-0.6-0.5-0.9c-0.1-0.7-0.2,0.4-0.2,0.6c0,0.4,0.1,0.8,0.3,1.2
	c0.3,0.7,0.7,1.4,1.2,2.1c0.2,0.3,0.5,0.6,0.7,0.9c-0.1-0.3-0.1-0.4-0.1-0.1c0,0.2,0,0.5,0.1,0.7c0.2,0.7,0.6,1.4,0.8,2.1
	c0.3,0.8,0.5,1.6,0.9,2.4c0.4,0.7,0.7,1.3,1,2.1c0.5,1.3,0.7,2.7,1.3,4c-0.1-0.5-0.1-1-0.2-1.5c0,0,0,0,0,0.1
	c0.8-0.5,1.6-0.9,2.4-1.4c-0.5-0.1-0.9-0.1-1.3-0.2c-0.4-0.1-0.9-0.4-1.3-0.6c-1-0.4-1.9-0.5-3-0.6c-0.9-0.1-1.9-0.3-2.8-0.4
	c-0.9-0.1-1.8,0.1-2.7-0.3c-1.9-0.7-3.5,0.1-5.3,0.5c-2.1,0.5-3.8,1.6-3.9,3.9c-0.1,2.1,1,3.8,2.4,5.3c0.3,0.3,0.5,0.6,0.9,0.8
	c0.2,0.2,0.5,0.4,0.7,0.5c-0.3-0.3-0.3-0.3,0,0.3c0.5,0.9,1.1,1.2,2,1.5c0.9,0.3,1.8,0.8,2.5,1.3c0.8,0.5,1.4,0.7,2.4,0.8
	c0.8,0.1,1.7,0.4,2.5,0.5c0.3,0.1,0.7,0.1,1,0.2c0.5,0.2,0.8,0.6,1.3,0.8c1,0.4,2.1-0.4,2.4-1.4c0.3-1.1-0.4-2-1.4-2.4
	c0.6,0.3-0.4-0.4-0.5-0.5c-0.4-0.2-0.8-0.3-1.2-0.4c-0.8-0.2-1.7-0.4-2.5-0.6c-0.7-0.2-1.4-0.2-1.7-0.3c-0.7-0.4-1.4-0.8-2.1-1.2
	c-0.4-0.2-0.7-0.4-1.1-0.5c-0.1-0.1-0.3-0.1-0.5-0.1c0.5,0.6,0.5,0.6,0.2,0c-0.4-0.8-0.9-1-1.5-1.5c-1-0.8-2.2-2.2-1.6-3.5
	c-0.2,0.3-0.3,0.6-0.5,0.9c0.4-0.5,1.1-0.5,1.7-0.7c0.6-0.1,1.3-0.5,1.8-0.6c0.6-0.1,0.9,0.3,1.5,0.4c0.7,0.2,1.6,0.2,2.3,0.2
	c1.4,0,2.9,0.3,4.4,0.5c0.6,0.1,1.2,0.3,1.8,0.6c0.8,0.4,1.4,0.4,2.2,0.6c1.1,0.2,2-0.3,2.4-1.4c0.3-0.8-0.2-1.3-0.4-2
	c-0.2-0.9-0.4-1.8-0.7-2.7c-0.3-0.9-0.7-1.8-1.2-2.7c-0.4-0.9-0.7-1.8-1-2.8c-0.1-0.3-0.3-0.7-0.4-1c-0.1-0.5-0.1-0.9-0.3-1.4
	c-0.3-0.8-1-1.3-1.5-2c-0.1-0.2-0.2-0.3-0.3-0.5c-0.2-0.5-0.2-0.5-0.1,0c0-0.5,0.2-0.9,0-1.4c-0.3-1-1-1.2-1.5-1.8
	c0.2,0.3,0.3,0.6,0.5,0.9c-0.2-0.6-0.2-1.2-0.6-1.8c-0.2-0.3-0.5-0.5-0.6-0.7c0.1,0.3,0.1,0.4,0.1,0.1c0-0.2,0-0.5-0.1-0.7
	c-0.2-0.7-0.6-1.2-1-1.7c-0.5-0.7-0.8-1.3-1.2-2C268.8,12.5,265.4,14.5,266.6,16.7L266.6,16.7z"/>
<path class="st0" d="M294.4,28.3c1.3-0.8,2.6-1.8,4-2.5c1.4-0.8,3-1.3,4.5-1.8c0.6-0.2,1.3-0.3,2-0.5c0.9-0.3,1.7-0.5,2.5-0.8
	c0.6-0.2,1.2-0.4,1.8-0.4c0.4,0,0.9,0,1.3,0c0.1,0,0.3,0,0.5,0c0.4-0.1,0.4,0.5-0.2-0.4c0.6,0.9,1.7,1.3,2.7,0.7
	c0.9-0.5,1.3-1.8,0.7-2.7c-1.3-1.9-4-1.7-6-1.4c-1,0.1-1.8,0.6-2.7,0.8c-0.4,0.1-0.9,0.1-1.3,0.3c-0.5,0.1-0.9,0.3-1.4,0.4
	c-0.9,0.2-1.7,0.6-2.6,0.9c-1,0.3-2,0.7-2.9,1.1c-1.7,0.8-3.3,2-4.9,3C290.4,26.3,292.3,29.6,294.4,28.3L294.4,28.3z"/>
<path class="st0" d="M296.3,34.7c0.8,0,1.6,0.1,2.4,0.1c0.9-0.1,1.3-0.2,2.2-0.3c1.7-0.1,3.2-0.2,4.7-1c0.3-0.1,0.4-0.2,0.6-0.2
	c0.4-0.1,0.8-0.2,1.3-0.4c0.6-0.3,1.1-0.6,1.7-0.9c0.6-0.3,1.3-0.5,1.9-1.1c0.2-0.2,0.3-0.4,0.5-0.6c-0.2,0.1,0.2-0.1,0.2-0.1
	c0.2-0.1,0.3-0.2,0.5-0.3c0.9-0.6,1.3-1.7,0.7-2.7c-0.5-0.8-1.8-1.3-2.7-0.7c-0.6,0.4-1.2,0.7-1.6,1.2c-0.1,0.1-0.2,0.2-0.3,0.3
	c-0.1,0.1-0.2,0.2-0.1,0.1c-0.1,0.1-0.6,0.3-0.8,0.4c-0.6,0.3-1.1,0.6-1.6,0.9c-0.2,0.1-0.3,0.1-0.6,0.2c-0.4,0.1-0.8,0.2-1.2,0.4
	c-0.4,0.2-0.9,0.4-1.5,0.6c-0.6,0.1-1.2,0.1-1.8,0.1c-0.7,0.1-1.6,0.2-2.2,0.3c-0.6,0.1-1.6,0-2.3-0.1c-1-0.1-1.9,0.9-1.9,1.9
	C294.4,33.9,295.3,34.7,296.3,34.7L296.3,34.7z"/>
<path class="st0" d="M303,14.9c-0.1,1-0.4,2-0.3,3.1c0,0.5,0,1,0.1,1.5c0.1,0.4,0.4,0.8,0.5,1.2c0-0.3,0-0.7,0-1
	c-0.1,0.8-0.3,1.4-0.6,2.1c-0.3,0.9,0.1,1.6,0.2,2.5c0-0.3,0-0.7,0-1c-0.2,1-0.3,2-0.3,3.1c0,1,0.2,1.8,0.4,2.7c0-0.3,0-0.7,0-1
	c-0.3,0.8-0.6,1.3-0.6,2.3c0,0.8,0.3,1.5,0.4,2.3c0-0.3,0-0.7,0-1c-0.2,0.7-0.4,1.3-0.4,2.1c0,0.3,0,0.5,0,0.8
	c0,0.1,0.1,1.3,0.2,0.8c0-0.3-0.2,0.2-0.2,0.3c-0.1,0.2-0.2,0.5-0.3,0.7c-0.2,0.6-0.1,1.4-0.1,2.1c0.1,1.2-0.1,2.3,0,3.5
	c0.1,0.7,0.1,1.4,0.4,2c0.2,0.4,0.3,0.7,0.2,1.3c0.1-0.3,0.2-0.7,0.3-1c-0.2,0.5-0.5,1-0.5,1.6c0,0.5,0.2,1,0.3,1.4
	c0.1-0.3,0.2-0.7,0.3-1c-0.1,0.3-0.8,1.1-1.1,1.3c0.3-0.2,0.6-0.3,0.9-0.5c0.4-0.1-0.1-0.1-0.3-0.2c-0.3-0.1-0.5-0.1-0.8-0.2
	c-0.6-0.2-1-0.3-1.5-0.7c-0.5-0.4-0.9-0.7-1.5-1c-0.1-0.1-0.3-0.1-0.4-0.1c-0.1-0.1-0.3-0.2-0.4-0.3c-0.2-0.1-0.2-0.1,0,0
	c0.1,0.3,0.2,0.7,0.3,1c-0.1,0.2-0.1,0.2,0.1,0c0.2-0.1,0.3-0.3,0.5-0.4c0.2-0.2,0.4-0.3,0.6-0.5c0.6-0.4,1.2-0.6,1.9-0.9
	c0.6-0.2,1.1-0.2,1.7-0.4c0.4-0.1,0.8-0.4,1.1-0.6c0.1-0.1,0.8-0.8,0.3-0.5c-0.3,0.1-0.7,0.2-1,0.3c0.9,0,1.5,0.2,2.4,0
	c0.6-0.2,1-0.5,1.5-0.8c0.3-0.2,0.3-0.3,0.1-0.1c0.3,0,0.5-0.1,0.8-0.1c0.6-0.1,1.2,0,1.8-0.3c0.4-0.2,0.6-0.6,1-0.8
	c-0.3,0.1,0.9,0.1,1,0.1c0.4,0,0.7,0.2,1.1,0.3c2.4,0.5,3.5-3.3,1-3.7c-0.5-0.1-0.9-0.3-1.4-0.4c-0.6-0.1-1.2,0-1.8,0.1
	c-0.6,0.1-1.2,0.1-1.7,0.4c-0.4,0.2-0.7,0.6-1,0.8c0.3-0.1,0.7-0.2,1-0.3c-0.9,0.1-1.8,0.1-2.7,0.3c-0.7,0.2-1.2,0.8-1.7,0.9
	c-0.3,0.1,0.2,0.1-0.4-0.1c-0.4-0.1-1-0.1-1.3,0c-0.4,0.1-0.8,0.4-1,0.6c-0.1,0.1-0.1,0.1-0.2,0.2c-0.4,0.5-0.4,0.5,0.1,0.1
	c-0.8,0-1.5,0.4-2.3,0.7c-0.8,0.3-1.4,0.6-2.1,1.1c-1.4,0.9-3,2.1-3,4c0,0.9,0.4,1.6,1.1,2.1c0.6,0.5,1.4,0.7,2,1.1
	c0.3,0.2,0.9,0.8,1.4,1.1c0.8,0.4,1.6,0.6,2.4,0.8c0.8,0.2,1.5,0.5,2.3,0.3c0.9-0.2,1.2-0.8,1.8-1.4c0.4-0.4,0.8-0.8,1-1.3
	c0.5-1,0.1-1.7-0.1-2.7c0,0.3,0,0.7,0,1c0.1-0.5,0.4-1,0.4-1.5c0-0.5,0-1.1-0.1-1.6c-0.1-0.4-0.5-1-0.5-1.2
	c-0.1-0.4-0.1-1.1-0.1-1.6c0-0.6,0.2-1.2,0.2-1.8c0-0.5-0.2-1-0.1-1.6c0.1-0.4-0.1,0.1,0.1-0.3c0.1-0.2,0.3-0.4,0.3-0.7
	c0.2-0.6,0.1-1.2,0-1.8c-0.1-1.1,0.5-2.2,0.2-3.3c-0.1-0.4-0.3-0.7-0.3-1.2c0.1-0.3,0.4-0.8,0.5-1.3c0.1-0.6-0.1-1-0.2-1.5
	c-0.1-0.5,0-1,0-1.5c0-0.5,0.1-0.9,0.2-1.4c0.1-0.8-0.1-1.4-0.3-2.2c0,0.3,0,0.7,0,1c0.3-1.2,0.9-2.4,0.5-3.7
	c-0.2-0.5-0.4-0.8-0.4-1.3c0-0.7,0.1-1.3,0.2-2c0.1-1-0.3-2.1-1.4-2.4C304.5,13.3,303.1,13.8,303,14.9L303,14.9z"/>
<path class="st0" d="M331.5,21.3c-0.3,1-0.4,1.6-0.3,2.6c0,0.6-0.2,0.9-0.5,1.5c-0.4,0.8-0.1,1.5-0.1,2.1c0,0.7-0.4,1.3-0.6,1.9
	c-0.3,0.8-0.3,1.6-0.3,2.5c0,0.8-0.3,1.5-0.2,2.3c0,0.4,0.1,0.9,0.1,1.3c0,0.2-0.1,0.4-0.2,0.6c-0.3,0.9,0.1,1.6,0.2,2.5
	c0-0.3,0-0.7,0-1c-0.2,0.8-0.4,1.4-0.3,2.3c0.1,0.7,0,1.4,0,2.2c-0.1,1.4,0.2,2.9,0.4,4.3c0.1,1,0.8,1.9,1.9,1.9
	c1,0,2.1-0.9,1.9-1.9c-0.2-2.2-0.5-4.4-0.4-6.6c0-0.5,0.3-1,0.3-1.6c0-0.3-0.1-0.6-0.1-0.8c-0.2-0.8-0.2,0.2-0.1-0.3
	c0.1-0.5,0.3-0.9,0.3-1.4c0-0.6-0.2-1.2-0.2-1.8c0-0.5,0.2-1,0.3-1.5c0-0.5,0-0.9,0.1-1.4c0.2-1,0.7-1.9,0.8-2.9c0-0.4,0-0.7,0-1.1
	c-0.1-0.6,0-0.1-0.1,0c0.3-0.4,0.5-0.9,0.6-1.4c0.1-0.6,0.2-1.2,0.2-1.8c-0.1-0.6,0-0.6,0.2-1.3C336,19.9,332.2,18.9,331.5,21.3
	L331.5,21.3z"/>
<path class="st0" d="M348,31c0.7-0.2,1.4-0.5,2.2-0.7c0.9-0.3,1.8-0.4,2.7-0.7c0.8-0.2,1.6-0.5,2.5-0.6c0.9-0.1,1.8-0.4,2.6-0.7
	c1-0.2,1.7-1.4,1.4-2.4c-0.3-1-1.3-1.6-2.4-1.4c-0.8,0.2-1.7,0.5-2.5,0.7c-0.9,0.1-1.7,0.4-2.6,0.6c-0.9,0.3-1.7,0.4-2.6,0.6
	c-0.8,0.2-1.5,0.5-2.3,0.8c-1,0.3-1.7,1.4-1.4,2.4C345.9,30.6,346.9,31.3,348,31L348,31z"/>
<path class="st0" d="M349.6,39c1.4,0.1,3,0.1,4.3,0.2c0.6,0.1,1.3,0,1.9-0.1c0.2,0,0.9-0.2,1-0.2c0,0,0.5,0.1,0.7,0.1
	c0.8,0.1,1.7,0.1,2.5,0c0,0,0.5-0.2,0.4-0.1c0.1,0,0.8,0.1,1,0.1c0.5,0,1.3-0.2,1.7-0.2c0.3,0,0.6,0.1,1,0.1c0.4,0,0.8-0.1,1.2-0.1
	c1-0.1,1.9-0.8,1.9-1.9c0-1-0.9-2.1-1.9-1.9c-0.7,0.1-1.4,0.1-2.2,0.1c-0.3,0-0.7,0-1,0.1c0,0-0.7,0.2-0.4,0.2
	c-0.4,0-0.8-0.2-1.2-0.2c-0.3,0-0.7,0.1-1,0.2c-0.4,0.1-1.1,0.1-1.5,0.1c-0.4,0-0.7-0.1-1.1-0.1c-0.4,0-0.8,0.1-1.2,0.2
	c-0.3,0-1.1,0.1-1.4,0.1c-1.5-0.1-3.1-0.2-4.6-0.3c-1-0.1-1.9,1-1.9,1.9C347.7,38.2,348.5,38.9,349.6,39L349.6,39z"/>
<path class="st0" d="M72,90.3c0.3-0.3,0.8-0.9,0.8-1.4c-0.8,0.7-0.9,0.9-0.4,0.8c0.2,0,0.4-0.1,0.6-0.2c0.2,0,0.4,0.1,0.7,0.1
	c0.7,0,1.5,0,2.1-0.4c0.2-0.2,0.4-0.4,0.6-0.6c0.1-0.2,0.6-0.8,0.1-0.4c-0.4,0.2-0.8,0.4-1.3,0.5c0.4,0,1,0.2,1.5,0.1
	c0.4,0,0.8-0.1,1.1-0.3c0.3-0.1,0.5-0.5,0.7-0.6c0,0-0.3,0,0.2-0.1c0.3,0,0.7,0.1,1,0c-0.1,0,0.9-0.4,0.9-0.4c0,0.1-1.9-0.2-0.7,0.2
	c0.7,0.2,1.3,0.2,2,0c0.3-0.1,0.6-0.2,0.9-0.3c0.6-0.4-0.6,0,0.4-0.1c0.8-0.1,1.2-0.4,1.7-1c0.5-0.7-0.2-0.1-0.1,0
	c0,0,0.7-0.3,0.7-0.4C85,85.8,84.5,85.9,84,86c0.7,0.1,1.1,0.6,1.9,0.4c0.3-0.1,0.7-0.3,1-0.6c0.2-0.2,0.9-0.9,0.1-0.3
	c-0.5,0.1-0.9,0.1-1.4,0.2c0.7,0.1,1.1,0.5,1.9,0.3c0.3-0.1,0.6-0.3,0.9-0.5c0.6-0.5-1.9-0.3-0.6,0.1c0.8,0.3,1.5,0.2,2.2-0.3
	c0.2-0.2,0.4-0.4,0.5-0.6c0.1-0.1,0.1-0.3,0.2-0.4c0.2-0.5,0.1-0.3-0.4,0.4c-0.5,0.1-0.9,0.1-1.4,0.2c-0.4-0.1-0.3-0.1,0.1,0.1
	c0.2,0.1,0.3,0.3,0.6,0.3c0.6,0.3,1.3,0.2,1.8-0.1c0.1-0.1,1-1.1,1-1.1c0,0-0.8,0.5,0,0.3c0.3-0.1,0.5-0.3,0.8-0.4c-0.3,0-0.6,0-1,0
	c-0.4-0.2-0.4-0.2-0.1,0c0.2,0.1,0.3,0.3,0.5,0.4c0.4,0.2,0.8,0.3,1.3,0.2c0.4-0.1,0.9-0.3,1.2-0.6c0.2-0.2,1.1-1.1,0.1-0.5
	c-0.5,0.1-0.9,0.1-1.4,0.2c0.8,0.2,1.2,0.7,2.1,0.3c0.4-0.1,0.6-0.4,0.9-0.7c0.3-0.3,0.8-0.8,0-0.2c-0.5,0.1-0.9,0.1-1.4,0.2
	c0.6,0.1,1.3,0.4,1.9,0.4c0.8,0,1.5-0.3,2-1c0.2-0.3,0.2-0.2-0.1,0.1c0.3,0,0.4,0,0.3-0.1c0.3,0.2,0.6,0.3,0.9,0.4
	c1,0.2,1.4-0.3,2.1-0.7c-0.5,0.1-0.9,0.1-1.4,0.2c0.5,0.1,1,0.3,1.6,0.2c0.5-0.1,0.9-0.4,1.4-0.5c0.4,0,0.8,0.2,1.2,0
	c0.5-0.1,0.8-0.5,1.2-0.8c-0.5,0.1-0.9,0.1-1.4,0.2c0.9,0.1,1.5,0.5,2.3,0c0.2-0.1,0.3-0.2,0.5-0.3c0.2-0.2,0.2-0.3,0.2-0.1
	c0.4-0.1,0.8,0,1.2-0.1c0.8-0.2,1.5-0.2,2.4-0.1c1,0,1.6,0,2.5-0.3c-0.3,0-0.6,0-1,0c0.6,0.1,1.1,0.3,1.8,0.2c0.6-0.1,1-0.5,1.6-0.5
	c-0.3,0-0.6,0-1,0c-0.5-0.3-0.6-0.4-0.3-0.1c0.2,0.2,0.4,0.3,0.5,0.4c0.5,0.3,1,0.4,1.6,0.2c0.1,0,1.2-0.7,1.2-0.8
	c-0.6,0.2-0.7,0.3-0.1,0.2c0.3,0,0.5,0.1,0.8,0.1c1,0.1,1.8-0.9,1.8-1.8c0-1.1-0.8-1.7-1.8-1.8c-0.7-0.1-1.4-0.2-2.1,0
	c-0.5,0.1-0.8,0.5-1.2,0.8c0.5-0.1,0.9-0.1,1.4-0.2c0.5,0.3,0.6,0.4,0.3,0.1c-0.2-0.2-0.4-0.3-0.5-0.4c-0.3-0.2-0.7-0.3-1.1-0.3
	c-0.9,0-1.7,0.4-2.5,0.8c0.5-0.1,0.9-0.1,1.4-0.2c-0.4-0.1-0.9-0.3-1.3-0.3c-0.4,0-0.8,0.3-1.2,0.3c-0.1,0-0.7-0.1-0.8-0.1
	c-0.5,0-1,0-1.4,0c-0.9,0-1.8,0.2-2.7,0.3c-0.4,0.1-0.8,0.2-1.2,0.3c-0.3,0.1-0.5,0.4-0.7,0.6c0.5-0.1,0.9-0.1,1.4-0.2
	c-0.5-0.1-1-0.3-1.6-0.2c-0.2,0-1.5,0.4-1.4,0.8c0-0.2,1.5-0.2,0.3-0.3c-0.3,0-0.5,0-0.8,0c-0.6,0.1-1,0.3-1.6,0.5c0.3,0,0.6,0,1,0
	c-0.6-0.1-1.1-0.4-1.8-0.2c-0.5,0.1-0.8,0.5-1.2,0.7c0.5-0.1,0.9-0.1,1.4-0.2c-0.3-0.1-0.6-0.4-0.9-0.4c-0.5-0.1-1.2-0.1-1.8,0
	c-0.6,0.1-2.1,0.6-2.1,1.3c1.2-0.3,1.4-0.5,0.6-0.5c0.3,0.1,0.3,0.1,0,0c-0.4-0.1-0.7-0.3-1.1-0.3c-0.5,0-1,0.2-1.4,0.6
	c-0.1,0.2-0.3,0.4-0.4,0.6c-0.2,0.4-0.1,0.3,0.3-0.1c0.5-0.1,0.9-0.1,1.4-0.2c-0.8-0.2-1.2-0.7-2.1-0.3c-0.3,0.1-0.6,0.4-0.9,0.7
	c-0.2,0.3-0.8,0.9,0,0.3c0.5-0.1,0.9-0.1,1.4-0.2c0.5,0.1,0.3,0.1,0-0.2c-0.2-0.2-0.5-0.3-0.8-0.4c-0.7-0.2-1.2,0-1.8,0.3
	c-0.4,0.2-0.9,0.3-1.4,0.5c-0.3,0.2-0.5,0.4-0.7,0.7c-0.2,0.3-0.6,0.6,0.1,0.1c0.5-0.1,0.9-0.1,1.4-0.2c0.4,0.2,0.4,0.2,0.1,0
	c-0.2-0.1-0.3-0.3-0.5-0.4c-0.5-0.2-1-0.4-1.5-0.2c-0.5,0.1-0.9,0.5-1.2,0.9c-0.1,0.2-0.2,0.4-0.3,0.6c-0.1,0.3-0.1,0.3,0.1-0.1
	c0.4-0.2,0.8-0.4,1.3-0.5c0.5,0.1,0.5,0.1,0-0.1c-0.3-0.1-0.6-0.2-0.9-0.2c-0.7,0-1.1,0.4-1.6,0.8c0.5-0.1,0.9-0.1,1.4-0.2
	c-0.7-0.1-1.1-0.6-1.9-0.3c-0.3,0.1-0.7,0.3-1,0.6c-0.2,0.2-0.9,0.9-0.1,0.3c0.5-0.1,0.9-0.1,1.4-0.2c-0.3-0.1-0.6-0.3-0.9-0.4
	c-0.5-0.1-0.9,0-1.4,0.2c-0.6,0.3-1.4,0.6-1.7,1.3c-0.3,0.6,1.4-0.4,0.4-0.3c-0.4,0-1.1,0.2-1.4,0.5c-0.1,0-0.1,0-0.2,0
	c0.6,0.2,0.7,0.2,0.3,0c-0.5-0.2-0.9-0.3-1.4-0.2c-0.1,0-1.2,0.3-1.2,0.5c0.6-0.1,0.7-0.2,0.3-0.2c-0.2,0-0.3,0-0.5,0
	c-0.1,0-2.6,1-2.4,1.1c0.7-0.2,0.7-0.2,0.1-0.2c0,0,0,0,0,0c-0.4-0.2-1-0.2-1.4-0.1c-0.3,0.1-0.7,0.3-0.9,0.6
	c-0.1,0.1-1,1.3-0.4,0.8c0.4-0.2,0.8-0.4,1.3-0.5c-0.6,0-1-0.1-1.6-0.1c-0.6,0-1.2,0.2-1.8,0.4c-0.5,0.1-1,0.3-1.3,0.7
	c-0.2,0.3-0.4,0.6-0.5,0.9c-0.2,0.4-0.3,0.4,0.1-0.1C67.8,89.3,70.3,91.9,72,90.3L72,90.3z"/>
<path class="st0" d="M92.7,77.2c0.1,0.7,0.2,1,0.1,1.7c0,0.5-0.1,1.1-0.1,1.6c0,0.6,0.1,1.1,0.1,1.7c0,0.1,0,0.3,0,0.4
	c0-0.2,0,0.1,0,0.1c-0.1,0.4-0.1,0.8-0.2,1.2c0,0.6-0.1,1.3,0,1.9c0,0.1,0.2,0.8,0.2,0.4c-0.1-0.5-0.1,0.4-0.1,0.5
	c0,0.1,0,0.3,0,0.4c0,0.3,0,0.5,0,0.8c0,0,0.1,0.7,0.1,0.7c-0.1,0,0.2-0.6,0-0.2c-0.4,0.8-0.1,1.5,0,2.3c0.1,1,1.4,1.5,2.2,1.3
	c1-0.3,1.4-1.2,1.3-2.2c0-0.3-0.1-0.5-0.2-0.8c0,0.3,0,0.6,0,1c0.1-0.7,0.4-1.2,0.2-2c-0.1-0.3-0.1-0.8,0-1.1c0.1-0.4,0.1-0.9,0-1.3
	c0-0.1-0.2-0.7-0.1-0.4c0-0.3,0-0.5,0-0.8c0-0.3,0-0.4,0-0.4c0.3-1.2,0.2-2.2,0.1-3.4c0-0.5,0-1.1,0.1-1.6c0-0.3,0-0.5,0-0.8
	c0-0.2,0-0.5-0.1-0.7c0-0.2,0-0.3,0-0.1c-0.1-1-0.8-1.8-1.8-1.8C93.6,75.4,92.6,76.3,92.7,77.2L92.7,77.2z"/>
<path class="st0" d="M89,97.3c0.3-0.2,0.7-0.3,0.9-0.6c0.3-0.2,0.3-0.2,0-0.1c0.2,0,0.3,0,0.5,0c0.9-0.1,1.3-0.7,1.8-1.2
	c-0.3,0.2-0.5,0.3-0.8,0.5c0.9-0.2,2-0.5,2.9-1c0.1-0.1,0.2-0.1,0.3-0.2c0.3-0.2,0.2-0.2-0.1,0c0.3-0.1,0.6-0.1,1-0.2
	c0.6-0.3,0.9-0.7,1.3-1.2c-0.2,0.2-0.4,0.4-0.6,0.6c0.4-0.3,1.2-0.4,1.8-0.6c0.4-0.1,0.7-0.1,1.1-0.3c0.2-0.1,0.4-0.2,0.6-0.3
	c0.1-0.1,0.7-0.5,0.4-0.4c-0.3,0.1,0.2,0,0.3,0c0.2,0,0.3-0.1,0.5-0.1c0.4-0.1,0.8-0.2,1.2-0.5c0.1-0.1,0.2-0.1,0.3-0.2
	c0.1-0.1,0.1-0.1-0.1,0.1c-0.3,0.1-0.2,0.2,0.1,0.1c0.1,0,0.2,0,0.4-0.1c0.5-0.1,0.8-0.4,1.3-0.6c-0.3,0.1-0.6,0.2-0.9,0.2
	c0.2,0,0.8,0.1,1.1,0.1c0.3-0.1,0.6-0.1,0.9-0.3c0.1,0,0.7-0.5,0.4-0.4c-0.4,0.2,0.4-0.1,0.1-0.1c-0.3,0,0.6,0,0.7,0
	c0.6,0,1.1-0.4,1.6-0.6c0.9-0.4,1.1-1.7,0.6-2.5c-0.5-0.9-1.6-1-2.5-0.6c-0.3,0.1-0.5,0.2-0.7,0.4c0.3-0.1,0.6-0.2,0.9-0.2
	c-0.6,0-1.2,0-1.8,0.2c-0.5,0.2-1,0.6-1.4,0.8c0.3-0.1,0.6-0.2,0.9-0.2c-0.4,0-1-0.1-1.6,0.1c-0.3,0.1-0.4,0.3-0.7,0.4
	c0.3-0.1-0.6,0-0.6,0.1c-0.3,0.1-0.5,0.2-0.8,0.4c-0.1,0.1-0.2,0.2-0.4,0.3c0.1-0.1,0.1-0.1,0.2-0.2c-0.5,0.1-1.1,0.2-1.5,0.4
	c-0.3,0.1-0.5,0.3-0.8,0.5c-0.4,0.4,0.6,0,0,0c-0.5,0-0.9,0.3-1.3,0.4c-0.5,0.1-1,0.2-1.5,0.4c-0.7,0.3-1.1,0.7-1.5,1.3
	c0.2-0.2,0.4-0.4,0.6-0.6c0.3-0.1,0.2-0.1-0.1,0c-0.2,0-0.3,0-0.5,0.1c-0.2,0.1-0.5,0.2-0.7,0.3c-0.9,0.6,0.1,0.1-0.5,0.3
	c-0.2,0.1-0.5,0.2-0.7,0.3c0,0-0.7,0.2-0.4,0.1c-0.3,0.1-0.6,0.1-1,0.2c-0.6,0.2-0.8,0.7-1.2,1c0.3-0.2,0.5-0.3,0.8-0.5
	c-0.3,0.1-1,0-1.4,0.3c-0.4,0.2-0.8,0.5-1.3,0.8C85.2,95.3,87,98.4,89,97.3L89,97.3z"/>
<path class="st0" d="M86,103.1c0,0.7-0.1,1.5,0.1,2.2c0.1,0.7,0.5,1.4,0.8,2c-0.1-0.1-0.1-0.3-0.2-0.4c0.2,0.4,0.3,0.7,0.5,1.1
	c0.2,0.4,0.5,0.7,0.7,1c0.4,0.4,0.7,0.9,1.2,1.2c0.4,0.3,0.8,0.5,1.3,0.5c0.4,0,1-0.2,1.3-0.5c0.3-0.3,0.5-0.8,0.5-1.3
	c0-0.4-0.2-1-0.5-1.3c-0.5-0.4-0.9-0.8-1.2-1.2c0.1,0.1,0.2,0.2,0.3,0.4c-0.2-0.3-0.4-0.6-0.6-1c0.1,0.1,0.1,0.3,0.2,0.4
	c-0.2-0.5-0.4-0.9-0.6-1.4c0.1,0.1,0.1,0.3,0.2,0.4c-0.1-0.3-0.3-0.7-0.3-1.1c0,0.2,0,0.3,0.1,0.5c0-0.5,0-1,0-1.5
	c0.1-0.9-0.9-1.8-1.8-1.8C86.8,101.4,86.1,102.1,86,103.1L86,103.1z"/>
<path class="st0" d="M88.5,104.9c0.6-0.2,1.2-0.3,1.7-0.8c0,0,0.3-0.2,0.2-0.2c0,0.1-0.6,0.2-0.2,0.2c0.3,0,0.5-0.2,0.8-0.3
	c0.3-0.1,0.6-0.2,0.9-0.4c0.2-0.1,0.4-0.3,0.5-0.3c0,0,0.4-0.1,0.6-0.1c0.4-0.1,0.6-0.3,0.9-0.5c0.2-0.1,0.8-0.2,1.1-0.3
	c0.3-0.1,0.6-0.2,0.9-0.4c0.3-0.2,0.2-0.1,0.5-0.2c0.3-0.1,0.2-0.1,0.4-0.1c0.4,0,0.7-0.1,1.1-0.3c0.3-0.1,0.3-0.1,0.5-0.2
	c0.3-0.1,0.5-0.2,0.7-0.3c0.1,0,0.3,0,0.1,0c-0.1,0-0.1-0.1,0,0c0.1,0,0.2,0.1,0.3,0.1c0.4,0.1,0-0.1-0.1-0.1c0,0-0.1-0.1-0.1-0.1
	c0,0,0.1,0.3,0.1,0.3c0,0.2,0,0.1,0,0c0,0.2,0,0.3,0.1,0c0.2-0.4,0-0.1-0.1,0c-0.1,0.1-0.2,0.3-0.3,0.4c-0.2,0.2-0.3,0.5-0.4,0.8
	c0,0.1-0.1,0.2,0,0.3c-0.1-0.5,0.8-0.7,0.3-0.5c-0.3,0.1-0.6,0.4-0.8,0.6c-0.1,0.1-0.2,0.2-0.3,0.3c0,0,0.1-0.1,0,0
	c-0.1,0.1-0.5,0.3-0.4,0.2c-0.6,0.2-1.1,0.5-1.6,0.7c-0.4,0.2-0.6,0.3-1.1,0.5c-0.5,0.2-0.9,0.6-1.4,0.8c0,0,0.4-0.1-0.1,0
	c-0.1,0-0.2,0.1-0.4,0.1c-0.3,0.1-0.6,0.3-0.9,0.4c0.2-0.1-0.1,0-0.1,0c-0.1,0-0.2,0.1-0.4,0.1c-0.4,0.2-0.5,0.2-1,0.4
	c-0.3,0.1-0.2,0.1-0.1,0c-0.2,0.1-0.5,0.2-0.7,0.3c-0.2,0.1-0.5,0.2-0.7,0.4c-0.2,0.1-0.7,0.4-0.8,0.6c-0.1,0.3,0.2-0.2,0.3-0.1
	c-0.1,0-0.5,0.1-0.6,0.1c-0.9,0.3-1.5,1.2-1.3,2.2c0.3,0.9,1.3,1.5,2.2,1.3c0.5-0.1,0.9-0.2,1.4-0.4c0.3-0.1,0.5-0.2,0.8-0.3
	c-0.1,0.1,0.7-0.5,0.6-0.5c-0.4,0.2-0.4,0.3-0.1,0.2c0.1,0,0.3-0.1,0.4-0.1c0.2-0.1,0.4-0.1,0.6-0.1c0.4-0.1,1-0.4,1.3-0.5
	c1-0.3,1.7-0.7,2.6-0.9c0.4-0.1,0.9-0.3,1.3-0.4c0.6-0.2,0.7-0.2,1.4-0.4c0.9-0.2,1.5-1.3,1.3-2.2c-0.3-1-1.3-1.5-2.2-1.3
	c-0.3,0.1-1,0.2-1.4,0.4c-0.4,0.2-0.8,0.3-1.2,0.4c-0.5,0.1-1.1,0.3-1.4,0.5c-0.5,0.2-0.9,0.4-1.3,0.5c-0.4,0.1-1,0.4-1.3,0.5
	c-0.4,0.1-0.9,0.2-1.3,0.3c-0.4,0.1-0.7,0.3-1,0.6c0,0-0.1,0.1-0.1,0.1c-0.2,0.2-0.2,0.2,0.2-0.1c0,0-1.3,0.4-1.4,0.4
	c0.3,1.2,0.6,2.3,1,3.5c0.7-0.2,1.3-0.3,1.8-0.9c0.2-0.2,0.1-0.1,0,0c0.1-0.1,0.2-0.1,0.3-0.2c0.1-0.1,0.2-0.1,0.3-0.2
	c-0.3,0.1,0.9-0.3,0.5-0.2c0.3-0.1,0.2-0.1,0.1,0c0.2-0.1,0.4-0.2,0.6-0.3c-0.2,0.1,0.1,0,0.1,0c0.1,0,0.2-0.1,0.4-0.1
	c0.3-0.1,0.6-0.3,0.9-0.4c-0.2,0.1,0.1,0,0.1,0c0.3-0.1,0.6-0.2,0.8-0.3c0.2-0.1,0.4-0.3,0.7-0.4c0.1-0.1,0.2-0.1,0.3-0.2
	c0,0,0.3-0.2,0.1-0.1c0.3-0.2,0.7-0.2,1-0.4c0.3-0.1,0.5-0.3,0.8-0.4c0.1-0.1,0.3-0.2,0.4-0.2c0,0-0.3,0.1,0.1,0
	c0.3-0.1,0.7-0.2,1-0.4c0.3-0.2,0.6-0.4,0.9-0.6c0.1-0.1,0.2-0.2,0.3-0.3c0-0.1,0.1-0.1,0.1-0.2c-0.1,0.1-0.1,0.1,0,0
	c0.7-0.4,1.2-0.8,1.4-1.6c0-0.1,0.1-0.2,0.1-0.3c0-0.3-0.4,0.4-0.1,0.3c0.3-0.1,0.6-0.8,0.7-1.1c0.4-1.4,0-3.2-1.1-4.1
	c-1.1-1-3.1-1.2-4.4-0.5c-0.2,0.1-0.4,0.2-0.7,0.3c-0.3,0.2-0.2,0.1-0.1,0.1c0.2-0.1-0.1,0-0.1,0c-0.7,0-1.6,0.3-2.3,0.7
	c-0.2,0.1-0.2,0.3,0.1,0c-0.1,0.1-0.6,0.1-0.8,0.1c-0.3,0.1-0.6,0.2-0.9,0.3c-0.2,0.1-0.4,0.2-0.6,0.3c0,0-0.4,0.3-0.3,0.2
	c-0.4,0.2-0.7,0.2-1.1,0.4c-0.1,0.1-0.3,0.2-0.4,0.3c0.2-0.1-0.2,0.1-0.2,0.1c-0.3,0.1-0.6,0.2-0.9,0.3c-0.5,0.2-0.9,0.4-1.2,0.7
	c-0.3,0.3,0.2-0.2,0.2-0.1c0,0-0.6,0.1-0.6,0.1c-0.9,0.3-1.5,1.2-1.3,2.2C86.6,104.5,87.6,105.2,88.5,104.9L88.5,104.9z"/>
<path class="st0" d="M86.6,116.2c0.3,0.2,0.6,0.4,0.9,0.6c-0.1-0.1-0.2-0.2-0.4-0.3c0.5,0.4,0.9,0.7,1.4,1c0.4,0.2,0.8,0.5,1.1,0.8
	c-0.1-0.1-0.2-0.2-0.4-0.3c0.3,0.2,0.6,0.4,0.8,0.6c0.4,0.3,1,0.3,1.4,0.2c0.4-0.1,0.9-0.4,1.1-0.8c0.2-0.4,0.3-0.9,0.2-1.4
	c-0.1-0.1-0.1-0.3-0.2-0.4c-0.2-0.3-0.4-0.5-0.6-0.6c-0.1-0.1-0.1-0.1-0.2-0.2c0.1,0.1,0.2,0.2,0.4,0.3c-0.4-0.3-0.9-0.7-1.4-1
	c-0.4-0.2-0.7-0.5-1.1-0.7c0.1,0.1,0.2,0.2,0.4,0.3c-0.3-0.2-0.6-0.5-0.9-0.7c-0.2-0.2-0.4-0.3-0.7-0.4c-0.4-0.3-1-0.3-1.4-0.2
	c-0.4,0.1-0.9,0.4-1.1,0.8c-0.2,0.4-0.3,0.9-0.2,1.4c0.1,0.1,0.1,0.3,0.2,0.4C86.1,115.9,86.3,116.1,86.6,116.2L86.6,116.2z"/>
<path class="st0" d="M98.9,109.1c-0.1,0.2-0.2,0.4-0.3,0.7c-0.1,0.3,0.1,0,0,0c0,0.1-0.4,0.6-0.5,0.7c-0.1,0.2,0.2-0.2,0,0
	c-0.1,0.1-0.1,0.2-0.2,0.3c-0.2,0.2-0.4,0.4-0.6,0.7c0,0-0.6,0.8-0.6,0.8c0,0,0.1-0.1,0.1-0.1c-0.1,0.1-0.2,0.2-0.2,0.3
	c-0.1,0.1-0.2,0.3-0.3,0.4c-0.2,0.3,0.1-0.1,0,0c-0.2,0.2,0.3-0.2,0,0c-0.4,0.3-0.7,0.5-1,1c0,0-0.2,0.3-0.2,0.3
	c0-0.1,0.1-0.1,0.1-0.2c0,0-0.1,0.1-0.1,0.1c-0.2,0.2-0.4,0.3-0.5,0.4c-0.1,0.1-0.2,0.2-0.3,0.3c-0.1,0.1-0.1,0.1-0.2,0.2
	c-0.1,0.1-0.1,0.1,0.1-0.1c-0.1,0.1-0.2,0.1-0.3,0.2c-0.2,0.1-0.4,0.3-0.5,0.4c-0.3,0.3-0.7,0.6-1,0.9c-0.1,0.1-0.1,0.1,0,0
	c0.2-0.1,0.1-0.1-0.3,0.2c0,0-0.4,0.3-0.2,0.2c0.2-0.1-0.2,0.1-0.2,0.1c-0.1,0.1-0.3,0.2-0.4,0.3c-0.8,0.5-1.2,1.6-0.6,2.5
	c0.5,0.8,1.6,1.2,2.5,0.6c0.2-0.2,0.5-0.3,0.7-0.5c0.2-0.1,0.4-0.3,0.6-0.4c0.1-0.1,0.2-0.1,0.1-0.1c-0.2,0.1-0.1,0.1,0.3-0.2
	c0.4-0.3,0.7-0.7,1.1-1c0.2-0.2-0.2,0.1,0,0c0.1-0.1,0.2-0.1,0.3-0.2c0.3-0.2,0.6-0.5,0.9-0.7c0.5-0.4,0.9-0.8,1.3-1.3
	c0.1-0.2,0.1-0.2,0,0c0.3-0.3-0.3,0.2,0.1-0.1c0.4-0.3,0.6-0.5,0.9-0.9c0,0,0.2-0.3,0.2-0.3c0,0-0.1,0.1-0.1,0.1
	c0.1-0.1,0.2-0.2,0.2-0.3c0.1-0.1,0.2-0.3,0.3-0.4c0-0.1,0.3-0.4,0.1-0.1c0.4-0.5,0.8-1,1.2-1.5c0.2-0.2,0.3-0.4,0.5-0.7
	c0.1-0.2,0.2-0.5,0.3-0.7c0-0.1,0.2-0.5,0-0.1c0.4-0.8,0.2-2-0.6-2.5C100.5,108.1,99.3,108.2,98.9,109.1L98.9,109.1z"/>
<path class="st0" d="M81.1,125.4c0.8-0.2,1.5-0.5,2.1-1c0.6-0.4,0.5-0.4-0.3-0.1c0.2,0.1,0.4,0.1,0.6,0.1c0.5,0,0.9-0.1,1.4-0.3
	c0.4-0.2,0.6-0.5,1-0.6c0.3-0.1,0.5-0.1,0.8-0.1c0.4,0,0.8-0.2,1.1-0.4c0.5-0.2,0.3-0.2,0.8-0.3c0.2,0,2.8-0.8,2.6-1
	c-0.6,0.1-0.7,0.2-0.3,0.2c0.2,0,0.3,0,0.5-0.1c0.5-0.1,0.9-0.4,1.4-0.5c0.9-0.2,1.8-0.4,2.8-0.7c0.8-0.2,1.4-0.5,2.1-0.8
	c0.1,0,1.3-0.5,1.2-0.7c-0.8,0.1-1,0.1-0.5,0.2c0.2,0,0.3,0,0.5,0c0.5,0,1.1-0.1,1.5-0.3c0.1,0,1.1-0.5,0.4-0.3
	c0.4-0.2,0.9-0.1,1.3-0.3c0.2-0.1,0.4-0.3,0.6-0.4c-0.6,0.1-0.7,0.1-0.3,0.2c0.8,0,1.9-0.2,2.4-0.8c0.2-0.1,0.3-0.3,0.4-0.4
	c0.3-0.3,0.2-0.3-0.2,0.1c-0.6-0.2-0.7-0.3-0.4-0.1c0.2,0.1,0.4,0.2,0.6,0.2c1,0.3,1.9-0.1,2.4-0.9c0.2-0.3,0.2-0.3-0.2,0.1
	c0.1-0.1,0.2-0.1,0.4-0.2c0.5-0.1,1.1-0.2,1.6-0.3c0.4-0.1,0.8-0.3,1.2-0.4c0.5-0.2,0.5-0.2,0,0c0.3,0,0.5,0.1,0.8,0.1
	c2.3,0.1,2.3-3.5,0-3.6c-0.5,0-0.9-0.2-1.4-0.1c-0.4,0.1-0.7,0.3-1.1,0.5c-0.9,0.3-1.9,0.3-2.8,0.8c-0.3,0.2-0.6,0.3-0.9,0.6
	c-0.2,0.2-0.3,0.4-0.4,0.6c1.7-0.1,2.2-0.3,1.4-0.6c-0.7-0.5-1.6-0.3-2.4,0.1c-0.5,0.3-0.9,0.5-1.2,1c-0.2,0.3-0.2,0.3,0,0
	c0.3-0.2,0.3-0.2,0-0.1c-0.3-0.1-1,0-1.3,0.2c-0.2,0.1-1.4,0.8-0.4,0.4c-0.4,0.1-0.9,0.1-1.3,0.3c-0.3,0.1-0.4,0.3-0.7,0.3
	c-0.4,0.1-0.8-0.1-1.2,0c-0.5,0.1-0.6,0.4-1,0.6c-1.5,0.9-3,1.1-4.7,1.5c-0.4,0.1-0.8,0.3-1.2,0.4c0.7-0.3-0.7,0-0.8,0.1
	c-0.4,0.1-0.7,0.4-1,0.6c-0.2,0.1-0.8,0.1-1,0.2c-0.5,0.1-1,0.1-1.4,0.4c-0.2,0.1-0.3,0.2-0.4,0.3c-0.3,0.2-0.2,0.2,0.4,0
	c0-0.4-2.3,0.5-2.5,0.6c0.4-0.3-0.5,0.5-0.4,0.5c-0.3-0.1-0.5-0.1-0.8-0.1c-0.3,0-0.6,0.1-0.9,0.2c-0.6,0.3-1.1,0.8-1.8,1
	C77.9,122.5,78.9,126,81.1,125.4L81.1,125.4z"/>
<path class="st0" d="M86,127.1c-0.2,0.6-0.4,1.4-0.3,2.1c0,0.4,0.1,0.9,0.2,1.3c0.1,0.4,0.3,0.7,0.5,1.1c0.3,0.6,0.6,1.1,1.1,1.6
	c0.6,0.6,1.3,0.9,2.1,1.2c0.9,0.3,2-0.3,2.2-1.3c0.2-1-0.3-1.9-1.3-2.2c-0.1,0-0.3-0.1-0.4-0.1c0.1,0.1,0.3,0.1,0.4,0.2
	c-0.2-0.1-0.4-0.2-0.6-0.3c0.1,0.1,0.2,0.2,0.4,0.3c-0.2-0.2-0.4-0.4-0.6-0.6c0.1,0.1,0.2,0.2,0.3,0.4c-0.3-0.4-0.6-0.9-0.8-1.4
	c0.1,0.1,0.1,0.3,0.2,0.4c-0.1-0.3-0.2-0.5-0.2-0.8c0,0.2,0,0.3,0.1,0.5c0-0.3,0-0.6,0-1c0,0.2,0,0.3-0.1,0.5c0-0.3,0.1-0.5,0.2-0.7
	c0.2-0.4,0-1-0.2-1.4c-0.2-0.4-0.6-0.7-1.1-0.8c-0.5-0.1-1-0.1-1.4,0.2C86.4,126.3,86.1,126.6,86,127.1L86,127.1z"/>
<path class="st0" d="M88,129.2c-0.2,0.1,0.9-0.2,0.6-0.1c0.2-0.1,0.4-0.1,0.6-0.2c0.2-0.1,0.5-0.3,0.7-0.4c0.1,0,0.7-0.3,0.4-0.2
	c-0.3,0.1,0.5,0,0.6,0c0.2-0.1,0.5-0.1,0.7-0.3c0.2-0.1,0.4-0.3,0.6-0.4c0.2-0.2,0.2-0.2,0,0c-0.2,0.1-0.2,0.2,0.2,0.1
	c0.9-0.1,1.8-0.6,2.7-0.8c-0.2,0.1,0.4-0.1,0.3,0c0.3,0,0.5,0,0.8-0.2c0.6-0.3-0.3-0.2,0.2-0.1c0.3,0,0.6,0.1,0.9,0
	c0.5-0.1,1-0.1,1.5-0.3c0.1,0,0.3-0.1,0.4-0.2c-0.1,0-0.2,0-0.3,0c0,0,0.5,0,0.5,0.1c0.3,0,0.6,0,0.8-0.1c0.5-0.2-0.3-0.1,0.2,0
	c0.2,0,0.3,0,0.5,0.1c0.3,0,0.3,0,0-0.2c-0.5-0.4-0.1,0.1,0,0.1c0.2,0.1,0.3,0.3,0.5,0.4c0.1,0.1,0.2,0.3,0.4,0.4
	c-0.4-0.1-0.2-0.9-0.3-0.3c0,0.3,0.1,0.6,0.1,0.8c0.1-0.2,0.1-0.3,0-0.1c-0.1,0.2-0.1,0.2,0.1-0.1c-0.1,0.2-0.3,0.4-0.5,0.6
	c-0.1,0.2-0.2,0.5-0.3,0.7c0,0.2,0,0.3-0.1,0.5c0,0.2,0,0.3,0,0.1c0.2-0.3,0.3-0.5,0.5-0.8c-0.3,0.3-0.8,0.6-1.2,1
	c-0.1,0.1-0.5,0.5-0.5,0.7c0.6-0.3,0.6-0.4,0.2-0.3c-0.2,0.1-0.4,0.2-0.6,0.3c-0.9,0.4-1.1,1.7-0.6,2.5c0.5,0.9,1.6,1.1,2.5,0.6
	c-0.1,0.1,0,0.1,0.2,0c0.2-0.1,0.4-0.2,0.6-0.3c0.4-0.3,0.6-0.6,0.9-1c-0.2,0.2,0.8-0.7,0.3-0.3c0.2-0.2,0.4-0.3,0.7-0.5
	c0.3-0.3,0.6-0.7,0.7-1.1c0-0.2,0-0.3,0.1-0.5c0.1-0.4,0-0.3-0.2,0.3c0.1,0.1,0.9-1.6,0.9-1.9c0.1-0.6-0.1-0.9-0.1-1.5
	c0-0.2,0-0.6,0-0.9c-0.1-0.7-0.5-1.1-1-1.6c-0.4-0.4-0.9-0.9-1.3-1.2c-0.6-0.4-1.3-0.3-2-0.4c-0.4-0.1-0.8,0-1.2,0.1
	c-0.3,0-0.2,0-0.6,0c-0.6,0-1.2,0.3-1.5,0.5c-0.6,0-0.6,0.1-0.2,0.1c-0.2,0-0.5-0.1-0.7-0.1c-0.3,0-0.6,0.1-0.9,0.2
	c-0.7,0.2-1.4,0.3-2,0.6c-0.1,0-0.3,0.1-0.6,0.2c-0.4,0.1-0.7,0.2-1.1,0.3c-0.6,0.1-1.5,0.2-1.9,0.8c-0.3,0.3-0.1,0.2,0.5-0.1
	c-0.2,0-0.5,0-0.7,0.1c-0.3,0.1-0.6,0.2-0.9,0.3c-0.3,0.2-0.6,0.3-1,0.5c0.3-0.1,0.3-0.1,0,0c-0.2,0-0.5,0-0.7,0.1
	C84.8,126.3,85.8,129.8,88,129.2L88,129.2z"/>
<path class="st0" d="M89.1,136.8c0.2-0.1,1.7-0.7,1.7-0.7c-0.1,0-0.2,0.1-0.3,0.1c0.1,0,0.2,0,0.3,0c0.5,0,0.8-0.2,1.3-0.3
	c0.3-0.1,0.9-0.3,1.4-0.4c0.5-0.1,1.1-0.3,1.6-0.5c0.6-0.2,1.2-0.4,1.8-0.7c0.2-0.1,0.3-0.1,0.5-0.2c0.1,0,0.3-0.1,0.4-0.1
	c-0.2,0-0.2,0,0,0c0.3,0,0.7-0.1,1-0.2c-0.1,0,1-0.4,0.6-0.3c0.5-0.2,1.1-0.2,1.6-0.4c0.9-0.3,1.5-1.3,1.3-2.2
	c-0.3-0.9-1.3-1.5-2.2-1.3c-0.5,0.1-1.1,0.2-1.6,0.4c-0.1,0-0.8,0.4-0.9,0.4c0.1,0,0.2-0.1,0.3-0.1c-0.1,0-0.2,0-0.3,0
	c-0.7,0.1-1.4,0.3-2.1,0.6c-0.3,0.2-0.9,0.3-1.3,0.5c-1.1,0.4-2.3,0.6-3.4,1c-0.5,0.2,0.3,0.1-0.2,0c-0.3,0-0.7,0.1-1,0.2
	c-0.2,0.1-0.4,0.2-0.6,0.3c-0.2,0.1-0.2,0.1,0,0.1c-0.2,0.1-0.5,0.2-0.8,0.3c-0.9,0.3-1.5,1.2-1.3,2.2
	C87.1,136.4,88.1,137.1,89.1,136.8L89.1,136.8z"/>
<path class="st0" d="M124.3,106.6c-0.1,0.7-0.3,1.4-0.4,2.1c0,0.4-0.1,1.1,0.3,0.3c0.5-1-0.2,0.1-0.3,0.1c-0.7,1.1-0.2,2.4-0.2,3.6
	c0.1-0.3,0.2-0.6,0.2-0.9c-0.2,0.5-0.7,0.8-0.8,1.4c-0.1,0.6,0.3,1.1,0.3,1.6c0.1-0.5,0.1-0.9,0.2-1.4c-0.2,0.4-0.5,0.8-0.6,1.2
	c-0.1,0.5,0,0.8,0,1.3c0.1-0.3,0.2-0.6,0.2-0.9c-0.2,0.4-0.5,0.7-0.6,1.2c-0.1,0.5,0.1,0.9,0.1,1.3c0.1-0.3,0.2-0.6,0.2-0.9
	c-0.2,0.4-0.6,0.7-0.7,1.2c-0.2,0.6-0.2,1.4-0.2,2c0,1.8,2.5,2.5,3.4,0.9c0.6-1,1.2-1.5,2.1-2.2c0.5-0.4,0.7-0.9,1.2-1.1
	c0.7-0.4,1.1-0.5,1.6-1.1c0.3-0.3,0.6-0.6,0.9-0.8c0.3-0.2,0.7-0.5,1-0.7c0.7-0.6-0.7,0.1,0.4-0.2c0.5-0.1,1.1-0.2,1.5-0.5
	c0.5-0.3,0.8-0.7,1.3-0.9c-0.5,0.1-0.9,0.1-1.4,0.2c0.1,0,0.2,0.1,0.3,0.1c0.6,0.3,0.6,0.2,0.1-0.4c0-0.3,0-0.6,0-1
	c-0.3,1.1-0.1,1.6,0.2,2.6c0-0.3,0-0.6,0-1c-0.2,1-0.3,1.7,0.1,2.7c0.3,0.8,0.6,1.7,1.1,2.4c0.6,0.9,1.4,1.3,2.3,1.5
	c0.5,0.2,0.9,0.4,1.5,0.4c0.4,0,0.9-0.1,1.3-0.2c-0.3,0-0.6,0-1,0c1.1,0.4,2.1,0.5,3.3,0c0.5-0.2,0.8-0.6,1.3-0.9
	c0.5-0.3,1-0.5,1.4-1c0.2-0.2,0.3-0.4,0.4-0.6c0.3-0.6-0.3,0.2-0.3,0.1c0.1,0.3,1.4-1,1.4-1.1c0.7-1,1.6-1.9,2.2-3
	c1.1-2-2-3.8-3.1-1.8c-0.3,0.6-0.7,1-1.1,1.5c-0.3,0.3-0.6,0.6-0.8,1c-0.4,0.7,0.4,0-0.1,0.2c-0.6,0.2-0.8,0.7-1.3,1.1
	c-0.4,0.4-1.1,0.8-1.5,1c-0.4,0.2-0.5,0-1-0.1c-0.4-0.1-0.7,0.1-1.1,0c-0.2,0-0.2,0,0,0c-0.1-0.1-0.3-0.1-0.4-0.2
	c-0.6-0.2-0.5,0-0.8-0.7c-0.2-0.5-0.5-1.1-0.6-1.7c0,0.3,0,0.6,0,1c0.1-0.5,0.3-1,0.2-1.6c0-0.4-0.2-0.6-0.3-1
	c0.1,0.2,0,0.5,0.1,0.1c0.3-1.5-0.7-2.2-1.8-2.8c-1.2-0.5-1.9-0.6-3,0.1c-0.1,0.1-0.2,0.1-0.3,0.2c-0.1,0.1-0.2,0.2-0.4,0.3
	c0.2-0.1,0.2-0.1,0,0c-0.4,0.2-0.8,0.2-1.2,0.3c-0.5,0.2-0.9,0.6-1.4,0.9c-0.5,0.3-1.1,0.6-1.5,1c-0.3,0.3-0.6,0.9-0.9,1.1
	c0.6-0.4-0.3-0.1-0.4,0c-0.2,0.1-0.4,0.3-0.6,0.4c-0.3,0.2-0.5,0.4-0.7,0.6c0,0-0.4,0.6-0.2,0.3c-0.3,0.3-0.7,0.5-1,0.7
	c-1,0.7-1.6,1.6-2.2,2.6c1.1,0.3,2.2,0.6,3.4,0.9c0,0.2,0-1-0.1-0.7c0.1-0.2,0.4-0.5,0.5-0.7c0.4-0.8,0.1-1.4,0-2.2
	c-0.1,0.5-0.1,0.9-0.2,1.4c0.2-0.4,0.5-0.7,0.6-1.2c0.1-0.5,0-0.8,0-1.3c-0.1,0.3-0.2,0.6-0.2,0.9c0.3-0.6,0.6-1,0.6-1.7
	c0-0.5-0.3-1-0.4-1.3c-0.1,0.5-0.1,0.9-0.2,1.4c0.3-0.7,0.7-1,0.8-1.9c0.1-0.8-0.1-1.5-0.1-2.3c-0.1,0.3-0.2,0.6-0.2,0.9
	c0.2-0.5,0.7-1,0.7-1.7c0-0.2-0.1-0.6-0.1-0.8c0-0.4,0.2-0.8,0.2-1.2c0.2-1-0.2-1.9-1.3-2.2C125.7,105.1,124.4,105.7,124.3,106.6
	L124.3,106.6z"/>
<path class="st0" d="M156,107c0.2-0.1,0.8-0.4,1.1-0.7c0.2-0.2,0.4-0.5,0.5-0.7c-0.1,0.2-0.3,0.2,0,0.1c0.4-0.1,0.7-0.4,1-0.6
	c0.3-0.2,0.6-0.5,0.8-0.8c0.3-0.5-0.5,0.2-0.2,0.1c0.3-0.1,1.2-0.5,1.3-0.8c0.1-0.1,0.1-0.1,0,0c-0.2,0.1-0.2,0.1,0.1,0
	c0.2,0,0.4-0.1,0.5-0.1c0.4-0.2,0.9-0.3,1.3-0.4c0.5-0.2,0.8-0.4,1.3-0.7c-0.3,0.1-0.6,0.2-0.9,0.2c0.4-0.1,0.9,0,1.3-0.1
	c0.2,0,0.4-0.1,0.5-0.1c-0.3,0-0.4,0-0.2,0c0.6,0.3,1.4-0.1,2.1-0.2c-0.7-0.9-1.4-1.8-2-2.6c-0.4,0.7-1,1.4-1.5,2.1
	c-0.4,0.7-1.3,1.4-1.5,2.3c0,0.1,0,0.2-0.1,0.3c0,0.2,0,0.1,0.1-0.2c0,0-0.5,0.6-0.5,0.7c-0.2,0.3-0.2,0.6-0.3,0.9
	c0,0.1,0,0.3,0,0.4c0-0.1,0.1-0.2,0.1-0.3c-0.1-0.1-0.7,1.4-0.7,1.4c-0.2,0.5-0.3,1.1-0.3,1.6c0,0.3,0,0.5,0.1,0.8
	c0.1-0.3,0.1-0.4,0-0.2c-0.1,0.2-0.1,0.4-0.1,0.6c-0.1,0.5,0,1.1,0.1,1.6c0.1,0.5,0.1,1,0.2,1.4c0.1,0.5,0.5,1.1,0.8,1.5
	c0.5,0.6,1.2,1.4,1.5,1.8c0.9,1.1,1.9,1.4,3.2,1.5c-0.3-0.1-0.6-0.2-0.9-0.2c0.6,0.3,1,0.6,1.6,0.6c0.5,0,1.7,0.2,2-0.3
	c0.2-0.1,0.1-0.1-0.2,0c0.2,0,0.3,0,0.5-0.1c0.3-0.1,0.6-0.1,0.9-0.3c0.6-0.3,1.1-0.6,1.6-1.2c0.6-0.7,0.7-1.8,0-2.5
	c-0.7-0.7-1.9-0.7-2.5,0c-0.3,0.3-0.3,0.4-0.7,0.5c-0.3,0.1-0.6,0.1-0.9,0.2c-0.1,0.1-0.3,0.1-0.4,0.2c0.3-0.1,0.4-0.1,0.1-0.1
	c-0.2,0-0.2,0,0.2,0c-0.1,0-0.1-0.1-0.2-0.1c-0.3-0.2-0.7-0.3-1.1-0.3c0,0-0.6-0.1-0.5-0.1c0,0,0.6,0.6,0.1-0.1
	c-0.2-0.3-0.6-0.6-0.8-0.9c-0.2-0.2-0.3-0.5-0.5-0.7c-0.2-0.3,0,0.1-0.3-0.3c-0.2-0.4,0,0,0-0.2c0-0.3-0.1-0.6-0.1-0.9
	c-0.1-0.4-0.1-0.7,0-1.1c0-0.3,0.1-0.6,0-0.9c0-0.2,0-0.3-0.1-0.4c0,0.3,0,0.4,0,0.2c0.1-0.4,0.2-0.7,0.4-1c0.2-0.4,0.7-1.1,0.5-1.5
	c0-0.3-0.1-0.2-0.2,0.5c0.1-0.1,0.2-0.2,0.3-0.3c0.2-0.2,0.3-0.5,0.4-0.8c0.1-0.2,0.1-0.4,0.1-0.6c-0.2,0.5,0.1-0.1,0.2-0.2
	c0.3-0.3,0.6-0.6,0.8-1c0.5-0.8,1.1-1.5,1.6-2.4c0.9-1.4-0.6-2.9-2-2.6c-0.1,0-0.3,0-0.4,0.1c-0.3,0.1-0.3,0.1,0.1,0.1
	c-0.1,0.1-0.8-0.1-0.9-0.1c-0.4,0-0.7,0.2-1.1,0.2c-0.3,0.1-0.7,0-1,0.1c-0.4,0.1-0.6,0.4-1,0.5c0,0-0.5,0.1-0.5,0.1
	c-0.5,0.2-1.1,0.3-1.6,0.5c-0.4,0.1-0.6,0.3-1,0.6c-0.5,0.4,0.3-0.1-0.3,0.2c-0.4,0.2-0.6,0.2-1,0.6c-0.2,0.1-0.3,0.3-0.4,0.5
	c-0.2,0.2-0.2,0.2,0,0c-0.5,0.3-1.1,0.6-1.5,1c-0.1,0.1-0.5,0.7-0.5,0.7c0.5-0.3,0.6-0.4,0.2-0.2c-0.2,0.1-0.4,0.2-0.6,0.3
	c-0.8,0.5-1.2,1.6-0.6,2.5C154,107.1,155.2,107.5,156,107L156,107z"/>
<path class="st0" d="M168.7,91.8c-0.3,0.5-0.5,1-0.6,1.6c-0.1,0.6-0.2,1.2-0.2,1.9c0,1.2,0.3,2.3,0.7,3.4c0.2,0.4,0.7,0.7,1.1,0.8
	c0.4,0.1,1,0.1,1.4-0.2c0.4-0.2,0.7-0.6,0.8-1.1c0-0.2,0-0.3,0.1-0.5c0-0.3-0.1-0.6-0.2-0.9c0,0,0-0.1,0-0.1
	c0.1,0.1,0.1,0.3,0.2,0.4c-0.2-0.5-0.4-1-0.4-1.6c0,0.2,0,0.3,0.1,0.5c-0.1-0.5-0.1-1.1,0-1.6c0,0.2,0,0.3-0.1,0.5
	c0.1-0.4,0.1-0.7,0.3-1.1c-0.1,0.1-0.1,0.3-0.2,0.4c0.1-0.2,0.2-0.4,0.3-0.6c0.2-0.4,0.3-0.9,0.2-1.4c-0.1-0.4-0.4-0.9-0.8-1.1
	C170.3,90.7,169.1,90.9,168.7,91.8L168.7,91.8z"/>
<path class="st0" d="M178.9,88.2c0,0.5-0.1,1-0.1,1.5c0,0.5,0,1,0,1.5c-0.1,1,0,2,0,3c0,0.9,0.8,1.8,1.8,1.8c1,0,1.8-0.8,1.8-1.8
	c0-1-0.1-2,0-3c0-0.5,0-1,0-1.5c0-0.5,0.1-1,0.1-1.5c0-0.9-0.8-1.8-1.8-1.8C179.7,86.4,178.9,87.2,178.9,88.2L178.9,88.2z"/>
<path class="st0" d="M187.2,106.6c0.1,0.2,0.2,0.5,0.2,0.7c0-0.2-0.1-0.1,0,0.1c0,0.2,0,0.4,0.1,0.6c0.1,0.6,0.2,1.1,0.6,1.6
	c0.1,0.1,0.2,0.2,0.2,0.3c0.2,0.2,0.2,0.2-0.1-0.2c-0.1,0,0.2,0.7,0.2,0.7c0.2,0.5,0.4,1,0.7,1.5c0.1,0.2,0.2,0.3,0.3,0.5
	c0.1,0.1,0.1,0.2,0.2,0.3c-0.1-0.1-0.1-0.1,0,0.1c0.1,0.5,0.4,1,0.7,1.4c0.7,1.1,1.8,1.7,3.1,1.7c0.6,0,1.2-0.2,1.8-0.5
	c0.1-0.1,0.8-0.5,0.4-0.3c-0.1,0.1-0.1,0,0.1,0c0.2-0.1,0.4-0.1,0.6-0.2c0.5-0.2,1-0.6,1.4-0.9c0.1-0.2,0.3-0.3,0.4-0.5
	c-0.1,0.1-0.2,0.2-0.4,0.3c0.1,0,0.8-0.3,0.8-0.3c0.4-0.2,0.7-0.5,0.9-0.8c0.1-0.1,0.1-0.1,0.2-0.2c0.2-0.3,0-0.1-0.5,0.3
	c0.5,0,1-0.5,1.4-0.8c0.5-0.3,0.9-0.7,1.3-1.1c0.1-0.1,0.6-0.7,0.2-0.4c0.3-0.2,0.6-0.4,0.9-0.7c0.8-0.6,0.6-1.9,0-2.5
	c-0.8-0.8-1.8-0.6-2.5,0c-0.2,0.2-0.7,0.4-0.9,0.8c-0.3,0.4-0.4,0.5-0.2,0.3c0,0-0.1,0.1-0.1,0.1c-0.1,0.1-0.3,0.4-0.4,0.4
	c-0.1,0.1-0.3,0.2-0.4,0.3c-0.1,0.1-0.1,0.1,0,0c-0.1,0-0.2,0.1-0.2,0.1c-0.7,0.2-1.1,0.6-1.5,1.1c-0.4,0.6,0.6-0.2,0.3-0.2
	c-0.3,0.1-0.6,0.2-0.8,0.3c-0.2,0.1-0.4,0.3-0.6,0.5c-0.1,0.1-0.5,0.5-0.2,0.2c-0.2,0.1-0.4,0.3-0.5,0.3c0.3-0.1-0.2,0-0.2,0
	c-0.3,0.1-0.5,0.2-0.7,0.4c-0.2,0.1-0.4,0.4-0.5,0.3c0,0,0.1-0.1,0.1,0c0.1,0,0.1,0-0.1,0c0,0,0.3,0.1,0.3,0.1
	c0,0.1-0.4-0.5-0.2-0.2c-0.1-0.2-0.2-0.3-0.2-0.5c-0.2-0.5,0.1,0.3-0.1-0.3c-0.1-0.3-0.2-0.5-0.4-0.8c-0.2-0.3-0.4-0.6-0.6-1
	c0.1,0.2-0.1-0.2-0.1-0.3c-0.1-0.2-0.1-0.4-0.2-0.5c-0.2-0.5-0.3-1-0.7-1.4c-0.3-0.3,0.2,0.6,0.1-0.1c0-0.1,0-0.2-0.1-0.3
	c0,0.1,0,0.1,0,0c-0.1-0.5-0.2-1-0.3-1.5C190.1,103.4,186.6,104.4,187.2,106.6L187.2,106.6z"/>
<path class="st0" d="M211,103c0.2,0.3,0.3,0.5,0.5,0.8c0.2,0.3,0.5,0.6,0.8,0.9c-0.1-0.1-0.2-0.2-0.3-0.4c0.3,0.3,0.5,0.7,0.8,1
	c0.2,0.2,0.4,0.5,0.6,0.7c-0.1-0.1-0.2-0.2-0.3-0.4c0.3,0.4,0.6,0.7,0.8,1.1c-0.1-0.1-0.2-0.2-0.3-0.4c0.2,0.3,0.4,0.6,0.7,0.9
	c0.2,0.2,0.4,0.3,0.6,0.5c0.2,0.2,0.3,0.4,0.5,0.6c0.2,0.2,0.4,0.4,0.6,0.6c0.7,0.7,1.9,0.7,2.5,0c0.7-0.7,0.7-1.8,0-2.5
	c-0.3-0.3-0.7-0.6-1-1c-0.3-0.3-0.7-0.6-0.9-0.9c0.1,0.1,0.2,0.2,0.3,0.4c-0.3-0.3-0.5-0.7-0.8-1c0.1,0.1,0.2,0.2,0.3,0.4
	c-0.2-0.3-0.4-0.6-0.7-0.9c-0.2-0.2-0.4-0.4-0.5-0.6c0.1,0.1,0.2,0.2,0.3,0.4c-0.2-0.3-0.4-0.6-0.6-0.9c-0.2-0.3-0.4-0.5-0.6-0.7
	c0.1,0.1,0.2,0.2,0.3,0.4c-0.2-0.2-0.3-0.5-0.5-0.8c-0.3-0.4-0.6-0.7-1.1-0.8c-0.4-0.1-1-0.1-1.4,0.2C210.9,101,210.5,102.2,211,103
	L211,103z"/>
<path class="st0" d="M229.9,97.2c0.5-0.3,0.8-0.4,1.2-0.5c0.5-0.1,0.9-0.2,1.4-0.4c0.1-0.1,0.2-0.1,0.3-0.2c-0.1,0-0.2,0.1-0.3,0.1
	c0.1-0.1,0.6-0.1,0.7-0.1c0.3-0.1,0.8-0.2,1.1-0.5c0.2-0.1,0.1-0.1-0.2,0.1c0.1,0,0.1,0,0.2,0c0.2,0,0.5,0,0.7-0.1
	c0.2-0.1,0.5-0.2,0.7-0.3c0,0,0.4-0.2,0.2-0.1c0.4-0.1,0.7-0.2,1.1-0.4c0.1-0.1,0.3-0.1,0.4-0.2c0.1-0.1,0.1-0.1-0.1,0
	c-0.2,0.1-0.2,0.1,0.1,0.1c0.5,0,1-0.2,1.4-0.4c0.1,0,0.5-0.3,0.1-0.1c-0.4,0.2,0.4,0,0.5,0c0.4-0.1,0.9-0.3,1.2-0.6
	c0.1-0.1,0.5-0.3-0.1,0c-0.6,0.3-0.2,0.2,0,0.2c0.4,0,0.8-0.1,1.1-0.3c0.4-0.1,0.7-0.3,1.1-0.5c0,0,0.3-0.1,0.1-0.1
	c-0.2,0.1,0.8-0.3,0.6-0.2c0.9-0.3,1.5-1.2,1.3-2.2c-0.2-0.9-1.3-1.6-2.2-1.3c-0.5,0.2-0.8,0.3-1.2,0.5c-0.1,0.1-0.2,0.1-0.4,0.2
	c-0.2,0.1-0.1,0.1-0.2,0.1c-0.1,0.1-0.3,0.2-0.5,0.2c0.2,0,0.1,0,0-0.1c-0.4-0.1-1,0.1-1.3,0.3c-0.2,0.1-0.4,0.3-0.6,0.4
	c-0.3,0.4,0.7-0.1,0.3-0.1c-0.5,0-1,0.2-1.4,0.4c-0.1,0-0.1,0.1-0.2,0.1c-0.2,0.1-0.2,0.1,0,0c0.2-0.1,0.2-0.1,0-0.1
	c-0.1,0-0.2,0-0.3,0c-0.5,0.1-0.9,0.3-1.3,0.5c-0.1,0-0.4,0.1-0.6,0.2c-0.2,0.1-0.4,0.2-0.6,0.3c-0.1,0.1-0.2,0.1-0.3,0.2
	c-0.1,0.1-0.1,0.1,0.1,0C234,92,234,92,233.7,92c-0.2,0-0.3,0-0.5,0.1c-0.2,0-0.4,0.1-0.6,0.2c-0.1,0.1-0.4,0.2-0.4,0.3
	c-0.1,0.2,0.5,0,0,0c-0.5,0-0.9,0.2-1.4,0.4c-0.4,0.2-0.1,0.2,0,0.1c-0.1,0.1-0.6,0.1-0.7,0.1c-0.8,0.2-1.4,0.5-2.1,0.9
	c-0.9,0.4-1.1,1.7-0.6,2.5C227.9,97.4,229,97.7,229.9,97.2L229.9,97.2z"/>
<path class="st0" d="M237.7,87.6c-0.8,0.6,1-0.2-0.2,0.1c-0.3,0.1-0.6,0.1-0.8,0.3c-0.4,0.3-0.7,0.6-0.8,1.1
	c-0.1,0.4-0.2,0.6-0.3,0.8c-0.4,0.6-0.8,1-1.2,1.6c-0.5,0.7-0.5,1.2-0.6,2.1c-0.1,0.7-0.3,1.1-0.7,1.6c-0.5,0.7-0.7,1.1-0.9,1.9
	c0,0.2-0.3,1.2-0.2,1.2c0.3,0.1,0.7-0.8-0.2,0.1c-0.5,0.5-0.9,1.5-1,2.2c0,0.4,0.1,0.7,0.3,1.1c0.4,0.9,0.5-0.4,0.2-0.8
	c-0.2,0.2-0.2,0.3-0.1,0.2c0.2-0.1,0.1-0.1-0.1,0.1c-0.3,0.3-0.6,0.4-0.8,0.8c-0.2,0.3-0.8,2.2-0.3,2.5c0.3-0.8,0.2-0.9-0.1-0.4
	c-0.1,0.1-0.1,0.2-0.2,0.2c-0.2,0.4-0.3,0.9-0.3,1.3c0,0.7,0.1,1-0.2,1.6c-0.3,0.6-0.7,1.2-0.8,1.9c0,0.4,0,0.7,0,1
	c0,0.4,0.2-0.3-0.1,0.3c-0.5,0.9-0.2,1.5,0,2.4c0.1-0.5,0.1-0.9,0.2-1.4c-0.1,0.2-0.5,0.4-0.6,0.7c-0.2,0.5-0.4,1.2-0.4,1.7
	c0,0.4,0,0.8,0,1.1c-0.1,0.3-0.1,0.6,0,0.9c0.3-0.4,0.3-0.5,0.1-0.2c-0.3,0.4-0.5,0.8-0.5,1.3c0,0.4,0.2,0.8,0.1,1.2
	c-0.1,0.7-0.6,1.6-0.8,2.3c-0.7,2.2,2.8,3.2,3.5,1c0.2-0.7,0.5-1.5,0.8-2.2c0.3-1,0.1-1.8-0.1-2.7c-0.1,0.5-0.1,0.9-0.2,1.4
	c0.4-0.7,0.7-1,0.7-1.9c0-0.3,0.1-0.6,0.1-0.9c0-0.4-0.1-0.9,0-1.2c0-0.2-0.2,0.5,0,0c0.1-0.2,0.4-0.4,0.5-0.6
	c0.4-0.8,0.1-1.4,0-2.3c-0.1,0.5-0.1,0.9-0.2,1.4c0.3-0.7,0.6-1.1,0.6-1.9c0-0.3,0.1-0.6,0.1-0.9c-0.1-1.2-0.4,0.4,0-0.1
	c0.8-0.9,1.1-2.3,0.9-3.5c-0.1-0.8,0.2-0.3-0.1,0c0.3-0.3,0.5-0.6,0.6-1c0.1-0.3,0.1-0.7,0-1c0-0.1,0-0.2,0-0.3
	c-0.1,0.1-0.3,0.2-0.4,0.4c0-0.1,0.6-0.5,0.7-0.6c0.2-0.2,0.3-0.5,0.5-0.7c0.3-0.6,0.6-1.2,0.4-1.9c-0.1-0.2-0.2-0.5-0.3-0.7
	c-0.2-0.3-0.1-0.1,0.2,0.5c-0.1,0.1-0.2,0.3-0.3,0.4c0,0,0.7-0.5,0.7-0.6c0.3-0.3,0.4-0.6,0.5-1c0.1-0.6,0.1-1.3,0.4-1.8
	c0.2-0.5,0.7-0.8,1-1.2c0.3-0.6,0.5-1.3,0.6-2c0-0.3,0.1-0.5,0.1-0.8c0-0.6-0.3,0.2,0.2-0.4c0.3-0.4,0.6-0.8,0.9-1.2
	c0.5-0.6,0.6-1.2,0.8-1.8c-0.3,0.4-0.6,0.7-0.8,1.1c-0.7,0.4,0.6-0.1,0.7-0.2c0.4-0.2,0.7-0.5,1-0.8c0.8-0.6,0.6-1.9,0-2.5
	C239.5,86.8,238.5,87,237.7,87.6L237.7,87.6z"/>
<path class="st0" d="M243.9,105.3c0.7-0.2,1.5-0.4,2.3-0.5c-0.2,0-0.3,0-0.5,0.1c0.3,0,0.7,0,1,0c0.3,0,0.7-0.1,1,0
	c-0.2,0-0.3,0-0.5-0.1c0.4,0.1,0.7,0.1,1.1,0.2c0.4,0,1-0.2,1.3-0.5c0.3-0.3,0.5-0.8,0.5-1.3c0-0.5-0.2-0.9-0.5-1.3
	c-0.4-0.3-0.8-0.5-1.3-0.5c0,0-0.1,0-0.1,0c0.2,0,0.3,0,0.5,0.1c-0.6-0.1-1.1-0.2-1.7-0.1c-0.4,0-0.8,0-1.3,0c-1,0.1-2,0.3-2.9,0.6
	c-0.9,0.3-1.6,1.3-1.3,2.2C241.9,105,242.9,105.6,243.9,105.3L243.9,105.3z"/>
<path class="st0" d="M244.9,111.9c0.2,0,0.5,0,0.7,0.1c0.2,0,0.5,0,0.7,0c0.4,0,0.9-0.1,1.3,0c1,0.1,2.1,0,3.1-0.1
	c-0.2,0-0.3,0-0.5,0.1c0.1,0,0.1,0,0.2,0c0.9,0,1.8-0.8,1.8-1.8c0-0.9-0.8-1.8-1.8-1.8c-0.4,0-0.7,0.1-1.1,0.1c0.2,0,0.3,0,0.5-0.1
	c-0.4,0-0.8,0-1.2,0c-0.4,0-0.8,0-1.2-0.1c-0.4,0-0.8,0-1.2,0c-0.4,0-0.8,0-1.3,0c-0.9,0-1.8,0.8-1.8,1.8
	C243.1,111.1,243.9,111.9,244.9,111.9L244.9,111.9z"/>
<path class="st0" d="M260.8,98.4c0.7-0.2,1.4-0.4,2-0.6c0.6-0.2,1.2-0.2,1.8-0.5c0.7-0.3,0.8-0.3,1.5-0.5c0.7-0.2,1.3-0.5,1.9-0.8
	c-0.3,0.1-0.6,0.2-0.9,0.2c0.4,0,0.7,0,1.1,0c0.3-0.1,0.6-0.2,0.9-0.3c0,0,0.3-0.2,0.1-0.1c0.1,0,0.9-0.3,0.6-0.3
	c-0.3,0.1,0.3,0.1,0.3,0.1c0.5,0,0.9-0.1,1.3-0.3c0.8-0.2,1.6-0.5,2.4-0.7c0.3-0.1,0.6-0.1,0.9-0.1c0.5,0,1-0.2,1.5-0.3
	c2.2-0.7,1.3-4.1-1-3.5c-0.3,0.1-0.5,0.2-0.8,0.2c-0.4,0-0.9,0.1-1.3,0.2c-0.7,0.1-1.4,0.4-2,0.6c-0.3,0.1-0.7,0.2-1,0.3
	c-0.1,0-0.4,0-0.6,0c-0.5,0-0.8,0.2-1.2,0.4c-0.2,0.1-0.4,0.1-0.6,0.3c-0.4,0.3,0.3,0.1,0.1,0c-0.7-0.2-1.4,0.3-2,0.5
	c-0.6,0.3-1.4,0.3-2,0.6c-0.3,0.1,0.2-0.1-0.2,0.1c-0.2,0.1-0.3,0.1-0.5,0.2c-0.3,0.1-0.7,0.1-1.1,0.2c-0.7,0.2-1.4,0.5-2.2,0.7
	C257.6,95.5,258.5,99,260.8,98.4L260.8,98.4z"/>
<path class="st0" d="M267,89.2c-0.2,0.5-0.5,0.9-0.7,1.4c-0.2,0.3-0.3,0.8-0.4,1.1c0.3-0.6-0.3,0.3-0.4,0.4
	c-0.3,0.4-0.4,0.9-0.5,1.4c-0.3,0.8-0.7,1.4-1,2.2c-0.2,0.4-0.3,0.8-0.3,1.2c0,0.3,0.2,0.7,0.2,0.9c0.2-0.4,0.4-0.8,0.5-1.3
	c-0.2,0.3-0.6,0.5-0.8,0.8c-0.3,0.5-0.7,1.2-0.7,1.8c0,0.2,0,0.6,0.1,0.8c0.1,0.3,0.2,0.2,0.3-0.5c0.4-0.6,0.5-0.8,0.2-0.6
	c-0.4,0.1-0.9,0.9-1.1,1.3c0,0-0.2,0.8-0.1,0.9c0.1,0.2,0.2-0.2,0-0.1c-0.3,0.2-0.5,1.2-0.7,1.5c-0.2,0.5-0.5,1.4-0.2,1.9
	c0.3,0.6,0-0.4,0.3-0.5c-0.1,0-0.3,0.6-0.4,0.7c-0.1,0.3-0.2,0.5-0.2,0.8c0,0.8,0.2-0.1,0.2-0.1c-0.3-0.2-0.7,1.8-0.7,1.7
	c-0.1,0.6-0.4,1.1-0.3,1.6c0.1,1.1,0.2-0.3,0.2-0.2c-0.1,0-0.5,0.7-0.5,0.8c-0.1,0.3-0.2,0.5-0.1,0.8c0,1.3,0.2,0,0.2,0
	c-0.3-0.1-0.5,1.4-0.5,1.6c-0.1,0.6-0.3,1.1-0.3,1.7c-0.1,0.7,0.1,1.2,0.2,1.8c0-0.3,0-0.6,0-1c-0.2,0.7-0.3,1.3-0.3,2.1
	c0,2.3,3.6,2.3,3.6,0c0-0.5,0.2-0.8,0.2-1.3c0.1-0.6-0.1-1-0.2-1.6c0,0.3,0,0.6,0,1c0.2-0.8,0.3-1.6,0.5-2.5c-0.1,0.6,0.1,0,0.2-0.2
	c0.2-0.4,0.3-0.8,0.2-1.2c-0.1-1.2-0.7,0.9,0-0.1c0.2-0.3,0.3-0.6,0.3-0.9c0-0.3,0-0.8,0-1c0-0.2,0.2-0.6,0.2-0.9
	c0.1-1-0.4,0.5,0.2-0.4c0.2-0.4,0.4-0.7,0.4-1.2c0-0.5,0.2-0.7-0.1-0.2c0.2-0.3,0.4-0.6,0.5-0.9c0.1-0.4,0-0.8,0-1.2
	c0-0.5-0.1,0.2,0-0.3c0.1-0.7,0.7-1.2,0.8-1.9c0-0.2,0.1-0.6,0-0.8c-0.7,0.9-0.8,1.2-0.3,0.8c0.1-0.1,0.2-0.2,0.4-0.3
	c0.5-0.5,0.9-1.4,0.6-2.1c0-0.1-0.1-0.2-0.1-0.2c0.1,0.2,0,0.4-0.3,0.5c0-0.1,0.6-0.5,0.7-0.6c0.7-0.8,0.3-1.2,0.4-2.1
	c0-0.4,0,0.1,0,0c0.1-0.4,0.5-0.6,0.6-1c0.1-0.4,0.2-0.8,0.3-1.2c0,0,0.4-1.2,0.1-0.6c0.2-0.3,0.5-0.5,0.7-0.8
	c0.2-0.4,0.3-0.8,0.5-1.2c0.3-0.7,0.7-1.4,1-2.2C271.2,88,267.8,87,267,89.2L267,89.2z"/>
<path class="st0" d="M276.2,105.7c0.3-0.2,0.6-0.3,0.9-0.5c0.1-0.1,0.3-0.2,0.4-0.2c-0.4,0.2,0.1,0,0.2,0c0.3-0.1,0.6-0.2,0.9-0.3
	c0.1,0,0.3-0.1,0.4-0.1c-0.4,0-0.3,0,0.3,0c0.1,0,0.2,0,0.3,0c0.2,0,0.3-0.1,0.5-0.1c0.1,0,0.1,0,0.2,0c-0.3,0-0.3,0-0.1,0
	c0.3,0,0.6,0,1-0.1c0.3,0,0.6,0,1,0c0.4,0,0.7,0,1.1,0c0.9,0,1.8-0.9,1.8-1.8c0-1-0.8-1.8-1.8-1.8c-0.4,0-0.7,0-1.1,0
	c-0.4,0-0.7,0-1.1,0c-0.8,0.1-1.6,0.1-2.4,0.3c-0.2,0-0.2,0,0.1,0c-0.2,0-0.4,0.1-0.6,0.1c-0.2,0-0.4,0.1-0.5,0.1
	c-0.3,0.1-0.6,0.2-0.9,0.3c-0.8,0.1-1.6,0.6-2.3,1c-0.8,0.4-1.2,1.7-0.6,2.5C274.2,105.9,275.3,106.1,276.2,105.7L276.2,105.7z"/>
<path class="st0" d="M274.8,113.4c0.9,0.3,1.8,0.5,2.7,0.6c0.8,0,1.7-0.1,2.5-0.1c0.9,0,1.9-0.2,2.7-0.6c0.5-0.2,1-0.4,1.4-0.6
	c0.1,0,0.2-0.1,0.3-0.1c-0.2,0.1-0.3,0.1-0.1,0c0.3-0.1,0.5-0.2,0.8-0.3c0.8-0.4,1.2-1.7,0.6-2.5c-0.5-0.8-1.6-1.1-2.5-0.6
	c0.4-0.2-0.1,0-0.2,0.1c-0.3,0.1-0.5,0.2-0.8,0.3c-0.2,0.1-0.3,0.2-0.5,0.2c0.4-0.2-0.2,0.1-0.3,0.1c-0.3,0.1-0.7,0.2-1,0.3
	c-0.1,0-0.5,0.1-0.1,0.1c-0.2,0-0.4,0-0.6,0c-0.7,0.1-1.5,0-2.2,0.1c-0.2,0-0.2,0,0,0c-0.1,0-0.2,0-0.3-0.1c-0.2,0-0.3-0.1-0.5-0.1
	c-0.4-0.1-0.8-0.2-1.2-0.3c-0.9-0.3-2,0.3-2.2,1.3C273.3,112.1,273.8,113.1,274.8,113.4L274.8,113.4z"/>
<path class="st0" d="M281.8,87.8c-0.1,0.3-0.1,0.6-0.1,0.9c0,0.3,0,0.6,0.1,0.9c0.1,0.5,0.3,1,0.5,1.4c0.2,0.4,0.6,0.8,0.9,1.1
	c0.4,0.4,0.9,0.7,1.5,0.9c0.3,0.1,0.7,0,1-0.1c0.3-0.2,0.5-0.5,0.6-0.8c0.1-0.3,0.1-0.7-0.1-1c-0.2-0.3-0.4-0.5-0.8-0.6
	c-0.1,0-0.1,0-0.2-0.1c0.1,0,0.2,0.1,0.3,0.1c-0.2-0.1-0.4-0.2-0.5-0.3c0.1,0.1,0.2,0.1,0.3,0.2c-0.3-0.2-0.5-0.5-0.7-0.8
	c0.1,0.1,0.1,0.2,0.2,0.3c-0.1-0.1-0.2-0.3-0.3-0.5c0,0.1,0.1,0.2,0.1,0.3c-0.2-0.4-0.3-0.8-0.4-1.2c0,0.1,0,0.2,0,0.3
	c0-0.2,0-0.3,0-0.5c0,0.1,0,0.2,0,0.3c0-0.1,0-0.2,0.1-0.3c0.1-0.4,0.1-0.7-0.1-1c-0.2-0.3-0.5-0.5-0.8-0.6c-0.3-0.1-0.7-0.1-1,0.1
	C282.1,87.2,281.9,87.5,281.8,87.8L281.8,87.8z"/>
<path class="st0" d="M290.3,86.7c0,0.5,0.1,1,0,1.6c0-0.1,0-0.2,0-0.3c0,0.3-0.1,0.6-0.1,0.9c0,0.2,0,0.4,0,0.6c0,0.4,0,0.8,0,1.3
	c0,0.7,0.6,1.3,1.3,1.3c0.7,0,1.3-0.6,1.3-1.3c0-0.4,0-0.7,0-1.1c0-0.4-0.1-0.7,0-1.1c0,0.1,0,0.2,0,0.3c0.1-0.4,0.1-0.8,0.1-1.2
	c0-0.3,0-0.6,0-0.9c0-0.7-0.6-1.3-1.3-1.3C290.9,85.4,290.3,86,290.3,86.7L290.3,86.7z"/>
<path class="st0" d="M298,101.7c0,0.3-0.1,0.6-0.1,0.9c0,0.1,0,0.2,0,0.3c0,0.3,0,0,0-0.1c0,0,0,0.2,0,0.3c0,0.2-0.1,0.5-0.1,0.7
	c0,0.2,0,0.4,0,0.5c0.1,0.5,0.1,0.9,0.2,1.4c0,0.1,0,0.3,0,0.1c0-0.4,0,0.3,0,0.3c0,0.3,0.1,0.5,0.1,0.8c0,0.1,0.1,0.2,0.1,0.2
	c0.1,0.1,0.1,0.3,0.2,0.4c0-0.1-0.1-0.1-0.1-0.2c0,0,0.1,0.4,0.1,0.5c0.1,0.4,0.2,0.8,0.5,1.2c0.1,0.1,0.2,0.2,0.3,0.4
	c0-0.1-0.1-0.1-0.1-0.2c0,0,0.1,0.2,0.1,0.2c-0.1,0-0.2-0.4,0-0.1c0,0.1,0.1,0.2,0.1,0.4c0.2,0.4,0.4,0.7,0.6,1.1
	c0.5,0.8,1.6,1.2,2.5,0.6c0.8-0.5,1.2-1.6,0.6-2.5c-0.1-0.1-0.2-0.3-0.3-0.4c0-0.1-0.1-0.2-0.1-0.2c-0.1-0.2-0.1-0.1,0,0.1
	c0,0-0.2-0.5-0.2-0.5c-0.1-0.2-0.1-0.3-0.3-0.5c-0.1-0.2-0.2-0.3-0.4-0.5c0.2,0.2,0.2,0.2,0.1,0.1c0.2,0.4,0.1,0,0-0.1
	c0-0.1,0-0.2-0.1-0.3c0-0.1-0.1-0.2-0.1-0.2c-0.2-0.5-0.2-0.6-0.1-0.2c-0.1-0.1-0.1-0.4-0.1-0.5c0,0.2,0,0.3,0,0.1
	c0-0.2,0-0.4-0.1-0.5c0-0.2-0.1-0.3-0.1-0.5c0-0.2,0-0.2,0,0.1c0-0.1,0-0.2,0-0.3c0-0.1,0-0.3,0-0.4c0-0.1,0-0.2,0-0.3
	c0,0.3,0,0.3,0,0.1c0.1-0.3,0.1-0.6,0.1-0.9c0-0.2,0-0.2,0,0.1c0-0.1,0-0.2,0-0.3c0.1-0.5,0.1-0.9-0.2-1.4c-0.2-0.4-0.6-0.7-1.1-0.8
	C299.4,100.2,298.2,100.7,298,101.7L298,101.7z"/>
<path class="st0" d="M311.8,100.1c0.6-0.2,1.3-0.1,2-0.2c0.4-0.1,0.8-0.1,1.1-0.4c0.2-0.1-0.4,0-0.1,0c0.1,0,0.3,0,0.4,0
	c0.5,0,0.9-0.3,1.4-0.4c-0.2,0.1,0.2,0,0.2,0c0.2,0,0.3-0.1,0.5-0.1c0.3-0.1,0.4-0.2,0.7-0.2c0.4,0,0.7,0,1.1-0.1
	c0.4,0,1-0.1,1.3-0.4c0.2-0.2-0.4-0.1-0.2,0c0.1,0,0.3,0,0.4,0c0.8,0,1.4-0.4,2.1-0.7c0.3-0.1,1,0,1.5-0.2c0.8-0.2,1.5-0.4,2.3-0.6
	c1-0.2,1.5-1.3,1.3-2.2c-0.3-1-1.3-1.4-2.2-1.3c-0.3,0.1-0.7,0.1-1,0.2c-0.3,0.1-0.7,0.3-1,0.3c-0.6,0.1-1.3,0.1-2,0.3
	c-0.4,0.1-0.6,0.3-0.8,0.4c-0.1,0-0.2,0.1-0.4,0.1c0.2,0,0,0-0.1,0c-0.4,0-0.7,0-1.1,0.1c-0.2,0.1-0.4,0.2-0.6,0.3
	c0.1,0,0.2,0,0.3,0c-0.1,0-0.3,0-0.4,0c-0.7,0.1-1.3,0.1-2,0.3c-0.3,0.1-0.7,0.1-1,0.2c-0.1,0-0.6,0.4-0.7,0.3c0.1,0,0.6,0,0.1-0.1
	c-0.4,0-0.7,0-1.1,0.1c-0.2,0.1-0.4,0.2-0.6,0.3c0.2-0.1-0.2,0-0.2,0c-0.3,0-0.5,0-0.8,0c-0.5,0-0.9,0.1-1.3,0.2
	c-0.9,0.2-1.5,1.3-1.3,2.2C309.9,99.8,310.9,100.3,311.8,100.1L311.8,100.1z"/>
<path class="st0" d="M316.7,90.7c0,0.3,0.1,0.5,0.1,0.8c0-0.3,0-0.6,0-1C317.2,89.7,316.8,90.4,316.7,90.7c-0.2,0.3-0.3,0.6-0.4,0.9
	c-0.1,0.8,0.1,1.6,0.2,2.4c0-0.3,0-0.6,0-1c-0.2,1-0.1,1.6,0,2.6c0.1-0.5,0.1-0.9,0.2-1.4c-0.2,0.5-0.6,0.9-0.6,1.4
	c-0.1,0.5,0.1,1-0.1,1.5c-0.1,0.5-0.3,0.9-0.4,1.5c-0.1,0.7,0.1,1.2,0.2,1.8c0.1-0.5,0.1-0.9,0.2-1.4c-0.2,0.4-0.6,0.6-0.7,1.2
	c-0.2,0.7,0.1,1.2,0.2,1.8c0-0.3,0-0.6,0-1c-0.3,1,0.1,0-0.2,0.5c-0.2,0.4-0.4,0.5-0.6,1c-0.2,0.8,0.2,1.2,0.3,1.9c0-0.3,0-0.6,0-1
	c-0.2,0.7-0.6,1.3-0.7,2c0,0.1,0,0.2,0,0.3c0,0.7,0.1,0.6,0.2-0.2c-0.1,0-0.5,0.7-0.5,0.8c-0.1,0.2-0.6,2.1-0.3,2.3
	c-0.2-0.1,0.5-1.5-0.3-0.3c-0.2,0.3-0.3,0.7-0.4,1.1c0,0.1,0,0.2,0,0.3c0,0.7,0.1,0.6,0.2-0.2c-0.1,0-0.5,0.7-0.5,0.8
	c-0.1,0.2-0.8,2.3-0.5,2.2c0.2-0.8,0.2-0.9,0-0.6c-0.1,0.1-0.2,0.3-0.3,0.4c-0.2,0.3-0.4,0.8-0.5,1.2c-0.3,0.8-0.2,1.4-0.2,2.2
	c0.2-0.4,0.4-0.8,0.5-1.3c-0.3,0.3-0.7,0.6-0.9,1c-0.1,0.1-0.5,1.7-0.1,0.9c0,0.1-0.8,1.4-0.8,1.4c0.4-0.4,0.5-0.5,0.2-0.3
	c-0.2,0.1-0.4,0.3-0.5,0.4c-1.5,1.7,1,4.3,2.5,2.5c0.1-0.1,0.5-0.4,0.7-0.6c0.4-0.4,0.5-0.9,0.8-1.4c0.3-0.4,0.6-0.8,0.6-1.4
	c0-0.6-0.5,0.5,0,0.1c0.2-0.2,0.4-0.4,0.5-0.6c0.3-0.6,0.1-1.1,0.2-1.7c0-0.4,0.3-0.7,0.6-1c0.3-0.5,0.6-0.9,0.6-1.5
	c0-0.1,0-0.9-0.1-0.4c-0.1,0.5,0.2-0.1,0.2-0.2c0.3-0.5,0.6-0.9,0.7-1.5c0-0.1,0.1-0.7-0.1-0.8c0.3,0.2-0.6,1,0,0.7
	c0.9-0.5,0.4-1.8,0.8-2.5c0.3-0.5,0.6-1,0.5-1.6c0-1-0.2,0.1-0.2,0.1c0.1,0,0.3-0.4,0.3-0.5c0.3-0.6,0.5-1.3,0.4-1.9
	c0-0.4-0.3-0.8-0.4-1.1c-0.1,0.5-0.1,0.9-0.2,1.4c0.3-0.5,0.7-0.9,0.9-1.5c0.3-0.9,0-1.4-0.1-2.2c-0.1,0.5-0.1,0.9-0.2,1.4
	c0.2-0.4,0.6-0.6,0.7-1.2c0.2-0.6-0.1-1.2-0.2-1.8c0,0.3,0,0.6,0,1c0.1-1,0.8-2.2,0.6-3.3c0,0.1-0.3,0.7,0,0
	c0.1-0.2,0.2-0.5,0.3-0.7c0.2-0.6-0.1-1.2-0.2-1.8c0,0.3,0,0.6,0,1c0.1-0.6,0.2-1.1,0.2-1.8c0-0.3-0.1-0.5-0.1-0.8
	c-0.4,0.5-0.4,0.6-0.2,0.4c0.8-0.9,0.7-1.8,0.5-2.9c-0.2-1-1.3-1.5-2.2-1.3C316.9,88.7,316.6,89.7,316.7,90.7L316.7,90.7z"/>
<path class="st0" d="M337.9,90.2c0.6,0.1,1.2,0.3,1.8,0.1c0.7-0.2,1.3-0.6,2-0.8c0.6-0.1,1.1,0,1.7-0.3c0.7-0.4,0.5-0.6,1.3-0.7
	c0.6,0,1.1,0.2,1.7-0.1c0.2-0.1,1.1-0.8,1-1.2c-1,0.4-1.2,0.6-0.7,0.6c0.2,0,0.5,0,0.7-0.1c0.1,0,1-0.3,0.6-0.3
	c-0.4,0,0.5,0.1,0.6,0.1c0.1,0,0.7,0,0.5-0.1c-0.4-0.4-0.8-0.8-1.3-1.3c0,0,0,0.1,0.1,0.1c0-0.3,0-0.6,0-1c-0.3,0.8-0.5,0.7-1,1
	c-0.5,0.3-0.7,0.8-0.9,1.3c-0.2,0.3-0.4,0.6-0.5,1c-0.1,0.2-0.1,0.3-0.1,0.5c-0.2,0.9,0.1,0.7,0.9-0.5c-0.3-0.1-1,0.4-1.2,0.6
	c-0.4,0.4-0.6,0.8-0.7,1.4c0,0.3,0.1,0.7,0.1,1c0.2-0.4,0.4-0.8,0.5-1.3c0.2-0.1,0.6-0.3,0.1-0.2c-0.3,0.1-0.5,0.3-0.8,0.5
	c-0.4,0.4-0.7,0.9-1,1.4c-0.1,0.2-0.2,0.4-0.2,0.6c0,0.2,0.3-0.2,0-0.1c-0.4,0.1-0.7,0.9-0.8,1.2c-0.1,0.2-0.8,2.8-0.9,2.8
	c-0.2-0.1,1.4-0.9,0.5-0.7c-0.3,0.1-0.6,0.3-0.8,0.5c-0.3,0.3-0.6,0.6-0.9,0.9c-0.3,0.5-0.3,0.9-0.4,1.4c0,0.1-0.1,0.3-0.1,0.4
	c0,0.2,0.2-0.2,0-0.1c-0.4,0.1-0.5,0.8-0.7,1.1c-0.2,0.3-0.6,0.6-0.9,0.9c-0.3,0.4-0.6,0.8-0.7,1.3c0,0.2,0,0.4,0,0.6
	c0,0.4-0.3,0.4,0.1,0.1c-0.8,0.7-1.2,1.6-1.8,2.5c-0.9,1.2,0.6,3.2,2,2.6c0.9-0.3,1.8-0.6,2.5-1.3c0.1-0.1,0.6-0.7,0.6-0.7
	c-0.7,0.4-0.8,0.5-0.3,0.4c0.1-0.1,0.2-0.1,0.4,0c0.9-0.1,1.5-0.5,2.2-1.1c0.2-0.1,0.3-0.2,0.4-0.4c-0.7,0.3-0.7,0.3,0,0.2
	c0.3,0,0.6,0,0.9-0.1c0.5-0.1,0.8-0.3,1.3-0.6c0.2-0.1,0.3-0.2,0.4-0.3c0.4-0.3,0.3-0.3-0.5,0c0.3,0.5,2.4-0.2,2.6-0.4
	c0.3-0.2,0.5-0.4,0.7-0.6c-0.1,0-0.2,0-0.3,0c0.3,0,0.5,0.1,0.8,0.1c0.5,0,1.2,0,1.7-0.1c0.5-0.1,0.9-0.3,1.3-0.4
	c-0.5-0.1-0.9-0.1-1.4-0.2c0.3,0.1,0.6,0.5,1,0.7c0.3,0.1,0.6,0.1,1,0.2c0.5,0,0.6,0,0.1-0.3c-0.4-0.4-0.3-0.3-0.1,0.1
	c0.1,0.3,0.3,0.6,0.5,0.8c0.3,0.3,1,0.5,1.2,0.6c-0.3-0.4-0.6-0.7-0.8-1.1c-0.2-0.7-0.1,0.6,0,0.7c0.1,0.4,0.2,0.7,0.4,1
	c0.2,0.3,0.3,0.6,0.6,0.9c0.1,0.1,0.2,0.2,0.4,0.3c0.6,0.4,0.5,0.1-0.3-1c-0.2,0.2-0.1,1-0.1,1.2c0,0.1-0.1,0.4-0.2,0.6
	c-0.2,0.8,0,1.6-0.2,2.3c-0.2,0.7-0.6,1.4-0.7,2.1c0.4-0.3,0.4-0.4,0.1-0.1c-0.1,0.1-0.3,0.2-0.4,0.3c-0.3,0.3-0.4,0.7-0.5,1.1
	c-0.3,1.2,0.9-0.6-0.1,0.1c-0.2,0.2-0.4,0.4-0.6,0.6c-0.5,0.6-0.6,1.1-0.9,1.8c0.3-0.4,0.6-0.7,0.8-1.1c-0.2,0.1-0.6,0.2-0.8,0.3
	c-0.1,0-1.1,1.3-0.9,1.3c0.2,0,0.7-0.6-0.1-0.1c-0.4,0.3-0.6,0.6-0.8,1c-0.4,0.3-0.4,0.4,0,0.1c-0.3,0-0.5,0.1-0.8,0.1
	c-0.2,0.1-1.1,0.5-1,0.7c0.8-0.1,0.9-0.1,0.4-0.2c-0.3-0.1-0.6-0.1-1,0c-0.3,0.1-0.6,0.4-0.8,0.5c0.3,0,0.6,0,1,0
	c-0.2-0.1-0.6-0.6-0.9-0.9c-0.1-0.1-0.2-0.1-0.3-0.2c-0.1-0.1-0.6-0.7-0.4-0.3c0.1,0.5,0.1,0.9,0.2,1.4c0-0.2,0.4-0.9,0.5-1.1
	c0.2-0.4,0.5-0.9,0.8-1.3c-0.4,0.3-0.7,0.6-1.1,0.8c1.2-0.5,2.3-0.4,3-1.7c0.3-0.5,0.3-0.3,0-0.1c0.1-0.1,0.7-0.5,0.2-0.3
	c-0.7,0.3,0.3,0.1,0.5,0c0.3,0,0.6-0.1,0.8-0.2c0.5-0.2,0.9-0.6,1.3-0.8c0.4-0.2,0,0,0.3-0.1c0.3-0.1,0.8,0,1-0.3
	c0.3-0.1,0.3-0.1,0.1-0.1c-0.3,0-0.2,0,0.3,0.1c0.3,0,0.6,0,0.9-0.1c0.5-0.1,1-0.4,1.4-0.6c-0.3,0-0.6,0-1,0
	c0.6,0.2,0.9,0.5,1.6,0.5c0.6-0.1,1.2-0.4,1.9-0.5c-0.3,0-0.6,0-1,0c1.1,0.2,1.6,0.1,2.6-0.1c-0.3,0-0.6,0-1,0
	c-1-0.4,0.1,0.2,0.4,0.3c0.9,0.4,1.9,0.3,2.5-0.6c0.5-0.8,0.2-2.1-0.6-2.5c-0.4-0.2-0.7-0.6-1.2-0.7c-0.7-0.2-1.2,0.1-1.8,0.3
	c0.3,0,0.6,0,1,0c-1.3-0.2-2.2,0-3.4,0.3c0.3,0,0.6,0,1,0c-0.7-0.2-1-0.6-1.8-0.4c-0.3,0.1-0.5,0.2-0.7,0.3c-0.1,0-1.1,0.4-0.6,0.3
	c0.5-0.1-0.5-0.1-0.6-0.1c-0.4,0-0.8,0.2-1.2,0.4c-0.6,0.3,0.6,0.1-0.2,0c-0.3,0-0.7,0.1-1,0.2c-0.6,0.2-1.1,0.6-1.5,0.9
	c0.4-0.1,0.4-0.1,0,0c-0.2,0-0.3,0-0.5,0.1c-0.3,0-0.6,0-0.9,0.1c-0.6,0.2-1,0.6-1.4,1c-0.2,0.2-0.6,0.6-0.6,1
	c-0.2,0.4-0.1,0.3,0.3-0.1c0.5-0.4,0.5-0.5,0.1-0.3c-1.4,0.1-2.2,1.1-2.8,2.2c-0.3,0.5-0.5,1-0.8,1.5c-0.4,0.7-0.5,1.4-0.1,2.1
	c0.5,0.9,1.6,1.6,2.2,2.1c0.5,0.5,1.3,1,2.1,1c0.7,0,1.2-0.4,1.8-0.7c-0.5,0.1-0.9,0.1-1.4,0.2c0.6,0.1,1.2,0.3,1.9,0.2
	c0.3-0.1,0.6-0.3,0.8-0.5c0.1-0.1,0.2-0.2,0.3-0.3c0.2-0.2,0.1-0.2-0.3,0.1c0.7,0,1.4-0.4,1.9-0.9c0.2-0.2,0.3-0.3,0.5-0.5
	c0.1-0.1,0.3-0.3,0.3-0.5c0.1-0.2,0.1-0.2-0.2,0.1c0.5-0.3,0.9-0.6,1.2-1.1c0.7-1.3-0.3,0.1-0.4,0c0.1,0.1,0.7-0.3,0.8-0.3
	c0.4-0.3,1.1-1,1-1.5c0-0.2-0.4,0.3,0,0c0.1-0.1,0.3-0.3,0.4-0.4c0.4-0.4,0.8-0.8,0.9-1.4c0.1-0.6,0.1-0.6-0.1-0.2
	c-0.3,0.3-0.3,0.4,0,0.2c0.2-0.2,0.5-0.5,0.6-0.7c0.3-0.6,0.4-1.3,0.6-2c0.2-0.7,0.5-1.3,0.6-2.1c0-0.6,0-1.1,0.1-1.6
	c0.1-0.5,0.2-1.1,0.2-1.6c0.1-0.6,0.1-1.2-0.2-1.8c-0.3-0.5-0.8-0.7-0.9-1c0,0.3,0,0.6,0,1c0.1-0.7,0.2-1.4-0.2-2.1
	c-0.1-0.2-1.1-1.2-1.5-1c0.1-0.1,1.1,1.3,0.4,0c-0.2-0.3-0.5-0.6-0.8-0.8c-0.5-0.3-1.2-0.5-1.7-0.5c-0.2,0-0.3,0-0.5,0
	c-0.5,0-0.3,0.1,0.5,0.3c0-0.1-0.7-0.5-0.8-0.6c-0.8-0.4-1.3-0.1-2.1,0.1c-0.7,0.1-1.3,0-1.9,0c-0.7-0.1-1.2,0.2-1.8,0.5
	c-0.2,0.1-0.4,0.3-0.7,0.4c-0.9,0.4,0.2,0-0.1,0.1c-0.8,0.1-1.3-0.2-2.1,0.5c-0.2,0.1-0.3,0.3-0.5,0.4c-0.5,0.3-0.5,0.4-0.1,0.2
	c0.4-0.1,0.4-0.1,0-0.1c-0.5-0.1-1.3,0.1-1.8,0.3c-0.1,0-1.4,1-1.4,1.1c0,0,1.1-0.2,0-0.1c-0.3,0-0.6,0.1-0.9,0.2
	c-0.7,0.2-1.2,0.5-1.6,1.1c-0.2,0.3-0.5,0.3-1,0.5c0.7,0.9,1.4,1.8,2,2.6c0.3-0.4,0.6-0.7,0.8-1.1c0-0.1,0.4-0.9,0.1-0.4
	c-0.3,0.4,0.2-0.1,0.3-0.2c0.4-0.4,0.7-1.1,0.9-1.6c0.1-0.2,0.1-0.5,0.1-0.8c-0.1,0.5-0.1,0,0.1-0.1c0.3-0.3,0.7-0.7,1-1.2
	c0.2-0.3,0.6-0.6,0.8-1c0.2-0.4,0.4-0.9,0.5-1.3c0-0.1,0-0.3,0.1-0.4c0.1-0.3,0-0.3-0.1,0c-0.4,0.2,0.1,0.1,0.2-0.2
	c-0.1,0.1-0.6,0.3-0.2,0.1c0.3-0.1,0.5-0.2,0.8-0.5c0.4-0.4,0.6-0.8,0.8-1.3c0.2-0.5,0.4-0.9,0.5-1.4c0.1-0.5,0-0.5,0.3-0.9
	c0.3-0.4,0.7-0.8,0.8-1.4c0-0.1,0-0.2,0.1-0.2c0.1-0.1,0.1-0.1-0.1,0.1c-0.3,0.2-0.3,0.2,0,0c0.1-0.1,0.3-0.1,0.4-0.2
	c0.5-0.3,0.8-0.7,1-1.2c0.2-0.5-0.1-1,0-1.5c-0.2,0.4-0.4,0.8-0.5,1.3c-0.9,0.7,0.1,0.2,0.4,0c0.5-0.3,0.8-0.7,1-1.2
	c0.1-0.4,0.2-0.8,0.3-1.2c0.2-0.4,0.3-0.8,0.5-1.2c-0.3,0.4-0.6,0.7-0.8,1.1c0.4-0.2,1.2-0.7,1.8-1.3c0.6-0.7,1.2-1.9,0.9-2.8
	c-0.3-1.1-1.2-1.5-2.2-1.5c-0.4,0-0.7-0.1-1.1-0.1c-0.6-0.1-0.9,0.2-1.5,0.3c-0.9,0.3-1.8,0.2-2.2,1.2c-0.3,0.6,0,0.4,1.1-0.4
	c-0.3,0-0.5-0.1-0.8-0.1c-0.5,0-1.1,0.2-1.7,0.4c-0.4,0.1-1.1,0.3-1.4,0.7c-0.3,0.5,1.1-0.1-0.1,0c-0.9,0.1-1.9,1-2.7,0.8
	C336.6,86.2,335.6,89.7,337.9,90.2L337.9,90.2z"/>
<path class="st0" d="M381.5,83.2c0,0.4,0,0.8,0,1.2c0,0.4,0,0.8,0,1.2c0,0.5,0.2,0.9,0.5,1.3c0.2,0.2,0.4,0.3,0.6,0.4
	c0.2,0.1,0.4,0.2,0.7,0.2c0.5,0,0.9-0.2,1.3-0.5c0.3-0.4,0.5-0.8,0.5-1.3c0-0.4,0-0.8,0-1.2c0-0.4,0-0.8,0-1.2
	c0-0.5-0.2-0.9-0.5-1.3c-0.2-0.2-0.4-0.3-0.6-0.4c-0.2-0.1-0.4-0.2-0.7-0.2c-0.5,0-0.9,0.2-1.3,0.5
	C381.7,82.3,381.5,82.7,381.5,83.2L381.5,83.2z"/>
<path class="st0" d="M378.3,96c0.5-0.1,1.1-0.4,1.6-0.5c0.5-0.1,0.7-0.1,1.2-0.3c0.2-0.1,0.6-0.4,0.7-0.5c-0.3,0.1-0.6,0.2-0.9,0.2
	c0.5-0.1,1.1-0.1,1.6-0.1c0.7-0.1,1.2-0.5,1.6-0.7c-0.3,0.1-0.6,0.2-0.9,0.2c0.6-0.1,1.1,0,1.7-0.2c0.6-0.2,1-0.5,1.5-0.8
	c-0.3,0.1-0.6,0.2-0.9,0.2c0.7-0.1,1.3-0.1,2-0.4c0.5-0.2,1-0.4,1.5-0.6c1.1-0.4,2.5-0.2,3.4-1.1c0.2-0.2,0.2-0.2,0.1-0.1
	c-0.2,0.1-0.1,0.1,0.2,0c0,0,1-0.2,0.8-0.1c0.6-0.1,1.2-0.2,1.7-0.5c0.3-0.2,0.3-0.2,0.1-0.1c0.2,0,0.3,0,0.5-0.1
	c0.3-0.1,0.6-0.2,0.9-0.4c0.5-0.2,1-0.4,1.6-0.6c0.9-0.4,1.5-1.2,1.3-2.2c-0.2-0.8-1.3-1.6-2.2-1.3c-0.7,0.3-1.6,0.4-2.2,0.8
	c-0.3,0.2-0.3,0.2-0.1,0.1c-0.3,0-0.5,0.1-0.7,0.1c-0.4,0.1-0.6,0.4-1,0.5c-0.7,0.2-1.4,0.2-2.1,0.4c-0.2,0.1-1,0.7-1.1,0.7
	c0.5-0.2,0.5-0.3-0.1-0.2c-0.1,0-0.3,0-0.4,0.1c-0.7,0.1-1.4,0.4-2.1,0.7c-0.3,0.1-0.5,0.2-0.8,0.3c-0.2,0.1-0.5,0.2-0.7,0.3
	c0.2,0,0.2,0-0.1,0c-0.5,0-1,0.1-1.4,0.4c-0.4,0.2-0.2,0.3-0.6,0.4c-0.5,0.1-1,0-1.5,0.2c-0.2,0.1-0.6,0.4-0.7,0.5
	c0.3-0.1,0.6-0.2,0.9-0.2c-1.1,0.1-2.3-0.1-3.1,0.7c-0.4,0.4,0.2-0.1,0.2-0.1c0,0-0.7,0.1-0.9,0.1c-0.5,0.1-0.9,0.3-1.4,0.4
	C375.1,93.1,376,96.6,378.3,96L378.3,96z"/>
<path class="st0" d="M391.8,88.7c-0.5,0.4-1.2,0.6-1.6,1.3c-0.2,0.3-0.7,0.9,0,0.4c0.8-0.6-0.1-0.1-0.3,0c-0.8,0.5-0.9,1.1-1.1,1.9
	c0.1-0.4,0.4-0.5-0.1-0.1c-0.3,0.2-0.5,0.4-0.7,0.7c-0.2,0.3-0.3,0.6-0.5,0.9c-0.2,0.4-0.5,0.6-0.7,1.1c-0.1,0.4-0.1,0.8,0,1.2
	c0,0.1,0,0.2,0.1,0.3c-0.2-0.4-0.1-0.6,0.2-0.7c0.3-0.2,0.3-0.2,0,0c-0.1,0.1-0.3,0.1-0.4,0.2c-0.3,0.2-0.6,0.5-0.8,0.8
	c-0.4,0.7-0.1,1.3-0.2,1.9c0.2-0.4,0.4-0.8,0.5-1.3c-0.5,0.5-0.8,0.7-1.2,1.3c-0.3,0.5-0.5,0.7-0.9,1.2c-0.8,0.9-1,2.3-1.7,3.3
	c-0.3,0.5-0.6,1-0.9,1.5c-0.3,0.5-0.7,0.8-1,1.3c-0.2,0.5-0.3,1-0.5,1.5c-0.3,0.6-0.9,1.1-1,1.7c-0.3,1,0.2-0.5,0.7-0.4
	c-0.1,0-0.6,0.2-0.7,0.3c-0.5,0.3-0.9,0.8-1,1.4c0-0.2-0.1,0.9,0,0.7c0-0.1-0.4,0.5-0.4,0.7c-0.1,0.2-0.1,0.8-0.2,0.7
	c-0.1-0.1,0.9-0.4,0.2-0.2c-1.2,0.4-1.8,2-2.4,3c-0.7,1.2-1.2,2-0.9,3.5c0-0.3,0-0.6,0-1c0.3-0.4,0.4-0.5,0.1-0.2
	c-0.2,0.2-0.3,0.4-0.5,0.6c-0.2,0.3-0.4,0.7-0.6,1c-0.4,0.7-0.6,1.5-0.9,2.3c-0.8,2.2,2.7,3.1,3.5,1c0.3-0.9,0.6-1.6,1.2-2.4
	c0.8-1,0.9-1.6,0.7-2.8c0,0.3,0,0.6,0,1c0.1-0.5,0.6-1.1,0.8-1.5c0.2-0.3,0.4-0.5,0.5-0.8c0.1-0.2,0.2-0.3,0.3-0.5
	c-0.2,0.1-0.3,0.2-0.5,0.2c0.1-0.2,0.8-0.4,1-0.6c0.2-0.2,0.3-0.3,0.4-0.5c0.5-0.6,0.5-1.2,0.8-1.8c0-0.1,0.4-0.5,0.5-0.7
	c0.1-0.2,0.1-0.5,0.1-0.7c0-0.5-0.1-0.4-0.5,0.3c-0.6,0.5-0.6,0.6-0.2,0.4c0.3-0.1,0.6-0.3,0.8-0.5c0.5-0.4,0.6-0.9,0.8-1.5
	c-0.2,0.6,0.3-0.4,0.4-0.5c0.2-0.3,0.3-0.6,0.5-0.9c0.1-0.3,0.3-0.7,0.4-1c0-0.1,0.1-0.2,0.1-0.3c0.1-0.6,0.1-0.6-0.1-0.2
	c-0.4,0.3,0.1,0.1,0.3-0.1c0.2-0.3,0.4-0.6,0.6-0.9c0.6-1.1,1.3-2,1.8-3.2c0.3-0.6,0.4-0.9,0.8-1.3c0.4-0.4,1-1.1,1.1-1.7
	c0.1-0.3,0.1-0.3-0.1,0.2c0.1-0.1,0.2-0.2,0.4-0.3c0.3-0.2,0.5-0.5,0.6-0.8c0.3-0.6,0-1.1,0.1-1.7c-0.2,0.4-0.4,0.8-0.5,1.3
	c-0.5,0.3-0.5,0.3-0.2,0.1c0.2-0.1,0.4-0.2,0.6-0.3c0.3-0.2,0.5-0.5,0.7-0.8c0.3-0.5,0.5-0.8,0.6-1.4c0-0.2-0.2-0.8-0.1-0.9
	c-0.1,0.6-0.1,0.8,0.1,0.4c0.1-0.2,0.2-0.3,0.3-0.5c0,0,0.3-0.4,0.5-0.6c0.7-0.7,0.9-1.3,1.2-2.2c-0.3,0.4-0.6,0.7-0.8,1.1
	c0.6-0.4,1.2-0.4,1.6-1.3c0.4-1.1-1,0.4,0-0.1c0.4-0.2,0.8-0.6,1.2-0.9c0.8-0.6,0.6-1.9,0-2.5C393.6,88,392.6,88.1,391.8,88.7
	L391.8,88.7z"/>
<path class="st0" d="M379.8,104.4C379.6,104.3,379.7,104.4,379.8,104.4c0.2,0.1,0.4,0.2,0.6,0.3c0.3,0.1,0.6,0.2,0.8,0.3
	c0.1,0,0.2,0.1,0.3,0.1c0.1,0,0.2,0,0.3,0c0.3,0,0.3,0,0.2,0c-0.1,0-0.3-0.1-0.1,0c0.1,0.1,0.2,0.1,0.3,0.2c0.4,0.2,0.8,0.3,1.3,0.4
	c0.1,0,0.2,0,0.3,0c-0.2-0.1-0.1,0,0,0.1c0.1,0.1,0.3,0.1,0.4,0.1c-0.2-0.1,0,0,0.1,0.1c0.3,0.2,0.6,0.4,0.9,0.5
	c0.2,0.1,0.4,0.1,0.7,0.2c0.3,0.1-0.2-0.1,0,0c0.1,0.1,0.3,0.1,0.4,0.2c0.4,0.2,0.7,0.2,1.1,0.3c0.6,0-0.1-0.1-0.2-0.1
	c0,0,0.3,0.1,0.3,0.2c0.1,0.1,0.2,0.1,0.3,0.1c0,0,0.6,0.3,0.3,0.1c0.3,0.1,0.6,0.3,0.9,0.4c0.2,0.1,0.4,0.1,0.6,0.1
	c0.5,0.1,0.1,0,0,0c-0.1-0.1,0.1,0.1,0.2,0.1c0.1,0.1,0.2,0.1,0.4,0.2c0.9,0.4,2,0.3,2.5-0.6c0.4-0.8,0.3-2-0.6-2.5
	c-0.6-0.3-1.1-0.6-1.7-0.7c-0.3,0-0.3,0-0.2,0c0.1,0,0.1,0-0.1,0c0.2,0.1,0.1,0,0,0c-0.2-0.1-0.4-0.2-0.6-0.3c0.2,0.1,0.1,0,0,0
	c-0.3-0.2-0.6-0.3-1-0.4c-0.2-0.1-0.4-0.1-0.6-0.1c-0.1,0-0.1,0-0.2,0c-0.1,0-0.1,0,0,0c0-0.1,0.3,0.1,0,0c-0.2-0.1-0.4-0.2-0.6-0.3
	c-0.2-0.1-0.5-0.2-0.7-0.2c-0.2,0,0.1,0.1,0,0c-0.1-0.1-0.2-0.1-0.3-0.2c-0.3-0.2-0.7-0.3-1-0.4c-0.3-0.1-0.7-0.2-1-0.2
	c-0.1,0-0.2-0.1-0.3,0c0.4,0.2,0.6,0.2,0.4,0.1c0,0-0.1-0.1-0.1-0.1c-0.3-0.2-0.6-0.3-0.9-0.4c-0.2-0.1-0.5-0.1-0.7-0.1
	c0.2,0,0.1,0,0,0c-0.3-0.1-0.5-0.2-0.8-0.3c0.3,0.1,0,0-0.1,0c-0.2-0.1-0.4-0.2-0.7-0.3c-0.9-0.3-2,0.4-2.2,1.3
	C378.3,103.2,378.8,104,379.8,104.4L379.8,104.4z"/>
<path class="st0" d="M403.6,96.3c0.7-0.3,1.3-0.6,2-0.9c0.8-0.3,1.2-0.4,1.9-0.5c0.7-0.1,1.3-0.5,1.9-0.8c0.7-0.3,1.7-0.3,2.3-1
	c0.1-0.2,0.4-0.3-0.1-0.1c-0.6,0.3-0.1,0.1,0.1,0.1c0.4-0.1,0.8-0.2,1.2-0.3c0.3-0.1,0.6-0.3,1-0.5c0.2-0.1,0.6-0.1,0.9-0.2
	c0.3-0.1,2.1-0.7,2.1-0.9c0,0.1-0.6,0.1-0.1,0.1c0.2,0,0.5,0,0.7-0.1c0.4-0.1,0.8-0.4,1.1-0.6c0.9-0.4,1.1-1.7,0.6-2.5
	c-0.5-0.9-1.6-1.1-2.5-0.6c-0.1,0.1-0.2,0.1-0.4,0.2c-0.4,0.3,0.3,0,0.1,0c-0.4,0-0.9,0.2-1.3,0.3c-0.6,0.3-1.1,0.5-1.7,0.7
	c-0.6,0.2-1.3,0.5-1.9,0.7c-0.6,0.2-1.5,0.2-2.2,0.9c-0.1,0.1-0.3,0.4,0,0.1c0.2-0.2-0.1,0-0.2,0c-0.4,0.1-0.9,0.2-1.3,0.4
	c-0.6,0.3-0.9,0.4-1.4,0.5c-1.6,0.2-3.1,1.1-4.6,1.7c-0.9,0.4-1.1,1.7-0.6,2.5C401.7,96.5,402.7,96.7,403.6,96.3L403.6,96.3z"/>
<path class="st0" d="M410.5,85.2c-0.3,0.7-0.4,1.3-0.5,2.1c0,0.7-0.2,1.5,0,2.2c0.2,0.6,0.1,1.1,0.3,1.8c0.2,0.7,0.1,1-0.1,1.7
	c-0.5,1.3-0.4,3.1-0.2,4.4c0.1,0.8-0.1,1.7,0,2.5c0.1,0.5,0.3,1.1,0.4,1.6c0-0.3,0-0.6,0-1c-0.2,0.5-0.3,0.9-0.3,1.5
	c0,0.1,0.1,1,0.1,1c0.2-0.1,0.4-0.8-0.1-0.1c-0.8,1-0.5,2.3-0.2,3.4c0-0.3,0-0.6,0-1c-0.2,0.5-0.5,0.9-0.4,1.5
	c0,0.5,0.3,0.9,0.3,1.3c0,0.5-0.2,1.1-0.2,1.7c0,0.7,0.1,1.4,0.2,2.1c0.1-0.5,0.1-0.9,0.2-1.4c-0.2,0.5-0.6,0.8-0.7,1.4
	c-0.1,0.5,0.1,1,0.2,1.5c0.1-0.5,0.1-0.9,0.2-1.4c-0.3,0.7-0.7,1.1-0.8,2.1c-0.1,0.9,0.1,1.7,0.2,2.5c0.1-0.5,0.1-0.9,0.2-1.4
	c-0.3,0.7-0.8,0.9-0.8,1.8c0,0.7,0.3,1.3,0.3,2c0-0.3,0-0.6,0-1c-0.3,0.8-0.4,1.4-0.4,2.2c1-0.4,2-0.8,3.1-1.3
	c-0.2-0.2-0.3-0.3-0.5-0.5c0.2,0.7,0.2,0.8,0.2,0.3c0-0.4-0.1-0.8-0.3-1.1c-0.2-0.4-0.7-0.7-1.1-0.9c-0.4-0.2-0.3-0.1,0.3,0.4
	c-0.1-0.2-0.2-0.5-0.3-0.7c-0.5-0.7-1.2-1-1.8-1.5c-0.6-0.5-1.2-1.4-1.6-2.1c-1.3-1.9-4.4-0.1-3.1,1.8c0.8,1.2,1.7,2.6,2.9,3.4
	c0.5,0.4,0.4,0.2,0.7,0.7c0.4,0.7,0.9,0.9,1.6,1.3c-0.3-0.4-0.6-0.7-0.8-1.1c0.1,0.3,0.1,0.9,0.3,1.2c0.3,0.5,0.7,0.8,1,1.1
	c1.2,1.1,3,0.3,3.1-1.3c0-0.8,0.4-1.5,0.3-2.5c0-0.1-0.1-0.3-0.1-0.4c-0.3-1.1,0,0.4-0.4,0.3c0.3,0.1,0.7-1.3,0.8-1.4
	c0.1-0.5-0.1-0.9-0.2-1.4c0-0.2,0.1-0.5,0-0.7c-0.1-0.4-0.3,0.3-0.2,0.2c1-0.7,0.6-1.9,0.4-2.9c-0.1,0.5-0.1,0.9-0.2,1.4
	c0.3-0.5,0.6-0.9,0.7-1.4c0.1-0.6-0.1-1.3-0.1-2c0.1-0.6,0.2-1.2,0.2-1.9c0-0.6-0.2-1.1-0.4-1.7c0,0.3,0,0.6,0,1
	c0.2-0.4,0.5-0.7,0.5-1.3c0-0.1-0.1-1.1-0.3-1.2c0.2-0.2,0.1,0-0.1,0.4c0.1-0.1,0.3-0.2,0.4-0.4c0.3-0.4,0.4-0.8,0.5-1.3
	c0-0.4-0.1-0.8,0-1.2c0-0.2,0.2-0.9,0.2-1.2c0-0.7-0.3-1.4-0.4-2.1c0,0.3,0,0.6,0,1c0.3-2-0.3-4.1,0.3-6c0.6-1.8,0.2-3.7-0.3-5.5
	c0,0.3,0,0.6,0,1c0.2-1.1,0.2-2.2,0.5-3.2C414.7,84,411.2,83,410.5,85.2L410.5,85.2z"/>
<path class="st0" d="M400.2,107.4c0.8,0.3,1.7,0.7,2.5,1c0.2,0.1,0.5,0.1,0.7,0c0.2,0,0.5-0.1,0.7-0.2c0.2-0.1,0.4-0.3,0.5-0.5
	c0.2-0.2,0.3-0.4,0.3-0.6c0.1-0.5,0.1-1-0.2-1.4c-0.1-0.1-0.2-0.2-0.3-0.4c-0.2-0.2-0.5-0.4-0.8-0.5c-0.8-0.3-1.7-0.7-2.5-1
	c-0.2-0.1-0.5-0.1-0.7,0c-0.2,0-0.5,0.1-0.7,0.2c-0.2,0.1-0.4,0.3-0.5,0.5c-0.2,0.2-0.3,0.4-0.3,0.6c-0.1,0.5-0.1,1,0.2,1.4
	c0.1,0.1,0.2,0.2,0.3,0.4C399.6,107.1,399.9,107.3,400.2,107.4L400.2,107.4z"/>
<path class="st0" d="M435.8,79.2c0,0.2,0.1,0.3,0.1,0.5c0,0.1,0.1,0.7,0.1,0.2c0,0.3,0.1,0.5,0.1,0.8c0.1,0.5,0-0.3,0,0.1
	c0.1,0.5,0.1,0.9,0.3,1.4c0.1,0.3,0-0.3,0,0.1c0,0.3,0.1,0.6,0.1,0.9c-0.1-0.5,0,0.1,0,0.2c0,0.2,0.1,0.5,0.1,0.7
	c0.1,0.4,0.2,0.7,0.2,1.1c0.1,0.7,0.3,1.3,0.4,2c0.2,0.9,1.3,1.5,2.2,1.3c1-0.3,1.5-1.2,1.3-2.2c-0.1-0.7-0.3-1.3-0.4-2
	c-0.1-0.4-0.1-0.7-0.2-1.1c-0.1-0.4,0,0.3,0-0.1c0-0.3-0.1-0.6-0.1-0.9c0,0.5,0-0.1,0-0.2c0-0.2-0.1-0.5-0.1-0.7
	c0-0.2-0.1-0.3-0.2-0.5c0-0.1,0-0.2-0.1-0.3c0,0.3,0,0.3,0,0.1c0-0.2-0.1-0.5-0.1-0.7c0-0.2,0-0.2,0,0.1c0-0.2-0.1-0.4-0.1-0.6
	c-0.1-0.4-0.2-0.7-0.3-1.1c-0.2-0.9-1.3-1.5-2.2-1.3C436.1,77.3,435.6,78.2,435.8,79.2L435.8,79.2z"/>
<path class="st0" d="M431.9,93.6c0.4-0.2,0.7-0.1,1.1-0.3c0.1,0,1.7-0.8,0.7-0.5c-1,0.3,0.8,0.1,0.9,0.1c0.3-0.1,0.5-0.2,0.7-0.4
	c0.6-0.4,0.5-0.4-0.4-0.2c0.1,0.2,1.1,0,1.2,0c0.2-0.1,0.5-0.2,0.7-0.3c0.6-0.4,0.5-0.4-0.3-0.1c0,0.1,1.1,0,1.2,0
	c0.5-0.1,1-0.5,1.2-1c0.4-0.7-1.6,0.3-0.4,0.3c0.5,0,1-0.1,1.4-0.2c0.8-0.1,1.6-0.5,2.4-0.7c0.4-0.1,1.1-0.3,1.4-0.6
	c0.6-0.4-0.9,0,0.2,0.1c1,0.1,1.9-0.4,2.7-0.9c-0.5,0.1-0.9,0.1-1.4,0.2c0.5,0.1,0.9,0.3,1.4,0.3c0.7,0,1-0.5,1.5-0.7
	c0.6-0.2,1.4,0.1,2.1-0.1c0.4-0.1,0.8-0.6,1.2-0.7c-0.3,0.1,0.8,0,0.8,0c0.4,0,0.8,0.2,1.3,0.1c0.4-0.1,0.8-0.4,1.2-0.6
	c-0.5,0.1-0.9,0.1-1.4,0.2c0.9,0.1,1.4,0.3,2.3,0c0.7-0.2,1.5-0.1,2.3-0.2c1-0.1,1.8-0.8,1.8-1.8c0-0.9-0.8-1.9-1.8-1.8
	c-1.3,0.1-2.4,0.1-3.7,0.5c0.3,0,0.6,0,1,0c-0.4-0.1-0.9-0.3-1.3-0.3c-0.1,0-1.5,0.4-1.4,0.5c0.7-0.2,0.7-0.2,0.1-0.3
	c-0.3-0.1-0.5,0-0.8,0c-0.5,0-1,0.1-1.4,0.2c-0.5,0.1-0.7,0.4-1.2,0.6c-0.4,0.1,0.1,0-0.7-0.1c-1-0.1-1.9,0.5-2.7,1
	c0.5-0.1,0.9-0.1,1.4-0.2c-0.5-0.1-1-0.3-1.6-0.2c-0.5,0.1-0.9,0.5-1.4,0.6c-0.5,0.1-0.9-0.1-1.5,0.1c-0.5,0.2-0.8,0.5-1.3,0.6
	c-1,0.3-1.8,0.6-2.8,0.7c-0.6,0-1.1,0-1.6,0.3c-0.4,0.2-0.7,0.7-1,1c0.4-0.2,0.8-0.4,1.3-0.5c-0.1,0-2.7,0.1-2.4,0.6
	c0.8-0.1,0.9-0.2,0.5-0.2c-0.2,0-0.3,0-0.5,0c-0.5,0-1,0.2-1.3,0.6c-0.4,0.3-0.2,0.3,0.5,0c-0.3-0.1-0.5-0.1-0.8-0.1
	c-0.4,0-0.8,0.2-1.1,0.4c-0.8,0.5,0.3,0.1-0.6,0.2c-0.5,0.1-1,0.4-1.4,0.6C428.1,91.6,429.9,94.7,431.9,93.6L431.9,93.6z"/>
<path class="st0" d="M428.8,93.7c0,0.4,0,0.8,0,1.2c0,0.5-0.2,0.6-0.4,1.1c-0.5,0.8-0.5,1.6-0.6,2.5c0.1-0.3,0.2-0.6,0.2-0.9
	c-0.2,0.4-0.5,0.7-0.7,1.1c-0.1,0.5,0,0.9,0,1.4c0.1-0.3,0.2-0.6,0.2-0.9c-0.4,0.6-0.6,1.1-0.9,1.8c-0.2,0.4-0.4,0.8-0.4,1.3
	c0,0.3,0,0.6,0,0.9c0.1-0.3,0.2-0.6,0.2-0.9c-0.2,0.5-0.5,1-0.7,1.5c-0.2,0.4-0.2,0.8-0.3,1.2c-0.1,0.3-0.3,0.5-0.5,0.8
	c-0.3,0.5-0.3,0.9-0.4,1.4c0.3-0.8-0.5,0.7-0.5,0.7c0,0.2,0,0.3-0.1,0.5c-0.1,0.5,0,0.4,0.3-0.2c-0.1-0.1-0.9,1.1-0.9,1.2
	c-0.1,0.4-0.1,0.9-0.1,1.3c0.1-0.3,0.2-0.6,0.2-0.9c-0.3,0.5-0.4,1-0.7,1.5c0.3-0.6-0.1-0.1-0.3,0.2c-0.6,0.7-0.4,1.4-0.5,2.2
	c0.2-0.4,0.4-0.8,0.5-1.3c-0.2,0.2-0.6,0.5-0.8,0.8c-0.3,0.5-0.3,0.9-0.4,1.4c-0.1,0.3-0.6,0.6-0.8,1c-0.3,0.5-0.3,1.1-0.5,1.6
	c-1,2.1,2.1,3.9,3.1,1.8c0.2-0.4,0.4-0.8,0.5-1.2c0.4-1.3-0.3-0.2-0.2-0.1c0.3,0.3,1.3-2.1,1.4-2.2c0.1-0.2,0.1-0.4,0.1-0.6
	c-0.6,0.7-0.7,0.9-0.4,0.6c0.3-0.1,0.6-0.4,0.7-0.7c0.5-0.7,0.3-1.3,0.3-2c-0.2,0.4-0.4,0.8-0.5,1.3c0.2-0.2,0.4-0.4,0.6-0.6
	c0.3-0.4,0.5-0.9,0.7-1.3c0.4-0.9,0.5-1.4,0.6-2.3c-0.2,0.4-0.4,0.8-0.5,1.3c0.3-0.4,0.8-0.7,1-1.2c0.2-0.5,0.1-1,0.2-1.5
	c-0.1,0.3-0.2,0.6-0.2,0.9c0.2-0.2,0.4-0.4,0.5-0.7c0.3-0.5,0.1-0.7,0.3-1.2c-0.1,0.3,0.1-0.1,0.2-0.2c0.2-0.3,0.4-0.7,0.5-1.1
	c0.2-0.6,0.3-1.1,0.6-1.7c0.4-0.8,0.4-1.3,0.4-2.1c-0.1,0.3-0.2,0.6-0.2,0.9c0.3-0.7,0.5-1.4,0.9-2c0.4-0.7,0.3-1.2,0.3-2
	c-0.1,0.3-0.2,0.6-0.2,0.9c0.2-0.4,0.5-0.7,0.7-1.1c0.1-0.4,0-0.9,0.1-1.3c-0.1,0.3-0.2,0.6-0.2,0.9c0.3-0.7,0.8-1.3,1-2.1
	c0.2-0.9,0.3-1.8,0.3-2.7C432.4,91.4,428.8,91.4,428.8,93.7L428.8,93.7z"/>
<path class="st0" d="M433.3,109.1c-0.2,0.9-0.3,1.8-0.5,2.7c-0.1,0.4-0.2,0.9-0.3,1.3c-0.1,0.6-0.2,1.2-0.3,1.8c0-0.2,0-0.3,0.1-0.5
	c0,0.1,0,0.1,0,0.2c-0.1,0.5-0.1,0.9,0.2,1.4c0.2,0.4,0.6,0.7,1.1,0.8c0.5,0.1,1,0.1,1.4-0.2c0.4-0.2,0.8-0.6,0.8-1.1
	c0.1-0.4,0.1-0.7,0.1-1.1c0,0.2,0,0.3-0.1,0.5c0.1-0.8,0.3-1.6,0.5-2.4c0.1-0.8,0.3-1.6,0.4-2.4c0.1-0.5,0.1-0.9-0.2-1.4
	c-0.2-0.4-0.6-0.7-1.1-0.8C434.6,107.7,433.5,108.1,433.3,109.1L433.3,109.1z"/>
<path class="st0" d="M442.4,105.2c0,0.9,0.1,1.9,0.4,2.8c0.1,0.4,0.3,0.9,0.6,1.3c0.2,0.4,0.7,0.7,0.9,0.9c-0.2-0.3-0.3-0.5-0.5-0.8
	c0.2,0.5,0.3,1.3,0.8,1.8c0.3,0.3,0.6,0.7,0.9,0.9c-0.1-0.1-0.1-0.2-0.2-0.3c0.1,0.2,0.2,0.4,0.3,0.6c0.3,0.6,1.1,1.1,1.7,1.4
	c1.4,0.7-0.3-0.3,0.5,0.3c0.3,0.3,0.6,0.5,1,0.8c0.6,0.3,1.2,0.5,1.8,0.8c0.2,0,0.2,0.1,0,0.1c0.2,0.2,0.4,0.3,0.6,0.4
	c0.3,0.2,0.6,0.3,1,0.4c1.2,0.4,2.6,1,3.9,1.1c0,0,0.8,0.1,0.4,0c0.5,0.1,0.9,0.3,1.4,0.4c0.3,0,0.6,0,0.8,0c0.3,0,0.4,0,0.2,0
	c0.2,0.1,0.4,0.2,0.6,0.2c0.4,0.1,0.8,0,1.2,0.1c-0.1,0,0.5,0.2,0.7,0.2c0.8,0.2,1.8,0.1,2.6-0.3c0.7-0.4,1.3-1,1.8-1.6
	c0.6-0.8,0.7-1.4,0.6-2.4c0,0.4,0.1-0.7,0.1-0.6c0-0.4-0.1-0.8-0.1-1.3c-0.1-0.6-0.1-1.2-0.3-1.9c-0.6-2.2-4-1.3-3.5,1
	c0.3,1.1,0.3,2.4,0.2,3.6c0.1-0.3,0.2-0.6,0.2-0.9c-0.3,0.5-0.6,0.9-1.2,1.1c0.3-0.1,0.6-0.2,0.9-0.2c-0.5,0.1-0.6,0-1-0.1
	c-0.4-0.1-1.1-0.1-1.3-0.1c-0.3-0.1-0.8-0.3-1.3-0.3c-0.4,0-0.7,0.1-1.1,0c-0.4,0,0.4,0.1-0.2-0.1c-0.3-0.1-0.6-0.2-1-0.3
	c-0.3,0-0.6,0-0.9-0.1c-0.8-0.2-1.5-0.5-2.2-0.7c-0.3-0.1-0.8-0.2-0.9-0.3c-0.2-0.1-0.7-0.5-1.1-0.7c-0.6-0.3-1.1-0.5-1.6-1
	c-0.4-0.4-0.7-0.6-1.2-0.8c-0.1,0-0.3-0.2-0.3-0.2c0,0,0.3,0.7,0.1,0.2c-0.3-0.9-1.2-1.4-1.8-2.1c0.2,0.3,0.3,0.5,0.5,0.8
	c0-0.1-0.1-0.8-0.3-1.1c-0.1-0.3-0.3-0.5-0.5-0.7c-0.1-0.1-0.6-0.5-0.5-0.4c0.1,0.2-0.1-0.7-0.2-0.8c-0.1-0.4-0.1-0.8-0.1-1.2
	C446,102.9,442.4,102.9,442.4,105.2L442.4,105.2z"/>
<path class="st0" d="M451.2,100.1c0.2,0.5,0.3,1,0.5,1.5c0.1,0.2,0.2,0.4,0.3,0.6c0.1,0.2,0.3,0.4,0.5,0.5c0.2,0.1,0.4,0.2,0.7,0.2
	c0.2,0.1,0.5,0,0.7,0c0.1-0.1,0.3-0.1,0.4-0.2c0.3-0.2,0.5-0.4,0.6-0.6c0.1-0.1,0.1-0.3,0.2-0.4c0.1-0.3,0.1-0.6,0-1
	c-0.2-0.5-0.3-1-0.5-1.5c-0.1-0.2-0.2-0.4-0.3-0.6c-0.1-0.2-0.3-0.4-0.5-0.5c-0.2-0.1-0.4-0.2-0.7-0.2c-0.2-0.1-0.5,0-0.7,0
	c-0.1,0.1-0.3,0.1-0.4,0.2c-0.3,0.2-0.5,0.4-0.6,0.6c-0.1,0.1-0.1,0.3-0.2,0.4C451.1,99.5,451.1,99.8,451.2,100.1L451.2,100.1z"/>
<path class="st0" d="M459.8,101.1c0.2,0.3,0.3,0.6,0.5,0.9c0.2,0.3,0.3,0.6,0.5,0.9c0.2,0.3,0.3,0.6,0.5,0.8
	c0.2,0.3,0.3,0.6,0.5,0.9c0.2,0.4,0.6,0.7,1.1,0.8c0.4,0.1,1,0.1,1.4-0.2c0.4-0.2,0.7-0.6,0.8-1.1c0.1-0.5,0.1-1-0.2-1.4
	c-0.2-0.3-0.3-0.6-0.5-0.9c-0.2-0.3-0.3-0.6-0.5-0.9c-0.2-0.3-0.3-0.6-0.5-0.8c-0.2-0.3-0.4-0.6-0.5-0.9c-0.2-0.4-0.6-0.7-1.1-0.8
	c-0.4-0.1-1-0.1-1.4,0.2c-0.4,0.2-0.7,0.6-0.8,1.1C459.5,100.2,459.5,100.7,459.8,101.1L459.8,101.1z"/>
<path class="st0" d="M478.8,96.3c-0.3,0,0.4,0.2,0.4,0.1c0.2,0,0.4,0.1,0.7,0c0.3,0,0.6-0.1,0.9-0.3c0.2-0.2,0.2-0.1-0.1-0.1
	c0.8-0.1,1.6-0.1,2.4-0.1c0.9,0,1.7-0.2,2.6-0.4c0.4-0.1,0.7-0.1,1.1-0.1c0.2,0,0.4-0.1,0.7-0.1c0.1-0.1,0.3-0.1,0.4-0.2
	c0.3-0.1,0.2-0.2-0.1-0.1c-0.7-0.1,0.1,0.1,0.2,0.1c0.3,0,0.6,0,0.9,0c0.4-0.1,0.7-0.2,1.1-0.3c0.2,0,1.4-0.3,1.3-0.4
	c0,0.1-1-0.1-0.4,0.1c0.3,0.1,0.6,0.1,0.9,0c0.2,0,0.5-0.1,0.7-0.2c0.4-0.2-0.1-0.1,0.3-0.1c0.5-0.1,0.9-0.1,1.4-0.2
	c0.9-0.1,1.6-0.5,2.4-0.7c2.2-0.7,1.3-4.2-1-3.5c-0.8,0.2-1.5,0.6-2.3,0.7c-0.3,0-0.6,0-0.9,0.1c-0.3,0-0.6,0.1-0.9,0.1
	c-0.1,0-0.2,0.1-0.3,0.1c-0.3,0.1-0.3,0.1,0,0.1c0.3,0,0.3,0,0,0c-0.2,0-0.3,0-0.5-0.1c-0.2,0-0.5,0-0.7,0.1
	c-0.2,0.1-0.7,0.3-0.8,0.3c-0.4,0.1-0.9,0-1.3,0.3c0.1-0.1,0.5,0.1,0.1,0c-0.3-0.1-0.6-0.1-0.9,0c-0.2,0-0.4,0.1-0.6,0.2
	c0,0-0.6,0.4-0.3,0.2c0.3-0.1-0.3,0-0.4,0c-0.2,0-0.5,0.1-0.7,0.1c-0.7,0.1-1.5,0.3-2.2,0.4c-0.4,0-0.9,0-1.3,0
	c-0.3,0-0.6,0.1-1,0.1c-0.5,0-1.1,0-1.5,0.3c-0.5,0.3,0.6,0.1,0.3,0c-0.2-0.1-0.5-0.1-0.8-0.1c-1-0.1-1.8,0.9-1.8,1.8
	C477,95.6,477.9,96.2,478.8,96.3L478.8,96.3z"/>
<path class="st0" d="M487.9,87.3c-0.4,0.4-0.8,0.8-1,1.3c-0.1,0.2-0.1,0.4-0.2,0.6c-0.3,0.3-0.2,0.2,0.3-0.1c0,0-0.7,0.3-0.8,0.4
	c-0.4,0.3-0.9,0.8-1.2,1.2c-0.1,0.2-0.5,1.2-0.3,1.4c-0.3-0.2,0.9-0.6,0.2-0.3c-0.9,0.4-1.4,1.1-1.9,1.9c-0.3,0.5-0.7,0.9-0.8,1.4
	c-0.1,0.2-0.1,0.5-0.1,0.7c0.6-0.7,0.7-0.9,0.3-0.6c-0.9,0.5-1,1.5-1.5,2.2c-0.9,1.4-1.8,3.1-1.6,4.8c0.1,1,0.7,1.4,1.3,2.1
	c0.5,0.5,0.7,1.2,1.3,1.6c0.5,0.3,1.1,0.5,1.5,0.9c0.3,0.4,0.4,0.8,0.9,1.1c0.2,0.1,0.5,0.2,0.7,0.3c-0.4-0.8-0.6-1-0.5-0.6
	c0.1,1,1.2,1.6,1.9,2.1c0.6,0.5,1,1.2,1.7,1.5c1.6,0.8,2.1,2,3.6,2.8c2,1.1,3.8-2,1.8-3.1c-0.2-0.1-0.4-0.2-0.7-0.3
	c0.3,0.2,0.3,0.2,0.1,0c-0.2-0.4-0.6-0.6-0.9-0.8c-0.5-0.4-1-1-1.6-1.4c-0.2-0.1-0.4-0.2-0.7-0.3c0.3,0.2,0.3,0.2,0.1,0
	c-0.2-0.4-0.6-0.7-0.9-0.9c-0.3-0.2-0.7-0.4-1-0.7c0,0.2,0,0.2,0,0c0-0.2-0.1-0.4-0.2-0.5c-0.2-0.3-0.4-0.6-0.8-0.8
	c-0.2-0.1-0.5-0.2-0.7-0.3c0.3,0.5,0.4,0.6,0.3,0.3c-0.1-0.6-1.2-1.4-1.7-1.7c0,0-0.6-0.3-0.7-0.4c-0.3-0.2-0.3-0.2,0,0.1
	c0-0.1-0.1-0.3-0.2-0.4c-0.1-0.1-1.4-1.7-1.5-1.6c0.2,0.6,0.2,0.8,0.3,0.4c0-0.2,0.1-0.3,0.1-0.5c0.1-0.3,0.2-0.7,0.4-1
	c0.2-0.3,0.4-0.6,0.6-0.9c0.2-0.4,0.3-0.8,0.6-1.2c-0.2,0-0.2,0,0,0c0.2-0.1,0.3-0.2,0.5-0.3c0.3-0.3,0.5-0.6,0.6-0.9
	c0.1-0.4,0.2-0.6,0.3-0.9c0.2-0.4,0.5-0.7,0.7-1.1c-0.1,0.1-0.3,0.2-0.4,0.2c0.2-0.1,0.4-0.2,0.7-0.3c0.4-0.2,0.6-0.5,0.8-0.8
	c0.3-0.3,0.5-0.7,0.6-1.1c0.1-0.2,0.1-0.4,0.1-0.7c0-0.4-0.1-0.3-0.2,0.3c0,0-0.1,0-0.1,0c0.2-0.1,0.4-0.2,0.7-0.3
	c0.3-0.2,0.6-0.5,0.8-0.8c0.3-0.3,0.5-0.7,0.6-1.1c0.1-0.2,0.1-0.4,0.2-0.6c-0.1,0.4-0.1,0.4,0.2,0
	C492.2,88.3,489.6,85.8,487.9,87.3L487.9,87.3z"/>
<path class="st0" d="M492.2,103.2c-1.3,0.6-2.5,1.4-3.7,2.2c-0.6,0.4-1.2,0.5-1.8,1c-0.5,0.4-0.8,1-1.3,1.4c-0.7,0.6-1.4,1-1.9,1.7
	c-0.4,0.6-0.9,1.2-1.2,1.8c-0.3,0.5-0.8,1.3-0.9,1.9c0,0.1-0.1,0.1-0.1,0.2c0.3-0.3,0.4-0.4,0.2-0.2c-0.2,0.1-0.4,0.3-0.5,0.4
	c-0.5,0.5-0.5,1-0.7,1.6c-0.1,0.5-0.4,1-0.6,1.5c-0.4,1-0.4,1.8-0.2,2.8c0.2,0.8,0.6,1.5,1.2,2c0.3,0.3,0.7,0.5,1,0.7
	c0.4,0.3,0.7,0.6,1.2,0.8c0.2,0.1,0.6,0.1,0.7,0.1c0.1,0,0.5,0.1,0.1,0c0.4,0.1,0.7,0.3,1.1,0.4c0.4,0.1,0.7,0.2,1,0.3
	c0.5,0.1,0.9,0,1.4,0c0.3,0,0.6,0.1,0.9,0.1c0.4,0,0.7-0.1,1.1-0.1c0.2,0,0.5,0.1,0.7,0.1c0.5,0.1,1,0,1.5-0.1
	c0.4,0,0.8-0.1,1.3-0.1c0.4-0.1,0.9-0.1,1.3-0.2c0.1,0,0.3-0.1,0.5-0.2c0.3-0.1,0.3-0.1-0.1,0c0.2,0,0.3,0,0.5,0.1
	c0.5,0,0.9-0.1,1.4-0.2c1.6-0.3,3.2-0.9,4.8-1.3c2.3-0.5,1.3-4-1-3.5c-1,0.2-1.9,0.5-2.8,0.8c-0.4,0.1-0.9,0.3-1.3,0.4
	c-0.3,0-0.5,0.1-0.8,0.1c-0.5,0,0.1,0-0.4-0.1c-0.3-0.1-0.7-0.1-1,0c-0.1,0-0.9,0.4-0.5,0.3c-0.5,0.1-1,0.1-1.5,0.2
	c-0.2,0-0.4,0-0.6,0c-0.1,0-0.8,0.1-0.7,0.1c0.3,0-0.4-0.1-0.5-0.1c-0.3-0.1-0.7-0.1-1-0.1c-0.5,0-0.9,0.1-1.3,0.1
	c-0.3,0-0.5-0.1-0.8,0c-0.2,0-0.3,0-0.5,0.1c0.2,0,0.2,0,0,0c-0.4-0.1-0.9-0.2-1.3-0.3c-0.3-0.1-0.6-0.2-0.9-0.3
	c-0.2,0-0.3,0-0.5-0.1c0.1,0.1,0.2,0.1,0.4,0.2c0,0-1.1-0.8-1.2-0.9c-0.2-0.2-0.1,0-0.1,0c0-0.2-0.1-0.4-0.1-0.6c0-0.3,0-0.2,0,0.2
	c0.3-0.3,0.5-1,0.6-1.4c0.2-0.5,0.3-1,0.5-1.5c-0.2,0.3-0.3,0.5-0.5,0.8c0.1-0.1,0.5-0.4,0.6-0.6c0.3-0.3,0.4-0.7,0.6-1.1
	c0.3-0.6,0.5-1.2,0.9-1.7c0.3-0.4,0.6-1,1-1.4c0.4-0.4,1-0.8,1.5-1.2c0.4-0.4,0.8-1.1,1.3-1.4c-0.5,0.2,0.4,0,0.6-0.1
	c0.2-0.1,0.5-0.3,0.7-0.4c1.1-0.8,2.2-1.5,3.4-2c0.9-0.4,1.1-1.7,0.6-2.5C494.2,102.9,493.1,102.8,492.2,103.2L492.2,103.2z"/>
</svg>
