<?xml version="1.0" encoding="utf-8"?>
<!-- Generator: Adobe Illustrator 21.1.0, SVG Export Plug-In . SVG Version: 6.00 Build 0)  -->
<svg version="1.1" id="レイヤー_1" xmlns="http://www.w3.org/2000/svg" xmlns:xlink="http://www.w3.org/1999/xlink" x="0px"
	 y="0px" viewBox="0 0 504.8 147.1" style="enable-background:new 0 0 504.8 147.1;" xml:space="preserve">
<style type="text/css">
	.st0{fill:#FFFFFF;}
</style>
<path class="st0" d="M146.5,85.4c1.7-0.2,3.5-0.3,5.2-0.6c0.4-0.1,0.9-0.2,1.3-0.2c0.4,0,0.7,0.1,1.1,0.1c0.5,0,0.9-0.2,1.4-0.3
	c0.4,0,0.7,0,1.1,0c0.8-0.1,1.7-0.4,2.5-0.4c0.9-0.1,1.7,0.1,2.6,0c0.9-0.1,1.8-0.4,2.7-0.5c0.8-0.1,1.6,0,2.4-0.1
	c2.3-0.2,2.3-3.8,0-3.6c-0.8,0.1-1.7,0-2.5,0.1c-0.9,0.1-1.8,0.3-2.7,0.5c-0.8,0.1-1.6,0-2.4,0c-0.9,0-1.8,0.4-2.7,0.4
	c-0.4,0-0.7,0-1.1,0c-0.5,0-0.9,0.2-1.4,0.3c-0.4,0-0.7-0.1-1.1-0.1c-0.5,0-0.9,0.2-1.4,0.3c-1.6,0.3-3.3,0.3-4.9,0.5
	c-1,0.1-1.8,0.7-1.8,1.8C144.7,84.5,145.6,85.5,146.5,85.4L146.5,85.4z"/>
<path class="st0" d="M137.3,100c0.3,2,0.6,4.1,1.3,5.9c0.2,0.5,0.3,0.9,0.4,1.4c0,0.1,0.2,0.7,0.1,0.4c0.1,0.3,0.1,0.6,0.1,0.9
	c0.2,0.9,0.6,1.9,0.9,2.8c0.3,0.9,1.3,1.6,2.2,1.3c0.9-0.3,1.6-1.3,1.3-2.2c-0.3-0.9-0.7-1.8-0.9-2.7c0,0.2,0,0.1,0-0.1
	c0-0.2-0.1-0.4-0.1-0.7c0-0.2-0.1-0.4-0.1-0.6c-0.1-0.5-0.2-1-0.4-1.5c-0.7-1.9-1-4-1.3-5.9c-0.2-0.9-1.4-1.5-2.2-1.3
	C137.5,98.1,137.1,99,137.3,100L137.3,100z"/>
<path class="st0" d="M142.5,104.8c0.8-0.6,1.5-1.1,2.4-1.3c1.1-0.3,1.9-0.8,2.9-1.4c0.8-0.5,1.8-0.8,2.7-1.3
	c0.3-0.2,0.8-0.6,0.8-0.6c0.2-0.1,0.9,0,1.3-0.1c0.5-0.2,0.7-0.5,1.1-0.8c0.4-0.2,0.9-0.3,1.3-0.4c1-0.2,2,0,3-0.6
	c0.3-0.2,0.4-0.4,0.8-0.4c0.4-0.1,0.7,0,1.1,0.1c0.4,0.1,0.9,0,1.3-0.1c0.3-0.1,1.2-0.5,0.6-0.5c0.6,0,1,0.2,1.6,0.1
	c0.5-0.1,1-0.2,1.5-0.3c0.9-0.2,1.7,0.3,2.6,0c0.4-0.1,0.7-0.3,1.1-0.3c0.5-0.1,0.6,0.1,1.1,0.2c0.5,0.2,0.9,0.1,1.5,0.1
	c0.5,0,0.8,0.1,1.4,0.2c0.4,0.1,0.9,0.1,1.4-0.1c0.1,0,0.4-0.1,0.4-0.2c-0.5,0.9-1.2-0.9-0.8-0.1c0.1,0.3,0.4,0.5,0.5,0.6
	c0.1,0.1,0,0.3,0.1,0.5c0.1,0.4,0.2,0.5,0.2,0c0.2-0.3,0.2-0.4,0-0.2c-0.7,0.2-1.2,1.7-1.5,2.3c-0.2,0.4-0.2,0.8-0.3,1.2
	c-0.2,0.4-0.6,0.8-0.9,1.1c-0.6,0.9-1.1,1.8-1.7,2.6c-0.5,0.6-1.6,1.5-1.6,2.5c0,0.3-0.2,0.4,0.2,0.1c-0.1,0.1-0.4,0.2-0.5,0.3
	c-0.5,0.3-0.8,0.7-1.1,1.2c-0.3,0.4-0.7,0.8-1.1,1.2c-0.1,0.1-0.2,0.2-0.3,0.4c-0.1,0.1-0.1,0.2-0.2,0.2c-0.4,0.2-0.2,0.2,0.7,0.1
	c-1.9-1.3-3.7,1.8-1.8,3.1c1.6,1.1,3.1-0.1,4.2-1.2c0.3-0.3,0.6-0.5,0.8-0.8c0.3-0.3,0.5-0.8,0.8-1.1c0.6-0.5,1.2-0.6,1.6-1.4
	c0.2-0.3,0.2-0.7,0.3-1c0,0,0.2-0.3,0.4-0.5c0.6-0.6,1.1-1.3,1.6-2c0.4-0.7,0.8-1.4,1.3-2.1c0.3-0.5,0.7-0.8,0.9-1.3
	c0.1-0.3,0.1-0.7,0.3-1c0.3-0.8,0.8-1.1,1.2-1.7c0.6-0.8,0.6-1.6,0.4-2.5c-0.4-1.3-1-2.9-2.2-3.6c-0.9-0.6-1.5-0.2-2.4-0.1
	c0.2,0-0.4-0.2-0.5-0.2c-0.4-0.1-0.8-0.2-1.2-0.1c-0.7,0.1-0.6,0-1.3-0.2c-0.4-0.1-0.8-0.1-1.2-0.1c-0.9,0.1-1.7,0.4-2.6,0.6
	c0.3,0,0.6,0,1,0c-0.6-0.1-1.1-0.4-1.8-0.4c-0.7,0-1.4,0.3-2.1,0.4c-0.5,0.1-0.9-0.1-1.5-0.1c-0.7,0-1,0.3-1.7,0.6
	c-0.3,0.1,0.6,0.2-0.2,0c-0.2-0.1-0.5-0.1-0.8-0.1c-0.7,0-1.5,0.2-2.2,0.5c-0.2,0.1-1.3,0.7-0.6,0.5c-0.6,0.2-1.5,0.1-2.2,0.2
	c-0.6,0.1-1.2,0.4-1.8,0.6c-0.3,0.1-0.6,0.4-0.9,0.5c-0.4,0.2,0,0.1-0.4,0.1c-0.7,0.1-1.2,0.1-1.9,0.6c-0.4,0.3-0.8,0.6-1.3,0.9
	c-0.6,0.3-1.3,0.5-1.9,0.9c-0.5,0.3-1.1,0.8-1.7,1c-1.3,0.4-2.4,0.9-3.6,1.7c-0.8,0.6-1.2,1.6-0.6,2.5
	C140.4,104.9,141.7,105.4,142.5,104.8L142.5,104.8z"/>
<path class="st0" d="M147,108.8c0.4-0.2,0.8-0.4,1.2-0.5c0.4-0.1,0.9-0.1,1.3-0.2c0.8-0.2,1.7-0.3,2.5-0.4c1-0.2,1.9-0.5,2.9-0.6
	c0.6-0.1,1-0.2,1.6-0.4c0.4-0.2,0.6-0.2,1.1-0.2c0.9,0,1.6-0.3,2.5-0.3c0.9,0,1.6-0.3,2.5-0.2c0.4,0,0.8,0.1,1.3,0.1
	c0.5,0,0.9-0.2,1.4-0.3c0.9-0.2,1.8-0.1,2.7,0c-0.3-1.1-0.6-2.2-0.9-3.4c-0.5,0.3-0.9,0.7-1.3,1c-1.9,1.3-0.1,4.4,1.8,3.1
	c0.5-0.3,0.9-0.7,1.3-1c1.5-1,0.9-3.3-0.9-3.4c-1,0-1.9-0.1-2.9,0c-0.4,0-0.8,0.3-1.2,0.3c-0.4,0-0.9-0.1-1.3-0.1
	c-0.9,0-1.8,0.2-2.7,0.3c-0.5,0-0.9,0-1.4,0.1c-0.4,0.1-0.8,0.2-1.2,0.3c-0.5,0-0.9,0-1.4,0.1c-0.4,0.1-0.8,0.4-1.2,0.5
	c-1,0.3-2.1,0.4-3.2,0.7c-0.8,0.2-1.7,0.2-2.5,0.4c-0.5,0.1-0.9,0.1-1.4,0.2c-0.5,0.1-0.9,0.4-1.3,0.6c-0.9,0.4-1.5,1.2-1.3,2.2
	C145,108.4,146.1,109.2,147,108.8L147,108.8z"/>
<path class="st0" d="M144.9,115.9c1.8-0.2,3.5-0.4,5.3-0.9c1.7-0.4,3.4-0.9,5.1-1.2c0.9-0.2,1.7,0,2.5-0.2c0.4-0.1,0.8-0.2,1.2-0.3
	c0.4-0.1,0.8-0.4,1.1-0.5c-0.3,0.1,0.1,0.1,0.2,0.1c0.2,0,0.4,0,0.6,0c0.5,0,1-0.3,1.5-0.4c0.4-0.1,0.8-0.1,1.2-0.2
	c0.5-0.1,0.9-0.3,1.4-0.4c2.2-0.6,1.3-4.1-1-3.5c-0.8,0.2-1.6,0.4-2.5,0.6c-0.4,0.1-0.7,0.3-1.1,0.3c-0.5,0.1-0.9-0.1-1.4,0
	c-0.7,0.2-1.3,0.7-2.1,0.8c-0.4,0-0.7-0.1-1.1,0c-0.5,0-0.9,0.1-1.4,0.2c-3.3,0.6-6.4,1.6-9.7,2c-1,0.1-1.8,0.8-1.8,1.8
	C143.1,115,144,116,144.9,115.9L144.9,115.9z"/>
<path class="st0" d="M156.2,74.1c-0.1,0.4-0.5,0.8-0.6,1.3c-0.1,0.6,0,1.3-0.1,1.9c-0.1,0.6-0.3,1.2-0.1,1.9
	c0.2,0.6,0.6,0.8,0.4,1.4c-0.1,0.4-0.5,0.8-0.6,1.2c-0.1,0.6,0.2,1.2,0.2,1.6c0,0.6-0.3,1.2-0.3,1.9c0,0.8,0.2,1.5,0.4,2.3
	c0.2,0.7,0.1,0.6-0.2,1.2c-0.4,0.6-0.5,1.2-0.3,1.9c0.1,0.6,0.4,1,0.5,1.6c0.1,0.6,0,1.2-0.1,1.8c-0.1,0.6-0.3,0.9-0.5,1.4
	c-0.3,0.7-0.2,1.2-0.1,1.9c0.1,0.6-0.1,1.2-0.1,1.9c0,0.6,0.5,1,0.6,1.6c0-0.3,0-0.6,0-1c-0.2,0.8-0.6,1.6-0.9,2.4
	c-0.1,0.5-0.1,0.9,0,1.4c0.1,0.4,0.5,0.7,0.6,1.1c0-0.3,0-0.6,0-1c0.3-0.5,0.4-0.6,0.1-0.3c-0.1,0.1-0.3,0.2-0.4,0.3
	c-0.3,0.3-0.6,0.7-0.7,1.2c-0.1,0.6,0,1.1,0.2,1.6c0.1,0.2,0.4,0.5,0.4,0.7c0-0.3,0-0.6,0-1c0.1-0.4-0.4,0.4-0.5,0.6
	c-0.2,0.3-0.3,0.7-0.3,1.1c0,0.7,0.6,1.2,0.7,1.8c0-0.3,0-0.6,0-1c0.1-0.4-0.2,0.1-0.3,0.2c-0.2,0.2-0.3,0.4-0.4,0.6
	c-0.2,0.5-0.4,1.1-0.6,1.5c-0.2,0.6-0.1,1.2,0.2,1.7c0.1,0.2,0.3,0.4,0.4,0.6c0.2,0.2,0.4,0.6,0.3,0.2c0-0.3,0-0.6,0-1
	c-0.1,0.6-0.5,1.1-0.5,1.7c0,0.7,0.4,1.2,0.5,1.8c0-0.3,0-0.6,0-1c0.3-0.8,0.1-0.4-0.3,0c-0.3,0.3-0.6,0.6-0.7,1.1
	c-0.2,0.7,0.1,1.2,0.1,1.9c0,0.6-0.3,1.2-0.2,1.8c0.1,0.3,0.3,0.6,0.4,1c0.2,0.5,0.2,0.1,0.2,0.8c0,0.4-0.1,0.6-0.2,1
	c-0.2,0.9,0.1,1.9-0.3,2.7c-0.3,0.5-0.8,1.1-0.7,2c0,0.4,0.2,0.8,0.4,1.1c0.1,0.1,0.2,0.2,0.3,0.4c0.3,0.3,0.2,0.3-0.1,0
	c-0.2,1,0.1,1.7,0.3,2.7c0-0.3,0-0.6,0-1c-0.2,0.6-0.7,1-0.7,1.7c0,0.8,0.6,1.2,0.7,1.8c0-0.3,0-0.6,0-1c-0.1,0.4-0.7,1-0.7,1.7
	c0,0.7,0.5,1.2,0.7,1.8c0-0.3,0-0.6,0-1c-0.1,0.3-0.4,0.7-0.5,1c-0.1,0.4-0.2,0.9-0.2,1.3c-0.1,0.5-0.1,0.9,0,1.4
	c0.1,0.4,0.4,0.7,0.5,1c0-0.3,0-0.6,0-1c-0.1,0.4-0.4,0.8-0.5,1.3c-0.1,0.3-0.1,0.5,0,0.8c0,0.1,0.2,1.1,0.2,0.7
	c0-0.3-0.1,0.2-0.2,0.3c-0.1,0.2-0.2,0.4-0.3,0.7c-0.2,0.6-0.2,1.3-0.3,1.9c-0.1,1,0.9,1.8,1.8,1.8c1.1,0,1.7-0.8,1.8-1.8
	c0.1-1,0.8-1.7,0.7-2.7c0-0.3-0.2-0.7-0.2-1c0,0.2,0.1-0.1,0.1-0.2c0.2-0.7,0.4-1.1,0.2-1.8c-0.1-0.3-0.4-0.9-0.5-1.1
	c0-0.3,0.3-0.7,0.5-1c0.3-0.5,0.4-1.1,0.2-1.6c-0.1-0.5-0.5-0.9-0.6-1.3c0,0.3,0,0.6,0,1c0.1-0.4,0.7-1,0.7-1.7
	c0-0.8-0.6-1.2-0.7-1.8c0,0.3,0,0.6,0,1c0.1-0.4,0.5-0.8,0.6-1.3c0.2-0.8-0.2-1.2-0.3-1.9c-0.1-0.6,0.3-1.1,0.1-1.7
	c-0.1-0.3-0.2-0.5-0.3-0.8c-0.1-0.1-0.2-0.2-0.3-0.4c-0.2-0.3-0.2-0.3-0.1-0.1c0,0.3,0,0.6,0,1c0,0.2,0.4-0.5,0.4-0.6
	c0.2-0.4,0.2-0.7,0.3-1.1c0.2-0.9,0.1-1.8,0.3-2.6c0.3-0.9,0.3-1.4,0.2-2.4c-0.1-0.4-0.1-0.8-0.2-1.1c-0.1-0.3-0.4-0.6-0.4-0.8
	c0,0.3,0,0.6,0,1c0.1-0.7,0.3-1.4,0.3-2.1c0-0.2,0-0.4-0.1-0.6c-0.1-0.4-0.2-0.2-0.4,0.6c0.1,0,0.4-0.4,0.5-0.4
	c0.4-0.4,0.7-0.9,0.8-1.5c0.1-0.8-0.3-1.3-0.4-2c0,0.3,0,0.6,0,1c0.2-0.8,0.6-1.4,0.4-2.3c-0.1-0.4-0.3-0.6-0.5-0.9
	c-0.1-0.2-0.6-0.9-0.4-0.4c0,0.3,0,0.6,0,1c0-0.2,0.1-0.3,0.2-0.5c0,0.1,0.4-0.9,0.2-0.7c-0.1,0.2,0.3-0.3,0.3-0.3
	c0.2-0.3,0.4-0.5,0.5-0.8c0.2-0.4,0.2-0.9,0-1.4c-0.1-0.4-0.5-0.8-0.6-1.1c0,0.3,0,0.6,0,1c-0.1,0.4,0.4-0.4,0.5-0.6
	c0.2-0.3,0.3-0.7,0.3-1.1c0-0.7-0.6-1.2-0.7-1.8c0,0.3,0,0.6,0,1c-0.3,0.5-0.4,0.6-0.1,0.3c0.1-0.1,0.3-0.2,0.4-0.3
	c0.3-0.3,0.5-0.7,0.6-1.1c0.1-0.4,0.1-0.9,0-1.3c-0.1-0.4-0.5-0.7-0.6-1.1c0,0.3,0,0.6,0,1c0.2-0.8,0.7-1.6,0.9-2.4
	c0.3-1-0.3-1.5-0.5-2.4c0,0.3,0,0.6,0,1c0.1-0.6,0.3-1.2,0.3-1.8c0-0.4-0.2-0.8-0.2-1.1c-0.2,0.3-0.2,0.3,0.1,0
	c0.1-0.1,0.2-0.3,0.2-0.5c0.2-0.4,0.2-0.9,0.3-1.3c0.1-1,0.4-2,0.2-3c-0.2-0.8-0.5-1.5-0.6-2.3c0,0.3,0,0.6,0,1
	c0.1-0.3,0.6-0.8,0.7-1.3c0.1-0.6,0.1-1.4,0-2c-0.1-0.5-0.3-1-0.4-1.5c-0.1-0.6,0.1-1.1,0.2-1.7c0-0.3,0.1-0.5,0-0.8
	c0,0.1-0.1-1.1-0.2-0.7c-0.1,0.3,0.3-0.4,0.3-0.4c0.1-0.2,0.2-0.5,0.3-0.7c0.1-0.7,0.2-1.6,0-2.2c-0.1-0.5-0.5-0.9-0.6-1.3
	c0,0.3,0,0.6,0,1c0.1-0.8,0.3-1.4,0.4-2.2c0-0.4,0-0.3,0.1-0.7c0.1-0.3,0.3-0.6,0.4-0.9C160.2,72.8,156.8,71.9,156.2,74.1
	L156.2,74.1z"/>
<path class="st0" d="M150.2,114.8c-0.4,0.6-0.8,1.1-1,1.7c0,0.1-0.2,0.7-0.1,0.5c0.1-0.1-0.4,0.3-0.5,0.4c-0.9,0.8-1.5,1.9-2.2,2.9
	c-0.7,1-1.6,1.7-2.4,2.6c-0.3,0.4-0.5,0.8-0.8,1.1c-0.5,0.5-1,0.8-1.3,1.4c-0.4,0.8-1.5,1.3-2.2,2c-0.4,0.4-0.8,0.9-1.2,1.3
	c-0.1,0.1-0.2,0.2-0.3,0.4c0.1,0,0.1,0-0.1,0c-0.3,0.1-0.6,0.2-0.8,0.3c-0.9,0.5-1.6,1.5-2.3,2.2c-0.9,0.8-2,1.3-3,1.9
	c-2,1.2-0.2,4.3,1.8,3.1c0.5-0.3,1-0.5,1.4-0.8c0.5-0.4,1.1-0.8,1.6-1.2c0.5-0.4,0.9-0.8,1.4-1.2c0.3-0.3,0.8-0.8,0.9-0.9
	c0.7-0.4,1.2-0.5,1.8-1.1c0.4-0.4,0.8-0.9,1.2-1.3c0.8-0.9,2-1.4,2.7-2.5c0.1-0.2,0.2-0.5,0.4-0.7c0.2-0.2,0.4-0.3,0.6-0.5
	c0.4-0.4,0.6-0.8,1-1.3c0.7-1,1.7-1.8,2.5-2.8c0.7-1,1.3-2,2.2-2.8c0.5-0.5,0.8-1,1-1.7c0.2-0.5,0.5-0.9,0.8-1.4
	C154.6,114.7,151.5,112.9,150.2,114.8L150.2,114.8z"/>
<path class="st0" d="M160.5,119.7c0,0-0.1-0.1-0.1-0.1c-0.6-0.6-1.5-0.7-2.2-0.3c-1.2,0.6-1.3,2.2-0.6,3.2c0.6,0.9,1.9,1.3,2.9,1.7
	c0.5,0.2,1.1,0.4,1.6,0.6c0.5,0.2,1.1,0.2,1.6,0.3c0.5,0.1,0.9,0.5,1.5,0.6c0.6,0.1,0.9,0.2,1.5,0.5c0.5,0.2,1.1,0.2,1.6,0.4
	c0.4,0.2,0.7,0.5,1.1,0.7c0.5,0.2,1.1,0.1,1.5,0.3c0.5,0.2,1,0.5,1.4,0.7c0.6,0.3,1.2,0.3,1.8,0.5c0.4,0.1,0-0.1,0.2,0
	c0.2,0.1,0.5,0.4,0.7,0.5c0.5,0.3,1.1,0.5,1.6,0.7c0.5,0.2,1,0.1,1.4,0.3c2.2,0.6,3.2-2.9,1-3.5c-0.8-0.2-1.4-0.2-2.2-0.6
	c-0.3-0.2-0.5-0.4-0.8-0.6c-0.5-0.3-1-0.3-1.5-0.4c-0.8-0.1-1.5-0.6-2.2-0.9c-0.5-0.2-1-0.2-1.6-0.3c0,0-0.6-0.4-0.7-0.5
	c-0.4-0.2-0.9-0.3-1.3-0.4c-0.4-0.1-0.7-0.3-1-0.4c-0.5-0.2-0.9-0.3-1.4-0.4c-0.5-0.1-0.9-0.3-1.3-0.5c-0.8-0.3-1.6-0.3-2.5-0.6
	c-0.8-0.3-1.7-0.6-2.4-1.1c0.2,0.2,0.4,0.4,0.6,0.6c0,0,0,0,0,0c0,0.3,0,0.6,0,1c0-0.1,0-0.1,0-0.2c-0.3,0.4-0.6,0.7-0.8,1.1
	c0,0,0.1-0.1,0.1-0.1c-0.7-0.1-1.5-0.2-2.2-0.3c0,0,0.1,0.1,0.1,0.1C159.6,123.8,162.2,121.3,160.5,119.7L160.5,119.7z"/>
<path class="st0" d="M187.6,117.2c0.7-0.4,1.4-0.9,2.1-1.1c-0.3,0.1,0.3,0,0.4,0c0.2,0,0.3-0.1,0.5-0.1c0.4-0.1,0.8-0.3,1.2-0.4
	c0.8-0.3,1.7-0.4,2.5-0.5c0.2,0,0.4-0.1,0.5-0.1c0.1,0,0.7-0.1,0.4-0.1c0.4,0,0.9,0,1.3,0c0.9,0,1.8-0.8,1.8-1.8
	c0-1-0.8-1.8-1.8-1.8c-0.5,0-1,0-1.5,0c-0.5,0.1-1,0.2-1.6,0.3c-0.9,0.2-1.8,0.3-2.7,0.6c-0.4,0.1-0.8,0.3-1.2,0.4
	c-0.5,0.1-1,0.2-1.5,0.4c-0.8,0.3-1.5,0.8-2.3,1.2c-0.8,0.5-1.2,1.7-0.6,2.5C185.6,117.4,186.7,117.7,187.6,117.2L187.6,117.2z"/>
<path class="st0" d="M198.3,104.8c-0.1,0.3-0.4,0.6-0.5,0.9c-0.2,0.5-0.2,1-0.2,1.5c0,0.4,0,0.9,0,1.3c0,0.4-0.2,0.7-0.3,1.1
	c-0.1,0.5-0.3,0.9-0.4,1.4c-0.1,0.6,0,1,0.1,1.6c0,0.8,0,1.7-0.1,2.5c-0.1,0.4-0.3,0.8-0.3,1.3c0,0.5,0.1,1,0.1,1.5
	c0.1,0.9-0.2,1.8-0.3,2.7c0,0.9-0.1,1.7-0.1,2.6c0,1.1,0.3,2,0.5,3c0.4,2.3,3.9,1.3,3.5-1c-0.2-0.8-0.4-1.5-0.4-2.4
	c0-0.9,0.1-1.7,0.1-2.6c0.1-0.8,0.3-1.7,0.2-2.6c0-0.5-0.1-0.7-0.1-1.1c0.1-0.4,0.2-0.8,0.2-1.3c0.1-0.8,0.2-1.6,0.1-2.4
	c0-0.4-0.1-0.8-0.1-1.1c0-0.4,0.2-0.9,0.3-1.3c0.1-0.5,0.3-0.9,0.4-1.4c0-0.4,0-0.9,0-1.3c0-0.2,0.1-0.4,0.1-0.6c0-0.4,0-0.4,0-0.2
	c0.2-0.4,0.4-0.7,0.6-1.1c0.3-0.9-0.4-2-1.3-2.2C199.5,103.2,198.7,103.9,198.3,104.8L198.3,104.8z"/>
<path class="st0" d="M190.4,133.5c0.7-0.6,1.2-1.2,2-1.7c0.7-0.5,1.7-0.9,2.3-1.5c0.2-0.2,0.3-0.4,0.4-0.5c0.1-0.1,0.4-0.4,0.2-0.3
	c-0.3,0.2,0.3-0.1,0.4-0.1c0.2-0.1,0.4-0.2,0.6-0.4c0.8-0.6,1.6-1.2,2.4-1.8c0.8-0.6,1.6-1.3,2.4-1.9c0.4-0.3,0.8-0.6,1.2-0.9
	c0.4-0.3,0.7-0.7,1.1-1c0.3-0.2,0.6-0.4,0.9-0.6c0.4-0.3,0.7-0.7,1.1-1c0.3-0.2,0.6-0.3,0.9-0.4c0.5-0.3,1-0.8,1.5-1.1
	c0.8-0.6,0.6-1.9,0-2.5c-0.8-0.8-1.8-0.6-2.5,0c-0.8,0.6-1.6,0.9-2.4,1.6c-0.7,0.5-1.5,0.9-2.1,1.5c-1.4,1.4-3,2.6-4.5,3.8
	c-0.7,0.5-1.4,1.1-2.1,1.6c-0.4,0.3-0.9,0.4-1.3,0.8c-0.3,0.3-0.5,0.7-0.8,1.1c0.3-0.3,0-0.1-0.2,0c-0.2,0.1-0.4,0.2-0.5,0.3
	c-0.4,0.2-0.7,0.5-1.1,0.7c-0.8,0.6-1.5,1.3-2.3,2c-0.7,0.6-0.7,1.9,0,2.5C188.6,134.3,189.7,134.2,190.4,133.5L190.4,133.5z"/>
<path class="st0" d="M222.8,104.1c-0.6,0.3-1,0.5-1.5,0.7c-0.4,0.1-0.7,0.3-1,0.5c-0.2,0.1-0.4,0.3-0.6,0.5c-0.2,0.2,0.2-0.1-0.1,0
	c-0.5,0.3-1.3,0.6-1.9,1c-0.1,0.1-0.2,0.2-0.3,0.3c-0.2,0.2,0.2-0.1-0.1,0c-0.3,0.2-0.6,0.3-0.9,0.5c-1.2,0.7-2.1,1.4-3.2,2.1
	c-1.1,0.8-2.1,1.8-3.2,2.7c-0.7,0.6-0.7,1.9,0,2.5c0.7,0.7,1.8,0.6,2.5,0c0.9-0.8,1.7-1.6,2.6-2.3c1.1-0.8,2-1.4,3.2-2.1
	c0.6-0.4,1.1-0.7,1.6-1.1c0,0,0.3-0.2,0.2-0.1c-0.2,0.1,0,0,0.1,0c0.4-0.1,0.7-0.3,1.1-0.5c0.3-0.2,0.6-0.5,0.9-0.7
	c-0.2,0.1,0,0,0.1,0c-0.1,0.1,0.2-0.1,0.2-0.1c0.7-0.3,1.3-0.6,2-1c0.9-0.4,1.1-1.7,0.6-2.5C224.7,103.8,223.6,103.6,222.8,104.1
	L222.8,104.1z"/>
<path class="st0" d="M210.8,100c-0.2,1-0.6,2-0.6,3c-0.1,1.1-0.1,2.1-0.1,3.2c-0.1,1-0.1,2,0,3c0,0.5-0.1,1-0.1,1.5
	c0,0.5,0.3,0.9,0.3,1.4c0.1,0.9,0.1,1.9,0.2,2.9c0.1,0.8,0.4,1.7,0.3,2.4c-0.1,0.9-0.2,1.7,0.5,2.5c0.4,0.5,0.2,0.2,0.1,0
	c0,0.2,0,0.3,0,0.5c0,0.5,0.1,1.1,0.4,1.5c0.1,0.2,0.3,0.5,0.5,0.6c0.3,0.2,0.1-0.3,0-0.4c0,0-0.1,1.2-0.1,1.4c0.2,1,1,1.6,1.3,2.5
	c0.3,0.9,0.3,1.6,1,2.4c0.7,0.8,1.6,1,2.6,1.1c0.8,0.1,1.5-0.1,2.3,0.2c1,0.4,1.7-0.1,2.7-0.2c1-0.1,2,0.2,3,0.1
	c1-0.1,1.9-0.3,2.8-0.4c1.2-0.1,1.9-0.8,2.8-1.6c0.7-0.6,1.5-1.2,1.9-2c1.2-2.1,0.7-4.2-0.3-6.2c-1-2.1-4.1-0.3-3.1,1.8
	c0.4,0.8,0.9,2,0.2,2.7c-0.4,0.5-1.6,1.5-2.1,1.6c-1.2,0.3-2.6,0.5-3.8,0.4c-0.6-0.1-1.3-0.2-1.9-0.2c-0.6,0-1.1,0.4-1.7,0.5
	c0.3,0,0.6,0,1,0c-0.7-0.1-1.2-0.5-1.9-0.5c-0.5,0-1.3,0.3-1.7,0c-0.2-0.1,0.1,0.1-0.1-0.1c-0.1-0.1-0.2-1.1-0.3-1.2
	c-0.2-0.4-0.6-1.6-1-1.8c0-0.1-0.1-0.1-0.1-0.2c0,0.5,0,0.6,0.1,0.2c0.1-0.3,0.1-0.7,0.1-1c0-0.4-0.2-0.8-0.4-1.2
	c-0.1-0.1-0.7-1-0.4-0.4c0.2,0.5,0.1-0.3,0.1-0.5c0-0.3-0.1-0.7-0.2-1c-0.1-0.3-0.2-0.6-0.4-0.8c-0.2-0.4-0.3-0.4-0.2,0
	c0,0.4,0.1,0.4,0.2,0c0.6-1-0.3-2.9-0.4-4c-0.1-0.8,0-1.5-0.1-2.3c-0.1-0.6-0.2-1.1-0.2-1.6c0.1-1.5,0-3,0.1-4.5
	c0.1-0.7,0.1-1.4,0.1-2.1c0-0.8,0.3-1.7,0.5-2.5C214.8,98.7,211.3,97.7,210.8,100L210.8,100z"/>
<path class="st0" d="M253.4,111.8c-0.4,0.4-0.9,0.6-1.2,1.1c-0.2,0.3-0.3,0.7-0.6,1.1c0.2-0.2,0.4-0.4,0.6-0.6
	c-0.6,0.5-1.2,0.6-1.7,1.3c-0.5,0.6-1,0.9-1.6,1.4c-0.2,0.2-0.5,0.3-0.7,0.6c0,0-0.3,0.4-0.3,0.4c-0.2-0.1,0.9,0.1,0.1-0.2
	c-0.1-0.1-0.3,0-0.5-0.1c0,0-0.1,0-0.1-0.1c-0.1-0.2-0.1-0.2-0.1-0.1c0,0.1,0,0.1,0.1-0.1c0.2-0.5,0.5-1,1-1.4
	c0.7-0.5,1.5-0.8,2.1-1.4c0.2-0.1,0.3-0.3,0.5-0.4c0.3-0.1,0.7-0.2,1-0.3c0.7-0.3,1.2-0.9,1.9-1.2c0.6-0.2,1.3-0.1,2-0.3
	c0.3-0.1,0.5-0.1,0.8-0.1c0.4,0,1.1,0,1.5,0.1c0.6,0.1,1.1,0.7,1.6,1.1c0.6,0.5,0.9,0.7,1.2,1.4c0.2,0.7,0.3,1.4,0.4,2.1
	c0.1,0.7-0.1,1.5-0.1,2.3c0,0.7-0.4,1.3-0.7,1.9c-0.4,0.7-0.6,1-1.2,1.5c-0.7,0.6-1.3,1.3-1.9,2c-0.6,0.6-1,1-1.7,1.4
	c-0.7,0.4-1.5,0.8-2.2,1.3c-0.2,0.2-0.5,0.5-0.8,0.7c-0.3,0.2-0.8,0.2-1.2,0.4c-0.9,0.4-1.1,1.7-0.6,2.5c0.5,0.9,1.6,1,2.5,0.6
	c0.4-0.2,0.8-0.2,1.2-0.4c0.4-0.2,0.6-0.6,1-0.8c0.9-0.7,2-1.1,3-1.7c0.8-0.5,1.4-1.4,2.1-2.1c0.7-0.8,1.7-1.4,2.4-2.3
	c0.6-0.9,1.1-1.9,1.5-2.9c0.2-0.5,0.4-1.1,0.4-1.7c0-0.3-0.1-0.5,0-0.8c0-0.4,0.2-0.7,0.2-1.1c0.1-1-0.2-2.2-0.5-3.2
	c-0.3-1.2-0.8-2.4-1.6-3.2c-0.3-0.3-0.7-0.5-1-0.8c-0.4-0.4-0.8-0.7-1.3-1c-1.2-0.7-2.4-0.7-3.7-0.9c-0.6-0.1-1.2,0-1.8,0.1
	c-0.5,0.1-0.8,0.1-1.2,0.1c-0.7,0-1.2,0.3-1.8,0.6c-0.5,0.3-1.1,0.8-1.6,1c-0.3,0.1-0.7,0.2-1.1,0.3c-0.5,0.2-0.8,0.6-1.2,0.9
	c-0.8,0.7-1.8,1-2.6,1.8c-0.7,0.7-1.4,1.9-1.6,2.8c-0.4,1.3,0.1,2.8,1,3.7c0.9,0.8,2.1,1.2,3.3,1.2c1.5,0,2.1-0.9,3.1-1.7
	c0.4-0.3,0.9-0.6,1.3-1c0.2-0.2,0.3-0.5,0.6-0.7c0.1-0.1,0.1-0.2,0-0.1c0.1-0.1,0.3-0.2,0.5-0.2c0.6-0.3,1-0.7,1.3-1.3
	c0.1-0.1,0.1-0.4,0.2-0.5c-0.1,0.2-0.1,0.1,0.2-0.1c0.2-0.1,0.4-0.3,0.6-0.5C257.7,112.8,255.1,110.3,253.4,111.8L253.4,111.8z"/>
<path class="st0" d="M293.5,80.3c-0.2,0.4-0.3,0.8-0.4,1.1c-0.2,0.5,0.1-0.1-0.1,0.2c-0.1,0.1-0.1,0.1,0,0c0,0-0.1,0.1-0.1,0.1
	c-0.5,0.6-0.8,1.2-1.2,1.8c-0.2,0.3-0.3,0.5-0.5,0.8c0,0-0.2,0.4-0.2,0.3c0.1-0.1-0.2,0.2-0.2,0.2c-0.4,0.5-0.9,0.9-1.3,1.4
	c-0.3,0.3-0.5,0.6-0.8,1c0,0-0.2,0.2-0.1,0.1c-0.1,0.1-0.3,0.3-0.4,0.4c0.1-0.1,0,0-0.1,0.1c-0.2,0.2-0.4,0.3-0.7,0.5
	c0,0-0.2,0.2-0.1,0.1c-0.1,0.1-0.3,0.2-0.4,0.3c-0.6,0.5-1.3,1-1.8,1.5c-0.1,0.1-0.2,0.2-0.3,0.3c0,0-0.1,0.1-0.1,0.1
	c0.1-0.1,0.1-0.1,0,0c-0.3,0.2-0.7,0.5-1,0.7c-0.8,0.5-1.2,1.6-0.6,2.5c0.5,0.8,1.6,1.2,2.5,0.6c0.7-0.4,1.4-0.9,2-1.5
	c0.3-0.3,0.5-0.4,0.8-0.7c0.1-0.1,0.3-0.2,0.4-0.3c0.1,0,0.4-0.3,0.2-0.2c0.7-0.6,1.2-0.9,1.8-1.4c0.3-0.2,0.5-0.5,0.7-0.8
	c0.1-0.2,0.2-0.3,0.4-0.5c0.3-0.4-0.2,0.1,0.2-0.2c0.5-0.4,0.9-0.9,1.3-1.4c0.5-0.6,0.9-1.2,1.3-1.9c0.2-0.3,0.3-0.6,0.5-0.9
	c0.2-0.3,0.2-0.4,0.4-0.6c0.3-0.3,0.5-0.6,0.7-1c0.1-0.2,0.2-0.5,0.3-0.8c0,0,0.2-0.5,0.1-0.3c0.4-0.9,0.3-1.9-0.6-2.5
	C295.2,79.2,293.9,79.4,293.5,80.3L293.5,80.3z"/>
<path class="st0" d="M279.2,98.9c0.6,2.3,1.4,4.6,1.8,7c0.1,0.5,0.4,1.1,0.5,1.4c0.2,0.6,0.4,1.2,0.6,1.8c0.4,1,0.8,2.1,1.2,3.2
	c0.4,0.9,1.2,1.5,2.2,1.3c0.8-0.2,1.6-1.3,1.3-2.2c-0.5-1.1-0.8-2.3-1.3-3.4c-0.1-0.4-0.3-1.1-0.5-1.6c-0.2-0.5-0.4-0.8-0.5-1.4
	c-0.4-2.4-1.2-4.7-1.8-7c-0.2-0.9-1.3-1.5-2.2-1.3C279.5,96.9,279,97.9,279.2,98.9L279.2,98.9z"/>
<path class="st0" d="M288.5,99.4c1.3-0.8,2.7-2,4.2-2.5c0.6-0.2,1.2-0.2,1.8-0.5c0.5-0.3,1.1-0.7,1.7-0.9c0.7-0.3,1.5-0.3,2.2-0.6
	c0.7-0.2,1.4-0.5,2.2-0.7c1.5-0.3,3-0.9,4.5-1.2c-0.7-0.7-1.5-1.5-2.2-2.2c-0.2,0.7-0.3,1.2-0.6,1.8c-0.4,0.8-0.5,1.7-0.7,2.6
	c-0.2,0.6-0.2,1.4-0.4,1.9c-0.3,0.8-0.7,1.5-0.9,2.4c-0.1,0.4,0,0.9-0.1,1.3c-0.1,0.2-0.2,0.4-0.3,0.5c-0.3,0.7-0.3,1.3-0.4,2
	c-0.1,0.8-0.5,1.7-0.8,2.4c-0.3,0.8-0.5,1.6-0.7,2.5c-0.5,2.3,2.9,3.2,3.5,1c0.2-0.9,0.4-1.7,0.7-2.5c0.3-0.8,0.6-1.6,0.8-2.4
	c0.1-0.6,0-1.1,0.2-1.6c0.2-0.4,0.4-0.7,0.4-1.2c0.1-0.4,0-0.7,0.1-1c0.1-0.8,0.6-1.4,0.8-2.2c0.2-0.7,0.3-1.4,0.5-2.1
	c0.2-0.7,0.3-1.5,0.6-2.2c0.3-0.7,0.5-1.4,0.7-2.2c0.4-1.4-0.9-2.5-2.2-2.2c-1.5,0.3-3,0.8-4.5,1.2c-0.8,0.2-1.6,0.5-2.5,0.8
	c-0.7,0.2-1.5,0.3-2.1,0.6c-0.7,0.3-1.4,0.7-2.1,1c-0.4,0.2-0.3,0.1-0.8,0.2c-0.4,0.1-0.8,0.3-1.2,0.5c-1.5,0.7-2.8,1.6-4.2,2.5
	C284.8,97.5,286.6,100.6,288.5,99.4L288.5,99.4z"/>
<path class="st0" d="M288.1,108.1c0.4-0.3,0.9-0.5,1.3-0.7c0.2-0.1,0.2-0.1,0.1,0c0.1-0.1,0.3-0.1,0.4-0.2c0.2-0.1,0.5-0.2,0.7-0.3
	c0.9-0.5,1.6-0.8,2.5-1.2c0.6-0.2,0.9-0.2,1.5-0.3c0.3-0.1,0.6-0.1,0.8-0.2c0.1,0,0.3-0.1,0.4-0.1c-0.1,0-0.1,0,0.1,0
	c0.6,0,1.1,0,1.6,0c0.1,0,0.3,0,0.4-0.1c-0.1,0-0.1,0,0.2,0c-0.3,0-0.5-0.1-0.7-0.3c-0.2-0.2-0.3-0.5-0.3-0.8
	c0.1-0.3,0.2-0.6,0.2-0.9c0,0,0,0,0,0.1c0.2-0.2,0.4-0.4,0.6-0.6c0.1,0,0.2-0.1,0.3-0.1c-0.9,0.2-1.6,1.3-1.3,2.2
	c0.3,0.9,1.2,1.5,2.2,1.3c1.1-0.3,1.7-1.4,1.4-2.5c-0.2-0.9-1-1.5-1.8-1.8c-0.4-0.1-0.8-0.1-1.1-0.1c-0.3,0-0.6,0.1-0.9,0.1
	c0.2,0-0.2,0-0.2,0c-0.3,0-0.6-0.1-0.9,0c-0.5,0-0.9,0.2-1.4,0.3c-0.7,0.2-1.4,0.2-2.1,0.5c-0.8,0.3-1.6,0.6-2.3,1
	c-0.3,0.1-0.6,0.3-0.9,0.5c-0.1,0.1-0.3,0.2-0.4,0.2c-0.2,0.1,0.1,0-0.2,0.1c-0.7,0.3-1.4,0.7-2.1,1.1c-0.8,0.5-1.2,1.6-0.6,2.5
	C286.2,108.3,287.3,108.6,288.1,108.1L288.1,108.1z"/>
<path class="st0" d="M286.6,115.8c0.6-0.2,1.3-0.3,1.9-0.6c0.7-0.2,1.2-0.6,1.8-0.8c1.3-0.6,2.6-1,3.8-1.5c1.2-0.5,2.5-1,3.7-1.4
	c1.3-0.4,2.6-0.9,3.9-1.4c0.9-0.4,1.5-1.2,1.3-2.2c-0.2-0.8-1.3-1.6-2.2-1.3c-1.2,0.5-2.5,0.9-3.8,1.4c-1.3,0.4-2.6,0.9-3.9,1.5
	c-0.7,0.3-1.3,0.4-2,0.7c-0.6,0.2-1.1,0.5-1.7,0.7c-0.6,0.2-1.2,0.6-1.8,0.8c-0.7,0.3-1.4,0.4-2,0.6
	C283.5,113.1,284.4,116.5,286.6,115.8L286.6,115.8z"/>
<path class="st0" d="M289.9,97.8c0.3,1.1,0.5,2.2,0.9,3.2c0.1,0.2,0.1,0.2,0,0.6c0,0.2,0,0.4,0,0.6c0,0.6,0.2,1.3,0.4,2
	c0,0.2,0.2,0.5,0.2,0.7c0,0.2-0.1,0.5-0.1,0.8c0,0.6,0,1.2,0,1.8c0.1,1.2,0.1,2.3,0,3.5c-0.1,1,0.9,1.8,1.8,1.8c1,0,1.7-0.8,1.8-1.8
	c0-0.6,0.1-1.2,0.1-1.9c0-0.6-0.1-1.3-0.1-1.9c0-0.6,0-1.2,0-1.8c0-0.7,0-1.3-0.2-2c-0.1-0.5-0.3-1.1-0.3-1.5
	c-0.1-0.6,0.1-1.1-0.1-1.7c-0.3-1.1-0.6-2.3-0.9-3.4C292.8,94.7,289.3,95.6,289.9,97.8L289.9,97.8z"/>
<path class="st0" d="M289.1,114.3c-1,0.9-2,1.8-3,2.7c-0.5,0.4-1,0.8-1.3,1.4c-0.3,0.6-0.5,1-1,1.5c-0.5,0.5-1,1.1-1.4,1.7
	c-0.4,0.6-0.9,0.9-1.3,1.4c-0.9,1.1-1.5,2.5-2.5,3.5c-0.5,0.5-0.9,0.9-1.3,1.5c-0.4,0.5-0.4,1-0.7,1.6c-0.3,0.7-0.9,1.3-1.3,2
	c-0.4,0.6-0.6,1.3-1,1.9c-1.3,2.3-3.5,4.5-3.6,7.4c-0.1,2.3,3.5,2.3,3.6,0c0-1.1,1-2.2,1.6-3.2c0.6-1.1,1.4-2,2-3.1
	c0.6-1.2,1.5-2.2,2-3.4c0.3-0.6,0.3-1.1,0.8-1.7c0.4-0.4,0.9-0.7,1.2-1.2c0.7-1,1.4-2.2,2.2-3.2c0.8-0.9,1.6-2,2.5-2.9
	c0.5-0.6,0.9-1,1.2-1.7c0.2-0.5,0.5-0.7,0.9-1c0.9-0.9,1.9-1.7,2.8-2.6C293.3,115.2,290.8,112.7,289.1,114.3L289.1,114.3z"/>
<path class="st0" d="M291.5,116.7c-0.1,0.7-0.4,1.3-0.6,2c-0.2,0.8-0.4,2.1-0.1,2.9c0.1,0.3-0.1,0.6,0.2-0.1c0.3-0.8,0.2-0.4,0-0.3
	c-0.3,0.1-0.6,0.5-0.8,0.8c-0.2,0.3-0.3,0.7-0.3,1.1c0,0.2,0,0.4,0.1,0.6c0,0,0.2,0.7,0.2,0.5c0-0.2-0.1,0.1-0.2,0.2
	c-0.1,0.1-0.2,0.5-0.3,0.7c-0.1,0.4-0.1,0.9-0.1,1.3c0,0.6,0.1,2,0.9,2.3c0.5,0.2-0.4-0.4-0.1-0.6c0,0-0.1,0.5-0.1,0.6
	c0,0.4,0,0.8,0.1,1.2c0.2,0.8,0.6,1.7,1,2.4c0.4,0.6,0.9,1.2,1.3,1.7c0.5,0.7,1.1,1.3,2.1,1.3c0.5,0,1.1,0.1,0.4-0.3
	c-0.9-0.5-0.2,0.3,0,0.6c0.6,0.8,1.3,0.8,2.1,1c0.5,0.1,1,0.6,1.6,0.9c0.8,0.5,1.7,0.8,2.6,1.1c1.7,0.6,3.3,1.5,5.1,1.8
	c0.9,0.1,1.6,0.8,2.6,0.7c0.2,0,0.4-0.1,0.6-0.1c0.2-0.1,0.8-0.1,0.3-0.3c-0.6-0.1,0.5,0.4,0.7,0.5c0.5,0.2,0.9,0.1,1.4,0.1
	c0.5,0,0.9,0.1,1.4,0.1c0.4,0.1,0.9,0.1,1.3-0.1c0.4-0.1,0.7-0.5,1-0.6c-0.3,0-0.6,0-1,0c1,0.2,1.6,0.5,2.6,0.3
	c0.3-0.1,0.9,0,0.4-0.2c0.5,0.1,0.7,0.3,1.2,0.4c0.9,0.1,2-0.3,2.8-0.7c0.7-0.3,1.4-0.5,2.2-0.7c0.8-0.2,1.5-0.6,2.2-0.8
	c0.8-0.2,1.6,0.1,2.5-0.1c0.8-0.2,1.9-0.6,2.7-0.9c0.6-0.3,1.2-0.8,1.4-1.5c0.2-0.3,0.1-0.3-0.1,0c-0.3,0.2-0.3,0.3,0.1,0.2
	c0.3,0,0.6-0.2,0.9-0.3c0.9-0.2,1.5-0.4,2.1-1.1c0.4-0.4,0.5-0.5,1.1-0.7c1-0.2,1.7-0.1,2.3-1c0.5-0.8,0.2-1.4,0.1-2.1
	c-0.1-0.7,0.3-1.5,0.4-2.2c0.1-0.8,0.4-1.7,0.4-2.5c0-0.4-0.1-0.8-0.3-1.1c-0.1-0.2-0.6-1-0.5-0.6c-0.6-2.2-4.1-1.3-3.5,1
	c0.1,0.3,0.2,0.6,0.4,0.8c0.1,0.1,0.5,0.9,0.4,0.4c0-0.3,0-0.6,0-1c-0.2,1.1-0.4,2.3-0.7,3.4c-0.3,1.1-0.2,2.2,0.1,3.3
	c0-0.3,0-0.6,0-1c0,0.1-0.1,0.1-0.1,0.2c0.3-0.4,0.6-0.7,0.8-1.1c0.3-0.1,0.6-0.1,0.1-0.1c-0.3,0-0.6,0.1-0.9,0.1
	c-0.4,0.1-0.9,0.3-1.3,0.5c-0.5,0.2-0.9,0.5-1.3,0.9c-0.2,0.2-0.5,0.4-0.1,0.2c-0.2,0.1-0.4,0.1-0.7,0.2c-1,0.3-2,0.4-2.7,1.2
	c0,0-0.6,1-0.6,1c0.1-0.1,0.2-0.3,0.4-0.4c-0.1,0-0.3,0.1-0.4,0.1c-0.4,0-0.7,0.2-1,0.4c-1,0.3-2.2,0-3.3,0.3
	c-0.4,0.1-0.8,0.4-1.2,0.5c-0.6,0.2-1.3,0.3-1.9,0.5c-0.6,0.1-1,0.3-1.5,0.5c-0.3,0.1-0.5,0.2-0.8,0.3c-0.1,0-0.6,0.1-0.3,0.2
	c-0.5,0-0.9-0.4-1.5-0.4c-0.6,0-1.2,0.3-1.8,0.4c0.3,0,0.6,0,1,0c-0.7-0.1-1.3-0.5-2-0.4c-0.3,0-0.6,0.1-0.9,0.3
	c-0.1,0.1-0.2,0.1-0.3,0.2c-0.4,0.3-0.5,0.4-0.2,0.2c0.5,0.1-0.4-0.2-0.5-0.2c-0.4-0.1-1,0.1-1.4,0c-0.3-0.1-0.8-0.5-1.2-0.5
	c-0.8-0.2-1.2,0.2-1.9,0.3c0.6-0.1,0.1-0.2-0.4-0.4c-0.3-0.1-0.6-0.2-1-0.2c-1.5-0.2-2.8-1-4.3-1.5c-1.3-0.5-2.4-0.8-3.5-1.5
	c-0.6-0.4-1.2-0.9-2-0.8c-1.2,0.1,0.5,0.2,0.3,0.5c0.1-0.1-0.3-0.7-0.4-0.9c-0.4-0.6-1.1-0.9-1.8-1c-0.2,0-0.5,0-0.7,0.1
	c-0.2,0.1,0.7,0.7,0.4,0c-0.3-0.6-0.9-0.9-1.2-1.5c-0.3-0.5-0.6-1.3-0.7-1.9c0,0.3,0,0.6,0,1c0.1-0.6,0.3-1.3,0.1-1.9
	c-0.1-0.3-0.3-0.6-0.4-0.8c-0.1-0.2-0.3-0.6-0.2-0.2c-0.1-0.6,0.4-0.9,0.5-1.5c0.1-0.3,0.1-0.7,0-1c0-0.1,0-0.3-0.1-0.4
	c-0.1-0.5-0.3-0.2-0.6,0.7c0.4-0.1,1-0.8,1.1-1.2c0.3-0.6,0.2-1.2,0.2-1.9c-0.1-1.3,0.4-2.2,0.6-3.5
	C295.4,115.4,291.9,114.4,291.5,116.7L291.5,116.7z"/>
<path class="st0" d="M297.4,117.1c-0.5,1-1,2.1-1.3,3.1c-0.2,1-0.6,1.8-0.7,2.8c0,0.2,0,0.2,0,0c0,0.1,0,0.2-0.1,0.4
	c-0.1,0.3-0.1,0.7-0.2,1c-0.1,0.6,0.1,1.3,0.4,1.9c0.7,1.1,2,1.5,3.3,1.4c1.2-0.2,1.9-1,2.8-1.7c0.4-0.3,0.7-0.6,1-0.9
	c0.1-0.1,0.2-0.2,0.3-0.2c-0.2,0.1-0.2,0.1,0,0c0.1-0.1,0.2-0.1,0.3-0.2c0.2-0.1,0.2-0.1,0.1-0.1c-0.1,0-0.1,0,0.1,0
	c-0.1,0-0.2,0-0.3,0c0.2,0.1,0.2,0.1,0,0c0.1,0.1,0.2,0.1,0.3,0.2c0.1,0,0.6,0.4,0.4,0.3c0.2,0.2,0.4,0.4,0.6,0.5
	c0.2,0.2,0.5,0.4,0.8,0.6c0.1,0,0.5,0.4,0.3,0.2c0.3,0.3,0.6,0.7,0.9,1c0.7,0.6,1.8,0.8,2.5,0c0.6-0.7,0.8-1.9,0-2.5
	c-0.3-0.3-0.6-0.6-0.9-1c-0.4-0.4-0.8-0.6-1.3-0.9c0.3,0.2-0.2-0.2-0.2-0.2c-0.3-0.2-0.5-0.4-0.8-0.7c-0.3-0.2-0.7-0.5-1-0.7
	c-1.1-0.6-2.3-0.4-3.4,0.2c-0.8,0.4-1.4,1.1-2.1,1.7c-0.3,0.3-0.6,0.6-1,0.9c0.3-0.2-0.1,0.1-0.1,0c0.1-0.1,0.1-0.1,0.2-0.1
	c-0.2,0-0.2,0-0.1,0c-0.2-0.1-0.2,0,0,0c0.1,0.1,0.1,0.1,0,0c0.2,0.1,0.4,0.3,0.4,0.5c0,0.2,0,0.2,0-0.1c-0.1,0.3,0.1-0.2,0.1-0.2
	c0.1-0.3,0.1-0.7,0.2-1c0-0.1,0-0.2,0-0.3c0,0.2,0,0.2,0,0.1c0.1-0.2,0.1-0.4,0.2-0.6c0.1-0.4,0.3-0.8,0.4-1.2
	c0.2-0.9,0.6-1.6,1-2.5c0.4-0.8,0.3-2-0.6-2.5C299.1,116,297.8,116.2,297.4,117.1L297.4,117.1z"/>
<path class="st0" d="M313.9,99.3c1.4-0.1,2.9-0.2,4.3-0.2c0.7,0,1.4,0,2.1-0.1c0.4,0,0.7,0,1.1-0.1c0.1,0,0.3,0,0.4,0
	c0.1,0,0.2,0,0.2,0c-0.6-1.9-1-2.4-1.3-1.7c0.2-0.3,0.3-0.5,0.5-0.8c0.2-0.1,0.4-0.2,0.6-0.4c0.3,0,0.6,0,1,0c0,0-0.1,0-0.1,0
	c-0.9-0.2-2,0.3-2.2,1.3c-0.2,0.9,0.3,2,1.3,2.2c1,0.2,2-0.2,2.4-1.1c0.3-0.8,0.2-1.7-0.4-2.4c-0.9-1-2.4-0.7-3.6-0.6
	c-2.1,0.1-4.2,0.1-6.3,0.3c-0.9,0.1-1.8,0.8-1.8,1.8C312.1,98.4,312.9,99.4,313.9,99.3L313.9,99.3z"/>
<path class="st0" d="M311.1,110.9c0.3-0.1,0.6-0.2,1-0.3c0.3-0.1,0.5,0,0.8,0c0.8-0.1,1.3-0.4,1.9-0.6c0.3-0.1,1-0.1,1.5-0.2
	c0.7-0.1,1.4-0.2,2.1-0.4c0.6-0.1,1.2-0.4,1.8-0.5c0.6-0.2,1.2-0.2,1.9-0.3c1.3-0.2,2.5-0.6,3.8-0.8c1-0.2,1.5-1.3,1.3-2.2
	c-0.3-1-1.3-1.4-2.2-1.3c-1.2,0.2-2.5,0.6-3.7,0.8c-0.7,0.1-1.3,0.1-2,0.3c-0.6,0.2-1.2,0.4-1.8,0.5c-1.2,0.3-2.5,0.3-3.7,0.7
	c-0.3,0.1-0.6,0.3-0.9,0.4c-0.4,0.1,0,0.1-0.4,0c-0.8,0-1.5,0.3-2.2,0.5C307.9,108,308.9,111.5,311.1,110.9L311.1,110.9z"/>
<path class="st0" d="M316.1,94.6c0.1,0.5,0.2,1,0.3,1.6c0.1,0.6-0.1,1.3-0.2,1.9c-0.1,1.3,0.1,2.7-0.2,4c-0.2,0.6-0.5,1-0.5,1.6
	c0,0.6,0,1.3,0,1.9c0,1.3,0.2,2.4,0.4,3.7c0-0.3,0-0.6,0-1c-0.2,0.9-0.6,1.5-0.4,2.4c0.1,0.3,0.5,0.8,0.5,1.1c0-0.2-0.3,0.9-0.3,0.9
	c-0.2,0.8-0.2,1.4-0.2,2.2c0.1,0.7,0.3,1.5,0.3,2.1c-0.1,1,0,1.7,0.1,2.7c0.1,0.9,0.3,1.7,0.3,2.6c0,0.5,0,0.9,0.1,1.3
	c0.1,0.3,0.3,0.7,0.3,1c0,0.2-0.1,0.6-0.2,0.8c0,0.5,0.1,1,0.2,1.5c0.2,1.8,2.2,2.4,3.4,0.9c0.4-0.5,0.5-1.4,0.5-2
	c0-0.4-0.1-0.8-0.3-1.1c-0.1-0.1-0.5-0.9-0.4-0.4c-0.2-0.8,0-1.7-0.2-2.5c-0.2-0.7-0.5-1.4-1-2c-1.5-1.7-4.1,0.8-2.5,2.5
	c0.4,0.4,0.2,1.8,0.2,2.3c0,0.4,0.1,0.8,0.3,1.2c0.1,0.2,0.3,0.4,0.4,0.6c-0.1-0.1-0.1-0.3-0.1-0.4c1.1,0.3,2.2,0.6,3.4,0.9
	c-0.1-0.9-0.1-1.4,0-2.2c0-0.7-0.3-1.3-0.4-2c-0.1-0.8-0.1-1.6-0.2-2.4c-0.1-0.7-0.3-1.7-0.3-2.4c0.1-0.7,0.3-1.3,0.1-2
	c-0.2-0.7-0.3-1.3-0.3-2c0.1-0.8,0.4-1.6,0.4-2.4c0-0.7-0.5-1.2-0.6-1.8c0,0.3,0,0.6,0,1c0.1-0.6,0.4-1.1,0.4-1.8
	c0-0.6-0.3-1.1-0.3-1.7c-0.1-0.7,0-1.4,0-2.2c0-0.3-0.1-0.7,0-1c0.1-0.3,0.3-0.6,0.4-0.9c0.4-1.4,0.2-2.9,0.3-4.3
	c0-0.7,0.2-1.4,0.2-2.1c0-0.3,0-0.6,0-1c0-0.3-0.2-0.7-0.3-1C319.5,92.3,315.9,92.3,316.1,94.6L316.1,94.6z"/>
<path class="st0" d="M314.2,109.4C314.3,109.2,314.1,109.5,314.2,109.4c-0.2,0.2-0.3,0.3-0.4,0.4c-0.2,0.3-0.5,0.6-0.6,0.9
	c-0.3,0.5-0.6,1.1-0.9,1.6c-0.1,0.1-0.2,0.2-0.3,0.4c-0.2,0.3,0.1,0-0.1,0.1c-0.2,0.2-0.4,0.5-0.6,0.7c-0.4,0.6-0.6,0.8-1.1,1.4
	c-0.1,0.1-0.2,0.2-0.3,0.3c0,0-0.3,0.3-0.1,0.1c-0.3,0.2-0.6,0.4-0.9,0.7c-0.2,0.2-0.4,0.4-0.6,0.6c-0.1,0.1-0.2,0.2-0.3,0.3
	c-0.1,0.1-0.1,0.1,0,0c0,0-0.1,0.1-0.1,0.1c-0.6,0.4-1.2,0.8-1.7,1.3c-0.2,0.2,0.3-0.2-0.1,0.1c-0.1,0.1-0.2,0.1-0.3,0.2
	c-0.3,0.1-0.5,0.3-0.8,0.4c-0.8,0.5-1.2,1.6-0.6,2.5c0.5,0.8,1.6,1.2,2.5,0.6c0.6-0.4,1.2-0.6,1.8-1.1c0.1-0.1,0.2-0.2,0.3-0.3
	c0.1-0.1,0.3-0.2,0.1-0.1c0.3-0.2,0.6-0.4,0.8-0.6c0.6-0.4,1-0.9,1.5-1.4c-0.2,0.2,0.1-0.1,0.2-0.1c0.1-0.1,0.3-0.2,0.4-0.3
	c0.3-0.2,0.5-0.5,0.8-0.8c0.5-0.6,0.9-1.1,1.4-1.7c0.1-0.2-0.1,0.1,0.1-0.1c0.1-0.1,0.2-0.2,0.3-0.4c0.2-0.3,0.5-0.6,0.7-0.9
	c0.4-0.5,0.7-1.1,1-1.6c0.1-0.1,0.2-0.2,0.2-0.4c0.1-0.2-0.2,0.2,0.1-0.1c0.3-0.3,0.6-0.6,0.8-1c0.5-0.8,0.2-2-0.6-2.5
	C315.7,108.3,314.7,108.6,314.2,109.4L314.2,109.4z"/>
<path class="st0" d="M315.7,113.8c0.6,0.6,1.1,1.2,1.8,1.6c0.7,0.4,1.2,1,1.9,1.4c0.7,0.4,1.4,0.8,2,1.2c0.8,0.5,1.5,0.9,2.4,1.2
	c0.7,0.3,1.4,0.6,2.2,0.9c0.8,0.2,1.5,0.4,2.3,0.7c0.8,0.3,1.8,0.5,2.7,0.6c0.3,0,0.7-0.1,1-0.1c0.5,0,1,0.2,1.5,0.3
	c1,0.1,1.8-0.9,1.8-1.8c0-1.1-0.8-1.7-1.8-1.8c-0.3,0-0.5-0.1-0.8-0.2c-0.5-0.1-0.9,0-1.4,0c-0.7,0-1.3-0.2-2-0.4
	c-0.7-0.2-1.4-0.4-2.1-0.7c-0.7-0.2-1.4-0.5-2.1-0.8c-1.3-0.5-2.4-1.3-3.6-2c-0.6-0.4-1.1-1-1.7-1.4c-0.3-0.2-0.6-0.3-0.8-0.4
	c-0.2-0.2-0.5-0.6-0.7-0.8C316.7,109.6,314.2,112.1,315.7,113.8L315.7,113.8z"/>
<path class="st0" d="M353.3,116.8c0.6,0,1.2,0.3,1.9,0.2c0.7-0.2,1.2-0.7,1.9-0.9c0.4-0.2,0.2-0.1,0.6-0.2c0.4,0,0.8,0.1,1.2-0.1
	c0.4-0.1,0.7-0.3,1-0.6c0.8-0.7-0.2-0.4-0.3-0.3c0,0,1,0.1,1.2,0.1c0.4,0,0.8-0.1,1.1-0.4c0.6-0.4,0.9-0.8,1.6-0.9
	c0.8-0.1,1.4,0,2.1-0.3c0.8-0.3,1.4-0.8,2.1-1.1c0.7-0.2,1.4,0,2.2-0.2c0.8-0.1,1.4-0.4,2.1-0.7c0.7-0.3,1.5-0.5,2.2-0.8
	c0.3-0.1,0.3-0.2,0.6-0.2c0.4,0,0.8-0.1,1.2-0.2c0.4-0.1,0.6-0.3,0.9-0.5c0.2-0.1,0.2-0.1,0,0c0.2,0,0.4,0,0.7,0
	c0.9-0.1,1.7-0.3,2.5-0.3c1.8-0.1,3.5-0.6,5.2-0.7c-0.5-0.3-1-0.6-1.6-0.9c0,0,0,0,0,0c0-0.6,0-1.2,0-1.8c-0.3,0.6-0.5,1.2-0.6,1.9
	c0,0.3,0,0.8,0.1,0.9c0.1,0.3,0.1,0.2,0.2-0.2c-0.1,0.1-0.2,0.3-0.3,0.4c-0.3,0.6-0.6,1.3-0.5,2c0,0.1,0,0.2,0,0.3
	c0.2-0.5,0.2-0.5-0.1-0.1c-0.2,0.3-0.4,0.6-0.5,0.9c-0.3,0.7-0.4,1.5-0.7,2.3c-0.3,0.7-0.2,1.5-0.6,2.1c-0.3,0.6-0.3,1.2-0.4,1.9
	c-0.1,0.7-0.5,1.4-0.8,2.1c-0.3,0.8-0.4,1.5-0.7,2.2c-0.4,0.7-0.6,1.5-0.8,2.2c-0.2,0.6-0.7,1.1-1,1.7c-0.3,0.7-0.5,1.3-0.7,2
	c-0.3,1.2-1.5,1.8-1.8,3c-0.1,0.4-0.3,0.8,0,0.4c-0.2,0.2-0.5,0.4-0.7,0.7c-0.6,0.6-1,1.3-1.6,1.9c1,0.4,2,0.8,3.1,1.3
	c-0.2-2.1-0.7-4-0.7-6.2c0-2.3-3.6-2.3-3.6,0c0,2.1,0.5,4.1,0.7,6.2c0.2,1.5,1.9,2.4,3.1,1.3c0.9-0.8,1.6-1.8,2.4-2.7
	c0.4-0.5,0.6-1,0.7-1.6c0.3-1.4-0.1,0,0.2-0.5c0.2-0.3,0.4-0.6,0.6-0.8c0.7-1,0.9-2,1.4-3.1c0.2-0.5,0.5-0.8,0.8-1.3
	c0.4-0.7,0.6-1.5,0.9-2.2c0.2-0.6,0.5-1.2,0.8-1.8c0.2-0.6,0.3-1.2,0.5-1.8c0.3-0.7,0.7-1.3,0.8-2c0.1-0.2,0.1-0.6,0.1-0.8
	c0-0.2,0.1-1-0.1-0.4c0.2-0.6,0.6-1.1,0.7-1.7c0.1-0.6,0.2-1.1,0.4-1.7c0.2-0.6,0.2-1.2,0.5-1.7c0.4-0.6,0.7-1.1,0.7-1.9
	c0-0.3,0-0.6,0.1-0.7c0.1-0.2,0.2-0.4,0.3-0.6c0.3-0.7,0.2-1.2,0.1-1.9c0-1,0.5-2-0.5-2.8c-1.1-0.8-2.9-0.2-4.1,0
	c-1.4,0.3-2.8,0.3-4.2,0.5c-0.6,0.1-1.3,0.1-1.9,0.2c-0.6,0.1-1,0.4-1.5,0.7c0.5-0.3,0.1-0.1-0.2-0.1c-0.3,0-0.7,0-1,0.1
	c-0.6,0.2-1,0.5-1.6,0.7c-0.9,0.3-2,1-3,1c-0.8,0-1.3-0.1-2,0.1c-0.7,0.2-1.3,0.5-1.9,0.9c-1.1,0.7-2.5,0.5-3.8,0.9
	c-0.3,0.1-0.6,0.2-0.8,0.4c-0.2,0.1-1,0.7-0.3,0.4c0.7-0.3-0.3-0.2-0.5-0.2c-0.4,0-0.8,0.1-1.2,0.3c-0.2,0.1-0.4,0.3-0.6,0.4
	c-0.1,0.1-0.3,0.3-0.4,0.5c0.2,0,0.3-0.1,0.5-0.1c0.1-0.3-2.1,0.3-2.2,0.3c-0.5,0.2-1,0.4-1.4,0.7c-0.1,0.1-0.2,0.1-0.3,0.2
	c0.6,0,0.7-0.1,0.4-0.2c-0.1-0.2-0.9-0.2-1.2-0.2C350.9,113.2,350.9,116.8,353.3,116.8L353.3,116.8z"/>
<path class="st0" d="M369.6,94.4c-0.2,0.9-0.1,1.9-0.3,2.8c-0.2,0.9-1.1,1.4-1.3,2.3c-0.1,0.4,0,0.8-0.1,1.1
	c-0.1,0.4-0.5,0.7-0.6,1.1c-0.4,0.9-1.1,1.8-1.2,2.8c0,0.1,0.1,1.4,0.2,1.4c-0.2,0.1,0.6-1-0.1-0.3c-0.2,0.2-0.2,0.4-0.4,0.6
	c-0.6,0.8-1,1.4-1.3,2.3c-0.2,0.7-0.6,1.8-0.5,2.5c0.1,0.7,0.4,0,0.3,0c0,0-0.5,0.4-0.6,0.4c-0.4,0.4-0.7,0.8-0.8,1.4
	c-0.1,0.4,0,0.8,0.1,1.2c0,0,0.2,0.5,0.2,0.5c-0.4,0,0.6-1.1-0.2-0.4c-0.6,0.6-1.1,1.7-1.4,2.5c-0.2,0.6-1.1,2.4-0.9,3
	c0.2,0.6,0.1-0.6,0.4-0.4c0,0-0.5,0.2-0.5,0.2c-0.5,0.3-0.9,0.7-1.1,1.2c-0.1,0.1-0.5,2.5-0.6,2.5c-0.1,0,0.9-0.6,0.1-0.2
	c-0.2,0.1-0.5,0.4-0.6,0.5c-0.3,0.3-0.6,0.8-0.7,1.2c0,0.1-0.1,1.4,0.1,1.5c-0.1,0,1.2-1.4-0.1-0.7c-0.3,0.2-0.7,0.5-0.9,0.9
	c-0.3,0.5-0.2,1.1-0.3,1.6c-0.2,0.8-1.1,1.2-1.7,2c-0.3,0.5-0.7,1-0.9,1.6c-0.1,0.2,0,0.4-0.1,0.6c0,0.1,0,0.3,0,0.5
	c0,0-0.1,0-0.1,0c-0.2,0.5-0.3,0.4,0.1,0.2c-0.2,0.1-0.5,0.2-0.8,0.3c-0.5,0.2-0.9,0.6-1.3,1c-0.8,0.7-1.3,1.7-2.1,2.4
	c-1.7,1.6,0.9,4.1,2.5,2.5c0.7-0.7,1.2-1.5,1.8-2.2c0.5-0.6,1.3-0.6,2-1.3c0.8-0.8,1.1-1.8,1.4-2.9c0.2-0.7,0.9-0.9,1.4-1.5
	c0.6-0.7,1.4-2,1.3-2.9c-0.1-0.3,0.1-0.5-0.3,0c-0.4,0.6-0.2,0.3,0.1,0.2c0.4-0.2,0.9-0.6,1.1-1c0.2-0.4,0.3-0.9,0.3-1.4
	c0-0.1-0.1-0.7-0.1-0.8c0.3,0-0.9,0.8-0.3,0.8c0.3,0,0.9-0.7,1-0.9c0.4-0.5,0.4-1,0.6-1.6c0-0.2,0.5-1.3,0.3-1.4
	c0.3,0.2-1.1,0.7-0.2,0.5c0.1,0,0.3-0.1,0.4-0.2c1-0.6,1.1-1.6,1.3-2.6c0.2-1,0.6-1.9,1.1-2.7c0.5-0.8,1.2-1.6,1.2-2.7
	c0-0.1-0.2-1.3-0.3-1.3c0.2,0-0.9,1.8,0.4,0.6c0.8-0.8,0.7-1.7,0.8-2.7c0.1-0.8,0.2-1.5,0.7-2.1c0.6-0.8,1.4-1.7,1.4-2.7
	c0-0.2-0.1-1.4-0.2-1.4c0.3-0.1-0.4,0.9,0.1,0.3c0.2-0.3,0.4-0.7,0.5-1c0.4-1,1.2-1.9,1.2-2.9c0-0.2,0.1-0.5,0-0.8
	c-0.1-0.3-0.4,0.5,0.1,0.1c0.5-0.3,0.7-0.9,0.9-1.4c0.4-1.2,0.4-2.4,0.6-3.6C373.4,93.1,370,92.2,369.6,94.4L369.6,94.4z"/>
<path class="st0" d="M417.5,94.4c1.1-0.2,2.5,0,3.4-0.8c0.4-0.3,0.6-0.8,0.9-1.2c-0.4,0.5-0.4,0.1,0.1,0.2c0.2,0,0.4,0.2,0.6,0.2
	c0.6,0.1,1.2,0.1,1.8-0.2c0.2-0.1,1.1-0.8,1.1-1.1c-0.8,0.2-1,0.3-0.5,0.4c0.1,0,0.2,0,0.4,0c0.3,0,0.7,0,1-0.1
	c0.5-0.1,1-0.4,1.5-0.5c-0.7-0.9-1.4-1.8-2-2.6c-0.2,0.4-0.5,0.7-0.7,1.1c-0.2,0.3-0.4,0.9-0.5,1.1c-0.3,0.3-0.8,0.4-1.1,0.8
	c-0.4,0.5-0.4,1.1-0.8,1.6c-0.2,0.4-0.6,0.6-0.9,1c-0.3,0.5-0.3,1-0.4,1.6c0-0.2,0.5-0.6-0.1-0.1c-0.2,0.1-0.3,0.3-0.5,0.5
	c-0.4,0.5-0.7,1.1-1.1,1.7c-0.4,0.8-0.6,1.8-1.1,2.5c-0.6,1-1.6,1.4-1.9,2.7c0,0.1-0.2,0.9,0,0.4c0.2-0.4-0.2,0.1-0.3,0.2
	c-0.4,0.4-0.7,0.8-1,1.3c-0.5,0.8-0.7,1.8-1.4,2.4c-0.1,0.1-0.7,0.3-1,0.6c-0.4,0.4-0.6,0.8-0.8,1.3c-0.2,0.4-0.4,0.7-0.5,1.1
	c-0.2,0.7,0.1,0.8-0.6,1.4c0.2-0.2-0.9,0.5-1,0.5c-0.4,0.4-0.6,0.8-0.9,1.3c-0.5,0.8-1.7,1.8-1.4,3c0.1,0.4,0.4-0.3,0-0.2
	c-0.2,0-0.3,0.3-0.5,0.5c-0.1,0.1-0.6,0.3-0.9,0.5c-0.4,0.3-0.7,0.7-0.9,1.1c0,0.1-0.4,0.7-0.1,0.4c0.3-0.3-0.5,0.2-0.6,0.2
	c-0.9,0.5-1.4,1.6-1.9,2.4c-0.2,0.4-0.8,1-0.8,1.4c0,0.4,0.6-0.2,0.2-0.2c-0.2,0-0.7,0.2-0.9,0.3c-0.6,0.3-1,0.8-1.2,1.4
	c-0.1,0.2-0.1,0.6-0.1,0.7c0.1,0.8,1.2-0.5,0.8-0.6c-1.5-0.2-2.1,1.2-2.6,2.1c-0.5,0.9-1.4,1.2-2.1,1.8c-0.5,0.5-0.9,1-1.3,1.5
	c-0.3,0.4-0.7,0.6-1.1,1c-1.8,1.5,0.8,4,2.5,2.5c0.3-0.3,0.7-0.5,1-0.8c0.3-0.3,0.5-0.7,0.8-1.1c0.7-0.9,1.8-1.3,2.6-2.2
	c0.3-0.3,0.6-0.7,0.8-1.1c-0.1,0.1,0.3-0.7,0.3-0.8c-0.2,0.2-0.5,0.3-0.7,0.5c0.1,0,0.2,0,0.3,0c1.2,0,2.1-0.9,2.3-2
	c0,0.2,0.1-0.7,0.1-0.8c0.6,0.5-1.3,0.9-0.4,0.7c0.5-0.1,1-0.4,1.3-0.7c0.7-0.7,1-1.8,1.6-2.7c0.4-0.6,0.3-0.6,0.8-0.8
	c0.4-0.2,0.8-0.5,1.1-0.9c0.1-0.1,0.7-1.1,0.3-0.7c0.2-0.1,0.5-0.2,0.7-0.3c0.3-0.2,0.5-0.4,0.8-0.7c0.8-0.7,1.3-1.4,1.4-2.5
	c0-0.7,0,0-0.1,0.1c0.2-0.2,0.4-0.4,0.5-0.7c0.5-0.6,0.5-1,1-1.2c0.8-0.4,1.6-1.4,2-2.2c0.1-0.2,0.2-0.4,0.2-0.7c0,0,0.1-0.8,0-0.4
	c0.1-0.2,0.3-0.5,0.3-0.7c0.2-0.3,0.2-0.4,0-0.2c-0.2,0.2-0.1,0.2,0.3-0.1c1.9-0.9,2.1-3.1,3.5-4.5c0.4-0.4,0.8-0.9,0.9-1.5
	c0.1-0.3,0-0.6,0.1-0.8c-0.1,0.3-0.4,0.5,0.1,0.1c0.7-0.5,1.6-1.6,1.8-2.4c0.3-1.1,0.7-2.2,1.5-3.1c0.4-0.5,0.8-0.9,1-1.6
	c0.1-0.3,0.1-0.6,0.1-0.8c-0.1,0.4-0.2,0.4,0.2,0c0.4-0.4,0.8-0.9,0.9-1.5c0-0.2,0.2-0.4-0.1-0.2c0.2-0.2,0.6-0.4,0.9-0.6
	c0.8-0.8,1.3-2.1,1.9-3c0.8-1.3-0.5-3.1-2-2.6c-0.4,0.1-0.9,0.4-1.3,0.5c-0.6,0.1-1.1-0.2-1.7,0.1c-0.5,0.2-1,0.6-1.2,1
	c-0.4,0.7,0.9,0.1,0.6-0.2c-0.1-0.1-0.9-0.2-0.9-0.2c-1.1,0-2.6,0.5-3.3,1.4c-0.1,0.2-0.3,0.4-0.4,0.6c-0.1,0.2-0.1,0.2,0.1-0.1
	c0.3-0.3,0.2-0.3-0.3-0.1c-0.6,0-1.2,0.1-1.8,0.2C414.2,91.4,415.2,94.9,417.5,94.4L417.5,94.4z"/>
<path class="st0" d="M408.3,104.4c0.3,0.1,0.6,0.2,0.9,0.4c0.1,0,0.2,0.1,0.2,0.1c0.2,0.1,0.2,0.1-0.1,0c0.1,0,0.2,0.1,0.3,0.2
	c0.7,0.3,1.4,0.6,2.1,0.9c0.3,0.1,0.6,0.2,0.9,0.3c0.2,0.1,0.2,0.1-0.1,0c0.1,0,0.1,0.1,0.2,0.1c0.1,0.1,0.2,0.1,0.3,0.2
	c0.3,0.2,0.7,0.4,1.1,0.5c0.1,0.1,0.3,0.1,0.4,0.1c0.1,0,0.6,0.2,0.1,0c0.5,0.2,0.9,0.3,1.4,0.2c0.4-0.1,0.9-0.4,1.1-0.8
	c0.4-0.8,0.3-2-0.6-2.5c-0.4-0.2-0.8-0.3-1.2-0.4c-0.1,0-0.1,0-0.2-0.1c0.3,0.1,0.3,0.1,0.1,0c-0.1-0.1-0.3-0.2-0.4-0.2
	c-0.6-0.4-1.3-0.6-2-0.9c-0.3-0.1-0.6-0.2-0.8-0.3c-0.1-0.1-0.3-0.1-0.5-0.2c0.2,0.1,0.3,0.1,0.1,0c-0.1,0-0.1-0.1-0.2-0.1
	c-0.7-0.3-1.4-0.6-2.1-0.9c-0.9-0.3-2,0.4-2.2,1.3C406.8,103.2,407.3,104.1,408.3,104.4L408.3,104.4z"/>
<path class="st0" d="M443.1,92.7c-3.2-0.8-6,1.8-8.1,3.9c-1,1-2.3,1.5-3.4,2.5c-0.4,0.4-0.8,0.9-1.2,1.3c-0.3,0.2-0.6,0.4-0.9,0.7
	c-0.3,0.3-0.6,0.7-0.9,1c-0.8,0.8-0.7,2.2,0.4,2.8c0.4,0.2,0.8,0.3,1.1,0.5c0.4,0.2,0.7,0.6,1.1,0.9c0.7,0.4,1.5,0.6,2.2,1.2
	c0.4,0.4,0.6,0.8,1.1,1.1c0.4,0.2,0.9,0.3,1.3,0.6c0.4,0.3,0.7,0.7,1.2,0.9c0.4,0.2,0.8,0.2,1.1,0.4c0.7,0.4,1.5,0.9,2.2,1.4
	c0.5,0.3,0.9,0.7,1.4,0.9c0.4,0.2,0.8,0.4,1.2,0.6c1.7,1,3.4,1.9,5,3c1.9,1.3,3.7-1.8,1.8-3.1c-0.8-0.5-1.6-1.1-2.5-1.6
	c-0.8-0.5-1.6-0.8-2.4-1.3c-0.8-0.5-1.7-0.8-2.5-1.4c-0.8-0.6-1.7-1.1-2.5-1.6c-0.4-0.2-0.8-0.3-1.2-0.5c-0.4-0.2-0.6-0.5-0.9-0.7
	c-0.4-0.3-0.9-0.4-1.3-0.6c-0.2-0.2-0.5-0.6-0.7-0.8c-0.8-0.7-1.7-1-2.6-1.5c-0.4-0.2-0.7-0.6-1.1-0.9c-0.4-0.2-0.8-0.4-1.2-0.6
	c0.1,0.9,0.2,1.9,0.4,2.8c0.4-0.4,0.7-0.9,1.2-1.2c0.6-0.4,1-0.9,1.5-1.4c0.8-0.8,1.7-1.3,2.7-1.9c1-0.6,1.8-1.7,2.7-2.5
	c0.7-0.6,1.9-1.6,2.9-1.4C444.4,96.7,445.4,93.2,443.1,92.7L443.1,92.7z"/>
<path class="st0" d="M439.3,103.7c-0.4,0.4-0.7,0.8-1.1,1.3c-0.4,0.4-0.7,0.8-1.1,1.3c-0.2,0.2-0.3,0.4-0.4,0.6
	c-0.1,0.2-0.2,0.4-0.2,0.7c0,0.2,0,0.5,0.2,0.7c0.1,0.2,0.2,0.4,0.4,0.6c0.3,0.3,0.8,0.5,1.3,0.5c0.5,0,1-0.2,1.3-0.5
	c0.4-0.4,0.7-0.9,1.1-1.3c0.4-0.4,0.7-0.8,1.1-1.3c0.2-0.2,0.3-0.4,0.4-0.6c0.1-0.2,0.2-0.4,0.2-0.7c0-0.2,0-0.5-0.2-0.7
	c-0.1-0.2-0.2-0.4-0.4-0.6c-0.3-0.3-0.8-0.5-1.3-0.5C440.2,103.2,439.7,103.4,439.3,103.7L439.3,103.7z"/>
<path class="st0" d="M414.8,119.8c0.3-0.2,0.6-0.5,0.9-0.6c-0.4,0.2,0.8,0,0.9,0c0.7-0.1,1.4-0.5,2.1-0.8c1.6-0.6,3.2-1.1,4.8-1.7
	c0.7-0.3,1.5-0.5,2.2-0.6c0.8-0.1,1.7-0.3,2.5-0.4c0.8-0.1,1.5-0.3,2.3-0.4c0.5-0.1,1,0,1.5-0.1c0.4-0.1,0.8-0.2,1.3-0.3
	c1-0.2,1.5-1.3,1.3-2.2c-0.3-1-1.3-1.4-2.2-1.3c-3.3,0.6-6.8,0.9-10.1,2c-1.6,0.5-3.2,1.1-4.8,1.7c-0.7,0.3-1.3,0.5-2.1,0.6
	c-1,0.1-1.5,0.6-2.3,1C410.9,117.8,412.8,120.9,414.8,119.8L414.8,119.8z"/>
<path class="st0" d="M413.2,127.7c0.3-0.1,0.7-0.4,1-0.4c0.5-0.1,1.1,0.2,1.6,0c0.2-0.1,0.5-0.2,0.7-0.3c0.1,0,0.7-0.3,0.4-0.3
	c-0.3,0,0.4,0.1,0.5,0.1c0.3,0,0.5,0,0.8,0c0.5-0.1,0.8-0.3,1.3-0.4c0.4-0.1,0.9,0,1.3-0.1c1-0.1,1.7-0.1,2.7-0.1c0.5,0,1,0.1,1.5,0
	c0.4-0.1,0.8-0.4,1.2-0.5c0.9-0.2,2.1-0.1,3.1-0.2c2-0.3,4.1-0.5,6.1-0.9c2.3-0.5,1.3-3.9-1-3.5c-1.9,0.4-3.9,0.7-5.8,0.9
	c-1.1,0.1-2.3,0-3.4,0.3c-0.3,0.1-0.9,0.4-1,0.4c-0.1,0-0.8,0-1.1-0.1c-0.5,0-1-0.1-1.5-0.1c-0.4,0-0.9,0.2-1.3,0.2
	c-0.5,0-1,0-1.5,0.1c-0.3,0.1-0.7,0.3-1,0.3c-0.5,0.1-1.1-0.2-1.6-0.1c-0.3,0.1-0.6,0.2-0.8,0.3c0,0-0.5,0.3-0.2,0.2
	c0.2-0.1-0.4-0.1-0.5-0.1c-0.3,0-0.5,0-0.8,0c-0.5,0.1-1,0.3-1.5,0.5C410,125,411,128.5,413.2,127.7L413.2,127.7z"/>
<path class="st0" d="M422.6,116.7c-0.3,0.4-0.7,0.7-0.9,1.2c-0.3,0.5-0.5,1.1-0.7,1.6c-0.2,0.6-0.3,0.9-0.7,1.5
	c-0.4,0.6-0.4,1.1-0.6,1.7c-0.2,0.4-0.6,0.8-0.8,1.3c-0.3,0.5-0.4,0.8-0.8,1.2c-0.4,0.4-0.7,0.9-0.9,1.5c-0.1,0.5-0.2,0.5-0.5,0.9
	c-0.4,0.4-0.6,0.9-1,1.4c-0.3,0.5-0.7,0.8-1,1.3c-0.6,0.9-1,2-1.7,2.9c-0.4,0.5-0.9,0.8-1.3,1.2c-0.4,0.4-0.7,0.8-1.2,1.2
	c-0.4,0.4-0.8,0.7-1.3,1c-0.4,0.4-0.7,0.9-1.1,1.2c-1.7,1.6,0.8,4.1,2.5,2.5c0.4-0.3,0.6-0.8,0.9-1.1c0.4-0.4,1-0.8,1.4-1.2
	c0.4-0.4,0.8-0.7,1.2-1.2c0.4-0.4,0.9-0.8,1.3-1.2c1.5-1.8,2.3-4,3.8-5.8c0.3-0.4,0.7-0.7,0.9-1.2c0.2-0.4,0.2-0.8,0.5-1.2
	c0.3-0.5,0.7-0.9,1-1.4c0.3-0.5,0.6-0.9,0.9-1.4c0.3-0.6,0.4-1.2,0.7-1.8c0.3-0.6,0.7-1,0.9-1.6c0.2-0.5,0.2-1,0.5-1.4
	c0.3-0.5,0.7-0.8,1-1.3C427,116.6,423.9,114.8,422.6,116.7L422.6,116.7z"/>
<path class="st0" d="M427.9,117.7c-0.3,0.6-0.8,1.1-1,1.9c-0.1,0.3,0,0.6-0.1,0.8c-0.1,0.3-0.5,0.6-0.6,0.9
	c-0.3,0.7-0.5,1.5-0.6,2.3c-0.1,0.8-0.3,1.4-0.6,2.2c-0.3,0.8-0.5,1.5-0.5,2.4c0,0.8,0,1.3-0.3,1.9c-0.3,0.8-0.3,1.5-0.3,2.3
	c0,0.6,0.3,1.3,0.2,1.9c-0.1,1-0.2,1.6,0.3,2.5c0.4,0.7,0.9,1.3,1.6,1.7c0.2,0.1,0.5,0.2,0.8,0.4c0.2,0.1,0.4,0.4,0.6,0.5
	c0.8,0.6,1.6,0.5,2.5,0.4c0.7-0.1,1.4,0,2.1-0.2c0.7-0.2,1.4-0.5,2-0.8c0.6-0.3,1.3-0.4,1.9-0.8c0.7-0.4,1.4-0.8,2.1-1.2
	c0.3-0.2,0.7-0.3,1-0.5c0.2-0.1,0.7-0.6,0.8-0.7c0.3-0.1,0.7-0.1,1-0.3c0.4-0.2,0.8-0.4,1.2-0.7c0.6-0.4,1-0.9,1.7-1.2
	c0.8-0.4,1.4-1,1.9-1.6c0.6-0.7,0.7-1.8,0-2.5c-0.6-0.6-1.9-0.7-2.5,0c-0.2,0.2-0.4,0.6-0.6,0.7c-0.2,0.1-0.5,0.2-0.7,0.3
	c-0.6,0.3-1,0.8-1.5,1.2c-0.5,0.4-1,0.4-1.6,0.7c-0.8,0.3-1.4,0.9-2.2,1.3c-0.7,0.3-1.3,0.7-1.9,1.1c-0.6,0.4-1.3,0.6-2,0.9
	c-1.2,0.5-2.4,0.8-3.7,0.7c0.3,0.1,0.6,0.2,0.9,0.2c-0.3-0.1-0.5-0.4-0.8-0.6c-0.3-0.2-0.6-0.3-0.9-0.5c-0.1-0.1-0.2-0.2-0.2-0.2
	c-0.2-0.3-0.1,0-0.1-0.1c-0.1-0.4,0.2-0.9,0.1-1.3c0-0.7-0.4-1.7-0.3-2.3c0-0.2,0.4-0.7,0.4-1c0.1-0.5,0.1-1.1,0.1-1.6
	c0-0.4,0-0.8,0.1-1.2c0.1-0.4,0.3-0.8,0.5-1.2c0.3-0.9,0.5-1.6,0.7-2.6c0.1-0.3,0.1-0.8,0.3-1.1c0.2-0.4,0.5-0.7,0.7-1.1
	c0.2-0.4,0.1-0.9,0.3-1.3c0.1-0.3,0.4-0.6,0.6-1C432.1,117.5,429,115.7,427.9,117.7L427.9,117.7z"/>
<path class="st0" d="M470,95.7c-0.5,1-1,2.3-1.6,3.2c-0.8,1.1-1.1,2.2-1.5,3.5c-0.2,0.6-0.5,0.8-0.9,1.3c-0.3,0.5-0.6,1.1-0.8,1.7
	c-0.5,1.2-0.8,2.5-1.3,3.7c-0.5,1.2-1.1,2.3-1.6,3.5c-0.5,1.1-1.3,2.1-1.7,3.2c-0.2,0.6-0.2,0.9-0.7,1.4c-0.5,0.5-0.7,1-0.9,1.7
	c-0.1,0.7-0.1,0.8-0.5,1.4c-0.3,0.5-0.6,1.1-0.9,1.7c-0.6,1.1,0.1,2.8,1.6,2.7c1.2-0.1,2.2-0.5,3-1.4c1.6-1.7-1-4.3-2.5-2.5
	c-0.2,0.2-0.2,0.3-0.4,0.3c0.5,0.9,1,1.8,1.6,2.7c0.5-1.1,1.4-2.1,1.7-3.3c0.1-0.3,0-0.7,0.1-1c0.1-0.3-0.1,0.1,0.2-0.2
	c0.5-0.5,0.8-1,1-1.7c0.4-1.2,1.1-2.2,1.6-3.4c0.3-0.6,0.4-1.2,0.8-1.8c0.3-0.6,0.7-1.1,0.9-1.8c0.5-1.2,0.9-2.4,1.3-3.7
	c0.1-0.5,0.4-1.1,0.7-1.5c0.3-0.4,0.8-0.8,1-1.3c0.5-1.1,0.5-2.3,1.2-3.3c0.4-0.6,0.7-1.1,0.9-1.7c0.2-0.7,0.6-1.2,0.9-1.8
	C474.2,95.5,471.1,93.7,470,95.7L470,95.7z"/>
<path class="st0" d="M464.7,117.2c0,1-0.2,1.9-0.1,2.9c0,1.1,0.1,2.1,0.3,3.2c0.2,1,0.4,1.9,0.4,2.8c0,0.4-0.1,0.8-0.2,1.2
	c-0.1,0.6,0.1,1.2,0.1,1.8c0.1,1-0.1,1.9,0.2,2.9c0.2,0.9,0.1,1.9,0.2,2.9c0.2,1.9,0.5,4.5,2.8,4.9c1,0.2,1.9-0.3,2.2-1.3
	c0.2-0.9-0.3-2.1-1.3-2.2c0.1,0.2,0.1,0.2,0.1,0c-0.1-0.1-0.1-0.3-0.1-0.4c-0.1-0.3-0.1-0.7-0.1-1c-0.1-1,0-2-0.2-3
	c-0.1-0.3-0.2-0.6-0.2-0.9c-0.1-0.4,0-0.8,0-1.3c0-0.8-0.3-1.6-0.2-2.3c0.3-1.7-0.1-3.3-0.3-5c-0.1-0.9-0.1-1.7-0.2-2.6
	c0-0.9,0.1-1.8,0.1-2.7C468.3,114.9,464.7,114.9,464.7,117.2L464.7,117.2z"/>
<path class="st0" d="M487.2,92.2c0.1,0.8,0.2,1.6,0.2,2.4c0,0.5,0.1,0.9,0.1,1.4c0,0.2,0.1,0.5,0.1,0.7c0,0.1,0.1,0.6,0.1,0.2
	c0.1,0.7,0.2,1.5,0.2,2.3c0,0.5,0,1,0.1,1.5c0,0.2,0.1,0.3,0.1,0.5c0,0.1,0.1,0.8,0.1,0.4c0.1,0.9,0.8,1.8,1.8,1.8
	c0.9,0,1.9-0.8,1.8-1.8c-0.1-0.5-0.1-1-0.2-1.5c-0.1-0.4,0,0.2,0-0.2c0-0.2,0-0.5,0-0.7c0-0.8-0.1-1.5-0.2-2.3
	c-0.1-0.5-0.1-1-0.2-1.4c0-0.1,0-0.2-0.1-0.3c0,0.2,0,0.2,0,0c0-0.2,0-0.4,0-0.5c0-0.8-0.1-1.6-0.2-2.4c-0.1-0.9-0.8-1.8-1.8-1.8
	C488.1,90.4,487.1,91.2,487.2,92.2L487.2,92.2z"/>
<path class="st0" d="M484,105.6c0.9-0.2,1.7-0.4,2.5-0.7c0.6-0.2,1.2-0.5,1.8-0.8c0.9-0.3,1.8-0.4,2.7-0.5c0.7-0.1,1.5-0.3,2.2-0.4
	c1.7-0.1,3.3-0.6,5-0.8c0.7-0.1,1.3,0.1,2,0.1c0.9-0.1,1.8-0.3,2.7-0.3c-0.6-0.8-1.2-1.5-1.7-2.3c0,0.1,0,0.1,0,0.1
	c-0.1,0-0.3,0-0.4,0c-1-0.1-1.8,0.9-1.8,1.8c0,1,0.8,1.7,1.8,1.8c1.9,0.2,3.3-1,3.9-2.7c0.4-1.1-0.7-2.3-1.7-2.3
	c-1,0-1.9,0.2-2.9,0.3c-0.8,0.1-1.6-0.1-2.4,0c-1.6,0.2-3.1,0.6-4.6,0.7c-0.9,0.1-1.8,0.3-2.7,0.5c-0.9,0.1-1.7,0.2-2.5,0.5
	c-0.9,0.2-1.7,0.6-2.5,1c-0.7,0.3-1.4,0.4-2.2,0.6C480.9,102.7,481.8,106.2,484,105.6L484,105.6z"/>
<path class="st0" d="M487.2,113.7c1.3-0.1,2.5-0.3,3.8-0.3c1.3,0,2.5-0.2,3.8-0.3c-0.4-1-0.8-2-1.3-3.1c-0.3,0.3-0.6,0.6-0.9,0.9
	c-0.7,0.7-0.7,1.9,0,2.5c0.7,0.7,1.8,0.7,2.5,0c0.3-0.3,0.6-0.6,0.9-0.9c0.5-0.5,0.7-1.3,0.4-2c-0.3-0.6-0.9-1.2-1.6-1.1
	c-1.3,0.1-2.5,0.2-3.8,0.3c-1.3,0-2.5,0.2-3.8,0.3c-0.9,0.1-1.8,0.8-1.8,1.8C485.5,112.8,486.2,113.7,487.2,113.7L487.2,113.7z"/>
<path class="st0" d="M487.3,119.7c1.5-0.3,3-0.7,4.5-1.1c1.5-0.3,3-0.6,4.5-1c0.9-0.2,1.5-1.3,1.3-2.2c-0.3-1-1.2-1.5-2.2-1.3
	c-1.5,0.3-3,0.6-4.5,1c-1.5,0.3-3,0.7-4.5,1.1c-0.9,0.2-1.5,1.3-1.3,2.2C485.4,119.4,486.3,119.9,487.3,119.7L487.3,119.7z"/>
<path class="st0" d="M481,127.4c0,0.8,0,1.6,0.2,2.5c0.1,0.6,0.3,1.3,0.4,1.9c0.4,1.4,1,2.7,1.7,3.9c0.5,0.8,1.6,1.2,2.5,0.6
	c0.8-0.5,1.2-1.6,0.6-2.5c-0.2-0.3-0.3-0.5-0.5-0.8c-0.1-0.3-0.3-0.6-0.4-0.8c0,0.1,0,0.1,0.1,0.2c0-0.1-0.1-0.2-0.1-0.3
	c-0.1-0.1-0.1-0.3-0.1-0.4c-0.1-0.3-0.2-0.6-0.3-0.9c-0.2-0.6-0.3-1.2-0.4-1.8c0-0.1,0-0.2-0.1-0.3c0,0.2,0,0.3,0,0.1
	c0-0.2,0-0.3,0-0.5c0-0.3,0-0.7,0-1c0-0.9-0.8-1.8-1.8-1.8C481.8,125.7,481,126.4,481,127.4L481,127.4z"/>
<path class="st0" d="M488.8,130.5c0.4-0.2,0.9-0.7,1.1-0.8c0.2-0.1,0.9-0.2,1.2-0.4c1-0.4,1.9-0.9,2.8-1.3c0.9-0.4,1.9-0.7,2.9-1.1
	c1-0.3,1.9-0.6,2.9-0.9c-0.7-0.7-1.5-1.5-2.2-2.2c-0.4,1.2-1,2.4-1.6,3.5c-0.2,0.4-0.4,0.7-0.5,1.1c-0.1,0.2-0.1,0.3-0.2,0.5
	c0,0-0.1,0.3,0,0.2c-0.1,0.4,0,0-0.1,0.2c-0.1,0.1-0.3,0.2-0.4,0.4c-0.3,0.3-0.5,0.6-0.7,0.9c-0.3,0.5-0.5,1.1-0.8,1.5
	c-0.4,0.5-0.8,1-1.3,1.3c-0.6,0.4-1,1-1.4,1.5c-0.4,0.4-1,0.9-1.6,1.3c-0.8,0.6-0.6,1.9,0,2.5c0.7,0.7,1.8,0.6,2.5,0
	c0.6-0.4,1.2-0.8,1.6-1.4c0.2-0.3,0.5-0.7,0.6-0.8c0.2-0.2,0.3-0.3,0.5-0.4c0.7-0.5,1.2-1.1,1.7-1.8c0.3-0.3,0.5-0.6,0.7-1
	c0.1-0.3,0.3-0.7,0.4-0.8c0.3-0.5,1-1,1.3-1.6c0.4-0.7,0.5-1.3,0.8-1.9c0.8-1.4,1.4-2.8,1.9-4.3c0.5-1.3-1-2.6-2.2-2.2
	c-2.1,0.7-4.2,1.3-6.2,2.2c-0.9,0.4-1.9,1-2.7,1.3c-0.6,0.2-1.2,0.3-1.7,0.6c-0.5,0.3-0.8,0.6-1.2,0.8c-0.8,0.5-1.1,1.6-0.6,2.5
	C486.8,130.7,487.9,131,488.8,130.5L488.8,130.5z"/>
<path class="st0" d="M488.6,140c0.7-0.5,1.6-0.9,2.4-1.3c0.4-0.2,0.8-0.4,1.2-0.6c-0.3,0.1,0.3-0.1,0.3-0.1c0.2-0.1,0.5-0.1,0.7-0.1
	c0.4-0.1,0.9-0.2,1.3-0.3c-0.1,0-0.1,0,0.1,0c0.1,0,0.3,0,0.4,0c0.2,0,0.4,0,0.6,0c0.3,0,0.1,0,0.4,0c0.3,0,0.6,0.1,0.8,0.2
	c0.6,0.1,1,0.1,1.5,0.2c0.9,0.2,2-0.3,2.2-1.3c0.2-0.9-0.3-2-1.3-2.2c-0.4-0.1-0.7-0.1-1.1-0.2c-0.1,0-0.3,0-0.4,0
	c-0.2,0-0.3,0-0.1,0c-0.6-0.1-1.1-0.2-1.7-0.3c-1.2-0.1-2.3,0.2-3.5,0.4c-0.5,0.1-1,0.2-1.5,0.4c-0.5,0.2-1,0.5-1.5,0.8
	c-0.9,0.4-1.9,0.8-2.7,1.4c-0.8,0.5-1.2,1.6-0.6,2.5C486.6,140.1,487.8,140.5,488.6,140L488.6,140z"/>
<path class="st0" d="M5.8,36.2c0.6-0.3,1.1-0.6,1.6-0.7c0.4-0.1,0.8-0.3,1.1-0.5c0.2-0.1,0.3-0.1,0.7-0.2c0.6-0.2,1.4-0.7,1.8-0.9
	c0.7-0.3,1.4-0.5,2.1-0.8c0.3-0.1,0.3-0.2,0.6-0.3c0.3-0.1,0.5-0.1,1-0.2c0.8-0.2,1.4-0.5,2.1-0.9c0.1-0.1,0.2-0.1,0.4-0.2
	c0.2-0.1,0.2-0.2,0-0.1c-0.2,0-0.2,0,0,0c0.4,0.1,1.1-0.2,1.4-0.4c0.3-0.1,0.7-0.3,0.9-0.5c0.3-0.2,0.1-0.1-0.1,0
	c0.3-0.1,0.6-0.1,0.9-0.2c2.2-0.6,1.3-4.1-1-3.5C19,27,18.5,27,18.1,27.3c-0.3,0.1-0.6,0.3-0.9,0.5c-0.2,0.1-0.3,0.2-0.5,0.2
	c0.1,0,0.2-0.1,0.3-0.1c-0.2,0-0.3,0-0.5,0.1c-0.5,0.1-0.9,0.2-1.3,0.5c-0.5,0.3-1,0.6-1.4,0.7c-0.4,0.1-0.8,0.1-1.2,0.2
	c-0.4,0.2-0.8,0.3-1.2,0.5c-0.5,0.2-1.1,0.4-1.7,0.6c-0.6,0.2-1.3,0.7-1.8,0.9c-0.4,0.1-0.8,0.2-1.1,0.4C6.5,32,6.6,32,6.1,32.1
	c-0.8,0.2-1.5,0.7-2.2,1c-0.9,0.4-1.1,1.7-0.6,2.5C3.8,36.5,4.9,36.6,5.8,36.2L5.8,36.2z"/>
<path class="st0" d="M12.6,20.3c-0.4,0.7-0.8,0.9-0.9,1.7c-0.1,0.9,0.1,1.5,0.2,2.3c0-0.3,0-0.6,0-1c-0.3,0.9-0.3,1.8-0.7,2.6
	c-0.4,1-0.3,1.6-0.1,2.7c0-0.3,0-0.6,0-1c-0.2,0.5-0.4,0.8-0.4,1.3c0,0.5,0.2,0.9,0.3,1.4c0.1-0.5,0.1-0.9,0.2-1.4
	c-0.4,0.8-0.8,1.3-0.6,2.2c0.1,0.7,0.1,1.2,0,1.9c-0.1,0.7-0.3,1.3-0.4,1.9c-0.2,0.9,0,1.5,0.2,2.3c0.1-0.5,0.1-0.9,0.2-1.4
	c-0.3,0.6-0.8,1-0.8,1.7c0,0.8,0.3,1.4,0.2,2.2c-0.1,0.6-0.3,1.4-0.4,2.1c-0.1,0.4-0.2,1-0.1,1.4c0.2,0.5,0.2-0.3,0,0.5
	c-0.3,0.8-0.4,1.6-0.6,2.4c-0.1,0.4-0.2,0.8-0.2,1.2c0,0.9,0.2-0.2-0.1,0.7c-0.5,1.6,0.1,3,1.4,4c0.8,0.6,2,0.1,2.5-0.6
	c0.5-0.9,0.1-1.9-0.6-2.5c0.8,0.6-0.1,0.6,0.2,0.2c0.2-0.2,0.3-0.7,0.3-1c0-0.3-0.1-0.7-0.1-1c0-0.3,0.3-0.7,0.3-0.9
	c0.2-0.6,0.3-1.2,0.5-1.8c0.3-0.8,0.1-1.4-0.1-2.1c0,0.3,0,0.6,0,1c0.1-0.6,0.1-1.2,0.3-1.7c0.1-0.5,0.3-0.9,0.3-1.3
	c0.1-1.1-0.1-2.1-0.2-3.1c-0.1,0.5-0.1,0.9-0.2,1.4c0.2-0.5,0.6-0.7,0.8-1.3c0.2-0.7-0.1-1.2-0.3-1.9c0,0.3,0,0.6,0,1
	c0.2-1,0.4-2,0.6-3c0.2-1.2,0.1-2-0.1-3.2c-0.1,0.5-0.1,0.9-0.2,1.4c0.2-0.5,0.6-0.9,0.7-1.5c0.1-0.6-0.2-1.1-0.3-1.6
	c0,0.3,0,0.6,0,1c0.2-0.5,0.4-0.8,0.4-1.3c0-0.5-0.2-0.9-0.3-1.4c0,0.3,0,0.6,0,1c0.1-0.4,0.4-0.8,0.5-1.2c0.3-0.6,0.3-1.3,0.4-2
	c0.1-0.5,0.3-1.5-0.2-1.9c0-0.1,0.1-0.1,0.1-0.2c-0.1,0.1-0.1,0.3-0.2,0.4c0.2-0.1,0.5-0.6,0.6-0.8C16.9,20.1,13.7,18.3,12.6,20.3
	L12.6,20.3z"/>
<path class="st0" d="M2.7,60.1c0.4-0.2,0.9-0.5,1.4-0.9c0.2-0.2,0.4-0.3,0.6-0.5c0.1-0.1,0.3-0.3,0.3-0.5c0.1-0.2,0-0.2-0.4,0.1
	c0.1-0.2,0.6-0.3,0.8-0.4c0.3-0.1,0.5-0.3,0.7-0.5c0.6-0.4,0.8-1,1.1-1.5c-0.2,0.2-0.4,0.4-0.6,0.6c0.7-0.4,1.5-0.8,2.2-1.5
	c0.3-0.4,0.6-0.8,0.9-1.2c0.1-0.1,0.1-0.2,0.3-0.3c-0.2,0.1-0.1,0.1,0.1,0c0.6-0.2,1.1-0.6,1.4-1.1c0.1-0.1,0.1-0.3,0.2-0.4
	c0.1-0.3,0.1-0.3,0.1-0.1c-0.2,0.2,0.4-0.3,0.4-0.3c0.3-0.3,0.5-0.5,0.9-0.7c0.3-0.2,0.5-0.4,0.7-0.6c0.1-0.1,0.2-0.2,0.3-0.4
	c-0.4,0.2-0.4,0.2-0.2,0.1c0.9,0,1.8-1.3,2.3-1.8c0.3-0.3,0.6-0.5,0.9-0.7c0.2-0.2,0.4-0.3,0.6-0.5c0.1-0.1,0.2-0.2,0.3-0.4
	c0.2-0.3,0.1-0.3-0.1-0.1c-0.3,0.1-0.3,0.2-0.1,0.1c0.2-0.1,0.4-0.1,0.5-0.2c0.1-0.1,0.3-0.2,0.4-0.3c0.4-0.3,0.8-0.5,1.2-0.8
	c0.3-0.2,0.6-0.6,0.8-0.8c0.4-0.3,0.9-0.4,1.3-0.6c2.1-1.1,0.2-4.2-1.8-3.1c-0.7,0.3-1.5,0.6-2,1.1c-0.4,0.4-0.8,0.8-1.3,1.1
	c-0.5,0.3-1.1,0.5-1.5,1c0,0-0.6,0.9-0.2,0.5c-0.3,0.3-0.7,0.5-1.1,0.8c-0.5,0.4-0.9,1.1-1.4,1.4c0.2-0.1,0.2-0.1-0.1,0
	c-0.2,0.1-0.4,0.2-0.6,0.3c-0.4,0.2-0.5,0.6-0.8,0.9c-0.2,0.2-1,0.8-1.4,1.2c-0.3,0.3-0.7,0.6-0.9,0.9c-0.2,0.3-0.3,0.6-0.4,0.8
	c0.2-0.2,0.4-0.4,0.6-0.6c-0.6,0.3-1.1,0.5-1.6,1c-0.4,0.4-0.6,0.9-1,1.3c-0.5,0.5-0.7,0.5-1.3,0.8c-0.7,0.4-0.9,1-1.3,1.6
	c0.2-0.2,0.4-0.4,0.6-0.6c-0.7,0.4-1.5,0.7-2,1.3c-0.2,0.2-0.4,0.5-0.6,0.8c-0.1,0.1-0.1,0.1-0.2,0.2c0.2-0.1,0.2-0.1,0.1,0
	c-0.2,0.1-0.5,0.2-0.7,0.3C-1.1,58.1,0.7,61.3,2.7,60.1L2.7,60.1z"/>
<path class="st0" d="M26.3,39.5c0.8-0.5,1.9-0.6,2.4-1.5c0.1-0.2,0.2-0.4,0.3-0.7c-0.1,0.3,0,0.2,0.2,0c-1.1,0.6,0.6,0,0.8-0.1
	c0.9-0.5,1.6-1,2.3-1.7C32.8,35,32,35.3,33,35c0.5-0.2,1-0.3,1.3-0.7c0.3-0.3,0.2-0.3-0.2,0c0.3,0,0.5-0.1,0.8-0.1
	c0.4-0.1,0.9-0.3,1.2-0.5c0.3-0.2,0.8-0.6,1-0.8c0.2-0.2,0.3-0.3,0.4-0.5c0.2-0.4,0.1-0.4-0.4,0.1c0,0.1,2.1-0.6,2.3-0.7
	c0.9-0.4,1.4-1.1,2.1-1.7c-0.4,0.2-0.8,0.4-1.3,0.5c0.6-0.1,1,0.2,1.7,0c0.6-0.2,1.1-0.6,1.7-0.9c0.6-0.3,1.4-0.5,2-0.9
	c0.7-0.3,0.9-0.8,1.4-1.2c-0.4,0.2-0.8,0.4-1.3,0.5c0.4,0,1,0.1,1.4,0c0.5-0.1,0.9-0.4,1.3-0.6c0.6-0.2,1.2-0.4,1.7-0.7
	c0.1-0.1,0.8-0.7,0.4-0.4c-0.4,0.2,0.5,0,0.6-0.1c0.6-0.2,1-0.6,1.6-0.8c0.6-0.2,1.2-0.5,1.9-0.6c0.3-0.1,0.8,0.1,1.4,0
	c0.6-0.1,1.1-0.5,1.6-0.7c-0.9-0.7-1.8-1.4-2.6-2c-0.1,0.3-0.1,0.7-0.2,1c0,0-0.4,0.3-0.6,0.5c-0.7,0.7-0.6,1.6-0.5,2.6
	c0-0.3,0-0.6,0-1c-0.1,0.5,0.3-0.2,0.4,0c-0.1-0.1-0.8,0.4-0.9,0.4c-0.4,0.3-0.7,0.7-0.8,1.2c-0.2,0.8-0.3,1.7-0.9,2.3
	c-0.4,0.4-0.8,0.5-1,1.1c-0.1,0.1-0.4,0.9-0.2,1c-0.1-0.1,0.7-1-0.1-0.3c-0.4,0.3-0.8,0.8-1,1.2c-0.2,0.4-0.2,1-0.4,1.4
	c0.3-0.4,0.6-0.7,0.8-1.1c-0.5,0.3-1.1,0.5-1.5,1.1c-0.4,0.5-0.7,0.8-1.2,1.4c-0.3,0.4-0.7,0.7-1.2,1.2c-0.7,0.7-0.5,1.2-0.8,1.9
	c0.3-0.4,0.6-0.7,0.8-1.1c-0.3,0.2-0.6,0.4-0.8,0.6c0.9,0.5,1.8,1,2.7,1.6c-0.1-0.5,0.1-1-0.1-1.5c-0.1-0.3-0.3-0.6-0.4-0.8
	c-0.7-0.8,0.1,0.3-0.1,0.5c0.3-0.2,0-1.4,0-1.7c0-0.8-0.1-1.2-0.3-2c-0.1,0.5-0.1,0.9-0.2,1.4c0.1-0.3,0.4-0.5,0.6-0.7
	c1.1-2-2-3.8-3.1-1.8c-0.2,0.4-0.6,0.6-0.8,1.2c-0.2,0.7,0.1,1.2,0.3,1.8c0-0.3,0-0.6,0-1c-0.1,0.6-0.2,1.1-0.1,1.7
	c0,0.5-0.1,1,0,1.5c0.1,0.4,0.3,1.1,0.7,1.3c0.2,0.1,0-0.7-0.1-0.5c-0.1,0.2,0,0.5,0,0.6c0.1,1.2,1.5,2.4,2.7,1.6
	c0.5-0.3,1-0.6,1.3-1c0.2-0.2,0.3-0.5,0.4-0.7c0-0.2,0-0.7,0.1-0.9c0,0.2-0.1,0.3-0.1,0.5c0.1-0.1,0.2-0.2,0.3-0.3
	c0.2-0.1,0.3-0.2,0.5-0.4c0.3-0.3,0.6-0.8,0.8-1c0.3-0.3,0.8-0.5,1-1c0.3-0.7-0.4,0.2-0.4,0.1c0,0,0.7-0.3,0.8-0.3
	c0.5-0.3,0.8-0.8,1-1.4c0-0.1,0-0.7,0.1-0.7c0,0-0.7,0.9,0.1,0.1c0.4-0.4,0.7-0.6,1-1.1c0-0.1,0.4-0.9,0.3-1
	c0.2,0.1-0.9,0.8-0.1,0.6c0.9-0.3,1.7-2.2,1.9-3c0.1-0.2,0.1-0.4,0.2-0.5c0.1-0.5,0.5-1.1-0.3-0.3c-1,1,0.4,0.1,0.7-0.2
	c0.4-0.4,0.7-1.1,0.9-1.6c0.1-0.5,0-1.1,0-1.4c-0.2,0.4-0.4,0.8-0.5,1.3c0.5-0.5,0.9-0.7,1.2-1.3c0.3-0.6,0.4-1.2,0.6-1.9
	c0.4-1.6-1.3-2.7-2.6-2c-0.2,0.1-0.3,0.2-0.5,0.3c-0.5,0.3-0.3,0.3,0.4,0c0-0.2-1.3-0.1-1.4-0.1c-1,0.2-2,0.6-2.9,1
	c-0.5,0.2-1,0.6-1.5,0.8c0.6-0.3-0.9,0.2-1,0.2c-0.3,0.1-0.6,0.6-0.7,0.6c-0.3,0.2-0.6,0.2-1,0.3c-0.1,0-1.2,0.4-1.2,0.6
	c0.7,0,0.9-0.1,0.4-0.1c-0.2-0.1-0.5-0.1-0.7,0c-0.6,0-1,0.3-1.4,0.7c-0.2,0.2-0.3,0.4-0.4,0.6c0.1-0.1,0.2-0.2,0.4-0.3
	c-1,0.5-2,0.8-2.9,1.4c-0.2,0.1-0.4,0.2-0.6,0.3c0.6,0,0.6,0,0.2-0.1c-0.4-0.1-1-0.1-1.4,0.1c-0.4,0.2-0.7,0.5-1,0.8
	c-0.2,0.1-1.1,0.8-0.4,0.5c-0.7,0.3-1.4,0.4-2.1,0.6c-0.4,0.2-0.8,0.3-1.1,0.7c-0.2,0.2-0.3,0.4-0.4,0.6c0.3-0.2,0.2-0.1-0.2,0.2
	c-0.6,0.4-1.3,0.3-2,0.7c-0.1,0.1-0.3,0.2-0.4,0.3c-0.3,0.3-0.2,0.3,0.2,0c-0.6,0.2-1,0.2-1.6,0.6c-0.4,0.2-1,0.6-1.2,1.1
	c-0.2,0.3-0.1,0.3,0.2,0c-0.2,0.1-0.4,0.2-0.6,0.2c-0.2,0.1-0.3,0.2-0.5,0.3c-0.5,0.3-0.5,0.4-0.1,0.1c-0.6,0.2-1,0.2-1.6,0.6
	c-0.7,0.5-0.9,1.2-1.4,1.8c0.4-0.3,0.7-0.6,1.1-0.8c-0.7,0.3-1.4,0.5-2.1,0.9C22.6,37.6,24.4,40.7,26.3,39.5L26.3,39.5z"/>
<path class="st0" d="M45.1,9.1c-0.1,0.7,0.1,0.3-0.3,0.9c-0.2,0.3-0.3,0.6-0.4,0.9c-0.1,0.3,0.1,0.8,0,1c-0.1,0.3,0.1-0.3-0.2,0.2
	c-0.4,0.7-0.7,1.2-0.9,2c-0.1,0.4-0.2,0.7-0.2,1.1c0,0.4-0.2,0.8,0.1,0.3c-0.3,0.6-0.4,1.1-0.6,1.7c-0.1,0.6-0.5,0.9-0.7,1.4
	c-0.3,0.7-0.5,1.6-0.6,2.3c-0.1,0.4-0.2,0.7-0.2,1c0,0.2,0,0.4,0.1,0.6c0.2-0.5,0.2-0.6,0-0.4c-0.4,0.3-0.7,1.2-0.8,1.6
	c-0.2,0.5-0.6,1.4-0.3,2c0.1,0.4,0.1,0.3,0.2-0.1c0.1-0.4,0.1-0.4-0.1-0.1c-0.2,0.3-0.3,0.6-0.4,0.9c-0.3,0.6-0.6,1.1-0.8,1.8
	c-0.2,0.6,0,1.2-0.1,1.8c-0.1,0.3-0.3,0.5-0.4,0.8c-0.2,0.4-0.3,0.8-0.4,1.3c-0.2,0.7-0.4,1.1-0.7,1.7c-0.5,0.8-0.3,1.3-0.3,2.1
	c0.1,2.3,3.7,2.3,3.6,0c0-0.2,0-0.4,0-0.5c0-0.5-0.1-0.3-0.2,0.4c0,0,0.5-0.8,0.5-0.8c0.3-0.7,0.4-1.5,0.7-2.3
	c0.2-0.5,0.5-1,0.7-1.6c0.2-0.6,0-1.2,0.1-1.8c0.1-0.5,0.6-1.2,0.8-1.7c0.3-0.6,0.6-1.1,0.6-1.8c0-0.7-0.2-0.5,0.2-1.2
	c0.3-0.6,0.7-1.1,0.8-1.7c0.1-0.6,0-1.1,0.2-1.7c0.2-0.7,0.4-1.1,0.7-1.8c0.3-0.6,0.6-1.4,0.6-2c0-0.7-0.3,0.3,0.1-0.2
	c0.2-0.3,0.3-0.6,0.3-0.9c0.1-0.6,0-1.3,0.3-1.9c0.1-0.2,0.6-0.8,0.7-1.1c0-0.1,0.4-2.1,0.2-2.1c-0.3,0.7-0.3,0.8,0,0.5
	c0.1-0.1,0.2-0.3,0.3-0.4c0.2-0.4,0.3-0.8,0.3-1.3C48.9,7.8,45.5,6.8,45.1,9.1L45.1,9.1z"/>
<path class="st0" d="M28.6,23.5c0,0.5-0.1,0.9,0,1.3c0.1,0.3,0.2,0.5,0.2,0.8c0,0.6-0.3,1.2-0.3,1.9c0,0.7-0.3,1.2-0.3,1.9
	c0,0.8,0.2,1.5,0.4,2.2c0-0.3,0-0.6,0-1c-0.4,1.3-0.3,2.2,0,3.5c0-0.3,0-0.6,0-1c-0.2,1.4-0.5,3-0.1,4.3c0,0.1,0.4,1,0.3,0.6
	c-0.1-0.3,0,0.3,0,0.4c-0.1,0.7-0.2,1.2,0,2c0.2,0.7,0.4,1.4,0.6,2c0.2,0.5,0.1,0.9,0.2,1.5c0.1,0.6,0.5,1,0.8,1.5
	c0.2,0.4,0.3,0.7,0.5,1c0.1,0.1,0.1,0.1,0.2,0.2c0.5,0.4,0.5,0.4,0-0.2c0-0.3,0-0.6,0-1c-0.2,1-0.2,1.9,0.6,2.7
	c0.3,0.3,0.5,0.3,0.7,0.7c0.2,0.4,0.3,0.8,0.6,1.1c0.1,0.1,1.1,0.8,1.2,0.6c-0.6-0.7-0.7-0.7-0.4-0.1c0.1,0.2,0.3,0.4,0.4,0.6
	c0.3,0.3,0.7,0.6,1.1,0.8c0.2,0.1,0.5,0.2,0.7,0.3c-0.3-0.3-0.3-0.3-0.1,0c0.5,0.8,1.3,1,2.1,1.1c0.2,0.1,1.2,0.3,1.2,0.3
	c0.4,0.2,0.7,0.6,1.1,0.8c0.4,0.1,0.7,0,1.1,0.1c-0.6-0.2-0.6-0.2-0.1,0.1c0.2,0.1,0.5,0.2,0.7,0.3c0.5,0.2,1.3,0.2,1.8,0.1
	c0.3-0.1,0.6-0.3,0.9-0.4c-0.3,0-0.6,0-1,0c0.7,0.2,1.4,0.5,2.1,0.6c0.5,0,1.1-0.1,1.6-0.2C48,55,48.3,55,48.7,55
	c0.3,0,0.8-0.3,1.1-0.3c0.4,0,1,0.3,1.4,0.3c0.5,0,1.1,0,1.6-0.2c0.3-0.1,0.5-0.4,0.8-0.6c-0.5,0.1-0.9,0.1-1.4,0.2
	c0.9,0.2,1.5,0.6,2.5,0c0.2-0.1,0.4-0.3,0.6-0.4c-0.6,0.2-0.6,0.3,0,0.2c0.5,0,0.9-0.2,1.3-0.3c-0.3,0-0.6,0-1,0
	c0.4,0.1,0.9,0.4,1.4,0.3c0.3,0,0.6-0.1,1-0.3c0.8-0.3,0.1-0.3,0-0.1c0,0,0.9,0,1,0c0.4-0.1,0.7-0.2,1-0.5c0.2-0.2,0.4-0.5,0.5-0.7
	c0.4-0.9-0.2,0.1-0.3,0c0.2,0.2,1.2-0.9,1.3-1.1c0.3-0.5,0.4-1.2,0.4-1.7c0-0.6-0.4-1.2-0.4-1.6c0-0.6,0-1.2-0.1-1.9
	c0,0.3,0,0.6,0,1c0.2-0.7,0.4-1.2,0.3-1.9c-0.1-0.6-0.1-0.7,0-1.3c0-0.6,0.2-1,0.3-1.6c0.1-0.7-0.3-1.3-0.3-2.1
	c-0.1-2.3-3.7-2.3-3.6,0c0,0.9,0.2,1.5,0.4,2.3c0-0.3,0-0.6,0-1c-0.2,0.8-0.3,1.5-0.4,2.4c-0.1,0.9,0,1.4,0.2,2.2c0-0.3,0-0.6,0-1
	c-0.2,0.8-0.3,1.3-0.2,2.2c0.1,0.7-0.1,1.3,0.2,2c0.1,0.2,0.1,0.3,0.2,0.5c0,0-0.1-0.1-0.1-0.1c0.5-0.5,0.6-0.7,0.3-0.5
	c-0.1,0.1-0.2,0.1-0.3,0.2c-0.3,0.2-0.6,0.5-0.8,0.8c-0.2,0.3-0.6,1,0,0.3c0.4-0.2,0.8-0.4,1.3-0.5c-0.6,0.1-1.5-0.2-1.9,0.3
	c-0.3,0.3,1.2,0.4,0.5,0c-0.3-0.2-0.8-0.3-1.1-0.3c-0.5,0-1.1,0.3-1.7,0.4c-0.7,0.1-1.1,0.5-1.7,0.7c0.5-0.1,0.9-0.1,1.4-0.2
	c-0.4-0.1-0.9-0.4-1.4-0.4c-0.4,0-0.7,0.1-1,0.3c-0.1,0-0.6,0.5-0.7,0.5c0.2-0.1,0.3-0.2,0.5-0.2c-0.1,0.1-0.2,0.1-0.3,0
	c-0.3-0.1-0.7-0.2-1-0.2c-0.7,0-1.4,0.2-2.1,0.3c-0.5,0.1-1.2,0.2-1.7,0.2c-0.5,0-0.9-0.2-1.3-0.4c-0.6-0.2-1.4-0.2-1.9,0.2
	c-0.4,0.3,0.2,0.3,0,0C43,51.2,42.4,51,42.2,51c-0.2-0.1-0.5-0.1-0.8-0.1c-0.7,0.1,0.5,0.5,0.2,0.1c-0.4-0.5-1.2-0.6-1.8-0.8
	c-0.3-0.1-0.5-0.2-0.8-0.3c-0.2,0-0.3-0.1-0.5-0.1c-0.5-0.1-0.3,0,0.4,0.4c0.2-0.2-0.9-1-1-1.1c-0.2-0.1-0.5-0.2-0.7-0.3
	c-0.4-0.3-0.5-0.3-0.2-0.1c0.1,0.2,0.2,0.2,0-0.1c-0.2-0.6-0.7-1.1-1.3-1.3c-1.1-0.4,0.2,0.3,0.1,0.4c0.1-0.1-0.4-0.8-0.4-0.8
	c-0.2-0.3-0.4-0.6-0.7-0.9c-0.1-0.1-0.1-0.1-0.2-0.2c-0.5-0.4-0.5-0.4-0.1,0.2c0,0.3,0,0.6,0,1c0.1-0.8,0.3-1.6-0.3-2.3
	c-0.1-0.2-0.9-1.2-0.5-0.4c-0.2-0.3-0.2-0.7-0.5-1.1c-0.7-0.9-0.1,1-0.1-0.2c0-0.4-0.1-0.8-0.2-1.2c-0.3-1-0.6-1.9-0.9-2.8
	c0,0.3,0,0.6,0,1c0.1-0.6,0.3-1.3,0.3-1.9c0-0.8-0.5-1.3-0.5-2c-0.1-0.8,0.2-1.7,0.2-2.5c0-0.7-0.3-1.1-0.1-1.8
	c0.2-0.8-0.1-1.3-0.1-2c0-0.6,0.4-1.3,0.3-2.1c-0.1-0.7,0.2-1.2,0.3-1.9c0-0.4,0-0.8-0.1-1.3c-0.2-0.6-0.1-0.5-0.1-1.1
	c0.1-1-0.9-1.8-1.8-1.8C29.4,21.7,28.7,22.6,28.6,23.5L28.6,23.5z"/>
<path class="st0" d="M74,31.8c0.1-0.1,0.2-0.2,0.3-0.2c0.1,0,0.3-0.3,0.1-0.2c0.3-0.2,0.7-0.4,1-0.7c0.2-0.2,0.4-0.4,0.5-0.6
	c0.2-0.4-0.1,0.1-0.2,0.1c0.2,0,0.8-0.5,1-0.7c1.1-0.9,2-1.9,3.1-2.7c0.5-0.4,1.2-0.8,1.7-1.2c0.7-0.5,1.1-0.9,1.6-1.3
	c0,0,0.3-0.2,0,0c0.2-0.1,0.5-0.2,0.7-0.3c0.2-0.1,0.4-0.3,0.6-0.4c0,0,0.4-0.3,0.2-0.2c-0.2,0.1-0.2,0.1,0,0
	c0.2-0.1,0.5-0.2,0.7-0.3c0.3-0.1,0.5-0.3,0.8-0.5c0.9-0.4,1.1-1.7,0.6-2.5c-0.5-0.9-1.6-1.1-2.5-0.6c-0.3,0.1-0.5,0.3-0.7,0.5
	c0.3-0.2-0.2,0.1-0.2,0.1c-0.2,0.1-0.5,0.2-0.7,0.3c-0.2,0.1-0.4,0.3-0.6,0.4c-0.2,0.2,0,0-0.1,0.1c-0.1,0.1-0.1,0.1,0,0
	c-0.1,0.1-0.3,0.1-0.4,0.2c-0.2,0.1-0.3,0.2-0.5,0.3c-0.4,0.3-0.7,0.5-1,0.8c-0.1,0.1-0.2,0.2-0.3,0.3c-0.1,0.1-0.1,0.1,0,0
	c-0.1,0-0.1,0.1-0.2,0.1c-0.7,0.4-1.4,0.9-2,1.4c-1.2,0.9-2.1,1.9-3.3,2.8c0.2-0.1-0.1,0.1-0.2,0.1c-0.1,0.1-0.2,0.1-0.4,0.2
	c-0.1,0.1-1.1,0.9-1,1.1c0.3-0.3,0.4-0.3,0.2-0.2c-0.1,0-0.2,0.1-0.2,0.1c-0.2,0.1-0.3,0.2-0.5,0.3c-0.3,0.2-0.6,0.5-0.8,0.7
	c-0.7,0.7-0.7,1.9,0,2.5C72.2,32.5,73.3,32.4,74,31.8L74,31.8z"/>
<path class="st0" d="M76.9,18.6c0,0.5-0.1,0.7-0.2,1.2c-0.2,0.7,0.2,1.1,0.3,1.7c0.1,0.6-0.4,1.8-0.4,2.6c0,0.6,0.1,0.9-0.1,1.4
	c-0.1,0.5-0.1,1,0,1.5c0.1,0.5,0,1.1,0,1.6c0,0.6,0.2,1,0.3,1.6c0-0.3,0-0.6,0-1c0.3-0.8-0.1-0.1-0.2,0.2c-0.2,0.3-0.3,0.6-0.3,0.9
	c-0.1,0.7,0.3,1,0.5,1.6c0-0.3,0-0.6,0-1c0,0.1-0.3,0.4-0.4,0.6c-0.1,0.4-0.2,0.9-0.2,1.3c0,0.9,0.1,1.6,0.3,2.4c0-0.3,0-0.6,0-1
	c-0.2,0.5-0.4,0.8-0.4,1.3c0,0.5,0.2,0.9,0.4,1.4c0-0.3,0-0.6,0-1c-0.1,0.5-0.3,0.9-0.3,1.3c0,0.5,0.3,0.9,0.2,1.3
	c-0.1,0.5-0.4,0.8-0.4,1.3c0,0.5,0.3,0.9,0.4,1.4c0-0.3,0-0.6,0-1c-0.3,1-0.4,2-0.5,3c-0.1,1,0.9,1.8,1.8,1.8c1.1,0,1.7-0.8,1.8-1.8
	c0.1-0.7,0.1-1.3,0.3-1.9c0.2-0.8-0.1-1.3-0.3-2c0,0.3,0,0.6,0,1c0.2-0.6,0.4-1.1,0.5-1.8c0-0.7-0.1-1.2-0.3-1.8c0,0.3,0,0.6,0,1
	c0.1-0.4,0.3-0.9,0.3-1.3c0-0.5-0.2-0.9-0.4-1.4c0,0.3,0,0.6,0,1c0.2-0.7,0.5-1.1,0.3-1.8c-0.1-0.6-0.3-1.1-0.1-1.7
	c0-0.1,0.4-0.7,0.4-1c0.1-0.8-0.3-1-0.5-1.6c0,0.3,0,0.6,0,1c-0.1,0.2-0.3,0.5,0,0.2c0.2-0.3,0.4-0.5,0.5-0.8c0.2-0.6,0-1,0-1.6
	c0-0.5,0-1,0-1.5c0-0.5-0.2-1-0.2-1.6c0,0.3,0,0.6,0,1c0.1-0.6,0.3-1.1,0.3-1.8c0-0.3-0.1-0.7-0.1-0.9c0-0.2,0.1-0.5,0.2-0.8
	c0.2-0.6,0.3-1.3,0.3-2c0-0.7-0.3-1-0.5-1.6c0,0.3,0,0.6,0,1c0.2-0.8,0.4-1.3,0.3-2.2C80.3,16.3,76.7,16.3,76.9,18.6L76.9,18.6z"/>
<path class="st0" d="M73.3,50c0.8-0.5,1.5-1.2,2.3-1.8c0.3-0.3,0.7-0.5,1-0.7c0.2-0.2,0.5-0.3,0.7-0.6c0.1-0.1,0.5-0.7,0.3-0.5
	c-0.2,0.3,0.2-0.1,0.3-0.2c0.2-0.2,0.5-0.4,0.7-0.6c0.4-0.3,0.7-0.7,1.1-1c0.7-0.6,1.5-1.1,2.1-1.8c0.3-0.3,0.5-0.6,0.8-0.9
	c-0.3,0.2,0.3-0.1,0.3-0.2c0.2-0.1,0.5-0.3,0.7-0.5c0.2-0.2,0.3-0.4,0.5-0.7c0.2-0.3-0.1,0,0.1-0.2c0.3-0.3,0.6-0.5,0.9-0.8
	c0.8-0.6,1.5-1.4,2.2-2.1c0.4-0.4,0.7-0.7,1.1-1.1c0.4-0.4,0.6-0.8,0.9-1.3c0.6-0.8,0.1-2-0.6-2.5c-0.9-0.5-1.9-0.1-2.5,0.6
	c-0.3,0.3-0.3,0.5-0.6,0.8c-0.4,0.3-0.7,0.7-1,1c-0.7,0.7-1.3,1.4-2.1,2c-0.3,0.2-0.6,0.5-0.9,0.8c-0.2,0.2-0.3,0.4-0.4,0.6
	c-0.2,0.4,0,0.2,0.2,0c0.2-0.1,0.1,0-0.1,0.1c-0.1,0.1-0.3,0.1-0.4,0.2c-0.2,0.1-0.4,0.3-0.6,0.5c-0.4,0.3-0.6,0.6-1,1
	c-0.6,0.7-1.3,1.1-2,1.7c-0.6,0.5-1.1,1.1-1.7,1.5c-0.3,0.2-0.6,0.5-0.8,0.8c-0.2,0.4,0.2,0,0,0.1c-0.4,0.2-0.8,0.5-1.1,0.8
	c-0.7,0.5-1.3,1.1-2.1,1.6c-0.8,0.6-1.2,1.6-0.6,2.5C71.3,50.2,72.5,50.6,73.3,50L73.3,50z"/>
<path class="st0" d="M92.3,28.3c0.7-0.2,1.5-0.3,2.1-0.6c0.2-0.1,0.6-0.4,0.6-0.4c0.1-0.1,0.6-0.1,0.8-0.2c0.4-0.2,1.2-0.6,1.5-0.7
	c0.4-0.1,0.8-0.1,1.2-0.3c0.3-0.1,0.5-0.4,0.7-0.6c0.1-0.2,0.1-0.2,0,0c0.1,0,0.3-0.1,0.4-0.1c0.3,0,0.6-0.1,0.9-0.2
	c0.8-0.2,1.3-0.7,1.9-1.1c0.7-0.4,1.4-0.4,2-0.9c0.8-0.6,0-0.3,0-0.2c0,0.2,1.2-0.3,1.2-0.3c0.6-0.3,1.1-0.6,1.8-0.8
	c0.6-0.2,1.2-0.2,1.8-0.6c1.1-0.7,2.1-1,3.4-1.3c0.7-0.2,1.5-0.6,2.2-0.7c0.7-0.2,1.2,0.1,1.9-0.3c1-0.7-0.9-0.1,0.2,0
	c0.4,0,0.8,0,1.2-0.2c0.2-0.1,0.8-0.5,0.7-0.6c0,0.1-1.5,0.3,0,0.3c2.3,0.1,2.3-3.5,0-3.6c-0.8,0-1.4-0.2-2,0.2
	c-0.1,0.1-0.2,0.2-0.4,0.3c-0.4,0.4-0.2,0.3,0.6-0.1c0-0.1-0.9-0.1-1,0c-0.4,0.1-0.8,0.2-1.1,0.5c-0.4,0.4,1,0,0,0
	c-0.8,0-1.6,0.4-2.4,0.6c-1.5,0.4-2.8,0.6-4.2,1.3c-0.2,0.1-0.4,0.2-0.6,0.4c-0.7,0.5,0.2,0.1-0.6,0.3c-0.8,0.2-1.6,0.5-2.4,0.8
	c-0.5,0.3-0.8,0.2-1.4,0.5c-0.4,0.2-0.6,0.5-0.9,0.7c-0.2,0.2-0.1,0.2,0,0c-0.1,0-0.3,0.1-0.4,0.1c-0.8,0.2-1.3,0.7-1.9,1.1
	c-0.6,0.4-1.4,0.3-2.1,0.6c-0.3,0.2-0.6,0.3-0.9,0.6c-0.1,0.1-0.2,0.2-0.3,0.4c0.5-0.2,0.6-0.3,0.2-0.2c-0.6,0-1.2,0.4-1.7,0.7
	c-0.6,0.3-1.3,0.3-1.9,0.7c-0.6,0.4-1,0.5-1.8,0.6C89,25.3,90,28.7,92.3,28.3L92.3,28.3z"/>
<path class="st0" d="M93.2,32.9c-0.1,0.3-0.1,0.6-0.1,1c0,0.3,0,0.6,0.1,1c0.1,0.5,0.3,0.9,0.5,1.4c0.1,0.2,0.2,0.3,0.3,0.4
	c0.2,0.2,0.4,0.5,0.6,0.7c0.3,0.3,0.7,0.6,1.1,0.8c0.4,0.2,0.9,0.3,1.4,0.2c0.4-0.1,0.9-0.4,1.1-0.8c0.2-0.4,0.3-0.9,0.2-1.4
	c-0.1-0.4-0.4-0.9-0.8-1.1c-0.2-0.1-0.4-0.2-0.5-0.3c0.1,0.1,0.2,0.2,0.4,0.3c-0.2-0.1-0.3-0.3-0.5-0.5c0.1,0.1,0.2,0.2,0.3,0.4
	c-0.2-0.2-0.3-0.4-0.4-0.7c0.1,0.1,0.1,0.3,0.2,0.4c-0.1-0.3-0.2-0.5-0.2-0.8c0,0.2,0,0.3,0.1,0.5c0-0.2,0-0.5,0-0.7
	c0,0.2,0,0.3-0.1,0.5c0-0.1,0-0.1,0-0.2c0.1-0.2,0.1-0.5,0-0.7c0-0.2-0.1-0.5-0.2-0.7c-0.2-0.4-0.6-0.7-1.1-0.8
	c-0.5-0.1-1-0.1-1.4,0.2C93.7,32,93.3,32.4,93.2,32.9L93.2,32.9z"/>
<path class="st0" d="M95.8,34.8c0.2-0.2,0.5-0.4,0.7-0.5c-0.2,0.1,0,0,0.1,0c0.2-0.1,0.5-0.2,0.7-0.3c0.1-0.1,0.2-0.1,0.3-0.2
	c0.1-0.1,0.5-0.4,0.4-0.3c-0.1,0.1,0.2-0.1,0.2-0.1c0.1-0.1,0.3-0.2,0.4-0.2c0.3-0.2,0.6-0.4,0.9-0.7c0.1-0.1,0.2-0.2,0-0.1
	c0.1-0.1,0.2-0.1,0.3-0.2c0.1-0.1,0.2-0.1,0.3-0.2c0.1-0.1,0.2-0.1,0-0.1c0.3-0.2,0.7-0.2,1-0.4c0.2-0.1,0.4-0.3,0.6-0.4
	c0.2-0.1-0.2,0.1,0.1,0c0.2,0,0.3-0.1,0.5-0.2c0.4-0.1,0.6-0.3,0.9-0.6c0.1,0,0.3-0.2,0.3-0.3c0,0.1-0.7,0.2-0.2,0.2
	c0.6-0.1,1.2-0.4,1.8-0.7c0.2-0.1,0.5-0.2,0.7-0.4c0.1-0.1,0.2-0.1,0.3-0.1c0,0,0.4-0.2,0.2-0.1c-0.7-0.3-1.4-0.6-2-0.8
	c0.3,0.5,0.3,0.4,0.4,0.9c0,0.2,0.1,0.4,0.1,0.5c0,0.1,0,0.1,0,0c0,0.1,0,0.2,0,0.3c0.1,0.9-0.1,1.5-0.3,2.3
	c-0.1,0.2-0.1,0.4-0.1,0.5c-0.1,0.5,0-0.1,0.1-0.1c0,0-0.7,0.9-0.7,1c-0.2,0.3-0.4,0.6-0.5,0.9c0,0.1-0.1,0.2-0.1,0.3
	c0.3-0.3,0.4-0.4,0.2-0.2c-0.3,0.1-0.5,0.4-0.7,0.5c-0.8,0.6-0.6,1.9,0,2.5c0.8,0.8,1.8,0.6,2.5,0c-0.1,0.1-0.1,0.1,0.1,0
	c0.2-0.1,0.3-0.3,0.5-0.4c0.2-0.2,0.4-0.5,0.6-0.7c0.2-0.3,0.4-0.7,0.6-1c0.1-0.1,0.1-0.2,0.2-0.3c-0.1,0.2-0.1,0.2,0,0
	c0.2-0.2,0.4-0.5,0.5-0.7c0.3-0.5,0.3-1,0.5-1.5c0.7-2.2,0.5-4.6-0.6-6.6c-0.3-0.6-1.3-1.1-2-0.8c-0.6,0.2-1.2,0.5-1.7,0.8
	c-0.3,0.1-0.2,0.1-0.6,0.3c-0.4,0.2-0.3,0.1-0.7,0.2c-0.4,0.1-0.7,0.3-1.1,0.5c-0.1,0.1-0.2,0.2-0.4,0.3c0,0-0.2,0.3-0.1,0.1
	c0.1-0.1,0.2-0.1,0-0.1c-0.2,0.1-0.4,0.1-0.6,0.2c-0.2,0.1-0.4,0.3-0.7,0.4c0,0-0.3,0.2-0.2,0.1c0.1-0.1-0.2,0.1-0.2,0.1
	c-0.3,0.1-0.7,0.3-1,0.5c-0.2,0.1-0.4,0.2-0.6,0.3c-0.2,0.1-0.3,0.3-0.5,0.4c-0.4,0.4,0.2-0.1-0.1,0.1c-0.2,0.2-0.5,0.3-0.7,0.4
	c-0.2,0.1-0.4,0.3-0.6,0.4c0.2-0.1,0,0-0.1,0c0.2-0.1,0,0-0.1,0c-0.2,0.1-0.4,0.1-0.6,0.2c-0.3,0.2-0.6,0.4-0.9,0.6
	c-0.8,0.5-1.2,1.6-0.6,2.5C93.8,35,95,35.4,95.8,34.8L95.8,34.8z"/>
<path class="st0" d="M99.4,40.2c0.1-0.1,0.3-0.2,0.4-0.3c0.2-0.2,0,0.1-0.1,0.1c0,0,0.2-0.1,0.2-0.1c0.4-0.2,0.7-0.4,1.1-0.7
	c0.1-0.1,0.1-0.1,0.2-0.2c0.2-0.2,0,0-0.1,0.1c-0.1,0.1-0.3,0.1-0.1,0c0.1,0,0.2,0,0.2-0.1c0.5-0.2,0.9-0.4,1.3-0.6
	c0.1-0.1,0.3-0.1,0.4-0.2c0,0,0.3-0.1,0.1,0c-0.2,0.1,0,0,0.1,0c0.2-0.1,0.4-0.1,0.5-0.2c0.2-0.1-0.3,0.1-0.1,0
	c0.2,0,0.3-0.1,0.5-0.2c0.1,0,0.2-0.1,0.3-0.1c0.1,0,0.4-0.1,0.1,0c-0.3,0,0,0,0.1,0c0.1,0,0.2,0,0.3,0c0.5,0,1-0.2,1.5-0.3
	c0.9-0.2,1.6-1.3,1.3-2.2c-0.3-0.9-1.2-1.5-2.2-1.3c-0.2,0.1-0.4,0.1-0.6,0.2c-0.1,0-0.3,0.1-0.1,0c0.3,0,0,0-0.1,0
	c-0.5,0-1,0.1-1.4,0.3c-0.2,0.1-0.4,0.1-0.5,0.2c-0.2,0.1-0.4,0.1-0.5,0.2c-0.2,0.1,0.3-0.1,0.1,0c-0.5,0.1-0.9,0.4-1.3,0.6
	c-0.2,0.1-0.3,0.1-0.5,0.2c0,0-0.3,0.2-0.1,0c0.3-0.1-0.1,0-0.1,0c-0.6,0.2-1,0.5-1.5,0.9c0,0-0.3,0.2-0.1,0.1c0.2-0.1,0,0-0.1,0
	c-0.2,0.1-0.3,0.2-0.5,0.2c-0.4,0.2-0.7,0.6-1.1,0.9c-0.3,0.3-0.5,0.9-0.5,1.3c0,0.4,0.2,1,0.5,1.3c0.3,0.3,0.8,0.5,1.3,0.5
	C98.7,40.7,99.1,40.5,99.4,40.2L99.4,40.2z"/>
<path class="st0" d="M96.7,50.2c0.2-0.1,0.7-0.3,1-0.5c0.4-0.3,0.7-0.6,1.1-0.9c0.4-0.3,0.8-0.5,1.2-0.8c0.3-0.3,0.5-0.6,0.9-0.8
	c0.2-0.2,0.6-0.4,0.6-0.4c0.5-0.2,1-0.3,1.4-0.7c0.2-0.2,0.6-0.5,0.8-0.8c0.3-0.4-0.2,0,0-0.1c0.2-0.1,0.5-0.2,0.7-0.3
	c0.7-0.4,1.4-0.8,2.1-1.2c0.7-0.5,1.3-1.1,2-1.6c0.2-0.1,0.4-0.3,0.5-0.4c0.2-0.1,0.5-0.3,0.2-0.1c0.4-0.2,0.9-0.4,1.3-0.6
	c0.8-0.5,1.6-1.1,2.4-1.6c1.9-1.3,0.1-4.4-1.8-3.1c-0.8,0.5-1.6,1.1-2.4,1.6c-0.4,0.2-0.5,0.3-0.9,0.4c-0.5,0.2-0.9,0.6-1.3,0.9
	c-0.6,0.5-1.2,1.1-1.8,1.6c-0.6,0.4-1.4,0.8-2,1.2c-0.1,0.1-0.7,0.3-1,0.5c-0.3,0.2-0.6,0.5-0.9,0.8c-0.1,0.1-0.2,0.3-0.4,0.4
	c0.4-0.3,0-0.2-0.2-0.1c-0.4,0.2-0.7,0.4-1.1,0.7c-0.7,0.5-1.3,1.1-2,1.6c-0.4,0.3-0.7,0.5-1.1,0.8c-0.3,0.3-0.6,0.3-1.1,0.6
	C92.9,48.1,94.7,51.2,96.7,50.2L96.7,50.2z"/>
<path class="st0" d="M104.8,11.1c0.2,0.3,0.8,0.5,0.9,0.6c-0.2-0.4-0.4-0.8-0.5-1.3c0,0.1-0.2,0.5-0.2,0.7c0,0.4,0,0.8,0.2,1.1
	c0.4,0.7,0.5,0.8,0.6,1.5c0.1,0.8,0.4,1.6,0.7,2.3c0.3,0.6,0.6,0.8,0.6,1.5c0.1,0.7,0.1,1.4,0.4,2.1c0.1,0.2,1,2,1.4,1.7
	c-0.1,0-0.9-1.3-0.4,0.1c0.1,0.3,0.3,0.6,0.5,0.8c0.1,0.2,0.6,1,0.5,0.4c-0.1-0.6-0.1,0.4-0.1,0.6c0,0.7,0.4,1.5,1.1,1.8
	c0.3,0.2,0.3,0.2,0-0.2c-0.3-0.5-0.3-0.4-0.2,0.2c0.1,0.4,0.2,0.7,0.4,1.1c0.4,0.8,0.8,1.5,1.1,2.3c0.2,0.5,0.6,1.1,1,1.5
	c0.6,0.5,0.4-1.4,0-0.8c-0.2,0.3-0.3,0.7-0.3,1.1c0,0.8,0.4,1.3,1,1.9c0.5,0.5,0.7,0.8,1,1.4c0.1,0.3,0.2,0.6,0.4,0.9
	c0.1,0.1,0.2,0.3,0.3,0.4c0.5,0.4,0.5,0.4,0-0.2c0-0.3,0-0.6,0-1c-0.3,1.3-0.3,2.5,1,3.1c0.1,0,0.6,0.3,0.7,0.2
	c-0.2,0.2-1-1.6-0.7-0.4c0.1,0.4,0.3,0.6,0.5,0.9c0.1,0.1,0.1,0.2,0.2,0.2c0.3,0.3,0.3,0.3,0-0.1c0-0.3,0-0.6,0-1
	c-0.2,1.1-0.2,1.8,0.5,2.6c0.2,0.3,0.5,0.6,0.7,0.9c0.1,0.2,0.3,0.4,0.5,0.6c0.5,0.4,0.5,0.4,0-0.2c0-0.3,0-0.6,0-1
	c-0.2,1-0.4,2,0.5,2.8c0.2,0.2,0.4,0.2,0.6,0.4c-0.4-0.4-0.2-0.1,0,0.3c0.1,0.2,0.8,1.2,1.1,1c-0.2,0.1-0.4-1.4-0.5-0.5
	c0,0.2,0.1,0.5,0.1,0.7c0.2,0.6,0.6,1.2,1,1.7c0.3,0.4,0.6,0.8,1,1.2c0.4,0.3,0.9,0.4,1.3,0.7c-0.3-0.4-0.6-0.7-0.8-1.1
	c0.1,0.2-0.1,0.6,0,0.9c0.1,0.5,0.4,0.9,0.9,1.2c0.2,0.2,0.5,0.3,0.8,0.3c0.6,0.2,0.6,0.1,0-0.2c-0.5-0.4-0.6-0.4-0.3,0.1
	c0.3,0.7,1.2,1.6,1.8,1.8c0.4,0.2,0.3,0.1-0.3-0.4c0,0.2,0.1,0.5,0.2,0.7c0.1,0.2,0.3,0.5,0.4,0.7c0.4,0.6,0.9,0.8,1.5,1.2
	c0.8,0.5,1.3,1.1,2.4,0.9c0.1,0,0.2-0.1,0.2-0.1c0.5-0.2,0.6-0.2,0.1-0.1c-0.1,0,0.6,0.4,0.6,0.4c0.6,0.4,1.6,0.4,2.3,0.4
	c1.2,0,1.9-1.2,1.7-2.3c-0.1-0.4-0.3-0.7-0.5-1.1c-0.2-0.3-0.2-0.3,0-0.1c0-0.2,0-0.5,0-0.7c0.1-2.3-3.5-2.3-3.6,0
	c0,0.6-0.1,1.2,0,1.8c0.1,0.4,0.5,0.9,0.5,1.1c0.6-0.8,1.2-1.5,1.7-2.3c-0.2,0-0.6-0.1-0.8-0.1c-0.4,0.1,0.7,0.5,0.3,0.1
	c-0.4-0.4-1.2-0.7-1.8-0.8c-0.4-0.1-1.5-0.1-1.8,0.3c1,0.3,1.3,0.3,0.9,0c-0.2-0.1-0.3-0.3-0.5-0.4c-0.1-0.1-0.5-0.2-0.5-0.3
	c-0.2-0.3-0.2-0.8-0.4-1.1c-0.4-0.6-1-0.7-1.4-1.1c-0.4-0.4-0.4-1-0.8-1.4c-0.2-0.2-0.5-0.3-0.8-0.4c-0.3-0.1-1-0.4-0.4,0
	c0.3,0.4,0.6,0.7,0.8,1.1c-0.1-0.3,0.1-0.7,0-1.1c-0.2-0.5-0.5-0.9-1-1.2c-0.2-0.1-0.5-0.2-0.7-0.3c0.2,0.1,0.2,0.1-0.1-0.1
	c-0.1-0.2-0.6-0.9-0.6-0.9c-0.1-0.5,0-0.9-0.3-1.4c-0.3-0.5-0.7-0.6-1.1-0.9c0.3,0.4,0.3,0.4,0-0.1c-0.1-0.2-0.2-0.4-0.4-0.6
	c-0.2-0.2-0.3-0.3-0.5-0.4c-0.4-0.3-0.4-0.1,0.2,0.5c0,0.3,0,0.6,0,1c0.2-1,0.4-1.8-0.3-2.6c-0.3-0.3-0.6-0.6-0.9-0.9
	c-0.2-0.2-0.3-0.4-0.5-0.6c-0.3-0.3-0.3-0.3,0,0.1c0,0.3,0,0.6,0,1c0.1-0.6,0.2-1.2,0.1-1.7c-0.1-0.3-0.3-0.6-0.6-0.9
	c-0.2-0.2-0.3-0.6-0.1,0c-0.2-0.5-0.3-1-0.7-1.4c-0.3-0.2-0.5-0.4-0.9-0.5c-0.1,0-0.2,0-0.2-0.1c-0.6-0.2-0.4,0.1,0.6,0.8
	c0,0.3,0,0.6,0,1c0.1-0.6,0.4-1.2,0.2-1.8c-0.1-0.3-0.3-0.6-0.6-0.9c-0.1-0.2-0.3-0.3-0.5-0.4c0.2,0.5,0.3,0.6,0.2,0.3
	c0.1-0.6-0.7-1.6-1-1.9c-0.4-0.5-0.9-0.8-1.3-1.3c0.2,0.4,0.4,0.8,0.5,1.3c-0.1,0.4-0.1,0.5,0,0.1c0.1-0.2,0.2-0.4,0.2-0.6
	c0.1-0.5,0.1-1.1-0.2-1.5c-0.4-0.6-0.9-1.1-1.2-1.8c-0.3-0.8-1-1.6-1.2-2.4c-0.2-0.6-0.1-1-0.6-1.6c-0.2-0.3-0.6-0.4-0.8-0.6
	c0.2,0.4,0.4,0.8,0.5,1.3c0-0.3,0.1-0.6,0.1-1c0-0.5-0.2-0.9-0.4-1.3c-0.2-0.4-0.5-0.6-0.7-1c0.3,0.6-0.2-0.9-0.2-1
	c-0.2-0.4-0.6-0.5-0.8-0.8c-0.4-0.5,0,0-0.1-0.3c-0.3-0.8-0.1-1.6-0.4-2.5c-0.3-0.7-0.8-1.3-1-2.1c-0.2-0.8-0.1-1.7-0.5-2.5
	c-0.1-0.2-0.3-0.4-0.4-0.6c0,0.8,0.1,1,0.2,0.7c0.2-0.3,0.2-1,0.1-1.3c-0.1-0.3-0.3-0.7-0.6-0.9c-0.1-0.1-0.8-0.5-0.8-0.5
	c-0.6-0.8-1.9-0.6-2.5,0C104.1,9.3,104.2,10.4,104.8,11.1L104.8,11.1z"/>
<path class="st0" d="M119,31.6c-0.2,0.3-0.4,0.6-0.5,0.9c-0.1,0.2-0.2,0.4-0.2,0.6c-0.2,0.5,0.1-0.1-0.1,0.2
	c-0.2,0.3-0.4,0.5-0.5,0.8c-0.1,0.2-0.2,0.5-0.3,0.7c0,0.1,0,0.1,0,0c0,0.1-0.1,0.1-0.1,0.2c-0.1,0.1-0.2,0.3-0.3,0.5
	c-0.2,0.3,0.1-0.1-0.1,0.1c-0.3,0.3-0.6,0.7-0.7,1.1c-0.1,0.2-0.2,0.4-0.2,0.6c0,0,0.1-0.1,0.1-0.2c-0.2,0.3-0.5,0.6-0.7,0.9
	c0.2-0.3-0.2,0.3-0.2,0.3c-0.1,0.1-0.2,0.2-0.2,0.4c-0.1,0.2-0.2,0.4-0.3,0.7c0,0.1-0.1,0.2,0,0.1c-0.4,0.6-0.8,1.2-1.1,1.8
	c-0.1,0.2-0.1,0.4-0.2,0.6c0.1-0.1,0.2-0.2,0-0.1c-0.3,0.1-0.5,0.6-0.6,0.9c-0.1,0.2-0.3,0.5-0.2,0.7c0,0.3,0-0.3,0.1-0.1
	c0,0-0.7,0.8-0.7,0.8c-0.6,0.8-0.1,2,0.6,2.5c0.9,0.5,1.9,0.1,2.5-0.6c-0.2,0.2,0,0.1,0.1,0c0.2-0.1,0.3-0.3,0.4-0.5
	c0.2-0.3,0.4-0.7,0.4-1c0-0.2,0,0-0.1,0.1c0.1-0.1,0.2-0.2,0.3-0.3c0.3-0.4,0.5-0.8,0.7-1.3c0.1-0.3-0.1,0,0.1-0.2
	c0.1-0.1,0.2-0.2,0.3-0.4c0.2-0.3,0.4-0.6,0.6-0.9c0.2-0.3,0.3-0.7,0.4-1c-0.1,0.3,0.2-0.1,0,0c-0.1,0.1,0,0.1,0.1-0.1
	c0.1-0.1,0.2-0.2,0.2-0.3c0.1-0.1,0.2-0.2,0-0.1c0.1-0.1,0.3-0.3,0.4-0.4c0.2-0.3,0.5-0.7,0.5-1.1c0.1-0.3,0-0.1-0.1,0
	c-0.1,0.1,0.2-0.2,0.2-0.2c0.3-0.3,0.5-0.6,0.7-1c0.2-0.4,0.4-0.7,0.5-1.1c0.1-0.3-0.2,0.4,0.1-0.2c0.1-0.1,0.2-0.2,0.2-0.4
	c0.2-0.4,0.3-0.7,0.5-1.1c-0.1,0.2,0,0,0.1-0.1c0.1-0.2,0.2-0.4,0.3-0.6c0.5-0.8,0.2-2-0.6-2.5C120.6,30.5,119.5,30.8,119,31.6
	L119,31.6z"/>
<path class="st0" d="M119.7,1.8c0,0.5,0,1,0,1.5c0,0.6,0.2,1.2,0.4,1.7c0.2,0.5,0.5,1.1,0.7,1.6c0.3,0.5,0.7,1,1,1.4
	c-0.1-0.1-0.2-0.2-0.3-0.4c0.3,0.4,0.5,0.8,0.8,1.1c0.6,0.7,1.9,0.7,2.5,0c0.7-0.7,0.7-1.8,0-2.5c0,0-0.1-0.1-0.1-0.1
	c0.1,0.1,0.2,0.2,0.3,0.4c-0.4-0.5-0.7-1-1.1-1.4c0.1,0.1,0.2,0.2,0.3,0.4c-0.4-0.5-0.6-1.1-0.8-1.6c0.1,0.1,0.1,0.3,0.2,0.4
	c-0.2-0.4-0.3-0.8-0.4-1.3c0,0.2,0,0.3,0.1,0.5c0-0.3,0-0.5,0-0.8c0-0.3,0-0.6,0-0.9c0-0.9-0.8-1.8-1.8-1.8
	C120.5,0,119.7,0.8,119.7,1.8L119.7,1.8z"/>
<path class="st0" d="M144.6,36c0.7,0.1,1.1,0.5,1.9,0.3c0.6-0.1,1.1-0.5,1.6-0.8c-0.3,0-0.6,0-1,0c-0.7-0.1,0.7,0.4,0.8,0.5
	c0.5,0.2,1.1,0.1,1.6-0.1c0.3-0.1,0.7-0.4,0.8-0.5c0.4-0.2,1-0.3,1.5-0.4c0.8-0.1,1.6,0.2,2.4,0.1c1-0.1,1.6-0.7,2.5-1
	c-0.3,0-0.6,0-1,0c0.7,0.1,1.1,0.5,1.9,0.4c0.3-0.1,0.5-0.3,0.8-0.3c0.5-0.2,0.6-0.1,1.1,0c1.6,0.1,3-0.6,4.4-1.3
	c-0.5,0.1-0.9,0.1-1.4,0.2c0.7,0.1,1.1,0.4,1.9,0.3c0.8-0.1,1.5-0.2,2.2-0.4c0.3-0.1,0.3-0.1,0,0c0.2,0,0.3,0,0.5,0.1
	c0.4,0,0.8,0,1.2-0.1c0.7-0.2,1-0.6,1.6-0.9c-0.5,0.1-0.9,0.1-1.4,0.2c0.4,0.1,0.7,0.4,1.2,0.4c0.7,0.1,1.5-0.1,2.2-0.2
	c0.6-0.1,1.2-0.1,1.7-0.5c0.6-0.4,0.3-0.4,1-0.7c-0.3,0-0.6,0-1,0c0.7,0.1,1.4,0.3,2.1,0.3c0.9,0,1.2-0.5,1.8-0.8
	c-0.5,0.1-0.9,0.1-1.4,0.2c0.8,0.1,1.2,0.5,2.2,0.2c0.8-0.3,1-0.4,1.8-0.4c2.3,0.1,2.3-3.5,0-3.6c-0.6,0-1-0.1-1.7,0.1
	c-0.5,0.1-0.9,0.4-1.4,0.5c0.3,0,0.6,0,1,0c-0.8-0.1-1.2-0.6-2.1-0.2c-0.3,0.1-0.7,0.3-0.9,0.6c-0.3,0.2-0.1,0.2,0.7-0.2
	c-0.2-0.1-0.4-0.1-0.5-0.1c-0.9-0.2-1.4-0.3-2.3,0.1c-0.4,0.2-1.1,0.7-1.3,0.8c-0.3,0.1-0.9,0.2-1.2,0.1c0,0-0.5-0.2-0.7-0.2
	c-0.9-0.3-1.4,0.2-2.2,0.5c-0.7,0.3,0,0.1-0.3,0.2c-0.3,0.1-0.9-0.1-1.3,0c-0.3,0.1-0.7,0.3-1,0.3c-0.5,0.1-1,0.1-1.6,0.2
	c0.3,0,0.6,0,1,0c-0.7-0.1-1.1-0.5-1.9-0.3c-0.5,0.1-0.6,0.4-1.1,0.6c-0.2,0.1-0.6,0.1-0.9,0.2c-0.8,0.3-1.1,0-1.9,0
	c-0.8,0-1.4,0.4-2.1,0.7c0.3,0,0.6,0,1,0c-0.3-0.1-0.6-0.3-0.9-0.4c-0.6-0.1-1.1,0-1.7,0.3c-0.9,0.4-1.1,0.6-2.1,0.5
	c-1-0.1-1.8,0-2.8,0.3c-0.6,0.1-1.2,0.3-1.7,0.5c-0.3,0.1-0.5,0.4-0.8,0.5c0.5-0.1,0.9-0.1,1.4-0.2c0.6,0.1-0.1-0.2-0.3-0.3
	c-0.4-0.2-0.9-0.3-1.3-0.3c-0.7,0.1-1.2,0.6-1.9,0.8c0.3,0,0.6,0,1,0c-0.3-0.1-0.6-0.3-0.9-0.3C143.3,32.2,142.3,35.6,144.6,36
	L144.6,36z"/>
<path class="st0" d="M201.9,13.7c-0.1,0.2-0.1,0.5-0.1,0.7c0,0.6,0.1,0.4,0.4-0.6c-0.3-0.1-0.9,0.7-1,0.9c-0.3,0.4-0.7,1-1,1.5
	c-0.2,0.4-0.1,0.9-0.3,1.2c-0.1,0.3-0.5,0.5-0.7,0.7c-0.3,0.4-0.4,0.7-0.6,1.2c-0.4,0.9-1.1,1.5-1.6,2.3c-0.5,0.9-0.9,1.5-1.1,2.5
	c0.2,0,0.2,0.1-0.1,0.4c0.3-0.3,0.3-0.3,0.1-0.1c-0.4,0.3-0.7,0.6-0.9,1c-0.2,0.4-0.5,0.9-0.5,1.3c-0.1,0.5,0,0.4,0.3-0.2
	c-0.2,0.1-0.4,0.2-0.6,0.4c-0.8,0.7-0.7,1.7-0.6,2.7c0-0.3,0-0.6,0-1c0.5-0.5,0.6-0.7,0.3-0.5c-0.2,0.1-0.3,0.2-0.5,0.3
	c-0.2,0.2-0.4,0.5-0.5,0.7c-0.3,0.6-0.1,1.3-0.1,1.9c0-0.3,0-0.6,0-1c0.5-0.6,0.6-0.7,0.2-0.4c-0.2,0.1-0.4,0.3-0.5,0.4
	c-0.4,0.5-0.5,1-0.8,1.6c-0.3,0.9-0.8,1.6-1.1,2.5c-0.3,0.8-0.8,1.5-1,2.2c-0.1,0.2-0.1,0.5-0.1,0.8c0.1-0.4,0-0.3-0.2,0.1
	c-0.3,0.4-0.4,1-0.6,1.5c-0.7,2.2,2.8,3.2,3.5,1c0.2-0.5,0.5-0.9,0.7-1.3c0.2-0.4,0.3-0.8,0.3-1c0.4-1,0.7-2,1.2-3
	c0.2-0.4,0.5-0.8,0.6-1.2c0.1-0.3,0.3-0.7,0.4-1c0,0.2-0.5,0.5-0.1,0.2c1.1-0.6,1.1-1.9,0.9-2.9c0,0.3,0,0.6,0,1
	c-0.5,0.5-0.6,0.7-0.3,0.5c0.2-0.1,0.3-0.2,0.5-0.3c0.2-0.2,0.4-0.5,0.5-0.7c0.3-0.6,0.1-1.3,0-1.9c0,0.3,0,0.6,0,1
	c-0.5,0.6-0.6,0.7-0.2,0.4c0.2-0.1,0.4-0.3,0.5-0.4c0.3-0.3,0.4-0.7,0.6-1.1c0-0.2,0.1-0.4,0.2-0.6c0.3-0.5,0.2-0.5-0.1,0
	c0.2-0.2,0.5-0.3,0.7-0.6c0.6-0.7,0.6-1.6,0.9-2.4c-0.2,0.6,0.5-0.7,0.5-0.8c0.2-0.3,0.4-0.6,0.7-0.9c0.5-0.7,0.9-1.7,1.3-2.4
	c0.4-0.6,1.2-1.2,1.4-2.1c0.2-0.8,0.5-1.2,1-1.7c0.8-0.6,0.7-1.2,0.9-2C206,12.4,202.5,11.5,201.9,13.7L201.9,13.7z"/>
<path class="st0" d="M195.8,27.8c-0.1,1.3,0,2.6,0.3,3.9c0-0.3,0-0.6,0-1c-0.1,0.5-0.3,1-0.3,1.6c0.1,0.4,0.4,0.8,0.5,1.1
	c0-0.3,0-0.6,0-1c-0.1,0.9-0.4,1.8-0.3,2.7c0,0.5,0.1,1,0.4,1.5c0.1,0.2,0.3,0.4,0.4,0.6c-0.3-0.6-0.4-0.6-0.3,0
	c-0.1,0.4-0.1,0.9,0,1.3c0.1,0.5,0.1,1.2,0.2,1.7c0.1,0.4,0.3,0.8,0.4,1.2c0.1,0.5,0,1.1,0.1,1.7c0,0,0.5,1.7,0.7,1.5
	c-0.1-0.8-0.2-0.9-0.2-0.2c0,0.3,0,0.5,0.1,0.8c0.1,1.1,0.8,1.8,1,2.8c0.3,1,0.1,1.9,0.6,2.8c0.2,0.4,0.4,0.9,0.6,1.3
	c0.2,0.4,0.5,0.6,0.6,1.1c0.6,2.2,4.1,1.3,3.5-1c-0.1-0.5-0.2-1-0.6-1.5c-0.3-0.5-0.4-0.9-0.7-1.4c-0.1-0.1-0.3-0.6-0.2-0.2
	c0.1,0.5,0.1-0.2,0.1-0.3c0-0.6-0.2-1.1-0.3-1.7c-0.2-0.6-0.3-1.3-0.6-1.9c-0.2-0.3-0.4-0.5-0.4-0.8c-0.1-0.6,0.1-1.1-0.2-1.7
	c-0.1-0.2-0.3-0.4-0.4-0.6c0.3,0.5,0.1,0.2,0-0.3c-0.1-1-0.4-1.9-0.5-2.9c-0.1-0.5-0.2-1-0.2-1.4c0-0.6,0.1-1.2,0-1.9
	c-0.1-0.5-0.5-0.8-0.7-1.2c0.3,0.5,0.1,0.4,0.2,0c0-0.1,0.1-0.4,0.1-0.5c0.1-0.5,0.2-0.9,0.2-1.4c-0.1-0.4-0.4-0.8-0.5-1.1
	c0,0.3,0,0.6,0,1c0.2-0.8,0.3-1.4,0.1-2.2c-0.1-0.8-0.1-1.7-0.1-2.5C199.5,25.5,195.9,25.5,195.8,27.8L195.8,27.8z"/>
<path class="st0" d="M210.7,27.2c0.6-0.2,1-0.2,1.5-0.5c0.1-0.1,0.7-0.6,0.7-0.7c0,0.1-1.1,0.5-0.1,0.3c0.6-0.1,1-0.5,1.4-0.9
	c0.5-0.5-0.3,0.1,0.1-0.1c0.3-0.1,0.5-0.2,0.8-0.4c0.5-0.3,0.9-0.5,1.4-0.8c0.4-0.2,0.7-0.8,1.2-0.9c-0.4,0.2,0.2,0.1,0.3,0.1
	c0.3,0,0.6-0.2,0.9-0.3c0.6-0.2,1-0.5,1.4-1c0,0,0.4-0.2,0.4-0.2c0,0.1-1.1-0.1-0.4,0.2c0.6,0.2,1.3,0,1.8-0.3
	c0.3-0.2,0.7-0.7,0.8-0.9c-0.4,0-0.5,0-0.1,0.1c0.1,0,0.3,0,0.4,0c0.3,0,0.6-0.1,0.8-0.2c0.5-0.1,1-0.2,1.5-0.4
	c0.3-0.1,0.6-0.3,0.9-0.5c0.5-0.3-0.4,0,0.2-0.1c0.6-0.1,1.3-0.2,1.8-0.5c0.5-0.3,0.6-0.8,1-1.1c-0.4,0.2-0.8,0.4-1.3,0.5
	c0.5,0,0.9,0.2,1.4,0.1c0.6-0.1,1.5-0.4,2.1-0.7c0.2-0.1,0.6-0.3,0.6-0.5c0.2-0.2,0.1-0.2-0.2,0c-0.4,0.1-0.4,0.1,0,0.1
	c0.5,0.1,1.2,0.2,1.7,0c0.2-0.1,0.5-0.2,0.7-0.3c0.9-0.6-0.6-0.1,0.5-0.2c0.6,0,1-0.4,1.5-0.5c0.6-0.1,1.1,0,1.7-0.1
	c0.8-0.1,1.2-0.5,1.9-0.8c-0.9-0.4-1.8-0.7-2.6-1.1c0,0.1,0.1,0.2,0.1,0.3c0-0.3,0-0.6,0-1c0.4-0.2,0.5-0.3,0.2-0.3
	c0.5,0.1,0.9,0.1,1.4,0.2c-0.1,0-0.1-0.1-0.2-0.1c-0.9-0.4-1.9-0.3-2.5,0.6c-0.5,0.8-0.2,2.1,0.6,2.5c1.9,0.9,4.7-0.8,3.8-3.1
	c-0.5-1.1-1.5-1.6-2.6-1.1c-0.3,0.2-0.5,0.4-0.9,0.4c-0.6,0.1-1.1-0.1-1.7,0.1c-0.4,0.1-0.8,0.3-1.2,0.4c-0.6,0.1-1.1,0.1-1.6,0.4
	c-0.9,0.5,0.3,0.1,0.3,0.1c0-0.1-0.7-0.1-0.8-0.1c-0.4,0-1,0-1.4,0.1c-0.8,0.2-1.3,1-2,1.1c-0.6,0-0.9-0.2-1.5,0
	c-0.4,0.2-1,0.6-1.1,1c-0.1,0.2-0.1,0.2,0.1,0c0.2-0.2,0.2-0.2,0-0.1c0,0-0.6,0.1-0.6,0.1c-0.6,0.1-0.9,0.3-1.4,0.6
	c-0.3,0.1-0.5,0.2-0.9,0.3c-0.4,0.1-0.2,0.1-0.5,0.2c-0.3,0-0.5,0-0.8,0c-0.5,0.1-1.2,0.4-1.6,0.7c-0.4,0.3-0.5,0.7-0.8,1
	c0.4-0.2,0.8-0.4,1.3-0.5c-0.7,0.1-1.2-0.2-1.9,0.1c-0.5,0.2-1,0.6-1.3,0.9c-0.3,0.3-0.3,0.3-0.1,0.1c-0.1,0.1-0.3,0.1-0.4,0.2
	c-0.3,0-0.6,0-0.9,0.1c-0.6,0.2-1.1,0.6-1.6,1c-0.5,0.4-1.1,0.7-1.7,1c-0.3,0.2-1,0.4-1.4,0.8c-0.9,0.9,0.2,0.2,0.2,0.2
	c-0.1-0.2-1.2,0.3-1.2,0.3c0,0-0.9,0.7-0.9,0.9c0.2-0.1,0.4-0.2,0.6-0.3c-0.3,0-0.5,0.1-0.8,0.1C207.5,24.4,208.4,27.9,210.7,27.2
	L210.7,27.2z"/>
<path class="st0" d="M227.5,9.8c0,0.1-0.2,0.7-0.1,0.8c-0.2-0.1,0.9-0.8,0.2-0.5c-0.6,0.3-0.8,0.9-1,1.4c-0.4,1-0.8,1.9-0.7,3
	c0.1,0.9,0.4,1.5,0.1,2.3c-0.2,0.6-0.2,1.2-0.2,1.8c0.1,0.4,0.4,0.8,0.5,1.1c0-0.3,0-0.6,0-1c0.2-0.7,0.2-0.5-0.1-0.1
	c-0.2,0.3-0.4,0.6-0.5,1c-0.1,0.4,0,0.7,0,1c0,0.3-0.1,0.6-0.1,1c-0.1,0.7,0.1,1.5,0.3,2.2c0.1,0.3,0.1,0.6,0.3,0.9
	c0.1,0.2,0.6,1.1,0.2,0.2c0-0.3,0-0.6,0-1c0.1-0.3,0.4-0.5,0-0.3c-0.2,0.2-0.4,0.5-0.5,0.8c-0.3,0.6-0.2,1.1-0.2,1.7
	c0,0.6,0,1.2,0.3,1.8c0.1,0.3,0.6,0.7,0.7,0.9c-0.1-0.5-0.1-0.9-0.2-1.4c0.3-0.8-0.1,0-0.3,0.2c-0.2,0.4-0.4,0.9-0.3,1.4
	c0.1,0.7,0.5,1.3,0.7,2c0-0.3,0-0.6,0-1c-0.2,1.1-0.8,1.9-0.7,3.1c0.1,0.8,0.4,1.1,0.8,1.7c-0.6-0.9-0.2,0.6-0.1,1
	c0.2,0.6,0.1-0.4,0,0.2c0,0.3-0.1,0.6-0.1,1c0,0.6,0,0.8-0.2,1.3c-0.2,0.5-0.3,1-0.1,1.6c0.1,0.3,0.3,0.5,0.5,0.8
	c0.3,0.3,0.4,0.6,0.1-0.1c0-0.3,0-0.6,0-1c0.3-0.8,0.1-0.4-0.1-0.1c-0.3,0.4-0.5,0.7-0.6,1.2c0,0.4,0,0.8,0.2,1.1
	c0.1,0.2,0.8,1.3,0.4,0.4c0-0.3,0-0.6,0-1c-0.2,0.7-0.5,1-0.4,1.8c0.1,0.6,0.3,1.2,0.4,1.7c0-0.3,0-0.6,0-1c0,0.1-0.4,0.5-0.4,0.7
	c-0.1,0.3-0.1,0.6-0.1,0.9c0,0.3,0.2,0.6,0.3,0.9c0.1,0.2,0.6,1.1,0.3,0.2c0-0.3,0-0.6,0-1c-0.1,0.5-0.4,0.8-0.4,1.4
	c0,0.2,0.1,1.1,0.3,1.2c0.1,0.1,0.6-0.6,0.2-0.2c-0.3,0.3-0.5,0.6-0.6,1.1c-0.2,0.8,0.1,1.6,0.6,2.1c1.1,1,0.1-0.3,0-0.3
	c-0.2,0.1,0.1,1.6,0.2,1.8c0-0.3,0-0.6,0-1c-0.1,0.8-0.6,1.2-0.7,2c-0.1,0.5,0,0.9,0.3,1.3c0.1,0.3,0.8,1.3,0.4,0.3
	c0.4,0.9,1.2,1.5,2.2,1.3c0.9-0.2,1.6-1.3,1.3-2.2c-0.1-0.4-0.3-0.6-0.5-1c-0.2-0.3-0.4-0.7-0.1,0.1c0,0.3,0,0.6,0,1
	c0-0.1,0.3-0.3,0.3-0.5c0.1-0.2,0.1-0.5,0.2-0.7c0.2-0.7,0.1-1.2,0-2c0-0.7,0.1-1.2-0.2-1.8c-0.1-0.2-0.3-0.4-0.5-0.6
	c-0.1-0.1-0.2-0.2-0.4-0.3c-0.3-0.2-0.3-0.2,0,0.1c0.1,0.5,0.1,0.9,0.2,1.4c-0.3,0.8-0.2,0.4,0.1,0.1c0.3-0.4,0.5-0.7,0.6-1.2
	c0.1-0.9-0.2-1.6-0.5-2.5c0,0.3,0,0.6,0,1c0.2-0.7,0.5-1.1,0.3-1.8c0-0.2-0.2-0.5-0.3-0.6c-0.1-0.2-0.6-1.1-0.3-0.2c0,0.3,0,0.6,0,1
	c0-0.1,0.4-0.5,0.4-0.7c0.1-0.3,0.1-0.6,0.1-0.9c-0.1-0.7-0.3-1.3-0.5-2c0,0.3,0,0.6,0,1c0.2-0.7,0.5-1.1,0.4-1.8
	c0-0.2-0.2-0.5-0.3-0.6c-0.1-0.2-0.7-1.1-0.3-0.2c0,0.3,0,0.6,0,1c-0.3,0.5-0.3,0.6-0.1,0.3c0.2-0.2,0.3-0.4,0.4-0.5
	c0.2-0.3,0.3-0.7,0.3-1.1c0-0.3-0.1-0.8-0.3-1.1c-0.2-0.3-0.8-1.3-0.4-0.3c0,0.3,0,0.6,0,1c0.1-0.4,0.4-0.7,0.4-1.1
	c0.1-0.7,0-1.3,0.1-2c0.1-0.6,0.2-1,0-1.6c-0.2-0.6,0-1.1-0.2-1.7c-0.1-0.2-0.2-0.4-0.3-0.6c-0.1-0.1-0.2-0.2-0.2-0.3
	c-0.2-0.2-0.2-0.1,0.1,0.3c0.2-0.2,0.3-0.9,0.4-1.2c0.4-1.3-0.1-2-0.5-3.2c0,0.3,0,0.6,0,1c-0.2,0.5-0.1,0.3,0.1-0.1
	c0.2-0.2,0.3-0.5,0.4-0.8c0.1-0.6,0-1.2-0.4-1.7c0-0.1-0.4-0.6-0.5-0.5c0,0,0.4,1,0.3,0.1c0-0.1,0-0.3,0-0.4
	c-0.4,0.5-0.4,0.6-0.2,0.4c0.2-0.1,0.3-0.3,0.4-0.5c0.4-0.6,0.5-1.2,0.4-1.9c-0.1-0.3-0.2-0.5-0.4-0.7c-0.3-0.4-0.2-0.5-0.1,0
	c-0.1-0.4-0.2-0.8-0.2-1.2c0-0.3,0.2-0.6,0.2-0.9c0-0.1,0-0.3,0-0.4c-0.4,0.5-0.5,0.6-0.3,0.4c0.3-0.3,0.6-0.8,0.8-1.2
	c0.2-0.7-0.2-1.1-0.3-1.7c0-0.4,0,0.2,0-0.1c0-0.2,0.2-0.5,0.3-0.7c0.2-0.6,0-1.4-0.1-2.1c-0.1-0.4-0.2-0.8-0.2-1.2
	c0-0.4-0.2,0.2,0.1-0.3c0.1-0.2,0.2-0.5,0.3-0.7c0.2-0.5,0.2-0.5,0-0.2c-0.2,0.2-0.2,0.2-0.1,0.1c0.2,0,0.5-0.3,0.6-0.5
	c0.5-0.5,0.4-1.1,0.6-1.7C231.6,8.5,228.1,7.6,227.5,9.8L227.5,9.8z"/>
<path class="st0" d="M221,25.2c-0.2,0.1-0.5,0.3-0.7,0.5c-0.3,0.4-0.4,0.8-0.7,1.2c0.3-0.5-0.3,0.4-0.4,0.4c0.3-0.3-0.4,0.3-0.6,0.4
	c-0.5,0.5-0.7,1.1-1.2,1.6c-0.4,0.5-0.8,1-1.2,1.4c-0.5,0.5-0.8,1.1-1.2,1.7c-0.3,0.6,0.2,0-0.2,0.3c-0.4,0.3-0.7,0.6-0.9,1
	c-0.2,0.4-0.2,0.6-0.4,0.9c-0.1,0.2-0.3,0.3-0.5,0.5c-0.3,0.3-0.5,0.7-0.8,1.1c0.3-0.2,0.3-0.2,0-0.1c-0.1,0.1-0.2,0.1-0.3,0.2
	c-0.6,0.5-1,1.2-1.4,1.8c-0.2,0.3-0.3,0.5-0.4,0.9c-0.2,0.4-0.1,0.3,0.2-0.2c-0.2,0.1-0.4,0.2-0.6,0.4c-0.3,0.3-0.6,0.7-0.7,1.1
	c-0.1,0.5,0.3-0.2-0.1,0.3c-0.4,0.5-0.7,1.1-1,1.6c-0.5,0.7-0.9,1.5-0.6,2.4c0.3,0.9,1.1,1.4,2,1.5c1.7,0.1,3-1.6,2.1-3.2
	c-1.1-2-4.2-0.2-3.1,1.8c0,0,0,0.1,0.1,0.1c-0.1-0.5-0.1-0.9-0.2-1.4c0-0.1,0.1-0.1,0.1-0.2c0.2-0.2,0.4-0.4,0.6-0.6
	c-0.3,0.2-0.1,0.2,0.7,0c0.3,0.2,0.5,0.3,0.8,0.5c0,0-0.1-0.1-0.1-0.1c0.2,0.3,0.3,0.5,0.5,0.8c0-0.1,0-0.1-0.1-0.2c0,0.3,0,0.6,0,1
	c0,0,0.5-0.7,0.6-1c0.1-0.1,0.1-0.3,0.2-0.4c-0.1,0.2-0.1,0.2,0,0.1c0.2-0.2,0.4-0.4,0.6-0.7c0-0.1,0.4-0.8,0.3-0.8
	c0,0-0.6,0.7,0.1,0.1c0.5-0.4,0.7-0.9,1-1.5c0.1-0.3,0.5-0.7,0.7-1.1c0.2-0.3-0.3,0.2,0.1,0c0.2-0.1,0.5-0.3,0.7-0.5
	c0.4-0.4,0.6-0.9,0.9-1.3c0.4-0.4,0.8-0.9,1-1.4c0.1-0.1,0.1-0.3,0.2-0.4c0.1-0.3,0.1-0.3-0.1,0c-0.2,0.2-0.2,0.2,0,0
	c0.1-0.1,0.2-0.2,0.4-0.3c0.4-0.4,0.8-0.9,1-1.4c0.4-0.6,1-1.3,1.6-1.9c0.4-0.4,0.7-0.8,1-1.3c0,0,0.5-0.8,0.2-0.4
	c0.2-0.2,0.4-0.3,0.6-0.5c0.3-0.3,0.8-0.9,1-1.3c0.1-0.2,0.2-0.4,0.2-0.5c0.1-0.3,0-0.2-0.2,0.3c0-0.1,0.6-0.5,0.7-0.6
	C225.3,26.2,222.7,23.6,221,25.2L221,25.2z"/>
<path class="st0" d="M226.1,31c0.8-0.3,1.5-0.4,2.3-0.6c0.4-0.1,0.8-0.2,1.2-0.4c0.1,0,0.4-0.1,0.2-0.1c0.2,0,0.5,0.1,0.7,0.1
	c0.9,0.2,1.7,0.2,2.6,0.2c0.9,0,1.7,0.1,2.6,0.2c-0.3-0.1-0.6-0.2-0.9-0.2c0.2,0.1,0.6,0.4,1,0.6c0.4,0.2,0.8,0.2,1.2,0.3
	c0.4,0.1,0.8,0.2,1.3,0.3c0.1,0,0.2,0.1,0.4,0.1c0.1,0,0.2,0.1,0.3,0.1c-0.3-0.3-0.4-0.3-0.2-0.2c0,0.4,0.8,0.8,1.1,0.9
	c0.2,0.1,0.4,0.2,0.6,0.2c0.2,0,0.3,0.1,0.1,0c0.3,0.2,0.4,0.4,0.7,0.6c0.4,0.4,0.8,0.6,1.3,0.9c1.9,1.3,3.7-1.8,1.8-3.1
	c-0.5-0.3-0.9-0.7-1.4-1.1c-0.6-0.5-1.2-0.6-1.9-0.9c0.3,0.2,0.5,0.3,0.8,0.5c0.1,0.2,0,0.1-0.1-0.1c-0.1-0.2-0.3-0.3-0.4-0.5
	c-0.3-0.3-0.6-0.5-1-0.6c-0.8-0.3-1.5-0.5-2.3-0.7c-0.1,0-1-0.2-0.5,0c-0.4-0.2-0.7-0.6-1.2-0.7c-0.4-0.1-0.8-0.1-1.1-0.1
	c-0.4,0-0.8-0.2-1.2-0.2c-0.7,0-1.4,0.1-2.1,0c-0.7-0.1-1.5-0.3-2.2-0.3c-0.8,0.1-1.4,0.4-2.2,0.5c-0.8,0.2-1.4,0.3-2.2,0.6
	c-0.9,0.4-1.5,1.2-1.3,2.2C224.1,30.6,225.1,31.4,226.1,31L226.1,31z"/>
<path class="st0" d="M221.5,41c-1.1-0.5-1.9-0.7-3-0.2c-0.8,0.4-1.5,1-1.9,1.8c-0.7,1.3,0.5,3.2,2,2.6c1.3-0.5,2.8-0.6,4.2-1.4
	c0.6-0.3,1.3-0.3,1.9-0.5c0.8-0.2,1.6-0.5,2.4-0.7c0.4-0.1,0.9-0.2,1.3-0.4c0.1-0.1,0.2-0.1,0.3-0.2c0,0,0.5-0.3,0.3-0.2
	c-0.1,0,0.5,0,0.6-0.1c0.4-0.1,0.7-0.2,1.1-0.3c0.1,0,0.7-0.4,0.6-0.3c0.4-0.2,0.9-0.1,1.3-0.3c0.7-0.3,1.4-0.4,2.1-0.5
	c2.3-0.5,1.3-4-1-3.5c-0.8,0.2-1.6,0.3-2.4,0.6c-0.4,0.2-1.2,0.3-1.8,0.6c-0.5,0.2-1.1,0.3-1.7,0.5c-0.4,0.1-0.7,0.3-1,0.5
	c-0.2,0.1-0.3,0.1-0.7,0.2c-0.8,0.2-1.5,0.4-2.3,0.6c-0.8,0.2-1.7,0.3-2.4,0.6c-0.6,0.3-1.2,0.6-1.9,0.8c-0.2,0.1-0.6,0.1-0.9,0.1
	c-0.3,0.1-0.7,0.2-1,0.4c0.7,0.9,1.4,1.8,2,2.6c0-0.1,0.1-0.2,0.2-0.3c0.1,0,0.1-0.1,0.2-0.1c-0.7-0.1-0.9,0-0.4,0.1
	c0.9,0.4,1.9,0.3,2.5-0.6C222.6,42.7,222.4,41.4,221.5,41L221.5,41z"/>
<path class="st0" d="M258,27.4c-0.2,1.1-0.2,2,0.2,3.1c0.4,1,0.6,1.9,1.2,2.7c0.6,0.7,1.4,1.5,2.2,1.9c0.8,0.5,1.8,0.7,2.7,0.9
	c0.3,0.1,0.6,0.1,0.8,0.1c0.3-0.1-0.3-0.2,0.1,0c0.6,0.2,1.1,0.3,1.7,0.2c1-0.2,1.9-0.3,2.8-0.8c0.8-0.4,1.5-1,2.3-1.5
	c0.6-0.4,0.7-0.8,1-1.4c0,0,0.3-0.4,0.3-0.4c-0.1,0-0.1,0.1-0.2,0.1c0.2-0.1,0.3-0.3,0.5-0.4c0.7-0.8,0.6-2.6-0.7-2.8
	c-0.8-0.1-1.3-0.2-2.1,0c-0.8,0.2-1.3,0.3-2,0.8c-0.2,0.1-0.3,0.1-0.4,0.2c-0.3,0.2-0.3,0.2-0.1,0.1c-0.2,0-0.5,0-0.7,0
	c-0.7,0.2-1.1,0.7-1.6,1.1c0.2-0.1,0.5-0.3,0.7-0.4c-0.7,0.2-1.2,0.3-1.8,0.8c-0.6,0.4-1.1,0.7-1.6,1.3c0.1-0.1,0.5-0.2,0-0.1
	c-0.2,0-0.3,0.1-0.5,0.2c-0.3,0.2-0.6,0.5-0.8,0.8c-0.3,0.5-0.7,0.7-1,1.2c-0.8,1-1.7,1.8-2.3,2.9c-0.4,0.6-0.6,1.3-0.7,2
	c-0.2,0.8,0.1,1.5,0.2,2.3c0.3,1.3,0.8,2.5,1.9,3.4c0.5,0.4,1.2,0.8,1.8,1.1c0.5,0.3,1.2,0.3,1.8,0.5c0.6,0.3,1.1,0.6,1.7,0.7
	c0.7,0.1,1.4-0.1,2.1-0.1c0.7,0,1.2-0.1,1.9-0.3c0.3-0.1,0.7,0,1-0.1c0.4-0.1,0.8-0.3,1.2-0.5c0.6-0.3,1.3-0.4,1.9-0.6
	c0.7-0.2,1.2-0.7,1.9-0.9c0.5-0.1,0.9-0.3,1.2-0.7c-0.1,0.1-0.4,0-0.2,0.1c0.1,0.1,0.5,0,0.7-0.1c0.7-0.2,1.3-0.8,1.9-1.1
	c1.9-1.1,0.2-4-1.7-2.9c-0.2,0.1-0.5,0.4-0.7,0.5c-0.2,0.1-0.4,0.3-0.6,0.4c0.4-0.1,0.4-0.2,0.1-0.1c-0.4,0-0.9,0.2-1.3,0.4
	c-0.4,0.3-0.4,0.2-0.8,0.4c-0.7,0.2-1.2,0.8-1.9,0.9c-0.7,0.2-1.3,0.4-1.9,0.7c-0.2,0.1-0.5,0.2-0.7,0.3c-0.4,0.1-0.8,0.2-1.2,0.3
	c-0.3,0-0.6,0-0.9,0c-0.4,0-0.8,0.1-1.3,0.1c-0.3,0-0.7-0.3-1.2-0.5c-0.3-0.1-0.7-0.2-1-0.3c-0.4-0.1-0.5-0.2-0.8-0.4
	c-0.5-0.3-0.9-0.4-1.1-1c-0.1-0.3-0.2-0.7-0.2-1c-0.1-0.2-0.3-0.7-0.3-0.9c0-0.4,0.6-1.1,0.8-1.6c0.2-0.3,0.2-0.3,0-0.1
	c0.2-0.1,0.3-0.2,0.5-0.4c0.3-0.2,0.4-0.5,0.7-0.8c0.4-0.5,1-0.9,1.4-1.5c0.1-0.1,0.2-0.2,0.2-0.4c-0.5,0.2-0.5,0.3-0.2,0.2
	c0.4-0.1,0.8-0.4,1.1-0.7c0.3-0.3,0.3-0.3,0.7-0.6c0.2-0.1,0.4-0.3,0.6-0.4c-0.2,0-0.2,0,0.1,0c0.4-0.1,0.8-0.2,1.2-0.5
	c0.2-0.2,0.4-0.4,0.6-0.6c-0.2,0.1-0.5,0.3-0.7,0.4c0.2,0,0.6,0,0.9-0.1c0.4-0.1,0.9-0.4,1.2-0.6c0.2-0.1,0.3-0.3,0.5-0.4
	c0.3-0.1-0.3,0.1,0.1,0c0.3,0,0.7-0.3,1-0.2c-0.3-0.1-0.6-0.2-0.8-0.2c0.3,0.1,0.5,0.3,0.9,0.3c-0.2-0.9-0.5-1.9-0.7-2.8
	c-0.2,0.2-0.7,0.7-0.9,1.1c-0.2,0.3-0.4,0.7-0.6,1c0.2-0.2,0.4-0.4,0.6-0.6c-0.4,0.3-0.8,0.5-1.2,0.8c-0.3,0.3-0.6,0.5-0.9,0.6
	c-0.7,0.3-1.6,0.4-2.4,0.6c0.3,0,0.6,0,0.9,0c-0.2,0-0.7-0.3-1-0.3c-0.4,0-0.7,0-1-0.1c-0.8-0.2-1.4-0.2-1.9-0.8
	c-0.3-0.3-0.6-0.5-0.9-0.8c-0.2-0.2-0.2-0.5-0.3-0.8c-0.2-0.7-0.6-1.3-0.4-2c0.2-0.9-0.2-1.8-1.2-2.1C259.3,26,258.2,26.5,258,27.4
	L258,27.4z"/>
<path class="st0" d="M293.9,24.3c-0.2,0,0.1,0,0.1,0c0.2,0,0.4,0,0.6-0.1c0.2-0.1,0.7-0.3,0.7-0.3c0.5-0.1,1.1,0,1.7-0.1
	c0.6-0.1,1.1-0.2,1.7-0.3c0.1,0,0.5-0.3,0.6-0.3c-0.2,0-0.4,0.1-0.1,0.1c0.4,0,0.8,0,1.1-0.1c0.3-0.1,0.2-0.1,0.5-0.1
	c0.3,0,0.7-0.1,1-0.2c0.3-0.1,0.5-0.2,0.8-0.2c0.1,0,0.2,0,0.3-0.1c-0.1,0-0.2,0-0.3,0c0.1-0.1,0.5,0.1,0.7,0.1
	c0.6,0,1.2-0.2,1.8-0.4c0.6-0.2,0.9-0.2,1.5-0.3c0.9-0.1,1.7-0.7,1.7-1.7c0-0.8-0.8-1.8-1.7-1.7c-0.7,0.1-1.3,0.1-1.9,0.3
	c-0.3,0.1-0.6,0.2-0.9,0.2c-0.1,0-0.3,0.1-0.4,0.1c-0.3,0.1-0.1,0.1,0.1,0.1c-0.2,0.1-0.5-0.1-0.8-0.1c-0.2,0-0.4,0-0.6,0.1
	c-0.3,0-0.5,0.1-0.8,0.2c-0.3,0.1-0.4,0.2-0.6,0.2c-0.4,0.1-0.8,0.1-1.1,0.2c-0.3,0.1-0.2,0.1-0.5,0.1c-0.5,0-0.9,0.1-1.3,0.3
	c-0.4,0.1-1,0.3-1.4,0.3c-0.5,0-1.1,0-1.7,0.1c-0.4,0.1-0.6,0.3-1,0.3c0,0,0.2,0,0,0c-0.2,0-0.5,0.1-0.7,0.1
	c-0.9,0.1-1.4,1.3-1.2,2.1C292.1,24.1,293,24.5,293.9,24.3L293.9,24.3z"/>
<path class="st0" d="M298.5,15.6c-0.2,0.2-0.5,0.3-0.7,0.5c-0.3,0.3-0.4,0.6-0.5,1c-0.2,0.5-0.6,0.9-0.9,1.5
	c-0.2,0.4-0.2,0.7-0.3,1.1c0,0.3,0,0.3,0.1,0.1c-0.1,0.1-0.2,0.3-0.3,0.5c-0.4,0.5-0.6,1-0.9,1.6c-0.2,0.6-0.7,1-0.9,1.6
	c-0.2,0.7-0.3,1.3-0.5,2c-0.2,0.6-0.3,1.2-0.7,1.8c-0.4,0.7-0.5,1.3-0.6,2.2c0.1-0.3,0.2-0.6,0.2-0.8c-0.5,1-0.9,1.9-1.1,3
	c-0.1,0.4-0.2,0.8-0.3,1.2c-0.1,0.3-0.1,0.5-0.1,0.8c0,0.2,0.2,0.6,0.2,0.7c0.1-0.3,0.2-0.6,0.2-0.8c-0.1,0.3-0.4,0.5-0.5,0.7
	c-0.2,0.5-0.2,0.9-0.2,1.4c0,0.9,0,1.6-0.2,2.3c-0.6,2.1,2.7,3,3.2,0.9c0.3-1.2,0.3-2.4,0.3-3.7c-0.1,0.3-0.2,0.6-0.2,0.8
	c0.3-0.7,0.8-0.9,0.7-1.8c0-0.4,0-0.9-0.2-0.3c0.1-0.4,0.3-0.7,0.3-1.2c0.1-0.6,0.2-1.2,0.4-1.7c0.1-0.3,0.4-0.6,0.4-0.9
	c0.1-0.4,0.1-0.9,0.1-1.3c-0.1,0.3-0.2,0.6-0.2,0.8c0.6-1.1,1-2,1.4-3.2c0.1-0.5,0.1-1.1,0.3-1.6c0.2-0.4,0.5-0.8,0.7-1.3
	c0.1-0.3,0.2-0.7,0.3-0.9c-0.1,0.1,0.3-0.3,0.4-0.4c0.3-0.4,0.6-0.9,0.7-1.4c0,0.1,0.2-1.1,0-0.5c0.1-0.2,0.2-0.4,0.4-0.6
	c0.4-0.6,0.6-1.1,0.8-1.8c-0.1,0.2-0.3,0.5-0.4,0.7c0.2-0.2,0.5-0.3,0.7-0.5C302.4,16.5,300,14.1,298.5,15.6L298.5,15.6z"/>
<path class="st0" d="M319.7,21.8c0.2,0,0.3,0.1,0.5,0.2C320,21.9,319.9,21.8,319.7,21.8c0.5,0.2,0.9,0.4,1.3,0.6
	c0.5,0.3,1.1,0.5,1.6,0.7c-0.1-0.1-0.3-0.1-0.4-0.2c0.4,0.2,0.8,0.4,1.2,0.5c0.4,0.1,0.9,0.1,1.3-0.2c0.3-0.2,0.7-0.6,0.8-1
	c0.1-0.4,0.1-0.9-0.2-1.3c-0.2-0.4-0.6-0.7-1-0.8c-0.2-0.1-0.4-0.1-0.6-0.2c0.1,0.1,0.3,0.1,0.4,0.2c-0.3-0.1-0.7-0.3-1-0.4
	c0.1,0.1,0.3,0.1,0.4,0.2c-0.5-0.2-0.9-0.4-1.3-0.6c-0.5-0.3-1-0.5-1.6-0.7c-0.4-0.1-0.9-0.1-1.3,0.2c-0.3,0.2-0.7,0.6-0.8,1
	c-0.1,0.4-0.1,0.9,0.2,1.3C319,21.4,319.3,21.7,319.7,21.8L319.7,21.8z"/>
<path class="st0" d="M318,21.3c-0.3,0.6-0.7,0.8-0.8,1.5c-0.1,0.3-0.5,1.8-0.2,2.1c0,0.3,0.1,0.2,0.2-0.3c-0.1,0.1-0.2,0.2-0.3,0.3
	c-0.1,0.2-0.3,0.5-0.4,0.7c-0.4,0.7-0.2,1.2-0.3,1.9c-0.1,0.5-0.6,1-0.6,1.6c0,0.2,0,0.3,0,0.5c0,0.5,0.1,0.3,0.2-0.5
	c-0.1-0.1-0.5,0.6-0.6,0.7c-0.3,0.6-0.2,1.3-0.4,2c-0.3,0.8-0.4,1.6-0.7,2.3c-0.1,0.3-0.3,0.6-0.4,1c0,0.2-0.1,0.4-0.1,0.6
	c0.1-0.2,0.1-0.2,0-0.1c-0.3,0.6-0.6,1.2-0.8,1.9c-0.1,0.4-0.2,0.7-0.2,1c0,0.2,0,1.1,0.2,0.3c0.2-0.9-0.4,0.2-0.5,0.4
	c-0.1,0.3-0.2,0.6-0.3,1c-0.2,1.2-0.6,2.6-1.1,3.9c-0.1,0.4-0.2,0.7-0.3,1.1c-0.1,0.2-0.1,0.4-0.1,0.6c-0.1,0.4,0,0.3,0.3-0.2
	c0,0-0.8,0.7-0.8,0.7c-0.1,0.2-0.2,0.6-0.3,0.8c0.5-0.3,1-0.6,1.4-0.8c-0.1,0-1.3-0.2-1.2-0.1c-0.2-0.2-0.4-0.8-0.7-1
	c-0.1-0.1-0.2-0.2-0.3-0.2c-0.3-0.3-0.3-0.1,0.1,0.3c0,0-0.1-0.5-0.1-0.5c-0.2-0.5-0.4-1.1-0.8-1.4c-0.2-0.2-0.5-0.4-0.8-0.5
	c-0.4-0.2,0.1,0.3,0-0.1c0-0.2-0.7-1.1-0.9-1.2c-0.2-0.3-0.2-0.1,0,0.4c0-0.1,0-0.3,0.1-0.4c0-0.3,0-0.5,0-0.7
	c0-0.1-0.2-0.7-0.3-0.7c0,0.3,0,0.6,0,0.9c-0.4,0.2-0.4,0.2-0.1,0.1c0.4,0,1.1-0.1,1.5-0.3c0.2-0.1,1.3-0.9,1.1-1
	c0.1,0.1-1.7,0.5-0.5,0.6c0.2,0,0.5,0,0.7,0c0.1,0,0.7-0.2,0.7-0.3c-0.7-0.1-0.8-0.1-0.4,0c0.1,0.1,0.2,0.1,0.3,0.1
	c1.1,0.3,1.9-0.5,2.9-0.5c0.4,0,0.7,0.2,1.2,0.3c0.6,0.1,1.1-0.1,1.7-0.2c-0.4-0.1-0.9-0.1-1.3-0.2c0.6,0.3,0.9,0.7,1.6,0.7
	c0.5,0,0.9-0.3,1.3-0.4c-0.4-0.1-0.9-0.1-1.3-0.2c0.4,0.2,0.7,0.5,1.1,0.6c0.2,0.1,0.5,0.1,0.7,0.1c0.5,0,0.6-0.1,0.2-0.1
	c-0.5-0.3,0.5,0.4,0.6,0.4c0.5,0.1,0.6,0.2,1.1,0.5c0.7,0.6,1.9,0.1,2.3-0.6c0.5-0.9,0.1-1.7-0.6-2.3c-0.2-0.2-0.4-0.4-0.6-0.6
	c-0.4-0.2-0.8-0.1-1.3-0.3c0.4,0.1,0-0.1-0.2-0.2c-0.4-0.2-0.7-0.3-1.1-0.3c-0.8,0-0.5-0.1-0.1,0.2c-0.3-0.2-0.5-0.4-0.9-0.5
	c-0.7-0.2-1.1,0.2-1.8,0.4c0.4,0.1,0.9,0.1,1.3,0.2c-0.8-0.4-1.2-0.9-2.2-0.6c-1,0.3,0.7,0.3-0.3,0c-0.4-0.1-0.7-0.1-1.1-0.2
	c-0.8-0.1-1.6-0.1-2.3,0.3c-0.3,0.1-0.8,0.4-0.2,0.4c-0.3,0-0.7-0.3-1.1-0.3c-0.1,0-1.2,0.3-1,0.3c0.3,0-0.7-0.1-0.8-0.1
	c-0.4,0.1-0.8,0.3-1.1,0.6c-0.1,0.1-0.2,0.2-0.3,0.3c-0.2,0.3-0.2,0.3,0.1-0.2c-1.5-0.3-3.2,1.3-3.2,2.8c0,0.3,0.2,0.8,0.2,0.9
	c0,0.2-0.1,0.8,0,1.1c0.2,0.7,0.8,1.2,1.2,1.7c0.2,0.3,0.3,0.7,0.6,1c0.3,0.3,0.7,0.3,1,0.6c-0.5-0.6-0.2,0.1-0.2,0.3
	c0.1,0.4,0.3,0.8,0.6,1.1c1.1,1,1.8,2.4,3.5,2.4c1.3,0-0.4-0.2,0.4,0c0.3,0.1,0.8,0.1,1.1,0c1-0.3,1.1-1.1,1.5-1.9
	c-0.3,0.3-0.5,0.7-0.8,1c0.5-0.4,1.1-0.6,1.3-1.2c0.3-0.6,0.3-1.4,0.5-2c0.2-0.7,0.4-1.4,0.6-2.2c0.1-0.3,0.2-0.6,0.3-0.9
	c0.2-0.4,0.1-0.8,0.3-1.3c0.2-0.6,0.7-1,0.8-1.6c0-0.3,0-0.6,0-0.9c0-0.7-0.2,0.4,0.1-0.5c0.2-0.6,0.6-1.1,0.8-1.7
	c0.1-0.7,0.3-1,0.5-1.7c0.2-0.6,0.3-1.1,0.4-1.5c0.1-0.4,0.3-0.8,0.4-1.2c0-0.2,0.1-0.4,0.1-0.7c0-0.4,0-0.3-0.1,0.2
	c0.5-0.4,0.8-0.9,0.8-1.5c0-0.2,0-0.3,0-0.5c0-0.4-0.1-0.3-0.2,0.4c0.1,0.1,0.6-1,0.6-1c0.2-0.5,0.4-1.5,0.2-2
	c-0.2,0.5-0.2,0.6-0.1,0.3c0.1-0.1,0.1-0.2,0.2-0.4c0.1-0.2,0.3-0.4,0.4-0.6c0.4-0.6,0.3-1.1,0.3-1.8c0-0.8,0.2-0.8,0.6-1.5
	C322,21.1,319.1,19.4,318,21.3L318,21.3z"/>
<path class="st0" d="M333.2,35.8C333,35.9,333.1,35.9,333.2,35.8c0.3,0,0.5-0.1,0.6-0.2c0.2-0.1,0.3-0.2,0.5-0.3
	c0.3-0.3,0.8-0.3,1.3-0.6c-0.3,0.2,0.7-0.5,0.4-0.3c0.1-0.1,0.4-0.2,0.5-0.2c0.5-0.2,0.9-0.2,1.4-0.4c0.3-0.1,0.9-0.1,1.3-0.2
	c0.1,0,0.2-0.1,0.3-0.1c-0.3,0-0.4,0-0.1,0.1c0.3,0.1,0.7,0.1,1.1,0c0.1,0,0.7-0.2,0.3-0.1c0.2,0,0.4,0,0.6,0
	c-0.1,0,0.3,0.1,0.4,0.1c0.2,0.1,0.2,0.1,0.4,0.1c0,0,0.6,0.3,0.7,0.3c-0.1-0.1-0.3-0.1-0.4-0.3c0.1,0.3,0.1,0.2,0-0.1
	c-0.1,0,0.1,1,0.1,0.8c0,0.1,0,0.3,0.1,0.4c0-0.1,0-0.1,0,0c0,0.5-0.1,0.7-0.2,1.3c0,0.1,0,0.3,0,0.4c0,0.4,0,0.3,0.2-0.3
	c-0.1,0.1-0.2,0.3-0.3,0.4c-0.3,0.3-0.8,0.7-1,1.1c-0.2,0.2-0.1,0.2,0.2-0.1c-0.1,0.1-0.2,0.1-0.3,0.2c-0.2,0.1-0.4,0.3-0.6,0.4
	c-0.5,0.4-0.8,0.7-1.2,1.2c0.1-0.1,0.4-0.4-0.2,0.1c-0.2,0.2-0.4,0.4-0.6,0.7c-0.4,0.8-0.2,1.8,0.6,2.3c0.8,0.5,1.8,0.2,2.3-0.6
	c0,0.1-0.1,0.1-0.1,0.1c-0.2,0.1,0.4-0.3,0.3-0.2c0.2-0.2,0.3-0.4,0.5-0.6c0,0,0.2-0.2,0.1-0.1c-0.1,0.1,0.1-0.1,0.1-0.1
	c0,0-0.1,0.1,0,0c0.1-0.1,0.2-0.2,0.3-0.2c0.4-0.3,0.8-0.5,1.2-0.9c0.1-0.1,0.2-0.2,0.2-0.3c0,0,0.2-0.3,0-0.1
	c0.1-0.2,0.3-0.3,0.5-0.5c0.3-0.3,0.6-0.6,0.8-1c0.3-0.6,0.3-1.1,0.4-1.7c0,0.1,0.1-0.3,0.1-0.3c0-0.3,0.1-0.6,0.1-0.8
	c0.1-0.5-0.1-1-0.1-1.4c0-0.4-0.1-1-0.3-1.5c-0.2-0.5-0.6-1-1.1-1.3c-0.2-0.1-0.5-0.2-0.8-0.3c-0.2-0.1,0,0,0,0
	c-0.1,0-0.2-0.1-0.4-0.2c-0.4-0.2-0.9-0.3-1.3-0.4c-0.4-0.1-0.9-0.1-1.4-0.1c-0.3,0-0.5,0.1-0.8,0.2c-0.1,0-0.4,0.1,0,0
	c0.4,0-0.2-0.1-0.3-0.1c-0.5-0.1-1,0.1-1.5,0.2c-0.4,0.1-1,0.1-1.4,0.3c-1,0.4-2.3,0.5-3,1.3c-0.2,0.2,0.2-0.2,0.2-0.1
	c0,0-0.4,0.1-0.4,0.1c-0.3,0.1-0.6,0.2-0.8,0.4c-0.1,0.1-0.2,0.1-0.2,0.2c-0.1,0.1-0.3,0.1-0.1,0.1c-0.3,0.1-0.6,0.2-0.9,0.3
	c-0.8,0.4-1,1.6-0.6,2.3C331.4,36,332.4,36.2,333.2,35.8L333.2,35.8z"/>
<path class="st0" d="M359.7,29.4c0.4-0.1,0.8-0.1,1.2-0.3c0.3-0.1,0.5-0.4,0.7-0.5c-0.3,0.1-0.6,0.2-0.8,0.2c0.8,0,1.8,0.1,2.5-0.4
	c0.1-0.1,0.5-0.5,0.6-0.5c-0.1,0-0.7,0.2-0.2,0.2c0.5,0.1,1-0.2,1.4-0.4c0.7-0.3,1.4-0.5,2.1-0.9c0.7-0.4,1.3-0.8,2-1.3
	c0.2-0.1,0.3-0.2,0-0.1c0.2-0.1,0.4,0,0.7-0.1c0.5-0.1,0.8-0.4,1.2-0.7c0.4-0.3,1-0.5,1.6-0.7c0.7-0.2,1.5-0.4,2.2-0.7
	c0.2-0.1,0.5-0.1,0.7-0.2c0,0,0.4-0.2,0.1-0.1c0.4-0.1,0.9,0,1.3-0.1c0.9-0.1,1.7-0.7,1.7-1.7c0-0.8-0.8-1.8-1.7-1.7
	c-0.5,0.1-0.9,0.1-1.3,0.1c-0.6,0-1,0.3-1.6,0.5c-0.7,0.3-1.5,0.4-2.2,0.7c-0.9,0.3-1.7,0.5-2.5,1c-0.1,0.1-0.5,0.3-0.6,0.5
	c-0.1,0.2,0.7-0.1,0.2-0.1c-0.5,0-1,0.3-1.5,0.5c-0.7,0.4-1.3,0.9-2.1,1.3c-0.4,0.2-0.9,0.3-1.3,0.5c-0.2,0.1-0.4,0.2-0.6,0.3
	c-0.3,0.1-0.3,0.1,0,0c-0.5,0-1,0-1.4,0.3c-0.1,0.1-0.2,0.2-0.3,0.3c-0.2,0.2-0.2,0.2-0.1,0.1c0.3-0.1-0.4-0.1-0.1,0
	c-0.6-0.1-1.1-0.1-1.7,0.2c-0.2,0.1-0.4,0.4-0.6,0.5c0.4-0.1-0.3-0.1-0.4-0.1c-0.9,0.1-1.4,1.3-1.2,2.1
	C357.9,29.2,358.8,29.5,359.7,29.4L359.7,29.4z"/>
<path class="st0" d="M374.9,16.3c-0.6,0.6-0.9,0.9-1.3,1.7c-0.2,0.4-0.5,0.6-0.6,1c-0.1,0.2-0.3,1.3,0.2,0.4c-0.3,0.5-1,0.8-1.3,1.3
	c-0.4,0.5-0.6,1.1-0.8,1.7c-0.1,0.3-0.3,0.7-0.4,1c-0.2,0.8,0.4-0.1,0,0.2c-0.5,0.3-0.8,1-1.1,1.4c-0.2,0.3-0.5,0.6-0.6,0.9
	c0,0.2-0.1,0.3-0.1,0.5c-0.1,0.4,0,0.3,0.3-0.3c-0.2-0.1-1.2,1.4-1.4,1.5c-0.3,0.3-0.5,0.6-0.6,0.9c0,0.1,0,0.2-0.1,0.3
	c-0.1,0.6-0.1,0.6,0.3,0c0,0-0.6,0.6-0.7,0.6c-0.2,0.3-0.4,0.7-0.4,1.1c-0.1,0.4,0,0.3,0.3-0.2c-0.2,0.1-0.3,0.2-0.4,0.4
	c-0.2,0.2-0.4,0.5-0.6,0.8c-0.4,0.7-0.4,1.3-0.6,2c0.3-0.3,0.3-0.3-0.1,0c-0.1,0.1-0.1,0.1-0.2,0.2c-0.3,0.3-0.4,0.6-0.5,1
	c0-0.2-0.2,1.1-0.2,1c0.3-0.3,0.4-0.4,0.2-0.3c-0.2,0.1-0.3,0.2-0.4,0.3c-0.5,0.5-0.8,1.3-1.1,2c-0.3,0.7-0.1,1.1-0.1,1.8
	c0.2-0.4,0.3-0.8,0.5-1.2c-0.4,0.5-0.9,0.7-1.1,1.3c-0.1,0.3-0.1,0.6-0.1,0.8c-0.2,0.4-0.1,0.5,0.1,0.3c0.2-0.2,0.2-0.2,0,0
	c-0.6,0.5-1,1.1-1,1.9c0.1,1.1,0.6-0.7,0,0.2c-0.2,0.3-0.3,0.7-0.4,1c-0.1,0.4-0.2,0.7-0.2,1c0,0.2,0.2,1.1,0.3,1.1
	c-0.2,0,1.1-2.4-0.2-1.1c-0.2,0.2-0.5,0.6-0.6,0.9c0,0.1-0.1,1.3,0,0.7c-0.1,0.2-0.3,0.5-0.3,0.7c-0.1,0.4-0.2,0.8-0.1,1.1
	c0,0.4,0.1,0.3,0.2-0.2c-0.1,0.1-0.2,0.3-0.3,0.5c-0.9,1.9,2,3.7,2.9,1.7c0.2-0.4,0.5-0.7,0.6-1.1c0.1-0.2,0.1-0.5,0-0.7
	c-0.1-0.6,0-0.4-0.2,0c0.2-0.4,0.5-0.8,0.5-1.3c0-1-0.2,0.4-0.5,0.3c0.1,0.1,0.6-0.5,0.7-0.6c0.3-0.4,0.5-0.8,0.5-1.3
	c0-0.3-0.1-0.5-0.2-0.8c0-0.1-0.1-0.2-0.1-0.3c-0.1-0.2-0.1-0.2,0,0.1c0.5-0.1-0.4,0.5,0.2,0c0.2-0.1,0.3-0.4,0.4-0.6
	c0.2-0.5,0.1-1,0.1-1.5c-0.2,0.4-0.3,0.8-0.5,1.2c0.5-0.7,1-0.8,1.2-1.8c0-0.1,0.2-1.1,0.2-1.1c0,0-0.8,1.1,0.1,0.2
	c0.8-0.7,0.6-1.4,0.5-2.3c0.1,0.8,0,0.1,0.3-0.3c-0.1,0-0.1,0,0-0.1c0.2-0.1,0.3-0.2,0.4-0.3c0.5-0.5,1-1.5,0.9-2.2
	c0.1-0.4,0-0.3-0.3,0.3c0.2-0.1,0.4-0.3,0.5-0.5c0.3-0.3,0.4-0.7,0.6-1.1c0.3-0.8,0.2-1.1,0.8-1.7c0.3-0.3,0.5-0.7,0.6-1.1
	c0.1-1-0.7,0.5,0.1-0.2c0.3-0.3,0.5-0.5,0.6-0.9c0.2-0.5,0.3-0.9-0.2-0.3c0.5-0.6,1-1.1,1.5-1.6c0.3-0.3,0.4-0.6,0.5-1
	c0.2-1.1-0.5,0.3,0-0.3c0.3-0.3,0.4-0.7,0.7-1c0.2-0.3,0.6-0.5,0.8-0.9c0.3-0.6,0.5-1.3,0.7-2c0.2-0.7,0.6-0.9,1.1-1.5
	c0.2-0.2,0.5-0.5,0.6-0.7c0.2-0.4,0.1-0.7,0.3-1.1c0.1-0.3,0.3-0.6,0.4-0.8c0.2-0.5,0.2-0.5,0-0.1c0.2-0.1,0.4-0.3,0.5-0.5
	C378.9,17.2,376.5,14.8,374.9,16.3L374.9,16.3z"/>
<path class="st0" d="M381.9,37c0.2-0.1,0.4-0.2,0.6-0.3c-0.3,0.1,0.3-0.1,0.4-0.1c0.2-0.1,0.4-0.1,0.6-0.2c0.1,0,0.2,0,0.3-0.1
	c-0.2,0-0.2,0,0,0c0.5-0.1,1-0.2,1.6-0.3c0.2-0.1,0.4-0.2,0.6-0.2c-0.3,0.1,0.2,0,0.3,0c0.3,0,0.6,0,0.9-0.1c0.1,0,0.2-0.1,0.3-0.1
	c0.2,0,0.2,0,0,0c-0.4,0,0.6,0.1,0.7,0.1c0.1,0,1.1-0.1,0.7-0.1c0.2,0,0.4,0,0.7,0c0.1,0,0.2,0,0.3,0c-0.2,0-0.2,0,0,0
	c0.6,0.1,1,0,1.6,0.1c0.9,0,1.7-0.8,1.7-1.7c0-0.9-0.7-1.6-1.7-1.7c-0.2,0-0.4,0-0.7,0c-0.1,0-0.2,0,0,0c-0.2,0-0.4-0.1-0.5-0.1
	c-0.5-0.1-1,0-1.4,0c-0.1,0-0.2,0-0.3,0c-0.2,0-0.3,0-0.2,0c0.2,0-0.2,0-0.3,0c0.3,0-0.3,0-0.3,0c-0.1,0-0.2,0-0.3,0
	c-0.3,0-0.6,0.1-0.9,0.2c-0.1,0-0.2,0,0,0c-0.1,0-0.3,0-0.4,0c-0.6,0-1,0.2-1.6,0.3c-0.2,0.1-0.4,0.1-0.6,0.2c-0.2,0.1,0.2,0-0.1,0
	c-0.2,0-0.4,0-0.6,0.1c-1,0.2-1.9,0.6-2.9,1c-0.8,0.4-1.1,1.6-0.6,2.3C380.1,37.3,381,37.4,381.9,37L381.9,37z"/>
<path class="st0" d="M383.2,45c0.6,0.1,1.2,0.3,1.8,0.3c0.3,0,0.5,0.1,0.9,0.1c0,0,1.4,0.2,0.8,0c0.4,0.1,0.8,0.3,1.2,0.4
	c0.3,0,0.7,0.1,1,0.1c0.3,0,0.5,0,0.9,0.1c0.5,0.1,0.8,0,1.3-0.1c-0.6,0,0.1,0.1,0.3,0.2c0.4,0.1,0.8,0,1.2,0c0.7,0,1.4,0,2.1,0
	c0.2,0,1.6-0.1,0.6-0.2c0.2,0.1,0.4,0.2,0.6,0.3c0.2,0,0.4,0.1,0.6,0.1c0.4,0,0.8,0,1.2,0c0.3-0.1,0.6-0.2,0.8-0.3
	c2.1-0.5,1.2-3.7-0.9-3.2c-0.2,0-0.4,0.1-0.6,0.2c-0.3,0.1-0.3,0.1,0,0c-0.3,0-0.3,0-0.1,0.1c-0.2-0.1-0.4-0.2-0.6-0.3
	c-0.7-0.2-1.5,0-2.2,0c-0.6,0-1.2,0-1.8,0c-0.6,0-1.3-0.3-2-0.1c-0.3,0-0.3,0.1,0,0.1c-0.2-0.1-0.3-0.1-0.5-0.1
	c-0.4-0.1-0.8,0-1.2-0.1c-0.2,0-0.8-0.2-0.3,0c-0.4-0.2-0.7-0.4-1.2-0.4c-0.3,0-0.6,0-0.9-0.1c-0.4-0.1-0.8,0-1.2-0.1
	c-0.2,0-0.4-0.2-0.6-0.2c-0.4-0.1-0.8-0.1-1.2-0.1c-0.9-0.1-1.7,0.8-1.7,1.7C381.5,44.3,382.3,44.9,383.2,45L383.2,45z"/>
</svg>
