<?xml version="1.0" encoding="utf-8"?>
<!-- Generator: Adobe Illustrator 21.1.0, SVG Export Plug-In . SVG Version: 6.00 Build 0)  -->
<svg version="1.1" id="レイヤー_1" xmlns="http://www.w3.org/2000/svg" xmlns:xlink="http://www.w3.org/1999/xlink" x="0px"
	 y="0px" viewBox="0 0 309.7 37" style="enable-background:new 0 0 309.7 37;" xml:space="preserve">
<style type="text/css">
	.st0{fill:#B07DB3;}
	.st1{fill:#FF9366;}
	.st2{fill:#F0C046;}
	.st3{fill:#4FAC63;}
	.st4{fill:#8D93C8;}
	.st5{fill:#69BF9C;}
</style>
<g>
	<path class="st0" d="M17.9,23.2v-6h15.6v14.3c-1.5,1.5-3.7,2.8-6.6,3.9C24,36.5,21.1,37,18.2,37c-3.7,0-7-0.8-9.8-2.4
		c-2.8-1.6-4.9-3.8-6.3-6.7C0.7,25,0,21.8,0,18.4c0-3.7,0.8-7,2.3-9.9c1.6-2.9,3.8-5.1,6.9-6.7C11.5,0.6,14.4,0,17.8,0
		c4.4,0,7.9,0.9,10.4,2.8c2.5,1.9,4.1,4.4,4.8,7.7l-7.2,1.3c-0.5-1.8-1.5-3.1-2.8-4.2c-1.4-1-3.1-1.5-5.2-1.5c-3.2,0-5.7,1-7.5,3
		c-1.9,2-2.8,5-2.8,8.9c0,4.2,0.9,7.4,2.8,9.6c1.9,2.1,4.4,3.2,7.4,3.2c1.5,0,3-0.3,4.6-0.9c1.5-0.6,2.8-1.3,3.9-2.2v-4.5H17.9z"/>
	<path class="st1" d="M84.9,36.4h-7.9l-3.1-8.1H59.6l-3,8.1H49L62.9,0.6h7.6L84.9,36.4z M71.6,22.2L66.7,9l-4.8,13.3H71.6z"/>
	<path class="st2" d="M101.4,36.4V0.9h7.2v29.5h18v6H101.4z"/>
	<path class="st3" d="M144.5,36.4V0.9h7.2v29.5h18v6H144.5z"/>
	<path class="st4" d="M187.3,36.4V0.6h26.5v6.1h-19.3v7.9h18v6h-18v9.7h20v6H187.3z"/>
	<path class="st5" d="M233.2,36.4V0.6h15.2c3.8,0,6.6,0.3,8.3,1c1.7,0.6,3.1,1.8,4.2,3.4c1,1.6,1.6,3.5,1.6,5.6
		c0,2.7-0.8,4.9-2.4,6.7c-1.6,1.7-3.9,2.9-7.1,3.3c1.6,0.9,2.9,1.9,3.9,3c1,1.1,2.4,3,4.1,5.8l4.4,7h-8.6l-5.2-7.8
		c-1.9-2.8-3.1-4.5-3.8-5.3c-0.7-0.7-1.4-1.2-2.2-1.5c-0.8-0.3-2-0.4-3.6-0.4h-1.5v14.9H233.2z M240.4,15.7h5.3
		c3.5,0,5.6-0.1,6.5-0.4s1.5-0.8,2-1.5c0.5-0.7,0.7-1.6,0.7-2.7c0-1.2-0.3-2.2-1-2.9c-0.6-0.7-1.5-1.2-2.7-1.4
		c-0.6-0.1-2.3-0.1-5.3-0.1h-5.6V15.7z"/>
	<path class="st0" d="M289.3,36.4V21.3L276.2,0.6h8.5l8.4,14.2l8.3-14.2h8.3l-13.2,20.8v15H289.3z"/>
</g>
</svg>
