<?xml version="1.0" encoding="utf-8"?>
<!-- Generator: Adobe Illustrator 21.1.0, SVG Export Plug-In . SVG Version: 6.00 Build 0)  -->
<svg version="1.1" id="レイヤー_1" xmlns="http://www.w3.org/2000/svg" xmlns:xlink="http://www.w3.org/1999/xlink" x="0px"
	 y="0px" viewBox="0 0 181.3 37" style="enable-background:new 0 0 181.3 37;" xml:space="preserve">
<style type="text/css">
	.st0{fill:#B07DB3;}
	.st1{fill:#FF9366;}
	.st2{fill:#F0C046;}
	.st3{fill:#4FAC63;}
</style>
<g>
	<path class="st0" d="M0,36.4V0.6h7l14.6,23.9V0.6h6.7v35.8h-7.2L6.7,13.1v23.3H0z"/>
	<path class="st1" d="M48.5,36.4V0.6h26.5v6.1H55.8v7.9h18v6h-18v9.7h20v6H48.5z"/>
	<path class="st2" d="M99.5,36.4L90.9,0.6h7.4l5.4,24.6l6.5-24.6h8.6l6.3,25l5.5-25h7.3l-8.7,35.8h-7.7l-7.1-26.8l-7.1,26.8H99.5z"
		/>
	<path class="st3" d="M152.2,24.8l7-0.7c0.4,2.4,1.3,4.1,2.6,5.2c1.3,1.1,3,1.7,5.2,1.7c2.3,0,4.1-0.5,5.3-1.5
		c1.2-1,1.8-2.1,1.8-3.5c0-0.8-0.2-1.6-0.7-2.2c-0.5-0.6-1.4-1.1-2.6-1.6c-0.8-0.3-2.8-0.8-5.8-1.6c-3.9-1-6.6-2.1-8.2-3.5
		c-2.2-2-3.3-4.4-3.3-7.2c0-1.8,0.5-3.5,1.6-5.1c1-1.6,2.5-2.8,4.5-3.6c1.9-0.8,4.3-1.2,7-1.2c4.5,0,7.9,1,10.1,3
		c2.3,2,3.5,4.6,3.6,7.9l-7.2,0.3c-0.3-1.8-1-3.2-2-4c-1-0.8-2.5-1.2-4.6-1.2c-2.1,0-3.7,0.4-4.9,1.3c-0.8,0.6-1.1,1.3-1.1,2.2
		c0,0.8,0.4,1.6,1.1,2.2c0.9,0.8,3.1,1.6,6.6,2.4s6.1,1.7,7.8,2.6c1.7,0.9,3,2.1,4,3.6c1,1.5,1.4,3.4,1.4,5.7c0,2.1-0.6,4-1.7,5.8
		c-1.1,1.8-2.8,3.1-4.8,4c-2.1,0.9-4.7,1.3-7.8,1.3c-4.5,0-8-1-10.4-3.1C154.2,31.8,152.7,28.8,152.2,24.8z"/>
</g>
</svg>
