<?xml version="1.0" encoding="utf-8"?>
<!-- Generator: Adobe Illustrator 21.1.0, SVG Export Plug-In . SVG Version: 6.00 Build 0)  -->
<svg version="1.1" id="レイヤー_1" xmlns="http://www.w3.org/2000/svg" xmlns:xlink="http://www.w3.org/1999/xlink" x="0px"
	 y="0px" viewBox="0 0 537 116.6" style="enable-background:new 0 0 537 116.6;" xml:space="preserve">
<style type="text/css">
	.st0{fill:#5F5F5F;}
</style>
<g>
	<path class="st0" d="M11.1,24.6c-0.7,0-0.7,0.3-0.8,0.7c-0.1,0.9-1.4,1.3-2.2,1.3c-0.7,0-1.2-0.1-1.2-1.3c0-0.5,0.2-5.1,0.2-6.1
		c0-1.3-0.1-7.2-0.1-8.4c0-0.2,0-0.3,0.2-0.3c0.2,0,1.2,0.3,2,0.7c1.4,0.6,2,0.9,3.2,0.9h4.3c0.5,0,1.3,0,1.3-1.3
		c0-2.3,0-2.8-1.4-2.8H7.8C4,7.9,2.7,8,2.4,8c-0.2,0-0.8,0.1-1,0.1C1.3,8.1,1.2,8,1,7.8l-0.9-1C0,6.7,0,6.6,0,6.6
		c0-0.1,0-0.1,0.2-0.1c0.3,0,1.6,0.1,1.9,0.2c2.1,0.1,3.9,0.1,6,0.1h8.5c1.3,0,1.4-0.5,1.4-1.6c0-0.6-0.3-3.4-0.3-3.9
		c0-0.5,0.1-0.6,0.4-0.6c0.1,0,2.3,0.6,3,0.8c1.3,0.3,1.3,0.6,1.3,0.8c0,0.3-1,1-1.1,1.2c-0.1,0.3-0.2,0.6-0.2,1.9
		c0,1,0.1,1.4,1.4,1.4h7.8c1.8,0,2,0,2.5-0.8c1-1.8,1.4-1.8,1.7-1.8c0.9,0,4.4,2.7,4.4,3.1c0,0.6-0.9,0.6-2.4,0.6h-14
		c-1.6,0-1.6,0.3-1.6,2.9c0,0.6,0.1,1.2,1.3,1.2h5.3c0.8,0,1,0,1.5-0.6c0.6-0.7,0.8-0.8,1.1-0.8c0.5,0,3.1,1.7,3.1,2.3
		c0,0.3-0.9,1.2-0.9,1.4c-0.1,0.4-0.2,1.9-0.2,2.3c0,1.2,0.1,6.5,0.1,7.6c0,1.9-2.4,1.9-2.5,1.9c-0.9,0-1-0.4-1-1
		c0-0.5-0.2-0.5-1.3-0.5h-4.5c-0.2,0-0.5,0-0.5,0.3c0,0.3,4.7,6.4,15.8,9.9c1.1,0.3,1.2,0.4,1.2,0.5c0,0.2-0.1,0.3-0.3,0.3
		c-1.6,0-3.2,0-4,1.5c-0.2,0.4-0.3,0.6-0.6,0.6c-0.4,0-5.8-3-9.5-7.3c-1.8-2-2.6-3.2-3.4-4.5c-0.1-0.2-0.2-0.3-0.3-0.3
		c-0.2,0-0.2,0.3-0.2,0.4c0,0.6,0,2.9,0,3.4c0,1.3,0.3,7.9,0.3,8.4c0,0.7-0.1,1.2-0.8,1.8c-0.3,0.2-1,0.7-1.6,0.7
		c-1,0-1.2-0.9-1.2-1.4c0-0.3,0.3-7,0.3-8.2c0-2.3,0-2.5-0.3-2.5c-0.1,0-2.3,1.9-2.6,2.2c-4.6,4.1-13.5,8.1-14.5,8.1
		c-0.1,0-0.2,0-0.2-0.2c0-0.2,2-1.4,2.6-1.7c5.1-3,10.4-7.7,11.7-9.5c0.4-0.6,1.2-1.7,1.2-1.9c0-0.4-0.3-0.4-0.7-0.4H11.1z
		 M16.5,17.5c1.4,0,1.4-0.5,1.4-2.7c0-1.1-0.1-1.6-1.4-1.6h-4.8c-1.3,0-1.4,0.5-1.4,1.6c0,2.2,0,2.7,1.4,2.7H16.5z M11.8,18.6
		c-0.6,0-1.4,0-1.4,1.2c0,3.5,0,3.6,1.4,3.6h4.7c1.4,0,1.5-0.3,1.5-2.9c0-1.4,0-2-1.4-2H11.8z M22.3,13.2c-1.3,0-1.4,0.3-1.4,2.5
		c0,1.3,0.1,1.7,1.4,1.7h5c1.4,0,1.4-0.3,1.4-2.5c0-1.2,0-1.7-1.4-1.7H22.3z M27.3,23.5c1.4,0,1.4-0.7,1.4-2c0-2.2,0-2.9-1.5-2.9
		h-4.9c-1.4,0-1.4,0.7-1.4,1.9c0,2.6,0,2.9,1.4,2.9H27.3z"/>
	<path class="st0" d="M59.7,12.3c1.4,0,1.4-0.7,1.4-1.7c0-1.4-0.2-8-0.2-9.5c0-0.3,0-0.4,0.4-0.4c0.1,0,4.4,0.8,4.4,1.7
		c0,0.2-0.1,0.3-0.3,0.4c-0.5,0.3-0.7,0.4-0.9,0.9c-0.4,0.9-0.4,18.1-0.4,21.1c0,1.8,0.2,11,0.2,13.1c0,1.9-2.2,2.3-2.6,2.3
		c-0.3,0-1.1-0.2-1.1-1.2c0-1.5,0.3-9.1,0.3-10.8c0-0.7,0-1.3-0.5-1.3c-0.2,0-0.5,0.1-0.7,0.3c-0.6,0.4-1.1,0.8-4.8,3.7
		c-0.4,0.3-2.4,1.7-3,2.1c-0.2,0.2-1,1.4-1.3,1.4c-0.6,0-3-3.6-3-4.1c0-0.3,0.1-0.3,1.5-0.6c5.4-1.3,10.5-3.8,11.1-4.3
		c0.7-0.6,0.7-0.7,0.7-10.4c0-0.7,0-1.5-1.3-1.5h-3.5c-1,0-4,0-5.5,0.1c-0.1,0-0.8,0.1-0.9,0.1c-0.1,0-0.3-0.1-0.4-0.3l-0.8-1
		c-0.2-0.2-0.2-0.2-0.2-0.3s0.1-0.1,0.1-0.1c0.3,0,1.6,0.1,1.9,0.1c1.3,0,3.5,0.2,6,0.2H59.7z M81.1,10.3c0.2-0.2,0.8-1.2,1-1.2
		c0.1,0,4.4,3.4,4.4,4c0,0.3-0.2,0.3-1.7,0.5c-2.1,0.3-9.9,1.2-10.9,1.8c-0.6,0.3-0.6,1.3-0.6,9.7c0,1.2,0,7.8,0,8.4
		c0.1,1.9,1,2.1,6,2.1c3.2,0,3.4-0.6,4.3-3.8c0.7-2.8,0.9-3.1,1.1-3.1s0.3,0.2,0.4,1.6c0.2,2.1,0.6,3,1.1,3.7
		c1.1,1.2,1.2,1.4,1.2,1.9c0,3-7.4,3-9.8,3c-7.6,0-7.6-1.7-7.6-7.4c0-3.3,0.2-17.6,0.2-20.5c0-1.5,0-6.6-0.1-8.8
		c0-0.2-0.1-0.8-0.1-0.9c0-0.3,0.1-0.6,0.3-0.6c0.2,0,2.7,0.7,3,0.8c1,0.3,1.3,0.5,1.3,0.9c0,0.3-0.2,0.4-0.7,0.8
		c-0.6,0.4-0.6,1.8-0.6,3.5c0,1,0,5.6,0,6.5c0,0.7,0.1,1.3,1,1C74.6,14.2,79.1,12.3,81.1,10.3z"/>
	<path class="st0" d="M104.9,27.1c0.7,0,1.1-0.7,2.1-3.4c0.3-0.7,0.4-1.1,0.6-1.1s0.2,0.4,0.2,0.5c0,0.5-1,5.6-1,6.6
		c0,0.7,0.6,2,0.7,2.3c0.3,0.6,0.5,1.3,0.5,1.9c0,0.9-0.7,1.5-1.4,1.5c-2.7,0-4.7-7.4-4.7-11.6c0-2.8,0.3-4,1.8-9.5
		c0.7-2.7,0.7-3.7,0.7-4.5c0-1.4-0.3-2.6-0.4-3.1c0-0.1-0.3-0.7-0.3-0.8s0.2-0.2,0.3-0.2c2,0,3.8,4,3.8,5.5c0,0.5,0,0.5-0.8,2
		c-0.5,0.9-3.4,7.3-3.4,11.2C103.7,25.8,104.2,27.1,104.9,27.1z M130.2,31.5c0,1.7-1.3,2.2-7.4,2.2c-4.3,0-5.9-1.1-6.8-2
		c-0.2-0.2-1.4-1.4-1.4-2.2c0-0.1,0-0.4,0.2-0.4c0.2,0,0.9,0.5,1,0.6c1.3,0.7,3,0.7,4.7,0.7c1.1,0,2.7,0,3.8-0.1
		c0.6,0,3.7-0.3,3.8-0.3C129.8,30,130.2,31,130.2,31.5z M128.1,10.3c0,2.1-4.8,2.1-5.4,2.1c-4.9,0-7.6-2.7-7.6-3.2
		c0-0.1,0-0.2,0.3-0.2c0.1,0,0.7,0.2,1.2,0.3c1,0.2,2.2,0.3,3,0.3c2.1,0,4.2-0.4,4.8-0.7c1.3-0.5,1.4-0.5,1.9-0.5
		C127.1,8.5,128.1,9.3,128.1,10.3z"/>
	<path class="st0" d="M152.2,23.8c-3.8,0-5.1,0.1-5.5,0.1c-0.1,0-0.8,0.1-0.9,0.1s-0.2-0.1-0.4-0.3l-0.8-1c-0.2-0.2-0.2-0.2-0.2-0.3
		c0-0.1,0-0.1,0.1-0.1c0.3,0,1.7,0.1,1.9,0.2c2.1,0.1,3.9,0.1,6,0.1h4.6c0.7,0,1.2,0,1.7-0.7c0.1-0.2,1-1.3,1-1.8
		c0-0.4-0.5-0.4-0.7-0.4h-3.1c-0.6,0-0.8,0-1.1,0.5c-0.4,0.6-1,0.8-1.7,0.8c-1.2,0-1.3-0.7-1.3-1.8c0-0.7,0.1-4.2,0.1-4.9
		c0,0,0-3,0-3.3c0-0.3-0.2-1.9-0.2-2.2c0-0.2,0.1-0.2,0.3-0.2c0.3,0,2,0.6,2.3,0.7c0.8,0.2,1.2,0.2,1.9,0.2h14.2c0.5,0,1,0,1.5-0.4
		c0.2-0.1,0.7-0.7,0.9-0.7c0.3,0,2.3,1.3,2.7,1.6c0.2,0.2,0.4,0.3,0.4,0.6c0,0.4-0.2,0.5-0.9,1c-0.5,0.3-0.5,0.6-0.5,2.2
		c0,1.6,0.1,3.6,0.2,4.7c0,0.2,0.1,0.7,0.1,0.9c0,1.4-2.1,1.5-2.1,1.5c-0.7,0-0.7-0.3-0.9-0.7c-0.1-0.6-0.5-0.7-1.1-0.7h-6.9
		c-0.2,0-0.4,0-0.4,0.1c0,0.2,0.7,0.7,0.7,0.9c0,0.2,0,0.3-0.7,0.6c-0.4,0.2-1,0.9-1,1.2c0,0.3,0.3,0.3,0.6,0.3h11.5
		c2,0,2.2,0,2.8-0.7c1.2-1.4,1.4-1.6,1.8-1.6c0.3,0,4,2.3,4,2.9c0,0.6-0.9,0.6-2.4,0.6h-11.8c-0.3,0-0.7,0-0.7,0.3
		c0,0.7,4.1,4.1,13.3,5.7c0.3,0,2.2,0.3,2.2,0.4s-0.9,0.5-1,0.6c-1.4,0.8-1.5,1-2.7,2.3c-0.1,0.1-0.5,0.7-0.5,0.7
		c-1.1,0-6.4-3.7-6.8-3.7c-0.9,0-0.9,0.9-0.9,1.4c0,0.6,0.2,7.4,0.2,7.6c0,1-1.3,1.4-2.1,1.4c-1,0-1-0.6-1.1-1.2
		c-0.1-0.9-0.8-0.9-1.1-0.9h-9.1c-0.3,0-1,0-1.2,0.7c-0.1,0.6-0.3,1.4-2.2,1.4c-0.6,0-1.1,0-1.1-1c0-0.3,0.1-1.3,0.1-1.5
		c0.1-1.4,0.1-3.2,0.1-4.6v-3.1c0-0.2-0.1-0.3-0.3-0.3c0,0-2.7,1.5-3.1,1.7c-1.5,0.8-6.5,3.2-7.6,3.2c-0.1,0-0.2,0-0.2-0.1
		c0,0,0.7-0.4,1.2-0.7c5.6-3.2,12.3-8.4,12.3-9.8c0-0.4-0.6-0.4-0.9-0.4H152.2z M165.7,4.7c1.2,0,1.5-0.4,1.5-1.4
		c0-0.6-0.1-1.4-0.1-1.8c0-0.2-0.3-1-0.3-1.2c0-0.2,0.3-0.3,0.4-0.3c0.1,0,3.6,1,3.9,1.1c0.2,0.1,0.3,0.2,0.3,0.4s-0.4,0.6-0.7,0.9
		c-0.4,0.4-0.6,0.6-0.6,1.2c0,1,0.7,1,1.4,1h2.8c1.9,0,2.2,0,2.8-0.7c1.3-1.4,1.3-1.6,1.7-1.6c0.3,0,4,2.3,4,2.9
		c0,0.6-0.9,0.6-2.3,0.6h-9.2c-0.8,0-1.3,0.1-1.3,1c0,0.1,0,1.2-0.1,1.4c-0.3,0.5-0.8,0.7-1.7,0.7c-1.1,0-1.2-0.4-1.2-0.9
		c0-1.9,0-2.2-1.4-2.2h-4.5c-0.7,0-1.5,0-1.5,1v1.4c-0.3,0.7-1.6,0.9-2,0.9c-0.9,0-0.8-0.1-1-2.1c0-1.1-0.6-1.2-1.4-1.2h-4.9
		c-1,0-3.7,0-4.8,0.1c-0.1,0-0.5,0.1-0.6,0.1c-0.2,0-0.3-0.1-0.4-0.3l-0.8-1c-0.2-0.2-0.2-0.2-0.2-0.3c0-0.1,0.1-0.1,0.2-0.1
		c0.3,0,1.6,0.2,1.9,0.2c2.1,0.1,3.9,0.1,6,0.1h3.7c0.8,0,1.3-0.1,1.3-1c0-0.1,0-1.3-0.1-2.4c0-0.1-0.3-0.8-0.3-0.9
		c0-0.3,0.3-0.3,0.4-0.3c0.4,0,4,0.5,4,1.2c0,0.3-0.1,0.3-0.7,0.9c-0.3,0.2-0.3,0.7-0.3,1c0,1.2,0.1,1.5,1.6,1.5H165.7z M156,10.8
		c-1.1,0-1.2,0.3-1.2,1.6c0,1.3,0.1,1.6,1.2,1.6h14.5c1,0,1.2-0.3,1.2-1.6s-0.1-1.6-1.2-1.6H156z M170.6,18.5c1.2,0,1.2-0.5,1.2-1.7
		c0-1.2,0-1.7-1.2-1.7H156c-1.2,0-1.2,0.6-1.2,1.4c0,1.7,0.2,2,1.2,2H170.6z M158.4,29c-1.2,0-1.2,0.3-1.2,1.9c0,1.5,0,1.9,1.2,1.9
		h9.4c1.2,0,1.2-0.3,1.2-1.9c0-1.6,0-1.9-1.2-1.9H158.4z M167.7,37.2c1.2,0,1.2-0.3,1.2-1.9c0-1,0-1.5-1.2-1.5h-9.3
		c-1.2,0-1.2,0.4-1.2,1.7s0,1.7,1.2,1.7H167.7z M168.5,27.8c0.7,0,0.9,0,0.9-0.3c0-0.2-0.8-1-1-1.3c-0.3-0.3-1.7-2-1.9-2.1
		c-0.3-0.2-0.5-0.2-1-0.2h-3.7c-0.6,0-1,0-1.7,0.7c-0.3,0.3-2.8,2.7-2.8,2.9c0,0.3,0.5,0.3,0.7,0.3H168.5z"/>
	<path class="st0" d="M214.5,7.5c0,0.9-0.7,2.1-2.2,2.1c-0.4,0-0.6,0-2.6-0.7c-0.7-0.3-1.4-0.4-2-0.4c-1.8,0-3.1,1.2-3.1,2.9
		c0,0.4,0.3,2.3,0.3,2.7c0,0.4-0.4,3-0.5,3.6c-0.2,1.6-0.6,5.3-0.6,6.4c0,0.7,0,2,1.1,2c0.8,0,2.1-0.8,2.5-1
		c2.7-1.7,4.3-2.8,7.1-2.8c4.7,0,8,3.3,8,6.8c0,5.3-6.9,8.8-13.2,8.8c-0.6,0-1.2,0-1.2-0.3c0-0.2,1-0.4,1.3-0.5
		c5.4-1.2,9.5-4.7,9.5-8.8c0-4.6-4-4.8-4.8-4.8c-1.5,0-3.7,0.5-5.7,3.3c-2,2.8-2.5,3.6-4,3.6c-1.8,0-3.3-2.1-3.3-5.4
		c0-1.8,1-9.8,1.2-11.5c0.1-1.5,0.3-3.7,4-5.2c2.4-1,3.5-1.4,3.5-2.7c0-0.8-0.3-1.3-0.7-2c-0.1-0.2-0.2-0.4-0.1-0.6
		C209.2,2.5,214.5,5.1,214.5,7.5z"/>
	<path class="st0" d="M245,12.6c3,0,8.7-0.9,11.8-1.5c2.3-0.4,2.5-0.4,2.5-1.6c0-2.1-0.3-4.8-0.6-5.9c0-0.2-0.7-1-0.7-1.2
		c0-0.3,0.7-0.3,0.9-0.3c1.9,0,3.6,0.8,3.6,2.2c0,0.2-0.2,1.1-0.2,1.3c0,1,1.3,1.7,3.8,2.7c1.1,0.4,2.2,0.9,3.8,0.9
		c0.4,0,2.3-0.2,2.6-0.2c0.6,0,2.5,0.2,2.5,1.7c0,1.1-0.8,1.5-2.4,1.5c-0.9,0-5-0.4-5.8-0.4c-1,0-3.9,0.1-4.7,0.4
		c-0.6,0.3-0.7,0.9-0.7,4.7c0,1.2,0,1.5,0.6,2.8c0.7,1.8,1.3,3.3,1.3,5.9c0,8.4-6.6,13.8-7.9,13.8c-0.1,0-0.2,0-0.2-0.2
		c0-0.1,1.8-2.2,2.1-2.6c1.1-1.7,2.4-4.5,2.4-6.4c0-0.1,0-0.6-0.4-0.6c-0.1,0-0.8,0.1-0.9,0.1c-2.4,0-4.4-2.2-4.4-5.7
		c0-0.6,0-5.4,4.2-6c1.2-0.2,1.2-0.4,1.2-2.7c0-2.4,0-2.6-0.9-2.6c-0.4,0-4.9,0.8-7.7,1.7c-0.7,0.2-3.9,1.7-4.7,1.7
		c-1,0-4.6-1.8-4.6-3.6c0-0.2,0.1-0.4,0.2-0.4C242.3,12.4,244.4,12.6,245,12.6z M257.9,19.9c-1.1,0-2.5,1.8-2.5,4
		c0,2.4,1.7,3.5,2.8,3.5c1.7,0,1.7-2.6,1.7-3.3c0-1.6-0.4-2.7-0.6-3C259.3,20.7,258.8,19.9,257.9,19.9z M261.9,9.5
		c0,0.7,0.2,0.8,0.8,0.8c0.2,0,3-0.1,3-0.7c0-0.3-2.9-2.4-3.3-2.3C262.1,7.3,261.9,8.3,261.9,9.5z"/>
	<path class="st0" d="M303.4,7.9c0,0.4-0.7,2.1-0.8,2.4c-0.6,2.2-1.8,11.8-1.8,15.5c0,4.4,0.8,8.3,6.7,8.3c2.1,0,5.3-0.4,9.1-2.3
		c0.7-0.3,4-2.1,4.1-2.1s0.2,0.1,0.2,0.2c0,0.5-6.4,7.5-14.6,7.5c-5.7,0-8.4-3.3-8.4-12c0-2.7,0.1-3.6,1-12.1c0.2-1.4,0.6-5,0.6-6.2
		c0-0.8-0.1-1.5-0.4-2.1c0-0.1-0.5-1.1-0.5-1.2c0-0.3,0.3-0.4,0.6-0.4C301.5,3.4,303.4,6.9,303.4,7.9z"/>
	<path class="st0" d="M348.3,31.4c-2.2,1.7-4.4,3.2-6.5,3.2c-2,0-2.1-2.2-2.1-3c0-4.7,4.2-9.7,9.5-13.4c1.3-1,1.8-1.4,1.8-4.4
		c0-0.7-0.1-0.9-1-0.9c-0.1,0-1.7,0.1-2,0.1c-3.9,0-5.6-2.8-5.6-3.2c0-0.3,0.2-0.4,0.5-0.4c0.3,0,1.6,0.4,1.8,0.4
		c1.1,0.1,2.1,0.2,3,0.2c0.8,0,3.3,0,3.6-0.7c0.3-0.6,0.4-3,0.4-3.2c0-0.4-0.4-2.7-0.4-2.7c0-0.2,0.2-0.3,0.4-0.3
		c0.1,0,3.8,0.8,3.8,1.7c0,0-0.7,1.4-0.7,1.5c-0.4,0.9-0.6,1.7-0.6,2.1c0,0.3,0,0.4,0.6,0.4c0.9,0,4.9-1.4,5.7-1.4
		c1,0,1.8,0.7,1.8,1.4c0,1.4-1.6,1.8-5.3,2.7c-2.6,0.6-3.2,0.8-3.5,1.1c-0.2,0.3-0.5,1.5-0.5,2.1c0,1,0.2,1.1,0.7,1.1
		c0.3,0,1-0.1,1.3-0.2c2.1-0.5,4-0.8,5.4-0.8c6.4,0,9.9,4.4,9.9,10c0,9.5-8.7,11.9-12.7,13c-0.3,0.1-2,0.5-3,0.5
		c-0.3,0-0.4-0.1-0.4-0.3c0-0.2,0.3-0.3,0.9-0.5c8.8-3,12-7.5,12-12.4c0-5.5-3.7-8.4-7.2-8.4c-2.1,0-2.2,0.3-3,2.8
		c-0.7,2.4-1.4,3.4-3,5.9c-0.4,0.7-0.5,0.9-0.5,1.6c0,0.3,0.1,1.9,0.1,2.2c0,1.2-0.4,2.2-1.4,2.2c-0.7,0-1-0.5-1.3-1
		c-0.3-0.5-0.3-0.6-0.5-0.6C350.3,29.9,349,30.9,348.3,31.4z M350.3,26.3c0.2-0.4,0.3-5,0.3-5.5c0-0.3,0-1-0.3-1
		c-1.6,0-7.8,7.3-7.8,10.6c0,0.6,0.2,1,0.9,1C344.9,31.1,349.7,27.8,350.3,26.3z M355.2,17.5c-2.3,0-2.3,1.5-2.3,3
		c0,0.4,0,2.1,0.5,2.1c0.7,0,2.4-3.4,2.4-4.6c0,0,0-0.3-0.1-0.4S355.3,17.5,355.2,17.5z"/>
	<path class="st0" d="M398.8,11.9c1.1,0.7,1.1,1.4,1.1,1.7c0,0.7-0.3,1.3-0.6,2.1c-0.1,0.3-0.3,0.6-0.3,0.8c0,0.1,0.1,0.2,0.2,0.2
		c0.2,0,1-0.6,1.3-0.7c4.3-2.2,6.7-2.5,8.8-2.5c6.8,0,9.9,4.5,9.9,9.1c0,10.5-13.9,13.8-14.9,13.8c-0.1,0-0.2,0-0.2-0.1
		c0-0.1,2.7-1.7,3.2-2c2.2-1.5,8.5-6.3,8.5-12.8c0-5-3.6-6.8-6.6-6.8c-4.8,0-9.8,2.6-11.4,4.5c-0.6,0.7-0.8,1.4-0.8,4.4
		c0,1,0,6.5,0.2,8.8c0,0.3,0.2,1.8,0.2,2c0,1.4-1.3,2.5-1.9,2.5c-1.2,0-1.3-1.6-1.5-4.2c-0.1-0.9-0.3-5.1-1.4-5.1
		c-0.2,0-0.8,1.1-1.1,1.8c-0.7,1.3-1.6,3-3.1,3c-0.5,0-1-0.3-1-1.2c0-0.7,0.2-1.1,1.3-3c0.4-0.8,2.2-3.8,2.2-4.2
		c0-0.8-0.9-2.4-1.7-3.4c-1.4-1.7-1.5-1.9-1.5-2.7c0-1.5,1.2-1.7,3-1.9c0.7-0.1,1-0.2,3.9-2.9c0.2-0.2,1.1-0.9,1.1-1
		c0.2-0.4,0.4-2.4,0.4-3.7c0-3.9-1-5.3-1.7-6.1c-0.7-0.9-0.8-1-0.8-1.1c0-0.3,1-0.6,1.5-0.6c1.2,0,4.1,1.8,4.1,3.2
		c0,0.7-0.6,3.4-0.7,4c-0.1,0.7-0.2,2-0.2,2.5C398,11.4,398.1,11.5,398.8,11.9z M393.4,17.1c-0.4,0.6-0.9,1.4-1.9,1.5
		c-1.4,0.1-1.8,0.1-1.8,0.7c0,0.6,1.6,3.4,2,3.4c0.3,0,0.4-0.2,0.9-0.9c2.7-4,2.7-4.1,2.7-5.6c0-0.3,0-0.6-0.2-0.6
		C394.9,15.5,394.1,15.8,393.4,17.1z M393.2,26.1c0,0.6,0.9,1.7,1.3,1.7c0.5,0,0.5-2.4,0.5-4.4c0-0.2-0.1-0.3-0.2-0.3
		C394.5,23.2,393.2,25.6,393.2,26.1z"/>
	<path class="st0" d="M458.9,10.3c-0.3,2.9-0.3,3.2-0.3,3.5c0,0.2,0.3,0.2,0.5,0.2c0.2,0,1.7-0.2,2-0.2c1-0.1,1.3-0.1,1.3-0.6
		c0-0.3-0.1-0.3-0.9-1.1c-0.1,0-0.2-0.2-0.2-0.3c0-0.2,0.3-0.2,0.3-0.2c0.4,0,2.4,0.6,3.1,0.8c2.7,0.8,3.4,1.5,3.4,2.4
		c0,1.1-1.3,1.4-2.1,1.4s-4.7-0.5-5.4-0.5c-2.5,0-2.6,0.1-2.8,2.4c-0.8,6.4-3.2,8.7-4.7,8.7c-1.5,0-1.7-0.5-2-1.7
		c-0.2-0.7-0.6-1.4-0.8-1.9c-0.1-0.1-0.6-0.8-0.6-0.9c0-0.1,0.1-0.1,0.2-0.1c0.5,0,2.4,0.8,2.8,0.8c0.7,0,1.2-0.4,1.5-1.1
		c0.7-1.6,1.3-4.5,1.3-5c0-0.3,0-0.6-0.7-0.6c-0.9,0-8.8,1.7-9.4,2.7c-0.3,0.5-0.3,1-0.4,1.8c0,1.4-0.1,5.4-0.1,5.5
		c0,4.1,0.8,6.1,6.9,6.1c0.9,0,2.4,0,3.8-0.3c0.2,0,1.5-0.3,2.1-0.3c1.2,0,2.4,0.9,2.4,1.9c0,2-4,2-5,2c-12.5,0-12.5-3.5-12.5-11.8
		c0-3.7,0-4.1-0.8-4.1c-0.7,0-3.7,1.4-4.4,1.4c-1,0-4.5-0.8-4.5-3.2c0-0.6,0.2-0.6,0.6-0.6c0.4,0,2.3,0.2,2.7,0.2
		c2.7,0,4.8-0.3,5.5-0.6c0.7-0.2,0.7-0.6,0.7-2.2c0-2.4-0.2-3.4-0.7-4.6c-0.1-0.3-1-1.9-1-2c0-0.4,0.7-0.6,1.3-0.6
		c1,0,3.7,1.2,3.7,2.7c0,0.3-0.1,0.7-0.2,1.4c0,0-0.2,1.3-0.2,3.4c0,0.9,0,1.3,0.6,1.3c0.3,0,5.8-1.2,6.9-1.4c2.7-0.4,3-0.5,3.2-1.4
		c0.1-0.9,0.2-3,0.2-3.5c0-1.3-0.1-2.3-0.5-3c0,0-0.8-1.5-0.8-1.6c0-0.4,0.7-0.5,1-0.5c2.7,0,3.7,2.1,3.7,3
		C459.5,7.9,458.9,9.9,458.9,10.3z"/>
	<path class="st0" d="M492.8,23.5c1.3-1.2,1.9-1.8,1.9-2.4c0-0.1-0.3-1.1-0.4-1.3c-0.5-1.7-0.7-2.7-0.7-5.1c0-1,0.2-6.1,0.2-7.2
		c0-2.2-0.6-2.8-1.3-3.5c-0.9-1-1-1.1-1-1.2c0-0.2,1-0.2,1.2-0.2c2.5,0,4.7,2,4.7,3.3c0,0.4-0.5,2.4-0.6,2.8
		c-0.2,1.2-0.4,3.2-0.4,5.7c0,1.7,0,5.2,1.1,5.2c0.6,0,0.9-0.2,3.2-1.7c0.5-0.3,3.2-2,4.5-2c1,0,1.7,0.9,1.7,1.6
		c0,1.3-1.8,2-3.4,2.6c-10.4,4.2-11.8,7.4-11.8,10.2c0,3,2.5,4.1,6.1,4.1c2.2,0,3.9-0.4,5.2-0.8c2-0.5,2.4-0.7,3.3-0.7
		c1.5,0,2.9,1,2.9,2.1c0,2.2-8.9,2.4-11.2,2.4c-2,0-8.3,0-8.3-6.8C489.4,29.4,489.8,26.3,492.8,23.5z"/>
	<path class="st0" d="M535,39.6c-0.9,0-1.1-0.3-2.5-2.9c-0.9-1.5-2-3-4.6-4.7c-0.1-0.1-0.6-0.4-0.6-0.5s0.1-0.3,0.5-0.3
		c1.5,0,8.9,2.3,8.9,6.3C536.7,38.5,535.9,39.6,535,39.6z"/>
	<path class="st0" d="M11.1,100.9c-0.7,0-0.7,0.3-0.8,0.7c-0.1,0.9-1.4,1.3-2.2,1.3c-0.7,0-1.2-0.1-1.2-1.3c0-0.5,0.2-5.1,0.2-6.1
		c0-1.3-0.1-7.2-0.1-8.4c0-0.2,0-0.3,0.2-0.3c0.2,0,1.2,0.3,2,0.7c1.4,0.6,2,0.9,3.2,0.9h4.3c0.5,0,1.3,0,1.3-1.3
		c0-2.3,0-2.8-1.4-2.8H7.8c-3.8,0-5.1,0-5.5,0.1c-0.2,0-0.8,0.1-1,0.1c-0.1,0-0.2-0.1-0.3-0.3l-0.9-1C0,82.9,0,82.8,0,82.8
		c0-0.1,0-0.1,0.2-0.1c0.3,0,1.6,0.1,1.9,0.2C4.2,82.9,6,83,8.1,83h8.5c1.3,0,1.4-0.5,1.4-1.6c0-0.6-0.3-3.4-0.3-3.9
		c0-0.5,0.1-0.6,0.4-0.6c0.1,0,2.3,0.6,3,0.8c1.3,0.3,1.3,0.6,1.3,0.8c0,0.3-1,1-1.1,1.2c-0.1,0.3-0.2,0.6-0.2,1.9
		c0,1,0.1,1.4,1.4,1.4h7.8c1.8,0,2,0,2.5-0.8c1-1.8,1.4-1.8,1.7-1.8c0.9,0,4.4,2.7,4.4,3.1c0,0.6-0.9,0.6-2.4,0.6h-14
		c-1.6,0-1.6,0.3-1.6,2.9c0,0.6,0.1,1.2,1.3,1.2h5.3c0.8,0,1,0,1.5-0.6c0.6-0.7,0.8-0.8,1.1-0.8c0.5,0,3.1,1.7,3.1,2.3
		c0,0.3-0.9,1.2-0.9,1.4c-0.1,0.4-0.2,1.9-0.2,2.3c0,1.2,0.1,6.5,0.1,7.6c0,1.9-2.4,1.9-2.5,1.9c-0.9,0-1-0.4-1-1
		c0-0.5-0.2-0.5-1.3-0.5h-4.5c-0.2,0-0.5,0-0.5,0.3c0,0.3,4.7,6.4,15.8,9.9c1.1,0.3,1.2,0.4,1.2,0.5c0,0.2-0.1,0.3-0.3,0.3
		c-1.6,0-3.2,0-4,1.5c-0.2,0.4-0.3,0.6-0.6,0.6c-0.4,0-5.8-3-9.5-7.3c-1.8-2-2.6-3.2-3.4-4.5c-0.1-0.2-0.2-0.3-0.3-0.3
		c-0.2,0-0.2,0.3-0.2,0.4c0,0.6,0,2.9,0,3.4c0,1.3,0.3,7.9,0.3,8.4c0,0.7-0.1,1.2-0.8,1.8c-0.3,0.2-1,0.7-1.6,0.7
		c-1,0-1.2-0.9-1.2-1.4c0-0.3,0.3-7,0.3-8.2c0-2.3,0-2.5-0.3-2.5c-0.1,0-2.3,1.9-2.6,2.2c-4.6,4.1-13.5,8.1-14.5,8.1
		c-0.1,0-0.2,0-0.2-0.2c0-0.2,2-1.4,2.6-1.7c5.1-3,10.4-7.7,11.7-9.5c0.4-0.6,1.2-1.7,1.2-1.9c0-0.4-0.3-0.4-0.7-0.4H11.1z
		 M16.5,93.7c1.4,0,1.4-0.5,1.4-2.7c0-1.1-0.1-1.6-1.4-1.6h-4.8c-1.3,0-1.4,0.5-1.4,1.6c0,2.2,0,2.7,1.4,2.7H16.5z M11.8,94.8
		c-0.6,0-1.4,0-1.4,1.2c0,3.5,0,3.6,1.4,3.6h4.7c1.4,0,1.5-0.3,1.5-2.9c0-1.4,0-2-1.4-2H11.8z M22.3,89.4c-1.3,0-1.4,0.3-1.4,2.5
		c0,1.3,0.1,1.7,1.4,1.7h5c1.4,0,1.4-0.3,1.4-2.5c0-1.2,0-1.7-1.4-1.7H22.3z M27.3,99.7c1.4,0,1.4-0.7,1.4-2c0-2.2,0-2.9-1.5-2.9
		h-4.9c-1.4,0-1.4,0.7-1.4,1.9c0,2.6,0,2.9,1.4,2.9H27.3z"/>
	<path class="st0" d="M59.7,88.5c1.4,0,1.4-0.7,1.4-1.7c0-1.4-0.2-8-0.2-9.5c0-0.3,0-0.4,0.4-0.4c0.1,0,4.4,0.8,4.4,1.7
		c0,0.2-0.1,0.3-0.3,0.4c-0.5,0.3-0.7,0.4-0.9,0.9c-0.4,0.9-0.4,18.1-0.4,21.1c0,1.8,0.2,11,0.2,13.1c0,1.9-2.2,2.3-2.6,2.3
		c-0.3,0-1.1-0.2-1.1-1.2c0-1.5,0.3-9.1,0.3-10.8c0-0.7,0-1.3-0.5-1.3c-0.2,0-0.5,0.1-0.7,0.3c-0.6,0.4-1.1,0.8-4.8,3.7
		c-0.4,0.3-2.4,1.7-3,2.1c-0.2,0.2-1,1.4-1.3,1.4c-0.6,0-3-3.6-3-4.1c0-0.3,0.1-0.3,1.5-0.6c5.4-1.3,10.5-3.8,11.1-4.3
		c0.7-0.6,0.7-0.7,0.7-10.4c0-0.7,0-1.5-1.3-1.5h-3.5c-1,0-4,0-5.5,0.1c-0.1,0-0.8,0.1-0.9,0.1c-0.1,0-0.3-0.1-0.4-0.3l-0.8-1
		c-0.2-0.2-0.2-0.2-0.2-0.3s0.1-0.1,0.1-0.1c0.3,0,1.6,0.1,1.9,0.1c1.3,0,3.5,0.2,6,0.2H59.7z M81.1,86.5c0.2-0.2,0.8-1.2,1-1.2
		c0.1,0,4.4,3.4,4.4,4c0,0.3-0.2,0.3-1.7,0.5c-2.1,0.3-9.9,1.2-10.9,1.8c-0.6,0.3-0.6,1.3-0.6,9.7c0,1.2,0,7.8,0,8.4
		c0.1,1.9,1,2.1,6,2.1c3.2,0,3.4-0.6,4.3-3.8c0.7-2.8,0.9-3.1,1.1-3.1s0.3,0.2,0.4,1.6c0.2,2.1,0.6,3,1.1,3.7
		c1.1,1.2,1.2,1.4,1.2,1.9c0,3-7.4,3-9.8,3c-7.6,0-7.6-1.7-7.6-7.4c0-3.3,0.2-17.6,0.2-20.5c0-1.5,0-6.6-0.1-8.8
		c0-0.2-0.1-0.8-0.1-0.9c0-0.3,0.1-0.6,0.3-0.6c0.2,0,2.7,0.7,3,0.8c1,0.3,1.3,0.5,1.3,0.9c0,0.3-0.2,0.4-0.7,0.8
		c-0.6,0.4-0.6,1.8-0.6,3.5c0,1,0,5.6,0,6.5c0,0.7,0.1,1.3,1,1C74.6,90.4,79.1,88.5,81.1,86.5z"/>
	<path class="st0" d="M101.9,100c0-1.3,1.2-2.7,4.2-6.1c2-2.3,3.7-5.9,3.7-6.5c0-0.3-0.3-0.3-0.5-0.3c-0.4,0-2.2,0.3-2.6,0.3
		c-1.7,0-3.9-2.1-3.9-3.8c0-0.1,0-0.3,0.3-0.3c0.3,0,1.4,0.7,1.7,0.8c0.5,0.3,1.7,0.8,2.9,0.8c3.6,0,3.6-1.2,3.6-2
		c0-0.3,0-1-0.3-1.5c-0.1-0.2-1-1-1-1.3c0-0.3,1.1-0.7,1.9-0.7c1,0,2.1,0.4,2.2,1.3c0,0.6,0.2,0.7,2,0.8c0.3,0,2,0.2,2,1.1
		c0,1.4-3.2,2.7-5.2,3.4c-0.7,0.3-0.7,0.3-1.7,2.6c-1,2.4-1.2,2.7-2.4,4.7c-0.2,0.4-0.3,0.5-0.3,0.7c0,0.1,0,0.2,0.2,0.2
		s1-0.3,1.3-0.5c0.5-0.2,1-0.3,1.7-0.3c0.6,0,2.6,0.1,3.7,2.7c0.3,0.7,0.3,0.8,0.4,0.8c0.1,0,1.6-2,1.8-2.4c1.4-2,4.3-6,8.1-6
		c2.4,0,4.1,2,4.1,3.9c0,2-3.4,3.5-6.1,4.7c-1.1,0.5-6,2.4-6.8,2.9c-0.7,0.4-0.7,0.9-0.7,1.8c0,0.4,0.1,2.2,0.1,2.6
		c0,0.7,0,3.2-1.6,3.2c-1.2,0-1.4-1.4-1.4-2.2c0-0.4,0.1-2.5,0.1-2.6c0-0.2,0-0.5-0.3-0.5c-0.3,0-4.2,2.7-4.2,5.2c0,3,4.4,3,5.6,3
		c1.1,0,1.9-0.1,2.8-0.3c0.6-0.1,3.4-0.8,4-0.8c0.9,0,2.1,0.4,2.1,1.5c0,2.7-6.8,2.9-7.8,2.9c-5.5,0-8.4-2.3-8.4-5.7
		c0-2.8,1.7-4.2,5.7-7.5c0.4-0.3,0.7-0.9,0.7-1.5c0-2-0.3-4.4-2.1-4.4c-1.7,0-4.2,2-5.4,4.6c-0.5,1.1-1,2.1-2.4,2.1
		C102.8,101.5,101.9,101.2,101.9,100z M113.1,83.6c0.1,0,2.2-0.6,2.2-1c0-0.6-1.1-0.7-1.5-0.7c-0.6,0-0.8,1.2-0.8,1.4
		S113,83.6,113.1,83.6z M117,97.7c0,0.1,0,0.2,0.2,0.2c0.1,0,8.7-3.5,8.7-6.4c0-1.1-1-1.3-1.5-1.3C120.8,90.2,117,97,117,97.7z"/>
	<path class="st0" d="M153.7,85.4c1.2,0,1.7,0,2-0.1c0.3-0.1,1.3-1.6,1.7-1.6c0.7,0,2.9,1.7,2.9,2.4c0,0.6-0.2,0.6-2.3,0.6h-7.4
		c-0.9,0-3.6,0-4.5,0.1c-0.1,0-0.8,0.1-0.9,0.1s-0.2-0.1-0.4-0.3l-0.8-1c-0.2-0.2-0.2-0.2-0.2-0.3c0-0.1,0-0.1,0.1-0.1
		c0.3,0,5.6,0.3,6.7,0.3H153.7z M151.2,91.4c2.2,0,2.5,0,3-0.7c0.5-0.7,0.7-0.9,1-0.9c0.6,0,2.4,1.5,2.4,2.2c0,0.6-0.3,0.6-2.4,0.6
		h-5.9c-0.5,0-2.8,0.2-3,0.2c-0.1,0-0.2-0.1-0.3-0.3l-0.9-1c-0.2-0.2-0.2-0.2-0.2-0.3c0-0.1,0-0.1,0.2-0.1c0.2,0,3.5,0.3,4.2,0.3
		H151.2z M152.1,97c1.7,0,2.2,0,2.6-0.9c0.3-0.7,0.5-1,0.9-1c0.7,0,2.8,1.7,2.8,2.5c0,0.5-0.2,0.6-2.3,0.6l-6.4,0
		c-0.5,0-2.7,0.2-3.1,0.2c-0.1,0-0.2-0.1-0.3-0.3l-0.9-1c-0.2-0.2-0.2-0.2-0.2-0.3c0,0,0-0.1,0.1-0.1c0.1,0,3.7,0.3,4.4,0.3H152.1z
		 M153.3,102.6c0.4,0,1,0,1.4-0.6c0.5-0.6,0.6-0.7,0.8-0.7c0.1,0,1.2,0.4,1.8,0.7c1,0.4,1.3,0.7,1.3,1.2c0,0.2-0.1,0.4-0.3,0.7
		c-0.7,0.6-0.7,0.7-0.7,1.1c0,0.2,0.3,7.7,0.3,8c0,1.1-0.6,1.8-2,1.8c-0.7,0-0.7-0.2-0.8-1.3c-0.1-0.8-0.6-1-1.3-1h-3.2
		c-1.2,0-1.2,0.7-1.2,1.7c0,1.7-1.6,2.1-2.2,2.1c-1,0-1-0.8-1-1.1c0-0.5,0.3-9,0.3-9.1c0-0.6-0.3-3.6-0.3-4c0-0.4,0.3-0.6,0.6-0.6
		c0.3,0,0.5,0,1.5,0.5c1.1,0.4,1.5,0.4,2.1,0.4H153.3z M151.1,79.7c1.8,0,2,0,2.5-0.7c0.7-1,0.8-1.1,1.2-1.1c0.7,0,3,1.7,3,2.4
		c0,0.6-0.3,0.6-2.4,0.6h-5.1c-0.8,0-2.5,0.2-2.7,0.2c-0.2,0-0.3-0.1-0.4-0.3l-0.9-1c-0.1-0.2-0.2-0.2-0.2-0.3c0,0,0-0.1,0.2-0.1
		c0.7,0,3.5,0.3,4.1,0.3H151.1z M150.4,103.8c-1.4,0-1.4,0.3-1.4,3.4c0,0.7,0,3.4,0.2,3.8c0.2,0.5,0.9,0.5,1.2,0.5h3.2
		c1.4,0,1.4-0.4,1.4-2.8c0-4.9-0.1-4.9-1.4-4.9H150.4z M171.7,95.7c-1.4,0-1.4,0.2-1.7,1.7c-1.3,8.3-3.7,13.9-9.4,17.3
		c-0.9,0.5-2,0.9-2,0.9c-0.2,0-0.2-0.1-0.2-0.2c0-0.1,1.8-1.5,2.1-1.8c7.1-6.6,7.3-20.1,7.3-23.3c0-2.1-0.1-2.7-1.3-2.7
		c-2.1,0-3.5,0-4,0.1c-0.1,0-0.5,0.1-0.6,0.1c-0.2,0-0.3-0.1-0.4-0.3l-0.9-1c-0.1-0.2-0.2-0.2-0.2-0.3c0-0.1,0-0.1,0.2-0.1
		c0.3,0,1.7,0.1,1.9,0.2c0.1,0,3.5,0.1,4.8,0.1c1,0,1.6-0.2,1.6-1.4c0-1-0.2-5.3-0.4-6.3c0-0.2-0.4-1.1-0.4-1.3
		c0-0.3,0.3-0.3,0.4-0.3c0.2,0,3.6,0.4,4,0.5c0.2,0,0.5,0.1,0.5,0.5c0,0.3-0.3,0.5-1,1c-0.3,0.2-0.3,0.4-0.3,1.3c0,5.8,0,6,1.4,6
		h2.3c2,0,2.3,0,2.5-0.3c0.3-0.3,1.6-2.1,2-2.1c0.3,0,3.5,2.4,3.5,3c0,0.7-0.8,0.7-2.3,0.7h-10.7c-0.3,0-0.4,0-0.4,0.1
		s1,0.6,1.2,0.7c0.4,0.2,0.5,0.4,0.5,0.6s-0.8,0.8-0.9,1c-0.1,0.2-0.4,3.5-0.4,3.6c0,0.9,0.8,0.9,1.3,0.9h4.8c0.4,0,0.9,0,1.2-0.6
		c0.3-0.6,0.4-0.7,0.7-0.7c0.2,0,1.6,0.6,1.9,0.7c1.2,0.4,1.9,0.7,1.9,1.2c0,0.3-0.1,0.4-1.3,1.3c-0.2,0.2-0.3,0.6-0.3,1.3
		c-0.3,7.7-0.6,12.9-3.2,15.9c-0.4,0.5-1.8,2-3.9,2c-0.5,0-0.6-0.2-1-1.1c-0.3-0.7-0.8-1.6-2.1-2.7c-0.2-0.1-0.6-0.5-0.7-0.6
		c0,0,0-0.1,0.1-0.1c0.1,0,3.8,0.5,4.5,0.5c0.9,0,1.3-0.3,1.8-1.4c1.1-2.5,1.6-8.5,1.6-12.9c0-1.1-0.1-1.7-1.4-1.7H171.7z"/>
	<path class="st0" d="M206.2,82.5c0,0.3-0.4,2.3-0.4,2.7c0,0.3-0.2,2-0.2,3.1c0,0.9,0.1,1.1,0.9,1.5c0.4,0.2,0.7,0.4,0.7,0.9
		c0,0.1,0,0.7-0.4,1.1c-0.9,1.3-1,1.4-1,1.6c0,0.1,0,0.1,0.1,0.1c0.1,0,0.2-0.1,1.1-0.9c2.3-2.2,7.5-7.1,11.6-7.1
		c3,0,4.3,2.1,4.3,5.2c0,1.6-0.2,3.6-0.5,5.6c-0.7,4.4-0.7,5.1-0.7,6.5c0,1.7,0.3,4.1,3.2,4.1c0.7,0,2.6,0,4.6-2.2
		c0.3-0.3,0.7-0.7,0.9-0.7c0.2,0,0.3,0.2,0.3,0.3c0,0.6-2.4,5.7-7,5.7c-5.1,0-5.1-5.2-5.1-6.4c0-1,0-1.5,0.5-4.1
		c0.7-4,1.2-8,1.2-9.1c0-0.8,0-3-2.7-3c-3.1,0-6.8,3.1-9.7,5.8c-2.9,2.7-3.4,4.5-3.4,8.9c0,2,0.1,4.4,0.3,5.6
		c0.4,2.8,0.5,3.2,0.5,4.1c0,1.4-0.3,2.4-1.7,2.4s-1.5-1-2-3.3c-0.1-0.6-1.3-4.8-1.7-4.8c-0.2,0-0.2,0.1-0.5,1.2
		c-0.4,1.3-1.1,2.4-2.4,2.4c-1,0-1.6-0.9-1.6-1.6c0-1.5,1.5-4.1,1.9-4.9c0.2-0.3,0.6-1,0.6-1.4c0-0.5-0.8-2.7-1-3.3
		c-1-2.4-1-2.7-1-3.5c0-2,1.3-3.1,2.2-3.4c3-0.9,4.7-1.4,5.2-1.8c0.3-0.2,0.3-0.5,0.3-1.3c0-2.4-0.2-4.4-1.1-6.4
		c-0.2-0.3-1.3-1.9-1.3-2.2c0-0.4,0.7-0.4,1-0.4C203.5,79.6,206.2,81.7,206.2,82.5z M202.3,92.5c-0.3,0-4.9,0.9-4.9,3.1
		c0,1.5,1,4.8,1.4,4.8c0.2,0,0.4-0.3,0.5-0.4c0.1-0.2,2.4-4.8,2.7-5.2c0.4-0.8,0.9-1.7,0.8-2S202.5,92.5,202.3,92.5z M202.3,102.6
		c0-0.2,0.1-1.4,0.1-1.5c0-0.1,0-0.4-0.2-0.4c-0.4,0-1.7,2.9-1.7,3.4c0,1.1,1.4,3.1,1.5,3.1C202.3,107.2,202.3,106.9,202.3,102.6z"
		/>
	<path class="st0" d="M268,103.2c0-3.6-3-6.6-7.4-6.6c-5.7,0-9.5,6-10.2,7.3c-0.9,1.5-1.3,2.3-2.5,2.3c-1,0-1.3-0.9-1.3-1.2
		c0-1.1,0.3-2,3.4-5.7c2.8-3.3,3.3-3.9,9.8-13.1c1.4-2,2-3,2-3.4c0-0.3-0.3-0.6-0.8-0.6c-1.6,0-4.2,2.2-4.9,2.8
		c-1.7,1.4-2.4,1.6-3.1,1.6c-2,0-3.4-2.8-3.4-3c0-0.1,0.1-0.1,1-0.1c2.3,0,5.5-1,6.8-1.6c2.7-1.2,3-1.3,4-1.3c1.7,0,4.6,1.1,4.6,3
		c0,1.3-1,2-3.1,3.4c-3.1,2.2-7,8.2-7,8.9c0,0.1,0.1,0.3,0.3,0.3c0.3-0.1,0.8-0.3,1.1-0.4c1.4-0.5,2.6-0.7,3.8-0.7
		c5.6,0,9.8,4.1,9.8,9.1c0,5.5-5.4,9.4-10.9,9.4c-4.3,0-7.4-2.3-7.4-4.5c0-1.6,1.8-3.5,4.3-3.5c2,0,3.7,1.2,5,2.8
		c0.6,0.8,0.9,1.2,1.5,1.2C264.9,109.5,268,106.8,268,103.2z M256.8,107.1c-1,0-1.8,0.8-1.8,1.5c0,1.1,1.9,2,3.7,2
		c0.4,0,0.7-0.3,0.7-0.8C259.4,108.9,258.4,107.1,256.8,107.1z"/>
	<path class="st0" d="M309.8,82.4c0,0.4-0.6,2-0.7,2.4c-0.2,1.2-0.4,2.7-0.4,3c0,0.6,0,0.7,0.5,0.7c0.4,0,1.1-0.1,1.8-0.3
		c0.4-0.2,2.4-1.1,2.9-1.1c1.1,0,2.7,1.2,2.7,1.9c0,0.7-1,1.7-4.6,1.7c-0.1,0-2.9,0-3,0c-0.3,0.1-0.4,0.3-0.4,1.2
		c0,0.8,0.5,11.7,0.7,12.2c0.2,0.7,0.4,0.8,2.7,1.7c2.7,1.2,5.5,2.4,5.5,3.8c0,1.2-0.9,1.7-1.6,1.7c-0.8,0-2.9-1.4-4-2.1
		c-0.7-0.4-1.8-1.1-2.5-1.1c-0.4,0-0.5,0.1-1.1,1.3c-1.7,3.6-5.5,3.9-6.8,3.9c-4,0-7.5-2.6-7.5-5.1c0-2.8,4.2-4.7,9.1-4.7
		c0.4,0,2,0.1,2.3,0.1c0.7,0,0.9-0.1,0.9-1.1c0-1.1-0.4-8.3-0.4-9.4c0-0.3,0-9.2-0.2-10.8c-0.1-0.8-0.4-1.7-1.2-2.6
		c0,0-0.3-0.3-0.3-0.5c0-0.2,0.3-0.2,0.4-0.2C308.5,79.2,309.8,82.2,309.8,82.4z M301.8,105.9c-0.4,0-5.7,0-5.7,2.4
		c0,0.8,1.5,2.1,4.6,2.1c4.7,0,5.5-3.2,5.4-3.6C306,106.3,303.8,105.9,301.8,105.9z"/>
	<path class="st0" d="M347.5,83.4c1.7,0,6.3-1.5,7.1-1.9c1.7-0.8,2.2-1,3.6-1c2.1,0,3.3,1.4,3.3,2.5c0,1.6-1,2.4-3,4
		c-2.8,2.4-7.9,8.5-7.9,8.8c0,0.1,0,0.2,0.3,0.2c0.4,0,2-0.8,2.4-1c3-1.1,5.4-1.4,6.7-1.4c5.6,0,9.4,4.4,9.4,8.6
		c0,9.1-15.3,11.9-17.8,11.9c-0.4,0-0.7-0.1-0.7-0.3c0-0.3,0.2-0.3,1.7-0.7c0.4-0.1,13-3.8,13-11.5c0-1.3-0.4-6-6.1-6
		c-6.8,0-12.9,5.2-14.9,8.8c-1.6,2.8-2.1,3.6-3.4,3.6c-1.5,0-1.6-1.3-1.6-1.9c0-1.6,0.7-2.3,2.3-4.1C345.1,98.7,357,85.7,357,84
		c0-0.3-0.2-0.5-0.5-0.5c-1.4,0-6.8,3.4-8.1,3.4c-0.8,0-1.7-0.7-2-1.1c-0.2-0.3-1.7-2.3-1.7-2.3c0-0.2,0.3-0.3,0.4-0.3
		C345.4,83.2,347.1,83.4,347.5,83.4z"/>
	<path class="st0" d="M403.2,107.5c1.3,0,7.9-0.9,8.1-0.9c1.7,0,2.9,1.2,2.9,2c0,2.4-7.4,2.6-9.8,2.6c-4.3,0-13.5-0.8-13.5-7.6
		c0-1.7,0.5-2.1,0.6-2.1c0.3,0,0.6,1.4,0.7,1.6c1.2,3,5.3,4.4,8.4,4.4C400.8,107.4,402.7,107.5,403.2,107.5z M403.3,83.1
		c0.5,0,3-0.1,3.4-0.1c2.9,0,4.3,2.8,4.3,3.5c0,0.8-0.4,0.8-3.4,1c-2.2,0.1-3.8,1.1-5.5,2.1c-0.4,0.3-0.4,0.2-0.6,0.2
		c0,0-0.1,0-0.1-0.1c0-0.4,2.4-2.4,2.4-3c0-0.3-0.1-0.3-1.4-0.5c-5.7-1-7.7-3.8-7.7-4.2c0-0.1,0.1-0.1,0.2-0.1
		c0.3,0,1.2,0.4,1.4,0.4C398.3,82.9,400.8,83.1,403.3,83.1z"/>
	<path class="st0" d="M444.2,83.7c2.5-0.9,2.7-1,3.3-1c1.1,0,1.4,1,1.4,1.2c0,1-0.8,1.3-2.4,1.8c-3,1-8.3,11.9-8.3,17.3
		c0,1.9,1,7.1,6.8,7.1c4.3,0,7.5-2.8,8.7-4.7c3-5,3-14.3,3-15.7c0-1.7-0.1-3-0.6-4.7c-0.6-2-0.6-2.2-0.6-2.7c0-1.2,0.9-1.6,1.4-1.6
		c1.4,0,1.5,0.8,2.4,5.1c0.4,2,1.7,6.3,5.5,8.9c2.3,1.6,2.7,2.1,2.7,2.9c0,1-0.9,1.8-1.6,1.8c-1.9,0-3.9-3.4-5.1-5.4
		c-0.4-0.7-2.6-4.9-2.8-4.9c-0.1,0-0.2,0.4-0.2,0.5c0,5.1,0,9.5-1.2,14.2c-1.8,7.1-7.8,9.6-12,9.6c-5.4,0-9.2-4-9.2-9.2
		c0-4.6,2-8.9,4.1-12.8c0.2-0.3,2.4-4.3,2.4-4.4c0-0.1-0.2-0.2-0.3-0.2c-0.4,0-2.2,0.9-2.6,0.9c-1.7,0-2.4-2.9-2.4-3
		c0-0.2,0.1-0.4,0.3-0.4c0.1,0,1.7,0.2,2,0.2C439.2,84.8,441.8,84.6,444.2,83.7z M466.8,84.4c0,0.6-0.6,1.7-1.3,1.7
		c-0.7,0-1-0.4-2.2-2.1c-0.7-0.9-1.1-1.4-2.8-2.9c-0.2-0.1-0.6-0.5-0.6-0.7c0-0.2,0.4-0.3,0.8-0.3C463.5,80,466.8,82.3,466.8,84.4z
		 M470.4,80.4c0,0.5-0.3,1.3-1.1,1.3c-0.9,0-1.5-0.6-2.3-1.6c-0.7-0.8-2.4-2-3.8-2.5c-0.4-0.2-0.5-0.4-0.5-0.5
		c0-0.3,0.8-0.5,1.6-0.5C467.7,76.6,470.4,78.4,470.4,80.4z"/>
	<path class="st0" d="M485.2,100c0-1.3,1.2-2.7,4.2-6.1c2-2.3,3.7-5.9,3.7-6.5c0-0.3-0.3-0.3-0.5-0.3c-0.4,0-2.2,0.3-2.6,0.3
		c-1.7,0-3.9-2.1-3.9-3.8c0-0.1,0-0.3,0.3-0.3c0.3,0,1.4,0.7,1.7,0.8c0.5,0.3,1.7,0.8,2.9,0.8c3.6,0,3.6-1.2,3.6-2
		c0-0.3,0-1-0.3-1.5c-0.1-0.2-1-1-1-1.3c0-0.3,1.1-0.7,1.9-0.7c1,0,2.1,0.4,2.2,1.3c0,0.6,0.2,0.7,2,0.8c0.3,0,2,0.2,2,1.1
		c0,1.4-3.2,2.7-5.2,3.4c-0.7,0.3-0.7,0.3-1.7,2.6c-1,2.4-1.2,2.7-2.4,4.7c-0.2,0.4-0.3,0.5-0.3,0.7c0,0.1,0,0.2,0.2,0.2
		s1-0.3,1.3-0.5c0.5-0.2,1-0.3,1.7-0.3c0.6,0,2.6,0.1,3.7,2.7c0.3,0.7,0.3,0.8,0.4,0.8c0.1,0,1.6-2,1.8-2.4c1.4-2,4.3-6,8.1-6
		c2.4,0,4.1,2,4.1,3.9c0,2-3.4,3.5-6.1,4.7c-1.1,0.5-6,2.4-6.8,2.9c-0.7,0.4-0.7,0.9-0.7,1.8c0,0.4,0.1,2.2,0.1,2.6
		c0,0.7,0,3.2-1.6,3.2c-1.2,0-1.4-1.4-1.4-2.2c0-0.4,0.1-2.5,0.1-2.6c0-0.2,0-0.5-0.3-0.5c-0.3,0-4.2,2.7-4.2,5.2c0,3,4.4,3,5.6,3
		c1.1,0,1.9-0.1,2.8-0.3c0.6-0.1,3.4-0.8,4-0.8c0.9,0,2.1,0.4,2.1,1.5c0,2.7-6.8,2.9-7.8,2.9c-5.5,0-8.4-2.3-8.4-5.7
		c0-2.8,1.7-4.2,5.7-7.5c0.4-0.3,0.7-0.9,0.7-1.5c0-2-0.3-4.4-2.1-4.4c-1.7,0-4.2,2-5.4,4.6c-0.5,1.1-1,2.1-2.4,2.1
		C486,101.5,485.2,101.2,485.2,100z M496.3,83.6c0.1,0,2.2-0.6,2.2-1c0-0.6-1.1-0.7-1.5-0.7c-0.6,0-0.8,1.2-0.8,1.4
		S496.2,83.6,496.3,83.6z M500.2,97.7c0,0.1,0,0.2,0.2,0.2c0.1,0,8.7-3.5,8.7-6.4c0-1.1-1-1.3-1.5-1.3C504,90.2,500.2,97,500.2,97.7
		z"/>
	<path class="st0" d="M537,111c0,2.4-2,4.8-4.9,4.8s-4.8-2.4-4.8-4.9c0-3.3,2.9-4.8,4.8-4.8C535,106.1,537,108.5,537,111z
		 M528.6,110.9c0,2,1.6,3.7,3.7,3.7c1.9,0,3.6-1.5,3.6-3.6c0-1.7-1.3-3.7-3.7-3.7C529.9,107.3,528.6,109.2,528.6,110.9z"/>
</g>
</svg>
