<?xml version="1.0" encoding="utf-8"?>
<!-- Generator: Adobe Illustrator 21.1.0, SVG Export Plug-In . SVG Version: 6.00 Build 0)  -->
<svg version="1.1" id="レイヤー_1" xmlns="http://www.w3.org/2000/svg" xmlns:xlink="http://www.w3.org/1999/xlink" x="0px"
	 y="0px" viewBox="0 0 690.2 117" style="enable-background:new 0 0 690.2 117;" xml:space="preserve">
<style type="text/css">
	.st0{fill:#FF6B3D;}
</style>
<g>
	<g>
		<path class="st0" d="M24.6,81.8c-0.5,1.1-1.2,2.2-1.3,3.3c-0.3,2.1-3.5,7.5-4.2,8.9c-0.9,2-4.6,12-5,13.3
			c-0.5,1.5-1.7,2.4-3.2,2.5c-2.4,0.2-3.5-1.9-2.5-4.6c0.8-2.2,3.8-9,4.6-10.5c0.7-2.4,2.6-6.3,3.7-7.8c0.8-1.1,1.4-2.4,1.7-3.7
			c0.6-2.1,1.2-3,2.9-5.6c1.1-1.1,1.4-3.1,2.1-4.7c0.4-1,0.7-2,1.2-3.3c-2.1,0.5-4,0.6-5.6,2.1c-2,1.8-4.4,1.5-6.5,0.6
			c-2-0.8-3.5-2.6-3.6-5c0-2,0.2-4,0.4-6c0.4-4.4,0.8-8.8,1.4-13.2c0.7-4.6,1.6-9.1,2.5-13.7c0.3-1.5,1.2-2.6,2.7-2.3
			c0.7,0.1,1.6,1.1,1.9,1.9c0.3,0.9,0,2.1,0.1,3.1c0,0.7,0.3,1.4,0.5,2.5c3.1-2.7,7.3-3.6,7.4-8.3c0-2.4-1.5-9.8-1.7-11.2
			c-0.1-0.5-0.3-1-0.5-1.3c-1.3,0.2-2.3,0.3-3.3,0.5c-1.3,0.3-5.5,2.1-6.5,2.3c-0.4,0.1-5.1,1.7-6.8,2.7c-2.2,1.3-5.6,2.1-6.5,0.7
			c-0.9-1.3-0.3-2.4,0.4-2.6c1.7-0.9,3.2-1.6,4.8-2.3c0.9-0.4,8.1-2.6,10.4-3.8c2-0.8,4-1.7,6-2c2.2-1,2.3-2.8,2.2-5
			c-0.2-3.3,0.2-7.4,2.3-8.7c0.7-0.4,2.3-0.7,2.8-0.4c0.6,0.5,1,1.7,0.9,2.6c-0.1,1.9-0.4,3.9-0.7,5.8c-0.3,1.5-0.3,2,0,3.8
			c1.8-2.1,16.6-3.1,19-2.5c0.7,0.2,1.7,1.6,1.6,2.2c-0.2,0.8-1.4,1.8-2.2,1.8c-2.5,0.2-10.6,1.4-12.5,1.6c-2.4,0.6-5.4,1.1-6.1,3.4
			c-0.4,1.3,1.3,8.9,1.4,11.2c0,1.1,0.2,1.8,1.7,1.6c2.3-0.3,4.4,0.2,6.5-0.6c0.3-0.1,2.1-0.1,2.3,0.1c2.3,2.1,3.8,3.9,3.4,7.5
			c-0.1,1.3,0.5,2.7,0.7,4c0.3,2.2,0.6,4.5,0.7,6.7c0.1,2.1-0.1,4.2,0.1,6.3c0.3,2.9-1.3,5.8-4.4,6.4c-2.8,0.5-5.5,1.7-8.1,2.8
			c-1.8,0.7-1.9,1.7-0.5,2.9c1.3,1.1,2.7,2,4,2.9c0.7,0.5,1.3,1,1.9,1.5c1,0.7,2,1.3,3,2c1,0.7,1.9,1.4,3,2c1.2,0.7,2.5,1.5,3.8,2
			c1.9,0.8,2.5,1.9,1.8,4.2c-0.5,1.6-1.8,1.8-3.1,1.3c-2.2-0.7-4.7-1.1-6.3-3.1c-0.5-0.6-1.3-0.9-2-1.4c-1.8-1.2-3.5-2.5-5.4-3.6
			c-0.8-0.4-2-0.8-2.7-0.5C30,75.7,30,77,30.4,78c1.8,4.3,2.1,9.1,1.4,13.5c0.3,4.3-0.1,7.3,0.5,11c0.6,3.9,0.1,7-0.1,10.9
			c-0.1,2-2.1,3.6-3.5,3.5c-1.4-0.1-2.6-1.9-2.5-3.7c0.1-1.6,0.4-3.2,0.3-4.7c-0.2-2.2-0.2-5.7-0.2-7.8c0.1-3.9-0.1-6.5,0.1-10.4
			c0.1-1.9,0.2-3.7,0-5.6c-0.1-1-0.7-1.9-1.1-2.8C25.1,81.9,24.9,81.9,24.6,81.8z M31.6,59.2c3.6,0.3,8.7-2.7,8.9-5
			c0.2-3,0-6.1-0.2-9.2c-0.1-2.2-0.6-4.3-0.8-6.5c-0.2-1.9-0.6-2.4-2.4-2.4c-1.2,0-2.5,0.1-3.6,0.2c-2.3-0.2-3,0.5-2.7,2.8
			c0.3,2.4,0.3,4.8,0.6,7.2c0.1,0.8,0.1,2,0.8,1.8c4.1-1.4,6,1-0.8,5.9c-0.6,0.6-0.7,1.5-0.5,2.3C30.9,57.1,31.1,58.5,31.6,59.2z
			 M26.6,46c-0.1-0.8-0.2-2.3-0.4-3.7c-0.2-1.2-1-1.9-2.2-1.4c-1,0.4-2,1.1-2.9,1.7c-1.4,1-3.2,1.9-4.1,3.3c-1,1.5-1.3,3.6-1.7,5.5
			c-0.1,0.5,0.8,1.7,1.2,1.7c1,0,2-0.5,3-0.9c0.9-0.4,1.7-1.2,2.7-1.4C25,50.4,26.2,49.4,26.6,46z M14.4,67.5c0.9,0.1,1.6-0.1,2-0.4
			c2.2-1.3,4.3-2.9,6.6-4c2.9-1.4,3.3-1.8,2.7-4.9c-0.5-2.8-2.2-3.4-4.6-1.8c-1.2,0.8-2.6,1.4-4,1.8c-1.6,0.4-2.5,1.3-2.7,3
			c-0.2,1.4-0.7,2.7-0.8,4.1C13.6,66.2,13.3,66.9,14.4,67.5z"/>
		<path class="st0" d="M596.7,11.3c-0.1-1.5,4.5-1.9,4.9,0.6c-0.2,2.9-0.3,5.7-0.5,8.5c-0.3,5.1-0.7,10.2-0.9,15.3
			c-0.1,1.5,1.1,2.1,2.3,2.4c0.7,0.2,1.5,0.2,2.3,0.3c1.5,0.3,2.1,1.4,2.2,2.8c0,1.2-1.4,2.2-2.8,2.2c-3.9-0.1-3.9-0.1-4.1,3.8
			c-0.1,2.1-0.2,4.1-0.5,6.2c-0.2,1.6,0.5,2.4,2.1,2.6c1.1,0.1,2.2,0.3,3.4,0.4c1.4,0.2,2.1,1,2.1,2.4c0,1.4-0.4,2.4-2,2.7
			c-0.5,0.1-1,0.2-1.5,0.1c-2.4-0.1-2.8,0.1-2.9,2.5c0,1.5,0.3,3.1,0.6,4.6c0.3,2.2,0.8,4.3,1.2,6.5c0.1,0.8,0.2,1.6,0.5,2.4
			c1.2,2.8,2.6,5.5,3.8,8.3c1.4,3.1,3.9,5,6.7,6.7c0.6,0.4,1.6,0.4,2.4,0.2c3.3-0.7,6.4-2,9.1-4.1c0.5-0.4,0.9-0.9,1.4-1
			c0.9-0.2,2.1-0.6,2.8-0.2c0.6,0.4,0.9,1.7,1,2.6c0.2,2.2-1.1,3.4-3,4.6c-2.4,1.6-4.8,3-7.5,3.9c-2.7,0.9-5.4,0.5-8.1-0.1
			c-5.5-1.3-7.9-5.8-10.7-10c-3.2-4.8-4-10.3-5.7-15.6c-0.6-1.8-0.4-3.9-0.6-5.8c-0.1-0.9-0.2-1.7-0.5-2.5c-1-2.9-2.1-3.6-5.2-3.2
			c-2.6,0.3-5.2-1.2-5.8-3.3c-0.6-2,0.6-3.7,2.7-3.7c2,0,4,0.3,6,0.4c1.5,0.1,2.1-0.5,1.9-2.1c-0.3-2.1-0.6-4.2-0.8-6.4
			c-0.1-0.8,0.1-1.6,0.1-2.5c0.1-1.5-0.8-2-2.1-2.2c-3.1-0.4-6.1-0.7-9.2-1.2c-1.1-0.2-2.1-0.6-3.1-1.1c-1.9-1.1-1.9-3.2,0.2-4.1
			c1.1-0.5,2.5-0.8,3.7-0.7c2.8,0.4,5.6,1.1,8.4,1.8c1.6,0.4,2.4,0,2.6-1.6c0.5-3.4,1-6.8,1.4-10.2c0.2-1.6,0.1-3.3,0.3-4.9
			C595.5,16.9,596.1,14.2,596.7,11.3z"/>
		<path class="st0" d="M469.8,64.3c-2.4-0.8-2.7-1.3-3.9-2c-4.6-2.7-7.9-6.8-11.2-10.9c-0.9-1.1-2.9-1.2-4-0.4
			c-1.7,1.3-3.4,2.8-5.3,3.6c-2.7,1.2-3,3.3-2.8,5.7c0.3,3.8,1.1,7.5,1.3,11.3c0.1,2.6-0.4,5.2-0.8,7.8c-0.2,1.2-1.3,1.6-2.6,1.5
			c-1.5-0.1-2-1.1-2.2-2.3c-0.5-3.3-1.1-6.6-1.4-9.9c-0.2-2,0.1-4.1,0.2-6.1c0.1-1.2,0-2.2-1.5-2.4c-3.8-0.6-4.6-2.3-3.4-6
			c1-3.1,1.6-6.3,2.3-9.5c0.4-2-0.5-2.9-2.5-3.2c-1.9-0.3-3.5-0.2-5.1,1.2c-1.2,1.1-3.2,0.8-3.8-0.3c-0.7-1.2-0.1-2.8,1.4-3.6
			c0.8-0.4,1.5-0.9,2.3-1.2c1.2-0.4,2.4-0.6,3.6-0.9c0.4-0.1,0.9,0.1,1.4,0.2c2.9,0.7,3.7,0,3.7-3.6c0-2.9,0.8-5.8,1.4-8.7
			c0.3-1.3,1.5-1.6,2.5-1c0.8,0.4,1.8,1.2,1.9,1.9c0.4,3,0.6,6,0.6,9c0,4.6-0.3,9.2-0.3,13.8c0,0.6,0.4,1.7,0.6,1.7
			c0.9,0,1.9-0.2,2.6-0.6c1.8-1.2,3.3-2.7,5.1-3.8c2.8-1.7,7.3-0.3,9.3,2.5c1.2,1.7,2.8,3.2,4.3,4.8c0.2,0.3,0.6,0.4,0.8,0.7
			c2.1,3.1,5.2,3.8,8.6,3.8c1.1,0,2.3-0.1,3.3,0.2c0.8,0.2,2,1,2.1,1.6c0.1,0.9-0.4,2.7-1,2.9C474.9,63.3,473.1,64.9,469.8,64.3z"/>
		<path class="st0" d="M250.4,28.7c0.6-1.9,0.5-2.2,1.4-4c0.9-2,2.2-3.9,3.5-5.7c0.4-0.5,1.5-0.9,2.1-0.8c0.6,0.2,1.4,1.2,1.4,1.7
			c-0.2,1.5,0.2,2.7-1.3,4.3c-2.3,1.8-2.4,4.3-2.8,6.6c-0.7,4.1-0.9,8.2-1.4,12.3c-0.2,1.5-0.5,2.9-0.6,4.4
			c-0.2,2.1,0.3,2.4,2.4,2.3c1.2-0.1,2.6,0,3.7,0.4c1.6,0.6,1.7,2.5,0.4,3.6c-1.7,1.5-3.6,2.2-5.8,2.4c-1.6,0.2-2.2,0.9-1.8,2.5
			c0.4,1.9,0.7,3.4,1.2,5.3c0.2,0.9,0.1,2.5,0.5,3.3c0.9,1.9,1.9,3.9,3.3,5.4c1.6,1.8,3.4,3.6,6.3,3.6c1.1,0,2.2,1.1,2,2.7
			c-0.2,1.5-1.4,2.6-3.1,2.4c-2.4-0.2-4.4-0.9-6.5-2.4c-3.2-2.2-4.5-5.4-6.3-8.4c-0.4-1.3-0.5-2.5-0.7-3.8c-0.2-1.2-0.4-2.4-0.6-3.5
			c-0.3-1.6-0.8-3.3-0.7-4.9c0-2.2-0.1-2.6-2.3-2.8c-2.6-0.4-5.3-0.7-7.9-1.1c-1.4-0.2-2.7-0.6-2.7-2.4c0.1-1.7,1.3-2.7,3.3-2.6
			c2.8,0.2,5.5,0.5,8.3,0.7c1.8,0.2,2.6-0.5,2.6-2.3c0-1.6,0.1-3.2,0.3-4.7c0.2-1.5-0.3-2.4-1.9-2.5c-3.8-0.3-7.3-1.3-10.4-3.8
			c-0.9-0.7-2.2-1-3.3-1.5c-1.2-0.6-1.5-1.6-1-2.6c0.4-0.7,1.2-1.4,2-1.5c2.1-0.4,4.1,0.4,5.7,1.7c2.5,2,5.5,2.4,8.4,3.2
			c1,0.3,1.7-0.5,1.9-1.6c0.2-1.3,0.4-2.7,0.5-4.1C250.1,30.6,250.5,28.7,250.4,28.7z"/>
		<path class="st0" d="M498.1,45.8c-2.3-0.1-5.4,0.8-6.9,2.1c-1,0.8-2,0.7-2.6-0.1c-0.4-0.6-0.5-1.9-0.1-2.5c1.3-2,2.9-3.5,5.6-3.5
			c2.1,0,6.3-2.5,6.8-3.9c1.3-3.4,2.4-6.9,3.7-10.3c0.8-2.4,2.9-3.6,4.8-1.9c1.2,1.2,1,3,0.5,4.7c-0.8,3-1.8,5.9-2.5,8.9
			c-0.4,1.8,0.1,2.8,2.7,4.6c3,2.1,3.2,3,3.1,9.1c0,1.4-0.1,3.5-0.6,5.4c-0.5,2.2-0.7,3-2.5,3.1c-1.7,0.1-3.1-1.5-3-3.5
			c0.1-2,0.1-4,0.5-6c0.5-2.6,0.1-4.9-2.9-5.7c-0.5,1-0.7,1.4-1,2.2c-0.3,0.9-0.6,1.5-1,2.4c-0.8,1.5-1.7,3-2.5,4.6
			c-0.7,1.2-1.7,2.3-3.1,1.7c-0.8-0.4-1.6-1.7-1.7-2.6c-0.2-1.4,0-2.6,0.5-4.2C496,49.3,497.8,46.9,498.1,45.8z"/>
		<path class="st0" d="M156.3,59.6c0.4-0.9,1.3-1.7,2.2-2.4c2.3-1.9,2.1-3-0.2-4.8c-2.3-1.8-5-3.4-6.4-6.3c-1.1-2.2-2.7-4.2-4.1-6.2
			c-1-1.4-0.6-3.7,0.6-4.4c1.3-0.8,2.8-0.1,3.9,1.5c1.8,2.6,3.6,5.2,5.5,7.7c0.9,1.1,2,2.1,3,3.1c0.8,0.7,1.5,0.9,2.5,0.1
			c1.7-1.4,3.9-2.1,5.1-4.3c0.7-1.2,2.5-1.2,3.7-0.6c1.1,0.6,0.6,1.8,0.3,2.8c-0.5,1.5-1.1,2.7-2.6,3.5c-0.6,0.7-1.6,1.9-2,2.4
			c-0.8,1.1-0.9,1.1-1.6,2.2c-0.5,0.7-0.9,1.5-1.3,2.2c-0.9,1.4-1.8,2.8-2.8,4.1c-1.3,1.6-2,2.8-1.7,5c0.1,0.5,0.9,1.5,1.4,1.8
			c2.2,1.2,4.6,2.2,6.7,3.6c0.8,0.5,2,1.6,1.4,2.8c-0.2,1-1.4,1.4-2.3,1.6c-2.6,0.6-4.9-0.4-7.1-1.7c-1.3-0.8-2.5-1.7-3.8-2.4
			c-1.7-0.9-2-2.4-2.1-4c0-0.8,0.1-2.4,0.2-3C155,63.6,155.5,61.3,156.3,59.6z"/>
		<path class="st0" d="M98.2,47.4c0.1-0.6,0.2-1.2,0.2-1.8c0.1-1.3,0.7-2.5,1.9-2.6c1.3-0.1,2.6,0.8,3.1,2.3c0.8,2.9,0.7,3,3.7,2.6
			c2.4-0.3,4.1-0.7,6.6-0.7c1,0,2,0.2,2.5,2c1,2.9-3.1,3.2-6.5,2.9c-3.3-0.2-5.5,1.1-5.3,4.5c0,0.6,0,1.8-0.1,2.4
			c-0.5,2.9,0.9,5.2,2.2,7.7c2,3.8,6.9,6.1,11.1,5.1c0.8-0.2,1.4-0.8,2.1-1.2c1-0.7,2-1,3,0c0.9,0.9,1.3,1.7,0.6,3.1
			c-2,3.8-5.6,4.5-8.8,3.7c-1.9-0.5-3.9-0.7-5.8-1.2c-0.8-0.2-1.5-0.8-2.2-1.2c-3.5-2.5-5.5-6-6.9-9.9c-0.3-0.9-0.3-1.9-0.4-2.9
			c-0.3-2.9-0.8-5.8-1-8.8C97.9,51.4,98.2,47.4,98.2,47.4z"/>
		<path class="st0" d="M667.5,74.8c2.4-2.8,5.7-3.6,8.6-4.6c1.2-0.4,2.9-0.5,3.9,0.1c2.5,1.3,4.9,2.8,6,5.8c0.5,1.4,1.7,2.6,2.9,3.6
			c1.7,1.5,1.6,3.6-0.2,4.8c-2,1.3-4,2.5-6.5,2.6c-0.7,0-1.4,0.5-2.1,0.8c-6.2,2.8-12.9-0.6-14.2-7.3c-0.1-0.6-0.1-1.1-0.2-1.7
			C665.6,78.8,666,76.2,667.5,74.8z M678.1,76.9c-1.1,0.1-2.1,0-2.9,0.2c-1.3,0.4-2.1,1.3-1.9,2.7c0.2,1.4,1.5,1.5,2.6,1.5
			c1.1,0,2.2,0,3.2-0.3c0.5-0.1,1.2-0.7,1.2-1.1c0.1-0.7-0.1-1.6-0.5-2.2C679.4,77.3,678.6,77.2,678.1,76.9z"/>
		<path class="st0" d="M200.1,62.8c-0.1-1.9,0.8-4,2.6-6c1-1.6,1-1.3,1.5-1.9c0.1-0.2,0.9-1.1,1.1-1.2c1.8-1.8,3.6-3.6,5.5-5.4
			c0.3-0.3,0.7-0.8,1.2-1.3c1.9-1.9,2.5-2.9,4.1-4.4c0.8-0.8,1.9-1.4,2.9-0.4c1,0.9,1.2,2.4,0.3,3.2c-1.9,1.8-2.4,3-4.6,5.5
			c-0.9,0.7-1.8,1.8-2.4,2.5c-1.9,2.2-4,4.2-5.6,6.6c-0.9,1.3-1.2,2.3-1.1,4.9c0,0.4,0.6,1.2,1,1.3c3.1,1,5.8,3.2,9.4,1.9
			c1.2-0.5,2.6,0.2,3,1.7c0.3,1.5-0.3,2.8-1.8,3.3c-1.5,1-3.3,1.7-5.3,1.2c-1.4-0.4-2.9-0.9-4.2-1.5c-1.4-0.6-2.8-1.2-3.9-2.2
			C201.5,68.5,199.8,65.9,200.1,62.8z"/>
		<path class="st0" d="M550.4,63.3c-1.6-0.4-1.6-1.1-1.9-1.8c-0.6-1.5,0.2-2.8,1.3-3.6c1.3-1,1.9-2.1,2.1-3.6c0.3-1.8-0.5-2.5-2-2.9
			c-2.6-0.6-4.8-1.7-6.3-4c-1-1.6-1.1-3-0.3-4.7c0.8-1.9,1.4-3.9,1.9-5.9c0.5-2,1.5-3.6,3.7-3.9c0.9-0.1,2,0.4,2.7,1
			c0.3,0.2-0.1,1.4-0.3,2.1c-0.4,1.1-1,2.2-1.4,3.4c-0.4,1.2-0.6,2.5-0.9,3.7c-0.4,1.9,0.5,2.9,3.1,3.5c2.7,0.7,5.2,4.3,4.8,7
			c-0.1,0.5-0.2,0.9-0.2,1.4c0.2,3.4-1.7,5.4-4.2,7.2C552.1,62.7,551.2,63.2,550.4,63.3z"/>
		<path class="st0" d="M292.2,64.1c-1.9-0.3-4.1-2.5-4.1-4.6c-0.1-3.3-0.1-6.2-0.1-9.5c0-0.7,0.4-1.8,0.6-2.5c1-3.1,1.9-6.3,3.1-9.4
			c0.7-1.8,3.4-2.4,5.2-1.3c1.4,0.9,1.4,2.2,0.2,4.3c-0.9,1.5-1.8,3.1-2,4.7c-0.7,4.6-2.4,9.3-0.4,14c0.3,0.7,0.4,1.6,0.5,2.4
			C295.2,63.6,294,64.3,292.2,64.1z"/>
		<path class="st0" d="M522,50.9c-2.2-0.6-3.5-1.9-4.5-3.5c-2.4-3.8-4.7-7.5-7.1-11.3c-0.8-1.3-0.5-3,0.9-4c1.4-1.1,2.6-1.1,3.6,0.4
			c1.6,2.2,3,4.5,4.5,6.7c1.5,2.3,3.1,4.6,4.4,7c0.5,0.9,0.8,2.2,0.5,3C524.1,50,523.6,51.1,522,50.9z"/>
		<path class="st0" d="M387.3,64.2c0.3-2,1.9-3.1,3.5-1.9c3.7,2.6,7.9,2.6,12.1,3.3c0.9,0.1,1.9,0.2,2.8,0.4
			c1.8,0.3,2.9,1.3,2.9,2.7c0,1.4-1.2,2.4-3,2.6c-4.2,0.5-8-0.8-12-1.8c-1.3-0.3-2.6-0.6-3.9-1C387.8,67.7,387,66.2,387.3,64.2z"/>
		<path class="st0" d="M342.4,63.8c0-2.5,1.1-2,2-2.3c1.1,0,1.8,0.7,2.6,1.2c2.7,1.7,2,2.4,2.1,5.1c0.1,1.1,0.5,2.2,0.8,3.3
			c0.5,1.8,1.3,3.5,0.6,5.5c-0.8,2.4-3.4,2.3-4.5,0.9c-1.6-2-2.8-4.2-2.8-7c0-1.9-0.1-1.8-0.4-3.7C342.8,66,342.6,65.2,342.4,63.8z"
			/>
		<path class="st0" d="M400.6,46.5c-3.6-1.1-6.2-1.5-9.7-2.7c-1.2-0.4-2.4-1.5-3-2.7c-1.2-2.3,0.2-4.2,2.7-3.7
			c2.1,0.4,4.2,1.2,6.3,1.9c2.1,0.7,4.2,1.6,6.4,2.3c1.9,0.6,3,2.1,2.7,3.7c-0.4,1.5-1.3,1.9-3.5,1.6c-0.2,0-0.6-0.1-1-0.2
			C401.5,46.7,400.6,46.4,400.6,46.5z"/>
		<path class="st0" d="M203,30.7c1.9,0.3,3.3,2.6,3.1,5c-0.1,1-0.3,2.1-0.3,3.1c-0.1,1.7,0,3.4,1.3,4.9c1.2,1.4,1.2,4,0.1,5.1
			c-0.5,0.5-1.6,1-2.2,0.8c-0.7-0.2-1.3-0.9-1.8-1.8c-0.9-1.7-1.4-2.8-2-4.8c-0.1-1.1-0.1-1.7-0.2-2.4c-0.1-2.7-0.3-5.3-0.2-8.2
			C201,30.9,201.5,30.3,203,30.7z"/>
		<path class="st0" d="M306.4,65.9c-1.2-0.2-1.7-1.1-1.8-1.9c-0.2-0.7,0.4-1.8,1-2.4c1.4-1.7,3.4-2.2,5.5-2c3,0.3,5.9,0.9,8.9,1.4
			c1.3,0.2,2,1.5,1.6,2.4c-0.3,0.8-1.6,1.5-2.6,1.6c-1.6,0.2-3.3-0.2-4.9-0.2c-1.5,0-3.1,0.3-4.6,0.5
			C308.5,65.4,308,65.7,306.4,65.9z"/>
		<path class="st0" d="M550.7,29.1c-1.2-0.8-2.4-1.6-3.7-2.1c-1.9-0.8-2.7-2.4-2-4.2c0.5-1.2,1.9-1.2,3.7-1.1c3.7,0.3,5.6,3.5,8.6,5
			c1.3,0.7,1.3,2.3,0.7,3.5c-0.7,1.4-1.7,1.4-3,1.1C554.9,31.4,551.9,29.9,550.7,29.1z"/>
		<path class="st0" d="M310.4,46.6c-1.8-0.4-3.4-0.8-5.1-1.2c-1.8-0.5-2.4-1.5-2.1-3.2c0.2-1.3,1.6-2.3,3.2-2
			c2.9,0.5,5.7,1.2,8.5,1.9c1.3,0.3,2,1.5,1.8,2.6c-0.1,0.8-1.2,1.7-2,1.9C313.4,46.8,311.8,46.6,310.4,46.6z"/>
		<path class="st0" d="M96.6,73.3c-1.6-1.1-3-0.5-5-0.2c-2,0.3-5.8,1.3-8.4,2.9c-1.3,0.8-2.7,0.7-3.7-0.1c-0.6-0.5-0.5-1.4-0.6-2.3
			c-0.1-0.6-0.2-2.8-0.1-3.5c0.1-0.7,0.2-3.1,0.2-6c0-2.2-0.1-4.7-0.3-7c-0.2-2.1-0.6-4-1.1-5.3c-0.7-1.9-1.9-2.6-3.5-1
			c-0.7,1,0.9,4.9,0.1,5.4c-0.7,0.5-2,0.9-2.8,1.5c-2.6,1.8-5.2,3.5-7.8,5.3c-1.2,0.9-1.7,3.2-0.9,4.1c0.8,0.9,3.2,0.9,4.2,0
			c1.2-1.1,2.4-2.1,3.7-3.1c1.4-1.1,2.2-0.8,3,0.8c1.2,2.4,0.7,4.9,0.5,7.4c-0.1,1.3,0,2.7,0.3,4c0.1,0.7,0.4,1.5,0.6,2.2
			c-0.5,0.1-1,0.3-1.5,0.4c-1.6,0.4-1.6,0.3-2.4,0.5c-0.8,0.3-1.1,1.7-0.9,3.1c0.3,1.5,1.3,1.6,1.3,1.6s2.6,0.7,4.5,0.2
			c1.1-0.3,1.9-0.7,2.4-0.9c0.2,0,0.3,0,0.5-0.1c1.6-0.8,2.5-1.4,4.1-2.1c1.3-0.6,2.5-1,4.6-1.8c2-0.8,6.5-1.9,8.6-2.4
			c0.6-0.1,1.4-1,1.5-1.6C97.7,74.6,97.1,73.7,96.6,73.3z"/>
	</g>
</g>
</svg>
