<?xml version="1.0" encoding="utf-8"?>
<!-- Generator: Adobe Illustrator 21.1.0, SVG Export Plug-In . SVG Version: 6.00 Build 0)  -->
<svg version="1.1" id="レイヤー_1" xmlns="http://www.w3.org/2000/svg" xmlns:xlink="http://www.w3.org/1999/xlink" x="0px"
	 y="0px" viewBox="0 0 319 37" style="enable-background:new 0 0 319 37;" xml:space="preserve">
<style type="text/css">
	.st0{fill:#B07DB3;}
	.st1{fill:#FF9366;}
	.st2{fill:#F0C046;}
	.st3{fill:#4FAC63;}
	.st4{fill:#8D93C8;}
	.st5{fill:#69BF9C;}
</style>
<g>
	<path class="st0" d="M0,36.4V0.6h10.8L17.3,25l6.4-24.4h10.8v35.8h-6.7V8.2l-7.1,28.2h-7L6.7,8.2v28.2H0z"/>
	<path class="st1" d="M54.2,36.4V0.6h26.5v6.1H61.5v7.9h18v6h-18v9.7h20v6H54.2z"/>
	<path class="st2" d="M98.3,24.8l7-0.7c0.4,2.4,1.3,4.1,2.6,5.2c1.3,1.1,3,1.7,5.2,1.7c2.3,0,4.1-0.5,5.3-1.5c1.2-1,1.8-2.1,1.8-3.5
		c0-0.8-0.2-1.6-0.7-2.2c-0.5-0.6-1.4-1.1-2.6-1.6c-0.8-0.3-2.8-0.8-5.8-1.6c-3.9-1-6.6-2.1-8.2-3.5c-2.2-2-3.3-4.4-3.3-7.2
		c0-1.8,0.5-3.5,1.6-5.1c1-1.6,2.5-2.8,4.5-3.6s4.3-1.2,7-1.2c4.5,0,7.9,1,10.1,3c2.3,2,3.5,4.6,3.6,7.9l-7.2,0.3
		c-0.3-1.8-1-3.2-2-4c-1-0.8-2.5-1.2-4.6-1.2c-2.1,0-3.7,0.4-4.9,1.3c-0.8,0.6-1.1,1.3-1.1,2.2c0,0.8,0.4,1.6,1.1,2.2
		c0.9,0.8,3.1,1.6,6.6,2.4s6.1,1.7,7.8,2.6c1.7,0.9,3,2.1,4,3.6c1,1.5,1.4,3.4,1.4,5.7c0,2.1-0.6,4-1.7,5.8c-1.1,1.8-2.8,3.1-4.8,4
		c-2.1,0.9-4.7,1.3-7.8,1.3c-4.5,0-8-1-10.4-3.1C100.2,31.8,98.7,28.8,98.3,24.8z"/>
	<path class="st3" d="M144.1,24.8l7-0.7c0.4,2.4,1.3,4.1,2.6,5.2c1.3,1.1,3,1.7,5.2,1.7c2.3,0,4.1-0.5,5.3-1.5
		c1.2-1,1.8-2.1,1.8-3.5c0-0.8-0.2-1.6-0.7-2.2c-0.5-0.6-1.4-1.1-2.6-1.6c-0.8-0.3-2.8-0.8-5.8-1.6c-3.9-1-6.6-2.1-8.2-3.5
		c-2.2-2-3.3-4.4-3.3-7.2c0-1.8,0.5-3.5,1.6-5.1c1-1.6,2.5-2.8,4.5-3.6s4.3-1.2,7-1.2c4.5,0,7.9,1,10.1,3c2.3,2,3.5,4.6,3.6,7.9
		l-7.2,0.3c-0.3-1.8-1-3.2-2-4c-1-0.8-2.5-1.2-4.6-1.2c-2.1,0-3.7,0.4-4.9,1.3c-0.8,0.6-1.1,1.3-1.1,2.2c0,0.8,0.4,1.6,1.1,2.2
		c0.9,0.8,3.1,1.6,6.6,2.4s6.1,1.7,7.8,2.6c1.7,0.9,3,2.1,4,3.6c1,1.5,1.4,3.4,1.4,5.7c0,2.1-0.6,4-1.7,5.8c-1.1,1.8-2.8,3.1-4.8,4
		c-2.1,0.9-4.7,1.3-7.8,1.3c-4.5,0-8-1-10.4-3.1C146,31.8,144.6,28.8,144.1,24.8z"/>
	<path class="st4" d="M224.1,36.4h-7.9l-3.1-8.1h-14.3l-3,8.1h-7.7l13.9-35.8h7.6L224.1,36.4z M210.8,22.2L205.8,9L201,22.2H210.8z"
		/>
	<path class="st5" d="M257.1,23.2v-6h15.6v14.3c-1.5,1.5-3.7,2.8-6.6,3.9c-2.9,1.1-5.8,1.7-8.7,1.7c-3.7,0-7-0.8-9.8-2.4
		c-2.8-1.6-4.9-3.8-6.3-6.7c-1.4-2.9-2.1-6.1-2.1-9.5c0-3.7,0.8-7,2.3-9.9c1.6-2.9,3.8-5.1,6.9-6.7c2.3-1.2,5.2-1.8,8.6-1.8
		c4.4,0,7.9,0.9,10.4,2.8c2.5,1.9,4.1,4.4,4.8,7.7l-7.2,1.3c-0.5-1.8-1.5-3.1-2.8-4.2c-1.4-1-3.1-1.5-5.2-1.5c-3.2,0-5.7,1-7.5,3
		c-1.9,2-2.8,5-2.8,8.9c0,4.2,0.9,7.4,2.8,9.6c1.9,2.1,4.4,3.2,7.4,3.2c1.5,0,3-0.3,4.6-0.9c1.5-0.6,2.8-1.3,3.9-2.2v-4.5H257.1z"/>
	<path class="st0" d="M291.8,36.4V0.6h26.5v6.1H299v7.9h18v6h-18v9.7h20v6H291.8z"/>
</g>
</svg>
