<?xml version="1.0" encoding="utf-8"?>
<!-- Generator: Adobe Illustrator 21.1.0, SVG Export Plug-In . SVG Version: 6.00 Build 0)  -->
<svg version="1.1" id="レイヤー_1" xmlns="http://www.w3.org/2000/svg" xmlns:xlink="http://www.w3.org/1999/xlink" x="0px"
	 y="0px" viewBox="0 0 98.5 29.2" style="enable-background:new 0 0 98.5 29.2;" xml:space="preserve">
<style type="text/css">
	.st0{fill:#FF6B3D;}
</style>
<g>
	<path class="st0" d="M3.1,22.3c0-0.7,0-1.1-0.1-1.5c0.4,0,0.9,0.1,1.2,0.2c0.1,0,0.2,0.1,0.2,0.2c0,0,0,0.1,0,0.1
		c-0.1,0.2-0.1,0.4-0.1,1v2c0,0.5,0,0.9,0,1.3c0,0.2-0.1,0.2-0.2,0.2H3.3c-0.1,0-0.2,0-0.2-0.2c0-0.3,0-0.9,0-1.4V22.3z M7.8,24.2
		c0,1.5-0.2,2.5-0.8,3.3c-0.5,0.6-1.4,1.3-2.2,1.6c-0.1,0-0.1,0-0.2,0c-0.1,0-0.2,0-0.2-0.1c-0.2-0.2-0.5-0.4-0.8-0.6
		C4.6,28,5.4,27.6,6,26.9c0.5-0.6,0.7-1.4,0.7-2.7v-1.9c0-0.9,0-1.2-0.1-1.6c0.5,0,1,0.1,1.3,0.2C7.9,21,8,21,8,21.1
		c0,0,0,0.1,0,0.2c-0.1,0.2-0.1,0.5-0.1,1.1V24.2z"/>
	<path class="st0" d="M14.5,24c0.9-0.3,1.6-0.6,2.4-1c0.5-0.3,0.8-0.4,1.1-0.7c0.4,0.3,0.7,0.7,0.8,0.9c0,0.1,0.1,0.1,0.1,0.2
		c0,0.1,0,0.2-0.2,0.2c-0.3,0.1-0.6,0.2-0.8,0.3c-1,0.5-2.1,0.8-3.4,1.2v1.3c0,0.5,0.1,0.6,0.3,0.7c0.3,0.1,0.6,0.1,1.3,0.1
		c0.9,0,1.8-0.1,2.8-0.2c0.2,0,0.2,0,0.2,0.1c0,0.3,0.1,0.7,0.1,0.9c0,0.1-0.1,0.2-0.2,0.2c-1.1,0.1-1.7,0.2-3,0.2
		c-0.9,0-1.5-0.1-1.9-0.3c-0.5-0.2-0.7-0.7-0.7-1.5V23c0-0.9,0-1.3-0.1-1.8c0.5,0.1,0.9,0.1,1.3,0.2c0.1,0,0.2,0.1,0.2,0.2
		c0,0.1,0,0.1-0.1,0.2c-0.1,0.2-0.1,0.4-0.1,0.9V24z M18.7,21.2c0,0,0.1,0,0.2,0c0.3,0.2,0.7,0.6,0.9,1.1c0,0.1,0,0.1,0,0.2
		l-0.4,0.3c-0.1,0-0.1,0-0.2,0c-0.3-0.5-0.6-0.8-1-1.2L18.7,21.2z M19.6,20.5c0.1,0,0.1,0,0.2,0c0.4,0.3,0.7,0.7,0.9,1
		c0,0.1,0,0.1,0,0.2L20.3,22c-0.1,0.1-0.1,0-0.2,0c-0.3-0.4-0.6-0.8-1-1.1L19.6,20.5z"/>
	<path class="st0" d="M24.8,23.5c0.1,0,0.2,0,0.3,0.1c0.3,0.4,0.7,0.9,0.9,1.5c0,0.1,0,0.1,0,0.1c0,0.1,0,0.1-0.1,0.1
		c-0.2,0.1-0.4,0.2-0.6,0.3c-0.1,0-0.2,0-0.2-0.1c-0.2-0.6-0.5-1.1-0.9-1.6C24.3,23.7,24.6,23.6,24.8,23.5z M30.3,23.6
		c0.1,0.1,0.1,0.1,0.1,0.2c0,0.1,0,0.1-0.1,0.2c-0.2,0.1-0.2,0.3-0.3,0.5c-0.4,1-1,1.9-1.5,2.7c-0.7,0.8-1.2,1.4-2.1,1.9
		c-0.1,0.1-0.2,0.1-0.2,0.1c0,0-0.1,0-0.2-0.1c-0.2-0.2-0.5-0.3-0.8-0.4c1.2-0.8,1.8-1.3,2.4-2.1c0.5-0.6,1.1-1.6,1.3-2.4
		c0.1-0.4,0.2-0.6,0.2-1.1C29.6,23.3,30,23.4,30.3,23.6z M26.8,23c0.1,0,0.2,0,0.3,0.1c0.3,0.3,0.6,1,0.8,1.5c0,0.2,0,0.2-0.1,0.3
		c-0.2,0.1-0.4,0.2-0.7,0.3c-0.1,0-0.2,0-0.2-0.2c-0.2-0.6-0.5-1.1-0.8-1.6C26.4,23.2,26.6,23.1,26.8,23z"/>
	<path class="st0" d="M37.1,23.5c1.2,0.4,2.2,0.8,3.2,1.4c0.1,0.1,0.2,0.1,0.1,0.3c-0.1,0.3-0.3,0.6-0.4,0.9c0,0.1-0.1,0.1-0.1,0.1
		c0,0-0.1,0-0.1,0c-0.9-0.6-1.8-1-2.6-1.3v2.2c0,0.6,0,1.2,0,2c0,0.1,0,0.2-0.2,0.2c-0.3,0-0.6,0-0.9,0c-0.1,0-0.2,0-0.2-0.2
		c0-0.7,0-1.3,0-2V22c0-0.8,0-1.1-0.1-1.5c0.5,0,1,0.1,1.2,0.2c0.1,0,0.2,0.1,0.2,0.2c0,0.1,0,0.1-0.1,0.2c-0.1,0.1-0.1,0.4-0.1,0.9
		V23.5z"/>
	<path class="st0" d="M46.9,22.1c-0.1-0.5-0.2-0.9-0.4-1.2c0.4,0,0.9-0.1,1.3,0c0.1,0,0.2,0.1,0.2,0.2c0,0.1-0.1,0.3,0,0.7l0.1,0.8
		l0.8-0.1c0.6-0.1,1-0.2,1.5-0.3c0,0,0.1,0,0.1,0.1c0.1,0.3,0.1,0.5,0.2,0.9c0,0.1,0,0.1-0.1,0.1c-0.5,0.1-0.9,0.1-1.4,0.2l-0.9,0.2
		l0.2,1.3l1.4-0.2c0.7-0.1,1.2-0.2,1.6-0.3c0.1,0,0.2,0,0.2,0.1c0.1,0.2,0.1,0.5,0.2,0.8c0,0.1,0,0.2-0.2,0.2
		c-0.3,0-0.9,0.1-1.6,0.3l-1.4,0.2l0.2,1.1c0.1,0.7,0.3,1.3,0.4,1.8c0,0,0,0.1-0.1,0.1c-0.2,0.1-0.6,0.2-0.9,0.2
		c-0.1,0-0.2,0-0.2-0.1c-0.1-0.4-0.2-1.1-0.3-1.7L47.7,26l-1.4,0.2c-0.7,0.1-1.2,0.2-1.6,0.3c-0.1,0-0.2,0-0.2-0.1
		c-0.1-0.3-0.2-0.7-0.3-1c0.6-0.1,1.1-0.1,1.9-0.3l1.4-0.2l-0.2-1.3l-0.9,0.2c-0.5,0.1-1.2,0.2-1.5,0.3c-0.1,0-0.1,0-0.2-0.1
		c-0.1-0.2-0.2-0.7-0.3-1c0.5,0,1.1-0.1,1.8-0.2l0.9-0.1L46.9,22.1z M50.9,20.8c0,0,0.1,0,0.2,0c0.3,0.2,0.7,0.6,0.9,1.1
		c0,0.1,0,0.1,0,0.2l-0.4,0.3c-0.1,0-0.1,0-0.2,0c-0.3-0.5-0.6-0.8-1-1.2L50.9,20.8z M51.7,20.1c0.1,0,0.1,0,0.2,0
		c0.4,0.3,0.7,0.7,0.9,1c0,0.1,0,0.1,0,0.2l-0.4,0.3c-0.1,0.1-0.1,0-0.2,0c-0.3-0.4-0.6-0.8-1-1.1L51.7,20.1z"/>
	<path class="st0" d="M57.7,25.6c-0.3,0.1-0.8,0.2-1.1,0.4c-0.1,0-0.1,0.1-0.2,0.1c-0.1,0-0.1,0-0.2-0.1c-0.1-0.2-0.2-0.5-0.3-0.9
		c0.5-0.1,1-0.2,1.5-0.3l0.6-0.2l-0.2-0.8c-0.1-0.3-0.2-0.6-0.4-1c0.4,0,0.9-0.1,1.2-0.1c0.2,0,0.2,0.1,0.2,0.2c0,0.2,0,0.4,0.1,0.7
		l0.2,0.7l2.2-0.5c0.2-0.1,0.4-0.1,0.5-0.2c0,0,0.1-0.1,0.1-0.1c0,0,0.1,0,0.2,0.1c0.2,0.1,0.4,0.3,0.6,0.5c0,0,0.1,0.1,0.1,0.1
		c0,0.1,0,0.1-0.1,0.2c-0.1,0.1-0.1,0.1-0.2,0.2c-0.4,0.7-0.7,1.3-1.1,1.9c0,0.1-0.1,0.1-0.1,0.1c0,0-0.1,0-0.2,0
		c-0.2-0.1-0.4-0.2-0.8-0.3c0.4-0.5,0.8-1,1.1-1.5l-1.9,0.5l0.5,1.8c0.2,0.6,0.3,1.1,0.5,1.7c0,0.1,0,0.2-0.1,0.3
		c-0.2,0.1-0.4,0.2-0.7,0.2c-0.1,0-0.2,0-0.2-0.2c-0.1-0.6-0.3-1.1-0.4-1.7l-0.5-1.8L57.7,25.6z"/>
	<path class="st0" d="M68.4,24.2c-0.5,0-1,0-1.5,0c-0.1,0-0.1-0.1-0.2-0.2c-0.1-0.2-0.1-0.6-0.1-1c0.6,0.1,1.2,0.1,1.8,0.1h3.4
		c0.2,0,0.4,0,0.5-0.1c0,0,0.1-0.1,0.1-0.1c0,0,0.1,0,0.1,0.1c0.2,0.2,0.5,0.4,0.7,0.6c0.1,0.1,0.1,0.1,0.1,0.2c0,0.1,0,0.1-0.1,0.2
		c-0.2,0.1-0.2,0.2-0.3,0.5c-1,2.1-2.1,3.4-4.1,4.4c-0.1,0-0.1,0.1-0.2,0.1c-0.1,0-0.1,0-0.2-0.1c-0.3-0.2-0.6-0.4-0.9-0.5
		c1.8-0.9,3.5-2.2,4.2-4.2L68.4,24.2z M69.1,22.1c-0.5,0-1,0-1.4,0c-0.1,0-0.1-0.1-0.1-0.2c0-0.2,0-0.6,0-1c0.6,0.1,0.9,0.1,1.6,0.1
		h1.8c0.6,0,1.2,0,1.6-0.1c0.1,0,0.1,0.1,0.1,0.2c0,0.2,0,0.5,0,0.8c0,0.2,0,0.2-0.2,0.2c-0.3,0-0.8,0-1.4,0H69.1z"/>
	<path class="st0" d="M78.4,22.3c0-0.7,0-1.1-0.1-1.5c0.4,0,0.9,0.1,1.2,0.2c0.1,0,0.2,0.1,0.2,0.2c0,0,0,0.1,0,0.1
		c-0.1,0.2-0.1,0.4-0.1,1v2c0,0.5,0,0.9,0,1.3c0,0.2-0.1,0.2-0.2,0.2h-0.8c-0.1,0-0.2,0-0.2-0.2c0-0.3,0-0.9,0-1.4V22.3z M83.1,24.2
		c0,1.5-0.2,2.5-0.8,3.3c-0.5,0.6-1.4,1.3-2.2,1.6c-0.1,0-0.2,0-0.2,0c-0.1,0-0.1,0-0.2-0.1c-0.2-0.2-0.5-0.4-0.8-0.6
		c1.1-0.3,1.9-0.8,2.4-1.5c0.5-0.6,0.7-1.4,0.7-2.7v-1.9c0-0.9,0-1.2-0.1-1.6c0.5,0,1,0.1,1.3,0.2c0.1,0,0.1,0.1,0.1,0.2
		c0,0,0,0.1,0,0.2c-0.1,0.2-0.1,0.5-0.1,1.1V24.2z"/>
	<path class="st0" d="M89.8,25.5c-1,0-1.4,0.1-1.5,0.1c-0.1,0-0.2-0.1-0.2-0.2c0-0.2-0.1-0.7-0.2-1.2c0.7,0.1,1.1,0.1,2.2,0.1h3.2
		c0.8,0,1.5,0,2.3,0c0.2,0,0.2,0,0.2,0.1c0,0.3,0,0.6,0,0.9c0,0.1,0,0.2-0.2,0.1c-0.7,0-1.5,0-2.2,0H89.8z"/>
</g>
<g>
	<path class="st0" d="M8,4.1C7.7,2.6,6.9,1.7,5.4,1.7c-1.9,0-3.2,1.6-3.2,4.8c0,3.2,1.2,4.8,3.1,4.8c1.7,0,2.6-1.4,2.8-3.4H5.3V6.2
		h4.9v6.5H8.8l-0.2-1.8c-0.6,1.3-1.8,2-3.3,2C2.1,12.9,0,10.6,0,6.5C0,2.4,2.2,0,5.4,0C8,0,9.6,1.4,10.1,3.6L8,4.1z"/>
	<path class="st0" d="M26,12.6h-2.3L22.7,9h-3.8l-1.1,3.6h-2l3.8-12.4h2.6L26,12.6z M21.6,4.9c-0.3-1-0.5-1.9-0.7-3.1h-0.1
		c-0.3,1.2-0.5,2.1-0.8,3l-0.7,2.5h3L21.6,4.9z"/>
	<path class="st0" d="M34.1,10.9h5.8v1.7h-8V0.2h2.2V10.9z"/>
	<path class="st0" d="M48,10.9h5.8v1.7h-8V0.2H48V10.9z"/>
	<path class="st0" d="M68.1,1.9h-6v3.3h4.6v1.7H62v4h6.2v1.7h-8.3V0.2h8.2V1.9z"/>
	<path class="st0" d="M78.7,0.2c3,0,4.4,1.2,4.4,3.4c0,1.5-0.9,2.7-2.5,3.2l2.9,5.9h-2.3l-2.5-5.6c-0.2,0-0.4,0-0.6,0h-1.8v5.6h-2.1
		V0.2H78.7z M76.3,5.5h2.2c1.7,0,2.4-0.7,2.4-1.9c0-1.1-0.6-1.8-2.3-1.8h-2.3V5.5z"/>
	<path class="st0" d="M94.5,7.5v5.1h-2.2V7.5l-4-7.3h2.4l2.5,4.6c0.2,0.3,0.2,0.5,0.4,0.8c0.1-0.3,0.2-0.5,0.4-0.8l2.4-4.6h2.2
		L94.5,7.5z"/>
</g>
</svg>
