<?xml version="1.0" encoding="utf-8"?>
<!-- Generator: Adobe Illustrator 21.1.0, SVG Export Plug-In . SVG Version: 6.00 Build 0)  -->
<svg version="1.1" id="レイヤー_1" xmlns="http://www.w3.org/2000/svg" xmlns:xlink="http://www.w3.org/1999/xlink" x="0px"
	 y="0px" viewBox="0 0 112.4 37.4" style="enable-background:new 0 0 112.4 37.4;" xml:space="preserve">
<style type="text/css">
	.st0{fill:#FF6B3D;}
</style>
<g>
	<path class="st0" d="M68.3,12.5c-1.5-0.8-3.5-0.3-4.3,1.3l-8.5,15.5c-0.7,1.1-1.6,1.8-2.4,1.8c-0.8,0-1.7-0.6-2.4-1.8l-8.5-15.5
		c-0.8-1.5-2.8-2.1-4.3-1.3c-1.5,0.8-2.1,2.8-1.3,4.3l8.5,15.6c0,0.1,0.1,0.1,0.1,0.2c2,3.1,4.8,4.8,7.8,4.8c3,0,5.9-1.8,7.8-4.8
		c0-0.1,0.1-0.1,0.1-0.2l8.5-15.6C70.4,15.3,69.9,13.3,68.3,12.5"/>
	<path class="st0" d="M109.2,12.1H92c-1.8,0-3.2,1.4-3.2,3.2c0,1.8,1.4,3.2,3.2,3.2h5.4v15.8c0,1.8,1.4,3.2,3.2,3.2
		c1.8,0,3.2-1.4,3.2-3.2V18.5h5.4c1.8,0,3.2-1.4,3.2-3.2C112.4,13.5,111,12.1,109.2,12.1"/>
	<path class="st0" d="M26.7,12.1c-1.8,0-3.2,1.4-3.2,3.2v19c0,1.8,1.4,3.2,3.2,3.2c1.8,0,3.2-1.4,3.2-3.2v-19
		C29.9,13.5,28.5,12.1,26.7,12.1"/>
	<path class="st0" d="M30.9,0c-2.3,0-4.2,1.9-4.2,4.2c0,2.3,1.9,4.2,4.2,4.2c2.3,0,4.2-1.9,4.2-4.2C35.1,1.9,33.2,0,30.9,0"/>
	<path class="st0" d="M79.5,12.1c-1.8,0-3.2,1.4-3.2,3.2v19c0,1.8,1.4,3.2,3.2,3.2c1.8,0,3.2-1.4,3.2-3.2v-19
		C82.7,13.5,81.3,12.1,79.5,12.1"/>
	<path class="st0" d="M79.5,4.2c0-2.3-1.9-4.2-4.2-4.2c-2.3,0-4.2,1.9-4.2,4.2c0,2.3,1.9,4.2,4.2,4.2C77.7,8.4,79.5,6.5,79.5,4.2"/>
	<path class="st0" d="M14.6,31h-4.3c-2.2,0-3.9-1.8-3.9-3.9V15.3c0-1.8-1.4-3.2-3.2-3.2c-1.8,0-3.2,1.4-3.2,3.2v11.8
		c0,5.7,4.6,10.3,10.3,10.3h4.3c1.8,0,3.2-1.4,3.2-3.2C17.8,32.5,16.3,31,14.6,31"/>
</g>
</svg>
