<?xml version="1.0" encoding="utf-8"?>
<!-- Generator: Adobe Illustrator 21.1.0, SVG Export Plug-In . SVG Version: 6.00 Build 0)  -->
<svg version="1.1" id="レイヤー_1" xmlns="http://www.w3.org/2000/svg" xmlns:xlink="http://www.w3.org/1999/xlink" x="0px"
	 y="0px" viewBox="0 0 40 40" style="enable-background:new 0 0 40 40;" xml:space="preserve">
<style type="text/css">
	.st0{fill:#1DA1F2;}
	.st1{fill:#FFFFFF;}
</style>
<g>
	<g id="Dark_Blue">
		<circle class="st0" cx="20" cy="20" r="20"/>
	</g>
	<g id="Logo__x2014__FIXED">
		<path class="st1" d="M16.3,30.5c8.9,0,13.7-7.3,13.7-13.7c0-0.2,0-0.4,0-0.6c0.9-0.7,1.8-1.5,2.4-2.5c-0.9,0.4-1.8,0.6-2.8,0.8
			c1-0.6,1.8-1.5,2.1-2.7c-0.9,0.6-2,1-3.1,1.2c-0.9-0.9-2.1-1.5-3.5-1.5c-2.7,0-4.8,2.2-4.8,4.8c0,0.4,0,0.8,0.1,1.1
			c-4-0.2-7.6-2.1-9.9-5c-0.4,0.7-0.6,1.5-0.6,2.4c0,1.7,0.8,3.1,2.1,4c-0.8,0-1.5-0.2-2.2-0.6c0,0,0,0,0,0.1c0,2.3,1.7,4.3,3.9,4.7
			c-0.4,0.1-0.8,0.2-1.3,0.2c-0.3,0-0.6,0-0.9-0.1c0.6,1.9,2.4,3.3,4.5,3.3c-1.6,1.3-3.7,2.1-6,2.1c-0.4,0-0.8,0-1.1-0.1
			C11.1,29.8,13.6,30.5,16.3,30.5"/>
	</g>
</g>
</svg>
