<svg xmlns="http://www.w3.org/2000/svg" viewBox="0 0 124.11 105.94"><defs><style>.cls-1{fill:#bebfbc;}.cls-2{fill:#343333;}</style></defs><title>アセット 14</title><g id="レイヤー_2" data-name="レイヤー 2"><g id="デザイン"><polygon class="cls-1" points="124.11 52.97 94.93 2.4 94.82 2.21 93.54 0 90.77 0 90.77 0 33.34 0 30.57 0 0 52.97 29.71 104.46 30.57 105.94 93.54 105.94 94.93 103.54 94.93 103.54 124.11 52.97"/><path class="cls-2" d="M57.83,32.08a.5.5,0,0,1,.15.31.39.39,0,0,1-.27.36,3.43,3.43,0,0,0-.91.66c-1.63,1.47-3.72,3.42-5.19,4.94-.17.21-.24.33-.24.42s.07.21.24.34a52.73,52.73,0,0,1,7.07,6,.41.41,0,0,1,.13.24.29.29,0,0,1-.13.23c-.44.48-1,1-1.31,1.31a.44.44,0,0,1-.27.15c-.07,0-.13-.05-.22-.17A48.2,48.2,0,0,0,50,40.44c-.72-.55-1-1-1-1.59s.34-1.05.93-1.67c1.61-1.75,3.19-3.33,4.82-5.12a5.69,5.69,0,0,0,1-1.42A16.24,16.24,0,0,1,57.83,32.08Z"/><path class="cls-2" d="M67.75,38.18a7.69,7.69,0,0,1,3.89-1.08,4.23,4.23,0,0,1,4.58,4.31c0,3.1-2.7,5.15-7.37,5.85-.38.08-.55.1-.74-.26a4.31,4.31,0,0,0-1.31-1.45c4.59-.59,7.12-2.07,7.12-4.39,0-1.55-1.16-2.33-2.74-2.33a9,9,0,0,0-5.79,2.43,18.22,18.22,0,0,0-1.86,1.88c-.1.11-.21.21-.31.21a.36.36,0,0,1-.24-.13,8.81,8.81,0,0,1-1.1-1.16c-.08-.1-.14-.17-.14-.23s.06-.15.16-.23c1.38-1.27,2.33-2.26,3.47-3.46s2.53-2.81,4.39-5l-3.63.76a5.35,5.35,0,0,0-.74.25.86.86,0,0,1-.4.13c-.13,0-.26-.12-.38-.36a11.23,11.23,0,0,1-.74-2,21.09,21.09,0,0,0,2.51-.11c1.16-.13,2.64-.34,3.66-.53a2.3,2.3,0,0,0,1-.34.54.54,0,0,1,.34-.14.51.51,0,0,1,.34.16A5.71,5.71,0,0,1,73,32.2a.54.54,0,0,1,.13.34.63.63,0,0,1-.4.53,4.38,4.38,0,0,0-.74.61c-1.48,1.56-2.85,2.91-4.35,4.43Z"/><path class="cls-2" d="M37.76,60a1.69,1.69,0,0,0,1-.23.45.45,0,0,1,.25-.07.55.55,0,0,1,.3.11,9.07,9.07,0,0,1,1.3,1,.6.6,0,0,1,.24.43.51.51,0,0,1-.23.4,2.37,2.37,0,0,0-.62.82,26.18,26.18,0,0,1-3.76,5.87,24.23,24.23,0,0,1-5.78,4.73.49.49,0,0,1-.3.1.69.69,0,0,1-.44-.21,5,5,0,0,0-1.8-.88,21.87,21.87,0,0,0,6.32-4.84,19.41,19.41,0,0,0,3.52-5.4l-4.6.14a26.44,26.44,0,0,1-3.59,3.89.61.61,0,0,1-.4.21.5.5,0,0,1-.29-.11A4.89,4.89,0,0,0,27,65.19a22.53,22.53,0,0,0,5.11-5.64A8.16,8.16,0,0,0,33.24,57a9.35,9.35,0,0,1,2.22,1,.37.37,0,0,1,.19.32.38.38,0,0,1-.2.33,2,2,0,0,0-.48.51l-.63,1Zm2.36-2.56c.09-.08.17-.06.28,0a8.75,8.75,0,0,1,1.81,2,.19.19,0,0,1-.06.3l-.8.59c-.13.1-.22.08-.32-.06a9.56,9.56,0,0,0-1.92-2.2Zm1.69-1.24c.11-.07.17,0,.28,0a7.75,7.75,0,0,1,1.81,2,.22.22,0,0,1-.06.34l-.76.59c-.15.11-.24.05-.32-.06a8.72,8.72,0,0,0-1.9-2.18Z"/><path class="cls-2" d="M50.06,60c.32.1.36.32.24.59a2.86,2.86,0,0,0-.22,1.29,14.21,14.21,0,0,1-1,5.59,9.73,9.73,0,0,1-2.7,3.57.88.88,0,0,1-.49.25.63.63,0,0,1-.36-.16,6.61,6.61,0,0,0-1.62-.79A9.49,9.49,0,0,0,47,66.58c.53-1.3.78-2.34.79-5.38a4.92,4.92,0,0,0-.19-1.6A16.52,16.52,0,0,1,50.06,60Zm4.21,8A18.68,18.68,0,0,0,57,66.29a18.28,18.28,0,0,0,3.33-3.23A5.21,5.21,0,0,0,60.89,65a1.1,1.1,0,0,1,.11.32c0,.14-.08.27-.29.48a23.67,23.67,0,0,1-2.81,2.49,30.87,30.87,0,0,1-3.38,2.28,5.81,5.81,0,0,0-.55.39.59.59,0,0,1-.38.16.8.8,0,0,1-.4-.16,5.4,5.4,0,0,1-1.14-1.15.8.8,0,0,1-.17-.4A.58.58,0,0,1,52,69.1c.13-.25.11-.47.11-1.44V61.71a15.11,15.11,0,0,0-.19-3.3,17.56,17.56,0,0,1,2.38.4c.24,0,.34.17.34.32a1.3,1.3,0,0,1-.15.47,5,5,0,0,0-.18,2.11Z"/><path class="cls-2" d="M67,66.2a15.68,15.68,0,0,0-2.79.22c-.23,0-.38-.11-.44-.4a20,20,0,0,1-.29-2.29,24.65,24.65,0,0,0,4.11.22h6.11c1.45,0,2.91,0,4.37-.05.29,0,.35,0,.35.26a17.81,17.81,0,0,1,0,1.79c0,.23-.08.3-.35.28l-4.23,0Z"/><path class="cls-2" d="M84.73,61.26c-1.23,0-2.31.05-3.13.09-.25,0-.33-.11-.36-.38s-.14-1.37-.17-1.92a31.45,31.45,0,0,0,3.64.14H91.5a1.82,1.82,0,0,0,1-.19.58.58,0,0,1,.32-.12.45.45,0,0,1,.33.14,6.64,6.64,0,0,1,1.29,1.31.65.65,0,0,1,.15.38.55.55,0,0,1-.19.36,2.27,2.27,0,0,0-.44.74A22.44,22.44,0,0,1,90.32,68a21.38,21.38,0,0,1-5.4,4.52.87.87,0,0,1-.51.17.69.69,0,0,1-.48-.2,5.44,5.44,0,0,0-1.76-1,18.5,18.5,0,0,0,6.21-4.75,16.08,16.08,0,0,0,3.21-5.41Zm13.13-3.65a2.05,2.05,0,0,1-4.1,0,2,2,0,0,1,2-2A2,2,0,0,1,97.86,57.61Zm-3.17,0a1.12,1.12,0,1,0,1.12-1.12A1.08,1.08,0,0,0,94.69,57.61Z"/></g></g></svg>