<svg xmlns="http://www.w3.org/2000/svg" viewBox="0 0 358.66 18.79"><defs><style>.cls-1{fill:#333;}.cls-2{fill:none;stroke:#333;stroke-miterlimit:10;stroke-width:0.96px;}</style></defs><title>block14-03_2</title><g id="レイヤー_2" data-name="レイヤー 2"><g id="デザイン"><path class="cls-1" d="M32,15.46h7.28v2.18h-10V2.12H32Z" transform="translate(0 -0.58)"/><path class="cls-1" d="M49.15,4.7H46.43V2.12h2.72Zm-.1,12.94H46.53v-11h2.52Z" transform="translate(0 -0.58)"/><path class="cls-1" d="M64.17,17.64H60.81L56.11,2.12H59l2,7.3c.58,2,1,3.84,1.46,5.74h.28c.44-1.86.88-3.66,1.44-5.66l2-7.38h2.66Z" transform="translate(0 -0.58)"/><path class="cls-1" d="M78.59,4.7H75.87V2.12h2.72Zm-.1,12.94H76v-11h2.52Z" transform="translate(0 -0.58)"/><path class="cls-1" d="M97.63,4.3H93V17.64H90.29V4.3H85.71V2.12H97.63Z" transform="translate(0 -0.58)"/><path class="cls-1" d="M107.55,12.7a20,20,0,0,1-.44,2.18A13.17,13.17,0,0,1,105.73,18c-.14.24-.24.36-.34.36s-.2-.12-.4-.36a4.93,4.93,0,0,0-1.16-1.1,9.86,9.86,0,0,0,1.62-3.46,16.1,16.1,0,0,0,.44-4.1c0-1.46,0-2,0-2.24s0-.22.2-.22.68,0,2.3,0h3.24c1.62,0,2.18,0,2.28,0s.22,0,.22.22,0,.52,0,1.62v2.16c0,1.06,0,1.48,0,1.6s0,.22-.22.22-.66,0-2.28,0Zm.38-7.52A15.08,15.08,0,0,1,105.39,7a1.29,1.29,0,0,1-.46.2c-.14,0-.2-.16-.34-.46a4.75,4.75,0,0,0-.74-1.26,11.79,11.79,0,0,0,4.68-3.72,4.15,4.15,0,0,0,.58-1c.66.1,1.2.2,1.84.34.16,0,.26.1.26.26s-.06.18-.2.26a10.86,10.86,0,0,0,4.34,3,4.85,4.85,0,0,0-.66,1.28c-.12.34-.18.48-.3.48a1.09,1.09,0,0,1-.44-.18,12,12,0,0,1-1.68-1.08V6c0,.2,0,.22-.22.22s-.36,0-1.36,0h-1.16c-1,0-1.24,0-1.36,0s-.24,0-.24-.22Zm6.54,11.26c0,1.74,0,2.22,0,2.34s0,.2-.22.2h-1.5c-.2,0-.22,0-.22-.2v-.46h-3.24v.6c0,.2,0,.22-.22.22h-1.44c-.2,0-.22,0-.22-.22s0-.58,0-2.36V15.42c0-.92,0-1.34,0-1.48s0-.22.22-.22.6,0,2.1,0h2.42c1.48,0,2,0,2.1,0s.22,0,.22.22,0,.54,0,1.24Zm-2.26-6h-4.44l-.06.8h4.5Zm-4.42-2.12v.78h4.42V8.36Zm2.9-3.64c.62,0,.94,0,1.12,0A11.83,11.83,0,0,1,110,2.88a15.16,15.16,0,0,1-1.58,1.82c.2,0,.52,0,1.08,0Zm-1.36,10.5v1.64h3.24V15.22Zm6.46-9.68a18.41,18.41,0,0,0-.14-3c.72,0,1.34.06,2,.14.18,0,.26.1.26.22a1.8,1.8,0,0,1-.12.44,13.65,13.65,0,0,0-.06,2.14V11c0,1.7,0,2.52,0,2.64s0,.24-.2.24H116c-.18,0-.2,0-.2-.24s0-.94,0-2.64Zm5.78,6.86c0,1.4,0,3,0,4s-.14,1.56-.72,2-1.14.5-3,.5c-.6,0-.6,0-.74-.64a4.41,4.41,0,0,0-.64-1.52,19.52,19.52,0,0,0,2.16.1c.64,0,.88-.16.88-.8V4a17,17,0,0,0-.16-2.86c.74,0,1.42.06,2.12.14.2,0,.3.12.3.22a1.42,1.42,0,0,1-.1.44,6.14,6.14,0,0,0-.12,2Z" transform="translate(0 -0.58)"/><path class="cls-1" d="M132,18.18c-1.76,0-2.36,0-2.48,0s-.2,0-.2-.22V16.32c0-.2,0-.22.2-.22s.72,0,2.48,0h7a62.07,62.07,0,0,0,2.24-7,12.41,12.41,0,0,0,.32-1.92,19.71,19.71,0,0,1,2.28.68c.18.06.24.16.24.28a.6.6,0,0,1-.2.4,2.13,2.13,0,0,0-.38.8c-.7,2.4-1.46,4.6-2.3,6.74h3.38c1.76,0,2.36,0,2.48,0s.22,0,.22.22V18c0,.2,0,.22-.22.22s-.72,0-2.48,0Zm1.12-11.8c-1.88,0-2.54,0-2.66,0s-.22,0-.22-.24V4.56c0-.22,0-.24.22-.24s.78,0,2.66,0h4V2.82A7.79,7.79,0,0,0,136.89,1c.74,0,1.48,0,2.2.1.18,0,.32.12.32.22a1.13,1.13,0,0,1-.12.4,3.63,3.63,0,0,0-.1,1.12V4.36h4.28c1.9,0,2.56,0,2.68,0s.22,0,.22.24V6.18c0,.22,0,.24-.22.24s-.78,0-2.68,0Zm1.16,1c.26-.1.3-.08.38.12a27,27,0,0,1,2,6.72c0,.2,0,.26-.24.34l-1.56.52c-.28.1-.34.08-.38-.14a25.29,25.29,0,0,0-1.88-6.72c-.08-.2-.06-.22.22-.32Z" transform="translate(0 -0.58)"/><path class="cls-1" d="M154.23,5.42a4.4,4.4,0,0,1,4.62-3.3c2.78,0,4.58,1.62,4.58,3.84a3.32,3.32,0,0,1-2.92,3.44v.14a3.71,3.71,0,0,1,3.22,3.84c0,2.7-2,4.54-4.88,4.54-2.52,0-4.18-1-4.86-3.38l2.46-.72c.34,1.54,1.06,2.16,2.38,2.16a2.28,2.28,0,0,0,2.34-2.58c0-1.74-.82-2.76-3-2.76h-1.16v-2h1.06c2,0,2.8-.86,2.8-2.4a1.94,1.94,0,0,0-2.1-2.14,2.11,2.11,0,0,0-2.12,2.1Z" transform="translate(0 -0.58)"/><path class="cls-1" d="M180.25,10c0,5.66-1.72,8-4.84,8s-4.78-2.26-4.78-7.92,1.74-7.88,4.82-7.88S180.25,4.32,180.25,10Zm-7,0c0,4.5.62,6,2.2,6s2.26-1.48,2.26-6-.62-5.88-2.22-5.88S173.21,5.46,173.21,10Z" transform="translate(0 -0.58)"/><path class="cls-1" d="M192.79,17.46c-.2,0-.22,0-.22-.22s0-.56,0-2.86v-1c0-1.14,0-1.62,0-1.76s0-.2.22-.2.64,0,2.14,0h2.64c1.5,0,2,0,2.14,0s.22,0,.22.2,0,.58,0,1.46v1.14c0,2,0,2.52,0,2.7.5,0,1,0,1.36,0s.64-.22.64-.68V3.68H190.87V8.34c0,5.54-.58,8-1.92,10.36-.16.26-.22.4-.32.4s-.16-.12-.34-.34a4.93,4.93,0,0,0-1.44-1.16c1.38-2.18,1.9-4.28,1.9-9.18V5.2c0-2.06,0-3.12,0-3.26s0-.22.22-.22.82,0,2.76,0h9.44c1.92,0,2.6,0,2.74,0s.22,0,.22.22,0,1.2,0,3.26v8.92c0,.92,0,1.94,0,2.76a1.93,1.93,0,0,1-.58,1.62c-.38.34-.92.52-2.64.52-.62,0-.64,0-.76-.6a5.24,5.24,0,0,0-.44-1.24h-1.42c-.2,0-.22,0-.22-.22v-.5h-3.54v.78c0,.2,0,.22-.22.22Zm4.46-10.24V8.64h1.22c1.76,0,2.32,0,2.44,0s.22,0,.22.24V10.1c0,.2,0,.22-.22.22s-.68,0-2.44,0h-4.2c-1.74,0-2.32,0-2.44,0s-.22,0-.22-.22V8.84c0-.22,0-.24.22-.24s.7,0,2.44,0h1.06V7.22h-.52c-1.6,0-2.12,0-2.24,0s-.22,0-.22-.24V5.78c0-.2,0-.22.22-.22s.64,0,2.24,0h.52A11,11,0,0,0,195.19,4a15,15,0,0,1,2,.16c.22,0,.32.14.32.24a.67.67,0,0,1-.1.34,1.53,1.53,0,0,0-.12.82h.66c1.58,0,2.12,0,2.24,0s.22,0,.22.22V7c0,.22,0,.24-.22.24s-.66,0-2.24,0Zm-2.76,7.66H198V13h-3.54Z" transform="translate(0 -0.58)"/><path class="cls-1" d="M214.91,14.72c-1.76,0-2.38,0-2.5,0s-.22,0-.22-.22V13c0-.18,0-.2.22-.2s.74,0,2.5,0h.48V10c0-1.14,0-1.68,0-1.8s0-.22.24-.22.8,0,2.74,0h2.56V5.36h-4.1a18.32,18.32,0,0,1-2.34,2.86c-.2.22-.32.32-.42.32s-.2-.12-.4-.38a4,4,0,0,0-1.12-1.08,14.71,14.71,0,0,0,3.7-4.84,6.41,6.41,0,0,0,.52-1.46c.72.14,1.38.28,1.92.44.24.08.36.18.36.34s-.1.24-.24.38a2,2,0,0,0-.5.72l-.4.86h8.26c1.94,0,2.62,0,2.74,0s.22,0,.22.22V5.18c0,.2,0,.22-.22.22s-.8,0-2.74,0h-3.08V8h2.14c2,0,2.62,0,2.74,0s.2,0,.2.22V9.7c0,.2,0,.22-.2.22s-.78,0-2.74,0h-2.14V12.8h4.24c1.76,0,2.38,0,2.5,0s.22,0,.22.2v1.58c0,.2,0,.22-.22.22s-.74,0-2.5,0h-4.24v1c0,2.1,0,3.16,0,3.26s0,.22-.22.22h-1.78c-.22,0-.24,0-.24-.22s0-1.16,0-3.26v-1Zm6-1.92V9.88h-3.38V12.8Z" transform="translate(0 -0.58)"/><path class="cls-1" d="M243.13,4.34c1.52,0,2,0,2.14,0s.2,0,.2.22V5.94c0,.22,0,.24-.2.24s-.62,0-2.14,0h-3.48c-1.52,0-2,0-2.14,0s-.2,0-.2-.24V4.52c0-.2,0-.22.2-.22s.62,0,2.14,0Zm1.62,11.4c0,2.32,0,2.76,0,2.88s0,.22-.22.22H243c-.2,0-.22,0-.22-.22V18h-2.46v1c0,.2,0,.22-.22.22h-1.56c-.22,0-.24,0-.24-.22s0-.6,0-3V14.66c0-1.26,0-1.74,0-1.88s0-.22.24-.22.54,0,1.82,0h2.38c1.28,0,1.7,0,1.84,0s.22,0,.22.22,0,.6,0,1.54Zm-2-14.1c1.28,0,1.68,0,1.8,0s.24,0,.24.22V3.16c0,.2,0,.22-.24.22s-.52,0-1.8,0h-2.36c-1.3,0-1.7,0-1.82,0s-.22,0-.22-.22V1.82c0-.2,0-.22.22-.22s.52,0,1.82,0Zm-.08,5.56c1.2,0,1.56,0,1.68,0s.24,0,.24.22V8.66c0,.2,0,.22-.24.22s-.48,0-1.68,0h-2.18c-1.22,0-1.58,0-1.7,0s-.22,0-.22-.22V7.38c0-.2,0-.22.22-.22s.48,0,1.7,0Zm0,2.68c1.2,0,1.56,0,1.68,0s.24,0,.24.22v1.3c0,.18,0,.2-.24.2s-.48,0-1.68,0h-2.18c-1.22,0-1.58,0-1.7,0s-.22,0-.22-.2v-1.3c0-.2,0-.22.22-.22s.48,0,1.7,0Zm-2.34,4.42v2h2.46v-2Zm8.26-10.5c-1.62,0-2.14,0-2.26,0s-.22,0-.22-.22V2.06c0-.2,0-.22.22-.22s.64,0,2.26,0h3.16c1.6,0,2.16,0,2.28,0s.24,0,.24.22,0,.72,0,2.14V8.68c0,1.4,0,2,0,2.12s0,.24-.24.24h-1.68c-.2,0-.22,0-.22-.24V10h-3.76v5.58c0,.5.06.78.24.9a3.55,3.55,0,0,0,1.84.26c1.5,0,2.06-.14,2.38-.5s.4-.92.44-2.54a4.81,4.81,0,0,0,1.44.56c.6.14.64.18.6.8-.12,1.74-.44,2.42-.92,2.88s-1.54.78-4.16.78c-1.86,0-2.86-.12-3.34-.52s-.58-.86-.58-2V10.56c0-1.38,0-2.08,0-2.22s0-.22.22-.22.78,0,2.1,0h3.54V3.8Z" transform="translate(0 -0.58)"/><path class="cls-1" d="M269.91,6.94c-1.44,0-1.88,0-2,0s-.22,0-.22-.22v-1a22.67,22.67,0,0,1-4.22,2.2,1.78,1.78,0,0,1-.46.14c-.16,0-.22-.14-.36-.52a5.4,5.4,0,0,0-.84-1.3,17.67,17.67,0,0,0,7.6-4.6,4.35,4.35,0,0,0,.8-1.06c.76.1,1.54.2,2.18.34.22.06.3.14.3.26s0,.18-.2.24l-.16.08a18.3,18.3,0,0,0,8.28,4.44,5.25,5.25,0,0,0-.78,1.48c-.14.38-.2.54-.36.54a1.78,1.78,0,0,1-.46-.14,22.41,22.41,0,0,1-4.54-2.28V6.76c0,.2,0,.22-.22.22s-.56,0-2,0ZM262.37,17.3c-.24-.14-.24-.24-.12-.4a9.67,9.67,0,0,0,1.84-3.78c.06-.22.1-.2.36-.1l1.44.5c.24.08.26.12.2.34a14.25,14.25,0,0,1-1.88,4.1c-.16.22-.24.24-.48.1ZM275,8.08a1.27,1.27,0,0,0,.5-.08.81.81,0,0,1,.34-.1c.18,0,.36.12.82.58s.56.6.56.76-.06.28-.28.4a2.4,2.4,0,0,0-.74.72c-.72,1-1.3,1.68-2,2.52-.12.12-.18.18-.28.18s-.34-.12-.76-.4c-.58-.42-.78-.58-.78-.72a.28.28,0,0,1,.1-.18,21.79,21.79,0,0,0,1.66-1.94H268c-1.92,0-2.6,0-2.72,0s-.22,0-.22-.24V8.26c0-.2,0-.22.22-.22s.8,0,2.72,0Zm-5.86,8c0,.4.06.66.32.8a4.31,4.31,0,0,0,1.8.2c1.46,0,2,0,2.4-.34s.52-.8.54-1.7a6.93,6.93,0,0,0,1.54.44c.52.12.52.12.44.64-.22,1.34-.62,2-1.22,2.3s-1.78.5-3.88.5a7.5,7.5,0,0,1-3.28-.42c-.46-.26-.74-.66-.74-1.74V14.34a11.05,11.05,0,0,0-.1-1.66c.66,0,1.44,0,2,.1.26,0,.36.12.36.22a.66.66,0,0,1-.1.32,2.05,2.05,0,0,0-.12.9Zm3.1-10.8c1,0,1.48,0,1.74,0a18.1,18.1,0,0,1-2.86-2.46,18.09,18.09,0,0,1-2.76,2.46c.3,0,.78,0,1.54,0Zm-1.56,6.52c.08-.08.14-.12.2-.12s.1,0,.2.1a17.09,17.09,0,0,1,2.38,2.16c.06.08.1.12.1.18s0,.12-.16.22l-1,.88c-.1.08-.16.14-.22.14s-.12-.06-.2-.16a15.7,15.7,0,0,0-2.22-2.24.24.24,0,0,1-.12-.18c0-.06,0-.12.14-.2Zm6.6,1.16c.22-.1.28-.12.42.06A19.64,19.64,0,0,1,280,16.66c.1.2.08.24-.18.4l-1.36.78a.67.67,0,0,1-.24.1c-.06,0-.1-.06-.14-.2a16.41,16.41,0,0,0-2.2-3.84c-.14-.16-.12-.24.12-.36Z" transform="translate(0 -0.58)"/><path class="cls-1" d="M297.27,1.78a18.43,18.43,0,0,0,8.56,6.06,5.78,5.78,0,0,0-.9,1.54c-.14.36-.2.5-.34.5a1.38,1.38,0,0,1-.46-.16,19.38,19.38,0,0,1-8-6.32,21.68,21.68,0,0,1-7.68,6.4,1.49,1.49,0,0,1-.48.2c-.14,0-.2-.14-.36-.48a5.25,5.25,0,0,0-.94-1.38,17.66,17.66,0,0,0,7.72-6.08,5.4,5.4,0,0,0,.74-1.48,20.4,20.4,0,0,1,2.16.44c.22.06.36.16.36.32a.36.36,0,0,1-.22.3ZM290,18.44c-1.78,0-2.38,0-2.52,0s-.2,0-.2-.2v-1.6c0-.2,0-.22.2-.22s.74,0,2.52,0h.54V12.12a9.29,9.29,0,0,0-.16-2.18c.76,0,1.54.06,2.26.14.2,0,.32.12.32.22a1,1,0,0,1-.14.42,4.48,4.48,0,0,0-.12,1.46V16.5h2.76V8.88a10.89,10.89,0,0,0-.14-2.18c.74,0,1.56.06,2.24.14.2,0,.32.12.32.22a1,1,0,0,1-.12.44,3.89,3.89,0,0,0-.12,1.44V10.8h2c1.82,0,2.46,0,2.58,0s.22,0,.22.22v1.56c0,.2,0,.22-.22.22s-.76,0-2.58,0h-2V16.5h4.76c1.76,0,2.38,0,2.5,0s.22,0,.22.22v1.6c0,.18,0,.2-.22.2s-.74,0-2.5,0Z" transform="translate(0 -0.58)"/><path class="cls-1" d="M315.17,3.54c-1.8,0-2.42,0-2.54,0s-.22,0-.22-.2V1.84c0-.22,0-.24.22-.24s.74,0,2.54,0h12c1.82,0,2.42,0,2.54,0s.22,0,.22.24V3.38c0,.18,0,.2-.22.2s-.72,0-2.54,0h-5.12v2h1.22c1.8,0,2.4,0,2.52,0s.24,0,.24.24,0,.74,0,2.16V12.4c0,1.4,0,2,0,2.16s0,.22-.24.22-.72,0-2.52,0h-4.2c-1.78,0-2.38,0-2.52,0s-.22,0-.22-.22,0-.76,0-2.16V7.86c0-1.42,0-2,0-2.16s0-.24.22-.24.74,0,2.52,0h1.12v-2Zm12.4,5a26.5,26.5,0,0,0-.12-2.92c.76,0,1.38.08,2,.16.24,0,.38.12.38.3a.66.66,0,0,1-.12.38,6.07,6.07,0,0,0-.16,2.1v6.38c0,2.54,0,3.86,0,4s0,.22-.22.22h-1.6c-.2,0-.22,0-.22-.22v-.8H314.81v.8c0,.2,0,.22-.22.22H313c-.2,0-.22,0-.22-.22s0-1.42,0-3.94V8.42a23.06,23.06,0,0,0-.12-2.82c.78,0,1.36.08,2,.16.24,0,.38.14.38.3a.87.87,0,0,1-.14.42,6.73,6.73,0,0,0-.14,2.08v7.66h12.76Zm-7.36.74V7.14h-2V9.26Zm0,3.84V10.8h-2v2.3Zm1.82-6V9.26h2.14V7.14Zm2.14,3.66H322v2.3h2.14Z" transform="translate(0 -0.58)"/><line class="cls-2" x1="0.33" y1="1.74" x2="18.33" y2="18.44"/><line class="cls-2" x1="358.33" y1="1.74" x2="340.33" y2="18.44"/></g></g></svg>