<svg xmlns="http://www.w3.org/2000/svg" viewBox="0 0 124.11 105.94"><defs><style>.cls-1{fill:#fdd7ac;}.cls-2{fill:#343333;}</style></defs><title>アセット 10</title><g id="レイヤー_2" data-name="レイヤー 2"><g id="デザイン"><polygon class="cls-1" points="124.11 52.97 94.93 2.4 94.82 2.21 93.54 0 90.77 0 90.77 0 33.34 0 30.57 0 0 52.97 29.71 104.46 30.57 105.94 93.54 105.94 94.93 103.54 94.93 103.54 124.11 52.97"/><path class="cls-2" d="M51.56,33.22A4.62,4.62,0,0,0,50.89,32a13.76,13.76,0,0,1,2.3-.21c.27,0,.42.15.42.34s0,.25,0,.36a3,3,0,0,0,.08.57c.13.5.19.67.3,1a30.14,30.14,0,0,0,3.88-1c.17-.08.26-.06.32.09.11.36.25.89.32,1.27a.3.3,0,0,1-.22.35c-1.28.39-2.44.68-3.73,1,.17.48.42,1.07.67,1.6a21.94,21.94,0,0,0,3.45-1c.19-.09.29,0,.35.12a7.43,7.43,0,0,1,.34,1.25c0,.17,0,.27-.15.34A22.58,22.58,0,0,1,56,39a14.07,14.07,0,0,0,2.48,3.29c.19.17.19.25.1.46a5.82,5.82,0,0,1-.78,1.17c-.11.14-.19.19-.3.19A.45.45,0,0,1,57.2,44a4.54,4.54,0,0,0-1.12-.61,9.2,9.2,0,0,0-3.57-.61c-1.79,0-2.83.55-2.83,1.45,0,1.23,1.61,1.63,4.52,1.63.7,0,1.41-.07,2.09-.11.19,0,.25.09.23.24a12.85,12.85,0,0,1-.38,1.73c-.06.19-.14.27-.4.29-.44,0-.89.05-1.37.05-4.37,0-6.69-1.23-6.69-3.57,0-2,1.75-3.3,4.71-3.3a8.88,8.88,0,0,1,3.27.47,22.06,22.06,0,0,1-1.57-2.24,46.3,46.3,0,0,1-5.21.57.29.29,0,0,1-.34-.27,8.34,8.34,0,0,1-.34-1.55,32.72,32.72,0,0,0,5.11-.48l-.73-1.57a33.75,33.75,0,0,1-4.61.45c-.23,0-.34-.07-.38-.26s-.19-.92-.31-1.52A34.76,34.76,0,0,0,52,34.45C51.86,34,51.75,33.69,51.56,33.22Z"/><path class="cls-2" d="M67,40.66a3.8,3.8,0,0,1,2.31-1c2.06,0,2.57,1.77,2.78,3.6.15,1.38.38,2,1.1,2A2.42,2.42,0,0,0,75,44.39a9.35,9.35,0,0,0,1.92-3.1A4.45,4.45,0,0,0,78,42.87a.5.5,0,0,1,.2.4.62.62,0,0,1-.07.32,10.05,10.05,0,0,1-1.64,2.35A4.72,4.72,0,0,1,73,47.54c-1.92,0-2.74-1-3-3.69-.17-1.89-.59-2.45-1.26-2.45A3.32,3.32,0,0,0,66.38,43a22.16,22.16,0,0,0-2.22,4.22c-.12.26-.21.3-.46.23a6.16,6.16,0,0,1-1.46-.82.32.32,0,0,1-.17-.25.48.48,0,0,1,.09-.26c2.78-5.44,4.52-9.07,5.57-11.44a11.49,11.49,0,0,0,1-2.77A11.35,11.35,0,0,1,70.81,33a.49.49,0,0,1,.26.4.57.57,0,0,1-.21.38,5.07,5.07,0,0,0-.59.81C69.06,36.92,68,38.92,67,40.63Z"/><path class="cls-2" d="M37.65,61a1.72,1.72,0,0,0,1-.23.43.43,0,0,1,.25-.07.58.58,0,0,1,.3.11,9,9,0,0,1,1.29,1,.61.61,0,0,1,.25.43.54.54,0,0,1-.23.4,2.52,2.52,0,0,0-.63.82,25.83,25.83,0,0,1-3.76,5.87,24,24,0,0,1-5.77,4.73.51.51,0,0,1-.31.1.67.67,0,0,1-.43-.21,5.1,5.1,0,0,0-1.81-.88,21.79,21.79,0,0,0,6.33-4.84,19.39,19.39,0,0,0,3.51-5.4L33,63a26.44,26.44,0,0,1-3.59,3.89.63.63,0,0,1-.4.21.5.5,0,0,1-.29-.11,5,5,0,0,0-1.82-.82A22.53,22.53,0,0,0,32,60.55,8.4,8.4,0,0,0,33.13,58a9.55,9.55,0,0,1,2.22,1,.4.4,0,0,1,.19.32.39.39,0,0,1-.21.33,1.93,1.93,0,0,0-.47.51l-.63,1ZM40,58.46c.09-.08.17-.06.28,0a9,9,0,0,1,1.81,2,.19.19,0,0,1-.06.3l-.8.59a.19.19,0,0,1-.32-.06A9.56,9.56,0,0,0,39,59.16Zm1.69-1.24c.11-.07.17,0,.28,0a7.94,7.94,0,0,1,1.81,2,.22.22,0,0,1-.06.34l-.76.59a.2.2,0,0,1-.32-.06,8.93,8.93,0,0,0-1.9-2.18Z"/><path class="cls-2" d="M49.94,61c.33.1.37.32.25.59A2.74,2.74,0,0,0,50,62.9a14.41,14.41,0,0,1-1,5.59,9.84,9.84,0,0,1-2.7,3.57.88.88,0,0,1-.49.25.65.65,0,0,1-.37-.16,6.53,6.53,0,0,0-1.61-.79,9.46,9.46,0,0,0,3.15-3.78c.54-1.3.78-2.34.8-5.38a5.21,5.21,0,0,0-.19-1.6A16.32,16.32,0,0,1,49.94,61Zm4.22,8a19.24,19.24,0,0,0,2.7-1.77,17.93,17.93,0,0,0,3.32-3.23A5.62,5.62,0,0,0,60.77,66a.92.92,0,0,1,.12.32c0,.14-.08.27-.29.48a23.67,23.67,0,0,1-2.81,2.49,31.87,31.87,0,0,1-3.38,2.28,5.81,5.81,0,0,0-.55.39.61.61,0,0,1-.38.16.76.76,0,0,1-.4-.16,5.18,5.18,0,0,1-1.14-1.15.72.72,0,0,1-.17-.4.68.68,0,0,1,.07-.29c.14-.25.12-.47.12-1.44V62.71a15.11,15.11,0,0,0-.19-3.3,17.4,17.4,0,0,1,2.37.4c.25,0,.34.17.34.32a1.13,1.13,0,0,1-.15.47,5.28,5.28,0,0,0-.17,2.11Z"/><path class="cls-2" d="M66.84,67.2a15.74,15.74,0,0,0-2.8.22c-.23,0-.38-.11-.43-.4a20,20,0,0,1-.29-2.29,24.52,24.52,0,0,0,4.1.22h6.12c1.44,0,2.91,0,4.37,0,.29,0,.34,0,.34.26a13.37,13.37,0,0,1,0,1.79c0,.23-.07.3-.34.28l-4.24,0Z"/><path class="cls-2" d="M84.62,62.26c-1.24,0-2.32.05-3.14.09-.24,0-.32-.11-.36-.38S81,60.6,81,60.05a31.65,31.65,0,0,0,3.65.14h6.78A1.86,1.86,0,0,0,92.43,60a.58.58,0,0,1,.32-.12.43.43,0,0,1,.32.14,6.38,6.38,0,0,1,1.29,1.31.61.61,0,0,1,.16.38.55.55,0,0,1-.19.36,2.27,2.27,0,0,0-.44.74A22.22,22.22,0,0,1,90.2,69a21.17,21.17,0,0,1-5.39,4.52.87.87,0,0,1-.51.17.66.66,0,0,1-.48-.2,5.5,5.5,0,0,0-1.77-1,18.44,18.44,0,0,0,6.22-4.75,16.08,16.08,0,0,0,3.21-5.41Zm13.13-3.65a2.06,2.06,0,0,1-4.11,0,2,2,0,0,1,2-2A2,2,0,0,1,97.75,58.61Zm-3.18,0a1.13,1.13,0,1,0,1.12-1.12A1.09,1.09,0,0,0,94.57,58.61Z"/></g></g></svg>