<svg xmlns="http://www.w3.org/2000/svg" viewBox="0 0 600 33"><defs><style>.cls-1{fill:none;stroke:#333;stroke-miterlimit:10;}.cls-2{fill:#fff;}.cls-3{fill:#333;}</style></defs><title>アセット 1</title><g id="レイヤー_2" data-name="レイヤー 2"><g id="デザイン"><line class="cls-1" y1="13.5" x2="600" y2="13.5"/><rect class="cls-2" x="154" width="292" height="33"/><path class="cls-3" d="M171.88,15.84h1.56v1.5h-1.56v2.77H170V17.34h-4.8V15.93l4.09-8.11h2.61ZM170,13.15c0-1.3.05-2.51.1-3.75h-.23c-.42,1.06-.89,2.13-1.41,3.2l-1.55,3.24H170Z"/><path class="cls-3" d="M178,10.88a21.67,21.67,0,0,1,5.93-1.33c3,0,4.85,1.73,4.85,4.24a4.64,4.64,0,0,1-2.9,4.45,14.33,14.33,0,0,1-4.19,1.33c-.33.06-.46.05-.58-.26a2.91,2.91,0,0,0-1.15-1.26,15.66,15.66,0,0,0,4.47-1.19,3.49,3.49,0,0,0,2.27-3.18c0-1.51-1-2.44-2.83-2.44a16.55,16.55,0,0,0-6,1.65c-.52.26-.94.44-1.14.58s-.36.24-.44.24-.3-.1-.48-.34a8.6,8.6,0,0,1-1.05-1.66A15.67,15.67,0,0,0,178,10.88Z"/><path class="cls-3" d="M199.36,10.27a19.61,19.61,0,0,1-2.07,6.9,3.13,3.13,0,0,1-2.8,1.84c-1.45,0-2.92-1.51-2.92-4.12a5.85,5.85,0,0,1,1.86-4.16,7.37,7.37,0,0,1,5.36-2.05c4,0,6.29,2.37,6.29,5.56,0,3-1.73,4.85-5.08,5.82-.35.1-.5,0-.71-.28a3.42,3.42,0,0,0-1.15-1c2.78-.64,5-1.76,5-4.79a3.69,3.69,0,0,0-3.7-3.71Zm-4.74,1.55a4.56,4.56,0,0,0-1.28,3c0,1.47.61,2.29,1.12,2.29s.79-.21,1.23-1a17.71,17.71,0,0,0,1.75-5.73A5.12,5.12,0,0,0,194.62,11.82Z"/><path class="cls-3" d="M216.46,9.93a1.55,1.55,0,0,0,.83-.19.31.31,0,0,1,.21-.06.48.48,0,0,1,.26.09,7.19,7.19,0,0,1,1.13.87.48.48,0,0,1,.21.36.46.46,0,0,1-.2.34,2,2,0,0,0-.54.69A21.72,21.72,0,0,1,215.09,17a20.74,20.74,0,0,1-5,4,.49.49,0,0,1-.27.08.54.54,0,0,1-.37-.18,4.4,4.4,0,0,0-1.57-.73,19.2,19.2,0,0,0,5.49-4.08,16.37,16.37,0,0,0,3-4.55l-4,.11a22.12,22.12,0,0,1-3.12,3.28.48.48,0,0,1-.34.18.36.36,0,0,1-.25-.1,4.58,4.58,0,0,0-1.59-.68,19.1,19.1,0,0,0,4.44-4.76,6.75,6.75,0,0,0,1-2.16,8.2,8.2,0,0,1,1.93.85.34.34,0,0,1,.16.27.31.31,0,0,1-.18.27,1.73,1.73,0,0,0-.41.44l-.55.8Zm2-2.16c.08-.06.15,0,.24,0a7.35,7.35,0,0,1,1.57,1.72c.07.09.07.17,0,.25l-.69.5a.18.18,0,0,1-.28,0,8.1,8.1,0,0,0-1.67-1.86Zm1.46-1c.1-.06.15-.05.25,0a6.77,6.77,0,0,1,1.57,1.65.18.18,0,0,1,0,.29l-.66.5a.18.18,0,0,1-.28,0,7.55,7.55,0,0,0-1.65-1.84Z"/><path class="cls-3" d="M227.13,9.93c.28.08.32.27.22.5a2.26,2.26,0,0,0-.2,1.09,11.65,11.65,0,0,1-.89,4.7,8.2,8.2,0,0,1-2.34,3,.77.77,0,0,1-.43.21.55.55,0,0,1-.31-.13,6.18,6.18,0,0,0-1.41-.67,8,8,0,0,0,2.74-3.19,10,10,0,0,0,.69-4.53A4.25,4.25,0,0,0,225,9.58,13.07,13.07,0,0,1,227.13,9.93Zm3.67,6.77a16.66,16.66,0,0,0,2.34-1.49A15.15,15.15,0,0,0,236,12.49a4.65,4.65,0,0,0,.52,1.62.71.71,0,0,1,.09.27c0,.11-.06.23-.24.4a22,22,0,0,1-2.44,2.1A27.84,27.84,0,0,1,231,18.8a3.74,3.74,0,0,0-.48.34.52.52,0,0,1-.33.12.67.67,0,0,1-.34-.12,4.39,4.39,0,0,1-1-1,.61.61,0,0,1-.15-.34.47.47,0,0,1,.06-.24c.12-.2.1-.4.1-1.21v-5a12.82,12.82,0,0,0-.16-2.79,15,15,0,0,1,2.06.34c.21.05.3.14.3.27a.91.91,0,0,1-.14.4,4.53,4.53,0,0,0-.14,1.78Z"/><path class="cls-3" d="M241.8,15.13a13.27,13.27,0,0,0-2.43.2A.35.35,0,0,1,239,15a14.21,14.21,0,0,1-.25-1.94,21.61,21.61,0,0,0,3.56.2h5.31c1.26,0,2.53,0,3.8-.05.24,0,.29,0,.29.22a9.52,9.52,0,0,1,0,1.51c0,.19-.06.25-.29.24-1.24,0-2.46,0-3.68,0Z"/><path class="cls-3" d="M257.24,11c-1.07,0-2,0-2.72.08-.22,0-.28-.09-.32-.32s-.11-1.15-.15-1.61a30.06,30.06,0,0,0,3.17.11h5.89a1.62,1.62,0,0,0,.91-.16.48.48,0,0,1,.28-.1.38.38,0,0,1,.28.11,5.89,5.89,0,0,1,1.12,1.11.55.55,0,0,1,.13.32.45.45,0,0,1-.16.3,2,2,0,0,0-.38.63,18.85,18.85,0,0,1-3.2,5.2,18.28,18.28,0,0,1-4.69,3.81.84.84,0,0,1-.44.14.65.65,0,0,1-.42-.17,4.67,4.67,0,0,0-1.53-.88,15.92,15.92,0,0,0,5.4-4A13.4,13.4,0,0,0,263.19,11Zm11.4-3.07a1.79,1.79,0,0,1-3.57,0,1.71,1.71,0,0,1,1.78-1.71A1.74,1.74,0,0,1,268.64,7.9Zm-2.76,0a1,1,0,1,0,1-1A.93.93,0,0,0,265.88,7.9Z"/><path class="cls-3" d="M273.63,8.48c.29.14.38.24.38.38s0,.16-.24.48a3.59,3.59,0,0,0-.4,1.14,25.23,25.23,0,0,0-.69,5.17,14.23,14.23,0,0,0,.1,1.87c.34-.74.64-1.27,1.12-2.39a4.07,4.07,0,0,0,.58,1,.63.63,0,0,1,.11.24.45.45,0,0,1-.08.26,15.36,15.36,0,0,0-.94,2.42,1.82,1.82,0,0,0-.05.49c0,.19,0,.32,0,.45s-.06.18-.21.21a7.89,7.89,0,0,1-1.35.25c-.12,0-.19-.06-.22-.17a14.68,14.68,0,0,1-.76-4.77,29.57,29.57,0,0,1,.56-5.25,12.18,12.18,0,0,0,.3-2.39A7.35,7.35,0,0,1,273.63,8.48ZM277.17,16c.13,0,.16.07.16.24.1,1.11.89,1.51,2.69,1.51a24,24,0,0,0,3.15-.21c.16,0,.2,0,.23.21a11.46,11.46,0,0,1,.1,1.38c0,.19,0,.2-.28.24a24.56,24.56,0,0,1-2.69.17c-2.44,0-3.58-.38-4.29-1.33a3.46,3.46,0,0,1-.58-2.08Zm-.93-6c0-.19.07-.24.23-.27a26.57,26.57,0,0,1,3.58-.29c1,0,1.75,0,2.44.09.35,0,.38,0,.38.21,0,.48,0,.91,0,1.36,0,.15-.07.21-.22.19-1-.06-1.84-.09-2.68-.09a20.13,20.13,0,0,0-3.75.37C276.21,10.7,276.21,10.3,276.24,10Z"/><path class="cls-3" d="M295,7c.22-.1.25-.08.32.08a12.93,12.93,0,0,0,5.34,5.9,5.6,5.6,0,0,0-1,1.2c-.14.24-.21.36-.31.36s-.18-.08-.35-.21a12.36,12.36,0,0,1-1.56-1.3c0,.47,0,1-.05,1.59a32.24,32.24,0,0,1-.41,4.48,2.13,2.13,0,0,1-2.46,2,10.3,10.3,0,0,1-1.12,0c-.52,0-.5,0-.62-.56a3.23,3.23,0,0,0-.51-1.28,11.87,11.87,0,0,0,1.88.15c.7,0,1-.26,1.11-1a26.13,26.13,0,0,0,.31-4h-2.93a7.77,7.77,0,0,1-5,6.78,1.09,1.09,0,0,1-.39.13c-.14,0-.19-.11-.35-.38a2.93,2.93,0,0,0-.84-1c3-1.06,4.45-2.76,4.77-5.57h-.2c-1.55,0-2.08,0-2.18,0s-.18,0-.18-.18V13.05a16.84,16.84,0,0,1-1.6,1.33c-.18.13-.28.21-.36.21s-.18-.11-.35-.35a3.65,3.65,0,0,0-.92-1A12.63,12.63,0,0,0,289.83,8a4.29,4.29,0,0,0,.33-1,12.89,12.89,0,0,1,1.72.56c.18.08.23.17.23.28A.34.34,0,0,1,292,8a1.2,1.2,0,0,0-.38.51,14.44,14.44,0,0,1-3,4.24c.23,0,.81,0,2.08,0h4.43c1.44,0,2,0,2.15,0a17,17,0,0,1-3.55-5.07c-.06-.18,0-.2.15-.27Z"/><path class="cls-3" d="M306.79,9.12A10.86,10.86,0,0,0,307,7.34a11.84,11.84,0,0,1,2,.53.34.34,0,0,1,.27.32.31.31,0,0,1-.12.24,2.27,2.27,0,0,0-.33.61c-.21.65-.38,1.24-.59,1.92a12.32,12.32,0,0,1,1.29-.07c1.55,0,2.39,1,2.39,3A13.4,13.4,0,0,1,311,19a2.36,2.36,0,0,1-2.23,1.51,5.55,5.55,0,0,1-1.63-.18.42.42,0,0,1-.3-.45,4.51,4.51,0,0,0-.31-1.49,4.92,4.92,0,0,0,1.81.36c.55,0,.79-.2,1.06-.85a12.21,12.21,0,0,0,.64-4c0-1.14-.21-1.49-.94-1.49a12.1,12.1,0,0,0-1.39.11,42.67,42.67,0,0,1-3.31,7.52.28.28,0,0,1-.43.15,7.68,7.68,0,0,1-1.14-.71.33.33,0,0,1-.13-.24.29.29,0,0,1,.07-.17,33.15,33.15,0,0,0,3-6.28c-.64.1-1.17.2-1.61.28a5.21,5.21,0,0,0-.91.25c-.23.08-.43.05-.53-.21a13,13,0,0,1-.51-1.65c.73,0,1.45,0,2.18-.11s1.3-.14,1.94-.24C306.56,10.22,306.67,9.66,306.79,9.12Zm6.71,1.07c.12-.07.2,0,.32.08a10.64,10.64,0,0,1,2.73,3.89.23.23,0,0,1-.06.32,7.08,7.08,0,0,1-1.24.8c-.16.08-.33.06-.38-.13a10.8,10.8,0,0,0-2.7-4.15A13.87,13.87,0,0,1,313.5,10.19Z"/><path class="cls-3" d="M322,8.7a5.75,5.75,0,0,0-.17-1.55,9.25,9.25,0,0,1,1.88.3c.27.06.35.16.35.32a.64.64,0,0,1-.12.31,2,2,0,0,0-.15.78c0,.53-.05.86-.08,1.6a5.93,5.93,0,0,1,.63.35.29.29,0,0,1,.15.23.35.35,0,0,1-.09.17,17.36,17.36,0,0,0-.85,1.52v.08c.52-.57.89-.94,1.53-1.55,1.3-1.2,2.21-1.57,3-1.57a1.89,1.89,0,0,1,2,2.13c0,.46,0,1.44-.13,2.91s-.16,2.2-.16,2.69c0,.8.2.92.61.92a2.16,2.16,0,0,0,1.22-.58,4.13,4.13,0,0,0,1-1.35,3.61,3.61,0,0,0,.61,1.2.66.66,0,0,1,.18.37.46.46,0,0,1-.12.28,4,4,0,0,1-3.16,1.84c-1.42,0-2.11-.79-2.11-2.45,0-.44.05-1.33.13-2.69s.11-1.94.11-2.63-.18-1.05-.51-1.05a3.17,3.17,0,0,0-1.84,1c-.68.64-1.46,1.39-2.31,2.35,0,2,.06,4.32.06,6.07,0,.14-.06.22-.23.22s-.86.06-1.29.06c-.16,0-.23-.08-.23-.27,0-1.45,0-3.14.05-4.58-.64,1-1.3,2-1.91,2.89-.07.11-.12.16-.18.16a.59.59,0,0,1-.2-.08,5.27,5.27,0,0,1-1-.9.22.22,0,0,1-.1-.18.44.44,0,0,1,.15-.27c1.37-1.7,2.22-2.83,3.23-4.21,0-.4,0-.7,0-1.09a18.09,18.09,0,0,0-2,.64c-.15.07-.32.23-.48.23a.4.4,0,0,1-.33-.26,8.51,8.51,0,0,1-.64-1.47,8.2,8.2,0,0,0,1.2-.15c.56-.12,1.48-.35,2.33-.6Z"/><path class="cls-3" d="M341.35,10.4c-2,.36-3.78.7-5.55,1-.62.15-.79.18-1,.26a1,1,0,0,1-.37.13.4.4,0,0,1-.31-.24,11.5,11.5,0,0,1-.61-1.73,24.17,24.17,0,0,0,2.62-.27c2-.29,5.66-.82,9.92-1.36.24,0,.32.06.34.17a8.47,8.47,0,0,1,.18,1.41c0,.19-.1.24-.31.24a7.76,7.76,0,0,0-2,.35c-2.81.93-4.21,2.8-4.21,4.72s1.52,3.19,4.39,3.37c.26,0,.36.06.36.24a5.31,5.31,0,0,1-.18,1.37c-.05.24-.12.34-.31.34-2.91,0-6.09-1.62-6.09-4.95,0-2.27,1.17-3.81,3.17-5.07Z"/><path class="cls-3" d="M351.9,8.36a8.3,8.3,0,0,0-.11-1.52c.63,0,1.19,0,1.71.11.15,0,.25.07.25.16a1,1,0,0,1-.11.36,1.92,1.92,0,0,0-.1.88v.54h.79c1.3,0,1.73,0,1.83,0s.18,0,.18.18v1.12c0,.16,0,.17-.18.17s-.53,0-1.83,0h-.79v1.46h1.1c1.54,0,2.05,0,2.15,0s.18,0,.18.18V13c0,.17,0,.19-.18.19s-.61,0-2.15,0h-1.1v1.37h.85c1.44,0,1.92,0,2,0s.19,0,.19.18,0,.59,0,1.61v.56c0,.9,0,1.38,0,1.81a1.14,1.14,0,0,1-.38,1,2.31,2.31,0,0,1-1.39.3c-.51,0-.51,0-.59-.48a3.13,3.13,0,0,0-.37-1,5.34,5.34,0,0,0,.73.05c.26,0,.38-.09.38-.4V16h-1.45V18.1c0,2,0,3,0,3.07s0,.16-.18.16h-1.34c-.16,0-.18,0-.18-.16s0-1.09,0-3.06V16h-1.36v2.37c0,1,0,1.41,0,1.51s0,.17-.18.17h-1.32c-.17,0-.18,0-.18-.17s0-.55,0-1.59v-2.1c0-1,0-1.34,0-1.45s0-.18.18-.18.61,0,2,0h.79V13.2h-1.38c-1.54,0-2.06,0-2.16,0s-.18,0-.18-.19V11.9c0-.16,0-.18.18-.18s.62,0,2.16,0h1.38V10.3h-1.56c-.15.34-.3.64-.45.91s-.18.35-.3.35a.91.91,0,0,1-.39-.19,3.78,3.78,0,0,0-1-.46,8.32,8.32,0,0,0,1.27-2.83,3.52,3.52,0,0,0,.08-.76,11.6,11.6,0,0,1,1.44.31c.2,0,.25.09.25.19a.44.44,0,0,1-.12.27,1.34,1.34,0,0,0-.16.47l-.1.33h1Zm5.81,2.13a16.28,16.28,0,0,0-.12-2.37c.58,0,1.11.05,1.67.12.17,0,.25.08.25.17a1,1,0,0,1-.12.35,10.65,10.65,0,0,0-.05,1.72v4.41c0,1.36,0,2,0,2.12s0,.17-.2.17h-1.32c-.17,0-.18,0-.18-.17s0-.76,0-2.12Zm4.82,5.44c0,1.12.05,2.41.05,3.21s-.12,1.31-.6,1.63-.9.41-2.36.41c-.49,0-.49,0-.61-.51a4.51,4.51,0,0,0-.47-1.25,11.87,11.87,0,0,0,1.58.1c.54,0,.71-.11.71-.62V9.21A13.41,13.41,0,0,0,360.7,7a16.52,16.52,0,0,1,1.76.1c.18,0,.28.1.28.18a.86.86,0,0,1-.11.33,5.1,5.1,0,0,0-.1,1.62Z"/><path class="cls-3" d="M366.9,15c0-.59,0-1.31,0-2a14.81,14.81,0,0,1-1.24,1.47c-.11.13-.21.2-.28.2s-.16-.08-.21-.28a3.84,3.84,0,0,0-.61-1.39,14.73,14.73,0,0,0,3.35-5.26,5.19,5.19,0,0,0,.29-1.16,15.76,15.76,0,0,1,1.6.47c.2.08.27.14.27.24s0,.17-.17.28a1.62,1.62,0,0,0-.36.68c-.28.7-.61,1.42-1,2.11v8.34c0,1.57,0,2.35,0,2.43s0,.18-.18.18h-1.4c-.17,0-.18,0-.18-.18s0-.86,0-2.43Zm5.54-4a18.28,18.28,0,0,1-2,2.9c-.15.18-.23.26-.31.26s-.18-.1-.32-.32a3.61,3.61,0,0,0-.79-1,14.78,14.78,0,0,0,3-5,6.4,6.4,0,0,0,.27-1.22c.61.11,1.12.21,1.63.35.2,0,.31.13.31.24a.37.37,0,0,1-.15.31,2.1,2.1,0,0,0-.43.78,10.92,10.92,0,0,1-.51,1.19h4.31c1.47,0,2,0,2,0s.2,0,.2.2v1.16c0,.18,0,.2-.2.2s-.57,0-2,0H374.8v1.91h2.11c1.3,0,1.73,0,1.83,0s.18,0,.18.17v1.17c0,.16,0,.18-.18.18s-.53,0-1.83,0H374.8v2h2.11c1.32,0,1.77,0,1.86,0s.19,0,.19.16v1.18c0,.18,0,.19-.19.19s-.54,0-1.86,0H374.8v.88c0,1.6,0,2.42,0,2.5s0,.17-.18.17h-1.4c-.17,0-.18,0-.18-.17s0-.9,0-2.5V11Z"/><path class="cls-3" d="M384.89,7.74c.28.06.4.14.4.3a1.63,1.63,0,0,1-.16.53,9.05,9.05,0,0,0-.24,1.95c-.16,2.47-.24,4.1-.24,6.2,0,1.62.19,2,1.52,2a8.79,8.79,0,0,0,5.77-2.94,5.1,5.1,0,0,0,.38,1.52,1.11,1.11,0,0,1,.13.38c0,.15-.07.28-.33.5a9.61,9.61,0,0,1-6.25,2.4c-2.11,0-3.1-.82-3.1-3.27,0-2.68.15-5,.23-6.91a10.37,10.37,0,0,0-.17-2.93A17,17,0,0,1,384.89,7.74Z"/><path class="cls-3" d="M399.43,14.65a27.56,27.56,0,0,1-3.4-.06c-.18,0-.25-.06-.26-.27a8.71,8.71,0,0,1-.1-1.36,25.47,25.47,0,0,0,3.71.13c0-.61,0-1.24,0-1.85a27.36,27.36,0,0,1-3.94-.08c-.18,0-.26-.06-.28-.22-.05-.4-.08-.78-.11-1.44a38.81,38.81,0,0,0,4.32.16c0-.59,0-1,0-1.55A4.47,4.47,0,0,0,399.1,7a10.34,10.34,0,0,1,2.08.29.33.33,0,0,1,.18.48,2.05,2.05,0,0,0-.25.77c0,.32,0,.55,0,1a30.51,30.51,0,0,0,3.61-.48c.2,0,.26,0,.28.19a7.71,7.71,0,0,1,.08,1.17c0,.2-.05.24-.18.25a36.25,36.25,0,0,1-3.81.42c0,.64,0,1.23,0,1.81,1.25-.08,2-.24,3.23-.42.2,0,.25,0,.26.13,0,.3.05.83.05,1.31,0,.16-.06.21-.24.23-1.09.17-1.85.28-3.24.38,0,.74.07,1.52.12,2.26a15.16,15.16,0,0,1,4.37,1.93.3.3,0,0,1,.11.39,4.8,4.8,0,0,1-.72,1.18.24.24,0,0,1-.22.13.28.28,0,0,1-.18-.08,12.88,12.88,0,0,0-3.28-1.82c0,1.72-1.09,2.43-3.35,2.43s-3.36-.91-3.36-2.24,1.3-2.28,3.3-2.28a15.09,15.09,0,0,1,1.58.07C399.48,15.85,399.44,15.2,399.43,14.65ZM398,17.89c-1.21,0-1.78.33-1.78.85s.49.72,1.63.72a2.11,2.11,0,0,0,1.5-.48,1.53,1.53,0,0,0,.18-.9A7.44,7.44,0,0,0,398,17.89Z"/><path class="cls-3" d="M411.42,7.74c.28.06.4.14.4.3a1.43,1.43,0,0,1-.17.53,9.42,9.42,0,0,0-.23,1.95c-.17,2.47-.25,4.1-.25,6.2,0,1.62.2,2,1.52,2a8.77,8.77,0,0,0,5.77-2.94,5.79,5.79,0,0,0,.38,1.52,1.11,1.11,0,0,1,.13.38c0,.15-.06.28-.33.5a9.59,9.59,0,0,1-6.25,2.4c-2.11,0-3.1-.82-3.1-3.27,0-2.68.15-5,.23-6.91a10,10,0,0,0-.16-2.93A17,17,0,0,1,411.42,7.74Z"/><path class="cls-3" d="M428.94,9.53c.18,0,.24,0,.26.16.05.35.1.82.12,1.15s0,.26-.25.31a27.21,27.21,0,0,1-2.87.61c-1.12,3.55-2,6-3,8.66-.08.22-.18.2-.36.16a14.44,14.44,0,0,1-1.32-.6.25.25,0,0,1-.13-.32,59.74,59.74,0,0,0,2.85-7.58c-1,.09-2.11.17-2.89.17-.24,0-.31-.05-.34-.25s-.15-.88-.23-1.46a7.46,7.46,0,0,0,1.22.05,23.49,23.49,0,0,0,2.67-.16c.16-.64.3-1.35.41-2a10.12,10.12,0,0,0,.1-1.48,10,10,0,0,1,2.08.45.27.27,0,0,1,.18.26.41.41,0,0,1-.08.26,2.82,2.82,0,0,0-.35.64c-.16.57-.28,1.12-.4,1.52C427.24,10,428.13,9.76,428.94,9.53Zm-.65,7.65c.17,0,.23.07.25.23.13,1.17.94,1.5,2.52,1.5a25.54,25.54,0,0,0,2.78-.22c.13,0,.18,0,.19.14a9.22,9.22,0,0,1,.14,1.39c0,.2,0,.24-.27.26a20.11,20.11,0,0,1-2.24.18c-2.16,0-3.28-.29-4-1a3.11,3.11,0,0,1-.74-2.2A8.46,8.46,0,0,1,428.29,17.18Zm-.18-4.24c0-.22.05-.27.3-.32a17.58,17.58,0,0,1,3.22-.37,13.22,13.22,0,0,1,1.93.16c.23,0,.28.05.28.24a10.88,10.88,0,0,1,0,1.28c0,.28-.08.34-.31.29a11.63,11.63,0,0,0-2.05-.19,18.53,18.53,0,0,0-3.31.37C428.15,13.84,428.11,13.26,428.11,12.94Z"/></g></g></svg>