<svg xmlns="http://www.w3.org/2000/svg" viewBox="0 0 124.11 105.94"><defs><style>.cls-1{fill:#f9d1e1;}.cls-2{fill:#343333;}</style></defs><title>アセット 7</title><g id="レイヤー_2" data-name="レイヤー 2"><g id="デザイン"><polygon class="cls-1" points="124.11 52.97 94.93 2.4 94.82 2.21 93.54 0 90.77 0 90.77 0 33.34 0 30.57 0 0 52.97 29.71 104.46 30.57 105.94 93.54 105.94 94.93 103.54 94.93 103.54 124.11 52.97"/><path class="cls-2" d="M49.62,38.55a18.11,18.11,0,0,1,.27,2.9,8.69,8.69,0,0,1-1.71,5.49,5.48,5.48,0,0,1-4.66,2c-2.92,0-4.9-2.18-4.9-5.34a10.69,10.69,0,0,1,1.75-5.68,8,8,0,0,1,1.14-1.38c-.63.09-1.29.15-2.13.3-.32.06-.6.19-.76.19s-.26-.13-.32-.29a12.74,12.74,0,0,1-.51-1.93,9.78,9.78,0,0,0,2,0,23.28,23.28,0,0,0,2.49-.32,3.1,3.1,0,0,0,1.33-.4c.25-.19.38-.19.57,0a4.93,4.93,0,0,1,.8,1c.25.42.23.63-.13.82A7.11,7.11,0,0,0,43,37.58a8.89,8.89,0,0,0-2.33,5.7c0,2.43,1.21,3.53,2.85,3.53a3.73,3.73,0,0,0,3.4-1.73,9.59,9.59,0,0,0,1.17-5.16A25.1,25.1,0,0,0,48,37.07c0-.4-.09-.76-.13-1s-.12-.48-.21-.78-.1-.42.19-.51a9.52,9.52,0,0,1,1.42-.36c.15,0,.25.07.29.21a23.17,23.17,0,0,0,1.27,2.84,19.18,19.18,0,0,0,3.12,4.32c.19.19.13.34,0,.55a8.78,8.78,0,0,1-1,1.19c-.19.19-.4.1-.51-.13a21.52,21.52,0,0,1-2.62-4.9Zm5.21-4.35a2.05,2.05,0,0,1-4.1,0,2,2,0,0,1,2.05-2A2,2,0,0,1,54.83,34.2Zm-3.17,0a1.12,1.12,0,1,0,1.12-1.12A1.09,1.09,0,0,0,51.66,34.2Z"/><path class="cls-2" d="M61.56,41.66a3.8,3.8,0,0,1,2.31-1c2.06,0,2.57,1.77,2.78,3.6.15,1.38.38,2,1.1,2a2.45,2.45,0,0,0,1.79-.91,9.51,9.51,0,0,0,1.91-3.1,4.45,4.45,0,0,0,1.11,1.58.5.5,0,0,1,.2.4.62.62,0,0,1-.07.32,10.05,10.05,0,0,1-1.64,2.35,4.72,4.72,0,0,1-3.49,1.6c-1.92,0-2.74-1-3-3.69C64.41,43,64,42.4,63.32,42.4A3.32,3.32,0,0,0,60.93,44a22.16,22.16,0,0,0-2.22,4.22c-.12.26-.21.3-.46.23a6.16,6.16,0,0,1-1.46-.82.32.32,0,0,1-.17-.25.48.48,0,0,1,.09-.26c2.78-5.44,4.52-9.07,5.57-11.44a11.49,11.49,0,0,0,.95-2.77A11.35,11.35,0,0,1,65.36,34a.49.49,0,0,1,.26.4.57.57,0,0,1-.21.38,5.07,5.07,0,0,0-.59.81c-1.21,2.34-2.24,4.34-3.28,6.05Z"/><path class="cls-2" d="M84.51,34.08a.5.5,0,0,1,.15.31.39.39,0,0,1-.27.36,3.43,3.43,0,0,0-.91.66c-1.63,1.47-3.72,3.42-5.19,4.94-.17.21-.24.33-.24.42s.07.21.24.34a52.73,52.73,0,0,1,7.07,6,.44.44,0,0,1,.14.24c0,.08,0,.14-.14.23-.44.48-1,1-1.31,1.31a.44.44,0,0,1-.26.15c-.08,0-.14-.05-.23-.17a48.2,48.2,0,0,0-6.92-6.42c-.72-.55-1-1-1-1.59s.34-1.05.93-1.67c1.61-1.75,3.19-3.33,4.82-5.12a5.69,5.69,0,0,0,1-1.42A15.57,15.57,0,0,1,84.51,34.08Z"/><path class="cls-2" d="M37.07,62a1.69,1.69,0,0,0,1-.23.45.45,0,0,1,.25-.07.55.55,0,0,1,.3.11,9.07,9.07,0,0,1,1.3,1,.6.6,0,0,1,.24.43.53.53,0,0,1-.22.4,2.28,2.28,0,0,0-.63.82,26.18,26.18,0,0,1-3.76,5.87,24.23,24.23,0,0,1-5.78,4.73.49.49,0,0,1-.3.1A.69.69,0,0,1,29,75a5,5,0,0,0-1.8-.88,21.87,21.87,0,0,0,6.32-4.84A19.41,19.41,0,0,0,37,63.88l-4.6.14a26.44,26.44,0,0,1-3.59,3.89.61.61,0,0,1-.4.21.5.5,0,0,1-.29-.11,4.89,4.89,0,0,0-1.82-.82,22.53,22.53,0,0,0,5.11-5.64A8.16,8.16,0,0,0,32.55,59a9.16,9.16,0,0,1,2.22,1,.37.37,0,0,1,.19.32.38.38,0,0,1-.2.33,2,2,0,0,0-.48.51l-.63,1Zm2.36-2.56c.09-.08.17-.06.28,0a8.75,8.75,0,0,1,1.81,2,.18.18,0,0,1-.06.3l-.8.59c-.13.1-.22.08-.32-.06a9.56,9.56,0,0,0-1.92-2.2Zm1.69-1.24c.11-.07.17,0,.29,0a7.9,7.9,0,0,1,1.8,2,.22.22,0,0,1-.06.34l-.76.59c-.15.11-.24.05-.32-.06a8.72,8.72,0,0,0-1.9-2.18Z"/><path class="cls-2" d="M49.37,62c.32.1.36.32.24.59a2.86,2.86,0,0,0-.22,1.29,14.21,14.21,0,0,1-1,5.59,9.73,9.73,0,0,1-2.7,3.57.88.88,0,0,1-.49.25.63.63,0,0,1-.36-.16,6.61,6.61,0,0,0-1.62-.79,9.49,9.49,0,0,0,3.16-3.78c.53-1.3.78-2.34.79-5.38A5.22,5.22,0,0,0,47,61.6,16.58,16.58,0,0,1,49.37,62Zm4.22,8a19.16,19.16,0,0,0,2.69-1.77,18.28,18.28,0,0,0,3.33-3.23A5.21,5.21,0,0,0,60.2,67a1.1,1.1,0,0,1,.11.32c0,.14-.08.27-.28.48a23.74,23.74,0,0,1-2.82,2.49,30.87,30.87,0,0,1-3.38,2.28,5.81,5.81,0,0,0-.55.39.59.59,0,0,1-.38.16.8.8,0,0,1-.4-.16,5.4,5.4,0,0,1-1.14-1.15.8.8,0,0,1-.17-.4.58.58,0,0,1,.08-.29c.13-.25.11-.47.11-1.44V63.71a15.11,15.11,0,0,0-.19-3.3,17.56,17.56,0,0,1,2.38.4c.24,0,.34.17.34.32a1.3,1.3,0,0,1-.15.47,5.28,5.28,0,0,0-.17,2.11Z"/><path class="cls-2" d="M66.26,68.2a15.68,15.68,0,0,0-2.79.22c-.23,0-.38-.11-.44-.4a20,20,0,0,1-.29-2.29,24.65,24.65,0,0,0,4.11.22H73c1.45,0,2.91,0,4.37,0,.29,0,.35,0,.35.26a17.81,17.81,0,0,1,0,1.79c0,.23-.08.3-.35.28l-4.23,0Z"/><path class="cls-2" d="M84,63.26c-1.23,0-2.31.05-3.13.09-.25,0-.32-.11-.36-.38s-.14-1.37-.17-1.92a31.45,31.45,0,0,0,3.64.14h6.79a1.82,1.82,0,0,0,1-.19.58.58,0,0,1,.32-.12.45.45,0,0,1,.33.14,6.64,6.64,0,0,1,1.29,1.31.65.65,0,0,1,.15.38.55.55,0,0,1-.19.36,2.27,2.27,0,0,0-.44.74A22.44,22.44,0,0,1,89.63,70a21.38,21.38,0,0,1-5.4,4.52.87.87,0,0,1-.51.17.65.65,0,0,1-.47-.2,5.61,5.61,0,0,0-1.77-1,18.5,18.5,0,0,0,6.21-4.75,16.08,16.08,0,0,0,3.21-5.41Zm13.13-3.65a2.05,2.05,0,0,1-4.1,0,2,2,0,0,1,2.05-2A2,2,0,0,1,97.17,59.61Zm-3.17,0a1.12,1.12,0,1,0,1.12-1.12A1.08,1.08,0,0,0,94,59.61Z"/></g></g></svg>