<svg xmlns="http://www.w3.org/2000/svg" viewBox="0 0 83.03 50.58"><defs><style>.cls-1{fill:#ff6b3e;}</style></defs><title>アセット 9</title><g id="レイヤー_2" data-name="レイヤー 2"><g id="レイヤー_5" data-name="レイヤー 5"><path class="cls-1" d="M0,10.88V0H4.62A8.12,8.12,0,0,1,7.16.29,2.55,2.55,0,0,1,8.43,1.34,3.18,3.18,0,0,1,8.9,3.05a2.89,2.89,0,0,1-.72,2A3.43,3.43,0,0,1,6,6.08,5.4,5.4,0,0,1,7.21,7,14.21,14.21,0,0,1,8.46,8.76l1.33,2.12H7.16L5.57,8.52a15.39,15.39,0,0,0-1.16-1.6,1.73,1.73,0,0,0-.66-.46,3.69,3.69,0,0,0-1.11-.12H2.2v4.54ZM2.2,4.6H3.82a8.43,8.43,0,0,0,2-.13A1.14,1.14,0,0,0,6.41,4a1.42,1.42,0,0,0,.23-.82,1.27,1.27,0,0,0-.3-.88,1.31,1.31,0,0,0-.82-.43c-.18,0-.72,0-1.61,0H2.2Z"/><path class="cls-1" d="M14.78,10.88V0h8.07V1.84H17V4.25h5.47V6.09H17v3h6.08v1.83Z"/><path class="cls-1" d="M28.69,10.88V0H32l2,7.42L35.9,0h3.3V10.88h-2V2.32L35,10.88H32.88L30.73,2.32v8.56Z"/><path class="cls-1" d="M55,10.88H52.61l-1-2.47H47.31l-.9,2.47H44.08L48.32,0h2.32Zm-4-4.3-1.5-4L48,6.58Z"/><path class="cls-1" d="M60,10.88V0h2.19V4.83L66.63,0h3l-4.1,4.24,4.32,6.64H67l-3-5.1L62.19,7.6v3.28Z"/><path class="cls-1" d="M74.75,10.88V0h8.07V1.84H77V4.25h5.46V6.09H77v3H83v1.83Z"/><polygon class="cls-1" points="43.24 50.58 49.64 39.48 36.83 39.48 43.24 50.58"/><polygon class="cls-1" points="43.24 33.94 49.64 22.84 36.83 22.84 43.24 33.94"/></g></g></svg>