<svg xmlns="http://www.w3.org/2000/svg" viewBox="0 0 124.11 105.94"><defs><style>.cls-1{fill:#bbcff0;}.cls-2{fill:#343333;}</style></defs><title>アセット 17</title><g id="レイヤー_2" data-name="レイヤー 2"><g id="デザイン"><polygon class="cls-1" points="124.11 52.97 94.93 2.4 94.82 2.21 93.54 0 90.77 0 90.77 0 33.34 0 30.57 0 0 52.97 29.71 104.46 30.57 105.94 93.54 105.94 94.93 103.54 94.93 103.54 124.11 52.97"/><path class="cls-2" d="M51.08,30.46a5,5,0,0,0-.66-1.21,12.78,12.78,0,0,1,2.3-.21c.26,0,.42.15.42.34s0,.25,0,.36a4.41,4.41,0,0,0,.07.57,10.17,10.17,0,0,0,.31,1,22.47,22.47,0,0,0,3.44-.86c.17-.07.26-.05.32.1.11.36.25.89.32,1.27a.28.28,0,0,1-.23.34,24.14,24.14,0,0,1-3.28.82c.17.48.42,1.07.66,1.6a23.26,23.26,0,0,0,3.46-1c.19-.1.29-.06.34.11A6.9,6.9,0,0,1,58.85,35c0,.17,0,.26-.15.34a23.85,23.85,0,0,1-3.23,1A14.28,14.28,0,0,0,58,39.51c.19.17.19.24.1.45a5.62,5.62,0,0,1-.78,1.18c-.12.13-.19.19-.31.19a.54.54,0,0,1-.26-.11,4.94,4.94,0,0,0-1.12-.61A9.25,9.25,0,0,0,52,40c-1.78,0-2.83.55-2.83,1.44,0,1.24,1.62,1.64,4.53,1.64.7,0,1.4-.08,2.08-.12.19,0,.25.1.23.25a11.47,11.47,0,0,1-.38,1.73c0,.19-.13.27-.4.29-.43,0-.89.05-1.36.05-4.37,0-6.69-1.23-6.69-3.57,0-2,1.75-3.31,4.71-3.31a8.85,8.85,0,0,1,3.27.48,18.94,18.94,0,0,1-1.58-2.24,46.4,46.4,0,0,1-5.2.57.31.31,0,0,1-.35-.27,10.21,10.21,0,0,1-.34-1.56,32.76,32.76,0,0,0,5.11-.47c-.19-.4-.47-1-.72-1.58a32.47,32.47,0,0,1-4.62.46c-.22,0-.34-.08-.38-.27s-.19-.91-.3-1.52a33.58,33.58,0,0,0,4.73-.3C51.39,31.26,51.27,30.94,51.08,30.46ZM58.42,29c.09-.07.17-.06.28,0a8.69,8.69,0,0,1,1.81,2,.2.2,0,0,1-.06.31l-.8.58a.19.19,0,0,1-.32-.05,9.41,9.41,0,0,0-1.92-2.21Zm1.69-1.23c.11-.08.17-.06.28,0a8.11,8.11,0,0,1,1.81,2,.22.22,0,0,1-.06.34l-.76.59a.19.19,0,0,1-.32-.05,8.94,8.94,0,0,0-1.9-2.19Z"/><path class="cls-2" d="M66.93,37.66a3.82,3.82,0,0,1,2.32-1c2,0,2.56,1.77,2.77,3.6.15,1.38.38,2,1.1,2a2.42,2.42,0,0,0,1.79-.91,9.69,9.69,0,0,0,1.92-3.1,4.58,4.58,0,0,0,1.1,1.58.52.52,0,0,1,.21.4.63.63,0,0,1-.08.32,10,10,0,0,1-1.63,2.35,4.75,4.75,0,0,1-3.5,1.6c-1.91,0-2.73-1-3-3.69-.17-1.89-.59-2.45-1.25-2.45A3.32,3.32,0,0,0,66.3,40a22.16,22.16,0,0,0-2.22,4.22c-.11.26-.21.3-.46.23a6.36,6.36,0,0,1-1.46-.82A.34.34,0,0,1,62,43.4a.5.5,0,0,1,.1-.26c2.77-5.44,4.52-9.07,5.56-11.44a11.49,11.49,0,0,0,.95-2.77A10.76,10.76,0,0,1,70.73,30a.5.5,0,0,1,.27.4.61.61,0,0,1-.21.38,5.07,5.07,0,0,0-.59.81C69,33.92,68,35.92,66.91,37.63Z"/><path class="cls-2" d="M37.38,58a1.72,1.72,0,0,0,.95-.23.4.4,0,0,1,.24-.07.61.61,0,0,1,.31.11,9.55,9.55,0,0,1,1.29,1,.61.61,0,0,1,.25.43.54.54,0,0,1-.23.4,2.28,2.28,0,0,0-.63.82,26.18,26.18,0,0,1-3.76,5.87A24,24,0,0,1,30,71.11a.49.49,0,0,1-.3.1.69.69,0,0,1-.44-.21,5,5,0,0,0-1.8-.88,21.87,21.87,0,0,0,6.32-4.84,19.41,19.41,0,0,0,3.52-5.4l-4.6.14a26.44,26.44,0,0,1-3.59,3.89.61.61,0,0,1-.4.21.47.47,0,0,1-.28-.11,5,5,0,0,0-1.83-.82,22.34,22.34,0,0,0,5.11-5.64A7.94,7.94,0,0,0,32.85,55a9.47,9.47,0,0,1,2.23,1,.4.4,0,0,1,.19.32.39.39,0,0,1-.21.33,2,2,0,0,0-.48.51l-.62,1Zm2.35-2.56c.1-.08.17-.06.29,0a9,9,0,0,1,1.8,2,.18.18,0,0,1-.06.3l-.79.59c-.14.1-.23.08-.33-.06a9.32,9.32,0,0,0-1.92-2.2Zm1.69-1.24c.12-.07.17,0,.29,0a7.9,7.9,0,0,1,1.8,2,.21.21,0,0,1-.06.34l-.76.59c-.15.11-.24.05-.32-.06a8.72,8.72,0,0,0-1.9-2.18Z"/><path class="cls-2" d="M49.67,58c.32.1.36.32.25.59a2.74,2.74,0,0,0-.23,1.29,14.21,14.21,0,0,1-1,5.59A9.8,9.8,0,0,1,46,69.06a.9.9,0,0,1-.5.25.63.63,0,0,1-.36-.16,6.53,6.53,0,0,0-1.61-.79,9.54,9.54,0,0,0,3.15-3.78c.53-1.3.78-2.34.8-5.38a5.21,5.21,0,0,0-.19-1.6A16.58,16.58,0,0,1,49.67,58Zm4.22,8a19.16,19.16,0,0,0,2.69-1.77,18,18,0,0,0,3.33-3.23A5.41,5.41,0,0,0,60.5,63a.87.87,0,0,1,.11.32c0,.14-.07.27-.28.48a24.49,24.49,0,0,1-2.81,2.49,32.07,32.07,0,0,1-3.39,2.28,5.81,5.81,0,0,0-.55.39.57.57,0,0,1-.38.16.83.83,0,0,1-.4-.16,5.65,5.65,0,0,1-1.14-1.15.8.8,0,0,1-.17-.4.58.58,0,0,1,.08-.29c.13-.25.11-.47.11-1.44V59.71a15.11,15.11,0,0,0-.19-3.3,17.56,17.56,0,0,1,2.38.4c.24,0,.34.17.34.32a1.3,1.3,0,0,1-.15.47,5.28,5.28,0,0,0-.17,2.11Z"/><path class="cls-2" d="M66.56,64.2a15.68,15.68,0,0,0-2.79.22c-.23,0-.38-.11-.44-.4a20.48,20.48,0,0,1-.28-2.29,24.45,24.45,0,0,0,4.1.22h6.12c1.44,0,2.9,0,4.37-.05.28,0,.34,0,.34.26A13.37,13.37,0,0,1,78,64c0,.23-.08.3-.34.28l-4.24,0Z"/><path class="cls-2" d="M84.34,59.26c-1.23,0-2.31.05-3.13.09-.25,0-.32-.11-.36-.38s-.13-1.37-.17-1.92a31.53,31.53,0,0,0,3.65.14h6.78a1.8,1.8,0,0,0,1-.19.61.61,0,0,1,.33-.12.44.44,0,0,1,.32.14,6.64,6.64,0,0,1,1.29,1.31.59.59,0,0,1,.15.38.51.51,0,0,1-.19.36,2.28,2.28,0,0,0-.43.74A22.47,22.47,0,0,1,89.93,66a21.21,21.21,0,0,1-5.4,4.52.87.87,0,0,1-.51.17.65.65,0,0,1-.47-.2,5.61,5.61,0,0,0-1.77-1A18.5,18.5,0,0,0,88,64.67a16.08,16.08,0,0,0,3.21-5.41Zm13.13-3.65a2.05,2.05,0,0,1-4.1,0,2,2,0,0,1,2-2A2,2,0,0,1,97.47,55.61Zm-3.17,0a1.12,1.12,0,1,0,1.12-1.12A1.08,1.08,0,0,0,94.3,55.61Z"/></g></g></svg>