<svg width="30" height="30" viewBox="0 0 30 30" fill="none" xmlns="http://www.w3.org/2000/svg">
<path d="M15 0.5C22.9946 0.5 29.5 7.00537 29.5 15C29.5 22.9946 22.9946 29.5 15 29.5C7.00537 29.5 0.5 22.9946 0.5 15C0.5 7.00537 7.00537 0.5 15 0.5ZM15 1.80762C7.7004 1.80762 1.80762 7.7004 1.80762 15C1.80762 22.2996 7.7004 28.1924 15 28.1924C22.2996 28.1924 28.1924 22.2996 28.1924 15C28.1924 7.7004 22.2996 1.80762 15 1.80762ZM15.6543 8.57715V14.3457H21.4229V15.6543H15.6543V21.4229H14.3457V15.6543H8.57715V14.3457H14.3457V8.57715H15.6543Z" fill="black" stroke="black"/>
</svg>
