<svg width="64" height="64" viewBox="0 0 64 64" fill="none" xmlns="http://www.w3.org/2000/svg">
<path d="M0 4C0 1.79086 1.79086 0 4 0H54.3431C57.9068 0 59.6914 4.30857 57.1716 6.82843L6.82842 57.1716C4.30856 59.6914 0 57.9068 0 54.3431V4Z" fill="#CDAA1F"/>
<path d="M16.3889 36.7543L10.1081 30.4599L11.3908 29.18L16.5651 30.713L18.5499 31.4448L18.5924 31.4025C17.8802 30.8077 16.9477 30.077 16.2357 29.3635L13.7267 26.8491L14.9159 25.6624L21.1968 31.9568L19.9226 33.2282L14.7482 31.6783L12.7635 30.9634L12.721 31.0058C13.4585 31.626 14.3402 32.3228 15.0607 33.0448L17.5781 35.5676L16.3889 36.7543ZM24.0256 29.1341L17.7448 22.8397L21.6013 18.9915L22.6523 20.0448L20.053 22.6385L21.5024 24.0911L23.711 21.8873L24.762 22.9406L22.5535 25.1444L24.2317 26.8263L26.9245 24.1394L27.9755 25.1927L24.0256 29.1341ZM31.1204 22.0545L23.6334 16.9638L24.9076 15.6923L28.4771 18.2672C29.2317 18.8366 29.9948 19.3974 30.7663 19.9837L30.8003 19.9498C30.2496 19.1431 29.7159 18.3365 29.1991 17.5468L26.8613 13.7428L27.9401 12.6664L31.7305 15.0209C32.5106 15.5308 33.3161 16.0833 34.1301 16.6272L34.1726 16.5848C33.5879 15.812 33.0117 15.0477 32.4525 14.3004L29.8853 10.7253L31.0745 9.53868L36.1916 16.9943L34.6286 18.5539L30.8213 16.1484C30.2278 15.7575 29.6512 15.3665 29.0916 14.9586L29.0576 14.9925C29.4558 15.5615 29.854 16.1304 30.2437 16.7248L32.6579 20.5203L31.1204 22.0545Z" fill="white"/>
<path d="M6.85492 20.7751L6.72435 22.3811L13.6625 21.3275L6.98414 19.1715L6.85492 20.7751Z" fill="white"/>
<path d="M12.1467 12.0669L11.0148 13.2122L17.0072 16.8666L13.2767 10.9221L12.1467 12.0669Z" fill="white"/>
<path d="M20.823 6.69997L19.2209 6.85014L21.4606 13.4996L22.4251 6.5498L20.823 6.69997Z" fill="white"/>
</svg>
