<svg width="123" height="82" viewBox="0 0 123 82" fill="none" xmlns="http://www.w3.org/2000/svg">
<g clip-path="url(#clip0_188_720)">
<path d="M95.7739 81.4589L90.5202 60.5652C93.5212 62.1885 98.0589 64.1915 98.268 64.2803C98.445 64.3611 98.6381 64.4015 98.8312 64.4015C99.0243 64.4015 99.2174 64.3611 99.3944 64.2803C99.6438 64.1673 105.235 61.712 108.116 60.024L102.717 81.4589H95.7659H95.7739Z" fill="#F0F0E0"/>
<path d="M117.666 32.0312C117.529 31.9343 117.384 31.8535 117.239 31.7808L117.167 31.7404C113.844 29.9555 105.589 20.8049 104.254 10.9355C108.244 12.1793 111.801 14.8526 114.335 18.5112C117.151 22.5898 118.35 27.4761 117.666 32.0312Z" fill="#F0F0E0"/>
<path d="M107.545 9.16675C104.881 7.94721 102.09 7.32532 99.2496 7.32532C96.4095 7.32532 93.5051 7.86644 90.8823 8.94061C90.6731 8.3268 90.5685 7.70492 90.5685 7.08303C90.5685 3.17404 94.4625 0 99.2496 0C104.037 0 107.939 3.18211 107.939 7.08303C107.939 7.79376 107.81 8.49641 107.553 9.16675H107.545Z" fill="#F0F0E0"/>
<path d="M80.9139 31.9584C80.1737 26.7572 81.3966 21.5318 84.3171 17.5259C87.7847 12.7769 93.0867 10.1602 99.2496 10.1602C99.8852 10.1602 100.553 10.2005 101.221 10.2813C99.6921 20.2395 88.4203 31.5708 81.9839 31.5788H81.9195C81.823 31.5869 81.7345 31.6112 81.6701 31.6273C81.6219 31.6354 81.5736 31.6435 81.5334 31.6515H81.4207L81.3483 31.7242C81.2115 31.7808 81.0667 31.8615 80.9139 31.9504V31.9584Z" fill="#F0F0E0"/>
<path d="M99.2496 53.999C91.6627 53.999 85.2262 47.4006 84.2769 38.6538C84.2045 37.9512 83.5528 37.402 82.7965 37.402C82.2816 37.402 81.7667 36.7235 81.7667 35.8271C81.7667 35.2213 82.0161 34.6398 82.3781 34.3814C89.7881 34.0583 98.8151 24.5604 102.492 15.7894C105.252 24.5362 112.01 32.1684 115.856 34.236C115.856 34.236 115.96 34.2845 115.992 34.3006C116.427 34.4783 116.741 35.1244 116.741 35.8271C116.741 36.7235 116.242 37.3939 115.791 37.41H115.614C115.558 37.402 115.502 37.41 115.453 37.41H115.397C114.769 37.507 114.295 38.0077 114.222 38.6619C113.273 47.4087 106.837 53.999 99.2496 53.999Z" fill="#F0F0E0"/>
<path d="M98.8312 61.4455C97.4715 60.8317 93.7626 59.1518 91.4535 57.8677C92.0408 57.1408 92.5557 56.3735 92.9982 55.5336C95.0096 56.3897 97.1095 56.8258 99.2416 56.8258C101.374 56.8258 103.465 56.3897 105.485 55.5336C105.863 56.2362 106.297 56.9066 106.772 57.5365C104.584 58.8287 100.36 60.7509 98.8232 61.4374L98.8312 61.4455Z" fill="#F0F0E0"/>
<path d="M75.4992 81.4589V73.2371C75.9497 68.9647 78.4519 65.8553 83.1424 63.7554C84.9446 62.9478 86.4652 62.1159 87.7847 61.2032L93.4085 81.4589H75.4911H75.4992Z" fill="#F0F0E0"/>
<path d="M105.075 81.4589L110.706 61.2032C112.026 62.1159 113.555 62.9478 115.349 63.7554C120.047 65.8472 122.549 68.9647 123 73.2775V81.4589H105.083H105.075Z" fill="#F0F0E0"/>
<path d="M16.8795 56.4623C17.4588 56.0585 17.9978 55.6305 18.4806 55.1943C20.1862 56.4058 23.4688 59.0306 25.1342 60.3713L22.2941 63.933L16.8715 56.4704L16.8795 56.4623Z" fill="#F0F0E0"/>
<path d="M29.0846 60.3633C30.75 59.0226 34.0487 56.3897 35.7382 55.1863C36.221 55.6305 36.76 56.0585 37.3393 56.4543L31.9166 63.9169L29.0765 60.3552L29.0846 60.3633Z" fill="#F0F0E0"/>
<path d="M27.1134 58.3361C26.1158 57.5284 24.386 56.1474 22.7769 54.8955C24.1929 55.3074 25.6491 55.5093 27.1134 55.5093C28.5777 55.5093 30.034 55.2993 31.45 54.8955C29.8328 56.1474 28.1111 57.5284 27.1134 58.3361Z" fill="#F0F0E0"/>
<path d="M20.854 82L17.4347 62.027L21.1034 67.0828C21.3609 67.4382 21.7712 67.6562 22.2057 67.6643C22.6643 67.6643 23.0665 67.4705 23.3401 67.1313L27.1054 62.4066L30.8707 67.1313C31.1362 67.4705 31.5385 67.6643 31.9729 67.6643C32.4396 67.6562 32.8499 67.4382 33.1073 67.0828L36.8485 61.9301L33.4131 82H20.846H20.854Z" fill="#F0F0E0"/>
<path d="M44.2504 27.0965C43.5585 25.0208 42.4804 23.0582 41.4344 21.136C39.9138 18.3497 38.353 15.4745 37.5243 11.9935C38.4335 12.6154 39.238 13.31 39.9219 14.0772C42.6332 17.0978 44.1056 21.556 44.2423 27.1045L44.2504 27.0965Z" fill="#F0F0E0"/>
<path d="M9.98449 26.9269C10.1454 21.4268 11.6177 17.009 14.313 14.0207C17.2255 10.7902 21.4976 9.15063 26.9927 9.15063C27.0169 9.15063 27.1054 9.15063 27.1215 9.15063C29.511 9.15063 31.7074 9.47369 33.6625 10.1037C30.3075 15.4745 25.1342 17.4128 20.5563 19.117C16.2117 20.7403 11.7384 22.4121 9.97644 26.9188L9.98449 26.9269Z" fill="#F0F0E0"/>
<path d="M27.1134 52.6825C19.5265 52.6825 13.0901 46.0841 12.1407 37.3373C12.0683 36.6346 11.4166 36.0854 10.6603 36.0854C10.1454 36.0854 9.63049 35.407 9.63049 34.5105C9.63049 33.6141 10.1454 32.9276 10.604 32.9276C11.3764 32.9276 12.012 32.2895 12.012 31.5142C12.012 25.3357 15.8014 23.9143 21.5459 21.774C26.0755 20.078 31.1845 18.1719 34.9578 13.2211C35.9233 16.9039 37.6048 19.9891 38.9725 22.5009C40.7184 25.6992 42.2229 28.4694 42.2229 31.5223C42.2229 32.2976 42.8585 32.9356 43.6309 32.9356C44.0895 32.9356 44.6044 33.6141 44.6044 34.5186C44.6044 35.4232 44.1056 36.0854 43.655 36.1016H43.478C43.4217 36.0935 43.3734 36.1016 43.3171 36.1016H43.2527C42.6413 36.2066 42.1505 36.7073 42.0781 37.3534C41.1287 46.1002 34.6923 52.6906 27.1054 52.6906L27.1134 52.6825Z" fill="#F0F0E0"/>
<path d="M0 82V72.486C0.329867 69.3523 2.43779 63.295 8.21448 60.7186C8.85812 60.4278 9.50981 60.1532 10.1695 59.8706C11.3442 59.3698 12.6476 58.8126 13.9107 58.1907L18.561 81.9919H0V82Z" fill="#F0F0E0"/>
<path d="M35.7221 82L40.3644 58.223C41.5149 58.7884 42.7137 59.3133 44.0332 59.8706C44.709 60.1533 45.3607 60.436 46.0043 60.7186C51.781 63.295 53.8889 69.3523 54.2188 72.5264V82H35.7141H35.7221Z" fill="#F0F0E0"/>
</g>
<defs>
<clipPath id="clip0_188_720">
<rect width="123" height="82" fill="white"/>
</clipPath>
</defs>
</svg>
