<svg width="99" height="65" viewBox="0 0 99 65" fill="none" xmlns="http://www.w3.org/2000/svg">
<g clip-path="url(#clip0_188_706)">
<path d="M26.6373 1.6939C34.2372 -1.45488 40.9218 0.549351 44.1882 1.65829C45.2703 2.02454 45.8619 3.18944 45.5383 4.2882L40.9622 19.0605C40.8308 19.9456 40.1633 20.6527 39.2885 20.8358C37.8576 21.1308 36.7047 21.4869 34.3939 22.4025L26.6373 1.6939Z" fill="#F0F0E0"/>
<path d="M46.8985 5.00045C63.0184 14.7774 53.1229 18.9741 46.9389 19.2844L42.9443 19.5184L46.9035 4.99536L46.8985 5.00045Z" fill="#F0F0E0"/>
<path d="M28.4981 28.7205C26.7132 30.5162 26.2985 31.0656 25.2569 32.1389C24.5086 32.907 23.5074 33.3445 22.5467 32.8663L2.67487 25.4344C1.63324 24.9155 1.19333 23.6489 1.69898 22.5959C2.94792 19.9965 5.65817 15.1589 10.3404 10.4485C15.0176 5.74313 19.8314 3.01657 22.4152 1.76012C23.4619 1.25143 24.7209 1.69399 25.2367 2.74188L32.6242 22.7333C33.0995 23.6947 32.6646 24.707 31.9011 25.4598C30.8342 26.5077 30.2881 26.9249 28.5032 28.7205H28.4981Z" fill="#F0F0E0"/>
<path d="M1.68377 26.8281C-1.44616 34.4737 0.546074 41.1985 1.64838 44.4846C2.01244 45.5732 3.17037 46.1684 4.26256 45.8428L18.9465 41.2392C19.8263 41.107 20.5291 40.4355 20.7111 39.5555C21.0044 38.1159 21.3584 36.9561 22.2685 34.6314L1.68377 26.8281Z" fill="#F0F0E0"/>
<path d="M5.25872 46.9009C14.9772 63.1178 19.1488 53.1628 19.4572 46.9416L19.6898 42.923L5.25366 46.906L5.25872 46.9009Z" fill="#F0F0E0"/>
<path d="M98.9697 47.3282C96.578 51.764 89.7316 54.5058 84.5942 54.5058V65.0051C89.7316 65.0051 96.2948 62.2328 98.3477 57.4562C98.7472 56.5253 98.9495 55.5435 98.9697 54.577V47.3282Z" fill="#F0F0E0"/>
<path d="M84.5942 52.6796V42.3685L55.6562 25.8667V36.1778L84.5942 52.6796Z" fill="#F0F0E0"/>
<path d="M84.5942 65V54.5058L55.6562 38.1871V48.4982L84.5942 65Z" fill="#F0F0E0"/>
<path d="M85.6915 35.0893C87.8334 35.0893 89.5697 33.3424 89.5697 31.1876C89.5697 29.0328 87.8334 27.286 85.6915 27.286C83.5495 27.286 81.8132 29.0328 81.8132 31.1876C81.8132 33.3424 83.5495 35.0893 85.6915 35.0893Z" fill="#F0F0E0"/>
<path d="M78.4405 30.5365C78.4405 27.4843 80.4985 24.9256 83.2947 24.1728C82.5109 22.6518 80.9384 21.609 79.1181 21.609C76.514 21.609 74.4055 23.7302 74.4055 26.35C74.4055 28.7459 76.1702 30.7196 78.4658 31.0401C78.4557 30.8722 78.4405 30.7094 78.4405 30.5416V30.5365Z" fill="#F0F0E0"/>
<path d="M56.1517 23.9999H73.6268C73.2931 24.768 73.1211 25.5971 73.1211 26.4365C73.1211 29.4784 75.3814 32.0829 78.3748 32.5051L79.9271 32.6933L79.8108 31.1317C79.8007 30.9791 79.7906 30.857 79.7906 30.7298C79.7906 28.6696 80.9788 26.7468 82.8194 25.821L83.6183 25.4954L83.6638 25.4801C83.7194 25.4598 83.77 25.4445 83.8307 25.4293L85.3476 25.0172L84.6245 23.6133C83.7498 21.9193 82.1418 20.7443 80.3013 20.4085C81.08 19.2843 82.1519 18.7757 83.6891 18.7757C84.2908 18.7757 84.8824 18.8469 85.4588 18.9181C85.9544 18.9791 86.4246 19.0351 86.8443 19.0351C87.9871 19.0351 88.6242 18.5315 88.7354 17.5446C88.8669 16.334 88.5028 15.0572 88.1438 14.1466C89.8327 15.0114 92.8362 16.9851 93.9587 20.5357C95.8043 26.3653 92.0272 28.8324 90.7631 29.4784C90.04 27.3012 88.0174 25.8159 85.7066 25.8159C85.5448 25.8159 85.3881 25.8261 85.2313 25.8413H85.1757L84.1239 26.055L84.0987 26.0651C81.8688 26.7722 80.367 28.8324 80.367 31.1876C80.367 34.1482 82.7587 36.5543 85.7016 36.5543C88.6444 36.5543 90.9704 34.2092 91.0361 31.3046C92.8261 30.5975 95.7639 28.3847 96.1633 24.3865C97.1797 24.9511 97.9938 25.8718 98.4842 27.0367C99.2073 28.751 99.177 30.8468 98.4033 32.6475C96.3757 37.3529 89.8377 40.1812 84.6195 40.227L56.1568 23.9948L56.1517 23.9999Z" fill="#F0F0E0"/>
<path d="M98.9444 33.4868C98.9798 34.5703 98.7826 34.8704 98.3275 35.9234C95.9409 40.176 89.7215 42.3532 84.5942 42.3532V52.6847C89.7215 52.6847 96.2746 49.9174 98.3275 45.151C98.727 44.2201 98.9292 43.2383 98.9444 42.2769V33.4868Z" fill="#F0F0E0"/>
</g>
<defs>
<clipPath id="clip0_188_706">
<rect width="99" height="65" fill="white"/>
</clipPath>
</defs>
</svg>
