<svg width="101" height="72" viewBox="0 0 101 72" fill="none" xmlns="http://www.w3.org/2000/svg">
<g clip-path="url(#clip0_184_678)">
<path d="M7.05599 30.5439V69.5236C7.05599 70.7583 8.00608 71.7625 9.16973 71.7625H10.8302C11.9982 71.7625 12.944 70.7583 12.944 69.5236V30.5439C16.8882 30.1135 20 26.7181 20 22.688V3.14163C20 1.70695 18.8276 0.537476 17.3894 0.537476H17.3458C15.9076 0.537476 14.7352 1.70695 14.7352 3.14163V18.7752C14.7352 19.0926 14.5957 19.3882 14.3473 19.5882C14.0989 19.7882 13.7851 19.8665 13.467 19.8012C12.9919 19.7056 12.6432 19.2578 12.6432 18.7361V3.14163C12.6432 1.70695 11.4709 0.537476 10.0327 0.537476H9.91499C8.47677 0.537476 7.30441 1.70695 7.30441 3.14163V18.7752C7.30441 19.0926 7.16494 19.3882 6.91652 19.5882C6.6681 19.7882 6.35431 19.8665 6.03616 19.8012C5.56111 19.7056 5.21245 19.2578 5.21245 18.7361V3.14163C5.21245 1.70695 4.04009 0.537476 2.60187 0.537476C1.16365 0.537476 0 1.70695 0 3.14163V22.688C0 26.792 3.05077 30.1265 7.05599 30.5439Z" fill="#F0F0E0"/>
<path d="M88.1824 29.9178V69.6192C88.1824 70.8408 89.1325 71.8364 90.2962 71.8364H91.9523C93.1203 71.8364 94.066 70.8408 94.066 69.6192V29.9178C98.1715 27.9919 101 22.1923 101 15.5928C101 7.32824 96.572 0.602661 91.1286 0.602661C85.6851 0.602661 81.2528 7.32824 81.2528 15.5928C81.2528 22.1967 84.0813 27.9962 88.178 29.9178H88.1824Z" fill="#F0F0E0"/>
<path d="M51.5174 65.3022C65.8778 65.3022 77.5579 53.6509 77.5579 39.3259C77.5579 25.0009 65.8778 13.3496 51.5174 13.3496C37.157 13.3496 25.477 25.0009 25.477 39.3259C25.477 53.6509 37.157 65.3022 51.5174 65.3022ZM51.5174 21.8098C61.1971 21.8098 69.0768 29.6658 69.0768 39.3259C69.0768 48.986 61.2014 56.842 51.5174 56.842C41.8334 56.842 33.9581 48.986 33.9581 39.3259C33.9581 29.6658 41.8334 21.8098 51.5174 21.8098Z" fill="#F0F0E0"/>
<path d="M51.5174 54.6638C59.9986 54.6638 66.8976 47.7817 66.8976 39.3214C66.8976 30.8612 59.9986 23.9791 51.5174 23.9791C43.0363 23.9791 36.1372 30.8612 36.1372 39.3214C36.1372 47.7817 43.0363 54.6638 51.5174 54.6638Z" fill="#F0F0E0"/>
</g>
<defs>
<clipPath id="clip0_184_678">
<rect width="101" height="72" fill="white"/>
</clipPath>
</defs>
</svg>
