<svg width="87" height="88" viewBox="0 0 87 88" fill="none" xmlns="http://www.w3.org/2000/svg">
<g clip-path="url(#clip0_187_672)">
<path d="M83.8508 18.1793C83.8133 17.6328 83.3586 17.2073 82.8121 17.2073H76.4048L76.0419 11.9596C75.8166 8.70169 74.3774 5.68154 71.9914 3.45398C69.6053 1.22641 66.4892 0 63.2229 0C56.4985 0 50.867 5.25188 50.404 11.9596L50.0411 17.2073H43.6337C43.0872 17.2073 42.6325 17.6328 42.595 18.1793L40.4258 49.5529L50.4999 52.8567L52.6524 53.5659L58.8888 55.6099C58.9555 55.6349 59.0181 55.6599 59.0807 55.685C59.21 55.7392 59.3393 55.7976 59.4603 55.8685L59.5228 55.9019L59.5812 55.9394L59.6313 55.9728C59.8315 56.1063 60.0192 56.2648 60.1903 56.4442C60.2361 56.4942 60.2779 56.5443 60.3238 56.5985C60.4406 56.7403 60.5448 56.8947 60.6324 57.0574C60.6658 57.1116 60.695 57.1658 60.7242 57.2242C60.7701 57.3243 60.8118 57.4203 60.8494 57.5204C60.8744 57.5913 60.8952 57.6581 60.9161 57.729L60.9745 57.875L60.9912 58.0627C61.0204 58.2337 61.0371 58.4089 61.0371 58.5841V62.2342C61.0371 62.2967 61.0329 62.3551 61.0287 62.4177C61.0204 62.5178 61.012 62.6013 61.0037 62.6471C60.9954 62.7347 60.9787 62.8265 60.9578 62.9225C60.9286 63.0559 60.8911 63.1644 60.8702 63.2228C60.8577 63.2729 60.8243 63.373 60.7701 63.494C60.7117 63.6274 60.6575 63.7234 60.6283 63.7734C60.6032 63.8193 60.549 63.9153 60.4739 64.0237C60.4531 64.0529 60.4322 64.078 60.4155 64.103V64.7621H85.9574C86.2453 64.7621 86.5206 64.6411 86.7208 64.4325C86.9169 64.2198 87.017 63.9361 86.9961 63.6483L83.8508 18.1793ZM55.3347 17.2073L55.6809 12.1849C55.9562 8.23865 59.2684 5.14759 63.2229 5.14759C67.1775 5.14759 70.4896 8.23865 70.7649 12.1807L71.1112 17.2073H55.3347Z" fill="#F0F0E0"/>
<path d="M27.6695 52.9568L12.2976 67.7906L29.3297 73.372L39.4539 63.6024L45.4858 57.7832L48.823 54.5045L40.2757 51.6971L31.7825 48.9105L27.6695 52.9568Z" fill="#F0F0E0"/>
<path d="M26.2178 51.4634L29.555 48.1805L21.6501 45.5858C21.5416 45.5525 21.4331 45.5358 21.3247 45.5358C21.0661 45.5358 20.8158 45.6275 20.6239 45.8069L0.663391 63.9778L10.0534 67.0564L26.2178 51.4634Z" fill="#F0F0E0"/>
<path d="M30.7272 77.4767L36.7925 79.4665V78.0106L30.7272 76.025V77.4767Z" fill="#F0F0E0"/>
<path d="M41.2601 64.7621L31.574 74.1062L37.5809 76.0752L49.9034 64.7621L57.8501 57.4662L51.0589 55.2345L46.9417 59.2808L41.2601 64.7621Z" fill="#F0F0E0"/>
<path d="M9.29416 69.0045L0.00012207 65.9594V67.3943L9.29416 70.4437V69.0045Z" fill="#F0F0E0"/>
<path d="M53.6118 67.9574L38.6946 81.5314V86.8375L57.9877 69.2714C57.9877 69.2714 57.996 69.2631 58.0044 69.2547C58.0336 69.2297 58.0586 69.1963 58.0836 69.1671C58.1003 69.1463 58.1212 69.1254 58.1379 69.1004C58.1587 69.0712 58.1754 69.0378 58.1921 69.0086C58.2088 68.9794 58.2255 68.9544 58.238 68.9252C58.2505 68.8918 58.2588 68.8626 58.2714 68.8292C58.2839 68.7959 58.2964 68.7625 58.3005 68.7291C58.3089 68.6999 58.3089 68.6707 58.3131 68.6415C58.3214 68.5998 58.3256 68.5623 58.3256 68.5247C58.3256 68.5164 58.3298 68.508 58.3298 68.5039V63.4397L56.949 64.7621L53.6118 67.9574Z" fill="#F0F0E0"/>
<path d="M38.8782 77.7145V78.5446L52.1894 66.4306L53.9289 64.7621L58.9514 59.9482V59.2849L52.9861 64.7621L38.8782 77.7145Z" fill="#F0F0E0"/>
<path d="M36.6089 81.6023L30.7272 79.6709V85.4651L36.6089 87.3923V81.6023Z" fill="#F0F0E0"/>
<path d="M9.29413 72.6378L0.621643 69.7928V74.8403C0.621643 75.2908 0.913646 75.6913 1.33914 75.8331L9.29413 78.4403V72.6378Z" fill="#F0F0E0"/>
<path d="M28.6414 75.341L11.3799 69.6844V79.1245L28.6414 84.781V75.341Z" fill="#F0F0E0"/>
</g>
<defs>
<clipPath id="clip0_187_672">
<rect width="87.0002" height="87.3923" fill="white"/>
</clipPath>
</defs>
</svg>
