<svg width="1183" height="397" viewBox="0 0 1183 397" fill="none" xmlns="http://www.w3.org/2000/svg">
<g clip-path="url(#clip0_13_95)">
<path d="M1179.28 331.291C1179.28 331.291 1180.54 330.978 1183.07 330.352C1185.43 330.352 1186.61 331.526 1186.61 333.875C1186.61 335.597 1185.43 336.849 1183.07 337.632C1181.65 338.102 1180.23 338.337 1178.81 338.337C1177.47 338.337 1176.17 338.024 1174.91 337.397C1173.65 336.771 1172.66 335.832 1171.95 334.579C1170.77 332.544 1169.91 330.352 1169.35 328.003L1168.88 326.007C1167.54 328.277 1164.27 330.939 1159.07 333.992C1153.95 337.045 1148.47 338.572 1142.64 338.572C1139.49 338.572 1136.73 337.397 1134.36 335.049C1132 332.7 1130.82 329.96 1130.82 326.829C1130.82 319.235 1133.97 312.659 1140.27 307.1C1146.58 301.464 1152.96 298.645 1159.42 298.645C1162.97 298.645 1166 299.311 1168.53 300.642C1171.13 301.894 1172.43 303.186 1172.43 304.517C1172.43 306.866 1171.24 308.04 1168.88 308.04C1168.41 308.04 1167.27 307.648 1165.45 306.866C1163.64 306.083 1161.63 305.691 1159.42 305.691C1155.17 305.691 1150.52 307.766 1145.48 311.915C1140.43 315.986 1137.91 320.957 1137.91 326.829C1137.91 328.003 1138.38 329.099 1139.33 330.117C1140.35 331.056 1141.46 331.526 1142.64 331.526C1147.29 331.526 1151.62 330.313 1155.64 327.886C1159.66 325.38 1162.22 323.345 1163.32 321.779C1164.43 320.135 1165.33 318.648 1166.04 317.317C1166.75 315.986 1167.27 315.125 1167.58 314.733C1167.97 314.264 1168.76 314.029 1169.94 314.029C1171.13 314.029 1172.03 314.459 1172.66 315.321C1173.29 316.182 1173.88 317.552 1174.44 319.431C1174.99 321.231 1175.54 323.267 1176.09 325.537C1176.64 327.807 1177.12 329.334 1177.51 330.117C1177.98 330.9 1178.57 331.291 1179.28 331.291Z" fill="#8BFF48"/>
<path d="M1116.59 339.746C1112.41 339.746 1109.18 337.867 1106.89 334.109C1104.69 330.352 1103.58 326.046 1103.58 321.192C1103.58 318.687 1104.77 317.434 1107.13 317.434C1109.49 317.434 1110.68 318.843 1110.68 321.662C1110.68 324.48 1111.23 327.024 1112.33 329.295C1113.43 331.565 1114.77 332.7 1116.35 332.7C1118.01 332.7 1120.01 332.309 1122.38 331.526C1124.74 330.743 1126.04 330.352 1126.28 330.352C1128.64 330.352 1129.83 331.526 1129.83 333.875C1129.83 335.597 1128.64 336.849 1126.28 337.632C1122.02 339.041 1118.79 339.746 1116.59 339.746ZM1092.95 263.651L1092.83 265.647C1091.88 275.042 1091.25 282.009 1090.94 286.55C1090.7 291.091 1090.58 296.571 1090.58 302.99C1090.58 309.332 1090.78 313.481 1091.17 315.438C1093.06 311.289 1096.29 307.453 1100.87 303.93C1105.44 300.407 1111.07 298.645 1117.77 298.645C1120.13 298.645 1121.32 299.82 1121.32 302.168C1121.32 304.517 1120.13 305.691 1117.77 305.691C1114.54 305.691 1111.54 306.278 1108.79 307.453C1106.11 308.627 1103.98 310.075 1102.4 311.798C1099.41 315.086 1097.52 318.021 1096.73 320.605C1096.57 321.075 1096.29 322.092 1095.9 323.658C1095.59 325.146 1095.35 326.124 1095.19 326.594C1095.11 327.142 1094.84 327.846 1094.36 328.708C1093.58 330.195 1092.31 330.939 1090.58 330.939C1088.93 330.939 1087.31 328.355 1085.73 323.188C1084.24 317.943 1083.49 313.285 1083.49 309.214C1083.49 305.143 1083.49 301.503 1083.49 298.293C1083.57 295.005 1083.61 292.422 1083.61 290.543C1083.69 288.586 1083.84 286.198 1084.08 283.379C1084.32 280.561 1084.43 278.721 1084.43 277.86C1084.59 274.181 1085.06 269.405 1085.85 263.534C1086.09 261.263 1087.27 260.128 1089.4 260.128C1091.76 260.128 1092.95 261.303 1092.95 263.651Z" fill="#8BFF48"/>
<path d="M1075.16 331.291C1075.16 331.291 1076.42 330.978 1078.94 330.352C1081.31 330.352 1082.49 331.526 1082.49 333.875C1082.49 335.597 1081.31 336.849 1078.94 337.632C1077.52 338.102 1076.1 338.337 1074.69 338.337C1073.35 338.337 1072.05 338.024 1070.78 337.397C1069.52 336.771 1068.54 335.832 1067.83 334.579C1066.65 332.544 1065.78 330.352 1065.23 328.003L1064.76 326.007C1063.42 328.277 1060.15 330.939 1054.95 333.992C1049.82 337.045 1044.35 338.572 1038.51 338.572C1035.36 338.572 1032.6 337.397 1030.24 335.049C1027.88 332.7 1026.69 329.96 1026.69 326.829C1026.69 319.235 1029.85 312.659 1036.15 307.1C1042.45 301.464 1048.84 298.645 1055.3 298.645C1058.85 298.645 1061.88 299.311 1064.4 300.642C1067 301.894 1068.3 303.186 1068.3 304.517C1068.3 306.866 1067.12 308.04 1064.76 308.04C1064.28 308.04 1063.14 307.648 1061.33 306.866C1059.52 306.083 1057.51 305.691 1055.3 305.691C1051.04 305.691 1046.39 307.766 1041.35 311.915C1036.31 315.986 1033.79 320.957 1033.79 326.829C1033.79 328.003 1034.26 329.099 1035.2 330.117C1036.23 331.056 1037.33 331.526 1038.51 331.526C1043.16 331.526 1047.5 330.313 1051.52 327.886C1055.54 325.38 1058.1 323.345 1059.2 321.779C1060.3 320.135 1061.21 318.648 1061.92 317.317C1062.63 315.986 1063.14 315.125 1063.46 314.733C1063.85 314.264 1064.64 314.029 1065.82 314.029C1067 314.029 1067.91 314.459 1068.54 315.321C1069.17 316.182 1069.76 317.552 1070.31 319.431C1070.86 321.231 1071.42 323.267 1071.97 325.537C1072.52 327.807 1072.99 329.334 1073.39 330.117C1073.86 330.9 1074.45 331.291 1075.16 331.291Z" fill="#8BFF48"/>
<path d="M1022.22 337.632C1017.96 339.042 1014.65 339.746 1012.29 339.746C1009.92 339.746 1008.07 338.885 1006.73 337.163C1005.39 335.44 1004.17 332.505 1003.07 328.355C1002.04 324.206 1001.25 322.132 1000.7 322.132C998.653 322.132 996.486 325.263 994.2 331.526C993.333 333.875 991.915 336.027 989.945 337.985C987.975 339.942 985.492 340.92 982.498 340.92C979.582 340.92 977.297 339.629 975.642 337.045C973.987 334.462 973.002 331.643 972.686 328.59C972.45 325.537 972.056 322.719 971.504 320.135C970.953 317.552 970.047 316.26 968.786 316.26C967.919 316.26 967.288 316.495 966.894 316.965C966.5 317.434 966.146 317.904 965.83 318.374C965.594 318.765 965.318 319.196 965.003 319.665C964.767 320.057 964.451 320.605 964.057 321.31C963.742 322.014 963.348 322.758 962.875 323.541C961.299 326.281 960.038 328.316 959.093 329.647C957.201 332.622 954.404 334.892 950.7 336.458C949.281 337.084 948.139 337.397 947.272 337.397C944.908 337.397 943.726 336.223 943.726 333.875C943.726 332.387 944.986 331.174 947.508 330.234C950.03 329.295 951.803 327.964 952.828 326.242C953.931 324.441 955.152 322.406 956.492 320.135C957.832 317.865 958.738 316.338 959.211 315.555C959.762 314.773 960.432 313.833 961.22 312.737C962.008 311.563 962.718 310.819 963.348 310.506C965.003 309.645 966.816 309.214 968.786 309.214C972.017 309.214 974.46 310.506 976.115 313.089C977.769 315.673 978.715 318.491 978.951 321.544C979.267 324.598 979.7 327.416 980.252 329.999C980.803 332.583 981.71 333.875 982.971 333.875C984.231 333.875 985.414 332.896 986.517 330.939C987.699 328.982 988.723 326.829 989.59 324.48C990.457 322.132 991.836 319.979 993.727 318.021C995.698 316.064 998.022 315.086 1000.7 315.086C1002.75 315.086 1004.25 315.595 1005.19 316.612C1006.14 317.552 1006.81 318.295 1007.2 318.843C1007.68 319.391 1008.07 320.213 1008.39 321.31C1008.78 322.406 1009.06 323.228 1009.21 323.776C1009.37 324.245 1009.61 325.106 1009.92 326.359C1010.87 330.665 1011.73 332.779 1012.52 332.7C1014.02 332.7 1015.95 332.309 1018.31 331.526C1020.68 330.743 1021.98 330.352 1022.22 330.352C1024.58 330.352 1025.76 331.526 1025.76 333.875C1025.76 335.597 1024.58 336.849 1022.22 337.632Z" fill="#8BFF48"/>
<path d="M925.176 282.675C926.437 282.675 927.737 283.262 929.077 284.436C930.417 285.532 931.087 286.707 931.087 287.959C931.087 289.134 930.535 290.034 929.432 290.66C928.407 291.286 927.265 291.6 926.004 291.6C924.743 291.6 923.679 291.052 922.812 289.956C922.024 288.781 921.63 287.529 921.63 286.198C921.63 283.849 922.812 282.675 925.176 282.675ZM914.538 326.359C910.125 331.056 905.633 334.423 901.062 336.458C899.643 337.084 898.501 337.397 897.634 337.397C895.27 337.397 894.088 336.223 894.088 333.875C894.088 332.387 895.27 331.174 897.634 330.234C898.895 329.764 900.55 328.825 902.599 327.416C904.726 326.007 906.145 324.95 906.854 324.245C907.563 323.541 908.785 322.249 910.518 320.37C912.331 318.491 913.75 317.082 914.774 316.143C915.798 315.125 917.178 314.107 918.911 313.089C920.724 312.072 922.379 311.563 923.876 311.563C926.949 311.563 929.314 312.659 930.968 314.851C932.623 317.043 933.608 319.47 933.924 322.132C934.791 329.177 936.17 332.7 938.061 332.7C939.558 332.7 941.489 332.309 943.853 331.526C946.217 330.743 947.517 330.352 947.754 330.352C950.118 330.352 951.3 331.526 951.3 333.875C951.3 335.597 950.118 336.849 947.754 337.632C943.498 339.042 940.031 339.746 937.352 339.746C934.751 339.746 932.623 338.65 930.968 336.458C929.314 334.266 928.328 331.839 928.013 329.177C927.146 322.132 925.767 318.609 923.876 318.609C922.852 318.609 921.669 319.274 920.33 320.605C919.069 321.858 918.044 322.875 917.256 323.658C916.468 324.363 915.562 325.263 914.538 326.359Z" fill="#8BFF48"/>
<path d="M888.367 339.746C884.191 339.746 880.96 337.867 878.674 334.109C876.468 330.352 875.365 326.046 875.365 321.192C875.365 318.687 876.547 317.434 878.911 317.434C881.275 317.434 882.457 318.843 882.457 321.662C882.457 324.48 883.009 327.024 884.112 329.295C885.215 331.565 886.555 332.7 888.131 332.7C889.786 332.7 891.795 332.309 894.16 331.526C896.524 330.743 897.824 330.352 898.06 330.352C900.425 330.352 901.607 331.526 901.607 333.875C901.607 335.597 900.425 336.849 898.06 337.632C893.805 339.041 890.574 339.746 888.367 339.746ZM864.726 263.651L864.608 265.647C863.662 275.042 863.032 282.009 862.716 286.55C862.48 291.091 862.362 296.571 862.362 302.99C862.362 309.332 862.559 313.481 862.953 315.438C864.844 311.289 868.075 307.453 872.646 303.93C877.217 300.407 882.851 298.645 889.55 298.645C891.914 298.645 893.096 299.82 893.096 302.168C893.096 304.517 891.914 305.691 889.55 305.691C886.318 305.691 883.324 306.278 880.566 307.453C877.886 308.627 875.759 310.075 874.183 311.798C871.188 315.086 869.297 318.021 868.509 320.605C868.351 321.075 868.075 322.092 867.681 323.658C867.366 325.146 867.129 326.124 866.972 326.594C866.893 327.142 866.617 327.846 866.144 328.708C865.356 330.195 864.095 330.939 862.362 330.939C860.707 330.939 859.091 328.355 857.515 323.188C856.018 317.943 855.269 313.285 855.269 309.214C855.269 305.143 855.269 301.503 855.269 298.293C855.348 295.005 855.388 292.422 855.388 290.543C855.466 288.586 855.624 286.198 855.86 283.379C856.097 280.561 856.215 278.721 856.215 277.86C856.373 274.181 856.845 269.405 857.633 263.534C857.87 261.263 859.052 260.128 861.18 260.128C863.544 260.128 864.726 261.303 864.726 263.651Z" fill="#8BFF48"/>
<path d="M831.572 279.857L828.026 279.152C825.189 279.152 821.328 279.778 816.442 281.031C811.556 282.205 809.113 283.379 809.113 284.554C809.113 286.902 811.674 289.642 816.796 292.774C818.688 293.87 820.421 295.397 821.998 297.354C823.652 299.233 824.48 301.111 824.48 302.99C824.48 304.869 823.928 306.552 822.825 308.04C821.801 309.527 820.776 310.662 819.752 311.445C818.806 312.15 817.663 312.933 816.324 313.794C814.984 314.655 814.156 315.203 813.841 315.438C813.605 315.595 813.171 315.869 812.541 316.26L811.122 317.199C810.807 317.356 810.374 317.63 809.822 318.021C809.349 318.335 808.955 318.609 808.64 318.843C808.325 319 807.97 319.235 807.576 319.548C807.261 319.861 806.985 320.096 806.749 320.253C806.434 320.488 806.197 320.722 806.04 320.957C805.724 321.349 805.567 321.74 805.567 322.132C805.567 324.715 807.458 327.338 811.241 329.999C815.102 332.583 819.515 333.875 824.48 333.875C834.646 333.875 842.447 332.974 847.885 331.174C849.54 330.626 850.486 330.352 850.722 330.352C853.086 330.352 854.268 331.526 854.268 333.875C854.268 335.597 853.086 336.849 850.722 337.632C844.102 339.824 835.355 340.92 824.48 340.92C817.624 340.92 811.556 338.963 806.276 335.049C801.075 331.056 798.474 326.75 798.474 322.132C798.474 318.687 801.154 315.242 806.512 311.798C806.985 311.484 807.694 311.015 808.64 310.388C809.665 309.762 811.319 308.666 813.605 307.1C815.89 305.535 817.151 304.282 817.387 303.343C817.387 302.638 816.56 301.659 814.905 300.407C813.329 299.076 811.595 297.745 809.704 296.414C807.813 295.083 806.04 293.361 804.385 291.247C802.809 289.055 802.02 286.785 802.02 284.436C802.02 282.009 803.124 279.935 805.33 278.213C807.537 276.412 811.004 274.964 815.733 273.868C820.461 272.693 824.086 272.106 826.608 272.106C829.208 272.106 831.257 272.498 832.754 273.28C834.331 274.063 835.119 275.081 835.119 276.334C835.119 278.682 833.937 279.857 831.572 279.857Z" fill="#8BFF48"/>
<path d="M714.619 282.675C715.88 282.675 717.18 283.262 718.52 284.436C719.859 285.532 720.529 286.707 720.529 287.959C720.529 289.134 719.978 290.034 718.874 290.66C717.85 291.286 716.707 291.6 715.446 291.6C714.185 291.6 713.122 291.052 712.255 289.956C711.467 288.781 711.073 287.529 711.073 286.198C711.073 283.849 712.255 282.675 714.619 282.675ZM703.98 326.359C699.567 331.056 695.075 334.423 690.505 336.458C689.086 337.084 687.943 337.397 687.077 337.397C684.712 337.397 683.53 336.223 683.53 333.875C683.53 332.387 684.712 331.174 687.077 330.234C688.337 329.764 689.992 328.825 692.041 327.416C694.169 326.007 695.587 324.95 696.297 324.245C697.006 323.541 698.227 322.249 699.961 320.37C701.774 318.491 703.192 317.082 704.217 316.143C705.241 315.125 706.62 314.107 708.354 313.089C710.166 312.072 711.821 311.563 713.319 311.563C716.392 311.563 718.756 312.659 720.411 314.851C722.066 317.043 723.051 319.47 723.366 322.132C724.233 329.177 725.612 332.7 727.504 332.7C729.001 332.7 730.932 332.309 733.296 331.526C735.66 330.743 736.96 330.352 737.197 330.352C739.561 330.352 740.743 331.526 740.743 333.875C740.743 335.597 739.561 336.849 737.197 337.632C732.941 339.042 729.474 339.746 726.794 339.746C724.194 339.746 722.066 338.65 720.411 336.458C718.756 334.266 717.771 331.839 717.456 329.177C716.589 322.132 715.21 318.609 713.319 318.609C712.294 318.609 711.112 319.274 709.772 320.605C708.511 321.858 707.487 322.875 706.699 323.658C705.911 324.363 705.005 325.263 703.98 326.359Z" fill="#8BFF48"/>
<path d="M667.695 307.922C667.38 307.844 666.671 307.57 665.567 307.1C663.124 306.083 660.603 305.613 658.002 305.691C653.904 305.691 649.885 307.531 645.945 311.21C642.005 314.89 640.034 319.705 640.034 325.654C640.034 327.377 640.586 328.786 641.689 329.882C642.793 330.978 644.014 331.526 645.354 331.526C646.772 331.526 647.954 331.409 648.9 331.174C649.846 330.939 650.712 330.587 651.501 330.117C652.367 329.569 653.116 329.06 653.746 328.59C654.456 328.042 655.165 327.338 655.874 326.476C656.583 325.615 657.135 324.911 657.529 324.363C658.002 323.815 658.514 323.032 659.066 322.014C659.696 320.996 660.13 320.292 660.366 319.9C660.603 319.431 660.957 318.687 661.43 317.669C663.558 313.129 665.646 309.88 667.695 307.922ZM632.942 325.654C632.942 317.982 635.542 311.563 640.744 306.396C645.945 301.229 651.698 298.645 658.002 298.645C661.627 298.645 664.897 299.311 667.813 300.642C670.729 301.973 672.187 303.264 672.187 304.517C672.187 305.456 671.911 306.278 671.359 306.983C672.62 307.296 673.527 308.001 674.078 309.097C674.63 310.114 674.984 311.445 675.142 313.089C675.3 314.655 675.418 316.377 675.497 318.256C675.654 320.135 675.812 321.779 675.97 323.188C676.127 324.519 676.285 325.968 676.442 327.533C676.836 330.743 677.309 332.387 677.861 332.465C679.831 332.465 681.919 332.113 684.126 331.409C686.332 330.704 687.475 330.352 687.554 330.352C689.918 330.352 691.1 331.526 691.1 333.875C691.1 335.597 689.918 336.849 687.554 337.632C683.771 338.885 680.698 339.511 678.334 339.511C676.048 339.511 674.236 338.572 672.896 336.693C671.478 334.814 670.532 332.544 670.059 329.882C669.113 325.106 668.641 321.466 668.641 318.961C668.562 319.117 668.286 319.705 667.813 320.722C667.34 321.662 666.986 322.366 666.749 322.836C666.513 323.306 666.04 324.128 665.331 325.302C664.7 326.398 664.149 327.298 663.676 328.003C663.203 328.629 662.533 329.49 661.666 330.587C660.878 331.604 660.09 332.426 659.302 333.053C658.593 333.679 657.687 334.383 656.583 335.166C655.559 335.871 654.535 336.458 653.51 336.928C650.988 338.024 648.467 338.572 645.945 338.572C641.61 338.572 638.182 337.006 635.661 333.875C631.405 333.327 627.898 331.487 625.14 328.355C622.461 325.146 620.806 321.231 620.176 316.612C615.841 323.736 611.231 329.569 606.345 334.109C601.538 338.65 597.046 340.92 592.87 340.92C588.693 340.92 585.265 339.707 582.585 337.28C579.906 334.775 578.566 330.313 578.566 323.893C578.566 317.395 580.694 311.563 584.95 306.396C589.205 301.229 594.17 298.645 599.844 298.645C602.996 298.645 606.463 300.133 610.246 303.108C611.98 304.517 612.847 305.77 612.847 306.866C612.847 309.214 611.665 310.388 609.3 310.388C608.355 310.388 607.724 310.232 607.409 309.919C606.779 309.292 606.109 308.744 605.4 308.275C603.272 306.552 601.42 305.691 599.844 305.691C596.376 305.691 593.145 307.531 590.151 311.21C587.156 314.812 585.659 319.391 585.659 324.95C585.659 328.473 586.211 330.861 587.314 332.113C588.496 333.287 590.269 333.875 592.633 333.875C594.997 333.875 597.952 332.231 601.499 328.942C605.045 325.654 608.552 321.466 612.019 316.377C615.487 311.289 618.442 305.222 620.885 298.176C623.407 291.052 624.667 284.162 624.667 277.508C624.667 276.02 624.47 274.494 624.076 272.928C623.682 271.362 623.485 270.54 623.485 270.462C623.485 268.113 624.667 266.939 627.032 266.939C630.184 266.939 631.76 270.384 631.76 277.273C631.76 284.162 630.499 291.678 627.977 299.82C627.347 304.83 627.032 308.979 627.032 312.267C627.032 318.843 629.002 323.306 632.942 325.654Z" fill="#8BFF48"/>
<path d="M574.088 337.632C569.833 339.042 566.523 339.746 564.159 339.746C561.795 339.746 559.943 338.885 558.603 337.163C557.263 335.44 556.042 332.505 554.939 328.355C553.914 324.206 553.126 322.132 552.575 322.132C550.526 322.132 548.359 325.263 546.073 331.526C545.206 333.875 543.788 336.027 541.818 337.985C539.848 339.942 537.365 340.92 534.371 340.92C531.455 340.92 529.169 339.629 527.515 337.045C525.86 334.462 524.875 331.643 524.559 328.59C524.323 325.537 523.929 322.719 523.377 320.135C522.826 317.552 521.919 316.26 520.659 316.26C519.792 316.26 519.161 316.495 518.767 316.965C518.373 317.434 518.019 317.904 517.703 318.374C517.467 318.765 517.191 319.196 516.876 319.665C516.639 320.057 516.324 320.605 515.93 321.31C515.615 322.014 515.221 322.758 514.748 323.541C513.172 326.281 511.911 328.316 510.966 329.647C509.074 332.622 506.277 334.892 502.573 336.458C501.154 337.084 500.012 337.397 499.145 337.397C496.781 337.397 495.599 336.223 495.599 333.875C495.599 332.387 496.859 331.174 499.381 330.234C501.903 329.295 503.676 327.964 504.701 326.242C505.804 324.441 507.025 322.406 508.365 320.135C509.705 317.865 510.611 316.338 511.084 315.555C511.635 314.773 512.305 313.833 513.093 312.737C513.881 311.563 514.591 310.819 515.221 310.506C516.876 309.645 518.688 309.214 520.659 309.214C523.89 309.214 526.332 310.506 527.987 313.089C529.642 315.673 530.588 318.491 530.824 321.544C531.14 324.598 531.573 327.416 532.125 329.999C532.676 332.583 533.583 333.875 534.843 333.875C536.104 333.875 537.286 332.896 538.39 330.939C539.572 328.982 540.596 326.829 541.463 324.48C542.33 322.132 543.709 319.979 545.6 318.021C547.57 316.064 549.895 315.086 552.575 315.086C554.624 315.086 556.121 315.595 557.066 316.612C558.012 317.552 558.682 318.295 559.076 318.843C559.549 319.391 559.943 320.213 560.258 321.31C560.652 322.406 560.928 323.228 561.086 323.776C561.243 324.245 561.48 325.106 561.795 326.359C562.74 330.665 563.607 332.779 564.395 332.7C565.893 332.7 567.823 332.309 570.188 331.526C572.552 330.743 573.852 330.352 574.088 330.352C576.453 330.352 577.635 331.526 577.635 333.875C577.635 335.597 576.453 336.849 574.088 337.632Z" fill="#8BFF48"/>
<path d="M459.854 334.109C459.775 334.109 459.184 334.423 458.081 335.049C455.244 336.615 453.155 337.397 451.816 337.397C449.451 337.397 448.269 336.223 448.269 333.875C448.269 332.387 449.451 331.174 451.816 330.234C452.21 330.078 453.155 329.608 454.653 328.825C456.15 328.042 457.017 327.572 457.253 327.416C456.938 326.711 456.78 325.654 456.78 324.245C456.78 317.199 459.263 311.171 464.227 306.161C469.192 301.151 473.723 298.645 477.821 298.645C481.919 298.645 485.15 299.624 487.514 301.581C489.878 303.46 491.06 305.77 491.06 308.51C491.06 311.171 490.43 313.481 489.169 315.438C487.908 317.395 485.938 319.313 483.259 321.192C479.555 323.854 474.157 326.946 467.064 330.469C470.217 332.739 474.59 333.875 480.185 333.875C485.781 333.875 491.297 332.974 496.734 331.174C498.389 330.626 499.335 330.352 499.571 330.352C501.936 330.352 503.118 331.526 503.118 333.875C503.118 335.597 501.936 336.849 499.571 337.632C492.952 339.824 486.569 340.92 480.422 340.92C471.674 340.92 464.818 338.65 459.854 334.109ZM463.873 324.245C477.27 317.591 483.968 312.58 483.968 309.214C483.968 306.866 481.998 305.691 478.058 305.691C475.693 305.691 472.738 307.57 469.192 311.328C465.646 315.007 463.873 319.313 463.873 324.245Z" fill="#8BFF48"/>
<path d="M403.531 340.92C401.167 340.92 399.985 339.746 399.985 337.397C399.985 335.049 401.167 333.875 403.531 333.875C419.292 333.875 430.128 332.7 436.038 330.352C438.797 329.256 440.176 328.12 440.176 326.946C440.176 325.772 439.191 324.715 437.221 323.776C435.329 322.836 432.098 321.623 427.527 320.135C423.036 318.648 419.608 317.395 417.243 316.377C405.738 311.602 399.985 304.36 399.985 294.653C399.985 288.312 402.743 282.988 408.26 278.682C413.776 274.298 420.396 272.106 428.119 272.106C432.374 272.106 435.92 273.359 438.757 275.864C441.673 278.369 443.131 281.383 443.131 284.906C443.131 288.429 441.752 291.56 438.994 294.301C436.235 297.041 434.344 298.411 433.32 298.411C430.956 298.411 429.773 297.236 429.773 294.888C429.773 293.87 430.798 292.343 432.847 290.308C434.975 288.194 436.038 286.589 436.038 285.493C436.038 283.614 435.29 282.088 433.792 280.913C432.374 279.739 430.522 279.152 428.237 279.152C422.405 279.152 417.401 280.639 413.224 283.614C409.126 286.511 407.078 290.034 407.078 294.183C407.078 298.332 408.22 301.581 410.506 303.93C412.87 306.278 415.51 308.079 418.426 309.332C421.42 310.506 424.415 311.602 427.409 312.62C430.404 313.559 432.886 314.42 434.856 315.203C436.905 315.908 438.954 316.808 441.003 317.904C445.18 320.174 447.268 323.149 447.268 326.829C447.268 331.604 443.801 335.166 436.866 337.515C430.01 339.785 418.898 340.92 403.531 340.92Z" fill="#8BFF48"/>
<path d="M840.108 177.573H821.253C820.301 177.573 816.682 178.141 815.921 178.141C814.968 178.141 812.683 174.546 812.112 173.978C811.731 173.6 809.064 172.465 809.064 171.897C809.064 171.33 809.445 171.141 810.017 171.141H840.108L840.108 167.546C840.108 156.194 840.108 154.87 837.441 153.545C837.061 153.356 834.775 152.788 834.775 152.41C834.775 151.275 839.917 151.275 840.87 151.275C860.867 151.275 860.867 159.41 860.867 167.546L860.867 171.141H882.007C886.577 171.141 888.863 168.87 891.529 166.411C893.243 164.708 895.528 163.573 898.385 163.573C899.147 163.573 907.908 163.573 907.908 174.735L907.908 233.008C907.908 245.495 904.67 253.252 892.862 253.252C880.293 253.252 878.959 244.171 877.817 236.981C876.674 230.17 874.008 229.602 870.77 229.035C870.58 229.035 870.008 228.846 870.008 228.278C870.008 227.9 870.58 227.521 871.151 227.521H892.481L892.481 177.573H860.295C859.914 187.79 858.581 197.25 854.963 204.439C847.154 220.143 831.157 227.332 819.349 227.332C814.207 227.332 810.969 226.008 810.969 224.494C810.969 223.927 811.35 223.927 811.54 223.927C815.349 223.927 816.111 223.927 819.349 221.467C825.634 216.926 839.155 202.169 840.108 177.573Z" fill="white"/>
<path d="M742.031 172.699L742.031 185.564C742.031 226.053 715.559 240.621 699.18 240.621C693.276 240.621 690.419 238.35 690.419 237.026C690.419 236.648 690.8 236.269 691.181 236.269C691.562 236.269 692.705 237.026 692.895 237.026C702.037 237.026 719.368 217.917 719.368 185.753L719.368 172.699H678.04C677.088 172.699 673.469 173.266 672.708 173.266C671.755 173.266 669.089 168.915 668.327 168.537C667.946 168.158 665.851 167.591 665.851 167.023C665.851 166.645 666.042 166.266 666.804 166.266H719.177L719.177 143.562C719.177 138.454 719.177 131.454 717.082 129.94C716.701 129.562 713.845 128.994 713.845 128.427C713.845 127.481 717.654 127.481 718.987 127.481C741.841 127.481 741.841 135.995 741.841 143.562L741.841 166.266H750.03C755.172 166.266 758.029 164.185 760.505 161.725C764.885 156.996 766.98 154.914 771.741 154.914C775.931 154.914 782.026 157.752 782.026 163.807C782.026 168.347 778.407 172.699 770.599 172.699H742.031Z" fill="white"/>
<path d="M589.592 179.301L589.592 215.438H605.59C611.113 215.438 613.589 213.168 616.636 209.951C619.683 206.546 622.35 204.086 627.111 204.086C631.682 204.086 637.586 207.113 637.586 212.978C637.586 217.33 633.967 221.871 626.159 221.871H589.592L589.592 255.169C589.592 261.035 584.831 265.575 579.308 265.575C573.023 265.575 568.833 260.278 568.833 255.169L568.833 221.871H536.267C535.314 221.871 531.696 222.249 530.934 222.249C530.172 222.249 528.268 219.789 527.887 219.222C527.125 218.087 526.935 218.087 524.459 216.952C524.078 216.762 523.887 216.573 523.887 216.195C523.887 215.627 524.268 215.438 524.84 215.438H568.833L568.833 179.301H548.836C548.074 179.301 544.265 179.869 543.504 179.869C542.551 179.869 539.885 175.517 539.123 175.139C538.742 174.761 536.647 174.004 536.647 173.625C536.647 173.058 537.219 172.869 537.6 172.869H568.833L568.833 158.868C568.833 147.705 568.833 146.57 566.548 145.057C566.167 144.678 563.501 144.3 563.691 143.732C563.691 142.975 567.5 142.975 569.024 142.975C570.357 142.975 582.546 142.975 587.688 147.895C588.64 148.84 589.592 150.354 589.592 158.868L589.592 172.869H592.83C598.353 172.869 601.019 170.598 603.686 167.949C607.495 163.976 609.59 161.517 614.541 161.517C619.112 161.517 624.826 164.733 624.826 170.409C624.826 174.761 621.397 179.301 613.399 179.301H589.592Z" fill="white"/>
<path d="M418.485 220.021L418.485 173.1C418.485 160.613 418.485 159.288 416.009 157.775C415.628 157.396 412.771 156.64 412.771 156.261C412.771 155.315 413.343 155.315 413.723 155.315C439.244 155.315 439.244 160.613 439.244 167.235L439.244 220.021H457.527C463.24 220.021 465.907 217.561 468.573 214.723C472.001 211.128 474.286 208.669 479.048 208.669C483.618 208.669 489.522 211.696 489.522 217.561C489.522 221.913 486.094 226.453 478.095 226.453H384.204C383.252 226.453 379.633 226.832 378.871 226.832C377.919 226.832 375.253 222.669 374.491 222.102C374.11 221.913 372.015 221.156 372.015 220.777C372.015 220.21 372.396 220.021 372.967 220.021H418.485ZM463.24 144.531H393.917C392.964 144.531 389.346 145.099 388.394 145.099C387.441 145.099 384.966 140.936 384.204 140.369C383.823 140.179 381.728 139.423 381.728 139.044C381.728 138.477 382.109 138.287 382.68 138.287H442.672C448.385 138.287 451.052 135.828 453.908 132.801C456.955 129.395 459.431 126.936 464.383 126.936C468.763 126.936 474.667 129.963 474.667 135.828C474.667 140.179 471.239 144.531 463.24 144.531Z" fill="white"/>
<path d="M260.537 246.283H292.435C296.498 246.283 299.546 244.668 301.984 242.246C305.031 239.42 307.266 237.402 311.736 237.402C312.752 237.402 323.113 237.402 323.113 250.521L323.113 288.466C323.113 301.787 312.955 301.787 311.736 301.787C307.266 301.787 305.031 299.769 301.984 296.943C299.342 294.319 296.295 292.906 292.435 292.906H260.943C259.928 298.356 255.458 301.787 250.379 301.787C244.893 301.787 239.611 297.548 239.611 291.292L239.611 252.741C239.611 249.512 239.611 240.833 236.766 239.218C236.563 239.017 234.735 238.411 234.735 238.007C234.735 237.2 237.579 237.2 239.204 237.2C257.693 237.2 259.521 243.255 260.537 246.283ZM260.943 252.338L260.943 286.649H303.406L303.406 252.338H260.943ZM243.877 211.365H316.205C316.409 209.751 317.221 202.888 317.221 201.476C317.221 197.843 316.409 194.613 309.095 194.411C308.688 194.411 308.282 194.21 308.282 193.806C308.282 192.797 311.939 192.797 313.564 192.797C320.269 192.797 346.681 193.402 346.681 211.365C346.681 219.842 339.773 226.503 331.443 226.503C326.567 226.503 320.472 223.879 317.628 217.42H239.611C237.782 220.448 235.344 223.879 229.655 223.879C223.56 223.879 218.887 219.035 218.887 213.384C218.887 211.567 219.497 209.347 220.716 207.531L258.505 151.623C264.397 142.944 265.007 142.136 265.007 139.513C265.007 138.503 264.6 137.494 263.178 136.283C262.772 135.88 262.569 135.88 262.569 135.476C262.569 135.072 262.975 134.669 263.381 134.669C263.788 134.669 281.26 145.568 281.26 153.036C281.26 155.659 280.651 156.87 276.181 163.329L243.877 211.365Z" fill="white"/>
<path d="M160.91 205.277L160.91 153.406C160.91 142.709 160.91 141.498 158.675 140.085C158.269 139.681 155.831 139.277 155.831 138.874C155.831 137.865 159.691 137.865 161.113 137.865C168.631 137.865 174.319 139.681 176.757 141.296C180.211 143.314 180.211 145.332 180.211 153.406L180.211 210.928C180.211 215.974 176.148 220.415 170.662 220.415C166.193 220.415 161.317 217.387 160.91 211.332H117.432C112.15 211.332 108.696 214.359 107.68 215.57C104.226 218.598 102.194 220.616 97.5213 220.616C96.5055 220.616 85.9407 220.616 85.9407 206.892L85.9407 153.406C85.9407 142.709 85.9407 141.498 83.7058 140.085C83.2995 139.681 80.8614 139.277 80.8614 138.874C80.8614 137.865 84.7216 137.865 86.1438 137.865C92.8484 137.865 98.9435 139.479 101.788 141.296C104.835 143.112 105.242 144.727 105.242 153.406L105.242 205.277H160.91ZM46.1195 89.6263C55.0589 89.6263 60.7477 96.4886 60.7477 104.764C60.7477 130.195 32.1008 146.342 14.2219 146.342C13.6123 146.342 13.4092 146.14 13.4092 145.736C13.4092 145.131 15.644 144.121 16.0504 143.718C29.2564 134.837 30.4754 116.874 31.2881 106.177C32.5071 90.0299 44.0878 89.6263 46.1195 89.6263ZM53.2304 162.69L53.2304 212.543C53.2304 216.58 49.9797 220.213 45.5099 220.213C41.8529 220.213 37.9927 217.185 37.9927 212.543L37.9927 163.497C37.9927 158.855 37.7895 154.415 35.3515 153.809C34.5388 153.406 33.9293 153.406 33.9293 152.8C33.9293 151.993 35.961 151.993 37.3832 151.993C40.6339 151.993 53.2304 152.195 53.2304 162.69ZM141 97.4978L141 185.901C141 196.194 133.889 196.194 131.654 196.194C125.965 196.194 122.105 191.552 122.105 186.708L122.105 97.4978C122.105 90.0299 121.902 83.9749 118.448 83.3694C117.838 83.3694 116.822 83.1676 116.822 82.5621C116.822 81.7548 117.229 81.7548 120.073 81.7548C141 81.7548 141 87.2043 141 97.4978Z" fill="white"/>
</g>
<defs>
<clipPath id="clip0_13_95">
<rect width="1183" height="396.862" fill="white"/>
</clipPath>
</defs>
</svg>
