<svg width="349" height="285" viewBox="0 0 349 285" fill="none" xmlns="http://www.w3.org/2000/svg">
<path d="M339.313 257.274C339.313 257.274 339.829 257.146 340.86 256.89C341.826 256.89 342.309 257.37 342.309 258.33C342.309 259.034 341.826 259.546 340.86 259.866C340.28 260.058 339.7 260.154 339.12 260.154C338.573 260.154 338.041 260.026 337.526 259.77C337.01 259.514 336.608 259.13 336.318 258.618C335.834 257.786 335.48 256.89 335.255 255.93L335.061 255.114C334.514 256.042 333.177 257.13 331.051 258.378C328.957 259.626 326.718 260.25 324.335 260.25C323.046 260.25 321.919 259.77 320.952 258.81C319.986 257.85 319.503 256.73 319.503 255.45C319.503 252.346 320.791 249.658 323.368 247.386C325.945 245.082 328.555 243.93 331.196 243.93C332.645 243.93 333.886 244.202 334.916 244.746C335.979 245.258 336.511 245.786 336.511 246.33C336.511 247.29 336.028 247.77 335.061 247.77C334.868 247.77 334.401 247.61 333.66 247.29C332.919 246.97 332.098 246.81 331.196 246.81C329.456 246.81 327.556 247.658 325.494 249.354C323.433 251.018 322.402 253.05 322.402 255.45C322.402 255.93 322.595 256.378 322.982 256.794C323.401 257.178 323.852 257.37 324.335 257.37C326.235 257.37 328.007 256.874 329.65 255.882C331.293 254.858 332.339 254.026 332.79 253.386C333.241 252.714 333.612 252.106 333.902 251.562C334.192 251.018 334.401 250.666 334.53 250.506C334.691 250.314 335.013 250.218 335.496 250.218C335.979 250.218 336.35 250.394 336.608 250.746C336.865 251.098 337.107 251.658 337.332 252.426C337.558 253.162 337.783 253.994 338.009 254.922C338.234 255.85 338.428 256.474 338.589 256.794C338.782 257.114 339.023 257.274 339.313 257.274Z" fill="#8BFF48"/>
<path d="M313.686 260.73C311.979 260.73 310.658 259.962 309.724 258.426C308.822 256.89 308.371 255.13 308.371 253.146C308.371 252.122 308.854 251.61 309.82 251.61C310.787 251.61 311.27 252.186 311.27 253.338C311.27 254.49 311.495 255.53 311.946 256.458C312.397 257.386 312.945 257.85 313.589 257.85C314.266 257.85 315.087 257.69 316.053 257.37C317.02 257.05 317.551 256.89 317.648 256.89C318.614 256.89 319.097 257.37 319.097 258.33C319.097 259.034 318.614 259.546 317.648 259.866C315.908 260.442 314.588 260.73 313.686 260.73ZM304.022 229.626L303.974 230.442C303.587 234.282 303.33 237.13 303.201 238.986C303.104 240.842 303.056 243.082 303.056 245.706C303.056 248.298 303.136 249.994 303.297 250.794C304.071 249.098 305.391 247.53 307.259 246.09C309.128 244.65 311.431 243.93 314.169 243.93C315.135 243.93 315.619 244.41 315.619 245.37C315.619 246.33 315.135 246.81 314.169 246.81C312.848 246.81 311.624 247.05 310.497 247.53C309.402 248.01 308.532 248.602 307.888 249.306C306.664 250.65 305.89 251.85 305.568 252.906C305.504 253.098 305.391 253.514 305.23 254.154C305.101 254.762 305.005 255.162 304.94 255.354C304.908 255.578 304.795 255.866 304.602 256.218C304.28 256.826 303.764 257.13 303.056 257.13C302.379 257.13 301.719 256.074 301.075 253.962C300.463 251.818 300.157 249.914 300.157 248.25C300.157 246.586 300.157 245.098 300.157 243.786C300.189 242.442 300.205 241.386 300.205 240.618C300.237 239.818 300.302 238.842 300.398 237.69C300.495 236.538 300.543 235.786 300.543 235.434C300.608 233.93 300.801 231.978 301.123 229.578C301.22 228.65 301.703 228.186 302.573 228.186C303.539 228.186 304.022 228.666 304.022 229.626Z" fill="#8BFF48"/>
<path d="M296.752 257.274C296.752 257.274 297.267 257.146 298.298 256.89C299.264 256.89 299.748 257.37 299.748 258.33C299.748 259.034 299.264 259.546 298.298 259.866C297.718 260.058 297.138 260.154 296.559 260.154C296.011 260.154 295.479 260.026 294.964 259.77C294.449 259.514 294.046 259.13 293.756 258.618C293.273 257.786 292.919 256.89 292.693 255.93L292.5 255.114C291.952 256.042 290.615 257.13 288.489 258.378C286.396 259.626 284.157 260.25 281.773 260.25C280.485 260.25 279.357 259.77 278.391 258.81C277.425 257.85 276.941 256.73 276.941 255.45C276.941 252.346 278.23 249.658 280.807 247.386C283.384 245.082 285.993 243.93 288.634 243.93C290.084 243.93 291.324 244.202 292.355 244.746C293.418 245.258 293.949 245.786 293.949 246.33C293.949 247.29 293.466 247.77 292.5 247.77C292.307 247.77 291.839 247.61 291.099 247.29C290.358 246.97 289.536 246.81 288.634 246.81C286.895 246.81 284.994 247.658 282.933 249.354C280.871 251.018 279.84 253.05 279.84 255.45C279.84 255.93 280.034 256.378 280.42 256.794C280.839 257.178 281.29 257.37 281.773 257.37C283.674 257.37 285.445 256.874 287.088 255.882C288.731 254.858 289.778 254.026 290.229 253.386C290.68 252.714 291.05 252.106 291.34 251.562C291.63 251.018 291.839 250.666 291.968 250.506C292.129 250.314 292.451 250.218 292.935 250.218C293.418 250.218 293.788 250.394 294.046 250.746C294.304 251.098 294.545 251.658 294.771 252.426C294.996 253.162 295.222 253.994 295.447 254.922C295.673 255.85 295.866 256.474 296.027 256.794C296.22 257.114 296.462 257.274 296.752 257.274Z" fill="#8BFF48"/>
<path d="M275.111 259.866C273.371 260.442 272.019 260.73 271.052 260.73C270.086 260.73 269.329 260.378 268.781 259.674C268.234 258.97 267.734 257.77 267.283 256.074C266.865 254.378 266.542 253.53 266.317 253.53C265.479 253.53 264.594 254.81 263.66 257.37C263.305 258.33 262.725 259.21 261.92 260.01C261.115 260.81 260.1 261.21 258.876 261.21C257.684 261.21 256.75 260.682 256.074 259.626C255.397 258.57 254.994 257.418 254.866 256.17C254.769 254.922 254.608 253.77 254.382 252.714C254.157 251.658 253.786 251.13 253.271 251.13C252.917 251.13 252.659 251.226 252.498 251.418C252.337 251.61 252.192 251.802 252.063 251.994C251.966 252.154 251.854 252.33 251.725 252.522C251.628 252.682 251.499 252.906 251.338 253.194C251.21 253.482 251.048 253.786 250.855 254.106C250.211 255.226 249.696 256.058 249.309 256.602C248.536 257.818 247.392 258.746 245.878 259.386C245.299 259.642 244.832 259.77 244.477 259.77C243.511 259.77 243.028 259.29 243.028 258.33C243.028 257.722 243.543 257.226 244.574 256.842C245.605 256.458 246.329 255.914 246.748 255.21C247.199 254.474 247.698 253.642 248.246 252.714C248.794 251.786 249.164 251.162 249.357 250.842C249.583 250.522 249.857 250.138 250.179 249.69C250.501 249.21 250.791 248.906 251.048 248.778C251.725 248.426 252.466 248.25 253.271 248.25C254.592 248.25 255.59 248.778 256.267 249.834C256.943 250.89 257.33 252.042 257.426 253.29C257.555 254.538 257.732 255.69 257.958 256.746C258.183 257.802 258.554 258.33 259.069 258.33C259.585 258.33 260.068 257.93 260.519 257.13C261.002 256.33 261.421 255.45 261.775 254.49C262.129 253.53 262.693 252.65 263.466 251.85C264.272 251.05 265.222 250.65 266.317 250.65C267.155 250.65 267.767 250.858 268.153 251.274C268.54 251.658 268.813 251.962 268.975 252.186C269.168 252.41 269.329 252.746 269.458 253.194C269.619 253.642 269.731 253.978 269.796 254.202C269.86 254.394 269.957 254.746 270.086 255.258C270.472 257.018 270.827 257.882 271.149 257.85C271.761 257.85 272.55 257.69 273.516 257.37C274.483 257.05 275.014 256.89 275.111 256.89C276.077 256.89 276.56 257.37 276.56 258.33C276.56 259.034 276.077 259.546 275.111 259.866Z" fill="#8BFF48"/>
<path d="M235.445 237.402C235.961 237.402 236.492 237.642 237.04 238.122C237.588 238.57 237.861 239.05 237.861 239.562C237.861 240.042 237.636 240.41 237.185 240.666C236.766 240.922 236.299 241.05 235.784 241.05C235.268 241.05 234.833 240.826 234.479 240.378C234.157 239.898 233.996 239.386 233.996 238.842C233.996 237.882 234.479 237.402 235.445 237.402ZM231.097 255.258C229.293 257.178 227.457 258.554 225.589 259.386C225.009 259.642 224.542 259.77 224.187 259.77C223.221 259.77 222.738 259.29 222.738 258.33C222.738 257.722 223.221 257.226 224.187 256.842C224.703 256.65 225.379 256.266 226.217 255.69C227.086 255.114 227.666 254.682 227.956 254.394C228.246 254.106 228.745 253.578 229.454 252.81C230.195 252.042 230.775 251.466 231.193 251.082C231.612 250.666 232.176 250.25 232.885 249.834C233.625 249.418 234.302 249.21 234.914 249.21C236.17 249.21 237.137 249.658 237.813 250.554C238.489 251.45 238.892 252.442 239.021 253.53C239.375 256.41 239.939 257.85 240.712 257.85C241.324 257.85 242.113 257.69 243.08 257.37C244.046 257.05 244.578 256.89 244.674 256.89C245.641 256.89 246.124 257.37 246.124 258.33C246.124 259.034 245.641 259.546 244.674 259.866C242.935 260.442 241.517 260.73 240.422 260.73C239.359 260.73 238.489 260.282 237.813 259.386C237.137 258.49 236.734 257.498 236.605 256.41C236.251 253.53 235.687 252.09 234.914 252.09C234.495 252.09 234.012 252.362 233.464 252.906C232.949 253.418 232.53 253.834 232.208 254.154C231.886 254.442 231.516 254.81 231.097 255.258Z" fill="#8BFF48"/>
<path d="M220.4 260.73C218.692 260.73 217.372 259.962 216.438 258.426C215.536 256.89 215.085 255.13 215.085 253.146C215.085 252.122 215.568 251.61 216.534 251.61C217.501 251.61 217.984 252.186 217.984 253.338C217.984 254.49 218.209 255.53 218.66 256.458C219.111 257.386 219.659 257.85 220.303 257.85C220.979 257.85 221.801 257.69 222.767 257.37C223.734 257.05 224.265 256.89 224.362 256.89C225.328 256.89 225.811 257.37 225.811 258.33C225.811 259.034 225.328 259.546 224.362 259.866C222.622 260.442 221.302 260.73 220.4 260.73ZM210.736 229.626L210.688 230.442C210.301 234.282 210.043 237.13 209.915 238.986C209.818 240.842 209.77 243.082 209.77 245.706C209.77 248.298 209.85 249.994 210.011 250.794C210.784 249.098 212.105 247.53 213.973 246.09C215.842 244.65 218.145 243.93 220.883 243.93C221.849 243.93 222.332 244.41 222.332 245.37C222.332 246.33 221.849 246.81 220.883 246.81C219.562 246.81 218.338 247.05 217.211 247.53C216.115 248.01 215.246 248.602 214.601 249.306C213.377 250.65 212.604 251.85 212.282 252.906C212.218 253.098 212.105 253.514 211.944 254.154C211.815 254.762 211.718 255.162 211.654 255.354C211.622 255.578 211.509 255.866 211.316 256.218C210.994 256.826 210.478 257.13 209.77 257.13C209.093 257.13 208.433 256.074 207.789 253.962C207.177 251.818 206.871 249.914 206.871 248.25C206.871 246.586 206.871 245.098 206.871 243.786C206.903 242.442 206.919 241.386 206.919 240.618C206.951 239.818 207.015 238.842 207.112 237.69C207.209 236.538 207.257 235.786 207.257 235.434C207.321 233.93 207.515 231.978 207.837 229.578C207.934 228.65 208.417 228.186 209.286 228.186C210.253 228.186 210.736 228.666 210.736 229.626Z" fill="#8BFF48"/>
<path d="M197.184 236.25L195.735 235.962C194.575 235.962 192.997 236.218 190.999 236.73C189.002 237.21 188.004 237.69 188.004 238.17C188.004 239.13 189.051 240.25 191.144 241.53C191.918 241.978 192.626 242.602 193.27 243.402C193.947 244.17 194.285 244.938 194.285 245.706C194.285 246.474 194.06 247.162 193.609 247.77C193.19 248.378 192.771 248.842 192.352 249.162C191.966 249.45 191.499 249.77 190.951 250.122C190.404 250.474 190.065 250.698 189.936 250.794C189.84 250.858 189.663 250.97 189.405 251.13L188.825 251.514C188.696 251.578 188.519 251.69 188.294 251.85C188.1 251.978 187.939 252.09 187.81 252.186C187.682 252.25 187.537 252.346 187.376 252.474C187.247 252.602 187.134 252.698 187.037 252.762C186.909 252.858 186.812 252.954 186.747 253.05C186.619 253.21 186.554 253.37 186.554 253.53C186.554 254.586 187.327 255.658 188.873 256.746C190.452 257.802 192.256 258.33 194.285 258.33C198.44 258.33 201.629 257.962 203.852 257.226C204.529 257.002 204.915 256.89 205.012 256.89C205.978 256.89 206.461 257.37 206.461 258.33C206.461 259.034 205.978 259.546 205.012 259.866C202.306 260.762 198.73 261.21 194.285 261.21C191.483 261.21 189.002 260.41 186.844 258.81C184.718 257.178 183.655 255.418 183.655 253.53C183.655 252.122 184.75 250.714 186.941 249.306C187.134 249.178 187.424 248.986 187.81 248.73C188.229 248.474 188.906 248.026 189.84 247.386C190.774 246.746 191.289 246.234 191.386 245.85C191.386 245.562 191.048 245.162 190.371 244.65C189.727 244.106 189.018 243.562 188.245 243.018C187.472 242.474 186.747 241.77 186.071 240.906C185.427 240.01 185.105 239.082 185.105 238.122C185.105 237.13 185.556 236.282 186.458 235.578C187.36 234.842 188.777 234.25 190.71 233.802C192.642 233.322 194.124 233.082 195.155 233.082C196.218 233.082 197.055 233.242 197.667 233.562C198.312 233.882 198.634 234.298 198.634 234.81C198.634 235.77 198.151 236.25 197.184 236.25Z" fill="#8BFF48"/>
<path d="M149.379 237.402C149.894 237.402 150.426 237.642 150.973 238.122C151.521 238.57 151.795 239.05 151.795 239.562C151.795 240.042 151.569 240.41 151.118 240.666C150.699 240.922 150.232 241.05 149.717 241.05C149.201 241.05 148.767 240.826 148.412 240.378C148.09 239.898 147.929 239.386 147.929 238.842C147.929 237.882 148.412 237.402 149.379 237.402ZM145.03 255.258C143.226 257.178 141.39 258.554 139.522 259.386C138.942 259.642 138.475 259.77 138.121 259.77C137.154 259.77 136.671 259.29 136.671 258.33C136.671 257.722 137.154 257.226 138.121 256.842C138.636 256.65 139.312 256.266 140.15 255.69C141.02 255.114 141.599 254.682 141.889 254.394C142.179 254.106 142.679 253.578 143.387 252.81C144.128 252.042 144.708 251.466 145.127 251.082C145.545 250.666 146.109 250.25 146.818 249.834C147.559 249.418 148.235 249.21 148.847 249.21C150.103 249.21 151.07 249.658 151.746 250.554C152.423 251.45 152.825 252.442 152.954 253.53C153.309 256.41 153.872 257.85 154.645 257.85C155.257 257.85 156.047 257.69 157.013 257.37C157.979 257.05 158.511 256.89 158.607 256.89C159.574 256.89 160.057 257.37 160.057 258.33C160.057 259.034 159.574 259.546 158.607 259.866C156.868 260.442 155.451 260.73 154.355 260.73C153.292 260.73 152.423 260.282 151.746 259.386C151.07 258.49 150.667 257.498 150.538 256.41C150.184 253.53 149.62 252.09 148.847 252.09C148.428 252.09 147.945 252.362 147.398 252.906C146.882 253.418 146.463 253.834 146.141 254.154C145.819 254.442 145.449 254.81 145.03 255.258Z" fill="#8BFF48"/>
<path d="M130.198 247.722C130.069 247.69 129.779 247.578 129.328 247.386C128.33 246.97 127.299 246.778 126.236 246.81C124.561 246.81 122.918 247.562 121.308 249.066C119.697 250.57 118.892 252.538 118.892 254.97C118.892 255.674 119.117 256.25 119.568 256.698C120.019 257.146 120.518 257.37 121.066 257.37C121.646 257.37 122.129 257.322 122.516 257.226C122.902 257.13 123.256 256.986 123.579 256.794C123.933 256.57 124.239 256.362 124.497 256.17C124.787 255.946 125.076 255.658 125.366 255.306C125.656 254.954 125.882 254.666 126.043 254.442C126.236 254.218 126.445 253.898 126.671 253.482C126.929 253.066 127.106 252.778 127.202 252.618C127.299 252.426 127.444 252.122 127.637 251.706C128.507 249.85 129.361 248.522 130.198 247.722ZM115.993 254.97C115.993 251.834 117.056 249.21 119.182 247.098C121.308 244.986 123.659 243.93 126.236 243.93C127.718 243.93 129.055 244.202 130.247 244.746C131.438 245.29 132.034 245.818 132.034 246.33C132.034 246.714 131.922 247.05 131.696 247.338C132.211 247.466 132.582 247.754 132.807 248.202C133.033 248.618 133.178 249.162 133.242 249.834C133.307 250.474 133.355 251.178 133.387 251.946C133.452 252.714 133.516 253.386 133.58 253.962C133.645 254.506 133.709 255.098 133.774 255.738C133.935 257.05 134.128 257.722 134.354 257.754C135.159 257.754 136.012 257.61 136.914 257.322C137.816 257.034 138.283 256.89 138.316 256.89C139.282 256.89 139.765 257.37 139.765 258.33C139.765 259.034 139.282 259.546 138.316 259.866C136.769 260.378 135.513 260.634 134.547 260.634C133.613 260.634 132.872 260.25 132.324 259.482C131.744 258.714 131.358 257.786 131.165 256.698C130.778 254.746 130.585 253.258 130.585 252.234C130.553 252.298 130.44 252.538 130.247 252.954C130.053 253.338 129.908 253.626 129.812 253.818C129.715 254.01 129.522 254.346 129.232 254.826C128.974 255.274 128.749 255.642 128.555 255.93C128.362 256.186 128.088 256.538 127.734 256.986C127.412 257.402 127.09 257.738 126.768 257.994C126.478 258.25 126.107 258.538 125.656 258.858C125.238 259.146 124.819 259.386 124.4 259.578C123.369 260.026 122.338 260.25 121.308 260.25C119.536 260.25 118.135 259.61 117.104 258.33C115.365 258.106 113.931 257.354 112.804 256.074C111.708 254.762 111.032 253.162 110.774 251.274C109.003 254.186 107.118 256.57 105.121 258.426C103.156 260.282 101.32 261.21 99.6128 261.21C97.9055 261.21 96.5043 260.714 95.4091 259.722C94.3139 258.698 93.7663 256.874 93.7663 254.25C93.7663 251.594 94.636 249.21 96.3755 247.098C98.1149 244.986 100.144 243.93 102.464 243.93C103.752 243.93 105.169 244.538 106.716 245.754C107.424 246.33 107.779 246.842 107.779 247.29C107.779 248.25 107.295 248.73 106.329 248.73C105.942 248.73 105.685 248.666 105.556 248.538C105.298 248.282 105.024 248.058 104.735 247.866C103.865 247.162 103.108 246.81 102.464 246.81C101.046 246.81 99.7255 247.562 98.5015 249.066C97.2774 250.538 96.6654 252.41 96.6654 254.682C96.6654 256.122 96.8909 257.098 97.3418 257.61C97.825 258.09 98.5498 258.33 99.5162 258.33C100.483 258.33 101.69 257.658 103.14 256.314C104.59 254.97 106.023 253.258 107.44 251.178C108.858 249.098 110.066 246.618 111.064 243.738C112.095 240.826 112.61 238.01 112.61 235.29C112.61 234.682 112.53 234.058 112.369 233.418C112.208 232.778 112.127 232.442 112.127 232.41C112.127 231.45 112.61 230.97 113.577 230.97C114.865 230.97 115.509 232.378 115.509 235.194C115.509 238.01 114.994 241.082 113.963 244.41C113.706 246.458 113.577 248.154 113.577 249.498C113.577 252.186 114.382 254.01 115.993 254.97Z" fill="#8BFF48"/>
<path d="M91.9359 259.866C90.1964 260.442 88.8435 260.73 87.8771 260.73C86.9108 260.73 86.1538 260.378 85.6062 259.674C85.0586 258.97 84.5593 257.77 84.1083 256.074C83.6896 254.378 83.3674 253.53 83.1419 253.53C82.3044 253.53 81.4186 254.81 80.4844 257.37C80.1301 258.33 79.5503 259.21 78.745 260.01C77.9397 260.81 76.925 261.21 75.7009 261.21C74.5091 261.21 73.5749 260.682 72.8985 259.626C72.222 258.57 71.8194 257.418 71.6905 256.17C71.5939 254.922 71.4328 253.77 71.2074 252.714C70.9819 251.658 70.6114 251.13 70.096 251.13C69.7417 251.13 69.484 251.226 69.3229 251.418C69.1619 251.61 69.0169 251.802 68.8881 251.994C68.7914 252.154 68.6787 252.33 68.5499 252.522C68.4532 252.682 68.3244 252.906 68.1633 253.194C68.0345 253.482 67.8734 253.786 67.6801 254.106C67.0359 255.226 66.5205 256.058 66.1339 256.602C65.3609 257.818 64.2173 258.746 62.7034 259.386C62.1235 259.642 61.6565 259.77 61.3021 259.77C60.3358 259.77 59.8526 259.29 59.8526 258.33C59.8526 257.722 60.368 257.226 61.3988 256.842C62.4295 256.458 63.1543 255.914 63.5731 255.21C64.024 254.474 64.5233 253.642 65.0709 252.714C65.6185 251.786 65.989 251.162 66.1823 250.842C66.4077 250.522 66.6815 250.138 67.0037 249.69C67.3258 249.21 67.6157 248.906 67.8734 248.778C68.5499 248.426 69.2907 248.25 70.096 248.25C71.4167 248.25 72.4153 248.778 73.0918 249.834C73.7682 250.89 74.1548 252.042 74.2514 253.29C74.3802 254.538 74.5574 255.69 74.7829 256.746C75.0084 257.802 75.3788 258.33 75.8942 258.33C76.4096 258.33 76.8928 257.93 77.3438 257.13C77.8269 256.33 78.2457 255.45 78.6 254.49C78.9544 253.53 79.5181 252.65 80.2912 251.85C81.0965 251.05 82.0467 250.65 83.1419 250.65C83.9795 250.65 84.5915 250.858 84.978 251.274C85.3646 251.658 85.6384 251.962 85.7994 252.186C85.9927 252.41 86.1538 252.746 86.2826 253.194C86.4437 253.642 86.5564 253.978 86.6209 254.202C86.6853 254.394 86.7819 254.746 86.9108 255.258C87.2973 257.018 87.6516 257.882 87.9738 257.85C88.5858 257.85 89.375 257.69 90.3414 257.37C91.3077 257.05 91.8392 256.89 91.9359 256.89C92.9022 256.89 93.3854 257.37 93.3854 258.33C93.3854 259.034 92.9022 259.546 91.9359 259.866Z" fill="#8BFF48"/>
<path d="M45.2416 258.426C45.2094 258.426 44.9678 258.554 44.5168 258.81C43.3572 259.45 42.5036 259.77 41.956 259.77C40.9896 259.77 40.5064 259.29 40.5064 258.33C40.5064 257.722 40.9896 257.226 41.956 256.842C42.117 256.778 42.5036 256.586 43.1156 256.266C43.7276 255.946 44.082 255.754 44.1786 255.69C44.0498 255.402 43.9853 254.97 43.9853 254.394C43.9853 251.514 45 249.05 47.0294 247.002C49.0587 244.954 50.9109 243.93 52.586 243.93C54.261 243.93 55.5817 244.33 56.5481 245.13C57.5144 245.898 57.9976 246.842 57.9976 247.962C57.9976 249.05 57.7399 249.994 57.2245 250.794C56.7091 251.594 55.9038 252.378 54.8086 253.146C53.2946 254.234 51.0881 255.498 48.189 256.938C49.4775 257.866 51.2653 258.33 53.5523 258.33C55.8394 258.33 58.0942 257.962 60.3169 257.226C60.9933 257.002 61.3799 256.89 61.4765 256.89C62.4429 256.89 62.9261 257.37 62.9261 258.33C62.9261 259.034 62.4429 259.546 61.4765 259.866C58.7707 260.762 56.1615 261.21 53.649 261.21C50.0734 261.21 47.271 260.282 45.2416 258.426ZM46.8844 254.394C52.3605 251.674 55.0985 249.626 55.0985 248.25C55.0985 247.29 54.2932 246.81 52.6826 246.81C51.7162 246.81 50.5083 247.578 49.0587 249.114C47.6092 250.618 46.8844 252.378 46.8844 254.394Z" fill="#8BFF48"/>
<path d="M22.2195 261.21C21.2531 261.21 20.7699 260.73 20.7699 259.77C20.7699 258.81 21.2531 258.33 22.2195 258.33C28.6619 258.33 33.0911 257.85 35.507 256.89C36.6344 256.442 37.1981 255.978 37.1981 255.498C37.1981 255.018 36.7955 254.586 35.9902 254.202C35.2171 253.818 33.8964 253.322 32.0281 252.714C30.192 252.106 28.7908 251.594 27.8244 251.178C23.1214 249.226 20.7699 246.266 20.7699 242.298C20.7699 239.706 21.8974 237.53 24.1522 235.77C26.4071 233.978 29.1129 233.082 32.2697 233.082C34.0091 233.082 35.4587 233.594 36.6183 234.618C37.8102 235.642 38.4061 236.874 38.4061 238.314C38.4061 239.754 37.8424 241.034 36.7149 242.154C35.5875 243.274 34.8144 243.834 34.3957 243.834C33.4293 243.834 32.9461 243.354 32.9461 242.394C32.9461 241.978 33.3649 241.354 34.2024 240.522C35.0721 239.658 35.507 239.002 35.507 238.554C35.507 237.786 35.201 237.162 34.5889 236.682C34.0091 236.202 33.2521 235.962 32.318 235.962C29.9343 235.962 27.8888 236.57 26.1816 237.786C24.5066 238.97 23.669 240.41 23.669 242.106C23.669 243.802 24.1361 245.13 25.0703 246.09C26.0366 247.05 27.1157 247.786 28.3076 248.298C29.5316 248.778 30.7557 249.226 31.9798 249.642C33.2038 250.026 34.2185 250.378 35.0238 250.698C35.8613 250.986 36.6988 251.354 37.5364 251.802C39.2436 252.73 40.0972 253.946 40.0972 255.45C40.0972 257.402 38.6799 258.858 35.8452 259.818C33.0428 260.746 28.5009 261.21 22.2195 261.21Z" fill="#8BFF48"/>
<path d="M282.38 163.517H271.854C271.322 163.517 269.302 163.834 268.877 163.834C268.345 163.834 267.069 161.827 266.75 161.51C266.538 161.299 265.049 160.665 265.049 160.348C265.049 160.031 265.262 159.925 265.581 159.925H282.38L282.38 157.919C282.38 151.581 282.38 150.842 280.892 150.102C280.679 149.997 279.403 149.68 279.403 149.469C279.403 148.835 282.274 148.835 282.805 148.835C293.97 148.835 293.97 153.377 293.97 157.919L293.97 159.925H305.772C308.323 159.925 309.599 158.658 311.088 157.285C312.045 156.334 313.321 155.7 314.915 155.7C315.341 155.7 320.232 155.7 320.232 161.932L320.232 194.465C320.232 201.436 318.424 205.767 311.832 205.767C304.815 205.767 304.07 200.697 303.432 196.683C302.794 192.881 301.306 192.564 299.498 192.247C299.392 192.247 299.073 192.141 299.073 191.824C299.073 191.613 299.392 191.402 299.711 191.402H311.619L311.619 163.517H293.651C293.438 169.221 292.694 174.502 290.673 178.516C286.314 187.283 277.383 191.296 270.791 191.296C267.92 191.296 266.112 190.557 266.112 189.712C266.112 189.395 266.325 189.395 266.431 189.395C268.558 189.395 268.983 189.395 270.791 188.022C274.299 185.487 281.849 177.248 282.38 163.517Z" fill="white"/>
<path d="M227.626 160.796L227.626 167.978C227.626 190.582 212.847 198.715 203.703 198.715C200.407 198.715 198.812 197.448 198.812 196.708C198.812 196.497 199.025 196.286 199.238 196.286C199.45 196.286 200.088 196.708 200.194 196.708C205.298 196.708 214.974 186.04 214.974 168.084L214.974 160.796H191.901C191.369 160.796 189.349 161.113 188.924 161.113C188.392 161.113 186.904 158.683 186.479 158.472C186.266 158.261 185.096 157.944 185.096 157.627C185.096 157.416 185.203 157.205 185.628 157.205H214.867L214.867 144.529C214.867 141.678 214.867 137.769 213.698 136.924C213.485 136.713 211.89 136.396 211.89 136.079C211.89 135.551 214.017 135.551 214.761 135.551C227.52 135.551 227.52 140.304 227.52 144.529L227.52 157.205H232.092C234.963 157.205 236.557 156.043 237.94 154.67C240.385 152.029 241.555 150.867 244.213 150.867C246.552 150.867 249.954 152.451 249.954 155.831C249.954 158.366 247.934 160.796 243.575 160.796H227.626Z" fill="white"/>
<path d="M142.522 164.482L142.522 184.656H151.454C154.537 184.656 155.919 183.389 157.62 181.593C159.322 179.692 160.81 178.319 163.468 178.319C166.02 178.319 169.316 180.009 169.316 183.283C169.316 185.712 167.296 188.247 162.937 188.247H142.522L142.522 206.837C142.522 210.112 139.864 212.647 136.781 212.647C133.272 212.647 130.933 209.689 130.933 206.837L130.933 188.247H112.751C112.22 188.247 110.2 188.459 109.774 188.459C109.349 188.459 108.286 187.086 108.073 186.769C107.648 186.135 107.541 186.135 106.159 185.501C105.947 185.395 105.84 185.29 105.84 185.079C105.84 184.762 106.053 184.656 106.372 184.656H130.933L130.933 164.482H119.769C119.343 164.482 117.217 164.799 116.792 164.799C116.26 164.799 114.772 162.369 114.346 162.158C114.134 161.947 112.964 161.524 112.964 161.313C112.964 160.996 113.283 160.89 113.496 160.89H130.933L130.933 153.074C130.933 146.842 130.933 146.208 129.657 145.363C129.444 145.152 127.956 144.941 128.062 144.624C128.062 144.202 130.189 144.202 131.039 144.202C131.783 144.202 138.588 144.202 141.459 146.948C141.991 147.476 142.522 148.321 142.522 153.074L142.522 160.89H144.33C147.413 160.89 148.902 159.623 150.39 158.144C152.517 155.926 153.686 154.553 156.451 154.553C159.003 154.553 162.192 156.348 162.192 159.517C162.192 161.947 160.278 164.482 155.813 164.482H142.522Z" fill="white"/>
<path d="M46.9955 187.215L46.9955 161.019C46.9955 154.048 46.9955 153.309 45.6132 152.464C45.4006 152.253 43.8057 151.83 43.8057 151.619C43.8057 151.091 44.1247 151.091 44.3373 151.091C58.5848 151.091 58.5848 154.048 58.5848 157.745L58.5848 187.215H68.792C71.9817 187.215 73.4703 185.841 74.9588 184.257C76.8727 182.25 78.1485 180.877 80.8067 180.877C83.3585 180.877 86.6545 182.567 86.6545 185.841C86.6545 188.271 84.7407 190.806 80.275 190.806H27.857C27.3254 190.806 25.3052 191.017 24.8799 191.017C24.3483 191.017 22.8598 188.693 22.4345 188.376C22.2218 188.271 21.0523 187.848 21.0523 187.637C21.0523 187.32 21.2649 187.215 21.5839 187.215H46.9955ZM71.9817 145.07H33.2796C32.748 145.07 30.7278 145.387 30.1962 145.387C29.6645 145.387 28.2823 143.063 27.857 142.746C27.6444 142.641 26.4748 142.218 26.4748 142.007C26.4748 141.69 26.6875 141.584 27.0064 141.584H60.4987C63.6884 141.584 65.177 140.211 66.7718 138.521C68.473 136.62 69.8552 135.247 72.6197 135.247C75.0651 135.247 78.3612 136.937 78.3612 140.211C78.3612 142.641 76.4474 145.07 71.9817 145.07Z" fill="white"/>
<path d="M217.092 88.97H234.9C237.169 88.97 238.87 88.0686 240.231 86.7164C241.932 85.1389 243.18 84.0121 245.675 84.0121C246.243 84.0121 252.027 84.0121 252.027 91.3363L252.027 112.52C252.027 119.957 246.356 119.957 245.675 119.957C243.18 119.957 241.932 118.83 240.231 117.253C238.756 115.788 237.055 114.999 234.9 114.999H217.319C216.752 118.041 214.257 119.957 211.421 119.957C208.358 119.957 205.409 117.591 205.409 114.098L205.409 92.5758C205.409 90.7729 205.409 85.9276 203.821 85.0262C203.708 84.9135 202.687 84.5755 202.687 84.3501C202.687 83.8994 204.275 83.8994 205.182 83.8994C215.504 83.8994 216.525 87.2798 217.092 88.97ZM217.319 92.3504L217.319 111.506H241.025L241.025 92.3504H217.319ZM207.791 69.4763H248.171C248.284 68.5749 248.738 64.7438 248.738 63.955C248.738 61.9268 248.284 60.1239 244.201 60.0112C243.974 60.0112 243.747 59.8985 243.747 59.6731C243.747 59.1097 245.789 59.1097 246.696 59.1097C250.439 59.1097 265.185 59.4478 265.185 69.4763C265.185 74.2089 261.328 77.9273 256.678 77.9273C253.956 77.9273 250.553 76.4625 248.965 72.8567H205.409C204.388 74.5469 203.027 76.4625 199.851 76.4625C196.449 76.4625 193.84 73.7582 193.84 70.6031C193.84 69.589 194.18 68.3495 194.861 67.3354L215.958 36.123C219.247 31.2777 219.588 30.827 219.588 29.3622C219.588 28.7988 219.361 28.2354 218.567 27.5593C218.34 27.3339 218.226 27.3339 218.226 27.1086C218.226 26.8832 218.453 26.6579 218.68 26.6579C218.907 26.6579 228.662 32.7426 228.662 36.9117C228.662 38.3766 228.321 39.0527 225.826 42.6584L207.791 69.4763Z" fill="white"/>
<path d="M161.472 104.819L161.472 75.8602C161.472 69.8881 161.472 69.212 160.224 68.4233C159.998 68.1979 158.636 67.9726 158.636 67.7472C158.636 67.1838 160.792 67.1838 161.586 67.1838C165.782 67.1838 168.958 68.1979 170.319 69.0994C172.248 70.2262 172.248 71.353 172.248 75.8602L172.248 107.974C172.248 110.791 169.979 113.27 166.917 113.27C164.421 113.27 161.699 111.58 161.472 108.199H137.199C134.25 108.199 132.322 109.89 131.755 110.566C129.826 112.256 128.692 113.383 126.083 113.383C125.516 113.383 119.618 113.383 119.618 105.72L119.618 75.8602C119.618 69.8881 119.618 69.212 118.37 68.4233C118.143 68.1979 116.782 67.9726 116.782 67.7472C116.782 67.1838 118.937 67.1838 119.731 67.1838C123.474 67.1838 126.877 68.0852 128.465 69.0994C130.167 70.1135 130.393 71.0149 130.393 75.8602L130.393 104.819H161.472ZM97.3865 40.2532C102.377 40.2532 105.553 44.0844 105.553 48.7042C105.553 62.902 89.5601 71.9164 79.5786 71.9164C79.2384 71.9164 79.1249 71.8037 79.1249 71.5783C79.1249 71.2403 80.3726 70.6769 80.5995 70.4515C87.9722 65.4936 88.6527 55.4651 89.1064 49.493C89.787 40.4786 96.2522 40.2532 97.3865 40.2532ZM101.356 81.0435L101.356 108.875C101.356 111.129 99.5416 113.157 97.0462 113.157C95.0046 113.157 92.8495 111.467 92.8495 108.875L92.8495 81.4942C92.8495 78.9025 92.736 76.4236 91.3749 76.0855C90.9212 75.8602 90.5809 75.8602 90.5809 75.5221C90.5809 75.0714 91.7152 75.0714 92.5092 75.0714C94.324 75.0714 101.356 75.1841 101.356 81.0435ZM150.356 44.6478L150.356 94.0017C150.356 99.7484 146.386 99.7484 145.139 99.7484C141.963 99.7484 139.808 97.1567 139.808 94.4524L139.808 44.6478C139.808 40.4786 139.694 37.0982 137.766 36.7601C137.426 36.7601 136.859 36.6475 136.859 36.3094C136.859 35.8587 137.086 35.8587 138.674 35.8587C150.356 35.8587 150.356 38.9011 150.356 44.6478Z" fill="white"/>
</svg>
