<svg width="323" height="27" viewBox="0 0 323 27" fill="none" xmlns="http://www.w3.org/2000/svg">
<path d="M308.404 21.7241C308.404 22.9893 308.608 23.8799 309.017 24.3958C309.425 24.9118 310.105 25.2434 311.058 25.3908C311.218 25.4154 311.33 25.483 311.392 25.5935C311.453 25.7041 311.484 25.8331 311.484 25.9805C311.484 26.1156 311.447 26.2384 311.373 26.349C311.299 26.4595 311.194 26.5148 311.058 26.5148C310.934 26.5148 310.711 26.5025 310.39 26.478C310.08 26.4534 309.715 26.4227 309.295 26.3858C308.874 26.349 308.435 26.3121 307.978 26.2753C307.532 26.2384 307.118 26.22 306.734 26.22C305.918 26.22 305.145 26.263 304.415 26.349C303.685 26.435 302.986 26.478 302.318 26.478C302.195 26.478 302.102 26.4227 302.04 26.3121C301.978 26.2016 301.947 26.0849 301.947 25.962C301.947 25.8269 301.978 25.6979 302.04 25.5751C302.102 25.4523 302.207 25.3786 302.355 25.354C302.974 25.2557 303.45 25.1452 303.784 25.0223C304.131 24.8872 304.378 24.7029 304.526 24.4695C304.687 24.2239 304.78 23.9045 304.805 23.5114C304.829 23.106 304.842 22.584 304.842 21.9452L304.842 17.1913C304.842 15.9384 304.836 14.9065 304.823 14.0958C304.811 13.2728 304.718 12.6217 304.545 12.1426C304.384 11.6636 304.124 11.3258 303.766 11.1292C303.419 10.9204 302.9 10.8037 302.207 10.7791C302.059 10.7791 301.953 10.7177 301.892 10.5949C301.83 10.472 301.799 10.3492 301.799 10.2264C301.799 10.0912 301.824 9.96225 301.873 9.83941C301.923 9.71657 301.997 9.65515 302.096 9.65515C303.543 9.55688 304.761 9.40948 305.751 9.21293C306.741 9.00411 307.371 8.89969 307.644 8.89969C307.928 8.89969 308.126 8.9734 308.237 9.1208C308.349 9.26821 308.404 9.45861 308.404 9.69201C308.404 9.74114 308.386 9.87012 308.349 10.0789C308.312 10.2755 308.268 10.5089 308.219 10.7791C308.169 11.0371 308.126 11.2889 308.089 11.5346C308.052 11.768 308.033 11.9461 308.033 12.0689C308.033 12.1181 308.052 12.1426 308.089 12.1426C308.126 12.1426 308.157 12.1181 308.182 12.0689C308.355 11.7618 308.621 11.4179 308.979 11.0371C309.338 10.644 309.765 10.2693 310.26 9.91312C310.767 9.55688 311.348 9.25593 312.004 9.01025C312.672 8.76457 313.383 8.64173 314.138 8.64173C315.944 8.64173 317.354 9.1638 318.368 10.2079C319.382 11.2521 319.89 12.9411 319.89 15.275L319.89 21.7241C319.89 22.3997 319.914 22.9525 319.964 23.3824C320.013 23.8124 320.118 24.1625 320.279 24.4327C320.44 24.6907 320.675 24.8933 320.984 25.0408C321.294 25.1759 321.714 25.2803 322.246 25.354C322.37 25.3786 322.463 25.4461 322.524 25.5567C322.586 25.6672 322.617 25.7962 322.617 25.9436C322.617 26.0787 322.586 26.2016 322.524 26.3121C322.463 26.4227 322.37 26.478 322.246 26.478C321.912 26.478 321.343 26.435 320.539 26.349C319.747 26.263 318.974 26.22 318.22 26.22C317.403 26.22 316.655 26.263 315.975 26.349C315.307 26.435 314.738 26.478 314.268 26.478C314.132 26.478 314.033 26.4227 313.971 26.3121C313.909 26.2016 313.872 26.0849 313.859 25.962C313.847 25.8269 313.866 25.6979 313.915 25.5751C313.965 25.4523 314.063 25.3786 314.212 25.354C314.719 25.2557 315.109 25.1329 315.381 24.9855C315.665 24.8258 315.876 24.6231 316.012 24.3774C316.16 24.1195 316.247 23.8001 316.271 23.4193C316.296 23.0262 316.309 22.5348 316.309 21.9452L316.309 16.2148C316.309 15.5883 316.29 14.9618 316.253 14.3353C316.216 13.7088 316.086 13.1438 315.863 12.6401C315.653 12.1365 315.338 11.7189 314.917 11.3872C314.509 11.0555 313.921 10.8897 313.154 10.8897C311.633 10.8897 310.458 11.3749 309.629 12.3453C308.812 13.3158 308.404 14.71 308.404 16.528L308.404 21.7241Z" fill="black"/>
<path d="M287.776 17.1545C287.776 18.69 287.56 20.0535 287.127 21.245C286.694 22.4243 286.076 23.4193 285.271 24.23C284.48 25.0285 283.527 25.6365 282.414 26.0542C281.301 26.4595 280.058 26.6622 278.685 26.6622C277.497 26.6622 276.396 26.4718 275.382 26.091C274.368 25.6979 273.489 25.1206 272.747 24.359C272.017 23.5851 271.436 22.6147 271.003 21.4477C270.582 20.2807 270.372 18.9049 270.372 17.3203C270.372 16.0305 270.582 14.8512 271.003 13.7825C271.436 12.7138 272.036 11.8048 272.803 11.0555C273.582 10.2939 274.516 9.70429 275.604 9.28664C276.705 8.8567 277.899 8.64173 279.186 8.64173C280.423 8.64173 281.567 8.83213 282.618 9.21293C283.67 9.58145 284.573 10.1281 285.327 10.8528C286.094 11.5653 286.694 12.4497 287.127 13.5062C287.56 14.5626 287.776 15.7787 287.776 17.1545ZM283.787 17.5783C283.787 16.6201 283.719 15.6927 283.583 14.796C283.459 13.887 283.23 13.0824 282.896 12.3822C282.575 11.6697 282.123 11.0985 281.542 10.6686C280.961 10.2386 280.212 10.0237 279.297 10.0237C278.283 10.0237 277.46 10.2386 276.829 10.6686C276.198 11.0985 275.697 11.6759 275.326 12.4006C274.955 13.1131 274.701 13.9238 274.565 14.8328C274.429 15.7295 274.361 16.6693 274.361 17.652C274.361 18.5119 274.423 19.3963 274.547 20.3053C274.671 21.202 274.912 22.0189 275.271 22.7559C275.629 23.4807 276.118 24.0826 276.736 24.5617C277.355 25.0408 278.146 25.2803 279.111 25.2803C280.101 25.2803 280.899 25.053 281.505 24.5985C282.111 24.144 282.581 23.5544 282.915 22.8296C283.261 22.0926 283.49 21.2696 283.602 20.3606C283.725 19.4393 283.787 18.5119 283.787 17.5783Z" fill="black"/>
<path d="M253.27 21.7241C253.27 22.3506 253.282 22.8788 253.307 23.3087C253.344 23.7387 253.437 24.0949 253.585 24.3774C253.733 24.6477 253.962 24.8626 254.271 25.0223C254.593 25.1697 255.045 25.2803 255.626 25.354C255.762 25.3786 255.861 25.4461 255.923 25.5567C255.997 25.6549 256.034 25.7716 256.034 25.9068C256.034 26.0419 255.997 26.1709 255.923 26.2937C255.861 26.4165 255.762 26.478 255.626 26.478C255.403 26.478 255.137 26.4657 254.828 26.4411C254.519 26.4165 254.185 26.3858 253.826 26.349C253.48 26.3121 253.115 26.2814 252.731 26.2569C252.348 26.2323 251.971 26.22 251.6 26.22C250.783 26.22 249.992 26.263 249.225 26.349C248.458 26.435 247.715 26.478 246.998 26.478C246.874 26.478 246.782 26.4227 246.72 26.3121C246.658 26.2016 246.627 26.0787 246.627 25.9436C246.627 25.8085 246.658 25.6857 246.72 25.5751C246.794 25.4523 246.899 25.3786 247.035 25.354C247.703 25.2803 248.216 25.1697 248.575 25.0223C248.946 24.8749 249.212 24.6661 249.373 24.3958C249.546 24.1256 249.645 23.7939 249.67 23.4008C249.695 23.0078 249.707 22.5225 249.707 21.9452L249.707 15.8831C249.707 14.7775 249.682 13.9054 249.633 13.2666C249.583 12.6279 249.466 12.1365 249.28 11.7926C249.095 11.4486 248.823 11.2152 248.464 11.0924C248.118 10.9572 247.641 10.8528 247.035 10.7791C246.924 10.7791 246.837 10.7239 246.775 10.6133C246.726 10.4905 246.701 10.3615 246.701 10.2264C246.701 10.0912 246.726 9.96225 246.775 9.83941C246.837 9.71657 246.924 9.65515 247.035 9.65515C247.592 9.6183 248.173 9.56302 248.779 9.48932C249.385 9.40333 249.948 9.31735 250.468 9.23136C251 9.13309 251.451 9.05324 251.822 8.99182C252.206 8.9304 252.447 8.89969 252.546 8.89969C252.855 8.89969 253.053 8.99182 253.14 9.17608C253.226 9.34806 253.27 9.50775 253.27 9.65515L253.27 21.7241ZM251.266 5.01184C250.635 5.01184 250.084 4.81529 249.614 4.42221C249.169 4.04141 248.946 3.55619 248.946 2.96656C248.946 2.67175 249.002 2.4015 249.113 2.15583C249.225 1.89786 249.379 1.67675 249.577 1.49249C249.787 1.30824 250.029 1.16697 250.301 1.0687C250.573 0.958145 250.87 0.902867 251.191 0.902867C251.488 0.902867 251.76 0.958145 252.008 1.0687C252.268 1.17926 252.49 1.3328 252.676 1.52935C252.861 1.71361 253.004 1.93472 253.103 2.19268C253.214 2.43836 253.27 2.7086 253.27 3.00342C253.27 3.28595 253.22 3.55005 253.121 3.79573C253.022 4.02912 252.88 4.23795 252.694 4.42221C252.521 4.60647 252.311 4.75387 252.063 4.86443C251.828 4.9627 251.562 5.01184 251.266 5.01184Z" fill="black"/>
<path d="M227.892 20.4896C227.892 21.8899 228.046 22.9341 228.355 23.622C228.677 24.2976 229.258 24.6354 230.1 24.6354C230.693 24.6354 231.244 24.5494 231.751 24.3774C232.271 24.1932 232.666 24.0028 232.938 23.8062C233.025 23.7571 233.118 23.7571 233.217 23.8062C233.316 23.8431 233.402 23.9045 233.477 23.9905C233.563 24.0642 233.619 24.1563 233.644 24.2669C233.681 24.3651 233.674 24.4511 233.625 24.5248C233.118 25.2864 232.487 25.8331 231.732 26.1647C230.978 26.4964 230.081 26.6622 229.042 26.6622C227.31 26.6622 226.092 26.2814 225.387 25.5198C224.682 24.7705 224.329 23.5667 224.329 21.9084L224.329 12.2163C224.329 11.9093 224.317 11.6759 224.292 11.5162C224.267 11.3442 224.187 11.2214 224.051 11.1476C223.915 11.0617 223.704 11.0125 223.42 11.0002C223.135 10.988 222.727 10.9818 222.195 10.9818C222.109 10.9818 222.035 10.8958 221.973 10.7239C221.923 10.5396 221.898 10.3492 221.898 10.1527C221.898 9.99296 221.923 9.8517 221.973 9.72886C222.022 9.60602 222.096 9.5446 222.195 9.5446C222.777 9.47089 223.278 9.36648 223.698 9.23136C224.131 9.09624 224.496 8.88127 224.793 8.58645C225.102 8.29164 225.35 7.89241 225.535 7.38877C225.733 6.87285 225.888 6.20337 225.999 5.38035C226.024 5.22066 226.147 5.10396 226.37 5.03026C226.593 4.95656 226.828 4.91971 227.075 4.91971C227.285 4.91971 227.471 4.95042 227.632 5.01184C227.805 5.06097 227.892 5.13467 227.892 5.23295L227.892 8.4759C227.892 8.89355 227.91 9.12695 227.947 9.17608C227.984 9.2375 228.145 9.26821 228.43 9.26821H232.382C232.555 9.26821 232.666 9.34806 232.716 9.50775C232.765 9.66744 232.79 9.86398 232.79 10.0974C232.79 10.4045 232.759 10.6317 232.697 10.7791C232.635 10.9143 232.518 10.9818 232.345 10.9818H228.226C228.04 10.9818 227.941 11.0248 227.929 11.1108C227.916 11.1599 227.904 11.2643 227.892 11.424C227.892 11.5714 227.892 11.7864 227.892 12.0689L227.892 20.4896Z" fill="black"/>
<path d="M202.644 18.3706C202.644 18.0881 202.631 17.9161 202.606 17.8547C202.582 17.7932 202.52 17.7625 202.421 17.7625C200.343 17.9345 198.803 18.3829 197.801 19.1076C196.799 19.8201 196.298 20.7291 196.298 21.8347C196.298 22.2155 196.341 22.5717 196.428 22.9034C196.527 23.235 196.675 23.5237 196.873 23.7694C197.071 24.0028 197.325 24.187 197.634 24.3221C197.955 24.4573 198.339 24.5248 198.784 24.5248C199.378 24.5248 199.99 24.4143 200.621 24.1932C201.252 23.9598 201.827 23.6281 202.347 23.1982C202.545 23.0016 202.644 22.7989 202.644 22.5901L202.644 18.3706ZM206.225 22.2216C206.225 23.106 206.317 23.7264 206.503 24.0826C206.701 24.4266 207.01 24.5985 207.431 24.5985C207.715 24.5985 207.944 24.5678 208.117 24.5064C208.303 24.445 208.556 24.3099 208.878 24.101C209.002 23.9905 209.169 24.0642 209.379 24.3221C209.577 24.5801 209.602 24.7828 209.453 24.9302C209.02 25.4461 208.507 25.8638 207.913 26.1832C207.319 26.5025 206.719 26.6622 206.113 26.6622C205.334 26.6622 204.678 26.5148 204.146 26.22C203.627 25.9129 203.206 25.4093 202.885 24.7091C202.835 24.5985 202.755 24.5862 202.644 24.6722C201.951 25.2373 201.178 25.7164 200.324 26.1095C199.483 26.478 198.419 26.6622 197.133 26.6622C195.673 26.6622 194.541 26.2814 193.737 25.5198C192.946 24.7582 192.55 23.6711 192.55 22.2584C192.55 20.4036 193.391 18.9848 195.073 18.0021C196.768 17.0194 199.242 16.528 202.495 16.528C202.532 16.528 202.557 16.5157 202.569 16.4911C202.594 16.4666 202.606 16.3929 202.606 16.27C202.619 16.1349 202.625 15.9384 202.625 15.6804C202.637 15.4102 202.644 15.0355 202.644 14.5564C202.644 13.93 202.594 13.3403 202.495 12.7876C202.396 12.2348 202.211 11.7496 201.938 11.3319C201.666 10.9143 201.295 10.5887 200.825 10.3553C200.355 10.1097 199.749 9.98682 199.007 9.98682C198.265 9.98682 197.615 10.1711 197.059 10.5396C196.502 10.9081 196.224 11.381 196.224 11.9584C196.224 12.2163 196.31 12.4866 196.483 12.7691C196.669 13.0271 196.762 13.2973 196.762 13.5799C196.762 13.9238 196.582 14.2616 196.224 14.5933C195.865 14.925 195.438 15.0908 194.943 15.0908C194.251 15.0908 193.756 14.9065 193.459 14.538C193.174 14.1695 193.032 13.7211 193.032 13.1929C193.032 12.5542 193.212 11.9584 193.57 11.4056C193.929 10.8528 194.411 10.3738 195.018 9.96839C195.624 9.55074 196.329 9.22522 197.133 8.99182C197.949 8.75843 198.803 8.64173 199.693 8.64173C201.722 8.64173 203.318 9.10852 204.48 10.0421C205.643 10.9634 206.225 12.505 206.225 14.667L206.225 22.2216Z" fill="black"/>
<path d="M151.697 21.7241C151.697 22.3506 151.71 22.8788 151.734 23.3087C151.771 23.7387 151.864 24.0949 152.013 24.3774C152.174 24.6477 152.421 24.8626 152.755 25.0223C153.089 25.1697 153.559 25.2803 154.165 25.354C154.301 25.3786 154.4 25.4523 154.462 25.5751C154.524 25.6979 154.555 25.8269 154.555 25.962C154.555 26.0972 154.524 26.2139 154.462 26.3121C154.4 26.4227 154.301 26.478 154.165 26.478C153.905 26.478 153.615 26.4657 153.293 26.4411C152.971 26.4165 152.631 26.3858 152.272 26.349C151.914 26.3121 151.543 26.2814 151.159 26.2569C150.776 26.2323 150.398 26.22 150.027 26.22C149.211 26.22 148.425 26.263 147.671 26.349C146.916 26.435 146.217 26.478 145.574 26.478C145.451 26.478 145.358 26.4227 145.296 26.3121C145.234 26.2016 145.203 26.0787 145.203 25.9436C145.203 25.8085 145.234 25.6857 145.296 25.5751C145.37 25.4523 145.475 25.3786 145.611 25.354C146.255 25.2557 146.743 25.1329 147.077 24.9855C147.424 24.8381 147.671 24.6354 147.819 24.3774C147.98 24.1195 148.073 23.7939 148.098 23.4008C148.122 23.0078 148.135 22.5225 148.135 21.9452L148.135 16.3622C148.135 15.2812 148.116 14.3906 148.079 13.6904C148.054 12.9902 147.955 12.4313 147.782 12.0137C147.621 11.596 147.362 11.3012 147.003 11.1292C146.644 10.945 146.131 10.8283 145.463 10.7791C145.339 10.7791 145.24 10.7177 145.166 10.5949C145.104 10.4597 145.073 10.3185 145.073 10.1711C145.073 10.036 145.104 9.91926 145.166 9.82099C145.228 9.71043 145.327 9.65515 145.463 9.65515C146.106 9.6183 146.725 9.56302 147.318 9.48932C147.924 9.40333 148.469 9.31735 148.951 9.23136C149.446 9.13309 149.86 9.05324 150.194 8.99182C150.541 8.9304 150.776 8.89969 150.899 8.89969C151.431 8.89969 151.697 9.18837 151.697 9.76571C151.697 9.81484 151.679 9.93768 151.642 10.1342C151.604 10.3185 151.561 10.5335 151.512 10.7791C151.462 11.0125 151.419 11.2521 151.382 11.4977C151.345 11.7311 151.326 11.9215 151.326 12.0689C151.326 12.1181 151.345 12.1426 151.382 12.1426C151.419 12.1426 151.45 12.1181 151.475 12.0689C151.574 11.8724 151.778 11.5837 152.087 11.2029C152.409 10.8221 152.823 10.4413 153.33 10.0605C153.85 9.67972 154.462 9.34806 155.167 9.06553C155.884 8.783 156.682 8.64173 157.561 8.64173C159.07 8.64173 160.263 8.96725 161.142 9.6183C162.02 10.2693 162.645 11.1845 163.016 12.3638C163.077 12.4989 163.146 12.4989 163.22 12.3638C163.467 11.9215 163.801 11.4793 164.222 11.0371C164.642 10.5826 165.131 10.1834 165.687 9.83941C166.257 9.48318 166.881 9.19451 167.562 8.9734C168.242 8.75229 168.959 8.64173 169.714 8.64173C170.926 8.64173 171.91 8.81985 172.664 9.17608C173.431 9.53231 174.025 10.0298 174.445 10.6686C174.878 11.3073 175.169 12.0628 175.317 12.935C175.478 13.7948 175.559 14.7284 175.559 15.7357L175.559 21.7241C175.559 22.3506 175.571 22.8788 175.596 23.3087C175.62 23.7387 175.695 24.0949 175.818 24.3774C175.954 24.6477 176.165 24.8626 176.449 25.0223C176.734 25.1697 177.136 25.2803 177.655 25.354C177.791 25.3786 177.89 25.4523 177.952 25.5751C178.026 25.6857 178.063 25.8085 178.063 25.9436C178.063 26.0787 178.026 26.2016 177.952 26.3121C177.89 26.4227 177.791 26.478 177.655 26.478C177.482 26.478 177.266 26.4657 177.006 26.4411C176.758 26.4288 176.455 26.3981 176.097 26.349C175.738 26.2999 175.373 26.2691 175.002 26.2569C174.643 26.2323 174.272 26.22 173.889 26.22C173.072 26.22 172.293 26.263 171.551 26.349C170.821 26.435 170.159 26.478 169.565 26.478C169.429 26.478 169.324 26.4227 169.25 26.3121C169.188 26.2016 169.157 26.0787 169.157 25.9436C169.157 25.8085 169.194 25.6857 169.269 25.5751C169.343 25.4523 169.454 25.3786 169.603 25.354C170.196 25.2803 170.654 25.1697 170.976 25.0223C171.31 24.8749 171.551 24.6661 171.699 24.3958C171.848 24.1256 171.934 23.7939 171.959 23.4008C171.984 23.0078 171.996 22.5225 171.996 21.9452L171.996 17.0808C171.996 16.4052 171.971 15.705 171.922 14.9802C171.872 14.2432 171.736 13.5737 171.514 12.9718C171.303 12.3699 170.982 11.8724 170.549 11.4793C170.116 11.0862 169.51 10.8897 168.73 10.8897C168.013 10.8897 167.345 11.0432 166.727 11.3503C166.108 11.6451 165.57 12.0567 165.112 12.5849C164.655 13.1008 164.29 13.7088 164.018 14.409C163.758 15.1092 163.628 15.8524 163.628 16.6386L163.628 21.7241C163.628 22.4488 163.64 23.0323 163.665 23.4746C163.69 23.9168 163.77 24.2669 163.906 24.5248C164.042 24.7705 164.246 24.9548 164.519 25.0776C164.803 25.1882 165.205 25.2803 165.725 25.354C165.861 25.3786 165.96 25.4523 166.021 25.5751C166.096 25.6857 166.133 25.8085 166.133 25.9436C166.133 26.0787 166.096 26.2016 166.021 26.3121C165.96 26.4227 165.861 26.478 165.725 26.478C165.551 26.478 165.335 26.4657 165.075 26.4411C164.828 26.4288 164.525 26.3981 164.166 26.349C163.807 26.2999 163.442 26.2691 163.071 26.2569C162.713 26.2323 162.341 26.22 161.958 26.22C161.142 26.22 160.362 26.263 159.62 26.349C158.89 26.435 158.266 26.478 157.746 26.478C157.635 26.478 157.548 26.4227 157.486 26.3121C157.424 26.2139 157.394 26.0972 157.394 25.962C157.394 25.8269 157.424 25.6979 157.486 25.5751C157.548 25.4523 157.647 25.3786 157.783 25.354C158.34 25.2803 158.773 25.1882 159.082 25.0776C159.391 24.967 159.614 24.7951 159.75 24.5617C159.898 24.316 159.985 23.9905 160.01 23.5851C160.047 23.1675 160.065 22.6208 160.065 21.9452L160.065 17.0808C160.065 16.4052 160.035 15.705 159.973 14.9802C159.911 14.2432 159.762 13.5737 159.527 12.9718C159.305 12.3699 158.958 11.8724 158.488 11.4793C158.031 11.0862 157.4 10.8897 156.596 10.8897C155.742 10.8897 155.006 11.031 154.388 11.3135C153.769 11.5837 153.256 11.9645 152.848 12.4559C152.452 12.9472 152.161 13.5246 151.976 14.1879C151.79 14.839 151.697 15.5391 151.697 16.2885L151.697 21.7241Z" fill="black"/>
<path d="M124.724 21.7241C124.724 22.3506 124.742 22.8726 124.779 23.2903C124.816 23.7079 124.946 24.0519 125.169 24.3221C125.404 24.5801 125.763 24.7889 126.245 24.9486C126.74 25.096 127.433 25.2312 128.323 25.354C128.447 25.3786 128.54 25.4461 128.602 25.5567C128.676 25.6672 128.713 25.7962 128.713 25.9436C128.713 26.0787 128.67 26.2016 128.583 26.3121C128.509 26.4227 128.422 26.478 128.323 26.478C127.235 26.478 126.27 26.435 125.429 26.349C124.6 26.263 123.802 26.22 123.035 26.22C122.231 26.22 121.427 26.263 120.623 26.349C119.831 26.435 119.027 26.478 118.211 26.478C118.087 26.478 117.994 26.4227 117.933 26.3121C117.871 26.2016 117.84 26.0787 117.84 25.9436C117.84 25.7962 117.871 25.6672 117.933 25.5567C117.994 25.4461 118.1 25.3786 118.248 25.354C118.941 25.2557 119.479 25.1329 119.862 24.9855C120.258 24.8258 120.549 24.6231 120.734 24.3774C120.932 24.1195 121.05 23.8001 121.087 23.4193C121.124 23.0262 121.143 22.5348 121.143 21.9452L121.143 16.4359C121.143 15.2075 121.118 14.2309 121.068 13.5062C121.019 12.7691 120.895 12.2102 120.697 11.8294C120.512 11.4363 120.215 11.1722 119.807 11.0371C119.411 10.8897 118.854 10.7914 118.137 10.7423C118.013 10.7423 117.92 10.6809 117.858 10.558C117.797 10.4352 117.766 10.3123 117.766 10.1895C117.766 10.0544 117.803 9.9254 117.877 9.80256C117.951 9.67972 118.05 9.6183 118.174 9.6183C118.78 9.56917 119.386 9.50775 119.992 9.43404C120.611 9.34806 121.18 9.26821 121.699 9.19451C122.219 9.1208 122.652 9.05324 122.998 8.99182C123.357 8.9304 123.586 8.89969 123.685 8.89969C124.142 8.89969 124.371 9.12695 124.371 9.58145C124.371 9.75343 124.353 10.1097 124.315 10.6502C124.278 11.1906 124.26 11.6636 124.26 12.0689C124.26 12.1181 124.285 12.1426 124.334 12.1426C124.383 12.1426 124.421 12.1181 124.445 12.0689C124.878 10.9634 125.478 10.1158 126.245 9.52617C127.024 8.93655 128.057 8.64173 129.344 8.64173C130.408 8.64173 131.193 8.89355 131.7 9.39719C132.207 9.88855 132.461 10.5396 132.461 11.3503C132.461 11.8048 132.294 12.2163 131.96 12.5849C131.638 12.9411 131.174 13.1192 130.568 13.1192C129.987 13.1192 129.579 12.9841 129.344 12.7138C129.121 12.4313 129.01 12.1304 129.01 11.811C129.01 11.0494 128.645 10.6686 127.915 10.6686C127.433 10.6686 126.993 10.8283 126.598 11.1476C126.202 11.4547 125.862 11.8233 125.577 12.2532C125.305 12.6831 125.095 13.1254 124.946 13.5799C124.798 14.0344 124.724 14.3845 124.724 14.6301L124.724 21.7241Z" fill="black"/>
<path d="M103.78 17.1545C103.78 18.69 103.564 20.0535 103.131 21.245C102.698 22.4243 102.079 23.4193 101.275 24.23C100.484 25.0285 99.5312 25.6365 98.418 26.0542C97.3047 26.4595 96.0615 26.6622 94.6885 26.6622C93.501 26.6622 92.4001 26.4718 91.3857 26.091C90.3714 25.6979 89.4932 25.1206 88.751 24.359C88.0212 23.5851 87.4398 22.6147 87.0068 21.4477C86.5863 20.2807 86.376 18.9049 86.376 17.3203C86.376 16.0305 86.5863 14.8512 87.0068 13.7825C87.4398 12.7138 88.0397 11.8048 88.8066 11.0555C89.5859 10.2939 90.5199 9.70429 91.6084 9.28664C92.7093 8.8567 93.903 8.64173 95.1895 8.64173C96.4264 8.64173 97.5706 8.83213 98.6221 9.21293C99.6735 9.58145 100.576 10.1281 101.331 10.8528C102.098 11.5653 102.698 12.4497 103.131 13.5062C103.564 14.5626 103.78 15.7787 103.78 17.1545ZM99.791 17.5783C99.791 16.6201 99.723 15.6927 99.5869 14.796C99.4632 13.887 99.2344 13.0824 98.9004 12.3822C98.5788 11.6697 98.1273 11.0985 97.5459 10.6686C96.9645 10.2386 96.2161 10.0237 95.3008 10.0237C94.2865 10.0237 93.4639 10.2386 92.833 10.6686C92.2021 11.0985 91.7012 11.6759 91.3301 12.4006C90.959 13.1131 90.7054 13.9238 90.5693 14.8328C90.4333 15.7295 90.3652 16.6693 90.3652 17.652C90.3652 18.5119 90.4271 19.3963 90.5508 20.3053C90.6745 21.202 90.9157 22.0189 91.2744 22.7559C91.6331 23.4807 92.1217 24.0826 92.7402 24.5617C93.3587 25.0408 94.1504 25.2803 95.1152 25.2803C96.1048 25.2803 96.9027 25.053 97.5088 24.5985C98.1149 24.144 98.585 23.5544 98.9189 22.8296C99.2653 22.0926 99.4941 21.2696 99.6055 20.3606C99.7292 19.4393 99.791 18.5119 99.791 17.5783Z" fill="black"/>
<path d="M67.5107 21.7978C67.5107 22.412 67.5293 22.9279 67.5664 23.3456C67.6159 23.7509 67.7458 24.0887 67.9561 24.359C68.1787 24.617 68.5189 24.8258 68.9766 24.9855C69.4342 25.1329 70.0837 25.2557 70.9248 25.354C71.234 25.4031 71.3763 25.6058 71.3516 25.962C71.3392 26.306 71.2093 26.478 70.9619 26.478C69.9476 26.478 69.0384 26.435 68.2344 26.349C67.4427 26.263 66.6696 26.22 65.915 26.22C65.0986 26.22 64.2822 26.263 63.4658 26.349C62.6618 26.435 61.8825 26.478 61.1279 26.478C60.8682 26.478 60.7383 26.2999 60.7383 25.9436C60.763 25.5628 60.9053 25.3663 61.165 25.354C61.8454 25.2557 62.3711 25.139 62.7422 25.0039C63.1257 24.8688 63.404 24.6784 63.5771 24.4327C63.7503 24.1747 63.8493 23.8492 63.874 23.4561C63.9111 23.0508 63.9297 22.5348 63.9297 21.9084L63.9297 11.5714C63.9297 11.3995 63.9235 11.2643 63.9111 11.1661C63.9111 11.0678 63.8926 11.0002 63.8555 10.9634C63.8184 10.9143 63.7565 10.8835 63.6699 10.8713C63.5833 10.859 63.4596 10.8528 63.2988 10.8528H61.3877C61.2393 10.8528 61.1279 10.7914 61.0537 10.6686C60.9795 10.5457 60.9424 10.3983 60.9424 10.2264C60.9424 10.0544 60.9795 9.89469 61.0537 9.74728C61.1403 9.58759 61.264 9.49546 61.4248 9.47089L63.4844 9.26821C63.5957 9.26821 63.6761 9.26207 63.7256 9.24978C63.7874 9.22522 63.8307 9.1638 63.8555 9.06553C63.8926 8.96725 63.9111 8.81371 63.9111 8.60488C63.9235 8.39605 63.9297 8.10124 63.9297 7.72044C63.9297 6.61489 64.1029 5.59532 64.4492 4.66174C64.7956 3.71588 65.2965 2.899 65.9521 2.2111C66.6077 1.51092 67.418 0.970429 68.3828 0.589628C69.3477 0.196543 70.4486 0 71.6855 0C72.3164 0 72.9411 0.0614196 73.5596 0.184259C74.1904 0.307098 74.7533 0.515924 75.248 0.810738C75.7428 1.09327 76.1387 1.46793 76.4355 1.93472C76.7448 2.4015 76.8994 2.97271 76.8994 3.64832C76.8994 3.86943 76.8499 4.0844 76.751 4.29323C76.6644 4.48977 76.5345 4.66789 76.3613 4.82758C76.2005 4.97498 76.0088 5.09168 75.7861 5.17767C75.5635 5.26366 75.3223 5.30665 75.0625 5.30665C74.8522 5.30665 74.6481 5.28208 74.4502 5.23295C74.2523 5.17153 74.0729 5.09168 73.9121 4.99341C73.7513 4.88285 73.6214 4.74773 73.5225 4.58804C73.4359 4.42835 73.3926 4.24409 73.3926 4.03526C73.3926 3.65446 73.4482 3.40878 73.5596 3.29823C73.6833 3.18767 73.7451 3.04027 73.7451 2.85601C73.7451 2.34008 73.5286 1.95928 73.0957 1.71361C72.6751 1.46793 72.1309 1.34509 71.4629 1.34509C70.8073 1.34509 70.2507 1.44336 69.793 1.6399C69.3477 1.83644 68.9766 2.10669 68.6797 2.45064C68.3952 2.78231 68.1725 3.16925 68.0117 3.61147C67.8509 4.05369 67.7334 4.52048 67.6592 5.01184C67.585 5.49091 67.5417 5.98226 67.5293 6.4859C67.5169 6.98954 67.5107 7.46862 67.5107 7.92312L67.5107 8.64173C67.5107 8.93654 67.5355 9.11466 67.585 9.17608C67.6344 9.2375 67.8014 9.26821 68.0859 9.26821H71.7598C72.069 9.26821 72.2236 9.53231 72.2236 10.0605C72.2236 10.5887 72.069 10.8528 71.7598 10.8528H68.0859C67.9375 10.8528 67.8262 10.859 67.752 10.8713C67.6777 10.8835 67.6221 10.9143 67.585 10.9634C67.5479 11.0002 67.5231 11.0678 67.5107 11.1661C67.5107 11.2643 67.5107 11.3995 67.5107 11.5714L67.5107 21.7978Z" fill="black"/>
<path d="M32.5957 21.7241C32.5957 22.9893 32.7998 23.8799 33.208 24.3958C33.6162 24.9118 34.2965 25.2434 35.249 25.3908C35.4098 25.4154 35.5212 25.483 35.583 25.5935C35.6449 25.7041 35.6758 25.8331 35.6758 25.9805C35.6758 26.1156 35.6387 26.2384 35.5645 26.349C35.4902 26.4595 35.3851 26.5148 35.249 26.5148C35.1253 26.5148 34.9027 26.5025 34.5811 26.478C34.2718 26.4534 33.9069 26.4227 33.4863 26.3858C33.0658 26.349 32.6266 26.3121 32.1689 26.2753C31.7236 26.2384 31.3092 26.22 30.9258 26.22C30.1094 26.22 29.3363 26.263 28.6064 26.349C27.8766 26.435 27.1777 26.478 26.5098 26.478C26.3861 26.478 26.2933 26.4227 26.2314 26.3121C26.1696 26.2016 26.1387 26.0849 26.1387 25.962C26.1387 25.8269 26.1696 25.6979 26.2314 25.5751C26.2933 25.4523 26.3984 25.3786 26.5469 25.354C27.1654 25.2557 27.6416 25.1452 27.9756 25.0223C28.3219 24.8872 28.5693 24.7029 28.7178 24.4695C28.8786 24.2239 28.9714 23.9045 28.9961 23.5114C29.0208 23.106 29.0332 22.584 29.0332 21.9452L29.0332 17.1913C29.0332 15.9384 29.027 14.9065 29.0146 14.0958C29.0023 13.2728 28.9095 12.6217 28.7363 12.1426C28.5755 11.6636 28.3158 11.3258 27.957 11.1292C27.6107 10.9204 27.0911 10.8037 26.3984 10.7791C26.25 10.7791 26.1449 10.7177 26.083 10.5949C26.0212 10.472 25.9902 10.3492 25.9902 10.2264C25.9902 10.0912 26.015 9.96225 26.0645 9.83941C26.1139 9.71657 26.1882 9.65515 26.2871 9.65515C27.7344 9.55688 28.9528 9.40948 29.9424 9.21293C30.932 9.00411 31.5628 8.89969 31.835 8.89969C32.1195 8.89969 32.3174 8.9734 32.4287 9.1208C32.54 9.26821 32.5957 9.45861 32.5957 9.69201C32.5957 9.74114 32.5771 9.87012 32.54 10.0789C32.5029 10.2755 32.4596 10.5089 32.4102 10.7791C32.3607 11.0371 32.3174 11.2889 32.2803 11.5346C32.2432 11.768 32.2246 11.9461 32.2246 12.0689C32.2246 12.1181 32.2432 12.1426 32.2803 12.1426C32.3174 12.1426 32.3483 12.1181 32.373 12.0689C32.5462 11.7618 32.8122 11.4179 33.1709 11.0371C33.5296 10.644 33.9564 10.2693 34.4512 9.91312C34.9583 9.55688 35.5397 9.25593 36.1953 9.01025C36.8633 8.76457 37.5745 8.64173 38.3291 8.64173C40.1351 8.64173 41.5452 9.1638 42.5596 10.2079C43.5739 11.2521 44.0811 12.9411 44.0811 15.275L44.0811 21.7241C44.0811 22.3997 44.1058 22.9525 44.1553 23.3824C44.2048 23.8124 44.3099 24.1625 44.4707 24.4327C44.6315 24.6907 44.8665 24.8933 45.1758 25.0408C45.485 25.1759 45.9056 25.2803 46.4375 25.354C46.5612 25.3786 46.654 25.4461 46.7158 25.5567C46.7777 25.6672 46.8086 25.7962 46.8086 25.9436C46.8086 26.0787 46.7777 26.2016 46.7158 26.3121C46.654 26.4227 46.5612 26.478 46.4375 26.478C46.1035 26.478 45.5345 26.435 44.7305 26.349C43.9388 26.263 43.1657 26.22 42.4111 26.22C41.5947 26.22 40.8464 26.263 40.166 26.349C39.498 26.435 38.929 26.478 38.459 26.478C38.3229 26.478 38.224 26.4227 38.1621 26.3121C38.1003 26.2016 38.0632 26.0849 38.0508 25.962C38.0384 25.8269 38.057 25.6979 38.1064 25.5751C38.1559 25.4523 38.2549 25.3786 38.4033 25.354C38.9105 25.2557 39.3001 25.1329 39.5723 24.9855C39.8568 24.8258 40.0671 24.6231 40.2031 24.3774C40.3516 24.1195 40.4382 23.8001 40.4629 23.4193C40.4876 23.0262 40.5 22.5348 40.5 21.9452L40.5 16.2148C40.5 15.5883 40.4814 14.9618 40.4443 14.3353C40.4072 13.7088 40.2773 13.1438 40.0547 12.6401C39.8444 12.1365 39.529 11.7189 39.1084 11.3872C38.7002 11.0555 38.1126 10.8897 37.3457 10.8897C35.8242 10.8897 34.6491 11.3749 33.8203 12.3453C33.0039 13.3158 32.5957 14.71 32.5957 16.528L32.5957 21.7241Z" fill="black"/>
<path d="M4.10059 6.59646C4.10059 5.81029 4.05729 5.14082 3.9707 4.58804C3.88411 4.03526 3.71094 3.5869 3.45117 3.24295C3.20378 2.88672 2.84505 2.61647 2.375 2.43221C1.90495 2.23567 1.28027 2.11283 0.500977 2.0637C0.352539 2.0637 0.235026 1.99614 0.148437 1.86101C0.0742187 1.72589 0.0371094 1.58462 0.0371094 1.43722C0.0371094 1.27753 0.0742187 1.13626 0.148437 1.01342C0.235026 0.890584 0.352539 0.829165 0.500977 0.829165C1.30501 0.829165 2.22656 0.866016 3.26562 0.93972C4.30469 1.01342 5.2819 1.05027 6.19727 1.05027C6.72917 1.05027 7.23014 1.03799 7.7002 1.01342C8.17025 0.988855 8.62174 0.964288 9.05469 0.93972C9.5 0.915152 9.9515 0.890584 10.4092 0.866016C10.8669 0.841448 11.3617 0.829165 11.8936 0.829165C12.0544 0.829165 12.1657 0.890584 12.2275 1.01342C12.2894 1.13626 12.3141 1.27753 12.3018 1.43722C12.2894 1.58462 12.2399 1.72589 12.1533 1.86101C12.0791 1.99614 11.9801 2.0637 11.8564 2.0637C11.0771 2.11283 10.4463 2.22339 9.96387 2.39536C9.48145 2.55505 9.11035 2.80687 8.85059 3.15082C8.60319 3.48249 8.44238 3.92471 8.36816 4.47749C8.29395 5.03026 8.25684 5.73659 8.25684 6.59646L8.25684 21.3924C8.25684 22.2155 8.30631 22.8604 8.40527 23.3271C8.50423 23.7939 8.68359 24.1563 8.94336 24.4143C9.21549 24.6599 9.59277 24.8442 10.0752 24.967C10.5576 25.0776 11.1761 25.1697 11.9307 25.2434C12.0915 25.268 12.2152 25.3478 12.3018 25.483C12.3883 25.6181 12.4316 25.7655 12.4316 25.9252C12.4316 26.0726 12.3883 26.2077 12.3018 26.3306C12.2152 26.4534 12.0791 26.5148 11.8936 26.5148C10.8792 26.5148 9.9082 26.4657 8.98047 26.3674C8.0651 26.2691 7.14974 26.22 6.23437 26.22C5.26953 26.22 4.27376 26.2691 3.24707 26.3674C2.22038 26.4657 1.29264 26.5148 0.463867 26.5148C0.30306 26.5148 0.185547 26.4534 0.111328 26.3306C0.0371092 26.2077 -1.89598e-07 26.0726 -1.88491e-07 25.9252C-1.87292e-07 25.7655 0.0371092 25.6181 0.111328 25.483C0.185547 25.3478 0.30306 25.268 0.463867 25.2434C1.24316 25.1697 1.86784 25.0776 2.33789 24.967C2.80794 24.8442 3.17285 24.6599 3.43262 24.4143C3.70475 24.1563 3.88411 23.7939 3.9707 23.3271C4.05729 22.8604 4.10059 22.2155 4.10059 21.3924L4.10059 6.59646Z" fill="black"/>
</svg>
