<svg width="59" height="60" viewBox="0 0 59 60" fill="none" xmlns="http://www.w3.org/2000/svg">
<g clip-path="url(#clip0_195_2533)">
<path d="M56.864 12.3284C56.8386 11.9578 56.5302 11.6693 56.1596 11.6693H51.8144L51.5683 8.11049C51.4155 5.90111 50.4396 3.85298 48.8214 2.34234C47.2033 0.8317 45.0901 0 42.875 0C38.3148 0 34.4958 3.5616 34.1818 8.11049L33.9357 11.6693H29.5905C29.2199 11.6693 28.9115 11.9578 28.8861 12.3284L27.415 33.6047L34.2469 35.8452L35.7066 36.3261L39.9358 37.7122C39.9811 37.7292 40.0235 37.7462 40.0659 37.7632C40.1536 37.7999 40.2413 37.8395 40.3234 37.8876L40.3658 37.9103L40.4054 37.9357L40.4394 37.9584C40.5751 38.0489 40.7024 38.1564 40.8184 38.278C40.8495 38.312 40.8778 38.3459 40.909 38.3827C40.9882 38.4789 41.0589 38.5835 41.1183 38.6939C41.1409 38.7307 41.1607 38.7674 41.1805 38.807C41.2117 38.8749 41.2399 38.94 41.2654 39.0079C41.2824 39.056 41.2965 39.1012 41.3107 39.1493L41.3503 39.2483L41.3616 39.3756C41.3814 39.4916 41.3927 39.6104 41.3927 39.7293V42.2046C41.3927 42.247 41.3899 42.2866 41.387 42.329C41.3814 42.3969 41.3757 42.4535 41.3701 42.4846C41.3644 42.544 41.3531 42.6063 41.339 42.6713C41.3191 42.7619 41.2937 42.8354 41.2795 42.875C41.2711 42.909 41.2484 42.9769 41.2116 43.0589C41.172 43.1494 41.1353 43.2145 41.1155 43.2484C41.0985 43.2795 41.0617 43.3446 41.0108 43.4182C40.9967 43.438 40.9825 43.4549 40.9712 43.4719V43.9189H58.2926C58.4878 43.9189 58.6745 43.8368 58.8103 43.6954C58.9433 43.5511 59.0112 43.3588 58.997 43.1636L56.864 12.3284ZM37.5256 11.6693L37.7604 8.26326C37.9471 5.5871 40.1932 3.49088 42.875 3.49088C45.5569 3.49088 47.803 5.5871 47.9897 8.26043L48.2245 11.6693H37.5256Z" fill="#C17EBE"/>
<path d="M18.7641 35.913L8.3396 45.9726L19.8901 49.7577L26.7558 43.1324L30.8464 39.186L33.1096 36.9625L27.3131 35.0587L21.5535 33.1689L18.7641 35.913Z" fill="#C17EBE"/>
<path d="M17.7799 34.9003L20.043 32.6739L14.6822 30.9143C14.6087 30.8917 14.5351 30.8804 14.4616 30.8804C14.2862 30.8804 14.1164 30.9426 13.9863 31.0642L0.449951 43.387L6.81784 45.4747L17.7799 34.9003Z" fill="#C17EBE"/>
<path d="M20.8379 52.5413L24.9511 53.8907V52.9034L20.8379 51.5569V52.5413Z" fill="#C17EBE"/>
<path d="M27.9808 43.919L21.4121 50.2558L25.4857 51.591L33.8424 43.919L39.2314 38.9712L34.626 37.4578L31.8338 40.2018L27.9808 43.919Z" fill="#C17EBE"/>
<path d="M6.30282 46.7958L0 44.7307V45.7039L6.30282 47.7718V46.7958Z" fill="#C17EBE"/>
<path d="M36.3572 46.0857L26.241 55.291V58.8893L39.3247 46.9768C39.3247 46.9768 39.3304 46.9711 39.336 46.9655C39.3558 46.9485 39.3728 46.9259 39.3898 46.9061C39.4011 46.8919 39.4152 46.8778 39.4265 46.8608C39.4407 46.841 39.452 46.8184 39.4633 46.7986C39.4746 46.7788 39.4859 46.7618 39.4944 46.742C39.5029 46.7194 39.5086 46.6996 39.5171 46.6769C39.5255 46.6543 39.534 46.6317 39.5369 46.609C39.5425 46.5892 39.5425 46.5694 39.5453 46.5496C39.551 46.5213 39.5538 46.4959 39.5538 46.4704C39.5538 46.4648 39.5567 46.4591 39.5567 46.4563V43.022L38.6203 43.9187L36.3572 46.0857Z" fill="#C17EBE"/>
<path d="M26.3655 52.7027V53.2657L35.3925 45.0505L36.5722 43.919L39.9782 40.6544V40.2046L35.9329 43.919L26.3655 52.7027Z" fill="#C17EBE"/>
<path d="M24.8267 55.3393L20.8379 54.0295V57.9589L24.8267 59.2659V55.3393Z" fill="#C17EBE"/>
<path d="M6.30294 49.2599L0.421631 47.3306V50.7536C0.421631 51.0591 0.619655 51.3306 0.908204 51.4268L6.30294 53.1949V49.2599Z" fill="#C17EBE"/>
<path d="M19.4233 51.0931L7.71729 47.2571V53.6589L19.4233 57.4949V51.0931Z" fill="#C17EBE"/>
</g>
<defs>
<clipPath id="clip0_195_2533">
<rect width="58.9998" height="59.2657" fill="white"/>
</clipPath>
</defs>
</svg>
